<svg width="199" height="199" viewBox="0 0 199 199" fill="none" xmlns="http://www.w3.org/2000/svg">
  <g clip-path="url(#clip0_236_1563)">
    <path d="M198.93 0H0V198.93H198.93V0Z" fill="#1B2643"/>
    <path d="M118.19 0.370036C127.53 0.370036 136.88 0.370036 146.19 0.370036C147.87 0.370036 149.12 0.640036 150.19 2.19004C157.623 13.3234 165.113 24.4134 172.66 35.46C173.83 37.17 173.85 38.18 172.36 39.71C160.98 51.41 149.647 63.16 138.36 74.96C137.988 75.4391 137.496 75.8122 136.935 76.042C136.373 76.2719 135.761 76.3505 135.16 76.27C119.63 74.6 104.08 73.03 88.54 71.44C83.61 70.94 78.7 70.37 73.76 70.04C73.0944 70.0685 72.4383 69.8746 71.8951 69.4889C71.3519 69.1033 70.9526 68.5478 70.76 67.91C65.71 55.31 60.57 42.72 55.28 30.2C54.28 27.91 54.69 26.62 56.61 25.1C66.3033 17.4134 75.93 9.64004 85.49 1.78004C86.8136 0.737165 88.4794 0.227079 90.16 0.350036C99.5 0.390036 108.85 0.370036 118.19 0.370036ZM101.73 8.21004C101.189 8.04374 100.615 8.02274 100.063 8.14913C99.5122 8.27552 99.004 8.54486 98.59 8.93004C91.2 15.15 83.82 21.4 76.37 27.56C74.97 28.72 74.93 29.7 75.67 31.25C79.03 38.36 82.42 45.47 85.49 52.71C86.6 55.33 88.21 56.13 90.81 56.36C102.23 57.36 113.64 58.45 125.05 59.59C125.921 59.7412 126.815 59.6752 127.654 59.3979C128.493 59.1205 129.251 58.6404 129.86 58C136.58 51.2 143.377 44.4734 150.25 37.82C151.69 36.42 152.05 35.39 150.85 33.56C146.56 26.97 142.4 20.29 138.29 13.56C137.792 12.6815 137.074 11.9481 136.206 11.4325C135.337 10.9169 134.35 10.6368 133.34 10.62C122.69 9.82003 112 9.00004 101.73 8.21004Z" fill="#6380BD"/>
    <path d="M9.18997 112.45C-3.24249e-05 112.5 -3.26745e-05 112.5 -3.26745e-05 103.87C-3.26745e-05 102.87 0.0699673 101.87 -3.26745e-05 100.87C-0.120033 99.07 0.549967 98.41 2.36997 98.87C3.07928 99.0394 3.82033 99.0225 4.52119 98.821C5.22205 98.6195 5.85892 98.2403 6.36997 97.72C15.7033 89.6134 25.0933 81.5667 34.54 73.58C36.25 72.13 36.7 70.92 35.9 68.71C33.07 60.9 30.46 53.01 27.9 45.11C27.36 43.44 26.56 42.97 24.85 42.83C17.46 42.26 10.09 41.43 2.68997 40.83C0.769967 40.59 -0.100033 39.94 -3.26745e-05 37.88C0.139967 35.07 0.129967 32.25 -3.26745e-05 29.44C-0.0900327 27.36 0.609967 26.68 2.73997 26.88C14.9333 28.04 27.1333 29.13 39.34 30.15C41.68 30.34 43.09 31.15 43.99 33.56C48.6566 46.18 53.48 58.76 58.46 71.3C58.8596 72.0157 58.9785 72.8545 58.7937 73.653C58.6088 74.4516 58.1334 75.1528 57.46 75.62C44.18 87.4067 30.9333 99.2401 17.72 111.12C14.93 113.61 11.64 111.75 9.18997 112.45Z" fill="#6380BD"/>
    <path d="M30.9 112.42L58.24 87.31C60.1591 85.7658 61.9731 84.0954 63.67 82.31C65.99 79.54 68.79 79.19 72.11 79.55C91.4434 81.6434 110.777 83.6634 130.11 85.61C131.268 85.6414 132.393 86.0075 133.347 86.6641C134.302 87.3207 135.046 88.2397 135.49 89.31C138.83 96.06 142.39 102.7 145.94 109.31C147.08 111.44 147.44 112.63 144.16 112.51C138.16 112.29 132.23 112.36 126.27 112.51C124.27 112.51 122.96 111.84 122.51 110.02C120.75 102.82 115.87 101.02 108.96 100.69C98.2 100.15 87.49 98.6 76.79 97.3C76.0353 97.15 75.2548 97.1942 74.5219 97.4286C73.789 97.663 73.1276 98.0799 72.6 98.64C68.41 102.72 64.15 106.73 59.93 110.78C59.03 111.63 58.2 112.48 56.78 112.47C48.5 112.41 40.2 112.42 30.9 112.42Z" fill="#6380BD"/>
    <path d="M187 112.4C179 112.4 171.74 112.4 164.45 112.4C163.04 112.4 162.52 111.59 161.96 110.58C156.96 101.65 152.04 92.7101 147.02 83.8001C146.16 82.2701 146.35 81.2501 147.56 79.9601C158.78 68.0401 169.97 56.0534 181.13 44.0001C181.652 43.3572 182.339 42.8693 183.118 42.589C183.897 42.3088 184.738 42.2469 185.55 42.4101C189.11 42.9101 192.69 43.3101 196.27 43.5201C198.09 43.6201 198.93 44.1401 198.89 46.0701C198.8 49.3301 198.89 52.5901 198.89 55.8501C198.94 57.6701 198.21 58.3501 196.45 57.8501C194.33 57.3001 192.94 58.1701 191.54 59.7901C184.98 67.3301 178.31 74.7901 171.61 82.2101C170.23 83.7301 170.32 84.9201 171.36 86.6101C176.51 95.0001 181.51 103.37 187 112.4Z" fill="#6380BD"/>
    <path d="M16.37 140.35C9.79004 140.35 5.31004 135.98 5.29004 129.48C5.29004 122.82 9.56004 118.4 16.11 118.34C22.66 118.28 27.11 122.64 27.2 129.21C27.29 135.78 22.87 140.32 16.37 140.35ZM9.37004 129.08C9.29004 133.91 11.82 136.75 16.11 136.91C19.68 137.04 22.68 134.8 22.9 129.61C23.1 124.61 20.6 121.82 16.29 121.79C11.98 121.76 9.49004 124.52 9.42004 129.08H9.37004Z" fill="#E8EDF2"/>
    <path d="M50 167.68C47 168.46 45 167.93 43.71 165.2C42.8519 163.63 41.8932 162.117 40.84 160.67C40.5678 160.239 40.1574 159.914 39.6759 159.746C39.1945 159.579 38.6706 159.58 38.19 159.75C37.04 160.03 37.54 161.02 37.5 161.75C37.402 163.081 37.402 164.418 37.5 165.75C37.68 167.57 36.91 168.01 35.2 168.03C33.26 168.03 33.39 166.95 33.4 165.66C33.4 160.05 33.47 154.44 33.4 148.83C33.4 147.02 33.8 146.13 35.82 146.31C38.27 146.52 40.74 146.19 43.19 146.75C45.84 147.36 47.74 148.75 48.26 151.46C48.5642 152.672 48.4607 153.951 47.9655 155.099C47.4702 156.247 46.6108 157.199 45.52 157.81C43.99 158.71 44.12 159.2 45.08 160.45C46.81 162.71 48.31 165.17 50 167.68ZM37.51 153C38.1 154.11 36.04 156.69 39.43 156.69C42.54 156.69 44.49 155.32 44.34 152.94C44.16 150.09 42.09 149.86 39.8 149.61C36.84 149.24 37.56 151.19 37.51 153Z" fill="#E8EDF2"/>
    <path d="M5.27 185C5.24058 183.116 5.70147 181.256 6.60746 179.604C7.51344 177.952 8.83341 176.563 10.4378 175.575C12.0423 174.587 13.8761 174.033 15.7593 173.967C17.6425 173.901 19.5105 174.326 21.18 175.2C22.11 175.67 23.75 175.86 23.07 177.62C22.39 179.38 21.25 179.2 19.66 178.43C15.47 176.43 11.6 177.85 9.93 181.86C8.13 186.18 10.05 191.14 14.06 192.54C15.01 192.904 16.0371 193.021 17.0447 192.88C18.0523 192.738 19.0074 192.342 19.82 191.73C21.11 190.79 22.11 190.73 22.82 192.13C23.53 193.53 22.82 194.29 21.29 194.99C12.87 198.81 5.23 194.13 5.27 185Z" fill="#E8EDF2"/>
    <path d="M95.57 124.94C95.57 123.37 95.63 121.6 95.57 119.84C95.51 118.49 95.83 117.84 97.4 117.84C98.97 117.84 99.22 118.55 99.21 119.84C99.21 126.01 99.13 132.19 99.21 138.36C99.21 140.29 97.71 140.8 97.03 140.01C95.29 138.01 94.14 139.7 92.68 140.06C91.9325 140.311 91.1409 140.403 90.3557 140.331C89.5705 140.259 88.8091 140.023 88.12 139.64C85.29 137.87 84.12 132.91 85.63 128.96C87.02 125.35 89.79 123.96 93.69 124.8C94.21 124.94 94.63 125.47 95.57 124.94ZM95.57 132.16C95.34 130.86 96.23 129.09 94.57 127.99C93.8981 127.459 93.0434 127.216 92.1927 127.313C91.342 127.411 90.5644 127.841 90.03 128.51C88.67 129.94 88.53 134.95 89.85 136.44C91.17 137.93 92.57 137.69 94.09 136.82C96 135.75 95.53 134 95.56 132.16H95.57Z" fill="#E8EDF2"/>
    <path d="M143.73 153.75C150.46 151.06 153.3 152.99 153.32 159.75C153.32 161.75 153.25 163.8 153.32 165.83C153.38 167.28 153.15 168.08 151.32 168.04C149.49 168 149.52 167.21 149.55 165.94C149.6 163.57 149.55 161.21 149.55 158.85C149.55 156.99 149.01 155.34 146.76 155.45C144.76 155.55 143.46 156.51 143.63 158.9C143.8 161.29 143.54 163.63 143.7 165.99C143.81 167.72 143.11 168.04 141.56 167.99C140.01 167.94 139.7 167.4 139.72 165.99C139.78 159.923 139.78 153.847 139.72 147.76C139.72 146.13 140.3 145.63 141.89 145.64C143.48 145.65 143.72 146.44 143.68 147.76C143.69 149.68 143.73 151.59 143.73 153.75Z" fill="#E8EDF2"/>
    <path d="M59 161.55C58.07 162.17 55.92 160.64 55.87 162.55C55.8 164.63 57.76 165.34 59.76 165.36C60.94 165.36 61.76 164.58 62.76 164.13C63.91 163.6 64.37 164.47 64.93 165.06C65.78 165.97 64.93 166.37 64.3 166.85C62.8004 167.823 61.0399 168.315 59.2532 168.262C57.4665 168.208 55.7387 167.611 54.3 166.55C51.5 164.1 50.8 158.99 52.81 155.75C53.7554 154.28 55.1962 153.198 56.8711 152.699C58.5461 152.2 60.3443 152.317 61.94 153.03C63.0428 153.468 63.9843 154.235 64.6372 155.225C65.29 156.216 65.6226 157.384 65.59 158.57C65.59 159.92 65.53 160.8 63.74 161.05C62.1955 161.461 60.5964 161.63 59 161.55ZM59 158.68C60 157.84 62 159.68 62 157.32C62 155.8 60.53 155.17 59.11 155.13C57.69 155.09 55.94 155.79 55.94 157.39C55.9 159.68 58 157.8 58.93 158.68H59Z" fill="#E8EDF2"/>
    <path d="M63.3 124.63C68.11 124.63 70.88 127.41 70.91 132.37C70.94 137.33 68.2 140.37 63.49 140.37C58.78 140.37 55.84 137.37 55.84 132.55C55.84 127.58 58.57 124.67 63.3 124.63ZM59.67 132.55C59.94 134.81 59.95 137.38 63.33 137.45C66.71 137.52 67.06 135.06 67.22 132.65C67.43 129.44 65.77 127.31 63.35 127.42C60.07 127.56 59.88 130 59.67 132.55Z" fill="#E8EDF2"/>
    <path d="M42.36 188.06C42.36 186.15 42.46 184.24 42.36 182.34C42.26 180.44 43.9 180.09 44.64 180.8C46.1 182.2 46.9499 181.35 48.2599 180.8C52.0599 179.21 55.52 181.48 55.79 185.75C55.97 188.55 55.79 191.37 55.86 194.17C55.92 195.92 55.04 196.17 53.59 196.17C51.81 196.17 51.94 195.17 51.95 193.99C51.95 191.63 51.95 189.27 51.95 186.91C51.95 184.98 51.84 183.2 49.16 183.38C46.78 183.55 45.86 184.8 45.99 187.16C46.12 189.52 45.99 191.87 45.99 194.23C46.04 195.64 45.6199 196.17 44.0999 196.23C42.5799 196.29 42.28 195.44 42.31 194.15C42.36 192.15 42.31 190.15 42.31 188.09L42.36 188.06Z" fill="#E8EDF2"/>
    <path d="M97.41 154.68C98.2661 154.145 99.1508 153.658 100.06 153.22C105.81 150.75 109.8 153.39 109.86 159.68V160C109.86 168.54 109.86 168.58 101.41 168.31C99.41 168.25 97.61 167.6 97.11 165.31C96.8386 164.379 96.9289 163.379 97.3628 162.511C97.7966 161.644 98.542 160.972 99.45 160.63C100.903 160.068 102.407 159.646 103.94 159.37C104.94 159.13 106.29 159.48 106.04 157.62C105.79 155.76 104.78 155.36 103.27 155.42C102.598 155.429 101.938 155.604 101.35 155.93C99.45 157.12 98.3 156.32 97.41 154.68ZM104.5 161.68C102.94 161.99 100.95 161.87 100.64 163.99C100.44 165.38 101.64 165.9 102.88 165.73C104.43 165.51 105.99 165.16 106.09 163.08C106.14 161.92 105.69 161.43 104.5 161.68Z" fill="#E8EDF2"/>
    <path d="M12.6899 152.31C14.8099 152.69 16.8499 153.19 18.0999 155.24C18.9999 156.72 19.7099 158.4 19.0999 160C18.4199 161.83 16.5299 160.74 15.1899 160.91C13.8499 161.08 12.7099 160.91 11.4899 160.98C10.6899 161.06 9.48994 160.39 9.17994 161.6C9.08427 162.099 9.12689 162.614 9.30317 163.09C9.47945 163.566 9.78267 163.984 10.1799 164.3C11.9599 165.84 13.8999 165.6 15.8399 164.64C17.0299 164.04 18.1199 164.07 18.6099 165.38C19.0999 166.69 17.6899 166.91 16.8799 167.31C13.6199 168.93 9.67994 168.49 7.45994 166.31C6.33464 165.052 5.57708 163.509 5.27018 161.849C4.96329 160.189 5.11888 158.477 5.71994 156.9C7.06994 153.86 9.55994 152.65 12.6899 152.31ZM9.28994 157.84C10.4499 159.12 12.0399 158.37 13.3999 158.44C14.1499 158.44 15.7299 159.22 15.5799 157.44C15.4299 155.66 14.0599 155.04 12.4799 155.13C11.7114 155.123 10.9661 155.394 10.3804 155.891C9.79468 156.389 9.4076 157.081 9.28994 157.84Z" fill="#E8EDF2"/>
    <path d="M84.5399 161.23C85.4799 165.23 87.1799 166.23 91.0199 164.81C92.2599 164.35 93.5399 163.71 94.1099 165.27C94.6799 166.83 92.9099 167.27 91.9699 167.64C90.2221 168.451 88.2432 168.614 86.3861 168.101C84.5289 167.588 82.9143 166.433 81.8299 164.84C79.8299 161.67 80.5199 155.98 83.5899 153.77C86.8399 151.42 92.1699 151.66 94.2399 156.44C95.5899 159.56 94.6299 160.91 91.2399 160.94C89.2399 160.94 87.2399 160.94 85.1699 160.94C84.9423 160.993 84.7279 161.091 84.5399 161.23ZM84.4699 158.49C86.4699 158.49 88.0899 158.49 89.7399 158.49C91.6599 158.49 91.4299 157.49 90.7399 156.41C89.2099 154.1 86.2499 154.88 84.4699 158.49Z" fill="#E8EDF2"/>
    <path d="M86.06 188.8C86.75 193.03 88.61 194.21 92.33 192.8C93.49 192.36 94.7 191.37 95.46 193.02C96.22 194.67 94.46 195.02 93.51 195.44C91.8505 196.303 89.9369 196.544 88.1155 196.118C86.2941 195.693 84.6852 194.629 83.58 193.12C81.48 190.12 81.67 184.12 84.25 181.9C86.65 179.9 89.64 179.9 92.47 180.9C95.07 181.9 95.99 184.18 96.14 186.83C96.22 188.22 95.65 188.83 94.14 188.83C91.47 188.73 88.78 188.8 86.06 188.8ZM89.33 186.75C90.33 186.04 92.33 187.75 92.58 185.56C92.76 183.75 91.04 183.03 89.58 183.06C88.12 183.09 86.16 183.76 86.33 185.71C86.5 187.66 88.37 186.11 89.33 186.75Z" fill="#E8EDF2"/>
    <path d="M34.13 188.81C33.4854 188.737 32.8347 188.737 32.19 188.81C31.19 189.08 29.4 187.9 29.25 189.73C29.2162 190.529 29.4701 191.313 29.9655 191.941C30.461 192.569 31.1651 192.998 31.95 193.15C32.714 193.331 33.5074 193.349 34.279 193.205C35.0506 193.06 35.7834 192.755 36.43 192.31C36.6237 192.192 36.8403 192.117 37.0652 192.089C37.2902 192.062 37.5185 192.082 37.735 192.149C37.9516 192.216 38.1513 192.329 38.3212 192.479C38.491 192.629 38.6269 192.813 38.72 193.02C39.38 194.02 38.47 194.41 37.89 194.85C36.3823 195.817 34.6131 196.295 32.8237 196.22C31.0342 196.145 29.3115 195.52 27.89 194.43C25.45 192.32 24.62 187.7 26.09 184.53C27.56 181.36 30.71 179.76 34.43 180.53C37.54 181.19 39.84 184.15 39.18 187.2C38.41 190.64 35.52 187.86 34.13 188.81ZM32.49 186.86C33.38 185.86 35.38 187.73 35.68 185.63C35.95 183.8 34.22 183.09 32.78 183.07C31.34 183.05 29.4 183.7 29.5 185.67C29.6 187.64 31.47 186.06 32.49 186.86Z" fill="#E8EDF2"/>
    <path d="M28.89 140C30.59 137.26 33.29 134.79 33.29 132.32C33.29 129.85 30.56 127.44 29.05 125.03C33.88 123.24 34.25 127.76 36.32 129.93C38.69 128.23 38.7 123.43 43.26 124.93C43.53 126.16 42.51 126.93 41.82 127.64C38.93 130.64 38.64 133.46 41.65 136.53C42.4198 137.493 43.0899 138.532 43.65 139.63C40.42 141.1 40.41 141.11 39.33 139.42C38.25 137.73 37.33 136.24 36.33 134.62C33.89 136.7 33.79 141.4 28.89 140Z" fill="#E8EDF2"/>
    <path d="M66.88 166.21C67.95 164.72 69.14 164 70.88 165.21C71.3007 165.494 71.7818 165.676 72.2852 165.742C72.7885 165.808 73.3003 165.756 73.78 165.59C74.1547 165.504 74.4943 165.306 74.7534 165.021C75.0125 164.737 75.1787 164.381 75.23 164C75.2392 163.658 75.1326 163.323 74.9275 163.049C74.7224 162.774 74.4309 162.578 74.1 162.49C73.26 162.19 72.42 161.87 71.58 161.58C69.27 160.81 67.35 159.46 67.66 156.83C67.98 154 70.24 152.83 72.86 152.39C74.4 152.11 75.67 153.18 77.1 153.18C78.33 153.18 78.4 153.91 78.22 154.69C78.04 155.47 77.67 156.46 76.41 156.02C75.41 155.64 74.41 155.02 73.19 155.23C72.45 155.38 71.61 155.54 71.45 156.54C71.3817 156.932 71.463 157.336 71.6777 157.671C71.8925 158.006 72.2252 158.248 72.61 158.35C73.74 158.83 74.94 159.16 76.06 159.64C77.71 160.34 78.96 161.45 78.81 163.42C78.8047 164.385 78.501 165.325 77.9407 166.111C77.3804 166.897 76.5907 167.49 75.68 167.81C74.2042 168.355 72.6092 168.494 71.0613 168.213C69.5134 167.932 68.0694 167.24 66.88 166.21Z" fill="#E8EDF2"/>
    <path d="M64.41 196.22C61.52 196.33 60.41 194.48 60.17 192.04C59.96 190.04 60.17 188.04 60.1 186.04C60.1 184.94 60.59 183.62 58.6 183.32C57.6 183.17 57.67 181.47 58.51 181.32C60.87 180.91 60.67 179.12 61.02 177.57C61.23 176.57 61.53 175.98 62.74 175.98C64.16 175.98 64.15 176.84 64.03 177.73C63.74 179.91 64.28 181.17 66.82 180.73C67.82 180.55 68.12 181.19 68.13 182.15C68.14 183.11 67.62 183.62 66.7 183.46C63.94 182.96 63.91 184.62 64.04 186.6C64.14 188.16 64.04 189.73 64.04 191.3C64.04 192.1 64.04 193.11 65.04 193.08C66.42 193.08 68.17 192.81 67.95 194.63C67.8 196.2 65.88 196.21 64.41 196.22Z" fill="#E8EDF2"/>
    <path d="M52.36 118.13C53.01 118.65 54.45 117.96 54.64 119.4C54.81 120.63 53.85 120.86 52.94 121.02C51.66 121.26 50.36 121.56 50.6 123.24C50.8 124.59 51.85 124.94 53.11 124.78C54.37 124.62 54.67 125.28 54.65 126.39C54.63 127.5 53.91 127.69 53.07 127.56C50.76 127.22 50.51 128.5 50.59 130.36C50.71 132.94 50.59 135.53 50.59 138.11C50.59 139.3 50.68 140.21 48.93 140.25C47.18 140.29 47.03 139.34 47.06 137.99C47.12 135.74 47.13 133.49 47.06 131.25C47.01 129.61 47.83 127.58 45.06 127.02C44.4 126.88 44.12 125.23 44.92 125.15C47.44 124.9 46.92 123.05 47.29 121.57C48 119.16 50.06 118.46 52.36 118.13Z" fill="#E8EDF2"/>
    <path d="M124.62 160.31C124.62 154.17 129.62 150.85 135.53 153.04C136.53 153.41 137.36 154.04 136.98 155.12C136.932 155.372 136.82 155.607 136.653 155.802C136.487 155.998 136.273 156.147 136.032 156.234C135.791 156.322 135.532 156.346 135.279 156.303C135.026 156.26 134.789 156.152 134.59 155.99C132.59 154.92 130.59 154.86 129.27 156.99C128.573 158.029 128.211 159.257 128.232 160.509C128.254 161.76 128.658 162.975 129.39 163.99C130.7 165.9 132.61 165.79 134.48 164.78C135.48 164.23 136.41 163.92 137.03 165.16C137.73 166.55 136.4 166.96 135.62 167.35C134.496 167.992 133.228 168.339 131.934 168.358C130.64 168.377 129.362 168.068 128.22 167.46C125.42 165.9 124.7 163.25 124.62 160.31Z" fill="#E8EDF2"/>
    <path d="M113.41 160.48C113.41 158.57 113.41 156.66 113.41 154.75C113.41 154.06 112.97 153.06 114.19 152.86C114.96 152.73 116.19 152.57 116.37 153.22C117.18 156.01 117.97 153.7 118.73 153.3C119.82 152.72 120.88 152 122.2 152.46C123.2 152.8 122.94 153.67 122.92 154.46C122.92 155.62 122.63 156.37 121.17 156.21C117.98 155.87 117.03 157.75 117.09 160.55C117.09 162.35 117.09 164.15 117.09 165.95C117.09 167.24 116.98 168.02 115.33 168.04C113.68 168.06 113.2 167.48 113.33 165.9C113.51 164.09 113.41 162.28 113.41 160.48Z" fill="#E8EDF2"/>
    <path d="M73.8 132.45C73.8 130.45 73.8 128.45 73.8 126.45C73.8 125.8 73.7 124.98 74.55 124.82C75.4 124.66 76.46 124.4 76.7 125.17C77.49 127.76 78.42 126.12 79.33 125.38C79.8529 124.951 80.487 124.68 81.1582 124.599C81.8293 124.517 82.5098 124.629 83.12 124.92C84.01 125.3 83.49 126.28 83.37 127.02C83.15 128.25 82.3 128.1 81.37 128.13C78.79 128.22 77.58 129.66 77.63 132.24C77.63 134.24 77.63 136.24 77.63 138.24C77.63 139.52 77.53 140.31 75.88 140.24C74.23 140.17 73.65 139.81 73.76 138.14C73.9 136.26 73.8 134.35 73.8 132.45Z" fill="#E8EDF2"/>
    <path d="M70.86 188.29C70.86 186.38 70.86 184.47 70.86 182.56C70.86 181.89 70.35 180.83 71.57 180.68C72.33 180.58 73.72 180.62 73.8 180.88C74.67 183.95 75.72 181.45 76.58 180.99C77.85 180.31 79.15 179.92 80.39 180.77C81.29 181.38 80.29 182.18 80.29 182.92C80.29 184.37 79.22 184.02 78.38 184.01C75.6 184.01 74.62 185.52 74.72 188.1C74.79 189.78 74.79 191.47 74.72 193.15C74.72 194.48 75.33 196.15 72.83 196.15C70.02 196.23 70.91 194.32 70.83 192.96C70.73 191.39 70.83 189.81 70.83 188.24L70.86 188.29Z" fill="#E8EDF2"/>
    <path d="M25.6701 160.48H23.0001C22.0001 160.48 21.6401 159.99 21.6701 159.01C21.7001 158.03 21.9401 157.46 22.9601 157.45C24.4101 157.45 25.8701 157.45 27.3201 157.45C28.3201 157.45 29.6101 157.08 29.6201 158.96C29.6301 160.84 28.4001 160.43 27.3601 160.48C26.8001 160.48 26.2401 160.48 25.6801 160.48H25.6701Z" fill="#E8EDF2"/>
    <path d="M159.24 0.370117C165.11 0.370117 170.8 0.370117 176.48 0.370117C177.96 0.370117 178.58 1.37012 179.33 2.37012C183.33 7.78012 187.47 13.1101 191.43 18.5601C192.7 20.3101 193.93 21.6501 196.32 21.3601C198.16 21.1401 198.94 22.0701 198.88 23.9501C198.79 26.7501 198.81 29.5701 198.88 32.3701C198.88 34.1401 198.25 34.7201 196.44 34.5101C192.21 34.0401 187.95 33.7201 183.7 33.4201C183.149 33.4322 182.604 33.3058 182.115 33.0524C181.626 32.7991 181.208 32.4269 180.9 31.9701C173.827 21.8301 166.737 11.7135 159.63 1.62012C159.45 1.22064 159.319 0.800943 159.24 0.370117Z" fill="#6380BD"/>
    <path d="M75 1.05989L56 16.0599C54.7875 16.8825 53.6437 17.8022 52.58 18.8099C49.23 22.4899 45.13 23.0899 40.39 22.5999C27.86 21.3299 15.31 20.3099 2.76 19.2799C0.83 19.1199 0 18.4899 0 16.4299C0.11 11.9299 0 7.42989 0 2.91989C0.05 1.67989 -0.13 0.339886 1.81 0.379886C3.29 0.399886 5.07 0.149886 5.19 2.17989C5.51 7.17989 9.03 7.38989 12.69 7.66989C21.21 8.32989 29.69 8.97989 38.24 9.75989C40.87 9.99989 43.12 9.59989 45 7.66989C50.86 1.64989 57.84 -0.940114 66.28 0.299886C69.02 0.709886 71.88 0.369886 74.69 0.369886L75 1.05989Z" fill="#6380BD"/>
  </g>
  <defs>
    <clipPath id="clip0_236_1563">
      <rect width="198.93" height="198.93" fill="white"/>
    </clipPath>
  </defs>
</svg>
