<svg width="472" height="200" viewBox="0 0 472 200" xmlns="http://www.w3.org/2000/svg">
  <g clip-path="url(#clip0_236_1559)">
    <path d="M210.94 199.26C210.73 197.92 210.59 196.94 212.56 196.55C217.71 195.55 219.85 191.25 217.99 186.32C216.32 181.89 214.56 177.49 212.99 173.01C212.66 172.07 210.92 170.67 212.92 169.85C214.73 169.1 215.73 170.24 216.33 172.05C217.64 175.99 219.16 179.86 220.87 184.5C222.46 179.96 223.82 176.04 225.2 172.13C225.7 170.74 226.28 169.13 228.2 169.85C230.12 170.57 228.84 171.98 228.46 173.01C225.96 179.74 223.46 186.48 220.79 193.12C219.9 195.32 218.3 197.22 217.02 199.26H210.94Z" fill="#929396"/>
    <path d="M0 162.89C5.47 162.89 11 162.78 16.42 162.77C17.5 162.77 18.98 162.53 18.85 164.33C18.74 165.8 17.38 165.64 16.5 165.47C11.5 164.54 10.89 167.17 11.13 171.27C11.44 176.43 11.21 181.62 11.2 186.79C11.2 188.12 11.26 189.54 9.3 189.42C7.57 189.31 7.8 187.96 7.8 186.85C7.8 181.39 7.57 175.91 7.86 170.47C8.07 166.7 7.18 164.75 3.02 165.47C2.02197 165.559 1.01803 165.559 0.02 165.47L0 162.89Z" fill="#929396"/>
    <path d="M0.91 146.31L0 146.44V0.100098L0.91 0.240098V146.31Z" fill="#8F62A6"/>
    <path d="M0.910034 146.31V0.24C2.50003 0.19 4.09003 0.11 5.68003 0.11C159.14 0.103333 312.603 0.0666667 466.07 0C470.35 0 471.51 0.88 471.49 5.32C471.303 50.9067 471.28 96.4967 471.42 142.09C471.42 145.09 471.13 146.54 467.37 146.54C312.75 146.42 158.13 146.387 3.51003 146.44C2.64003 146.43 1.78003 146.35 0.910034 146.31ZM268.4 79.76C262.72 79.04 262.6 75.2 262.76 70.64C263.06 62.44 262.84 54.22 262.86 46C262.758 43.8443 262.831 41.6838 263.08 39.54C263.51 36.95 266.77 38.35 268.33 36.42H250.22C256.56 39.16 256.56 39.16 256.56 45.73C256.56 47.9 256.39 50.07 256.56 52.22C256.87 55.35 255.49 56.22 252.56 56.05C248.56 55.85 244.47 56.05 240.42 56.05C230.69 56.05 230.67 56.05 230.7 46.45C230.7 42.15 229.17 36.86 236.41 36.54H218.19C221.25 38.07 224.54 37.37 224.49 41.35C224.34 52.73 224.43 64.12 224.49 75.51C224.49 77.58 223.62 78.74 221.49 78.94C220.63 79.01 219.36 78.51 219.19 80.09C223.65 81.09 233.86 80.92 236.65 79.77C230.78 77.54 230.75 77.54 230.79 72.09C230.79 67.93 229.35 62.36 231.45 59.97C233.88 57.21 239.59 59.12 243.87 59.11C248.15 59.1 253.54 57.24 255.92 59.91C257.97 62.2 256.32 67.61 256.67 71.61C257.06 76.08 256.13 79.24 250.9 79.43C250.807 79.8716 250.747 80.3195 250.72 80.77C256.72 80.14 262.61 81.77 268.45 79.77C268.96 80.03 269.45 80.51 269.99 80.51C280.99 80.6 291.99 80.63 302.92 80.66C303.81 80.66 304.69 80.6 304.82 79.41C305.11 76.72 306.12 74.03 304.75 70.84C303.06 78.33 297.55 78.11 292.05 77.95C290.05 77.88 288 77.95 285.98 77.95C282.98 77.95 281.4 76.58 281.43 73.48C281.43 69.59 281.43 65.7 281.43 61.8C281.43 60.87 281.08 59.34 282.36 59.27C286.53 59.04 290.73 59.07 294.91 59.1C297.81 59.1 296.91 62.52 299.33 64.18C299.59 59.57 299.81 55.57 298.7 51.39C297.75 55.72 294.87 56.26 291.37 55.95C289.645 55.76 287.905 55.76 286.18 55.95C282.4 56.47 280.85 55.13 281.38 51.23C281.91 47.33 279.62 41.98 282.38 39.68C284.7 37.68 289.84 39.32 293.69 38.9C298.49 38.39 301.83 39.62 302.83 44.78C303.163 44.8092 303.497 44.8092 303.83 44.78C303.765 43.6576 303.765 42.5324 303.83 41.41C304.3 37.15 302.69 35.67 298.2 35.89C289.99 36.29 281.74 35.97 273.5 36.03C272.23 36.03 270.68 35.41 269.5 37.16C272.1 38.16 275.5 37.73 275.43 42.06C275.21 52.86 275.34 63.68 275.35 74.49C275.35 77.24 274.23 78.82 271.29 78.95C270.297 79.0993 269.326 79.3714 268.4 79.76ZM83.14 36.76C73.71 34.43 71.77 35.32 68.14 43.69C66.99 46.33 65.85 48.97 64.69 51.6C61.85 58 59 64.51 55.82 71.75C50.88 60.49 46.34 50.08 41.75 39.69C41.19 38.42 41.03 36.83 39.47 36.19C38.17 35.66 29.65 36.29 28.09 37.04C34 38.61 33.93 38.61 33.49 45.04C32.93 53.23 32.57 61.43 31.96 69.62C31.64 73.98 32.46 79.19 25.89 80.16H40.42C34.84 78.96 34.5 75.37 35.03 70.81C35.71 64.95 35.82 59.02 36.29 53.13C36.5 50.53 36.06 47.83 36.99 45.2C38.92 45.96 38.99 47.6 39.52 48.84C43.87 58.57 48.12 68.34 52.47 78.07C52.9 79.07 52.97 80.59 54.47 80.57C55.97 80.55 56 79 56.42 78C60.65 68.21 64.81 58.4 69.02 48.61C69.58 47.31 69.85 45.74 71.72 44.71C72.31 53.71 72.83 62.12 73.44 70.56C73.93 77.33 73.98 77.33 67.69 79.36C67.59 79.36 67.63 79.86 67.6 80.13C73.6 81.31 92.6 80.87 94.78 79.5C88.1 77.78 88.1 77.78 90.93 70.87C90.99 70.73 91.04 70.6 91.1 70.47C94.35 62.57 94.35 62.57 103.04 62.57C112.73 62.57 112.73 62.57 116.42 71.48C119.12 77.98 119.12 77.98 112.36 79.24C112.23 79.24 112.19 79.7 112.04 80.12H140.59L142 78.59C133.44 80.32 134.58 75.24 134.56 71.03C134.56 64.54 134.56 58.03 134.56 51.55V42.55C145.4 55.2 155.34 66.82 165.33 78.41C166.22 79.41 166.93 81.27 168.62 80.79C170.53 80.25 169.62 78.33 169.62 77.04C169.7 66.22 169.75 55.4 169.62 44.58C169.62 40.58 169.23 36.82 174.8 36.45H160.69C166.69 37.1 166.34 41.45 166.3 45.57C166.24 52.5 166.3 59.42 166.25 66.35C166.25 67.35 166.83 68.69 165.37 69.35C165.103 69.2321 164.854 69.0773 164.63 68.89L139.63 39.56C136.33 35.69 131.1 34.72 126.14 37.03C131.06 39.03 131.06 39.03 131.06 44.78V66.85C131.06 69.31 131.06 71.76 131.06 74.21C131.06 76.21 130.74 78.21 128.55 78.69C126.13 79.27 125.44 77.1 124.55 75.5C124.07 74.62 123.72 73.67 123.32 72.74C118.7 62.03 114.12 51.3 109.44 40.61C108.54 38.55 108.44 35.87 104.78 35.96C101.43 36.06 101.29 38.46 100.43 40.44C97 48.5 93.58 56.61 90.1 64.68C88.3934 68.64 86.62 72.58 84.78 76.5C84.25 77.64 83.58 79.09 81.98 78.72C80.56 78.38 80.16 76.98 79.98 75.65C79.85 74.8 79.77 73.93 79.71 73.07C79.09 64.16 78.56 55.24 77.85 46.34C77.26 39.17 77.17 39.18 83.14 36.72V36.76ZM453.68 79.89C442.13 77.05 437.19 66.05 427.83 60.27C435.6 55.62 437.91 51.54 436.62 45.42C435.54 40.24 430.23 36.21 422.7 35.73C416.53 35.33 410.3 35.73 404.09 35.81C402.63 35.81 400.99 35.56 399.75 36.93C406.33 38.51 406.41 38.6 406.43 45.71C406.43 53.49 406.43 61.27 406.43 69.04C406.43 77.14 406.43 77.14 398.74 80.13H419.74C412.43 77.42 412.43 77.42 412.43 69.03C412.43 67.45 412.43 65.86 412.43 64.28C412.43 62.94 412.82 62.03 414.34 62.01C417.77 62.01 421.09 61.65 424.17 64.15C428.67 67.81 432.54 72.08 436.8 75.97C441.71 80.41 447.4 81.13 453.68 79.89ZM395.85 45.68L397.08 44.83C396.913 43.4601 396.859 42.0787 396.92 40.7C397.39 36.93 395.92 35.82 392.12 35.97C383.9 36.29 375.65 36.03 367.42 36.11C365.95 36.11 364.28 35.45 362.59 37.11C365.59 37.73 368.83 37.82 368.81 41.84C368.76 52.65 368.81 63.46 368.81 74.27C368.81 76.88 367.81 78.75 364.81 78.85C364.07 78.85 362.96 78.56 363.05 80.57H396.57C396.788 80.5864 397.006 80.5581 397.212 80.487C397.418 80.4158 397.608 80.3033 397.769 80.1562C397.93 80.0092 398.059 79.8308 398.149 79.632C398.239 79.4331 398.287 79.2181 398.29 79C398.55 76.38 398.76 73.75 398.98 71.13C396.39 73.97 395.25 77.9 390.61 77.83C386.71 77.77 382.81 77.89 378.91 77.83C376.67 77.83 374.91 76.93 374.91 74.29C374.91 69.8233 374.91 65.3567 374.91 60.89C374.91 60 374.96 59.06 376.16 59.04C379.16 58.98 382.28 59.34 385.25 58.88C389.07 58.28 390.76 60.41 392.25 63.44C392.947 59.2546 393.034 54.9905 392.51 50.78C389.51 56 389.51 56 383.89 56H380.42C374.84 56 374.75 56 374.87 50.48C374.94 46.78 373.27 41.99 375.58 39.66C377.89 37.33 382.72 39.21 386.42 38.89C391.26 38.46 395.66 38.65 395.85 45.68ZM215.55 47.57C217.3 40.37 216.41 38.57 209.87 36.57C204.488 34.8266 198.751 34.4824 193.2 35.57C182.73 37.71 176.08 45.92 175.41 57.64C174.79 68.25 180.41 77.33 189.85 80.31C197 82.55 204 82 211 79.25C216 77.25 216.37 73.06 218.32 68.4C215.65 69.68 215.06 71.4 213.96 72.7C205.84 82.08 192.39 81.59 185.84 71.6C181.79 65.43 181.36 58.6 182.72 51.6C184.31 43.5 189.43 38.33 196.39 37.24C204.85 35.91 209.59 38.39 214.33 46.64C214.62 47.17 214.81 47.72 215.55 47.57ZM308.05 70.89L307.05 71.28C308.52 74.18 306.05 78.47 310.52 80.18C314.353 81.5903 318.473 82.0401 322.52 81.49C327.77 80.87 331.65 77.57 332.79 72.91C333.99 68 331.22 64.91 327.65 62.44C324.45 60.22 320.96 58.44 317.65 56.35C313.16 53.5 311.59 50.44 313.08 47.72C314.57 45 319.67 43.81 323.68 45.46C325.404 46.2246 326.927 47.3781 328.13 48.83C328.82 49.6 328.98 51.12 330.55 50.83C331.64 46.3 329.66 43.99 325.25 43.41C324.25 43.28 323.25 43.01 322.25 42.85C315.88 41.79 310.02 44.3 308.25 48.85C306.48 53.4 308.54 57.46 314.83 61.4C317.15 62.86 319.56 64.17 321.89 65.63C323.261 66.4246 324.551 67.3524 325.74 68.4C329.57 72.04 328.61 76.79 323.74 78.74C321.452 79.6976 318.909 79.8583 316.518 79.1963C314.128 78.5344 312.029 77.0881 310.56 75.09C309.6 73.82 308.88 72.31 308.05 70.89ZM303.56 104.6C304.27 104.14 304.7 103.83 305.15 103.6C308.5 101.76 311.3 99.37 310.51 95.14C309.68 90.68 306.1 89.04 302.07 88.2C299.509 87.6463 296.84 87.9014 294.43 88.93C291.05 90.34 288.55 92.53 288.09 96.43C287.63 100.33 289.83 102.62 292.8 104.49C293.7 105.05 294.61 105.59 295.72 106.27L293.52 107.47C288.65 110.29 286.73 113.53 287.63 117.47C288.53 121.41 292.52 124.47 297.31 124.88C299.033 125.06 300.771 125.04 302.49 124.82C306.99 124.18 310.87 120.65 311.63 116.72C312.51 112.25 311.01 109.35 306.33 106.44C305.49 105.84 304.66 105.3 303.56 104.6ZM364.72 51.11C364.72 50.27 364.65 49.42 364.72 48.59C365.1 44.66 363.78 43 359.41 43.27C352.492 43.665 345.558 43.665 338.64 43.27C334.45 43.04 332.73 44.37 333.26 48.48C333.37 49.34 332.62 50.39 333.71 51.14C336.24 45.57 336.71 45.43 343.71 45.79C345.79 45.9 346.43 46.56 346.41 48.58C346.33 57.22 346.35 65.86 346.41 74.5C346.41 77.24 345.41 78.92 342.41 79.04C341.65 79.04 340.54 78.8 340.64 80.26H357.36C355.12 78.63 351.54 79.15 351.59 75.02C351.69 66.09 351.59 57.16 351.59 48.23C351.59 47.23 351.49 46.34 352.85 45.88C357.54 44.31 362.21 46.39 364.72 51.11ZM319.72 119.86C321.6 118.17 323.51 116.52 325.36 114.79C329.17 111.25 333.05 107.74 335.09 102.79C336.81 98.62 336.63 94.6 333.52 91.08C331.991 89.5226 330.029 88.4609 327.889 88.0329C325.749 87.6049 323.53 87.8304 321.52 88.68C317.27 90.49 314.84 93.74 314.52 98.68C316.46 97.83 316.52 95.98 317.52 94.82C320.22 91.69 324.33 90.54 327.61 92.19C330.89 93.84 332.2 97.77 330.94 101.9C329.984 104.777 328.51 107.454 326.59 109.8C323.242 113.956 319.464 117.747 315.32 121.11C314.56 121.76 313.47 122.37 313.79 123.49C314.11 124.61 315.45 124.36 316.4 124.36C321.16 124.36 325.92 124.36 330.69 124.36C336.87 124.36 338.12 122.62 336.43 116.84C332.19 123.91 325.46 119.18 319.72 119.86ZM357.51 99.65C357.51 97.65 357.66 95.6 357.46 93.65C357.29 91.93 358.62 89.31 356.46 88.65C354.3 87.99 353.79 90.88 352.73 92.27C348.73 97.4 344.95 102.63 341.22 107.92C339.95 109.72 337.12 111.5 338.22 113.6C339.1 115.33 342.17 114.1 344.22 114.23C346.95 114.41 350.22 113.45 352.29 114.67C354.67 116.12 352.91 119.67 353.21 122.31C353.37 123.7 353.74 124.41 355.21 124.44C356.92 124.44 357.54 123.69 357.45 122.08C357.39 120.93 357.45 119.77 357.45 118.62C357.45 116.38 356.86 113.73 360.67 114.18C361.51 114.27 361.92 113.61 361.98 112.8C362.04 111.99 361.75 111.15 360.93 111.22C356.16 111.59 357.61 108.11 357.47 105.69C357.42 103.68 357.51 101.66 357.51 99.65ZM275.32 93.91C275.32 101.31 275.32 108.36 275.32 115.41C275.426 117.279 275.319 119.155 275 121C274.44 123.25 271.56 122.29 269.73 124.06H286.23C278.79 120.85 279.66 123.06 279.57 114.42C279.49 106.64 279.57 98.86 279.57 91.08C279.57 90.17 280.06 88.96 278.74 88.48C278.389 88.3705 278.014 88.3642 277.659 88.4617C277.305 88.5592 276.986 88.7564 276.74 89.03C273.83 91.61 270.9 94.17 267.43 97.22C270.78 97 272.39 94.8 275.32 93.91Z" fill="#693089"/>
    <path d="M303.73 169.53C302.07 174.42 300.54 179.35 298.73 184.16C297.99 186.1 298.57 189.35 295.3 189.41C291.72 189.47 292.38 186 291.58 183.96C289.75 179.29 288.25 174.49 285.89 169.75C285.223 175.15 284.557 180.55 283.89 185.95C283.7 187.46 283.99 189.6 281.64 189.33C279.29 189.06 280.36 187.02 280.51 185.8C281.34 179.08 282.3 172.38 283.31 165.7C283.51 164.37 283.6 162.84 285.72 162.7C287.84 162.56 288.38 163.96 288.9 165.49C290.9 171.49 292.9 177.39 295.32 184.49C297.71 177.49 299.7 171.72 301.65 165.93C302.27 164.1 302.74 162.38 305.37 162.68C308 162.98 307.26 164.86 307.49 166.26C308.59 172.927 309.637 179.61 310.63 186.31C310.8 187.47 311.43 189.09 309.38 189.37C307.54 189.63 307.38 188.27 307.17 186.91C306.31 181.09 305.4 175.28 304.51 169.46L303.73 169.53Z" fill="#929396"/>
    <path d="M70.54 173.24V165C70.54 163.68 70.94 162.71 72.54 162.82C74.14 162.93 73.95 164.05 73.95 165.05C73.95 169.95 73.82 174.86 74.04 179.75C74.3 185.45 77.64 187.9 82.92 186.75C86.31 185.99 87.72 183.75 87.78 180.54C87.87 175.64 87.86 170.73 87.95 165.83C87.95 164.62 87.57 162.99 89.54 162.89C91.66 162.77 91.19 164.48 91.2 165.66C91.2 170.71 91.37 175.76 91.2 180.8C90.95 186.53 87.27 189.68 81.2 189.8C74.51 189.92 71.41 187.56 70.78 181.48C70.64 178.745 70.64 176.005 70.78 173.27L70.54 173.24Z" fill="#959799"/>
    <path d="M25.3099 171.67C26.6752 170.933 28.077 170.265 29.51 169.67C33.8 168.16 37.62 170.32 38 174.8C38.35 178.94 38.1 183.13 38.13 187.3C38.13 188.61 37.7999 189.59 36.2099 189.5C34.8099 189.42 34.6999 188.42 34.6899 187.36C34.6899 183.91 34.6899 180.46 34.6899 177.01C34.6899 174.96 34.6899 172.79 31.9699 172.36C30.8938 172.154 29.7794 172.328 28.8178 172.854C27.8563 173.379 27.1075 174.223 26.7 175.24C25.8022 177.028 25.3331 179 25.33 181C25.33 183 25.33 185 25.33 187C25.33 188.17 25.33 189.45 23.62 189.35C22.35 189.27 21.95 188.35 21.95 187.26C21.95 178.913 21.95 170.58 21.95 162.26C21.95 161.09 22.47 160.36 23.78 160.41C25.09 160.46 25.32 161.41 25.33 162.52C25.32 165.38 25.3099 168.23 25.3099 171.67Z" fill="#97999A"/>
    <path d="M375.79 171.46C377.408 170.654 379.078 169.959 380.79 169.38C384.92 168.38 387.96 170.66 388.1 174.91C388.22 178.8 388.16 182.7 388.1 186.6C388.1 187.67 388.49 189.24 386.81 189.32C384.73 189.41 385.28 187.62 385.25 186.45C385.17 183.45 385.37 180.38 385.15 177.36C385 175.31 385.09 172.74 382.15 172.3C379.21 171.86 377.59 173.65 376.53 176.08C375.2 179.08 375.93 182.34 375.73 185.48C375.735 186.483 375.675 187.485 375.55 188.48C375.38 189.31 374.55 189.48 373.83 189.41C372.73 189.31 372.42 188.54 372.42 187.59C372.42 179.23 372.42 170.863 372.42 162.49C372.42 161.39 372.66 160.49 374.04 160.44C375.42 160.39 375.72 161.3 375.72 162.44C375.8 165.3 375.79 168.17 375.79 171.46Z" fill="#959799"/>
    <path d="M96.5701 179.31C96.5701 176.72 96.5701 174.13 96.5701 171.54C96.5701 169.85 98.4301 168.72 98.9101 169.66C100.61 172.96 101.98 170.34 103.39 169.78C107.95 167.95 112.12 170.14 112.52 174.98C112.85 178.98 112.62 183.03 112.64 187.06C112.64 188.27 112.57 189.46 110.91 189.47C109.06 189.47 108.91 188.15 108.91 186.79C108.91 183.48 108.91 180.17 108.91 176.86C108.91 174.86 109.02 172.6 106.17 172.29C103.32 171.98 101.79 173.52 100.83 175.81C99.5001 178.96 100.02 182.33 99.8301 185.62C99.7601 186.97 100.83 189.27 98.3201 189.37C95.8101 189.47 96.6901 187.16 96.6001 185.78C96.4701 183.63 96.6001 181.46 96.6001 179.31H96.5701Z" fill="#97999A"/>
    <path d="M238.58 179.86C238.58 173.43 242.25 169.21 247.83 169.19C253.41 169.17 256.83 173.19 256.71 179.19C256.58 185.53 252.81 189.7 247.17 189.77C241.53 189.84 238.57 186.46 238.58 179.86ZM247.58 172.22C243.98 172.22 242 174.76 241.98 179.4C241.98 184.4 243.98 187.04 247.71 186.95C250.81 186.88 253.3 183.54 253.33 179.41C253.36 175.06 251.08 172.22 247.57 172.22H247.58Z" fill="#929396"/>
    <path d="M329 181.4C329 183.13 329 184.85 329 186.57C329 189.33 328.29 190.78 325.77 188.19C324.47 186.85 324.06 188.4 323.36 188.71C319.36 190.54 315.44 189.8 314.36 186.89C313.06 183.48 315.02 180.18 319.36 178.7C320.593 178.307 321.858 178.023 323.14 177.85C324.49 177.65 325.78 177.56 325.61 175.68C325.46 174.14 325.02 172.8 323.34 172.41C321.501 172.022 319.594 172.112 317.8 172.67C316.92 172.91 315.8 173.86 315.35 172.28C314.9 170.7 316.14 170.36 317.22 169.95C324.55 167.23 329.05 170.27 329.06 177.95L329 181.4ZM325.49 182.15C325.61 180.09 324.37 180.09 323.24 180.37C320.7 180.98 317.43 180.94 317.24 184.56C317.16 186.27 318.8 187.3 320.57 187.04C323.52 186.62 324.88 184.54 325.52 182.15H325.49Z" fill="#929396"/>
    <path d="M42.29 179.78C42.29 171.99 47.68 167.42 54.01 169.78C57.56 171.12 58.34 174.16 58.72 177.39C58.91 178.93 57.72 179.26 56.45 179.25C53.99 179.25 51.52 179.4 49.08 179.25C45.3 178.97 45.26 181.16 46.29 183.57C47.81 187.17 50.9 187.44 54.29 186.74C55.43 186.5 57.11 185.36 57.64 187.16C58.25 189.27 56.07 189.26 54.82 189.53C47 191.25 42.29 187.58 42.29 179.78ZM50.9 177C51.69 175.19 54.78 178.62 54.9 175.18C54.97 173.1 53 171.89 50.99 171.86C48.66 171.86 46.24 173 46.33 175.38C46.42 177.88 49.13 176 50.9 177Z" fill="#929396"/>
    <path d="M451.15 179.27C450.605 179.212 450.055 179.212 449.51 179.27C447.88 179.72 445.13 177.99 444.74 180.5C444.3 183.29 445.8 185.79 448.91 186.77C450.743 187.204 452.664 187.086 454.43 186.43C455.22 186.22 456.2 185.93 456.54 187.12C456.84 188.12 456.24 188.74 455.31 189.01C451.59 190.11 447.72 190.63 444.56 188.08C440.78 185.03 440.56 180.72 441.56 176.24C442.48 172.3 444.84 169.88 448.84 169.29C450.129 169.041 451.462 169.148 452.695 169.599C453.929 170.05 455.016 170.828 455.84 171.85C457.43 173.75 458.34 176.26 457.17 178.25C455.85 180.54 452.94 178.71 451.15 179.27ZM449.57 176.78C450.92 175.88 453.8 178.16 453.82 174.94C453.82 172.88 451.82 171.76 449.82 171.81C447.82 171.86 445.46 172.95 445.48 175.15C445.5 177.85 448.17 176 449.57 176.78Z" fill="#929396"/>
    <path d="M403 189.73C398.18 189.87 395.12 188.78 393.45 185.09C391.45 180.77 392.26 174.81 395.29 171.71C397.77 169.17 400.76 168.71 404.06 169.71C405.034 170.001 405.927 170.513 406.67 171.207C407.412 171.901 407.984 172.758 408.34 173.71C409.98 177.6 408.91 179.21 404.7 179.24C403.11 179.24 401.52 179.13 399.94 179.24C398.61 179.36 396.72 178.39 396.09 180.11C395.46 181.83 396.35 183.83 397.73 185.19C399.79 187.19 402.3 187.34 404.99 186.61C405.99 186.34 407.41 185.39 407.86 187.13C408.34 189.03 406.48 189.04 405.37 189.38C404.6 189.606 403.802 189.723 403 189.73ZM401 176.73C402.39 176.02 405 177.82 405.17 175.23C405.34 172.97 403.26 171.69 401.07 171.8C398.88 171.91 396.71 172.99 396.85 175.24C397 177.81 399.61 176.06 401 176.75V176.73Z" fill="#929396"/>
    <path d="M334.28 179.53C334.28 176.93 334.28 174.34 334.28 171.75C334.28 170.34 335.28 169.04 336.28 169.88C338.46 171.78 339.96 170.25 341.79 169.62C346.44 168.02 349.79 170.36 349.97 175.3C350.09 179.19 349.97 183.07 349.97 186.96C349.97 188.1 350.09 189.44 348.35 189.4C346.79 189.4 346.58 188.18 346.57 186.96C346.57 183.51 346.57 180.05 346.57 176.6C346.57 174.89 346.73 172.95 344.47 172.41C343.487 172.125 342.437 172.175 341.486 172.554C340.535 172.932 339.738 173.617 339.22 174.5C338.175 176.064 337.631 177.909 337.66 179.79C337.66 182.09 337.66 184.4 337.66 186.7C337.66 187.97 337.85 189.51 335.86 189.42C334.18 189.35 334.33 188 334.32 186.87C334.26 184.42 334.28 182 334.28 179.53Z" fill="#97999A"/>
    <path d="M152.45 189.76C147.97 189.82 144.71 188.76 143.35 184.95C141.7 180.39 141.7 175.8 145.06 171.95C147.32 169.32 150.37 168.71 153.74 169.73C154.713 170.009 155.612 170.502 156.37 171.173C157.128 171.845 157.726 172.677 158.12 173.61C160.02 177.74 159.04 179.28 154.5 179.31C153.207 179.18 151.903 179.18 150.61 179.31C149.02 179.65 146.38 177.87 146.01 180.79C145.853 182.029 146.132 183.283 146.8 184.338C147.468 185.393 148.483 186.182 149.67 186.57C151.31 187.142 153.087 187.198 154.76 186.73C155.82 186.52 157.49 185.15 157.87 187.37C158.19 189.24 156.27 189.13 155.16 189.46C154.273 189.672 153.362 189.773 152.45 189.76ZM150.64 176.84C152.09 175.84 154.95 178.21 155.13 175.11C155.24 173.11 153.24 171.84 151.21 171.77C148.79 171.69 146.52 173.16 146.54 175.38C146.56 178 149.32 175.87 150.64 176.84Z" fill="#929396"/>
    <path d="M269 160.21C270.36 160.64 272.47 159.64 272.46 161.92C272.45 164.2 270.58 162.92 269.46 163.02C266.6 163.17 265.32 164.89 265.09 167.46C264.82 170.46 267.21 169.46 268.73 169.68C269.59 169.8 270.6 169.76 270.61 170.95C270.61 172.46 269.37 172.45 268.43 172.31C264.91 171.82 264.78 173.9 264.88 176.49C265.01 179.95 264.93 183.42 264.88 186.88C264.88 187.99 265.08 189.38 263.33 189.39C261.76 189.39 261.51 188.23 261.5 186.99C261.5 183.39 261.5 179.78 261.5 176.17C261.558 175.163 261.47 174.152 261.24 173.17C260.76 171.58 257.18 171.29 257.94 171.06C263.34 169.45 260.87 162.01 266.13 160.75C267.09 160.53 268.09 160.38 269 160.21Z" fill="#959799"/>
    <path d="M429.91 179.7C429.745 178.124 429.745 176.536 429.91 174.96C430.76 171.11 425.55 173.51 425.77 170.9C425.96 168.69 430.92 170.67 429.87 166.8C429.835 166.515 429.835 166.226 429.87 165.94C429.87 164.48 429.77 162.73 431.87 162.94C433.97 163.15 433.16 164.94 433.06 166.05C432.81 168.85 433.76 170.05 436.68 169.72C437.62 169.6 438.93 169.55 438.93 171.01C438.93 172.47 437.65 172.47 436.69 172.32C433.28 171.81 432.89 173.71 433.1 176.4C433.26 178.55 433.1 180.72 433.19 182.89C433.28 185.06 434.07 186.89 436.82 186.61C437.82 186.53 438.98 186.4 439 187.92C439.02 189.44 437.79 189.58 436.6 189.73C432.37 190.26 430.24 188.66 429.87 184.47C429.73 182.9 429.87 181.3 429.87 179.71L429.91 179.7Z" fill="#959799"/>
    <path d="M132.93 184.8C134.8 179.68 136.26 175.8 137.64 171.89C138.18 170.34 139.06 169.15 140.76 169.89C142.46 170.63 141.2 171.89 140.84 172.83C139.08 177.54 137.26 182.22 135.44 186.9C134.98 188.1 134.64 189.39 132.95 189.46C130.95 189.55 130.65 188.05 130.14 186.73C128.35 182.03 126.55 177.34 124.83 172.62C124.49 171.71 123.27 170.45 125.11 169.81C126.58 169.3 127.52 170.02 128.05 171.49C129.47 175.53 131 179.52 132.93 184.8Z" fill="#929396"/>
    <path d="M178.86 189.77C178.47 189.77 177.61 189.71 176.75 189.61C176.533 189.606 176.319 189.554 176.125 189.458C175.93 189.361 175.759 189.223 175.625 189.053C175.49 188.883 175.394 188.685 175.345 188.474C175.296 188.262 175.294 188.042 175.34 187.83C175.43 186.7 176.1 186.4 177.13 186.65C177.545 186.769 177.97 186.85 178.4 186.89C180.75 187 183.4 187.15 184 184.23C184.6 181.31 181.82 181.31 180 180.66C175.39 178.98 173.86 176.59 175.28 173.12C176.46 170.25 181.77 168.29 184.99 169.49C185.83 169.81 186.65 170.06 186.47 171.21C186.29 172.36 185.36 172.31 184.47 172.28C183.58 172.25 182.74 172.17 181.88 172.2C180.35 172.2 178.88 172.61 178.58 174.36C178.28 176.11 179.42 176.95 180.86 177.51C181.13 177.62 181.41 177.67 181.69 177.76C184.92 178.84 188.22 179.86 187.54 184.38C187.09 187.69 183.92 189.75 178.86 189.77Z" fill="#959799"/>
    <path d="M415.37 186.9C416.694 187.119 418.053 186.945 419.28 186.4C419.824 186.204 420.294 185.844 420.624 185.369C420.954 184.894 421.127 184.328 421.12 183.75C421.106 183.24 420.932 182.746 420.624 182.339C420.315 181.932 419.887 181.632 419.4 181.48C418.476 181.077 417.523 180.743 416.55 180.48C413.75 179.75 411.73 178.15 411.83 175.13C411.93 172.11 413.91 170.2 416.98 169.63C417.959 169.37 418.967 169.232 419.98 169.22C421.32 169.31 423.37 169.02 423.47 170.85C423.59 173.31 421.42 172.07 420.21 172.17C418.37 172.33 416.11 171.9 415.67 174.39C415.23 176.88 417.44 177.27 419.2 177.92C424.25 179.76 425.78 182.11 424.3 185.67C422.97 188.84 417.3 190.91 413.72 189.67C412.72 189.31 412.25 188.72 412.42 187.79C412.81 185.44 414.42 187.11 415.37 186.9Z" fill="#959799"/>
    <path d="M365 172.28C360 172.2 357.35 175.2 357.73 180.38C358.08 185.28 360.46 187.13 365.48 186.51C366.63 186.37 368.35 185.4 368.67 187.39C368.95 189.2 367.06 189.27 365.92 189.44C362.27 190 358.47 190.17 356.07 186.71C353.27 182.71 353.63 178.26 355.67 173.98C357.46 170.22 360.94 169.22 364.67 169.27C366.04 169.27 368.51 169.06 368.5 171.05C368.47 173.72 366.05 171.85 365 172.28Z" fill="#97999A"/>
    <path d="M207.41 189.75C203.94 189.75 202.07 188.35 202.12 184.84C202.12 182.39 202.18 179.93 202.12 177.48C202.06 175.03 203.2 171.92 198.78 172.17C198.23 172.17 197.9 171.53 197.94 170.87C197.928 170.724 197.947 170.577 197.998 170.44C198.049 170.303 198.129 170.178 198.233 170.075C198.337 169.972 198.462 169.893 198.6 169.844C198.737 169.795 198.884 169.776 199.03 169.79C202.38 169.97 202.19 167.7 202.15 165.46C202.15 164.32 202.05 162.94 203.74 162.95C205.43 162.96 205.07 164.29 204.98 165.19C204.67 168.34 205.47 170.28 209.17 169.73C210.07 169.6 210.97 169.94 210.85 171.13C210.73 172.32 209.76 172.45 208.91 172.3C204.84 171.6 204.83 174.15 205.01 176.97C205.16 179.27 205.14 181.57 205.32 183.87C205.313 184.598 205.571 185.304 206.045 185.856C206.52 186.408 207.179 186.768 207.9 186.87C208.98 187.1 211.24 185.4 210.84 188.27C210.54 190.38 208.52 189.4 207.41 189.75Z" fill="#929396"/>
    <path d="M163.26 179.54V173.54C163.26 172.97 163.26 172.39 163.26 171.82C163.26 170.95 163.86 169.47 164.34 169.93C167.21 172.63 170.03 167.79 172.58 170.06C172.751 170.253 172.866 170.488 172.914 170.741C172.961 170.994 172.939 171.255 172.85 171.496C172.761 171.737 172.607 171.95 172.407 172.111C172.206 172.272 171.965 172.375 171.71 172.41C166.77 173.41 166.76 177.35 166.61 181.13C166.53 182.85 166.61 184.59 166.61 186.31C166.55 187.62 167.16 189.53 164.83 189.44C162.83 189.37 163.33 187.69 163.3 186.44C163.22 184.14 163.26 181.84 163.26 179.54Z" fill="#97999A"/>
    <path d="M463.91 169.74C465.71 172.47 467.45 169.63 469.38 169.32C470.31 169.18 471.13 169.32 471.31 170.42C471.42 171.12 471.48 172.1 470.68 172.26C464.06 173.55 465.51 178.8 465.23 183.18C465.13 184.75 465.23 186.34 465.17 187.91C465.176 188.126 465.135 188.341 465.05 188.54C464.965 188.739 464.838 188.917 464.677 189.062C464.516 189.206 464.326 189.314 464.119 189.378C463.912 189.441 463.694 189.459 463.48 189.43C462.48 189.43 461.83 188.93 461.83 187.9C461.83 182.307 461.83 176.717 461.83 171.13C461.85 170 462.62 169.74 463.91 169.74Z" fill="#929396"/>
    <path d="M117.39 179.52C117.39 176.93 117.39 174.34 117.39 171.74C117.39 170.41 117.82 169.45 119.32 169.45C120.82 169.45 121.12 170.6 121.12 171.83C121.12 176.83 121.12 181.92 121.12 186.97C121.12 188.4 120.76 189.61 118.95 189.46C117.14 189.31 117.42 188.02 117.41 186.87C117.38 184.42 117.39 182 117.39 179.52Z" fill="#97999A"/>
    <path d="M195.25 179.82C195.25 182.25 195.25 184.69 195.25 187.13C195.25 188.35 195.12 189.5 193.47 189.44C192.11 189.38 191.92 188.44 191.92 187.33V171.85C191.92 170.79 192.09 169.85 193.48 169.77C195.16 169.7 195.24 170.88 195.25 172.08C195.26 174.66 195.25 177.24 195.25 179.82Z" fill="#97999A"/>
    <path d="M195.78 164.33C195.773 164.611 195.708 164.888 195.59 165.144C195.472 165.399 195.303 165.627 195.093 165.815C194.883 166.002 194.637 166.144 194.37 166.233C194.103 166.322 193.82 166.355 193.54 166.33C192.22 166.33 191.32 165.57 191.41 164.27C191.407 163.985 191.462 163.703 191.572 163.44C191.682 163.178 191.845 162.94 192.05 162.743C192.255 162.545 192.498 162.391 192.765 162.291C193.031 162.191 193.316 162.146 193.6 162.16C195 162.18 195.5 163.16 195.78 164.33Z" fill="#97999A"/>
    <path d="M117.22 164.14C117.229 163.856 117.299 163.577 117.424 163.322C117.55 163.066 117.728 162.841 117.948 162.66C118.167 162.479 118.423 162.347 118.698 162.273C118.972 162.199 119.259 162.184 119.54 162.23C119.826 162.234 120.108 162.301 120.365 162.427C120.621 162.553 120.847 162.735 121.025 162.959C121.203 163.183 121.329 163.444 121.394 163.722C121.459 164.001 121.461 164.29 121.4 164.57C121.382 164.82 121.315 165.065 121.202 165.289C121.089 165.513 120.933 165.712 120.742 165.875C120.551 166.038 120.33 166.161 120.091 166.237C119.852 166.314 119.6 166.342 119.35 166.32C119.063 166.332 118.776 166.283 118.509 166.177C118.242 166.071 118 165.91 117.8 165.704C117.599 165.499 117.443 165.253 117.343 164.984C117.244 164.714 117.202 164.427 117.22 164.14Z" fill="#959799"/>
    <path d="M268.4 79.7399C269.308 79.3415 270.262 79.0561 271.24 78.8899C274.18 78.7599 275.3 77.1799 275.3 74.4299C275.3 63.6199 275.16 52.7999 275.38 41.9999C275.47 37.6699 272.05 38.0699 269.45 37.0999C270.63 35.3499 272.18 35.9799 273.45 35.9699C281.69 35.9099 289.94 36.2299 298.15 35.8299C302.64 35.6099 304.25 37.0899 303.78 41.3499C303.715 42.4723 303.715 43.5975 303.78 44.7199C303.447 44.7491 303.113 44.7491 302.78 44.7199C301.78 39.5599 298.44 38.3299 293.64 38.8399C289.79 39.2599 284.64 37.6699 282.33 39.6199C279.6 41.9199 281.89 47.2199 281.33 51.1699C280.77 55.1199 282.33 56.4099 286.13 55.8899C287.855 55.6999 289.595 55.6999 291.32 55.8899C294.82 56.1999 297.7 55.6599 298.65 51.3299C299.76 55.5099 299.54 59.5099 299.28 64.1199C296.89 62.4599 297.76 59.1199 294.86 59.0399C290.68 59.0399 286.48 58.9799 282.31 59.2099C281.03 59.2799 281.39 60.8099 281.38 61.7399C281.38 65.6399 281.38 69.5299 281.38 73.4199C281.38 76.5199 282.95 77.8799 285.93 77.8899C287.93 77.8899 289.93 77.8399 292 77.8899C297.5 78.0499 303 78.2699 304.7 70.7799C306.07 73.9699 305.06 76.6599 304.77 79.3499C304.64 80.5399 303.77 80.5999 302.87 80.5999C291.87 80.5999 280.92 80.5399 269.94 80.4499C269.42 80.4799 268.91 79.9999 268.4 79.7399Z" fill="#F4CC20"/>
    <path d="M308.05 70.8899C308.88 72.3099 309.6 73.8199 310.56 75.1399C312.03 77.138 314.128 78.5843 316.518 79.2462C318.909 79.9082 321.452 79.7475 323.74 78.7899C328.62 76.7899 329.58 72.0899 325.74 68.4499C324.551 67.4023 323.261 66.4745 321.89 65.6799C319.56 64.2199 317.15 62.9099 314.83 61.4499C308.54 57.5099 306.44 53.4499 308.25 48.8999C310.06 44.3499 315.91 41.8299 322.25 42.8999C323.25 43.0599 324.25 43.3299 325.25 43.4599C329.66 44.0399 331.64 46.3499 330.55 50.8799C328.98 51.1299 328.82 49.6099 328.13 48.8799C326.927 47.428 325.404 46.2745 323.68 45.5099C319.68 43.8599 314.61 44.9699 313.08 47.7699C311.55 50.5699 313.16 53.5499 317.65 56.3999C320.94 58.4799 324.43 60.2699 327.65 62.4899C331.22 64.9599 333.99 68.0499 332.79 72.9599C331.65 77.6199 327.79 80.9599 322.52 81.5399C318.473 82.09 314.353 81.6402 310.52 80.2299C306.02 78.5199 308.52 74.2299 307.05 71.3299L308.05 70.8899Z" fill="#F4CC20"/>
    <path d="M303.56 104.6C304.66 105.3 305.49 105.84 306.33 106.36C311.01 109.27 312.51 112.17 311.63 116.64C310.87 120.57 306.99 124.1 302.49 124.74C300.771 124.96 299.033 124.98 297.31 124.8C292.52 124.36 288.52 121.23 287.63 117.39C286.74 113.55 288.63 110.26 293.52 107.39L295.72 106.19C294.61 105.51 293.72 104.97 292.8 104.41C289.8 102.54 287.64 100.23 288.09 96.35C288.54 92.47 291.09 90.26 294.43 88.85C296.84 87.8213 299.509 87.5663 302.07 88.12C306.07 88.96 309.68 90.6 310.51 95.06C311.3 99.29 308.51 101.68 305.15 103.52C304.7 103.83 304.27 104.14 303.56 104.6ZM299.63 123.23C304.21 123.23 307.96 120.13 308.03 116.23C308.09 112.74 302.03 107.23 298.13 107.23C295.13 107.23 291.27 112.03 291.35 115.66C291.44 120.2 294.76 123.21 299.63 123.23ZM291.57 95.5C291.57 98.62 297.09 103.32 300.78 103.35C303.38 103.35 307.15 98.99 307.08 96.03C306.99 92.45 303.45 89.48 299.25 89.46C295.05 89.44 291.58 92.21 291.57 95.5Z" fill="#F4CC20"/>
    <path d="M364.72 51.1099C362.21 46.3899 357.54 44.3099 352.87 45.8899C351.51 46.3499 351.61 47.2699 351.61 48.2399C351.61 57.1699 351.68 66.0999 351.61 75.0299C351.56 79.1599 355.14 78.6399 357.38 80.2699H340.63C340.53 78.8099 341.63 79.0799 342.4 79.0499C345.4 78.9299 346.4 77.2499 346.4 74.5099C346.4 65.8699 346.34 57.2299 346.4 48.5899C346.4 46.5899 345.78 45.9099 343.7 45.7999C336.7 45.4399 336.27 45.5799 333.7 51.1499C332.61 50.3999 333.36 49.3499 333.25 48.4899C332.72 44.3799 334.44 43.0499 338.63 43.2799C345.548 43.6749 352.482 43.6749 359.4 43.2799C363.77 43.0099 365.09 44.6699 364.71 48.5999C364.65 49.4199 364.72 50.2699 364.72 51.1099Z" fill="#F4CC20"/>
    <path d="M319.72 119.86C325.46 119.18 332.19 123.86 336.4 116.92C338.09 122.7 336.84 124.44 330.66 124.44C325.89 124.44 321.13 124.44 316.37 124.44C315.42 124.44 314.12 124.83 313.76 123.57C313.4 122.31 314.53 121.84 315.29 121.19C319.434 117.827 323.212 114.036 326.56 109.88C328.48 107.534 329.954 104.857 330.91 101.98C332.17 97.85 330.81 93.89 327.58 92.27C324.35 90.65 320.19 91.77 317.49 94.9C316.49 96.06 316.44 97.9 314.49 98.76C314.82 93.76 317.25 90.53 321.49 88.76C323.5 87.9104 325.719 87.6849 327.859 88.1129C329.999 88.5409 331.961 89.6026 333.49 91.16C336.6 94.68 336.78 98.7 335.06 102.87C333.06 107.8 329.14 111.31 325.33 114.87C323.51 116.52 321.6 118.17 319.72 119.86Z" fill="#F4CC20"/>
    <path d="M357.51 99.6501C357.51 101.65 357.42 103.65 357.51 105.65C357.65 108.07 356.2 111.55 360.97 111.18C361.79 111.11 362.07 111.98 362.02 112.76C361.97 113.54 361.55 114.23 360.71 114.14C356.9 113.69 357.49 116.34 357.49 118.58C357.49 119.73 357.44 120.89 357.49 122.04C357.58 123.65 356.96 124.43 355.25 124.4C353.75 124.4 353.38 123.66 353.25 122.27C352.95 119.65 354.71 116.08 352.33 114.63C350.33 113.41 346.99 114.37 344.26 114.19C342.17 114.06 339.1 115.29 338.26 113.56C337.19 111.46 340.02 109.68 341.26 107.88C344.99 102.59 348.81 97.3601 352.77 92.2301C353.83 90.8401 354.45 88.0201 356.5 88.6101C358.55 89.2001 357.3 91.8501 357.5 93.6101C357.66 95.6001 357.51 97.6301 357.51 99.6501ZM341.08 111.06C345.08 111.06 348.18 111.06 351.3 111.06C352.8 111.06 353.3 110.38 353.3 108.96C353.25 104.59 353.3 100.21 353.3 95.8301L352.46 95.5201L341.08 111.06Z" fill="#F4CC20"/>
    <path d="M275.32 93.9101C272.39 94.8001 270.78 97.0001 267.41 97.2101C270.88 94.2101 273.81 91.6001 276.72 89.0201C276.966 88.7465 277.285 88.5493 277.639 88.4518C277.994 88.3543 278.369 88.3606 278.72 88.4701C280.04 88.9501 279.54 90.1601 279.55 91.0701C279.55 98.8501 279.55 106.63 279.55 114.41C279.64 123.09 278.77 120.84 286.21 124.05H269.71C271.54 122.28 274.42 123.24 274.98 120.99C275.298 119.148 275.406 117.276 275.3 115.41C275.34 108.36 275.32 101.31 275.32 93.9101Z" fill="#F4CC20"/>
    <path d="M95.58 59.8401L103.58 40.8401C106.18 47.0001 108.44 52.3601 110.72 57.7101C111.31 59.1001 111.12 59.8501 109.39 59.8401C105 59.8101 100.59 59.8401 95.58 59.8401Z" fill="#6B348B"/>
    <path d="M412.45 48.5799V43.3899C412.45 36.8999 412.45 36.8999 419.12 37.3899C426.06 37.8799 429.68 41.3899 429.88 47.8699C430.12 55.3199 427.15 58.9999 420 59.9999C419.15 60.1199 418.3 60.2799 417.44 60.3899C414.03 60.8399 411.83 60.1299 412.39 55.9099C412.57 53.4705 412.59 51.0219 412.45 48.5799Z" fill="#6B348B"/>
    <path d="M299.63 123.23C294.76 123.23 291.44 120.23 291.35 115.7C291.27 112.07 295.11 107.29 298.13 107.27C302.01 107.27 308.13 112.76 308.03 116.27C308 120.13 304.21 123.25 299.63 123.23Z" fill="#6B348B"/>
    <path d="M291.57 95.5C291.57 92.21 295.1 89.44 299.25 89.5C303.4 89.56 306.99 92.5 307.08 96.07C307.15 99.07 303.38 103.42 300.78 103.39C297.09 103.32 291.57 98.62 291.57 95.5Z" fill="#6B348B"/>
    <path d="M341.08 111.06L352.44 95.53L353.28 95.84C353.28 100.22 353.28 104.6 353.28 108.97C353.28 110.39 352.78 111.09 351.28 111.07C348.18 111 345.07 111.06 341.08 111.06Z" fill="#693089"/>
  </g>
  <defs>
    <clipPath id="clip0_236_1559">
      <rect width="471.49" height="199.26" fill="white"/>
    </clipPath>
  </defs>
</svg>
