<svg width="731" height="183" viewBox="0 0 731 183" fill="none" xmlns="http://www.w3.org/2000/svg">
  <g clip-path="url(#clip0_236_1558)">
    <path d="M400.13 60.3699C402.61 60.9599 404.13 61.2899 405.63 61.6799C419.91 65.3699 428.95 75.3199 430.13 88.6099C431.57 104.91 424.84 116.98 410.71 123.32C401.29 127.56 391.22 128.7 381.07 128.9C368.23 129.14 355.39 128.83 342.55 129.03C337.82 129.1 336.08 127.18 336.09 122.64C336.15 84.7 336.15 46.7633 336.09 8.82994C336.09 5.40994 336.84 2.53994 341.03 2.62994C358.18 2.97994 375.42 1.17994 392.43 4.53994C395.97 5.24479 399.433 6.29308 402.77 7.66994C414.24 12.4099 419.83 21.0099 419.77 33.4099C419.77 45.4999 413.83 54.2599 402.48 59.0199C402.05 59.2199 401.62 59.5299 400.13 60.3699ZM361 90.8499C361 96.2699 361 101.68 361 107.09C361 109.37 361.28 110.88 364.17 110.78C372.1 110.5 380.06 111.19 387.97 109.78C398.32 107.98 404.21 101.95 404.79 92.3099C405.38 82.4799 400.08 75.5899 389.72 72.7399C381.21 70.3999 372.5 71.3199 363.85 71.1099C361.25 71.0399 360.99 72.5499 361.01 74.5799C361.08 79.9999 361 85.4399 361 90.8499ZM361 37.6099C361 42.1299 361 46.6099 361 51.1499C361 53.2799 361.4 54.5499 364 54.4699C369.94 54.2799 375.91 54.7499 381.81 53.4699C390.62 51.4699 395.12 46.0899 395.33 37.0599C395.52 28.8099 391.33 23.8399 382.28 21.7699C379.65 21.1891 376.972 20.8543 374.28 20.7699C361 20.2999 361 20.3399 361 33.2799V37.6099Z" fill="#283B7C"/>
    <path d="M298.57 60.6299C299.74 60.8299 300.88 60.9899 302 61.2399C317 64.5699 326.8 74.8999 328 88.6199C329.51 105.36 322.15 117.85 307.09 123.95C297.73 127.75 287.85 128.78 277.89 128.95C265.6 129.12 253.31 128.82 241.03 129.07C235.95 129.18 233.83 127.44 233.84 122.25C233.95 84.5299 233.9 46.8099 233.89 9.09989C233.89 5.74989 234.4 2.61989 238.62 2.68989C256 2.99989 273.38 1.14989 290.55 4.58989C294.268 5.32277 297.898 6.44564 301.38 7.93989C312.52 12.7899 317.89 21.5399 317.67 33.5899C317.45 45.6399 312.1 54.2499 300.78 58.8999C300 59.2299 299 59.2599 298.57 60.6299ZM258.85 90.8499C258.85 96.2599 258.85 101.66 258.85 107.06C258.85 109.29 258.99 110.89 261.94 110.78C269.86 110.49 277.8 111.18 285.69 109.85C296.27 108.06 302.27 101.85 302.75 92.0599C303.21 82.4999 297.97 75.6999 287.94 72.8499C279.28 70.3899 270.4 71.3699 261.6 71.1399C258.92 71.0699 258.84 72.6599 258.86 74.6499C258.89 80.0499 258.85 85.4499 258.85 90.8499ZM258.85 37.3499C258.85 42.0299 258.85 46.7099 258.85 51.3499C258.85 53.2199 259.19 54.4499 261.47 54.4099C268.47 54.2699 275.54 54.9499 282.35 52.6099C289.81 50.0299 293.47 44.3799 293.22 35.8899C293.01 28.7999 289.22 24.2299 281.8 22.0399C275.1 20.0399 268.22 20.8599 261.39 20.6799C259.08 20.6199 258.83 21.9999 258.85 23.8199C258.88 28.3499 258.85 32.8499 258.85 37.3499Z" fill="#283B7C"/>
    <path d="M535.24 65.9201C535.24 47.3201 535.24 28.7167 535.24 10.1101C535.24 3.04006 535.67 2.48006 542.5 2.61006C558.38 2.91006 574.35 1.33007 590.11 4.37006C609.54 8.11006 620.24 18.0701 623.03 34.7701C626 52.3701 618.64 67.0001 601.7 76.4701C598.16 78.4701 599.78 79.7901 601.12 81.7201C610.24 94.9401 619.35 108.173 628.45 121.42C629.73 123.29 632.1 125.16 630.76 127.64C629.55 129.88 626.83 128.95 624.76 128.92C601.2 128.59 607.84 132.08 594.88 112.74C589.06 104.04 583.42 95.2101 577.7 86.4401C575.64 83.3001 564.18 80.6501 561.18 82.6901C559.71 83.6901 560.36 85.3401 560.36 86.6901C560.31 98.4301 560.36 110.18 560.36 121.92C560.36 128.33 559.71 128.92 553.14 128.92C549.14 128.92 545.14 128.8 541.21 128.92C536.76 129.1 535.21 127.14 535.21 122.75C535.32 103.86 535.23 84.8901 535.24 65.9201ZM560.33 42.3301C560.33 48.6501 560.33 54.9834 560.33 61.3301C560.33 62.9001 559.93 64.7201 562.55 64.6601C569.55 64.5101 576.69 65.2501 583.55 62.9701C592.86 59.8101 598.13 52.0001 598 41.7201C597.86 31.6301 592.84 24.9901 583.2 22.2201C576.48 20.2801 569.58 20.8301 562.72 20.7101C560.19 20.6601 560.33 22.2201 560.33 23.9101C560.34 30.0501 560.33 36.1901 560.33 42.3301Z" fill="#283B7C"/>
    <path d="M99.8 89.2701C99.45 94.8901 98.86 100.51 96.12 105.51C94.43 108.58 96.29 109.45 98.27 110.9C100.82 112.78 101.57 111.06 102.78 109.35C103.57 108.21 103.9 105.6 106.11 106.84C108.56 108.22 111.72 109.11 112.83 111.84C113.21 112.76 111.83 116.38 109.17 114.66C105.24 112.16 104.99 115.83 103.84 117.52C102.69 119.21 99.51 121.22 103.67 123.37C105.74 124.44 104.13 125.77 103.49 126.95C102.7 128.43 101.76 128.47 100.49 127.5C97.41 125.2 91.58 124.15 96.86 118.42C98.47 116.68 96.51 115.87 95.35 115.3C93.96 114.62 92.69 112.22 90.8 114.51C88.3 117.596 85.3543 120.292 82.06 122.51C78.96 124.51 81.74 126.23 82.3 127.99C83.08 130.39 84.6 129.32 86.18 128.75C87.76 128.18 89.18 125.67 90.79 128C92.2545 130.257 93.4525 132.677 94.36 135.21C94.48 135.49 92.87 136.49 92.03 137.11C91.8326 137.303 91.5869 137.438 91.3187 137.503C91.0505 137.567 90.7699 137.558 90.5066 137.476C90.2432 137.394 90.007 137.242 89.8227 137.037C89.6385 136.832 89.5132 136.581 89.46 136.31C88.21 132.97 86.1 134.23 84.46 135.56C82.82 136.89 77.78 136.29 80.46 141.18C81.69 143.45 78.92 144.32 77.88 144.24C74.33 143.96 74.64 140.11 72.97 138C71.66 136.35 72.79 135.58 74.19 134.76C76.03 133.67 79.38 133.81 77.38 129.69C75.62 126.07 73.65 126.9 70.91 127.84C68.5338 128.719 66.0321 129.212 63.5 129.3C60.25 129.3 59.16 130.42 59.09 133.72C59.02 137.24 61.09 136.84 63.29 136.94C64.78 137 66.95 136.5 66.64 139.12C66.33 141.74 67.73 144.79 65.64 146.82C64.8 147.62 61.46 147.99 61.44 145.39C61.39 139.73 57.12 142.59 54.78 141.79C52.44 140.99 51.33 142.1 51.08 144.79C50.82 147.69 47.72 146.89 46.91 146.1C44.75 144 46.32 141 46.19 138.39C46.08 135.95 47.98 136.05 49.63 136.32C52.35 136.76 53.84 136.39 54.22 132.98C54.62 129.36 52.5 129.34 50.22 128.73C47.3543 128.155 44.5678 127.238 41.92 126C39.05 124.43 38 125.62 36.44 127.83C34.33 130.83 36.74 131.39 38.34 132.65C39.34 133.43 41.66 133.65 40.55 135.65C39.15 138.11 38.22 141.22 35.55 142.42C34.55 142.85 31.16 141.33 32.45 139.42C35.01 135.58 32.14 134.92 29.98 133.54C27.82 132.16 25.92 129.77 23.53 133.7C22.29 135.7 19.98 133.37 19.71 132.55C18.71 129.4 21.88 127.71 22.98 125.23C23.9 123.17 25.13 124.23 26.48 124.94C28.2 125.79 29.59 128.84 32.11 125.31C34.28 122.26 33.47 120.73 30.98 118.77C29.32 117.352 27.824 115.752 26.52 114C24.8 111.87 23.94 109.16 19.96 111.53C15.98 113.9 18.96 115.75 19.84 117.53C20.84 119.66 20.12 120.6 18.3 121.13C15.92 121.81 14.15 125.13 11.3 123.13C10.57 122.62 8.75001 120.43 10.67 119.55C15.29 117.44 12.32 115.07 11.32 112.71C10.32 110.35 9.39001 108.24 5.89001 110.14C4.03001 111.14 2.89001 108.14 3.13001 107.21C3.89001 104 7.50001 104.05 9.77001 102.49C11.59 101.24 12.18 102.99 12.9 104.23C13.92 106 14 108.94 17.7 107C20.7 105.47 21.02 104 19.83 101.15C18.9304 98.7863 18.3617 96.3096 18.14 93.7901C17.83 91.1201 17.75 89.1601 13.97 89.1601C10.19 89.1601 10.59 91.4101 10.45 93.6801C10.35 95.3101 10.53 97.2001 7.99001 96.7601C5.45001 96.3201 2.31001 97.9401 0.530011 95.3401C-0.239989 94.2101 -0.559988 91.3401 2.38001 91.4901C5.96001 91.7301 5.77001 89.3701 5.49001 87.3401C5.21001 85.3101 7.85001 81.5201 2.90001 81.2301C0.690012 81.1001 1.14001 79.3701 1.13001 78.0001C1.13001 76.1901 2.36001 76.0901 3.71001 76.1301C7.63001 76.2501 12.58 74.9601 11.12 82.0001C10.65 84.2301 12.57 84.0001 14 84.0001C15.68 84.0001 17.8 84.9001 18.44 82.2601C18.69 81.2601 18.77 80.1101 19.04 79.0701C24.15 59.3501 43.47 45.9201 63.14 48.4001C84.38 51.1101 100 68.4501 99.8 89.2701Z" fill="#283B7C"/>
    <path d="M470.67 130.89C460.922 130.386 451.267 128.745 441.9 126C437.31 124.7 435.95 122.47 437.61 117.65C442.27 104.11 442.07 104.11 455.74 107.56C464.52 109.77 473.37 111.56 482.53 110.02C486.122 109.507 489.546 108.165 492.53 106.1C500.24 100.56 500.94 90.6501 494.07 84.1001C491.37 81.6904 488.297 79.7349 484.97 78.3101C475.17 73.7001 465.2 69.3901 455.68 64.3101C443.55 57.7701 435.95 47.8501 436.68 33.3801C437.38 19.2901 446.06 10.8201 458.13 5.27006C461.732 3.5925 465.532 2.37945 469.44 1.66006C485.11 -1.10994 500.36 0.750062 515.24 6.32006C519.9 8.07006 520.66 10.4601 518.72 14.9801C513.5 27.1501 513.72 27.1301 500.9 23.5001C492.9 21.2301 484.79 19.3101 476.33 21.0401C469.11 22.5201 464.51 26.4001 463.58 31.8901C462.43 38.7301 466.22 43.0501 471.58 45.8901C479.72 50.1801 488.2 53.8101 496.49 57.8101C500.23 59.6101 503.96 61.4501 507.49 63.5501C532.7 78.3301 527.62 112.33 505.79 124.2C496.25 129.27 484.69 131.85 470.67 130.89Z" fill="#283B7C"/>
    <path d="M690.94 131.22C650.28 131.51 625.74 104.22 628.24 63.1601C629.85 36.6301 640.24 15.6001 665.97 4.90008C682.67 -2.04992 699.97 -0.899919 717.06 3.90008C732.23 8.19008 732.43 9.09008 726.21 23.6801C724.73 27.1401 723.03 27.9901 719.62 26.2301C713.466 23.183 706.826 21.2401 700 20.4901C678.22 17.6901 662.52 28.2701 657.22 49.5601C654.52 60.3021 654.54 71.548 657.28 82.2801C662.73 104.11 679.72 114.5 703.12 110.51C709.023 109.623 714.787 107.98 720.27 105.62C723.27 104.24 725.14 104.79 726.67 108.03C733.14 121.68 732.87 122.62 718.46 126.84C713.603 128.256 708.659 129.355 703.66 130.13C699 130.85 694.28 131 690.94 131.22Z" fill="#283B7C"/>
    <path d="M195.54 94.6101C217.92 119.61 209.61 154.71 178.37 167.05C174.9 168.42 174.02 173.28 177.37 174.88C179.92 176.11 179.95 178.04 179.82 179.58C179.65 181.46 177.3 181.09 175.76 181.38C174.51 181.62 173.29 181.95 172.04 182.1C170.79 182.25 169.33 183.1 168.77 181.37C168.34 180.1 167.84 178.74 168.55 177.24C171.42 171.14 170.39 169.39 164 169.38C161.29 169.456 158.58 169.204 155.93 168.63C154.46 168.28 152.39 167.43 151.68 169.51C151.06 171.32 148.68 173.26 151.03 175.32C152.91 176.96 151.35 178.32 150.87 179.65C150.1 181.75 148.44 180.45 147.19 180.12C145.639 179.65 144.116 179.089 142.63 178.44C141.51 178 139.95 177.93 140.16 176.15C140.165 175.427 140.338 174.715 140.664 174.07C140.99 173.424 141.461 172.863 142.04 172.43C147.31 168.99 147.26 166.71 141.98 163.51C139.67 162.11 137.61 160.31 135.34 158.85C134.14 158.08 133.25 155.52 131.46 157.26C130.01 158.66 126.64 158.96 127.83 162.33C128.62 164.58 126.46 165.06 125.33 165.88C123.57 167.16 122.89 165.16 121.95 164.25C121.17 163.495 120.478 162.653 119.89 161.74C119.07 160.46 116.83 159.55 117.77 157.8C118.71 156.05 119.99 155.21 122.6 155.57C126.46 156.09 128.52 151.98 126.6 148.66C116.34 131.34 117.72 112.93 130.49 96.8201C132.76 98.5801 134.95 100.45 137.3 102.09C142.42 105.64 142.3 108.09 136.64 111.29C132.93 113.4 131.56 116.43 133.57 120.29C135.16 123.4 138.04 124.64 141.33 123.41C145.05 122.02 146.4 119.07 145.52 115.13C144.14 108.95 145.79 107.23 151.62 108.44C154.45 109 157.307 109.411 160.18 109.67C163.99 110.05 165.58 112.41 164.18 116.02C163.72 117.17 162.62 118.02 162.18 119.22C161.08 122.47 161.79 125.3 164.83 127.22C166.031 128.074 167.509 128.445 168.97 128.26C170.432 128.075 171.77 127.347 172.72 126.22C175.92 122.86 175.25 119.55 172.08 116.3C168.91 113.05 168.96 109.41 172.28 108.53C181.36 106.16 189 101.23 195.54 94.6101Z" fill="#CF157B"/>
    <path d="M195.54 94.61C188.95 101.23 181.36 106.16 172.22 108.61C168.9 109.49 168.74 113.02 172.02 116.38C175.3 119.74 175.86 122.94 172.66 126.3C171.71 127.426 170.372 128.155 168.91 128.34C167.448 128.525 165.971 128.154 164.77 127.3C161.77 125.39 161.02 122.56 162.12 119.3C162.52 118.15 163.62 117.25 164.12 116.1C165.55 112.49 163.96 110.1 160.12 109.75C157.247 109.491 154.39 109.08 151.56 108.52C145.73 107.31 144.08 109.03 145.46 115.21C146.34 119.15 144.99 122.1 141.27 123.49C137.98 124.72 135.1 123.49 133.51 120.37C131.51 116.47 132.87 113.44 136.58 111.37C142.22 108.16 142.36 105.72 137.24 102.17C134.89 100.53 132.7 98.66 130.43 96.9C126.97 93.83 124.67 94.9 122.82 100.55C121.55 104.38 118.89 106.23 114.95 105.44C114.178 105.34 113.433 105.089 112.759 104.699C112.084 104.309 111.494 103.789 111.023 103.17C110.551 102.55 110.207 101.843 110.011 101.09C109.815 100.336 109.77 99.5509 109.88 98.78C110.19 94.78 112.62 92.68 116.68 92.59C117.04 92.59 117.4 92.66 117.76 92.66C123.23 92.57 124.76 90.23 122.53 85.47C121.391 83.0211 120.389 80.5106 119.53 77.95C117.94 73.14 114.86 72.26 111.08 75.8C109.86 76.94 108.73 78.08 107.08 78.36C105.655 78.6939 104.159 78.5248 102.845 77.8815C101.531 77.2381 100.48 76.16 99.87 74.83C99.1747 73.6444 98.9151 72.2534 99.1361 70.8969C99.357 69.5404 100.044 68.3036 101.08 67.4C102.051 66.304 103.376 65.5843 104.824 65.3667C106.272 65.1492 107.75 65.4477 109 66.21C115.68 69.73 117 69.09 117.9 61.86C118.15 59.86 118.42 57.92 118.84 55.98C120.19 49.71 118.56 47.98 112.24 49.27C106.83 50.35 102.31 46.22 103.75 41.44C104.07 40.1999 104.748 39.0816 105.699 38.2244C106.651 37.3672 107.833 36.8092 109.1 36.62C112.1 36.1 114.38 37.42 115.95 39.94C120.01 46.43 121.5 46.48 125.95 40.38C127.224 38.6335 128.599 36.9639 130.07 35.38C133.9 31.25 133.2 28.79 127.6 26.84C126.541 26.5669 125.53 26.1354 124.6 25.56C122.24 23.75 121.22 21.34 122.23 18.41C122.605 16.9876 123.471 15.744 124.676 14.9001C125.88 14.0561 127.345 13.6663 128.81 13.8C130.277 13.8038 131.693 14.3386 132.796 15.3056C133.899 16.2725 134.614 17.6062 134.81 19.06C135.04 20.27 134.65 21.58 134.76 22.82C135.13 26.99 137.85 28.49 141.51 26.82C143.949 25.667 146.458 24.6651 149.02 23.82C155.26 21.77 155.85 19.82 151.38 14.82C149.72 12.97 148.57 11 149.3 8.46996C150.03 5.93996 151.65 3.99996 154.49 3.56996C157.33 3.13996 159.57 3.79996 161.14 6.18996C161.859 7.23704 162.262 8.46923 162.299 9.73905C162.336 11.0089 162.007 12.2625 161.35 13.35C157.82 20.05 158.66 21.6 165.92 22.13C167.718 22.2887 169.502 22.5727 171.26 22.98C178.37 24.51 179.57 23.32 178.26 15.98C177.51 11.7 180.04 8.22996 184.14 7.97996C187.45 7.75996 189.84 9.25996 190.88 12.31C192 15.61 190.88 18.37 187.79 20.13C186.27 21.01 184.55 21.34 183.71 23.32C182.76 25.54 182.17 27.02 184.95 28.54C187.743 30.1994 190.342 32.1648 192.7 34.4C196.37 37.64 199.63 36.88 200.87 32.04C201.51 29.56 202.57 27.66 204.87 26.64C205.704 26.2844 206.602 26.1032 207.509 26.1074C208.416 26.1117 209.312 26.3013 210.143 26.6647C210.974 27.0281 211.721 27.5576 212.34 28.2206C212.958 28.8836 213.435 29.6661 213.74 30.52C214.035 31.3757 214.148 32.2839 214.071 33.1859C213.994 34.0879 213.729 34.9638 213.293 35.7571C212.857 36.5504 212.259 37.2435 211.539 37.7917C210.818 38.3399 209.991 38.7311 209.11 38.94C208.052 39.1123 206.977 39.1493 205.91 39.05C200.91 39.05 199.21 41.57 201.18 45.88C202.383 48.4839 203.435 51.155 204.33 53.88C205.97 58.88 208.91 59.77 212.73 55.95C215.59 53.08 218.64 52.35 221.9 54.6C224.95 56.71 225.8 59.87 223.71 63.14C221.62 66.41 218.48 67.41 214.82 65.46C207.66 61.64 206.06 62.46 205.41 70.59C204.73 79.55 200.85 87.37 195.54 94.61ZM137.77 90.21C151.44 104.48 174.77 103.63 187.98 88.4C190.979 85.0752 193.292 81.1918 194.789 76.972C196.285 72.7522 196.935 68.2787 196.701 63.8075C196.467 59.3363 195.354 54.9551 193.425 50.9146C191.496 46.874 188.789 43.2535 185.46 40.26C182.09 37.1648 178.141 34.7658 173.841 33.2006C169.541 31.6355 164.974 30.935 160.403 31.1394C155.832 31.3438 151.346 32.4491 147.202 34.3918C143.059 36.3345 139.341 39.0763 136.26 42.46C130.182 49.0186 126.933 57.7075 127.215 66.6449C127.498 75.5822 131.29 84.0485 137.77 90.21Z" fill="#F0B700"/>
    <path d="M241.28 156.37C247.04 153.96 251.84 153.63 255.47 158.68C258.6 163.04 258.47 171.35 255.23 175.59C254.233 176.994 252.857 178.085 251.264 178.738C249.671 179.392 247.926 179.579 246.23 179.28C243.53 178.9 241.08 177.62 238.13 178.89C236.22 179.71 235.44 177.96 235.44 176.01C235.49 166.45 235.53 156.89 235.44 147.33C235.44 144.23 237.44 144.47 239.44 144.33C242.44 144.13 241.26 146.39 241.34 147.71C241.39 150.41 241.28 153.12 241.28 156.37ZM241.36 166.61C240.93 170.46 240.96 174.4 246.13 174.39C250.71 174.39 251.5 170.54 251.45 167C251.4 163.46 250.72 159.72 245.98 159.82C241.67 159.92 240.69 162.87 241.36 166.61Z" fill="#283B7C"/>
    <path d="M544 161.78C544 157.09 544.14 152.4 543.94 147.73C543.83 144.93 545.26 144.48 547.53 144.33C550.18 144.15 549.88 145.85 549.88 147.48C549.945 148.559 549.945 149.641 549.88 150.72C549.36 154.85 549.77 156.87 555.04 155.12C561.27 153.05 565.04 156.34 565.35 163C565.5 167 565.35 170.93 565.35 174.89C565.35 177.13 565.61 179.2 562.16 179.1C559.04 179.01 559.31 177.1 559.32 175.1C559.32 171.5 559.32 167.9 559.32 164.3C559.32 161.87 558.44 159.77 555.67 159.99C552.9 160.21 550.04 160.71 549.93 164.38C549.82 168.05 549.84 171.94 549.93 175.72C549.93 177.8 549.61 179.12 547.02 179.09C544.43 179.06 543.94 178.09 544.02 175.83C544.08 171.15 544 166.46 544 161.78Z" fill="#283B7C"/>
    <path d="M283.51 179.35C276.14 179.35 271.73 174.65 271.83 166.93C271.92 159.55 276.78 154.61 283.93 154.62C291.26 154.62 295.59 159.32 295.49 167.15C295.4 174.75 290.87 179.36 283.51 179.35ZM278.11 167.21C278.44 171.03 279.18 174.89 283.99 174.6C288.8 174.31 289.23 170.38 289.16 166.6C289.09 162.82 288.34 159.44 283.7 159.55C278.82 159.69 278.37 163.49 278.11 167.21Z" fill="#283B7C"/>
    <path d="M495.59 167.15C495.5 174.8 491.04 179.36 483.64 179.35C476.24 179.34 472.08 174.94 472.14 166.93C472.19 159.35 476.78 154.62 484.07 154.62C491.36 154.62 495.67 159.24 495.59 167.15ZM489.59 166.82C489 163.62 488.97 159.56 483.91 159.54C479.3 159.54 478.43 163.18 478.34 166.66C478.25 170.31 478.84 174.38 483.6 174.66C488.36 174.94 489 170.89 489.55 166.82H489.59Z" fill="#283B7C"/>
    <path d="M687.13 167.5C687.13 169.12 687.13 170.74 687.13 172.36C687.21 176.75 687.78 181.53 680.72 177.91C679.83 177.45 678.12 178.76 676.72 179.09C670.04 180.66 666.14 177.79 665.87 170.97C665.7 166.84 665.87 162.69 665.8 158.55C665.8 156.39 666.31 155.23 668.8 155.23C671.29 155.23 671.97 156.14 671.91 158.42C671.82 162.2 671.91 165.98 671.91 169.76C671.91 172.53 673.01 174.36 676.13 173.94C678.76 173.58 681.05 172.83 680.9 169.35C680.75 165.87 680.9 162.51 680.85 159.09C680.85 156.95 680.85 155.24 683.85 155.22C686.68 155.22 687.18 156.51 687.09 158.85C687.05 161.73 687.14 164.61 687.13 167.5Z" fill="#283B7C"/>
    <path d="M719.7 179.35C710.9 179.35 706.29 175.15 705.93 167.73C705.59 160.67 710.08 155.25 716.83 154.73C720.23 154.44 723.31 155.23 725.6 157.96C727.89 160.69 728.97 163.96 727.95 167.01C726.93 170.06 723.54 168.01 721.25 168.45C719.453 168.59 717.65 168.62 715.85 168.54C714.85 168.54 713.49 168.01 712.85 169.07C712.11 170.41 713.27 171.48 714.07 172.36C716.41 174.91 719.31 175.12 722.52 174.28C724.04 173.88 726.01 172.47 726.86 175.41C727.86 178.7 725.04 178.41 723.41 178.92C722.196 179.217 720.95 179.362 719.7 179.35ZM712.58 164.58C714.529 164.674 716.483 164.654 718.43 164.52C719.73 164.37 722.12 165.66 721.95 162.86C721.895 161.951 721.499 161.095 720.841 160.465C720.182 159.835 719.311 159.476 718.4 159.46C715.24 159.19 713.47 160.81 712.58 164.58Z" fill="#283B7C"/>
    <path d="M363.42 179.35C354.71 179.35 350.07 175.05 349.79 167.63C349.51 160.21 354.28 154.88 361.3 154.63C365.4 154.49 368.7 155.97 370.69 159.76C373.96 166.03 372.54 168.45 365.56 168.45C363.76 168.36 361.957 168.38 360.16 168.51C358.93 168.66 356.94 167.44 356.6 169.58C356.37 171.01 357.6 172.22 358.79 173.11C361.13 174.93 363.72 174.93 366.49 174.21C367.99 173.82 369.98 172.33 370.74 175.4C371.54 178.67 368.85 178.4 367.21 178.89C365.97 179.197 364.697 179.351 363.42 179.35ZM361.42 164.68C362.82 163.83 365.79 166.08 365.8 162.79C365.8 160.69 363.95 159.4 361.68 159.41C359 159.41 356.68 161.01 356.88 163.41C357.08 165.81 359.79 164.06 361.38 164.68H361.42Z" fill="#283B7C"/>
    <path d="M582.72 179.35C574 179.35 569.36 175.02 569.09 167.61C568.82 160.2 573.62 154.85 580.63 154.61C584.5 154.49 587.74 155.81 589.75 159.29C591.14 161.7 592.06 164.53 591.08 167.05C589.98 169.91 586.97 168.05 584.83 168.39C583.06 168.65 581.22 168.39 579.42 168.47C578.26 168.54 576.63 167.78 576.03 169.09C575.35 170.59 576.68 171.79 577.71 172.74C580.07 174.93 582.83 174.99 585.81 174.18C587.32 173.77 589.31 172.38 590.05 175.42C590.84 178.69 588.15 178.42 586.5 178.88C585.263 179.184 583.994 179.342 582.72 179.35ZM580.87 164.78C581.87 163.46 585.04 166.3 585.08 162.84C585.08 160.75 583.28 159.42 581.01 159.41C578.35 159.41 576.01 160.91 576.16 163.33C576.31 165.75 579.06 164.05 580.87 164.78Z" fill="#283B7C"/>
    <path d="M435.69 168.46C434.609 168.36 433.521 168.36 432.44 168.46C431.01 168.75 428.72 167.34 428.3 169.46C427.96 171.23 429.63 172.68 431.3 173.63C433.67 175 436.11 174.72 438.63 174C440.07 173.58 441.71 172.67 442.44 175.27C443.11 177.67 441.7 178.16 440.05 178.52C434.65 179.69 429.25 180.4 424.8 176.02C421.35 172.61 420.49 166.22 422.62 161.34C423.674 159.033 425.456 157.136 427.692 155.94C429.929 154.744 432.496 154.316 435 154.72C439.82 155.5 442.48 158.36 443.44 163.25C444.24 167.3 443.25 169.11 438.93 168.49C437.852 168.4 436.769 168.39 435.69 168.46ZM432.59 164.67C434.14 163.89 436.99 165.96 437.39 163.17C437.72 160.84 435.66 159.42 433.17 159.4C430.68 159.38 428.65 160.91 428.52 163.01C428.36 165.82 431.15 164 432.59 164.67Z" fill="#283B7C"/>
    <path d="M396.81 169C396.81 171.34 396.75 173.69 396.81 176C396.88 178 396.08 178.93 393.98 179C391.68 179.06 390.7 178.21 390.77 175.86C390.87 172.07 390.77 168.28 390.77 164.5C390.77 161.82 389.89 159.6 386.84 159.93C384.24 160.22 381.31 160.75 381.37 164.56C381.43 168.37 381.37 172.13 381.37 175.91C381.37 177.83 380.89 178.91 378.67 179C376.45 179.09 375.46 178.13 375.5 175.82C375.58 170.05 375.7 164.28 375.45 158.52C375.31 155.22 377.3 154.38 379.36 155.44C381.72 156.65 383.36 155.75 385.36 155.18C392.36 153.18 396.29 155.91 396.71 163.03C396.83 165.03 396.71 167.03 396.71 168.98L396.81 169Z" fill="#283B7C"/>
    <path d="M643 167.2C643 170.26 643 173.32 643 176.38C643 178.12 642.06 179.71 640.55 178.9C636.92 176.9 633.77 179.22 630.42 179.35C625.22 179.54 622.48 177.41 622.15 172.35C621.85 167.69 622.15 163 621.97 158.35C621.9 155.96 622.91 155.35 625.18 155.29C627.89 155.23 627.97 156.75 627.95 158.71C627.9 162.31 627.87 165.91 627.95 169.51C628.01 172.04 628.69 174.35 631.95 174.02C634.74 173.73 637.36 173.09 637.24 169.31C637.12 165.72 637.24 162.11 637.18 158.51C637.12 156.31 637.71 155.3 640.18 155.27C642.82 155.27 643.07 156.58 643.01 158.62C643 161.44 643 164.32 643 167.2Z" fill="#283B7C"/>
    <path d="M607.13 168.41C606.29 165.32 609.38 160.57 603.88 158.41C603.694 157.611 603.736 156.776 604 156C608.36 155.27 607 151.42 607.88 148.9C609.52 144.34 614.53 142.11 619.38 143.9C620.92 144.46 621.82 145.15 621.54 147.01C621.21 149.1 619.99 149.01 618.42 148.7C616.85 148.39 614.77 148.25 614.09 149.94C613.09 152.32 611.71 155.5 616.67 155.29C618.15 155.23 619.73 155.18 619.67 157.29C619.61 159.4 618.21 159.61 616.67 159.41C613.48 158.98 613.22 160.78 613.3 163.27C613.44 167.41 613.3 171.56 613.37 175.7C613.37 177.92 612.69 179.03 610.29 179.02C607.89 179.01 606.98 178.19 607.1 175.83C607.22 173.47 607.13 171.19 607.13 168.41Z" fill="#283B7C"/>
    <path d="M459.5 168.62C458.3 165.62 462.17 160.76 456.32 158.62C455.66 158.38 455.59 155.95 456.51 155.84C460.68 155.31 459.3 151.94 459.95 149.7C460.283 148.483 460.874 147.352 461.684 146.385C462.493 145.418 463.502 144.636 464.641 144.094C465.78 143.552 467.023 143.262 468.284 143.244C469.546 143.226 470.796 143.481 471.95 143.99C473.67 144.68 474.01 145.64 473.75 147.29C473.45 149.18 472.28 148.98 470.97 148.74C469.752 148.371 468.441 148.468 467.29 149.01C465.58 150.01 465.76 151.7 465.73 153.31C465.73 155.55 467.32 155.31 468.73 155.31C470.14 155.31 471.87 155.04 472.02 157.11C472.19 159.44 470.47 159.68 468.74 159.48C465.81 159.13 465.6 160.83 465.66 163.08C465.76 167.21 465.61 171.36 465.72 175.49C465.78 177.94 465.01 179.15 462.34 179.09C459.67 179.03 459.4 177.63 459.47 175.58C459.54 173.53 459.5 171.24 459.5 168.62Z" fill="#283B7C"/>
    <path d="M304.81 179.36C304.043 179.424 303.271 179.35 302.53 179.14C300.67 178.33 297.05 179.14 297.96 175.45C298.82 171.88 301.34 174.26 303.21 174.55C305.36 174.89 308.08 175.55 308.92 173.08C309.92 170.17 306.77 169.97 304.92 169.08C303.406 168.531 301.938 167.862 300.53 167.08C296.06 163.95 296.53 158.08 301.48 155.72C304.94 154.08 308.48 154.5 312.04 155.52C313.36 155.9 314.31 156.62 313.79 158.26C313.27 159.9 312.59 160.84 310.69 160.07C309.837 159.778 308.949 159.597 308.05 159.53C306.4 159.34 304.51 159.17 304.05 161.21C303.65 162.98 305.36 163.51 306.69 164.07C307.36 164.35 308 164.69 308.69 164.92C312.82 166.33 316.01 168.69 314.87 173.56C313.73 178.43 309.68 179.46 304.81 179.36Z" fill="#283B7C"/>
    <path d="M657.15 179.3C651.62 179.4 649.69 177.62 649.39 172.02C649.25 169.51 649.33 167.02 649.32 164.46C649.32 163.56 649.69 162.16 649.26 161.83C644.9 158.48 648.15 155.48 649.11 152.04C649.78 149.66 650.37 148.76 652.75 148.57C655.62 148.33 655.65 150.07 655.43 151.95C655.04 155.13 656.82 155.55 659.33 155.3C660.75 155.16 661.84 155.57 661.82 157.3C661.8 159.03 660.95 159.69 659.43 159.45C655.17 158.78 655.3 161.45 655.43 164.36C655.54 166.7 655.43 169.05 655.53 171.36C655.63 173.43 656.59 174.85 658.91 174.61C660.58 174.44 662.66 173.26 662.91 176.23C663.16 179.2 660.6 178.88 658.78 179.23C658.241 179.315 657.694 179.339 657.15 179.3Z" fill="#283B7C"/>
    <path d="M413.34 179.31C407.27 179.55 403.23 177.86 401.43 172.98C399.53 167.79 399.66 162.55 403.57 158.23C407.26 154.16 412.09 154.08 417.11 155.23C419.11 155.71 419.71 156.76 419.28 158.75C418.77 161.14 417.37 160.06 416 159.86C409.07 158.86 405.48 162.47 406.82 169.05C407.69 173.32 410.26 175.12 414.59 174.69C416.34 174.52 419.14 171.92 419.47 175.98C419.76 179.51 416.47 178.74 414.41 179.27C413.73 179.46 413 179.31 413.34 179.31Z" fill="#283B7C"/>
    <path d="M330.32 179.29C323.89 179.56 319.8 177.96 317.97 173.08C316.03 167.92 316.12 162.67 319.97 158.32C323.61 154.21 328.44 154.04 333.47 155.24C335.39 155.69 336.23 156.6 335.75 158.68C335.27 160.76 333.99 160.25 332.51 159.88C329.37 159.1 326.2 159.06 324.33 162.25C323.415 163.72 322.937 165.421 322.953 167.153C322.969 168.885 323.478 170.577 324.42 172.03C326.34 175.16 329.42 175.22 332.58 174.29C334.03 173.87 335.25 173.29 335.95 175.39C336.72 177.71 335.28 178.39 333.66 178.78C332.562 179.039 331.445 179.21 330.32 179.29Z" fill="#283B7C"/>
    <path d="M535.45 179.35C529.97 179.48 527.45 177.22 527.54 172.23C527.59 169.71 527.54 167.23 527.54 164.67C527.415 163.781 527.415 162.879 527.54 161.99C528.54 158.81 522.37 159.87 524.25 156.5C525.25 154.79 528.3 154.62 527.56 151.5C526.95 148.93 528.95 148.81 530.88 148.58C533.44 148.27 533.57 149.82 533.34 151.53C532.9 154.8 534.48 155.66 537.34 155.31C538.75 155.14 539.8 155.53 539.79 157.31C539.78 159.09 538.79 159.68 537.4 159.45C533.25 158.77 533.14 161.28 533.31 164.25C533.44 166.58 533.31 168.93 533.38 171.25C533.45 173.57 534.69 174.96 537.22 174.64C538.7 174.45 540.45 173.26 540.83 176.04C541.21 178.82 539.17 178.83 537.46 179.21C536.796 179.319 536.123 179.366 535.45 179.35Z" fill="#283B7C"/>
    <path d="M692.06 166.91C692.06 165.29 692.06 163.67 692.06 162.05C692.06 157.86 691.18 152.83 698.38 156.19C699.13 156.54 700.57 155.32 701.73 154.97C703.09 154.57 704.94 153.97 705.39 155.77C705.76 157.27 705.98 159.77 703.39 159.88C698.21 160.16 697.98 163.48 698.2 167.39C698.36 170.26 698.2 173.15 698.2 176.02C698.2 178.02 697.59 179.02 695.45 179.02C693.31 179.02 691.96 178.48 692.01 176.02C692.1 173 692.06 170 692.06 166.91Z" fill="#283B7C"/>
    <path d="M503.54 155.46C505.18 156.89 507.18 155.64 509.32 154.86C510.63 154.39 512.47 154.1 512.62 156.26C512.72 157.69 513.14 159.81 510.62 159.9C505.85 160.08 505.22 163.09 505.45 166.96C505.63 169.84 505.45 172.74 505.5 175.62C505.5 177.73 505.02 179.04 502.5 179.07C499.98 179.1 499.39 178.07 499.43 175.81C499.52 170.03 499.57 164.25 499.43 158.48C499.34 155.76 500.41 154.88 503.54 155.46Z" fill="#283B7C"/>
    <path d="M268 167.14C268 170.03 267.93 172.92 268 175.8C268.06 178.07 267.14 179.05 264.81 179.07C262.48 179.09 261.74 177.95 261.81 175.73C261.91 169.963 261.91 164.19 261.81 158.41C261.81 156.11 262.56 155.24 264.93 155.23C267.3 155.22 268.1 156.28 268.04 158.48C268 161.37 268 164.26 268 167.14Z" fill="#283B7C"/>
    <path d="M345.83 167.1C345.83 170.16 345.83 173.22 345.83 176.28C345.83 178.43 344.73 179.03 342.83 179.05C340.93 179.07 339.83 178.41 339.83 176.27C339.897 170.137 339.897 164.013 339.83 157.9C339.83 155.65 340.91 155.26 342.83 155.25C344.75 155.24 345.92 155.71 345.83 157.91C345.78 161 345.84 164 345.83 167.1Z" fill="#283B7C"/>
    <path d="M346 149.2C346 149.984 345.694 150.736 345.146 151.297C344.599 151.858 343.853 152.182 343.07 152.2C340.98 152.38 339.54 151.35 339.44 149.3C339.34 147.25 340.84 146.06 342.85 146.11C343.262 146.098 343.672 146.169 344.056 146.319C344.439 146.469 344.789 146.696 345.083 146.984C345.377 147.273 345.61 147.618 345.768 147.998C345.925 148.379 346.004 148.788 346 149.2Z" fill="#283B7C"/>
    <path d="M268.18 149.28C268.147 149.717 268.023 150.143 267.817 150.53C267.612 150.918 267.328 151.258 266.984 151.53C266.64 151.803 266.244 152.001 265.82 152.113C265.396 152.225 264.953 152.248 264.52 152.18C262.68 152.05 261.52 151.03 261.6 149.13C261.67 146.93 263.17 146 265.15 146.13C265.557 146.134 265.959 146.219 266.333 146.38C266.707 146.541 267.045 146.775 267.327 147.069C267.609 147.362 267.83 147.709 267.976 148.088C268.123 148.468 268.192 148.873 268.18 149.28Z" fill="#283B7C"/>
    <path d="M137.77 90.2099C154.11 78.6699 170.87 78.6399 187.98 88.3999C174.77 103.63 151.44 104.48 137.77 90.2099Z" fill="#CF157B"/>
  </g>
  <defs>
    <clipPath id="clip0_236_1558">
      <rect width="730.7" height="182.42" fill="white"/>
    </clipPath>
  </defs>
</svg>
