<?xml version="1.0" encoding="utf-8"?>
<!-- Generator: Adobe Illustrator 25.2.0, SVG Export Plug-In . SVG Version: 6.00 Build 0)  -->
<svg version="1.1" id="LOGOS" xmlns="http://www.w3.org/2000/svg" xmlns:xlink="http://www.w3.org/1999/xlink" x="0px" y="0px"
	 viewBox="0 0 841.9 638.5" style="enable-background:new 0 0 841.9 638.5;" xml:space="preserve">
<style type="text/css">
	.st0{fill:#F47D20;}
	.st1{fill:#4D4848;}
</style>
<path class="st0" d="M756.4,33.1c-23.7,0-43,19.2-43,43c0,7.2,1.8,14.3,5.2,20.6c-4.3,2.1-14.2,7.1-28.2,14.4
	c-7.6-16-26.6-22.8-42.6-15.3s-22.8,26.6-15.3,42.6c0.5,1,1,1.9,1.5,2.8c-7.2,4-14.6,8.1-22.3,12.4c-7.6-11.6-23.2-14.9-34.8-7.3
	c-10.8,7-14.5,21.1-8.6,32.5c-7.9,4.7-15.9,9.6-23.9,14.5c-7.7-6.6-19.3-5.6-25.9,2.1c-3.9,4.6-5.3,10.8-3.7,16.7
	c-32.2,20.9-62.9,42.8-87.8,64.1c-29.1-65-71.9-136.3-131.6-194.4l-0.2-0.2c-7-6.9-12.8-3.8-4.7,4.7l0.3,0.3
	c50.6,54.5,90.4,133.3,117.5,205.2c-102.8,87.8-216.1,257.9-91.9,311.3c18.1,7.8,26.3-7.1,18.5-11.7c-1.4-0.8-56.7-30.7-21.5-122.6
	h88.5c4.7,0.2,8.7-3.6,8.9-8.3c0.2-4.7-3.6-8.7-8.3-8.9c-0.2,0-0.4,0-0.6,0h-81.2c5.3-11.1,11.1-22,17.5-32.5h63.7
	c4.7-0.2,8.5-4.1,8.3-8.9c-0.2-4.5-3.8-8.1-8.3-8.3h-52.7c6.6-9.8,13.9-20.1,22.2-30.9h30.5c4.7-0.2,8.5-4.1,8.3-8.9
	c-0.2-4.5-3.8-8.1-8.3-8.3H385c9.6-11.7,20.3-24,32-36.9l0.3-0.3c23.3,67.6,34.6,125.2,32.1,144.5c-1.4,10.5-8.1,14.8-10.8,16.1
	c-4.3,2.1-6.1,8.1,0.7,10.1c21.7,6.4,35.1-15.2,37.5-32.5c2.4-17.5-9.5-81.5-40.9-157.7c26.2-26.1,56.5-51,87.4-73.9
	c8.8,5.1,20,2.1,25.1-6.7c1.6-2.8,2.5-6,2.5-9.2c0-1.2-0.1-2.4-0.4-3.6c8.2-5.7,16.3-11.3,24.4-16.6c10.9,8.6,26.6,6.8,35.3-4
	c4.9-6.1,6.6-14.1,4.7-21.7c8.1-5,15.9-9.8,23.4-14.3c12.2,12.8,32.5,13.2,45.2,1c8.6-8.3,12-20.6,8.6-32.1
	c13.7-7.6,23.6-13,28.5-15.8c13.4,19.6,40.1,24.7,59.7,11.3c19.6-13.4,24.7-40.1,11.3-59.7C783.8,40.2,770.6,33.2,756.4,33.1
	L756.4,33.1z"/>
<path class="st1" d="M267,377.4c1.6-3.5,2.9-7.2,4.5-11.8c1.9-5.2,3.4-10.4,4.5-15.8l16.3-70.7c1.3-7.2,2.4-12.6,2.7-15.8
	c0.5-2.8,0.7-5.7,0.5-8.6v-3.2h37l-22.2,98.3c-1.6,7-2.7,12.3-3.2,16.1c-0.7,3.8-0.9,7.7-0.8,11.5L267,377.4z"/>
<path class="st1" d="M174.8,377.4H65.2c-11,0-18.5-2.4-22.5-7.5c-2.1-2.9-3.2-6.9-3.2-12c0.1-4.6,0.7-9.2,1.9-13.7L55,284.7
	c2.9-12,7.2-20.6,13.1-25.7c6.2-5.1,14.5-7.5,25.7-7.5h80.9c11.5,0,19,2.4,22.8,7.5c2.4,3,3.5,7,3.5,12.3c0,4.5-0.7,9-1.9,13.4
	l-8.8,39.4H80.2l-5.9,25.7c-0.4,2-0.7,4.1-0.8,6.2c0,1.3,0,2.4,0.5,2.9c0.8,1.6,3.2,2.4,7,2.4h80.3c7,0,14-0.7,20.9-2.1L174.8,377.4
	z M166.2,279.1c0.7-2.1,1.1-4.2,1.1-6.4c0-0.9-0.2-1.8-0.5-2.7c-1.1-1.6-3.7-2.4-7.5-2.4h-56.8c-3.7,0-6.4,0.8-8,2.4
	c-1.9,1.6-3.2,4.6-3.7,9.1L83.9,308h75.5L166.2,279.1z"/>
<path class="st1" d="M202.1,377.4c1.7-3.9,3.1-8.1,4.8-13.2c2-5.8,3.6-11.7,4.8-17.7l28.1-130.3c1.7-8.1,2.8-14.1,3.4-17.7
	c0.3-3.3,0.6-7.8,0.6-13.2h39.2l-35,161.3c-1.7,7.8-2.8,13.8-3.4,18c-0.7,4.3-1,8.6-0.8,12.9L202.1,377.4z"/>
<path class="st1" d="M480.7,377.4c1.6-3.5,2.9-7.2,4.5-11.8c1.9-5.1,3.4-10.4,4.6-15.8l16.3-70.7c1.3-7.2,2.4-12.6,2.7-15.8
	c0.5-2.8,0.7-5.7,0.5-8.6v-3.2h37l-22.3,98.3c-1.6,7-2.7,12.3-3.2,16.1c-0.7,3.8-0.9,7.7-0.8,11.5H480.7z"/>
<path class="st1" d="M654.1,272.7c-4-0.3-8-0.5-12.6-0.5h-18c-3.5,0-6.4,0.8-8,2.1c-2.1,1.6-3.5,4.3-4.6,8.3l-15,67.2
	c-2.7,10.4-3.8,18.5-3.8,24.6v2.9h-39.1c1.6-4,3.2-7.8,4.3-11.5c1.1-3.5,2.4-8.8,4.3-16.1l16.1-70.7c1.9-7,2.7-12.3,3.5-16.3
	c0.4-3.7,0.6-7.5,0.5-11.2h32.9l-1.3,12.8c1.8-3.9,4.7-7.3,8.3-9.6c3.5-2.1,8-3.2,14.2-3.2H668l7.8,13.9c-1.7,1.5-3.2,3.2-4.5,5.1
	c-1.9,2.4-3.2,3.5-4,3.5C662.4,273.5,658.1,273,654.1,272.7z"/>
<path class="st1" d="M338.8,207.5c0,10-8.1,18.1-18.1,18.1c-10,0-18.1-8.1-18.1-18.1c0-10,8.1-18.1,18.1-18.1c0,0,0,0,0,0
	C330.7,189.3,338.8,197.5,338.8,207.5C338.8,207.5,338.8,207.5,338.8,207.5z"/>
</svg>
