<svg width="106" height="80" viewBox="0 0 59 44" fill="none" xmlns="http://www.w3.org/2000/svg">
  <g clip-path="url(#clip0_587_314)">
    <path d="M17.8638 26.231C17.9852 25.9668 18.0884 25.6811 18.2115 25.334C18.3551 24.9411 18.4708 24.5387 18.5577 24.1296L19.8056 18.7409C19.9088 18.1894 19.9887 17.7808 20.0103 17.5366C20.0462 17.321 20.0596 17.1022 20.0503 16.8838V16.6379H22.879L21.1818 24.1296C21.0586 24.6612 20.9788 25.0682 20.9372 25.3539C20.8868 25.6434 20.8662 25.9373 20.8756 26.231H17.8638Z" fill="#4F4848"/>
    <path d="M55.217 0C54.648 0.000368101 54.0889 0.14827 53.5944 0.429217C53.0999 0.710164 52.687 1.11452 52.3961 1.60268C52.1053 2.09083 51.9464 2.64605 51.9351 3.21393C51.9238 3.78181 52.0604 4.34289 52.3317 4.84219C51.9989 5.00831 51.2434 5.38538 50.1768 5.93854C50.0348 5.64052 49.8336 5.37438 49.5855 5.15625C49.3374 4.93812 49.0475 4.77254 48.7334 4.66953C48.4193 4.56653 48.0876 4.52824 47.7582 4.55699C47.4289 4.58574 47.1088 4.68093 46.8174 4.83679C46.526 4.99266 46.2693 5.20596 46.0629 5.46376C45.8565 5.72157 45.7046 6.01852 45.6166 6.33663C45.5285 6.65474 45.506 6.98738 45.5505 7.31442C45.595 7.64145 45.7055 7.95606 45.8754 8.2392C45.3263 8.53987 44.7572 8.85714 44.1748 9.18771C43.9068 8.77551 43.4903 8.48192 43.0115 8.36768C42.5327 8.25344 42.0283 8.32728 41.6025 8.57394C41.1767 8.8206 40.8622 9.22119 40.7241 9.69286C40.5859 10.1645 40.6346 10.6712 40.8601 11.108C40.2561 11.4668 39.6471 11.8355 39.0297 12.211C38.8256 12.0388 38.5764 11.9284 38.3115 11.8929C38.0466 11.8573 37.777 11.898 37.5345 12.0103C37.2921 12.1225 37.0867 12.3015 36.9427 12.5263C36.7988 12.7511 36.7221 13.0123 36.7218 13.2791C36.7241 13.4005 36.742 13.521 36.775 13.6379C34.3206 15.2309 31.9728 16.8987 30.0708 18.5199C27.8527 13.5698 24.5797 8.13455 20.0287 3.7093L20.017 3.69601C19.4845 3.17276 19.0419 3.40365 19.6543 4.05648L19.6775 4.0814C23.5413 8.23422 26.5764 14.2375 28.6448 19.7143C20.8007 26.412 12.148 39.3688 21.6327 43.4369C23.0138 44.0299 23.6428 42.8954 23.0488 42.5465C22.9423 42.4851 18.7224 40.206 21.4031 33.206H28.1606C28.3344 33.206 28.5012 33.137 28.6242 33.0143C28.7471 32.8915 28.8162 32.7251 28.8162 32.5515C28.8162 32.3779 28.7471 32.2114 28.6242 32.0887C28.5012 31.966 28.3344 31.897 28.1606 31.897H21.9655C22.365 31.0485 22.8093 30.2217 23.2967 29.4203H28.1556C28.3294 29.4203 28.4962 29.3513 28.6192 29.2286C28.7421 29.1058 28.8112 28.9394 28.8112 28.7658C28.8112 28.5922 28.7421 28.4257 28.6192 28.303C28.4962 28.1803 28.3294 28.1113 28.1556 28.1113H24.1287C24.6279 27.3621 25.1937 26.5781 25.826 25.7575H28.1556C28.2417 25.7575 28.3269 25.7405 28.4065 25.7077C28.486 25.6748 28.5583 25.6266 28.6192 25.5658C28.68 25.505 28.7283 25.4329 28.7613 25.3535C28.7942 25.274 28.8112 25.1889 28.8112 25.103C28.8112 25.017 28.7942 24.9319 28.7613 24.8525C28.7283 24.7731 28.68 24.701 28.6192 24.6402C28.5583 24.5794 28.486 24.5312 28.4065 24.4983C28.3269 24.4654 28.2417 24.4485 28.1556 24.4485H26.8693C27.6031 23.5532 28.4135 22.6213 29.3104 21.6395L29.332 21.6146C31.1141 26.7641 31.9744 31.1578 31.7864 32.6229C31.7636 32.8812 31.6752 33.1295 31.5296 33.3443C31.3841 33.559 31.1861 33.7333 30.9544 33.8505C30.6216 34.0083 30.4868 34.4651 31.006 34.6179C32.67 35.1063 33.6883 33.4552 33.873 32.1412C34.0577 30.8272 33.1509 25.9352 30.7531 20.1229C32.8441 18.0882 35.079 16.2062 37.4406 14.4917C37.6537 14.6145 37.8954 14.6791 38.1415 14.6791C38.3876 14.679 38.6293 14.6143 38.8423 14.4914C39.0553 14.3684 39.2322 14.1917 39.355 13.9789C39.4779 13.7661 39.5425 13.5247 39.5422 13.2791C39.5422 13.187 39.5327 13.0952 39.514 13.005C40.1418 12.5676 40.7642 12.1445 41.381 11.7359C41.6942 11.9836 42.0772 12.1274 42.4764 12.1469C42.8755 12.1665 43.2708 12.061 43.6068 11.8451C43.9429 11.6292 44.2029 11.3137 44.3504 10.943C44.4979 10.5722 44.5255 10.1646 44.4294 9.77741C45.0451 9.39535 45.6402 9.03322 46.2148 8.69103C46.5927 9.08614 47.0925 9.34315 47.6342 9.42086C48.1758 9.49856 48.7279 9.39245 49.202 9.11955C49.676 8.84665 50.0445 8.42276 50.2484 7.91584C50.4524 7.40891 50.4799 6.84831 50.3266 6.32392C51.3699 5.74253 52.1303 5.32724 52.5014 5.12126C52.8198 5.58835 53.2537 5.96533 53.7611 6.21563C54.2685 6.46593 54.8321 6.58105 55.3972 6.5498C55.9622 6.51855 56.5096 6.34201 56.9862 6.0373C57.4628 5.73259 57.8524 5.31007 58.1172 4.81074C58.382 4.31141 58.5129 3.75222 58.4974 3.18746C58.4819 2.62269 58.3204 2.07152 58.0285 1.58745C57.7367 1.10337 57.3245 0.702824 56.8319 0.424681C56.3392 0.146538 55.783 0.00024531 55.217 0V0Z" fill="#F47D21"/>
    <path d="M10.8251 26.231H2.46357C1.63158 26.231 1.05251 26.0482 0.74467 25.6595C0.57017 25.3895 0.484641 25.0718 0.500063 24.7509C0.504967 24.3986 0.553025 24.0483 0.643166 23.7077L1.68649 19.1695C1.91113 18.2509 2.23727 17.5981 2.68488 17.2094C3.13249 16.8207 3.78811 16.6379 4.64839 16.6379H10.8218C11.702 16.6379 12.2744 16.8223 12.559 17.2094C12.7563 17.4816 12.8511 17.8145 12.8269 18.1496C12.8239 18.4944 12.7752 18.8374 12.6821 19.1695L12.0165 22.1712H3.60839L3.16245 24.1296C3.12874 24.2843 3.1087 24.4416 3.10254 24.5997C3.10254 24.7011 3.10254 24.7825 3.14248 24.8223C3.20405 24.9452 3.38708 25.0067 3.67495 25.0067H9.80176C10.3381 25.0083 10.8731 24.9526 11.3975 24.8406L10.8251 26.231ZM10.1712 18.7409C10.2233 18.5827 10.2508 18.4174 10.2527 18.2509C10.251 18.181 10.2375 18.1119 10.2128 18.0466C10.1296 17.9253 9.92656 17.8639 9.64035 17.8639H5.304C5.08386 17.8431 4.86428 17.9087 4.69165 18.0466C4.54855 18.1695 4.44704 18.3938 4.40544 18.7409L3.8946 20.9452H9.66032L10.1712 18.7409Z" fill="#4F4848"/>
    <path d="M12.9099 26.2309C13.0397 25.9353 13.1479 25.6147 13.2793 25.2343C13.4322 24.7896 13.5545 24.3351 13.6454 23.8738L15.7953 13.9436C15.9251 13.3256 16.0116 12.8672 16.0549 12.5931C16.0981 12.319 16.0981 11.9984 16.0981 11.5864H19.0933L16.4309 23.8788C16.3011 24.4751 16.2129 24.9336 16.1697 25.2525C16.1166 25.5775 16.0949 25.9068 16.1048 26.2359L12.9099 26.2309Z" fill="#4F4848"/>
    <path d="M47.4078 18.2508C47.1 18.2309 46.7938 18.2093 46.4477 18.2093H45.0765C44.8598 18.1967 44.6448 18.255 44.4642 18.3754C44.2809 18.5418 44.1584 18.7645 44.1164 19.0083L42.9716 24.1329C42.7994 24.7445 42.7033 25.3749 42.6854 26.01V26.2342H39.7002C39.8217 25.9286 39.9448 25.6428 40.033 25.3571C40.1212 25.0714 40.2177 24.6827 40.3658 24.1329L41.5922 18.7442C41.7353 18.2126 41.7968 17.8056 41.8584 17.4983C41.893 17.214 41.9069 16.9275 41.9 16.6412H44.4143L44.3128 17.6213C44.4497 17.3212 44.6697 17.0665 44.9468 16.887C45.2778 16.7058 45.653 16.6206 46.03 16.6412H48.4727L49.0635 17.7026C48.934 17.819 48.8179 17.9493 48.7174 18.0914C48.5742 18.2741 48.4727 18.3555 48.4112 18.3555C48.0434 18.3123 47.714 18.2724 47.4078 18.2508Z" fill="#4F4848"/>
    <path d="M34.1775 26.231C34.299 25.9668 34.4021 25.6811 34.5253 25.334C34.6696 24.9414 34.7853 24.5389 34.8714 24.1296L36.1194 18.7409C36.2225 18.1894 36.3041 17.7808 36.324 17.5366C36.3614 17.3211 36.3754 17.1023 36.3656 16.8838V16.6379H39.1944L37.4988 24.1296C37.3757 24.6612 37.2925 25.0682 37.2525 25.3539C37.2022 25.6434 37.1815 25.9373 37.191 26.231H34.1775Z" fill="#4F4848"/>
    <path d="M23.3465 13.2891C23.3455 13.5624 23.2634 13.8293 23.1105 14.056C22.9577 14.2827 22.7409 14.459 22.4876 14.5628C22.2344 14.6665 21.956 14.693 21.6877 14.6388C21.4194 14.5846 21.1732 14.4523 20.9802 14.2585C20.7872 14.0647 20.6561 13.8181 20.6035 13.5499C20.5508 13.2817 20.579 13.004 20.6845 12.7518C20.7899 12.4996 20.9679 12.2843 21.1959 12.1331C21.4239 11.9818 21.6916 11.9014 21.9654 11.9021C22.1473 11.9025 22.3274 11.9388 22.4953 12.0087C22.6632 12.0787 22.8157 12.181 22.944 12.3098C23.0722 12.4387 23.1738 12.5915 23.2429 12.7595C23.3119 12.9275 23.3472 13.1075 23.3465 13.2891Z" fill="#4F4848"/>
    <path d="M32.67 38.8953L32.5685 39.9484C32.3789 39.7941 32.1366 39.7196 31.8929 39.7408H31.006L30.164 43.1228C30.0426 43.6096 30.0576 43.8006 30.1041 43.9999H27.8361C28.0251 43.7389 28.1541 43.4394 28.2139 43.1228L29.0575 39.7408H28.1706C27.8962 39.7317 27.6252 39.8039 27.3918 39.9484L27.8145 38.8953H32.67Z" fill="#4F4848"/>
    <path d="M33.625 42.525L33.5368 42.8771C33.4769 43.1479 33.5701 43.2592 33.8696 43.2592H35.6833C35.99 43.2727 36.2956 43.2158 36.5769 43.0931L36.2108 43.9868H32.4602C31.6132 43.9868 31.4618 43.6363 31.6565 42.8539L32.0259 41.3705C32.2206 40.5898 32.5484 40.2393 33.3953 40.2393H36.2624C37.1094 40.2393 37.2608 40.5898 37.0661 41.3705L36.7749 42.525H33.625ZM35.1226 41.7924L35.249 41.2824C35.3039 41.0665 35.2607 40.9785 35.0527 40.9785H34.2789C34.0709 40.9785 33.9844 41.0665 33.9311 41.2824L33.8047 41.7924H35.1226Z" fill="#4F4848"/>
    <path d="M42.9767 39.9086C42.7467 39.7867 42.4879 39.7293 42.2279 39.7425H40.4141C40.1113 39.7425 40.0297 39.7824 39.9831 39.9667L39.9116 40.2541C39.865 40.4451 39.9282 40.4767 40.2311 40.4767H41.6139C42.4458 40.4767 42.8202 40.7641 42.6355 41.5049L42.326 42.7491C42.1247 43.5548 41.7253 44.0016 40.7902 44.0016H37.2742L37.3657 42.9651C37.5802 43.1005 37.831 43.1672 38.0845 43.1561H39.9698C40.2727 43.1561 40.3442 43.1245 40.3925 42.9319L40.4807 42.5814C40.5256 42.3986 40.4724 42.3588 40.1678 42.3588H38.5787C37.8033 42.3588 37.5637 42.103 37.7767 41.2508L38.0612 40.1096C38.2592 39.3123 38.7551 38.897 39.4423 38.897H43.0599L42.9767 39.9086Z" fill="#4F4848"/>
    <path d="M48.5993 39.9086C48.3693 39.7867 48.1105 39.7293 47.8505 39.7425H46.0384C45.7339 39.7425 45.6523 39.7824 45.6074 39.9667L45.5359 40.2541C45.4876 40.4451 45.5508 40.4767 45.8553 40.4767H47.2365C48.0684 40.4767 48.4429 40.7641 48.2581 41.5049L47.9486 42.7491C47.7473 43.5548 47.3479 44.0016 46.4144 44.0016H42.8984L42.99 42.9651C43.2044 43.1005 43.4553 43.1672 43.7088 43.1561H45.5941C45.8969 43.1561 45.9702 43.1245 46.0168 42.9319L46.1049 42.5814C46.1499 42.3986 46.0966 42.3588 45.7938 42.3588H44.203C43.4293 42.3588 43.188 42.103 43.401 41.2508L43.6855 40.1096C43.8852 39.3123 44.3794 38.897 45.0666 38.897H48.6841L48.5993 39.9086Z" fill="#4F4848"/>
  </g>
  <defs>
    <clipPath id="clip0_587_314">
      <rect width="58" height="44" fill="white" transform="translate(0.5)"/>
    </clipPath>
  </defs>
</svg>
