<svg width="298" height="199" viewBox="0 0 298 199" fill="none" xmlns="http://www.w3.org/2000/svg">
  <g clip-path="url(#clip0_236_1561)">
    <path d="M203.147 12.2896H90.0186C43.155 12.2896 5.16455 50.2145 5.16455 96.9972V97.0072C5.16455 143.79 43.155 181.715 90.0186 181.715H203.147C250.011 181.715 288.001 143.79 288.001 97.0072V96.9972C288.001 50.2145 250.011 12.2896 203.147 12.2896Z" fill="#FFEB00"/>
    <path d="M0 0V199H298V0H0ZM206.83 51.8457L209.893 61.5174H220.262L211.905 67.7621L215.188 77.6936L206.871 71.5788L198.563 77.6936L201.836 67.7621L193.399 61.5174H203.738L206.83 51.8457ZM179.296 37.1483L182.429 27.4765L185.432 37.1483H195.811L187.454 43.4029L190.706 53.3244L182.379 47.2097L174.152 53.3244L177.435 43.4029L168.997 37.1483H179.296ZM112.508 37.2282L115.631 27.5565L118.704 37.2282H129.113L120.755 43.4928L123.998 53.4144L115.671 47.2896L107.354 53.4144L110.637 43.4928L102.209 37.2282H112.508ZM88.7875 61.5974L91.9102 51.9556L94.9128 61.6274H105.302L96.9446 67.882L100.177 77.8035L91.8602 71.6888L83.5429 77.8035L86.8158 67.882L78.3784 61.6274L88.7875 61.5974ZM69.6308 94.4193H79.9598L83.0725 84.7576L86.1352 94.4193H96.5342L88.1769 100.684L91.4198 110.606L83.0725 104.501L74.7552 110.606L78.0681 100.684L69.6308 94.4193ZM91.9102 138.332L83.5929 144.457L86.8658 134.525L78.4284 128.26H88.7875L91.9102 118.599L94.9128 128.26H105.302L96.9446 134.525L100.177 144.457L91.9102 138.332ZM124.288 168.476L115.981 162.361L107.654 168.476L110.937 158.555L102.519 152.3H112.848L115.981 142.628L119.054 152.3H129.413L121.106 158.555L124.288 168.476ZM146.027 28.2958L149.13 18.2444L152.203 28.2958H162.572L154.215 34.7903L157.457 45.1015L149.13 38.7569L140.813 45.1015L144.126 34.7903L135.698 28.2958H146.027ZM157.868 177.169L149.54 171.064L141.223 177.169L144.496 167.267L136.059 161.002H146.408L149.54 151.321L152.593 161.002H162.982L154.625 167.267L157.868 177.169ZM190.756 168.386L182.429 162.261L174.152 168.396L177.435 158.475L168.997 152.22H179.346L182.479 142.548L185.482 152.22H195.861L187.504 158.475L190.756 168.386ZM215.148 144.407L206.83 138.292L198.523 144.407L201.796 134.495L193.359 128.22H203.698L206.83 118.539L209.893 128.22H220.262L211.905 134.495L215.148 144.407ZM224.316 110.566L215.988 104.441L207.671 110.566L210.944 100.634L202.507 94.3794H212.846L215.988 84.7076L218.991 94.3794H229.38L221.023 100.634L224.316 110.566Z" fill="#1D4291"/>
  </g>
  <defs>
    <clipPath id="clip0_236_1561">
      <rect width="298" height="199" fill="white"/>
    </clipPath>
  </defs>
</svg>
