<svg width="504" height="199" viewBox="0 0 504 199" fill="none" xmlns="http://www.w3.org/2000/svg">
  <g clip-path="url(#clip0_236_1560)">
    <path d="M55.85 198.14C53.1677 197.025 50.5708 195.715 48.08 194.22C38.24 187.87 34.29 178.7 35.2 167.27C36.06 156.38 40.35 146.64 45.61 137.27C52.5913 125.177 61.0091 113.972 70.68 103.9C75.1374 99.1508 79.837 94.6348 84.76 90.37C85.0778 90.1817 85.3111 89.8784 85.4116 89.5229C85.5121 89.1674 85.4721 88.7869 85.3 88.46C76.9 66.73 66.74 46 52.47 27.39C50.25 24.4967 47.9166 21.72 45.47 19.06C45.2042 18.7875 44.9538 18.5004 44.72 18.2C44.19 17.44 43.04 16.58 43.98 15.72C44.92 14.86 45.81 15.98 46.47 16.61C53.0895 23.0304 59.2011 29.9545 64.75 37.32C75.3515 51.3492 84.3445 66.5242 91.56 82.56C92.08 83.68 92.35 84.02 93.48 83.07C102.22 75.84 111.401 69.1605 120.97 63.07C121.459 62.8243 121.861 62.4348 122.122 61.9539C122.383 61.473 122.49 60.9238 122.43 60.38C122.409 59.2762 122.679 58.1864 123.213 57.2202C123.747 56.2541 124.527 55.4459 125.473 54.877C126.419 54.3081 127.498 53.9987 128.602 53.9799C129.706 53.9611 130.795 54.2336 131.76 54.77C132.129 55.0167 132.567 55.1399 133.011 55.122C133.455 55.104 133.882 54.9458 134.23 54.67C136.04 53.47 137.89 52.32 139.8 51.3C140.8 50.76 140.95 50.24 140.6 49.16C140.017 47.4227 140.009 45.5436 140.578 43.8016C141.148 42.0596 142.263 40.5476 143.76 39.49C145.21 38.4513 146.94 37.8729 148.723 37.8301C150.506 37.7873 152.261 38.2821 153.76 39.25C153.99 39.4 154.2 39.58 154.43 39.73C155.23 40.23 155.55 41.59 156.59 41.43C157.519 41.1366 158.392 40.6868 159.17 40.1L159.74 39.78C160.97 39.1 162.53 38.67 163.34 37.65C164.15 36.63 162.72 35.29 162.52 34.01C162.063 31.4783 162.488 28.8666 163.724 26.6102C164.959 24.3538 166.931 22.589 169.31 21.61C171.689 20.6253 174.338 20.5063 176.796 21.2738C179.253 22.0412 181.364 23.6465 182.76 25.81C183.36 26.71 183.76 26.91 184.76 26.37C187.13 25.07 189.56 23.84 191.99 22.66C192.84 22.25 193.04 21.95 192.64 20.97C191.714 18.8928 191.276 16.6307 191.361 14.3579C191.446 12.085 192.051 9.86195 193.13 7.85968C194.209 5.85741 195.733 4.12932 197.584 2.80834C199.436 1.48737 201.566 0.608725 203.81 0.240008C212 -1.29999 220 4.69001 221.12 13.12C221.588 17.0688 220.469 21.0419 218.009 24.1659C215.548 27.29 211.948 29.3093 208 29.78C205.509 30.0961 202.979 29.7653 200.653 28.8195C198.327 27.8736 196.283 26.3447 194.72 24.38C194.13 23.67 193.72 23.48 192.89 23.98C190.36 25.46 187.78 26.86 185.2 28.23C184.877 28.352 184.613 28.5931 184.462 28.9037C184.312 29.2143 184.286 29.5709 184.39 29.9C184.81 32.1551 184.521 34.485 183.562 36.5688C182.602 38.6525 181.021 40.3876 179.034 41.5349C177.048 42.6822 174.755 43.1853 172.47 42.9749C170.186 42.7645 168.023 41.8509 166.28 40.36C166.173 40.2286 166.042 40.1197 165.893 40.0395C165.744 39.9592 165.581 39.9093 165.412 39.8926C165.244 39.8758 165.074 39.8926 164.912 39.942C164.751 39.9913 164.6 40.0722 164.47 40.18C162.56 41.42 160.62 42.62 158.63 43.73C158.251 43.9139 157.946 44.2207 157.765 44.6003C157.583 44.9799 157.536 45.4099 157.63 45.82C157.839 47.4185 157.57 49.043 156.858 50.4894C156.147 51.9359 155.024 53.1398 153.63 53.95C152.262 54.8573 150.657 55.3413 149.015 55.3413C147.373 55.3413 145.768 54.8573 144.4 53.95C144.159 53.7482 143.854 53.6376 143.54 53.6376C143.226 53.6376 142.921 53.7482 142.68 53.95C140.5 55.48 138.29 56.95 136.08 58.44C135.788 58.5727 135.546 58.7963 135.391 59.0773C135.236 59.3584 135.176 59.682 135.22 60C135.287 61.0726 135.08 62.1446 134.617 63.1145C134.154 64.0843 133.451 64.9199 132.574 65.5419C131.698 66.1638 130.677 66.5517 129.609 66.6686C128.541 66.7856 127.46 66.6277 126.47 66.21C126.205 66.0894 125.909 66.0517 125.622 66.1016C125.335 66.1516 125.069 66.2869 124.86 66.49C114.953 73.7935 105.521 81.7195 96.62 90.22C96.1952 90.528 95.8978 90.9806 95.7836 91.4926C95.6694 92.0047 95.7463 92.5408 96 93C101.61 106.9 106.27 121.09 108.78 135.9C109.55 140.44 110.42 145.03 108.62 149.55C107.03 153.55 104.74 156.84 100.07 157.6C98.7759 157.789 97.455 157.634 96.24 157.15C94.63 156.55 94.24 154.84 95.73 154.05C99.79 151.82 100.32 148.23 99.99 144.16C99.1 133.16 96.25 122.5 93.2 111.93C91.9 107.46 90.42 103.04 88.92 98.3C85 102.4 81.54 106.53 77.86 111C79.86 111 81.42 111 83.02 111C85.32 111 86.61 112.2 86.55 114.13C86.49 116.06 85.2 117 83 117C80.29 117 77.56 117.09 74.85 117C74.2696 116.936 73.6832 117.043 73.1627 117.308C72.6423 117.573 72.2104 117.983 71.92 118.49C69.87 121.49 67.71 124.36 65.37 127.6H71.43C75.34 127.6 79.26 127.6 83.17 127.6C85.68 127.6 87.17 129.55 86.41 131.6C86.1858 132.251 85.7443 132.805 85.1598 133.17C84.5753 133.534 83.8833 133.686 83.2 133.6C76.46 133.6 69.72 133.6 62.99 133.6C62.5442 133.555 62.0955 133.651 61.7077 133.876C61.3199 134.1 61.0128 134.441 60.83 134.85C58.9481 138.031 57.2292 141.305 55.68 144.66C56.4 144.66 56.97 144.75 57.53 144.75H82.29C82.7762 144.72 83.2638 144.72 83.75 144.75C84.5536 144.775 85.3142 145.119 85.8647 145.705C86.4151 146.291 86.7102 147.071 86.685 147.875C86.6598 148.679 86.3164 149.439 85.7303 149.99C85.1443 150.54 84.3636 150.835 83.56 150.81C83.18 150.81 82.8 150.81 82.41 150.81C73.0766 150.81 63.7433 150.81 54.41 150.81C53.55 150.81 52.93 150.81 52.56 151.88C50.14 158.63 48.5 165.52 49.06 172.73C49.72 181.15 52.98 188.22 60.28 193.01C61.72 193.95 61.82 195.43 60.66 196.74C59.98 197.51 58.99 197.64 58.17 198.1L55.85 198.14Z" fill="#EF7D24"/>
    <path d="M503.22 84.4599C502.08 87.3699 501.76 90.4599 500.96 93.4599C500.431 95.3376 500.01 97.2441 499.7 99.1699C499.53 100.33 499.01 100.5 497.99 100.5C485.99 100.5 474.08 100.5 462.12 100.43C460.5 100.43 459.84 100.87 459.59 102.48C459.13 105.48 458.1 108.35 457.78 111.38C457.63 112.77 458.06 113.54 459.61 113.54C470.42 113.54 481.24 113.54 492.05 113.44C493.44 113.44 494.83 113.14 496.5 112.95C495.64 115.09 494.83 117.11 493.99 119.11C493.78 119.6 493.26 119.5 492.83 119.5C480.01 119.5 467.187 119.5 454.36 119.5C453.274 119.493 452.19 119.396 451.12 119.21C447.53 118.61 445.57 116.29 445.55 112.55C445.55 109.04 446.68 105.72 447.44 102.35C448.72 96.6966 450.03 91.0566 451.37 85.4299C451.624 84.4888 451.935 83.5638 452.3 82.6599C454.15 77.4799 457.86 74.6599 463.3 74.6599C474.11 74.5599 484.92 74.6599 495.73 74.6599C499.33 74.6599 501.95 76.0699 503.18 79.5999L503.22 84.4599ZM475 94.6699C479 94.6699 483 94.6699 487 94.6699C487.66 94.6699 488.29 94.7499 488.49 93.8399C489.3 90.1999 490.2 86.5699 490.97 82.9199C491.35 81.0799 490.87 80.4799 488.97 80.4699C481.81 80.4299 474.647 80.4299 467.48 80.4699C465.48 80.4699 464.48 81.3999 464.06 83.3099C463.31 86.5799 462.6 89.8599 461.81 93.1099C461.54 94.2499 461.65 94.7299 463.03 94.6999C467.05 94.6099 471 94.6699 475 94.6699Z" fill="#595451"/>
    <path d="M351 80.9999C351.75 78.9399 352.39 77.2199 353 75.4799C353.23 74.7799 353.66 74.6399 354.33 74.6399C366.997 74.6399 379.663 74.6399 392.33 74.6399C392.927 74.6397 393.522 74.6899 394.11 74.7899C398.92 75.5799 401.04 78.5899 399.98 83.6199C398.37 91.2999 396.55 98.9399 394.82 106.62C393.92 110.62 392.5 114.44 392.89 118.62C392.98 119.62 392.36 119.62 391.64 119.62C388.64 119.62 385.64 119.56 382.64 119.62C381.51 119.62 381.04 119.35 381.21 118.18C381.252 117.424 381.252 116.666 381.21 115.91C378.85 119.7 375.41 119.62 371.96 119.6C365.55 119.6 359.14 119.6 352.72 119.6C351.203 119.633 349.688 119.475 348.21 119.13C344.7 118.24 343.21 116.4 343.11 112.78C343.01 109.16 344 105.59 344.9 102.07C345.16 101.07 345.45 99.9799 345.74 98.9399C347.74 91.5899 351.34 88.8299 358.98 88.8099C367.08 88.8099 375.177 88.8099 383.27 88.8099C384.58 88.8099 386.07 88.9499 386.7 87.5199C387.59 85.5199 388.5 83.3799 387.7 81.1099C387.37 80.1899 386.37 80.3199 385.57 80.3099C381.66 80.3099 377.74 80.3099 373.83 80.3099C370.73 80.3099 367.63 80.2299 364.54 80.3099C360.16 80.3799 355.7 79.6799 351 80.9999ZM367.64 113.6H377.25C380.15 113.6 380.89 113.11 381.58 110.28C382.77 105.39 383.84 100.47 384.99 95.5699C385.15 94.9199 385.18 94.5699 384.33 94.5699C376.84 94.5699 369.33 94.5699 361.84 94.5699C361.101 94.5278 360.371 94.7488 359.78 95.1936C359.189 95.6385 358.774 96.2784 358.61 96.9999C357.251 101.732 356.189 106.545 355.43 111.41C355.19 113.14 355.63 113.53 357.43 113.54C360.83 113.58 364.25 113.56 367.68 113.56L367.64 113.6Z" fill="#595451"/>
    <path d="M296.74 113C295.92 115 295.16 116.86 294.41 118.71C294.349 118.971 294.196 119.201 293.979 119.359C293.763 119.516 293.497 119.591 293.23 119.57C280.03 119.52 266.83 119.46 253.63 119.47C246.63 119.47 244.87 115.05 246.09 109.23C247.74 101.34 249.68 93.4999 251.51 85.6499C251.7 84.8619 251.94 84.087 252.23 83.3299C254.5 77.1699 258.09 74.6499 264.66 74.6399C274.82 74.6399 284.98 74.6399 295.14 74.6399C301.91 74.6399 304.23 77.7599 303.14 84.2799C302.3 89.4599 300.85 94.5299 299.77 99.6699C299.51 100.9 298.71 100.53 298.05 100.53C286.2 100.53 274.36 100.58 262.51 100.53C260.82 100.53 260.01 100.86 259.74 102.67C259.32 105.39 258.5 108.05 258.03 110.77C257.6 113.24 258.03 113.63 260.52 113.63C271.12 113.63 281.71 113.63 292.31 113.53C293.795 113.437 295.274 113.26 296.74 113ZM275.13 94.6999H287.19C287.86 94.6999 288.51 94.8699 288.74 93.7999C289.49 90.2499 290.43 86.7499 291.2 83.2099C291.66 81.1499 291.13 80.5099 289 80.4999C281.993 80.4599 274.993 80.4599 268 80.4999C265.84 80.4999 264.83 81.3599 264.33 83.4999C263.55 86.8199 262.86 90.1599 262.05 93.4999C261.79 94.4999 262.05 94.8099 263.1 94.7999C267.1 94.6399 271.12 94.6699 275.13 94.6699V94.6999Z" fill="#595451"/>
    <path d="M51.0001 113L48.6201 118.85C48.5567 119.084 48.4101 119.288 48.2076 119.422C48.0052 119.557 47.7608 119.613 47.5201 119.58C34.2101 119.49 20.9001 119.71 7.59005 119.45C1.19005 119.33 -0.769946 115.65 0.240054 110.23C1.82669 101.388 3.86604 92.633 6.35005 83.9999C8.35005 77.2299 12.1701 74.6499 19.2401 74.6599C29.7801 74.6599 40.3201 74.6599 50.8601 74.7799C55.7201 74.8499 58.2301 77.7799 57.6501 82.6599C57.0001 88.4199 55.2101 93.9999 54.0001 99.7699C53.8201 100.64 53.2301 100.51 52.6501 100.51H41.7701C33.2401 100.51 24.7001 100.51 16.1701 100.51C15.9289 100.467 15.6812 100.476 15.4439 100.537C15.2067 100.599 14.9855 100.711 14.7955 100.865C14.6056 101.02 14.4513 101.214 14.3434 101.434C14.2354 101.654 14.1763 101.895 14.1701 102.14C13.5801 105.14 12.8601 108.14 12.2701 111.2C11.9301 112.95 12.4401 113.59 14.1601 113.59C25.0201 113.59 35.8901 113.59 46.7601 113.5C48.1811 113.407 49.5963 113.24 51.0001 113ZM29.4101 94.6699H41.4701C42.0901 94.6699 42.7501 94.8699 42.9701 93.8999C43.7601 90.2499 44.7101 86.6399 45.4201 82.9799C45.8301 80.8999 45.4201 80.4699 43.2101 80.4599C36.2101 80.4599 29.3001 80.4599 22.3401 80.4599C20.0301 80.4599 19.1401 81.2299 18.6001 83.4599C17.8301 86.7299 17.1801 90.0199 16.3201 93.2599C15.9701 94.5899 16.4301 94.6599 17.5101 94.6499C21.4801 94.6399 25.4401 94.6699 29.4101 94.6699Z" fill="#595451"/>
    <path d="M214.48 113C213.64 115.05 212.84 116.94 212.1 118.84C211.84 119.5 211.38 119.55 210.81 119.55C197.93 119.55 185.05 119.55 172.17 119.55C171.086 119.538 170.005 119.431 168.94 119.23C165.38 118.57 163.5 116.23 163.5 112.44C163.5 109.44 164.44 106.57 165.1 103.67C166.473 97.6699 167.87 91.6699 169.29 85.6699C169.563 84.6246 169.897 83.5962 170.29 82.5899C172.19 77.5099 175.88 74.7599 181.29 74.7099C192.11 74.6099 202.92 74.5799 213.73 74.7099C219.4 74.7899 221.93 77.7099 221.05 83.3299C220.17 88.9499 218.72 94.3299 217.54 99.8399C217.32 100.84 216.54 100.52 215.97 100.53H198.36C192.06 100.53 185.76 100.53 179.45 100.53C178.39 100.53 177.94 100.81 177.73 101.91C177.14 105.16 176.06 108.3 175.73 111.61C175.6 112.96 176.1 113.61 177.54 113.61C188.3 113.61 199.06 113.61 209.81 113.51C211.28 113.46 212.73 113.18 214.48 113ZM193.06 94.6699H205C205.62 94.6699 206.31 94.8499 206.52 93.8999C207.35 90.2099 208.27 86.5399 209.03 82.8299C209.39 81.0599 208.86 80.4799 206.94 80.4699C199.833 80.4699 192.723 80.4699 185.61 80.4699C184.782 80.394 183.957 80.6457 183.312 81.171C182.667 81.6963 182.253 82.4534 182.16 83.2799C181.36 86.6499 180.63 90.0299 179.83 93.3899C179.59 94.3899 179.83 94.7099 180.91 94.6999C184.93 94.6299 189 94.6699 193.06 94.6699Z" fill="#595451"/>
    <path d="M440.81 112.76C440.02 114.93 439.31 116.85 438.61 118.76C438.553 118.994 438.414 119.2 438.217 119.34C438.02 119.48 437.78 119.544 437.54 119.52C429.927 119.467 422.323 119.427 414.73 119.4C407.68 119.4 406.25 114.4 407.24 109.4C408.77 101.6 410.65 93.8599 412.4 86.0999C412.75 84.5199 413.12 82.9399 413.52 81.3599C413.75 80.4499 413.52 80.1299 412.52 80.1699C410.73 80.2399 408.94 80.1699 407.14 80.1699C406.37 80.1699 405.91 80.1699 406.25 79.1699C406.71 77.7399 406.55 75.8099 407.47 74.8999C408.39 73.9899 410.35 74.6299 411.85 74.6099C415.04 74.6099 415.04 74.6099 415.76 71.5099C416.13 69.8799 416.53 68.2499 416.83 66.5999C416.863 66.2242 417.037 65.875 417.317 65.6226C417.597 65.3702 417.963 65.2334 418.34 65.2399C421.78 64.7899 425.21 64.3299 428.64 63.7599C429.69 63.5899 429.72 63.9399 429.54 64.7599C428.92 67.5099 428.4 70.2799 427.7 72.9999C427.34 74.3599 427.7 74.6499 429.04 74.6299C434.36 74.5599 439.69 74.6299 445.04 74.6299C446.21 74.6299 446.48 74.8299 446.21 76.0399C445.26 80.2599 445.31 80.2699 440.96 80.2699C436.4 80.2699 431.84 80.2699 427.28 80.2699C426.34 80.2699 426 80.5299 425.79 81.4499C423.73 90.5799 421.61 99.6999 419.51 108.83V108.98C418.79 113.11 419.22 113.68 423.4 113.62C428.45 113.54 433.5 113.97 438.53 113.23C439.16 113.06 439.84 112.93 440.81 112.76Z" fill="#595451"/>
    <path d="M157.54 113.05C156.72 115.11 155.97 116.96 155.24 118.81C155.177 119.045 155.03 119.248 154.828 119.382C154.625 119.517 154.381 119.573 154.14 119.54C142.63 119.45 131.14 119.61 119.62 119.43C112.71 119.33 111.11 114.91 112.21 109.55C113.57 102.92 115.15 96.34 116.66 89.75C117.146 87.3674 117.754 85.011 118.48 82.69C119.122 80.3827 120.504 78.3501 122.414 76.9047C124.323 75.4594 126.655 74.6813 129.05 74.69C134.69 74.43 140.34 74.57 145.99 74.56C151.64 74.55 157.39 74.56 163.09 74.56C164.44 74.56 165.28 74.56 164.81 76.35C164.56 77.5742 164.436 78.8207 164.44 80.07C164.44 80.82 164.1 81.07 163.44 80.79C162.294 80.4416 161.092 80.3193 159.9 80.43H135.13C131.84 80.43 130.87 81.12 130.13 84.32C128.13 93.1934 126.163 102.067 124.23 110.94C123.82 112.84 124.35 113.54 126.23 113.54C135.237 113.54 144.237 113.513 153.23 113.46C154.6 113.46 155.94 113.21 157.54 113.05Z" fill="#595451"/>
    <path d="M228.44 119.53C226.44 119.53 224.44 119.53 222.44 119.53C221.76 119.53 221.44 119.46 221.75 118.62C226.11 107.3 227.68 95.2599 230.62 83.6199C232.26 77.1099 233.62 70.5199 235.01 63.9599C235.294 62.5239 235.438 61.0637 235.44 59.5999C235.44 58.5999 235.83 58.4499 236.7 58.4599C240.29 58.4599 243.87 58.5299 247.46 58.4599C248.68 58.4599 248.77 58.8799 248.54 59.8599C246.853 67.0799 245.187 74.3033 243.54 81.5299C240.98 92.6299 238.467 103.753 236 114.9C235.752 116.012 235.638 117.15 235.66 118.29C235.66 119.29 235.32 119.59 234.35 119.55C232.35 119.49 230.39 119.53 228.44 119.53Z" fill="#595451"/>
    <path d="M324.23 78.15C326.38 75.22 329.23 74.49 332.62 74.59C336.01 74.69 339.03 74.67 342.23 74.59C342.678 74.5156 343.138 74.6051 343.525 74.8419C343.913 75.0788 344.202 75.4473 344.34 75.88C344.547 76.3224 344.784 76.7501 345.05 77.16C346.49 79.75 346.32 80.43 343.9 82.26C343.715 82.4149 343.498 82.5252 343.264 82.5825C343.029 82.6397 342.785 82.6423 342.55 82.59C337.7 81.72 332.8 82.17 327.93 82.09C324.93 82.09 323.93 82.95 323.23 85.93C322.12 90.84 321.04 95.76 319.95 100.67C318.95 105.26 317.88 109.85 316.95 114.46C316.721 115.74 316.617 117.04 316.64 118.34C316.64 119.25 316.36 119.57 315.43 119.56C311.52 119.56 307.61 119.56 303.7 119.56C303.04 119.56 302.48 119.56 302.83 118.56C306.7 107.77 308.3 96.42 311.11 85.37C312.084 82.1536 312.648 78.8274 312.79 75.47C312.79 74.55 313.29 74.58 313.92 74.59C317.07 74.59 320.22 74.59 323.37 74.59C324.46 74.59 324.69 74.96 324.53 75.91C324.38 76.64 324.32 77.4 324.23 78.15Z" fill="#595451"/>
  </g>
  <defs>
    <clipPath id="clip0_236_1560">
      <rect width="503.22" height="198.14" fill="white"/>
    </clipPath>
  </defs>
</svg>
