<svg id="Ebene_1" data-name="Ebene 1" xmlns="http://www.w3.org/2000/svg" xmlns:xlink="http://www.w3.org/1999/xlink" viewBox="0 0 1155 1158.17"><defs><style>.cls-1,.cls-3{fill:none;}.cls-2{clip-path:url(#clip-path);}.cls-3{stroke:#b8870a;stroke-miterlimit:10;stroke-width:34.44px;}.cls-4{fill:#b8870a;}</style><clipPath id="clip-path" transform="translate(-72.5 -70.93)"><rect class="cls-1" x="72.5" y="70.93" width="1155" height="1158.14"/></clipPath></defs><g class="cls-2"><path class="cls-3" d="M757,339.38l139.11-65.05S812,83.94,579.4,88.22,232.34,288.58,239.46,441.45C245.76,576.66,348.14,786.52,577,786.62c45.9,0,73.11-11.93,73.11-11.93S393.81,721,399,458.07c4.28-217,181.85-222.2,181.85-222.2S720.41,239.2,757,339.38ZM675.6,98.46S873.29,53.08,1010,217.36l-113.95,57M681.17,260.62S503.85,275.33,534.09,477.73c11.6,77.67,88,125.37,123.36,139.58,93.81,37.74,180.08-3,215.84-40.7-43.68-23.42-109.2-54.44-109.2-54.44S739,569.64,707.4,591.49s-49.95,25.82-49.95,25.82m215.84-40.7,142.44,70.9S894,831.73,639.7,772.38" transform="translate(-72.5 -70.93)"/><path class="cls-4" d="M257.93,1225.38v-43.15H119.55v-71.42H247.7v-43.15H119.55v-63.42H257.93V961.09H72.5v264.29Zm239.93-.19q18.23-3.9,30-9.85a73.64,73.64,0,0,0,20.46-15.07,80.86,80.86,0,0,0,13-17.39,79.42,79.42,0,0,0,6.88-19.06,115.83,115.83,0,0,0,3-17.76q.46-7,.47-15.72,0-4.1-.09-10.42t-.1-16.64q0-10.32-.09-47.24t-.09-94.95h-46.5v167.58q0,14.13-2.42,22.31-4.85,16.93-22.13,26.23t-43.52,9.3q-36.64,0-54.69-17.3a38.5,38.5,0,0,1-10.88-17.2q-2.69-9.39-2.69-23.34V961.09H341.63v174.08a178.85,178.85,0,0,0,.93,20.28q8.93,73.65,114.2,73.65a196.49,196.49,0,0,0,41.1-3.91m368.08-214.91a66.87,66.87,0,0,0-9-19.53,55.9,55.9,0,0,0-13.77-13.48,76.42,76.42,0,0,0-16-8.74,95.65,95.65,0,0,0-17.67-4.75,162.72,162.72,0,0,0-16.93-2.23q-7-.45-15.34-.46H664.69v264.29h46.87V1122.9h44.83l74,102.48h61L811.63,1114.9a87.91,87.91,0,0,0,27.06-13,68.54,68.54,0,0,0,18-19,81.66,81.66,0,0,0,9.67-22,98.7,98.7,0,0,0-.46-50.59m-102.49-6.23q57.1,0,57.1,37a36.27,36.27,0,0,1-3.81,17.11,31.24,31.24,0,0,1-9.67,11.35,45.83,45.83,0,0,1-15,6.42,110.72,110.72,0,0,1-17.67,3.07q-8.56.73-19.72.74H711.56v-75.7Zm252.39-29.29a119.86,119.86,0,0,0-49.47,47.43q-17.85,31-17.85,71.7,0,32.73,11.43,58.77T990.83,1195a137.72,137.72,0,0,0,44,24.74,158.09,158.09,0,0,0,51.88,8.46q41.49,0,73.47-17.3a123,123,0,0,0,49.66-48.63q17.67-31.35,17.67-71.89,0-40-18-70.21a118.54,118.54,0,0,0-49.47-46q-31.44-15.81-71.8-15.81-40.73,0-72.35,16.46M1137.76,1015a89.35,89.35,0,0,1,21.39,17.66q9.21,10.43,14.78,26.14a102.81,102.81,0,0,1,5.58,34.68q0,23.25-8,41.48t-21.21,28.83a95.67,95.67,0,0,1-28.73,16,97.05,97.05,0,0,1-32.09,5.4q-39.79,0-66.39-26t-26.6-69a100,100,0,0,1,5.21-33,77.46,77.46,0,0,1,13.95-25.2,82.54,82.54,0,0,1,20.36-17.21,91.47,91.47,0,0,1,24.27-10.22,104.16,104.16,0,0,1,26-3.26,107.39,107.39,0,0,1,26.32,3.26,93.47,93.47,0,0,1,25.11,10.51" transform="translate(-72.5 -70.93)"/></g></svg>