<?xml version="1.0" encoding="UTF-8" standalone="no"?>
<!-- Created with Inkscape (http://www.inkscape.org/) -->

<svg
   width="153.93802mm"
   height="81.170677mm"
   viewBox="0 0 153.20498 80.784149"
   version="1.1"
   id="svg5"
   xml:space="preserve"
   inkscape:version="1.2 (dc2aeda, 2022-05-15)"
   sodipodi:docname="taxila.svg"
   xmlns:inkscape="http://www.inkscape.org/namespaces/inkscape"
   xmlns:sodipodi="http://sodipodi.sourceforge.net/DTD/sodipodi-0.dtd"
   xmlns="http://www.w3.org/2000/svg"
   xmlns:svg="http://www.w3.org/2000/svg"><sodipodi:namedview
     id="namedview7"
     pagecolor="#505050"
     bordercolor="#eeeeee"
     borderopacity="1"
     inkscape:showpageshadow="0"
     inkscape:pageopacity="0"
     inkscape:pagecheckerboard="0"
     inkscape:deskcolor="#505050"
     inkscape:document-units="mm"
     showgrid="false"
     inkscape:zoom="1.2938725"
     inkscape:cx="273.98372"
     inkscape:cy="187.42187"
     inkscape:window-width="1720"
     inkscape:window-height="1387"
     inkscape:window-x="1200"
     inkscape:window-y="25"
     inkscape:window-maximized="0"
     inkscape:current-layer="layer1" /><defs
     id="defs2"><clipPath
       clipPathUnits="userSpaceOnUse"
       id="clipPath308"><g
         inkscape:label="Clip"
         id="use310"><rect
           style="fill:#000000;stroke-width:2.67874"
           id="rect341"
           width="159.3447"
           height="84.733208"
           x="35.281403"
           y="17.351513" /></g></clipPath></defs><g
     inkscape:label="Laag 1"
     inkscape:groupmode="layer"
     id="layer1"
     transform="translate(-39.044093,-19.650183)"><path
       style="fill:#6c586d;fill-opacity:1;stroke-width:0.352314;stroke-dasharray:none"
       d="m 42.673628,99.836577 c -7.233209,-4.455356 -1.625569,-13.655843 0.453749,-19.577552 2.849604,-7.064013 4.477728,-14.474379 4.455548,-22.060509 0.295596,-5.812925 4.26156,-13.113669 -0.192614,-18.075679 -3.704455,-5.154679 0.75457,-11.893235 6.400701,-8.164376 3.430856,4.848794 -1.593655,10.320964 0.335201,15.664225 0.35282,5.958871 0.400293,12.009788 1.982682,17.808607 7.057413,8.010355 11.166632,18.74346 10.628515,29.441582 -1.161374,7.698025 -5.175719,-3.814811 -5.580191,-6.744798 -0.544137,-5.88005 -5.961713,-8.825948 -7.660871,-13.913715 1.732529,-6.804725 -5.444124,-1.269289 -4.952327,2.524908 -1.260124,4.198878 3.056242,8.21062 -2.972946,10.345846 -3.886677,3.140558 5.759826,12.806608 -1.870887,13.159434 z m 69.109002,-4.223293 c -5.38479,-4.665394 -6.28635,-12.568066 -3.93904,-18.997479 -0.15072,-8.06217 7.91223,-11.5096 10.10004,-18.048896 0.19579,-4.976895 -0.0875,-17.583816 -7.78508,-11.566053 -0.70451,-6.853915 12.55327,-2.11119 9.41544,-10.533245 2.6927,-5.338731 5.10252,-11.46429 7.58095,-16.387933 3.70933,1.667937 7.8567,4.226984 10.77449,6.717726 -1.83872,5.167484 -5.66334,-3.531501 -6.42438,2.401213 -2.2436,6.403799 -8.69735,11.446051 -8.24913,19.084476 0.58826,7.106331 3.87667,14.16815 1.75574,21.321939 0.87745,4.531143 9.16653,4.154629 7.47904,9.839995 8.19264,2.924047 5.26716,-10.611572 10.06414,-11.144663 3.27836,5.082458 4.42088,12.723713 -3.13553,14.702393 -6.02141,3.494412 -13.96897,1.437177 -17.60412,-4.450167 -0.93573,-4.344458 -2.77401,-13.066504 -8.07486,-6.181927 -6.08801,6.43981 -0.29284,13.168791 2.42467,19.313144 -0.0811,2.506415 -1.19467,5.400154 -4.38237,3.929477 z M 54.413578,91.738129 c -3.357448,-1.327011 -4.259197,-7.616163 0.418403,-4.734972 1.736606,1.207616 4.258969,8.146989 -0.418403,4.734972 z m 36.935831,-0.479471 c -7.790703,-3.633216 -5.90734,-13.101391 -1.788175,-18.714754 4.668524,-4.868984 0.913934,-14.272052 -5.852431,-9.322872 -2.27726,3.272498 -7.836343,11.04422 -11.00591,4.798078 1.801814,-5.835816 9.188501,-9.455952 14.257583,-10.728564 1.582559,-3.472386 3.198785,-4.537798 6.297085,-5.609785 2.75119,-4.297983 -1.14052,-10.281333 -5.45103,-8.787886 -3.583996,-4.74813 -11.161142,-1.82106 -6.616321,4.004095 -1.075321,5.643008 -11.01655,3.877537 -7.724628,-2.250677 -0.53629,-7.683958 7.065572,-10.090059 12.994593,-10.942266 4.595281,-2.236803 5.050953,3.14248 8.96823,3.040467 4.492178,5.687855 2.44727,13.604948 2.193942,20.267183 0.704212,5.490863 -1.365372,9.809257 -1.750037,14.804498 2.856587,5.217836 7.77021,12.874385 1.70891,17.829949 -1.736785,1.372374 -4.050581,1.939924 -6.231811,1.612534 z m 5.193171,-6.135112 c 2.635737,-7.611096 -6.760842,-8.394998 -5.451521,-0.474548 0.547351,1.771798 5.608413,2.880618 5.451521,0.474548 z m 82.14975,0.938357 c -4.99209,-1.510702 -5.36705,-7.516824 -11.51009,-5.733341 -7.37173,1.293577 -9.1754,-6.241888 -12.54849,-10.805724 -2.80404,-1.681295 -9.17073,-4.901764 -3.12572,-7.178187 5.99047,-1.724737 10.96404,1.810134 9.67403,8.106267 0.37266,6.690162 11.75899,7.568942 11.34133,-0.141576 1.46112,-7.577619 -1.13616,-15.660903 2.1884,-22.923349 -0.32115,-3.585892 2.02691,-11.546701 5.64254,-5.186033 3.33683,-0.134548 10.34079,1.019661 4.717,4.71056 -8.06061,3.20857 -4.17721,12.070649 -4.90518,18.17241 -2.5283,3.948611 -2.69214,12.195341 3.98451,8.639968 5.13769,2.449722 0.4091,12.540716 -4.47204,12.850384 -0.38318,-0.04197 -0.65541,-0.346239 -0.98629,-0.511379 z"
       id="path345"
       sodipodi:nodetypes="cssssssssscsccsssssssssssssssssssssssssssssssssssssssssssssssssss" /></g></svg>
