<?xml version="1.0" encoding="utf-8"?>
<!-- Generator: Adobe Illustrator 22.1.0, SVG Export Plug-In . SVG Version: 6.00 Build 0)  -->
<svg version="1.1" id="Layer_1" xmlns="http://www.w3.org/2000/svg" xmlns:xlink="http://www.w3.org/1999/xlink" x="0px" y="0px"
	 viewBox="0 0 283.5 92.9" style="enable-background:new 0 0 283.5 92.9;" xml:space="preserve">
<style type="text/css">
	.st0{fill:#00B0D5;}
	.st1{fill:#F8B20E;}
	.st2{fill:#8E489B;}
	.st3{fill:#E51875;}
	.st4{fill:#FFFFFF;}
</style>
<polygon class="st0" points="19.4,0 0,48.4 13.3,48.4 18.3,48.4 24.2,28.9 24.3,28.9 24.4,28.9 30.2,48.4 35,48.4 48.4,48.4 29.1,0 
	"/>
<path class="st1" d="M206.4,24.2c0-13.4-10.8-24.2-24.2-24.2h-10.8v14.3h10.8v0c5.5,0,10,4.5,10,10s-4.5,10-10,10v0h-10.8v14.2h10.8
	C195.6,48.4,206.4,37.5,206.4,24.2"/>
<path class="st2" d="M248.5,24.2c0-13.4,10.8-24.2,24.2-24.2h10.8v14.3h-10.8v0c-5.5,0-10,4.5-10,10c0,5.5,4.5,10,10,10v0h10.8v14.2
	h-10.8C259.3,48.4,248.5,37.5,248.5,24.2"/>
<path class="st3" d="M123.1,16.7c0-5-2-10-5.9-13.2C113,0.1,107.4,0,102.3,0H87v12.5h16.9c3.2,0,6,1.3,6,4.9c0,3.7-2.6,5.2-6.1,5.2
	H90.3l18.4,25.7h12.6h2.9h2.9l-13.6-17.1C119.6,29.2,123.1,23.3,123.1,16.7"/>
<path class="st4" d="M279.7,92.3c2.4,0,3.7-1.2,3.7-2.7c0-3.5-5.1-2.4-5.1-3.7c0-0.5,0.5-0.8,1.3-0.8c1,0,2,0.5,2.5,1l0.9-1.6
	c-0.9-0.7-2-1.2-3.4-1.2c-2.3,0-3.5,1.3-3.5,2.7c0,3.4,5.1,2.2,5.1,3.6c0,0.5-0.5,0.9-1.4,0.9c-1.1,0-2.3-0.6-3-1.2l-1,1.6
	C276.8,91.8,278.3,92.3,279.7,92.3 M274.7,92.1v-6c0-1.7-0.9-2.7-2.8-2.7c-1.4,0-2.4,0.7-3,1.3v-1.1h-2.3v8.6h2.3v-5.8
	c0.4-0.5,1.1-1,2-1c1,0,1.6,0.4,1.6,1.6v5.2H274.7z M260.8,90.3c-1.4,0-2.2-1.2-2.2-2.5c0-1.3,0.8-2.5,2.2-2.5
	c1.4,0,2.2,1.2,2.2,2.5C263,89.2,262.2,90.3,260.8,90.3 M260.8,92.3c2.8,0,4.5-2.1,4.5-4.5c0-2.4-1.7-4.5-4.5-4.5
	c-2.8,0-4.5,2.1-4.5,4.5C256.3,90.3,258,92.3,260.8,92.3 M255,92.1v-6.2c0-1.8-0.9-2.6-2.5-2.6c-1.3,0-2.4,0.8-2.9,1.5
	c-0.3-1-1.1-1.5-2.4-1.5c-1.3,0-2.4,0.8-2.8,1.3v-1.1h-2.3v8.6h2.3v-5.8c0.3-0.5,1-1,1.8-1c0.9,0,1.3,0.6,1.3,1.4v5.4h2.3v-5.8
	c0.3-0.5,1-1,1.8-1c0.9,0,1.3,0.6,1.3,1.4v5.4H255z M240.2,92.1v-6.2c0-1.8-0.9-2.6-2.5-2.6c-1.3,0-2.4,0.8-2.9,1.5
	c-0.3-1-1.1-1.5-2.4-1.5c-1.3,0-2.4,0.8-2.8,1.3v-1.1h-2.3v8.6h2.3v-5.8c0.3-0.5,1-1,1.8-1c0.9,0,1.3,0.6,1.3,1.4v5.4h2.3v-5.8
	c0.3-0.5,1-1,1.8-1c0.9,0,1.3,0.6,1.3,1.4v5.4H240.2z M221.4,90.3c-1.4,0-2.2-1.2-2.2-2.5c0-1.3,0.8-2.5,2.2-2.5
	c1.4,0,2.2,1.2,2.2,2.5C223.6,89.2,222.8,90.3,221.4,90.3 M221.4,92.3c2.8,0,4.5-2.1,4.5-4.5c0-2.4-1.7-4.5-4.5-4.5
	c-2.8,0-4.5,2.1-4.5,4.5C216.9,90.3,218.6,92.3,221.4,92.3 M211.3,92.3c2.6,0,4.1-1.4,4.9-2.9l-2.2-1c-0.5,1-1.6,1.7-2.8,1.7
	c-2.2,0-3.7-1.6-3.7-3.9c0-2.2,1.6-3.9,3.7-3.9c1.2,0,2.3,0.8,2.8,1.7l2.2-1.1c-0.8-1.5-2.3-2.9-4.9-2.9c-3.6,0-6.3,2.5-6.3,6.1
	C205,89.9,207.8,92.3,211.3,92.3 M193.8,90.8c-0.9,0-1.6-0.5-1.6-1.3s0.7-1.3,1.6-1.3c0.7,0,1.4,0.3,1.8,0.8v1.1
	C195.2,90.6,194.5,90.8,193.8,90.8 M197.8,92.1v-5.5c0-2.5-1.8-3.2-3.8-3.2c-1.3,0-2.7,0.4-3.7,1.3l0.9,1.6c0.7-0.7,1.6-1,2.5-1
	c1.1,0,1.9,0.6,1.9,1.4v1.1c-0.6-0.7-1.6-1-2.7-1c-1.4,0-3,0.7-3,2.8c0,1.9,1.6,2.8,3,2.8c1.1,0,2.1-0.4,2.7-1.1v0.9H197.8z
	 M187.6,92.3c0.9,0,1.5-0.2,1.9-0.5l-0.5-1.7c-0.1,0.1-0.4,0.3-0.8,0.3c-0.5,0-0.8-0.4-0.8-1v-3.8h1.7v-2h-1.7v-2.3h-2.3v2.3h-1.4v2
	h1.4V90C185.2,91.5,186,92.3,187.6,92.3 M178.7,90.8c-0.9,0-1.6-0.5-1.6-1.3s0.7-1.3,1.6-1.3c0.7,0,1.4,0.3,1.8,0.8v1.1
	C180.1,90.6,179.4,90.8,178.7,90.8 M182.8,92.1v-5.5c0-2.5-1.8-3.2-3.8-3.2c-1.3,0-2.7,0.4-3.7,1.3l0.9,1.6c0.7-0.7,1.6-1,2.5-1
	c1.1,0,1.9,0.6,1.9,1.4v1.1c-0.6-0.7-1.6-1-2.7-1c-1.4,0-3,0.7-3,2.8c0,1.9,1.6,2.8,3,2.8c1.1,0,2.1-0.4,2.7-1.1v0.9H182.8z
	 M167.6,89.9h-2.1v-7.4h2.2c2.4,0,3.7,1.6,3.7,3.7C171.3,88.2,170,89.9,167.6,89.9 M167.7,92.1c3.7,0,6.3-2.3,6.3-5.9
	c0-3.5-2.6-5.9-6.3-5.9H163v11.8H167.7z M155.2,92.1V86c0-1.7-0.9-2.7-2.8-2.7c-1.4,0-2.4,0.7-3,1.3v-4.4h-2.3v11.8h2.3v-5.8
	c0.4-0.5,1.1-1,2-1c1,0,1.6,0.4,1.6,1.6v5.2H155.2z M142.6,92.3c1.8,0,2.8-0.8,3.4-1.6l-1.5-1.4c-0.4,0.6-1,0.9-1.8,0.9
	c-1.4,0-2.3-1-2.3-2.5c0-1.5,1-2.5,2.3-2.5c0.8,0,1.4,0.3,1.8,0.9l1.5-1.4c-0.6-0.8-1.6-1.5-3.4-1.5c-2.6,0-4.5,1.9-4.5,4.5
	C138,90.5,139.9,92.3,142.6,92.3 M134.7,92.1v-5.7c0.4-0.5,1.4-1,2.1-1c0.3,0,0.5,0,0.6,0.1v-2.2c-1.1,0-2.1,0.6-2.7,1.4v-1.2h-2.3
	v8.6H134.7z M126.6,90.8c-0.9,0-1.6-0.5-1.6-1.3s0.7-1.3,1.6-1.3c0.7,0,1.4,0.3,1.8,0.8v1.1C128,90.6,127.3,90.8,126.6,90.8
	 M130.6,92.1v-5.5c0-2.5-1.8-3.2-3.8-3.2c-1.3,0-2.7,0.4-3.7,1.3l0.9,1.6c0.7-0.7,1.6-1,2.5-1c1.1,0,1.9,0.6,1.9,1.4v1.1
	c-0.6-0.7-1.6-1-2.7-1c-1.4,0-3,0.7-3,2.8c0,1.9,1.6,2.8,3,2.8c1.1,0,2.1-0.4,2.7-1.1v0.9H130.6z M119.7,87h-4.2
	c0.1-0.9,0.7-1.8,2.1-1.8C119.1,85.2,119.6,86.2,119.7,87 M117.7,92.3c1.3,0,2.7-0.4,3.5-1.2l-1-1.5c-0.5,0.5-1.5,0.8-2.3,0.8
	c-1.5,0-2.3-0.9-2.5-1.9h6.4V88c0-2.8-1.7-4.7-4.3-4.7c-2.6,0-4.4,2-4.4,4.5C113.2,90.6,115.1,92.3,117.7,92.3 M108.6,92.3
	c2.4,0,3.7-1.2,3.7-2.7c0-3.5-5.1-2.4-5.1-3.7c0-0.5,0.5-0.8,1.3-0.8c1,0,2,0.5,2.5,1l0.9-1.6c-0.9-0.7-2-1.2-3.4-1.2
	c-2.3,0-3.5,1.3-3.5,2.7c0,3.4,5.1,2.2,5.1,3.6c0,0.5-0.5,0.9-1.4,0.9c-1.1,0-2.3-0.6-3-1.2l-1,1.6
	C105.7,91.8,107.1,92.3,108.6,92.3 M102,87h-4.2c0.1-0.9,0.7-1.8,2.1-1.8C101.4,85.2,102,86.2,102,87 M100,92.3
	c1.3,0,2.7-0.4,3.5-1.2l-1-1.5c-0.5,0.5-1.5,0.8-2.3,0.8c-1.5,0-2.3-0.9-2.5-1.9h6.4V88c0-2.8-1.7-4.7-4.3-4.7c-2.6,0-4.4,2-4.4,4.5
	C95.5,90.6,97.4,92.3,100,92.3 M90.8,85.7h-2.7v-3.2h2.7c1,0,1.8,0.6,1.8,1.6C92.5,85.1,91.7,85.7,90.8,85.7 M95.2,92.1l-2.7-4.5
	c1.3-0.3,2.6-1.4,2.6-3.5c0-2.2-1.5-3.8-4-3.8h-5.5v11.8h2.5v-4.2h1.8l2.3,4.2H95.2z M77.8,92.1v-6c0-1.7-0.9-2.7-2.8-2.7
	c-1.4,0-2.4,0.7-3,1.3v-1.1h-2.3v8.6H72v-5.8c0.4-0.5,1.1-1,2-1c1,0,1.6,0.4,1.6,1.6v5.2H77.8z M63.8,90.8c-0.9,0-1.6-0.5-1.6-1.3
	s0.7-1.3,1.6-1.3c0.7,0,1.4,0.3,1.8,0.8v1.1C65.3,90.6,64.6,90.8,63.8,90.8 M67.9,92.1v-5.5c0-2.5-1.8-3.2-3.8-3.2
	c-1.3,0-2.7,0.4-3.7,1.3l0.9,1.6c0.7-0.7,1.6-1,2.5-1c1.1,0,1.9,0.6,1.9,1.4v1.1c-0.6-0.7-1.6-1-2.7-1c-1.4,0-3,0.7-3,2.8
	c0,1.9,1.6,2.8,3,2.8c1.1,0,2.1-0.4,2.7-1.1v0.9H67.9z M58.6,83.6h-2.3v8.6h2.3V83.6z M57.4,82.6c0.7,0,1.3-0.6,1.3-1.3
	c0-0.7-0.6-1.3-1.3-1.3c-0.7,0-1.3,0.6-1.3,1.3C56.1,82,56.7,82.6,57.4,82.6 M54.4,80.3h-2.3v11.8h2.3V80.3z M46.2,90.8
	c-0.9,0-1.6-0.5-1.6-1.3s0.7-1.3,1.6-1.3c0.7,0,1.4,0.3,1.8,0.8v1.1C47.6,90.6,46.9,90.8,46.2,90.8 M50.3,92.1v-5.5
	c0-2.5-1.8-3.2-3.8-3.2c-1.3,0-2.7,0.4-3.7,1.3l0.9,1.6c0.7-0.7,1.6-1,2.5-1c1.1,0,1.9,0.6,1.9,1.4v1.1c-0.6-0.7-1.6-1-2.7-1
	c-1.4,0-3,0.7-3,2.8c0,1.9,1.6,2.8,3,2.8c1.1,0,2.1-0.4,2.7-1.1v0.9H50.3z M39,92.1v-5.7c0.4-0.5,1.4-1,2.1-1c0.3,0,0.5,0,0.6,0.1
	v-2.2c-1.1,0-2.1,0.6-2.7,1.4v-1.2h-2.3v8.6H39z M33.8,92.3c0.9,0,1.5-0.2,1.9-0.5l-0.5-1.7c-0.1,0.1-0.4,0.3-0.8,0.3
	c-0.5,0-0.8-0.4-0.8-1v-3.8h1.7v-2h-1.7v-2.3h-2.3v2.3H30v2h1.4V90C31.4,91.5,32.2,92.3,33.8,92.3 M25.9,92.3c2.4,0,3.7-1.2,3.7-2.7
	c0-3.5-5.1-2.4-5.1-3.7c0-0.5,0.5-0.8,1.3-0.8c1,0,2,0.5,2.5,1l0.9-1.6c-0.9-0.7-2-1.2-3.4-1.2c-2.3,0-3.5,1.3-3.5,2.7
	c0,3.4,5.1,2.2,5.1,3.6c0,0.5-0.5,0.9-1.4,0.9c-1.1,0-2.3-0.6-3-1.2L22,91C22.9,91.8,24.4,92.3,25.9,92.3 M20.8,92.1v-8.6h-2.3v5.8
	c-0.4,0.5-1.1,1-2,1c-1,0-1.6-0.4-1.6-1.6v-5.2h-2.3v6.1c0,1.7,0.9,2.7,2.8,2.7c1.4,0,2.4-0.7,3-1.3v1.1H20.8z M8,87.9H4.3l1.8-5.1
	L8,87.9z M12.3,92.1L7.7,80.3H4.6L0,92.1h2.9l0.7-2h5.1l0.7,2H12.3z"/>
</svg>
