<svg id="Layer_1" data-name="Layer 1" xmlns="http://www.w3.org/2000/svg" viewBox="0 0 225.99 58"><defs><style>.cls-1{fill:#26a9e0;}.cls-2{fill:#2c3e50;}</style></defs><title>biosharing-is</title><path class="cls-1" d="M22.71,21.37c0,4.89-3.2,8.3-7.86,8.3A6.92,6.92,0,0,1,8.42,26v3.54H6V6.34H8.42V16.64A6.86,6.86,0,0,1,14.78,13C19.45,13,22.71,16.42,22.71,21.37Zm-2.48-.06a5.81,5.81,0,0,0-5.89-6.14,5.8,5.8,0,0,0-5.92,6.14,5.78,5.78,0,0,0,5.92,6.14A5.79,5.79,0,0,0,20.23,21.31Z"/><path class="cls-1" d="M29.79,8.34a1.6,1.6,0,1,1-3.2,0,1.6,1.6,0,1,1,3.2,0ZM27,29.58V13.07h2.41V29.58Z"/><path class="cls-1" d="M50.44,21.31a8,8,0,0,1-8.37,8.37,8,8,0,0,1-8.36-8.37A8,8,0,0,1,42.07,13,8,8,0,0,1,50.44,21.31Zm-14.29,0a5.93,5.93,0,1,0,11.84,0,5.93,5.93,0,1,0-11.84,0Z"/><path class="cls-2" d="M64.39,14.48l-.94,1.94A8.73,8.73,0,0,0,59,15.08c-1.85,0-3.26.66-3.26,2.19,0,3.67,9.21,1.79,9.21,7.71,0,3.26-2.88,4.7-6,4.7a9.31,9.31,0,0,1-6.33-2.32l.94-1.85A8.36,8.36,0,0,0,59,27.61c1.94,0,3.51-.72,3.54-2.35.09-4-9.15-1.94-9.12-7.8,0-3.16,2.73-4.48,5.74-4.48A9.54,9.54,0,0,1,64.39,14.48Z"/><path class="cls-2" d="M84.22,19.4V29.58H81.78V20.06c0-2.91-1.75-4.64-4.67-4.64-3.51,0-5.58,2.51-5.58,6v8.12H69.09V6.34h2.44V16.77C72.66,14.2,74.92,13,78,13,81.9,13,84.22,15.42,84.22,19.4Z"/><path class="cls-2" d="M99.92,27a7.12,7.12,0,0,1-6,2.67c-3.42,0-5.61-2.2-5.61-5s2.29-4.7,6.17-4.73h5.42V19c0-2.41-1.51-3.85-4.42-3.85A9.14,9.14,0,0,0,90.21,17l-1-1.79A11.07,11.07,0,0,1,95.91,13c4.07,0,6.33,2.16,6.36,5.7l0,10.9H99.92Zm0-3.16v-2H94.75c-2.76,0-4.2.85-4.2,2.66s1.47,3,3.79,3C97.13,27.58,99.26,26.17,99.89,23.88Z"/><path class="cls-2" d="M110.2,16.74A6.17,6.17,0,0,1,116.13,13v2.48a5.48,5.48,0,0,0-5.93,5.36v8.77h-2.45V13.07h2.45Z"/><path class="cls-2" d="M122.21,8.34a1.6,1.6,0,1,1-3.2,0,1.6,1.6,0,1,1,3.2,0Zm-2.79,21.24V13.07h2.42V29.58Z"/><path class="cls-2" d="M142.9,19.4V29.58h-2.45V20.06a4.28,4.28,0,0,0-4.67-4.64c-3.26,0-5.27,2.16-5.55,5.3v8.87h-2.44V13.07h2.44v3.64c1.16-2.51,3.39-3.7,6.39-3.73C140.57,13,142.9,15.42,142.9,19.4Z"/><path class="cls-2" d="M162.73,27.86c0,4.83-3.29,7.86-8.3,7.86a11.1,11.1,0,0,1-6.77-2.38l1.13-1.88a8.46,8.46,0,0,0,5.54,2.1c3.6,0,6-2.19,6-5.64V25.42a6.51,6.51,0,0,1-6.08,3.45c-4.45,0-7.52-3.29-7.52-8s3-7.86,7.46-7.89a6.61,6.61,0,0,1,6.14,3.45V13.07h2.44ZM160.29,21A5.66,5.66,0,1,0,149,21a5.66,5.66,0,1,0,11.31,0Z"/><path class="cls-1" d="M169.94,28.21a1.52,1.52,0,1,1-1.5-1.63A1.54,1.54,0,0,1,169.94,28.21Z"/><path class="cls-1" d="M189.59,21.31a8.37,8.37,0,0,1-16.73,0,8.37,8.37,0,0,1,16.73,0Zm-14.29,0a5.93,5.93,0,1,0,11.84,0,5.92,5.92,0,1,0-11.84,0Z"/><path class="cls-1" d="M196.33,16.74A6.17,6.17,0,0,1,202.25,13v2.48a5.48,5.48,0,0,0-5.92,5.36v8.77h-2.44V13.07h2.44Z"/><path class="cls-1" d="M219.92,27.86c0,4.83-3.29,7.86-8.3,7.86a11.1,11.1,0,0,1-6.77-2.38L206,31.46a8.47,8.47,0,0,0,5.55,2.1c3.6,0,6-2.19,6-5.64V25.42a6.5,6.5,0,0,1-6.08,3.45c-4.45,0-7.52-3.29-7.52-8s3-7.86,7.46-7.89a6.6,6.6,0,0,1,6.14,3.45V13.07h2.44ZM217.48,21a5.66,5.66,0,1,0-11.31,0,5.66,5.66,0,1,0,11.31,0Z"/><path class="cls-1" d="M37.84,48.31a19.64,19.64,0,0,1-12.12-4.37c-4.22-3.23-8.22-4.58-11.88-4a11,11,0,0,0-6.79,3.93.56.56,0,0,1-.78.13.55.55,0,0,1-.13-.77,11.84,11.84,0,0,1,7.51-4.38c4-.6,8.26.84,12.74,4.26,12.11,9.25,23.24.11,23.35,0a.56.56,0,1,1,.72.85,21.57,21.57,0,0,1-12.62,4.38Z"/><path class="cls-2" d="M15.43,48.34a12.15,12.15,0,0,1-1.78-.13,11.86,11.86,0,0,1-7.51-4.39.55.55,0,0,1,.9-.65,10.94,10.94,0,0,0,6.79,3.93c3.66.55,7.66-.81,11.88-4.05,12.81-9.78,24.62-.08,24.74,0a.56.56,0,0,1-.72.85c-.45-.38-11.26-9.22-23.35,0-3.82,2.92-7.5,4.4-11,4.4Z"/><path class="cls-2" d="M62.69,41.89l-.46.93a3.43,3.43,0,0,0-1.68-.52c-.49,0-.86.16-.86.58,0,1.07,3.1.49,3.09,2.61,0,1.2-1.06,1.73-2.24,1.73a3.61,3.61,0,0,1-2.35-.81l.45-.9a3.18,3.18,0,0,0,2,.72c.54,0,1-.19,1-.63,0-1.2-3.07-.53-3.06-2.63,0-1.18,1-1.69,2.15-1.69A3.69,3.69,0,0,1,62.69,41.89Z"/><path class="cls-2" d="M67.37,46.81a2.8,2.8,0,0,1-1.44.43,1.54,1.54,0,0,1-1.63-1.7v-3h-.82v-.94h.82V40h1.25v1.6h1.72v.94H65.55v2.8c0,.6.23.79.63.79a2,2,0,0,0,.88-.25Z"/><path class="cls-2" d="M72,46.47a2.37,2.37,0,0,1-1.93.77A1.85,1.85,0,0,1,68,45.43c0-1.06.8-1.74,2.2-1.75H72V43.5c0-.73-.47-1.17-1.39-1.17a3.08,3.08,0,0,0-1.72.59L68.39,42a4.27,4.27,0,0,1,2.51-.73c1.5,0,2.35.77,2.36,2.05v3.83H72Zm0-1.34v-.54H70.44c-.82,0-1.21.22-1.21.78s.43.87,1.13.87C71.26,46.24,72,45.77,72,45.13Z"/><path class="cls-2" d="M80.54,43.55v3.63H79.28V43.9a1.3,1.3,0,0,0-1.4-1.41,1.63,1.63,0,0,0-1.66,1.59v3.1H75V41.35h1.26v1.12a2.2,2.2,0,0,1,2.15-1.16A2,2,0,0,1,80.54,43.55Z"/><path class="cls-2" d="M87.8,47.18H86.54v-1a2.26,2.26,0,0,1-2.05,1.05,2.75,2.75,0,0,1-2.8-3,2.73,2.73,0,0,1,2.77-2.95,2.31,2.31,0,0,1,2.07,1.06V39H87.8Zm-1.26-2.9a1.78,1.78,0,0,0-1.79-1.92,1.8,1.8,0,0,0-1.8,1.92,1.8,1.8,0,1,0,3.59,0Z"/><path class="cls-2" d="M93.22,46.47a2.37,2.37,0,0,1-1.93.77,1.85,1.85,0,0,1-2.05-1.81c0-1.06.8-1.74,2.2-1.75h1.77V43.5c0-.73-.47-1.17-1.39-1.17a3.08,3.08,0,0,0-1.72.59L89.58,42a4.27,4.27,0,0,1,2.51-.73c1.5,0,2.35.77,2.36,2.05v3.83H93.22Zm0-1.34v-.54H91.63c-.82,0-1.21.22-1.21.78s.43.87,1.13.87C92.45,46.24,93.14,45.77,93.21,45.13Z"/><path class="cls-2" d="M97.41,42.51a2.12,2.12,0,0,1,2-1.21v1.21a1.77,1.77,0,0,0-2,1.62v3H96.15V41.35h1.26Z"/><path class="cls-2" d="M106,47.18h-1.26v-1a2.26,2.26,0,0,1-2.05,1.05,2.75,2.75,0,0,1-2.8-3,2.73,2.73,0,0,1,2.77-2.95,2.31,2.31,0,0,1,2.07,1.06V39H106Zm-1.26-2.9A1.78,1.78,0,0,0,103,42.37a1.8,1.8,0,0,0-1.8,1.92,1.8,1.8,0,1,0,3.59,0Z"/><path class="cls-2" d="M111.74,41.89l-.46.93a3.43,3.43,0,0,0-1.68-.52c-.49,0-.86.16-.86.58,0,1.07,3.1.49,3.09,2.61,0,1.2-1.06,1.73-2.24,1.73a3.61,3.61,0,0,1-2.35-.81l.45-.9a3.18,3.18,0,0,0,2,.72c.54,0,1-.19,1-.63,0-1.2-3.07-.53-3.06-2.63,0-1.18,1-1.69,2.15-1.69A3.69,3.69,0,0,1,111.74,41.89Z"/><path class="cls-2" d="M114,46.56a1,1,0,0,1-.2.58l-.63.94h-.65l.42-1a.69.69,0,1,1,1.05-.57Z"/><path class="cls-2" d="M123.85,47.18h-1.26v-1a2.26,2.26,0,0,1-2.05,1.05,2.75,2.75,0,0,1-2.8-3,2.73,2.73,0,0,1,2.77-2.95,2.31,2.31,0,0,1,2.07,1.06V39h1.26Zm-1.26-2.9a1.78,1.78,0,0,0-1.79-1.92,1.8,1.8,0,0,0-1.8,1.92,1.8,1.8,0,1,0,3.59,0Z"/><path class="cls-2" d="M129.27,46.47a2.37,2.37,0,0,1-1.93.77,1.85,1.85,0,0,1-2.05-1.81c0-1.06.8-1.74,2.2-1.75h1.77V43.5c0-.73-.47-1.17-1.39-1.17a3.08,3.08,0,0,0-1.72.59l-.52-.88a4.27,4.27,0,0,1,2.51-.73c1.5,0,2.35.77,2.36,2.05v3.83h-1.24Zm0-1.34v-.54h-1.58c-.82,0-1.21.22-1.21.78s.43.87,1.13.87C128.51,46.24,129.2,45.77,129.26,45.13Z"/><path class="cls-2" d="M135.51,46.81a2.8,2.8,0,0,1-1.44.43,1.54,1.54,0,0,1-1.63-1.7v-3h-.82v-.94h.82V40h1.25v1.6h1.72v.94h-1.72v2.8c0,.6.23.79.63.79a2,2,0,0,0,.88-.25Z"/><path class="cls-2" d="M140.17,46.47a2.37,2.37,0,0,1-1.93.77,1.85,1.85,0,0,1-2.05-1.81c0-1.06.8-1.74,2.2-1.75h1.77V43.5c0-.73-.47-1.17-1.39-1.17a3.08,3.08,0,0,0-1.72.59l-.52-.88A4.27,4.27,0,0,1,139,41.3c1.5,0,2.35.77,2.36,2.05v3.83h-1.24Zm0-1.34v-.54h-1.58c-.82,0-1.21.22-1.21.78s.43.87,1.13.87C139.4,46.24,140.09,45.77,140.16,45.13Z"/><path class="cls-2" d="M149.24,44.29a2.7,2.7,0,0,1-2.76,2.94,2.29,2.29,0,0,1-2.06-1.05v1h-1.26V39h1.26v3.31a2.28,2.28,0,0,1,2-1.05A2.74,2.74,0,0,1,149.24,44.29Zm-1.27,0a1.78,1.78,0,1,0-1.78,1.91A1.77,1.77,0,0,0,148,44.24Z"/><path class="cls-2" d="M154.06,46.47a2.37,2.37,0,0,1-1.93.77,1.85,1.85,0,0,1-2.05-1.81c0-1.06.8-1.74,2.2-1.75h1.77V43.5c0-.73-.47-1.17-1.39-1.17a3.08,3.08,0,0,0-1.72.59l-.52-.88a4.27,4.27,0,0,1,2.51-.73c1.5,0,2.35.77,2.36,2.05v3.83h-1.24Zm0-1.34v-.54h-1.58c-.82,0-1.21.22-1.21.78s.43.87,1.13.87C153.29,46.24,154,45.77,154.05,45.13Z"/><path class="cls-2" d="M160.78,41.89l-.46.93a3.43,3.43,0,0,0-1.68-.52c-.49,0-.86.16-.86.58,0,1.07,3.1.49,3.09,2.61,0,1.2-1.06,1.73-2.24,1.73a3.61,3.61,0,0,1-2.35-.81l.45-.9a3.18,3.18,0,0,0,2,.72c.54,0,1-.19,1-.63,0-1.2-3.07-.53-3.06-2.63,0-1.18,1-1.69,2.15-1.69A3.69,3.69,0,0,1,160.78,41.89Z"/><path class="cls-2" d="M167.28,44.75h-4.41a1.78,1.78,0,0,0,1.81,1.46,2.27,2.27,0,0,0,1.64-.68l.67.71a3.17,3.17,0,0,1-2.41,1,3,3,0,1,1,0-5.92C166.6,41.3,167.44,42.64,167.28,44.75Zm-1.1-.92a1.5,1.5,0,0,0-1.62-1.51,1.66,1.66,0,0,0-1.71,1.51Z"/><path class="cls-2" d="M172.39,41.89l-.46.93a3.43,3.43,0,0,0-1.68-.52c-.49,0-.86.16-.86.58,0,1.07,3.1.49,3.09,2.61,0,1.2-1.06,1.73-2.24,1.73a3.61,3.61,0,0,1-2.35-.81l.45-.9a3.18,3.18,0,0,0,2,.72c.54,0,1-.19,1-.63,0-1.2-3.07-.53-3.06-2.63,0-1.18,1-1.69,2.15-1.69A3.69,3.69,0,0,1,172.39,41.89Z"/><path class="cls-2" d="M174.69,46.56a1,1,0,0,1-.2.58l-.63.94h-.65l.42-1a.69.69,0,1,1,1.05-.57Z"/><path class="cls-2" d="M185.08,44.29a2.7,2.7,0,0,1-2.76,2.94,2.29,2.29,0,0,1-2.06-1.05v3.14H179v-8h1.26v1a2.28,2.28,0,0,1,2-1.05A2.74,2.74,0,0,1,185.08,44.29Zm-1.27,0A1.78,1.78,0,1,0,182,46.15,1.77,1.77,0,0,0,183.81,44.24Z"/><path class="cls-2" d="M191.94,44.26a3,3,0,1,1-3-3A2.86,2.86,0,0,1,191.94,44.26Zm-4.83,0a1.79,1.79,0,1,0,1.79-1.89A1.76,1.76,0,0,0,187.11,44.28Z"/><path class="cls-2" d="M193.31,47.18V39h1.26v8.14Z"/><path class="cls-2" d="M197.86,39.68a.74.74,0,1,1-.73-.77A.73.73,0,0,1,197.86,39.68Zm-1.36,7.5V41.35h1.25v5.83Z"/><path class="cls-2" d="M204.42,42.26l-.69.81a2.2,2.2,0,0,0-1.67-.66,1.87,1.87,0,0,0,0,3.73,2.18,2.18,0,0,0,1.72-.7l.7.7A3,3,0,0,1,202,47.23a3,3,0,0,1,0-5.92A3.08,3.08,0,0,1,204.42,42.26Z"/><path class="cls-2" d="M207.16,39.68a.74.74,0,1,1-.73-.77A.73.73,0,0,1,207.16,39.68Zm-1.36,7.5V41.35h1.25v5.83Z"/><path class="cls-2" d="M214.05,44.75h-4.41a1.78,1.78,0,0,0,1.81,1.46,2.27,2.27,0,0,0,1.64-.68l.67.71a3.17,3.17,0,0,1-2.41,1,3,3,0,1,1,0-5.92C213.37,41.3,214.2,42.64,214.05,44.75Zm-1.1-.92a1.5,1.5,0,0,0-1.62-1.51,1.66,1.66,0,0,0-1.71,1.51Z"/><path class="cls-2" d="M219.15,41.89l-.46.93A3.43,3.43,0,0,0,217,42.3c-.49,0-.86.16-.86.58,0,1.07,3.1.49,3.09,2.61,0,1.2-1.06,1.73-2.24,1.73a3.61,3.61,0,0,1-2.35-.81l.45-.9a3.18,3.18,0,0,0,2,.72c.54,0,1-.19,1-.63,0-1.2-3.07-.53-3.06-2.63,0-1.18,1-1.69,2.15-1.69A3.69,3.69,0,0,1,219.15,41.89Z"/></svg>