<?xml version="1.0" encoding="UTF-8" standalone="no"?>
<!-- Created with Inkscape (http://www.inkscape.org/) -->

<svg
   xmlns:dc="http://purl.org/dc/elements/1.1/"
   xmlns:cc="http://creativecommons.org/ns#"
   xmlns:rdf="http://www.w3.org/1999/02/22-rdf-syntax-ns#"
   xmlns:svg="http://www.w3.org/2000/svg"
   xmlns="http://www.w3.org/2000/svg"
   xmlns:sodipodi="http://sodipodi.sourceforge.net/DTD/sodipodi-0.dtd"
   xmlns:inkscape="http://www.inkscape.org/namespaces/inkscape"
   width="210"
   height="125"
   viewBox="0 0 55.562499 33.072918"
   version="1.1"
   id="svg8"
   sodipodi:docname="placeholder-collection.svg"
   inkscape:export-filename="/home/finn/workspace/tess/app/assets/images/placeholder-collection.png"
   inkscape:export-xdpi="96"
   inkscape:export-ydpi="96"
   inkscape:version="0.92.3 (2405546, 2018-03-11)">
  <defs
     id="defs2">
    <inkscape:path-effect
       effect="simplify"
       id="path-effect1123"
       is_visible="true"
       steps="1"
       threshold="0.002"
       smooth_angles="0"
       helper_size="0"
       simplify_individual_paths="true"
       simplify_just_coalesce="true" />
  </defs>
  <sodipodi:namedview
     id="base"
     pagecolor="#ffffff"
     bordercolor="#666666"
     borderopacity="1.0"
     inkscape:pageopacity="0.0"
     inkscape:pageshadow="2"
     inkscape:zoom="3.959798"
     inkscape:cx="137.39665"
     inkscape:cy="27.860752"
     inkscape:document-units="mm"
     inkscape:current-layer="layer2"
     showgrid="false"
     units="px"
     inkscape:window-width="2560"
     inkscape:window-height="1247"
     inkscape:window-x="0"
     inkscape:window-y="0"
     inkscape:window-maximized="1"
     inkscape:snap-smooth-nodes="true"
     inkscape:snap-midpoints="true"
     inkscape:snap-object-midpoints="true"
     inkscape:snap-bbox="true"
     inkscape:bbox-paths="true"
     inkscape:bbox-nodes="true"
     inkscape:snap-bbox-edge-midpoints="true"
     inkscape:snap-bbox-midpoints="true"
     inkscape:object-paths="true"
     inkscape:snap-intersection-paths="true"
     inkscape:snap-center="true" />
  <metadata
     id="metadata5">
    <rdf:RDF>
      <cc:Work
         rdf:about="">
        <dc:format>image/svg+xml</dc:format>
        <dc:type
           rdf:resource="http://purl.org/dc/dcmitype/StillImage" />
        <dc:title />
      </cc:Work>
    </rdf:RDF>
  </metadata>
  <g
     inkscape:groupmode="layer"
     id="layer2"
     inkscape:label="Layer 1"
     style="display:inline;opacity:1">
    <path
       style="opacity:1;fill:none;fill-opacity:1;stroke:#7c7c7c;stroke-width:3.00610995;stroke-linecap:butt;stroke-linejoin:round;stroke-miterlimit:4;stroke-dasharray:none;stroke-dashoffset:0;stroke-opacity:1;paint-order:normal"
       d="m 14.697145,14.898712 c -1.727407,0.01775 -2.508129,1.714125 -3.598804,2.741186 -2.4932517,2.779183 -5.0124557,5.537336 -7.4894621,8.329682 -1.2704932,1.563669 0.2145536,4.082992 2.2387894,3.83679 8.1739017,-0.008 16.3486247,0.0161 24.5220107,-0.0121 1.600556,-0.190623 2.308388,-1.771302 3.346829,-2.7687 2.429146,-2.773107 4.884091,-5.525783 7.297136,-8.311639 1.246004,-1.569194 -0.244305,-4.060817 -2.257132,-3.815244 -8.019789,0 -16.039578,0 -24.059367,0 z m 18.482946,0 c -0.05357,-1.824948 0.113756,-3.671261 -0.09652,-5.481272 -0.387627,-1.4201523 -1.962002,-1.564218 -3.206768,-1.4716505 -3.533045,0 -7.06609,0 -10.599135,0 C 19.203867,6.6134411 19.447477,5.2378888 19.108802,3.9398089 18.487807,2.3851036 16.70084,2.6763128 15.346833,2.6606599 11.664694,2.6882982 7.975374,2.6049868 4.2977849,2.7030245 2.8400062,2.9394031 2.4302239,4.4464968 2.5789644,5.6712805 c 0.00734,7.4181155 -0.014676,14.8369415 0.010932,22.2546095 0.1028095,1.452827 1.6733357,2.065337 2.9785101,1.880476 8.4862765,0 16.9725525,0 25.4588275,0"
       id="rect1118"
       inkscape:connector-curvature="0" />
  </g>
</svg>
