<?xml version="1.0" encoding="UTF-8" standalone="no"?>
<!-- Created with Inkscape (http://www.inkscape.org/) -->

<svg
   width="30.209009mm"
   height="7.9064922mm"
   viewBox="0 0 30.209009 7.9064922"
   version="1.1"
   id="svg5"
   inkscape:version="1.2 (dc2aeda, 2022-05-15)"
   sodipodi:docname="taxila_text.svg"
   xmlns:inkscape="http://www.inkscape.org/namespaces/inkscape"
   xmlns:sodipodi="http://sodipodi.sourceforge.net/DTD/sodipodi-0.dtd"
   xmlns="http://www.w3.org/2000/svg"
   xmlns:svg="http://www.w3.org/2000/svg">
  <sodipodi:namedview
     id="namedview7"
     pagecolor="#505050"
     bordercolor="#eeeeee"
     borderopacity="1"
     inkscape:showpageshadow="0"
     inkscape:pageopacity="0"
     inkscape:pagecheckerboard="0"
     inkscape:deskcolor="#505050"
     inkscape:document-units="mm"
     showgrid="false"
     showguides="true"
     inkscape:zoom="8"
     inkscape:cx="84.375"
     inkscape:cy="10.5"
     inkscape:window-width="1200"
     inkscape:window-height="920"
     inkscape:window-x="0"
     inkscape:window-y="972"
     inkscape:window-maximized="0"
     inkscape:current-layer="layer1">
    <sodipodi:guide
       position="19.838583,0.16019758"
       orientation="0,-1"
       id="guide1076"
       inkscape:locked="false" />
    <sodipodi:guide
       position="19.900593,7.9064923"
       orientation="0,-1"
       id="guide1140"
       inkscape:locked="false" />
  </sodipodi:namedview>
  <defs
     id="defs2" />
  <g
     inkscape:label="Laag 1"
     inkscape:groupmode="layer"
     id="layer1"
     transform="translate(-36.438171,-38.813586)">
    <path
       d="m 42.959737,39.774768 h -2.749186 v 6.785115 h -1.023193 v -6.785115 h -2.749187 v -0.909505 h 6.521566 z"
       style="font-size:10.5833px;font-family:Kailasa;-inkscape-font-specification:Kailasa;fill:#6c586d;stroke-width:0.354"
       id="path901" />
    <path
       d="m 47.161031,46.559883 h -0.96635 v -0.614949 q -0.129191,0.08785 -0.351399,0.248046 -0.217041,0.15503 -0.423747,0.248047 -0.242879,0.118856 -0.558106,0.196371 -0.315226,0.08268 -0.738973,0.08268 -0.780314,0 -1.322916,-0.516764 -0.542603,-0.516765 -0.542603,-1.317749 0,-0.656291 0.279053,-1.059367 0.28422,-0.408244 0.806152,-0.640788 0.5271,-0.232544 1.266073,-0.315226 0.738973,-0.08268 1.586466,-0.124023 v -0.149862 q 0,-0.330729 -0.118855,-0.54777 -0.113689,-0.217041 -0.33073,-0.341065 -0.206705,-0.118856 -0.496093,-0.160197 -0.289388,-0.04134 -0.604615,-0.04134 -0.382405,0 -0.852661,0.103353 -0.470255,0.09818 -0.971517,0.289388 h -0.05168 v -0.98702 q 0.28422,-0.07751 0.821655,-0.170532 0.537435,-0.09302 1.059367,-0.09302 0.609782,0 1.059367,0.103353 0.454752,0.09819 0.785482,0.341065 0.325561,0.237711 0.496093,0.614949 0.170533,0.377238 0.170533,0.935344 z m -0.96635,-1.421102 v -1.607137 q -0.444417,0.02584 -1.049031,0.07751 -0.599447,0.05168 -0.950847,0.149862 -0.418579,0.118855 -0.676961,0.37207 -0.258382,0.248047 -0.258382,0.687296 0,0.496094 0.299723,0.749309 0.299724,0.248047 0.914673,0.248047 0.511597,0 0.935344,-0.196371 0.423746,-0.201538 0.785481,-0.480591 z"
       style="font-size:10.5833px;font-family:Kailasa;-inkscape-font-specification:Kailasa;fill:#6c586d;stroke-width:0.354"
       id="path903" />
    <path
       d="m 54.028828,46.559883 h -1.224731 l -1.638143,-2.216919 -1.648478,2.216919 h -1.131714 l 2.253093,-2.878377 -2.232422,-2.89388 h 1.224731 l 1.627808,2.180745 1.632975,-2.180745 h 1.136881 l -2.268595,2.842203 z"
       style="font-size:10.5833px;font-family:Kailasa;-inkscape-font-specification:Kailasa;fill:#6c586d;stroke-width:0.354"
       id="path905" />
    <path
       d="m 56.338764,39.821277 h -1.09554 v -1.007691 h 1.09554 z m -0.06201,6.738606 h -0.971516 v -5.772257 h 0.971516 z"
       style="font-size:10.5833px;font-family:Kailasa;-inkscape-font-specification:Kailasa;fill:#6c586d;stroke-width:0.354"
       id="path907" />
    <path
       d="m 59.919133,43.275366 c 0.107397,0.2266 1.522795,3.284517 1.522795,3.284517 h -0.815954 c 0,0 -1.369141,-2.258465 -1.357845,-3.232228 -0.01356,0.966985 -1.185494,3.232228 -1.185494,3.232228 h -0.875537 c 0,0 1.325208,-2.838173 1.442304,-3.351346 0.160939,-0.492046 0.124923,-4.394951 0.124923,-4.394951 h 0.996221 c 0.01024,1.602497 -0.03346,4.087347 0.148587,4.46178 z"
       style="font-size:10.5833px;font-family:Kailasa;-inkscape-font-specification:Kailasa;fill:#6c586d;stroke-width:0.354"
       id="path909"
       sodipodi:nodetypes="cccccccccc" />
    <path
       d="m 66.64718,46.559883 h -0.966349 v -0.614949 q -0.129191,0.08785 -0.3514,0.248046 -0.217041,0.15503 -0.423747,0.248047 -0.242879,0.118856 -0.558105,0.196371 -0.315226,0.08268 -0.738973,0.08268 -0.780314,0 -1.322917,-0.516764 -0.542602,-0.516765 -0.542602,-1.317749 0,-0.656291 0.279052,-1.059367 0.284221,-0.408244 0.806153,-0.640788 0.527099,-0.232544 1.266072,-0.315226 0.738973,-0.08268 1.586467,-0.124023 v -0.149862 q 0,-0.330729 -0.118856,-0.54777 -0.113688,-0.217041 -0.330729,-0.341065 -0.206706,-0.118856 -0.496094,-0.160197 -0.289388,-0.04134 -0.604614,-0.04134 -0.382406,0 -0.852661,0.103353 -0.470256,0.09818 -0.971517,0.289388 h -0.05168 v -0.98702 q 0.284221,-0.07751 0.821656,-0.170532 0.537435,-0.09302 1.059367,-0.09302 0.609781,0 1.059366,0.103353 0.454753,0.09819 0.785482,0.341065 0.325562,0.237711 0.496094,0.614949 0.170532,0.377238 0.170532,0.935344 z m -0.966349,-1.421102 v -1.607137 q -0.444418,0.02584 -1.049032,0.07751 -0.599446,0.05168 -0.950846,0.149862 -0.418579,0.118855 -0.676961,0.37207 -0.258382,0.248047 -0.258382,0.687296 0,0.496094 0.299723,0.749309 0.299723,0.248047 0.914673,0.248047 0.511596,0 0.935343,-0.196371 0.423747,-0.201538 0.785482,-0.480591 z"
       style="font-size:10.5833px;font-family:Kailasa;-inkscape-font-specification:Kailasa;fill:#6c586d;stroke-width:0.354"
       id="path911" />
  </g>
</svg>
