<?xml version="1.0" encoding="UTF-8"?>
<svg width="344px" height="230px" viewBox="0 0 344 230" version="1.1" xmlns="http://www.w3.org/2000/svg" xmlns:xlink="http://www.w3.org/1999/xlink" xmlns:sketch="http://www.bohemiancoding.com/sketch/ns">
    <!-- Generator: Sketch 3.3.2 (12043) - http://www.bohemiancoding.com/sketch -->
    <title>Untitled 2</title>
    <desc>Created with Sketch.</desc>
    <defs></defs>
    <g id="Page-1" stroke="none" stroke-width="1" fill="none" fill-rule="evenodd" sketch:type="MSPage">
        <g id="Nodes" sketch:type="MSLayerGroup">
            <path d="M90.8,137 C91.43,135.62 91.96,134.14 92.6,132.34 C93.3460829,130.30154 93.947573,128.213033 94.4,126.09 L100.86,98.15 C101.39,95.29 101.81,93.15 101.92,91.9 C102.108666,90.7804885 102.179053,89.6442374 102.13,88.51 L102.13,87.24 L116.74,87.24 L108,126 C107.36,128.76 107,130.87 106.73,132.36 C106.467465,133.861665 106.360233,135.38637 106.41,136.91 L90.8,137 Z" id="Shape" fill="#4D4848" sketch:type="MSShapeGroup"></path>
            <path d="M284.2,0.9 C278.209403,0.902197621 272.662157,4.05725739 269.598136,9.20497788 C266.534114,14.3526984 266.405656,20.7331246 269.26,26 C267.57,26.84 263.63,28.82 258.11,31.69 C256.072757,27.5405502 251.932895,24.834146 247.314704,24.6326533 C242.696512,24.4311606 238.336669,26.766721 235.945772,30.7229701 C233.554875,34.6792193 233.514313,39.625069 235.84,43.62 C233,45.18 230.05,46.83 227.03,48.54 C224.268576,43.8013968 218.188603,42.1985763 213.45,44.96 C208.711397,47.7214237 207.108576,53.8013968 209.87,58.54 C206.743333,60.4 203.6,62.3066667 200.44,64.26 C198.282315,62.4339599 195.260939,62.0262927 192.696457,63.2151822 C190.131975,64.4040717 188.490699,66.9733369 188.49,69.8 C188.490427,70.4283468 188.574499,71.0538406 188.74,71.66 C176.640086,79.3698233 165.037171,87.833204 154,97 C142.52,71.32 125.58,43.13 102,20.18 L101.94,20.12 C99.18,17.4 96.89,18.6 100.06,21.98 L100.19,22.11 C120.19,43.64 135.9,74.79 146.61,103.2 C105.99,137.89 61.2,205.11 110.29,226.2 C117.44,229.28 120.69,223.4 117.62,221.59 C117.07,221.26 95.2,209.44 109.1,173.14 L144.1,173.14 C145.356883,173.208239 146.548623,172.576494 147.197594,171.497955 C147.846566,170.419416 147.846566,169.070584 147.197594,167.992045 C146.548623,166.913506 145.356883,166.281761 144.1,166.35 L112,166.35 C114.105786,161.943333 116.44236,157.650712 119,153.49 L144.16,153.49 C145.963492,153.392084 147.375677,151.901148 147.375677,150.095 C147.375677,148.288852 145.963492,146.797916 144.16,146.7 L123.28,146.7 C125.88,142.81 128.79,138.75 132.06,134.49 L144.11,134.49 C145.913492,134.392084 147.325677,132.901148 147.325677,131.095 C147.325677,129.288852 145.913492,127.797916 144.11,127.7 L137.45,127.7 C141.25,123.06 145.45,118.21 150.08,113.13 L150.2,113 C159.43,139.72 163.88,162.5 162.91,170.09 C162.677502,172.811916 161.060362,175.222513 158.63,176.47 C156.91,177.28 156.21,179.65 158.9,180.47 C167.5,183 172.79,174.47 173.74,167.62 C174.69,160.77 170,135.43 157.59,105.28 C168.391604,94.7347133 179.934455,84.9764261 192.13,76.08 C194.378515,77.3686742 197.143466,77.3610245 199.384816,76.0599281 C201.626166,74.7588317 203.003982,72.3616182 203,69.77 C202.999498,69.2932464 202.95261,68.8176726 202.86,68.35 C206.1,66.09 209.33,63.89 212.52,61.77 C215.843988,64.439059 220.501553,64.6860147 224.08915,62.3834252 C227.676748,60.0808357 229.392101,55.7436182 228.35,51.61 C231.53,49.61 234.62,47.75 237.59,45.97 C241.618128,50.1851682 248.005479,51.101254 253.055956,48.1881561 C258.106433,45.2750581 260.51173,39.2874024 258.88,33.69 C264.28,30.69 268.22,28.56 270.14,27.46 C274.690838,34.1516616 283.327922,36.7077833 290.787581,33.5705962 C298.24724,30.4334091 302.46141,22.4726458 300.861861,14.5398087 C299.262312,6.6069715 292.292494,0.901307079 284.2,0.9 L284.2,0.9 Z" id="Shape" fill="#F47D20" sketch:type="MSShapeGroup"></path>
            <path d="M54.36,137 L11.06,137 C6.72,137 3.76,136.05 2.17,134 C1.25649754,132.586428 0.812085146,130.920757 0.9,129.24 C0.926634273,127.416641 1.17512859,125.603304 1.64,123.84 L7.04,100.34 C8.21,95.58 9.9,92.19 12.23,90.17 C14.56,88.15 17.95,87.17 22.39,87.17 L54.39,87.17 C58.95,87.17 61.91,88.17 63.39,90.17 C64.4049907,91.5859729 64.8931392,93.3121789 64.77,95.05 C64.7565992,96.8381706 64.5077939,98.6167918 64.03,100.34 L60.53,115.91 L17,115.91 L14.66,126 C14.4846127,126.802548 14.3808716,127.619091 14.35,128.44 C14.35,128.97 14.35,129.39 14.56,129.6 C14.87,130.24 15.83,130.6 17.31,130.6 L49.07,130.6 C51.8454671,130.616548 54.6146834,130.334932 57.33,129.76 L54.36,137 Z M51,98.1 C51.2650462,97.2788124 51.406592,96.4227971 51.42,95.56 C51.4083575,95.1975693 51.337418,94.839494 51.21,94.5 C50.78,93.86 49.73,93.55 48.21,93.55 L25.78,93.55 C24.6364211,93.4372588 23.49434,93.7784465 22.6,94.5 C21.6843436,95.4794817 21.1580256,96.7597146 21.12,98.1 L18.47,109.53 L48.33,109.53 L51,98.1 Z" id="Shape" fill="#4D4848" sketch:type="MSShapeGroup"></path>
            <path d="M65.16,137 C65.83,135.46 66.39,133.8 67.07,131.78 C67.8604884,129.49219 68.4952715,127.153516 68.97,124.78 L80.09,73.28 C80.77,70.07 81.21,67.7 81.44,66.28 C81.67,64.86 81.67,63.2 81.67,61.06 L97.16,61.06 L83.35,124.79 C82.6833333,127.876667 82.2333333,130.253333 82,131.92 C81.7297087,133.605822 81.6192183,135.313402 81.67,137.02 L65.16,137 Z" id="Shape" fill="#4D4848" sketch:type="MSShapeGroup"></path>
            <path d="M243.77,95.56 C242.18,95.45 240.6,95.34 238.77,95.34 L231.67,95.34 C230.54906,95.2715188 229.436303,95.5698923 228.5,96.19 C227.546165,97.0481785 226.9116,98.2044973 226.7,99.47 L220.8,126 C219.913901,129.17472 219.416924,132.445365 219.32,135.74 L219.32,137 L203.87,137 C204.5,135.41 205.13,133.92 205.56,132.45 C205.99,130.98 206.51,128.95 207.25,126.09 L213.6,98.15 C214.34,95.39 214.66,93.28 214.98,91.69 C215.154669,90.2134598 215.224844,88.7264274 215.19,87.24 L228.19,87.24 L227.66,92.32 C228.374283,90.764418 229.515086,89.443305 230.95,88.51 C232.66259,87.5750553 234.601635,87.1353077 236.55,87.24 L249.26,87.24 L252.33,92.74 C251.655828,93.3359782 251.051916,94.0069915 250.53,94.74 C249.79,95.69 249.26,96.11 248.94,96.11 C247.06,95.88 245.36,95.66 243.77,95.56 L243.77,95.56 Z" id="Shape" fill="#4D4848" sketch:type="MSShapeGroup"></path>
            <path d="M175.27,137 C175.9,135.62 176.43,134.14 177.07,132.34 C177.816083,130.30154 178.417573,128.213033 178.87,126.09 L185.33,98.15 C185.86,95.29 186.28,93.15 186.38,91.9 C186.577558,90.7815026 186.651336,89.6446499 186.6,88.51 L186.6,87.24 L201.2,87.24 L192.42,126 C191.78,128.76 191.36,130.87 191.15,132.36 C190.887465,133.861665 190.780233,135.38637 190.83,136.91 L175.27,137 Z" id="Shape" fill="#4D4848" sketch:type="MSShapeGroup"></path>
            <path d="M119.19,69.79 C119.19,72.6899943 117.443086,75.3044365 114.76384,76.4142162 C112.084595,77.523996 109.00065,76.9105613 106.950044,74.8599556 C104.899439,72.80935 104.286004,69.7254052 105.395784,67.0461598 C106.505564,64.3669144 109.120006,62.62 112.02,62.62 C115.979882,62.62 119.19,65.8301183 119.19,69.79 L119.19,69.79 Z" id="Shape" fill="#4D4848" sketch:type="MSShapeGroup"></path>
            <path d="M142.6,207.18 C143.22,204.66 143.14,203.67 142.9,202.63 L164.57,202.63 C170.16,202.63 170.88,204.87 170.08,208.09 L169.33,211.09 C168.49,214.44 166.28,215.02 162.53,215.31 L162.53,215.39 C166.78,215.93 168.02,216.39 167.32,219.24 L166.23,223.62 C165.43,226.85 163.59,229.08 158.01,229.08 L136.31,229.08 C137.315063,227.735779 137.999191,226.179388 138.31,224.53 L142.6,207.18 Z M148.32,224.72 L154.2,224.72 C155.48,224.72 155.9,224.51 156.2,223.23 L157.2,219.09 C157.52,217.81 157.2,217.6 155.92,217.6 L150.04,217.6 L148.32,224.72 Z M151.18,213.22 L157.06,213.22 C158.34,213.22 158.76,213.01 159.06,211.73 L159.87,208.51 C160.18,207.22 159.87,207.02 158.58,207.02 L152.71,207.02 L151.18,213.22 Z" id="Shape" fill="#4D4848" sketch:type="MSShapeGroup"></path>
            <path d="M188.48,224.72 C190.08123,224.749473 191.676245,224.512924 193.2,224.02 L191,229.1 L167.7,229.1 C168.696082,227.750558 169.379272,226.196301 169.7,224.55 L174,207.18 C174.63,204.66 174.55,203.67 174.31,202.63 L197.2,202.63 L196.76,207.72 C195.347579,207.209553 193.851061,206.97201 192.35,207.02 L184.12,207.02 L182.57,213.22 L189.77,213.22 C191.370605,213.24001 192.964096,213.003687 194.49,212.52 L193.05,218.31 C191.651669,217.797852 190.168545,217.556886 188.68,217.6 L181.48,217.6 L179.71,224.72 L188.48,224.72 Z" id="Shape" fill="#4D4848" sketch:type="MSShapeGroup"></path>
            <path d="M214.61,224.72 C216.174735,224.759549 217.72974,224.462871 219.17,223.85 L217,229.1 L194.17,229.1 C195.166082,227.750558 195.849272,226.196301 196.17,224.55 L200.49,207.18 C201.12,204.66 201.03,203.67 200.79,202.63 L212.5,202.63 C211.507947,203.981771 210.825168,205.535092 210.5,207.18 L206.14,224.72 L214.61,224.72 Z" id="Shape" fill="#4D4848" sketch:type="MSShapeGroup"></path>
            <path d="M252.17,213.22 C250.994649,214.325287 250.19992,215.774706 249.9,217.36 L248.28,223.89 C247.46,227.16 247.49,227.7 248.05,229.1 L239.16,229.1 L239.44,226.66 L239.36,226.66 C238.52,228.19 237.92,229.1 235.07,229.1 L226.13,229.1 C221.83,229.1 219.95,227.03 221.37,221.33 L224.09,210.41 C225.51,204.7 228.42,202.63 232.72,202.63 L252.08,202.63 L251.6,207.72 C250.374299,207.202767 249.049174,206.963698 247.72,207.02 L237,207.02 C235.67,207.02 234.91,207.43 234.59,208.71 L231,223 C230.68,224.28 231.24,224.7 232.56,224.7 L236,224.7 C237.33,224.7 238.09,224.28 238.41,223 L239.76,217.58 L236,217.58 C235.362592,217.602123 234.739247,217.773372 234.18,218.08 L235.39,213.2 L252.17,213.22 Z" id="Shape" fill="#4D4848" sketch:type="MSShapeGroup"></path>
            <path d="M251.15,229.1 C252.150212,227.752954 252.83383,226.197723 253.15,224.55 L257.48,207.18 C258.1,204.66 258.02,203.67 257.78,202.63 L269.53,202.63 C268.529788,203.977046 267.84617,205.532277 267.53,207.18 L263.2,224.55 C262.58,227.08 262.66,228.07 262.9,229.1 L251.15,229.1 Z" id="Shape" fill="#4D4848" sketch:type="MSShapeGroup"></path>
            <path d="M288.93,224.72 C291.74,224.72 292.02,224.43 292.6,222.07 L296.26,207.39 C297,204.39 297.01,203.87 296.45,202.63 L302.82,202.63 C301.64,203.87 301.38,204.41 300.64,207.39 L297.28,220.91 C295.77,226.91 293.58,229.1 287.84,229.1 L274.44,229.1 C269.27,229.1 267.77,226.46 269.15,220.91 L272.57,207.18 C273.074659,205.717591 273.181643,204.147343 272.88,202.63 L284.62,202.63 C283.627947,203.981771 282.945168,205.535092 282.62,207.18 L278.87,222.24 C278.44,223.97 279,224.72 280.78,224.72 L288.93,224.72 Z" id="Shape" fill="#4D4848" sketch:type="MSShapeGroup"></path>
            <path d="M329.57,202.63 L343.1,202.63 C342.085445,203.968663 341.400296,205.527377 341.1,207.18 L336.77,224.55 C336.15,227.08 336.23,228.07 336.51,229.1 L324.72,229.1 C325.720212,227.752954 326.40383,226.197723 326.72,224.55 L330.78,208.26 L330.7,208.26 L318.15,229.1 L311.15,229.1 L309.22,208.26 L309.14,208.26 L305.14,224.35 C304.39,227.35 304.38,227.86 304.94,229.1 L298.58,229.1 C299.75,227.86 300.01,227.32 300.75,224.35 L304.97,207.35 C305.71,204.35 305.72,203.83 305.16,202.59 L319.06,202.59 L320.37,217.59 L320.45,217.59 L329.57,202.63 Z" id="Shape" fill="#4D4848" sketch:type="MSShapeGroup"></path>
        </g>
    </g>
</svg>