<?xml version="1.0" encoding="UTF-8"?>
<svg width="462px" height="230px" viewBox="0 0 462 230" version="1.1" xmlns="http://www.w3.org/2000/svg" xmlns:xlink="http://www.w3.org/1999/xlink" xmlns:sketch="http://www.bohemiancoding.com/sketch/ns">
    <!-- Generator: Sketch 3.3.2 (12043) - http://www.bohemiancoding.com/sketch -->
    <title>Slice 1</title>
    <desc>Created with Sketch.</desc>
    <defs></defs>
    <g id="Page-1" stroke="none" stroke-width="1" fill="none" fill-rule="evenodd" sketch:type="MSPage">
        <g id="ELIXIR-CH" sketch:type="MSLayerGroup">
            <path d="M90.63,137 C91.26,135.62 91.79,134.14 92.43,132.34 C93.176942,130.302668 93.7751772,128.213859 94.22,126.09 L100.68,98.15 C101.21,95.29 101.63,93.15 101.75,91.9 C101.929646,90.7795076 101.996647,89.643843 101.95,88.51 L101.95,87.24 L116.56,87.24 L107.77,126 C107.14,128.76 106.77,130.87 106.5,132.36 C106.245658,133.862589 106.14181,135.386799 106.19,136.91 L90.63,137 Z" id="Shape" fill="#4D4848" sketch:type="MSShapeGroup"></path>
            <path d="M284,0.9 C274.611159,0.9 267,8.51115925 267,17.9 C266.992114,20.7337538 267.700734,23.5235131 269.06,26.01 C267.37,26.85 263.43,28.83 257.91,31.7 C255.902888,27.4955359 251.747163,24.7346388 247.093423,24.5139001 C242.439683,24.2931614 238.041291,26.648315 235.645228,30.6439253 C233.249166,34.6395356 233.243315,39.6287811 235.63,43.63 C232.79,45.19 229.85,46.84 226.82,48.55 C225.033672,45.4846612 221.747698,43.605166 218.199873,43.619502 C214.652048,43.633838 211.38137,45.5398273 209.619873,48.619502 C207.858376,51.6991768 207.873672,55.4846612 209.66,58.55 C206.54,60.41 203.38,62.32 200.23,64.27 C198.072315,62.4439599 195.050939,62.0362927 192.486457,63.2251822 C189.921975,64.4140717 188.280699,66.9833369 188.28,69.81 C188.285338,70.4380069 188.369325,71.0628717 188.53,71.67 C176.448979,79.3758538 164.865988,87.83598 153.85,97 C142.36,71.32 125.43,43.13 101.85,20.18 L101.78,20.12 C99.02,17.4 96.78,18.6 99.91,21.98 L100.03,22.11 C120.03,43.64 135.75,74.79 146.46,103.2 C105.83,137.89 61.05,205.11 110.13,226.2 C117.28,229.28 120.54,223.4 117.46,221.59 C116.91,221.26 95.05,209.45 108.94,173.14 L143.94,173.14 C145.743492,173.042084 147.155677,171.551148 147.155677,169.745 C147.155677,167.938852 145.743492,166.447916 143.94,166.35 L111.85,166.35 C113.929979,161.949787 116.243268,157.663694 118.78,153.51 L143.94,153.51 C145.743492,153.412084 147.155677,151.921148 147.155677,150.115 C147.155677,148.308852 145.743492,146.817916 143.94,146.72 L123.1,146.72 C125.7,142.83 128.61,138.77 131.89,134.51 L143.94,134.51 C145.743492,134.412084 147.155677,132.921148 147.155677,131.115 C147.155677,129.308852 145.743492,127.817916 143.94,127.72 L137.27,127.72 C141.07,123.053333 145.283333,118.196667 149.91,113.15 L150,113 C159.22,139.72 163.68,162.5 162.7,170.09 C162.469546,172.809819 160.856498,175.219947 158.43,176.47 C156.71,177.28 156,179.65 158.7,180.47 C167.29,183 172.59,174.47 173.54,167.62 C174.49,160.77 169.8,135.43 157.39,105.28 C168.213083,94.7249003 179.779437,84.9598367 192,76.06 C194.246663,77.3571115 197.014725,77.3568585 199.26115,76.0593364 C201.507576,74.7618142 202.890949,72.3642225 202.89,69.77 C202.891187,69.2926509 202.840897,68.8165655 202.74,68.35 C205.993333,66.09 209.216667,63.8966667 212.41,61.77 C215.728811,64.4591815 220.398196,64.7164691 223.992371,62.4081998 C227.586546,60.0999305 229.294929,55.7466809 228.23,51.61 C231.416667,49.61 234.5,47.73 237.48,45.97 C241.504069,50.1944198 247.89665,51.1158072 252.949905,48.1997372 C258.00316,45.2836671 260.404047,39.2878529 258.76,33.69 C264.16,30.69 268.1,28.56 270.03,27.46 C274.585098,34.1578277 283.23314,36.7116134 290.695998,33.5627144 C298.158857,30.4138155 302.36355,22.436911 300.743844,14.5005159 C299.124138,6.56412068 292.129943,0.872751192 284.03,0.9 L284,0.9 Z" id="Shape" fill="#F47D20" sketch:type="MSShapeGroup"></path>
            <g id="Group" transform="translate(0.000000, 61.000000)" fill="#4D4848" sketch:type="MSShapeGroup">
                <path d="M54.19,76 L10.89,76 C6.55,76 3.59,75.05 1.99,73 C1.08001079,71.5852605 0.639120618,69.9196754 0.73,68.24 C0.756634273,66.4166411 1.00512859,64.6033042 1.47,62.84 L6.87,39.34 C8.03,34.58 9.72,31.19 12.05,29.17 C14.38,27.15 17.77,26.17 22.22,26.17 L54.22,26.17 C58.77,26.17 61.73,27.17 63.22,29.17 C64.2177095,30.5741531 64.6950658,32.2820277 64.57,34 C64.552763,35.7885706 64.3006051,37.5671244 63.82,39.29 L60.33,54.86 L16.82,54.86 L14.49,65 C14.3124757,65.8024617 14.2054019,66.6188993 14.17,67.44 C14.17,67.97 14.17,68.39 14.39,68.6 C14.7,69.24 15.65,69.6 17.14,69.6 L48.89,69.6 C51.6654671,69.6165476 54.4346834,69.3349324 57.15,68.76 L54.19,76 Z M50.8,37.1 C51.0699964,36.2800212 51.2116679,35.4232461 51.22,34.56 C51.2100364,34.1964243 51.1355451,33.8375117 51,33.5 C50.58,32.86 49.52,32.55 48,32.55 L25.6,32.55 C24.4595474,32.4377675 23.3207591,32.7790448 22.43,33.5 C21.5285744,34.4844002 21.0197425,35.7653757 21,37.1 L18.3,48.53 L48.15,48.53 L50.8,37.1 Z" id="Shape"></path>
                <path d="M65,76 C65.67,74.46 66.23,72.8 66.91,70.78 C67.7088813,68.4939864 68.3471012,66.1549603 68.82,63.78 L79.94,12.28 C80.61,9.07 81.06,6.7 81.28,5.28 C81.5,3.86 81.51,2.2 81.51,0.06 L97,0.06 L83.18,63.79 C82.5133333,66.8766667 82.0633333,69.2533333 81.83,70.92 C81.5597087,72.6058223 81.4492183,74.3134023 81.5,76.02 L65,76 Z" id="Shape"></path>
                <path d="M243.6,34.56 C242.01,34.45 240.42,34.34 238.6,34.34 L231.51,34.34 C230.388912,34.2700466 229.275694,34.5685436 228.34,35.19 C227.386165,36.0481785 226.7516,37.2044973 226.54,38.47 L220.63,65 C219.7389,68.173644 219.24183,71.4449064 219.15,74.74 L219.15,76 L203.69,76 C204.32,74.41 204.96,72.92 205.38,71.45 C205.8,69.98 206.38,67.95 207.08,65.09 L213.43,37.15 C214.17,34.39 214.49,32.28 214.81,30.69 C214.984669,29.2134598 215.054844,27.7264274 215.02,26.24 L228.02,26.24 L227.49,31.32 C228.199226,29.7642173 229.336953,28.4426507 230.77,27.51 C232.486647,26.5762174 234.428555,26.1366055 236.38,26.24 L249.09,26.24 L252.15,31.74 C251.478438,32.3386065 250.874804,33.0093115 250.35,33.74 C249.61,34.69 249.09,35.11 248.77,35.11 C246.88,34.88 245.18,34.66 243.6,34.56 L243.6,34.56 Z" id="Shape"></path>
                <path d="M175.1,76 C175.73,74.62 176.26,73.14 176.89,71.34 C177.645268,69.3045509 178.246952,67.2153686 178.69,65.09 L185.15,37.15 C185.68,34.29 186.1,32.15 186.21,30.9 C186.398666,29.7804885 186.469053,28.6442374 186.42,27.51 L186.42,26.24 L201,26.24 L192.24,65 C191.61,67.76 191.18,69.87 190.98,71.36 C190.717465,72.8616655 190.610233,74.3863705 190.66,75.91 L175.1,76 Z" id="Shape"></path>
                <path d="M119,8.79 C118.999997,11.6909037 117.251999,14.3059763 114.571526,15.4151676 C111.891052,16.5243589 108.806324,15.909089 106.756508,13.8564094 C104.706691,11.8037298 104.095727,8.71814621 105.208658,6.03922361 C106.321589,3.36030101 108.939099,1.61595411 111.84,1.62 C113.740684,1.61999815 115.563375,2.37572568 116.906423,3.72064975 C118.249472,5.06557381 119.002655,6.88931791 119,8.79 L119,8.79 Z" id="Shape"></path>
                <path d="M167,146.89 C165.809374,146.253831 164.468269,145.95312 163.12,146.02 L153.73,146.02 C152.16,146.02 151.73,146.22 151.5,147.18 L151.13,148.66 C150.88,149.66 151.21,149.82 152.79,149.82 L160,149.82 C164.3,149.82 166.25,151.31 165.29,155.16 L163.68,161.61 C162.68,165.79 160.58,168.1 155.74,168.1 L137.5,168.1 L137.97,162.73 C139.082027,163.436448 140.383717,163.785426 141.7,163.73 L151.46,163.73 C153.03,163.73 153.4,163.56 153.65,162.57 L154.1,160.75 C154.34,159.8 154.1,159.59 152.49,159.59 L144.26,159.59 C140.26,159.59 139,158.27 140.1,153.84 L141.57,147.93 C142.57,143.79 145.17,141.64 148.72,141.64 L167.46,141.64 L167,146.89 Z" id="Shape"></path>
                <path d="M188.89,150.57 L188.81,150.57 L180.18,168.1 L170.55,168.1 L170.36,145.1 C170.375903,143.900693 170.086863,142.717004 169.52,141.66 L181.52,141.66 C181.146393,142.180868 180.884262,142.773215 180.75,143.4 C180.543197,144.254569 180.439128,145.130765 180.44,146.01 L180.33,158.74 L180.41,158.74 L188.8,141.66 L198.89,141.66 L198.97,158.79 L199.05,158.79 L205.25,146.01 C205.676162,145.178466 206.011433,144.303409 206.25,143.4 C206.437489,142.837942 206.458327,142.233638 206.31,141.66 L212.72,141.66 C211.474953,142.767484 210.485453,144.132311 209.82,145.66 L198.82,168.12 L189,168.12 L188.89,150.57 Z" id="Shape"></path>
                <path d="M207.35,168.1 C208.346082,166.750558 209.029272,165.196301 209.35,163.55 L213.67,146.18 C214.3,143.66 214.22,142.67 213.98,141.63 L225.72,141.63 C224.727947,142.981771 224.045168,144.535092 223.72,146.18 L219.4,163.55 C218.77,166.08 218.86,167.07 219.1,168.1 L207.35,168.1 Z" id="Shape"></path>
                <path d="M253.85,141.63 L253.31,147.09 C252.331937,146.289576 251.078624,145.905322 249.82,146.02 L245.23,146.02 L240.86,163.55 C240.24,166.08 240.32,167.07 240.56,168.1 L228.81,168.1 C229.810212,166.752954 230.49383,165.197723 230.81,163.55 L235.14,146 L230.55,146 C229.140659,145.95731 227.749801,146.329364 226.55,147.07 L228.74,141.61 L253.85,141.63 Z" id="Shape"></path>
                <path d="M248.29,168.1 L267.39,146 L259.39,146 C258.009087,145.934707 256.633837,146.216633 255.39,146.82 L257.39,141.61 L282.74,141.61 L263.6,163.7 L271.6,163.7 C272.979996,163.8275 274.370997,163.642944 275.67,163.16 L273.82,168.08 L248.29,168.1 Z" id="Shape"></path>
                <path d="M298.59,163.72 C300.194433,163.748369 301.792556,163.511861 303.32,163.02 L301.14,168.1 L277.82,168.1 C278.816082,166.750558 279.499272,165.196301 279.82,163.55 L284.14,146.18 C284.77,143.66 284.68,142.67 284.44,141.63 L307.36,141.63 L306.92,146.72 C305.504072,146.209715 304.004313,145.972196 302.5,146.02 L294.27,146.02 L292.73,152.22 L299.92,152.22 C301.523953,152.241079 303.120904,152.004744 304.65,151.52 L303.21,157.31 C301.808095,156.798254 300.321778,156.557322 298.83,156.6 L291.6,156.6 L289.83,163.72 L298.59,163.72 Z" id="Shape"></path>
                <path d="M317.65,156.6 L315.92,163.55 C315.29,166.08 315.38,167.07 315.61,168.1 L303.87,168.1 C304.866082,166.750558 305.549272,165.196301 305.87,163.55 L310.19,146.18 C310.82,143.66 310.74,142.67 310.25,141.63 L332,141.63 C336.64,141.63 338.52,143.04 337.42,147.46 L336.2,152.34 C335.2,156.23 333.28,156.44 331.09,156.6 L332.83,164.05 C333.024616,165.448941 333.418618,166.812792 334,168.1 L322.69,168.1 L320.75,156.6 L317.65,156.6 Z M318.74,152.22 L324.45,152.22 C325.73,152.22 326.15,152.01 326.45,150.73 L327.26,147.51 C327.57,146.22 327.26,146.02 325.97,146.02 L320.26,146.02 L318.74,152.22 Z" id="Shape"></path>
                <path d="M356.9,163.72 C358.464735,163.759549 360.01974,163.462871 361.46,162.85 L359.29,168.1 L336.46,168.1 C337.456082,166.750558 338.139272,165.196301 338.46,163.55 L342.78,146.18 C343.41,143.66 343.32,142.67 343.08,141.63 L354.83,141.63 C353.837947,142.981771 353.155168,144.535092 352.83,146.18 L348.47,163.72 L356.9,163.72 Z" id="Shape"></path>
                <path d="M370,161 L367.31,164.64 C366.95231,165.106065 366.693681,165.640338 366.55,166.21 C366.310625,166.82951 366.350731,167.522253 366.66,168.11 L359.17,168.11 C360.749782,166.67381 362.162088,165.06358 363.38,163.31 L378,143.12 L377.21,141.63 L389.21,141.63 L392.95,164.46 C393.168212,165.756419 393.647944,166.994878 394.36,168.1 L381.08,168.1 C381.82,167.1 381.95,166.94 382.08,166.37 C382.24902,165.717376 382.289773,165.038152 382.2,164.37 L381.6,160.98 L370,161 Z M381,156.61 L379.46,147.68 L373.19,156.61 L381,156.61 Z" id="Shape"></path>
                <path d="M405.76,146.18 L405.68,146.18 L401.41,163.35 C400.67,166.35 400.66,166.86 401.22,168.1 L394.85,168.1 C396.02,166.86 396.28,166.32 397.02,163.35 L401.24,146.35 C401.99,143.35 402,142.83 401.44,141.59 L415.62,141.59 L421,163.22 L421.13,163.22 L425.31,146.39 C426.06,143.39 426.07,142.87 425.51,141.63 L431.87,141.63 C430.7,142.87 430.44,143.41 429.7,146.39 L424.29,168.1 L411.23,168.1 L405.76,146.18 Z" id="Shape"></path>
                <path d="M434.21,146.18 C434.84,143.66 434.76,142.67 434.52,141.63 L455.07,141.63 C460.7,141.63 462.15,143.78 460.81,149.16 L458,160.57 C456.66,165.95 454.14,168.1 448.52,168.1 L427.93,168.1 C428.926082,166.750558 429.609272,165.196301 429.93,163.55 L434.21,146.18 Z M439.94,163.72 L445.19,163.72 C446.85,163.72 447.19,163.35 447.63,161.57 L450.97,148.17 C451.41,146.39 451.25,146.02 449.6,146.02 L444.35,146.02 L439.94,163.72 Z" id="Shape"></path>
            </g>
        </g>
    </g>
</svg>