<?xml version="1.0" encoding="UTF-8" standalone="no"?>
<svg
   xmlns:dc="http://purl.org/dc/elements/1.1/"
   xmlns:cc="http://creativecommons.org/ns#"
   xmlns:rdf="http://www.w3.org/1999/02/22-rdf-syntax-ns#"
   xmlns:svg="http://www.w3.org/2000/svg"
   xmlns="http://www.w3.org/2000/svg"
   xmlns:sodipodi="http://sodipodi.sourceforge.net/DTD/sodipodi-0.dtd"
   xmlns:inkscape="http://www.inkscape.org/namespaces/inkscape"
   width="500"
   height="300"
   viewBox="0 100 500 300"
   version="1.1"
   id="svg4046"
   sodipodi:docname="CH.svg"
   inkscape:version="0.92.3 (2405546, 2018-03-11)">
  <metadata
     id="metadata4050">
    <rdf:RDF>
      <cc:Work
         rdf:about="">
        <dc:format>image/svg+xml</dc:format>
        <dc:type
           rdf:resource="http://purl.org/dc/dcmitype/StillImage" />
      </cc:Work>
    </rdf:RDF>
  </metadata>
  <sodipodi:namedview
     pagecolor="#ffffff"
     bordercolor="#666666"
     borderopacity="1"
     objecttolerance="10"
     gridtolerance="10"
     guidetolerance="10"
     inkscape:pageopacity="0"
     inkscape:pageshadow="2"
     inkscape:window-width="2560"
     inkscape:window-height="1247"
     id="namedview4048"
     showgrid="false"
     inkscape:zoom="8.3268894"
     inkscape:cx="345.18497"
     inkscape:cy="237.00718"
     inkscape:window-x="0"
     inkscape:window-y="0"
     inkscape:window-maximized="1"
     inkscape:current-layer="svg4046" />
  <defs
     id="defs4007">
    <style
       id="style4005">.cls-1{fill:#4d4848;}.cls-2{fill:#f47d20;}</style>
  </defs>
  <g
     id="Nodes"
     transform="translate(-9.7183161,-25.879907)">
    <path
       class="cls-1"
       d="m 109.63,272 c 0.63,-1.38 1.16,-2.86 1.8,-4.66 a 44.89,44.89 0 0 0 1.79,-6.25 l 6.46,-27.94 c 0.53,-2.86 0.95,-5 1.07,-6.25 a 17,17 0 0 0 0.2,-3.39 v -1.27 h 14.61 L 126.77,261 c -0.63,2.76 -1,4.87 -1.27,6.36 a 22.92,22.92 0 0 0 -0.31,4.55 z"
       id="path4009"
       inkscape:connector-curvature="0"
       style="fill:#4d4848" />
    <path
       class="cls-2"
       d="m 303,135.9 a 17,17 0 0 0 -17,17 16.81,16.81 0 0 0 2.06,8.11 c -1.69,0.84 -5.63,2.82 -11.15,5.69 a 12.65,12.65 0 1 0 -22.28,11.93 c -2.84,1.56 -5.78,3.21 -8.81,4.92 a 9.930579,9.930579 0 0 0 -17.16,10 c -3.12,1.86 -6.28,3.77 -9.43,5.72 a 7.26,7.26 0 0 0 -11.95,5.54 7.52,7.52 0 0 0 0.25,1.86 340.8,340.8 0 0 0 -34.68,25.33 c -11.49,-25.68 -28.42,-53.87 -52,-76.82 l -0.07,-0.06 c -2.76,-2.72 -5,-1.52 -1.87,1.86 l 0.12,0.13 c 20,21.53 35.72,52.68 46.43,81.09 -40.63,34.69 -85.41,101.91 -36.33,123 7.15,3.08 10.41,-2.8 7.33,-4.61 -0.55,-0.33 -22.41,-12.14 -8.52,-48.45 h 35 a 3.4,3.4 0 0 0 0,-6.79 h -32.09 a 136.82,136.82 0 0 1 6.93,-12.84 h 25.16 a 3.4,3.4 0 0 0 0,-6.79 H 142.1 c 2.6,-3.89 5.51,-7.95 8.79,-12.21 h 12.05 a 3.4,3.4 0 0 0 0,-6.79 h -6.67 q 5.7,-7 12.64,-14.57 L 169,248 c 9.22,26.72 13.68,49.5 12.7,57.09 a 7.93,7.93 0 0 1 -4.27,6.38 c -1.72,0.81 -2.43,3.18 0.27,4 8.59,2.53 13.89,-6 14.84,-12.85 0.95,-6.85 -3.74,-32.19 -16.15,-62.34 a 316.1,316.1 0 0 1 34.61,-29.22 7.26,7.26 0 0 0 10.89,-6.29 6.64,6.64 0 0 0 -0.15,-1.42 q 4.88,-3.39 9.67,-6.58 a 9.9,9.9 0 0 0 15.82,-10.16 q 4.78,-3 9.25,-5.64 a 12.64,12.64 0 0 0 21.28,-12.28 c 5.4,-3 9.34,-5.13 11.27,-6.23 a 17,17 0 1 0 14,-26.56 z"
       id="path4011"
       inkscape:connector-curvature="0"
       style="fill:#f47d20" />
    <path
       class="cls-1"
       d="m 73.19,272 h -43.3 c -4.34,0 -7.3,-0.95 -8.9,-3 a 8,8 0 0 1 -1.26,-4.76 22.47,22.47 0 0 1 0.74,-5.4 l 5.4,-23.5 c 1.16,-4.76 2.85,-8.15 5.18,-10.17 2.33,-2.02 5.72,-3 10.17,-3 h 32 c 4.55,0 7.51,1 9,3 a 7.41,7.41 0 0 1 1.35,4.83 20.42,20.42 0 0 1 -0.75,5.29 l -3.49,15.57 H 35.82 L 33.49,261 a 14.11,14.11 0 0 0 -0.32,2.44 c 0,0.53 0,0.95 0.22,1.16 0.31,0.64 1.26,1 2.75,1 h 31.75 a 38.76,38.76 0 0 0 8.26,-0.84 z M 69.8,233.1 A 8.38,8.38 0 0 0 70.22,230.56 3.07,3.07 0 0 0 70,229.5 c -0.42,-0.64 -1.48,-0.95 -3,-0.95 H 44.6 a 4.36,4.36 0 0 0 -3.17,0.95 5.45,5.45 0 0 0 -1.43,3.6 l -2.7,11.43 h 29.85 z"
       id="path4013"
       inkscape:connector-curvature="0"
       style="fill:#4d4848" />
    <path
       class="cls-1"
       d="m 84,272 c 0.67,-1.54 1.23,-3.2 1.91,-5.22 a 52,52 0 0 0 1.91,-7 l 11.12,-51.5 c 0.67,-3.21 1.12,-5.58 1.34,-7 0.22,-1.42 0.23,-3.08 0.23,-5.22 H 116 l -13.82,63.73 q -1,4.63 -1.35,7.13 a 27.12,27.12 0 0 0 -0.33,5.1 z"
       id="path4015"
       inkscape:connector-curvature="0"
       style="fill:#4d4848" />
    <path
       class="cls-1"
       d="m 262.6,230.56 c -1.59,-0.11 -3.18,-0.22 -5,-0.22 h -7.09 a 5.15,5.15 0 0 0 -3.17,0.85 5.67,5.67 0 0 0 -1.8,3.28 L 239.63,261 a 40.17,40.17 0 0 0 -1.48,9.74 V 272 h -15.46 c 0.63,-1.59 1.27,-3.08 1.69,-4.55 0.42,-1.47 1,-3.5 1.7,-6.36 l 6.35,-27.94 c 0.74,-2.76 1.06,-4.87 1.38,-6.46 a 31.58,31.58 0 0 0 0.21,-4.45 h 13 l -0.53,5.08 a 9,9 0 0 1 3.28,-3.81 10.57,10.57 0 0 1 5.61,-1.27 h 12.71 l 3.06,5.5 a 12.26,12.26 0 0 0 -1.8,2 c -0.74,0.95 -1.26,1.37 -1.58,1.37 -1.89,-0.23 -3.59,-0.45 -5.17,-0.55 z"
       id="path4017"
       inkscape:connector-curvature="0"
       style="fill:#4d4848" />
    <path
       class="cls-1"
       d="m 194.1,272 c 0.63,-1.38 1.16,-2.86 1.79,-4.66 a 43.46,43.46 0 0 0 1.8,-6.25 l 6.46,-27.94 c 0.53,-2.86 0.95,-5 1.06,-6.25 a 16.19,16.19 0 0 0 0.21,-3.39 v -1.27 H 220 L 211.24,261 c -0.63,2.76 -1.06,4.87 -1.26,6.36 a 22.21,22.21 0 0 0 -0.32,4.55 z"
       id="path4019"
       inkscape:connector-curvature="0"
       style="fill:#4d4848" />
    <path
       class="cls-1"
       d="m 138,204.79 a 7.17,7.17 0 1 1 -7.16,-7.17 7.16,7.16 0 0 1 7.16,7.17 z"
       id="path4021"
       inkscape:connector-curvature="0"
       style="fill:#4d4848" />
    <path
       class="cls-1"
       d="m 186,342.89 a 7.45,7.45 0 0 0 -3.88,-0.87 h -9.39 c -1.57,0 -2,0.2 -2.23,1.16 l -0.37,1.48 c -0.25,1 0.08,1.16 1.66,1.16 H 179 c 4.3,0 6.25,1.49 5.29,5.34 l -1.61,6.45 c -1,4.18 -3.1,6.49 -7.94,6.49 H 156.5 l 0.47,-5.37 a 6.45,6.45 0 0 0 3.73,1 h 9.76 c 1.57,0 1.94,-0.17 2.19,-1.16 l 0.45,-1.82 c 0.24,-0.95 0,-1.16 -1.61,-1.16 h -8.23 c -4,0 -5.26,-1.32 -4.16,-5.75 l 1.47,-5.91 c 1,-4.14 3.6,-6.29 7.15,-6.29 h 18.74 z"
       id="path4023"
       inkscape:connector-curvature="0"
       style="fill:#4d4848" />
    <path
       class="cls-1"
       d="m 207.89,346.57 h -0.08 l -8.63,17.53 h -9.63 l -0.19,-23 a 7.08,7.08 0 0 0 -0.84,-3.44 h 12 a 4.66,4.66 0 0 0 -0.77,1.74 11.05,11.05 0 0 0 -0.31,2.61 l -0.11,12.73 h 0.08 l 8.39,-17.08 h 10.09 l 0.08,17.13 h 0.08 l 6.2,-12.78 a 13,13 0 0 0 1,-2.61 3.07,3.07 0 0 0 0.06,-1.74 h 6.41 a 11.5,11.5 0 0 0 -2.9,4 l -11,22.46 H 208 Z"
       id="path4025"
       inkscape:connector-curvature="0"
       style="fill:#4d4848" />
    <path
       class="cls-1"
       d="m 226.35,364.1 a 11.3,11.3 0 0 0 2,-4.55 l 4.32,-17.37 c 0.63,-2.52 0.55,-3.51 0.31,-4.55 h 11.74 a 11.44,11.44 0 0 0 -2,4.55 l -4.32,17.37 c -0.63,2.53 -0.54,3.52 -0.3,4.55 z"
       id="path4027"
       inkscape:connector-curvature="0"
       style="fill:#4d4848" />
    <path
       class="cls-1"
       d="m 272.85,337.63 -0.54,5.46 a 4.82,4.82 0 0 0 -3.49,-1.07 h -4.59 l -4.37,17.53 c -0.62,2.53 -0.54,3.52 -0.3,4.55 h -11.75 a 11.16,11.16 0 0 0 2,-4.55 L 254.14,342 h -4.59 a 7.2,7.2 0 0 0 -4,1.07 l 2.19,-5.46 z"
       id="path4029"
       inkscape:connector-curvature="0"
       style="fill:#4d4848" />
    <path
       class="cls-1"
       d="m 267.29,364.1 19.1,-22.1 h -8 a 8.27,8.27 0 0 0 -4,0.82 l 2,-5.21 h 25.35 L 282.6,359.7 h 8 a 9.24,9.24 0 0 0 4.07,-0.54 l -1.85,4.92 z"
       id="path4031"
       inkscape:connector-curvature="0"
       style="fill:#4d4848" />
    <path
       class="cls-1"
       d="m 317.59,359.72 a 14.59,14.59 0 0 0 4.73,-0.7 l -2.18,5.08 h -23.32 a 11.3,11.3 0 0 0 2,-4.55 l 4.32,-17.37 c 0.63,-2.52 0.54,-3.51 0.3,-4.55 h 22.92 l -0.44,5.09 a 11.92,11.92 0 0 0 -4.42,-0.7 h -8.23 l -1.54,6.2 h 7.19 a 15,15 0 0 0 4.73,-0.7 l -1.44,5.79 a 11.79,11.79 0 0 0 -4.38,-0.71 h -7.23 l -1.77,7.12 z"
       id="path4033"
       inkscape:connector-curvature="0"
       style="fill:#4d4848" />
    <path
       class="cls-1"
       d="m 336.65,352.6 -1.73,6.95 c -0.63,2.53 -0.54,3.52 -0.31,4.55 h -11.74 a 11.3,11.3 0 0 0 2,-4.55 l 4.32,-17.37 c 0.63,-2.52 0.55,-3.51 0.06,-4.55 H 351 c 4.64,0 6.52,1.41 5.42,5.83 l -1.22,4.88 c -1,3.89 -2.92,4.1 -5.11,4.26 l 1.74,7.45 a 14.79,14.79 0 0 0 1.17,4.05 h -11.31 l -1.94,-11.5 z m 1.09,-4.38 h 5.71 c 1.28,0 1.7,-0.21 2,-1.49 l 0.81,-3.22 c 0.31,-1.29 0,-1.49 -1.29,-1.49 h -5.71 z"
       id="path4035"
       inkscape:connector-curvature="0"
       style="fill:#4d4848" />
    <path
       class="cls-1"
       d="m 375.9,359.72 a 10.94,10.94 0 0 0 4.56,-0.87 l -2.17,5.25 h -22.83 a 11.3,11.3 0 0 0 2,-4.55 l 4.32,-17.37 c 0.63,-2.52 0.54,-3.51 0.3,-4.55 h 11.75 a 11.44,11.44 0 0 0 -2,4.55 l -4.36,17.54 z"
       id="path4037"
       inkscape:connector-curvature="0"
       style="fill:#4d4848" />
    <path
       class="cls-1"
       d="m 389,357 -2.69,3.64 a 4.31,4.31 0 0 0 -0.76,1.57 2.3,2.3 0 0 0 0.11,1.9 h -7.49 a 28.32,28.32 0 0 0 4.21,-4.8 l 14.62,-20.19 -0.79,-1.49 h 12 l 3.74,22.83 a 9.69,9.69 0 0 0 1.41,3.64 h -13.28 c 0.74,-1 0.87,-1.16 1,-1.73 a 5.21,5.21 0 0 0 0.12,-2 l -0.6,-3.39 z m 11,-4.39 -1.54,-8.93 -6.27,8.93 z"
       id="path4039"
       inkscape:connector-curvature="0"
       style="fill:#4d4848" />
    <path
       class="cls-1"
       d="m 424.76,342.18 h -0.08 l -4.27,17.17 c -0.74,3 -0.75,3.51 -0.19,4.75 h -6.37 c 1.17,-1.24 1.43,-1.78 2.17,-4.75 l 4.22,-17 c 0.75,-3 0.76,-3.52 0.2,-4.76 h 14.18 l 5.38,21.63 h 0.13 l 4.18,-16.83 c 0.75,-3 0.76,-3.52 0.2,-4.76 h 6.36 c -1.17,1.24 -1.43,1.78 -2.17,4.76 l -5.41,21.71 h -13.06 z"
       id="path4041"
       inkscape:connector-curvature="0"
       style="fill:#4d4848" />
    <path
       class="cls-1"
       d="m 453.21,342.18 c 0.63,-2.52 0.55,-3.51 0.31,-4.55 h 20.55 c 5.63,0 7.08,2.15 5.74,7.53 L 477,356.57 c -1.34,5.38 -3.86,7.53 -9.48,7.53 h -20.59 a 11.3,11.3 0 0 0 2,-4.55 z m 5.73,17.54 h 5.25 c 1.66,0 2,-0.37 2.44,-2.15 l 3.34,-13.4 c 0.44,-1.78 0.28,-2.15 -1.37,-2.15 h -5.25 z"
       id="path4043"
       inkscape:connector-curvature="0"
       style="fill:#4d4848" />
  </g>
</svg>
