<?xml version="1.0" encoding="UTF-8" standalone="no"?>
<svg
   xmlns:dc="http://purl.org/dc/elements/1.1/"
   xmlns:cc="http://creativecommons.org/ns#"
   xmlns:rdf="http://www.w3.org/1999/02/22-rdf-syntax-ns#"
   xmlns:svg="http://www.w3.org/2000/svg"
   xmlns="http://www.w3.org/2000/svg"
   xmlns:sodipodi="http://sodipodi.sourceforge.net/DTD/sodipodi-0.dtd"
   xmlns:inkscape="http://www.inkscape.org/namespaces/inkscape"
   width="500"
   height="300"
   viewBox="0 100 500 300"
   version="1.1"
   id="svg4097"
   sodipodi:docname="CZ.svg"
   inkscape:version="0.92.3 (2405546, 2018-03-11)">
  <metadata
     id="metadata4101">
    <rdf:RDF>
      <cc:Work
         rdf:about="">
        <dc:format>image/svg+xml</dc:format>
        <dc:type
           rdf:resource="http://purl.org/dc/dcmitype/StillImage" />
      </cc:Work>
    </rdf:RDF>
  </metadata>
  <sodipodi:namedview
     pagecolor="#ffffff"
     bordercolor="#666666"
     borderopacity="1"
     objecttolerance="10"
     gridtolerance="10"
     guidetolerance="10"
     inkscape:pageopacity="0"
     inkscape:pageshadow="2"
     inkscape:window-width="2560"
     inkscape:window-height="1247"
     id="namedview4099"
     showgrid="false"
     inkscape:zoom="11.776"
     inkscape:cx="356.1834"
     inkscape:cy="307.47792"
     inkscape:window-x="0"
     inkscape:window-y="0"
     inkscape:window-maximized="1"
     inkscape:current-layer="svg4097" />
  <defs
     id="defs4054">
    <style
       id="style4052">.cls-1{fill:#4d4848;}.cls-2{fill:#f47d20;}</style>
  </defs>
  <g
     id="Nodes"
     transform="translate(-60.59859,-5.2357334)">
    <path
       class="cls-1"
       d="m 160.51,251.27 c 0.63,-1.37 1.16,-2.85 1.8,-4.66 a 46.45,46.45 0 0 0 1.8,-6.24 l 6.46,-28 c 0.53,-2.86 0.94,-5 1.06,-6.25 a 16.14,16.14 0 0 0 0.21,-3.38 v -1.27 h 14.61 l -8.79,38.85 q -1,4.13 -1.27,6.35 a 22.31,22.31 0 0 0 -0.32,4.55 z"
       id="path4056"
       inkscape:connector-curvature="0"
       style="fill:#4d4848" />
    <path
       class="cls-2"
       d="M 353.91,115.22 A 17,17 0 0 0 339,140.33 c -1.69,0.85 -5.63,2.82 -11.15,5.69 A 12.661521,12.661521 0 1 0 305.54,158 c -2.83,1.57 -5.78,3.21 -8.8,4.92 a 9.930579,9.930579 0 0 0 -17.16,10 q -4.69,2.8 -9.44,5.72 a 7.25,7.25 0 0 0 -11.69,7.36 339.07,339.07 0 0 0 -34.72,25.32 c -11.48,-25.68 -28.42,-53.87 -52,-76.82 l -0.06,-0.07 c -2.76,-2.72 -5.05,-1.52 -1.88,1.87 l 0.12,0.13 c 20,21.52 35.72,52.67 46.43,81.08 -40.62,34.69 -85.41,101.91 -36.32,123 7.15,3.07 10.4,-2.81 7.33,-4.62 -0.56,-0.32 -22.42,-12.14 -8.52,-48.45 h 35 a 3.39,3.39 0 1 0 0,-6.78 h -32.09 a 137.77,137.77 0 0 1 6.92,-12.85 h 25.16 a 3.4,3.4 0 0 0 0,-6.79 H 193 q 3.88,-5.82 8.78,-12.21 h 12 a 3.4,3.4 0 0 0 0,-6.79 h -6.66 c 3.8,-4.64 8,-9.49 12.63,-14.56 l 0.12,-0.14 c 9.23,26.72 13.68,49.5 12.7,57.1 a 7.93,7.93 0 0 1 -4.27,6.37 c -1.72,0.81 -2.42,3.19 0.27,4 8.6,2.53 13.89,-6 14.84,-12.85 0.95,-6.85 -3.74,-32.19 -16.15,-62.33 a 315.18,315.18 0 0 1 34.54,-29.21 7.16,7.16 0 0 0 3.62,1 7.26,7.26 0 0 0 7.26,-7.26 7.46,7.46 0 0 0 -0.14,-1.43 c 3.24,-2.26 6.47,-4.46 9.66,-6.58 a 9.92,9.92 0 0 0 15.83,-10.16 c 3.18,-2 6.27,-3.86 9.24,-5.64 a 12.65,12.65 0 0 0 21.8,-8.73 12.89,12.89 0 0 0 -0.51,-3.54 c 5.4,-3 9.34,-5.14 11.26,-6.23 a 17,17 0 1 0 14.05,-26.57 z"
       id="path4058"
       inkscape:connector-curvature="0"
       style="fill:#f47d20" />
    <path
       class="cls-1"
       d="m 124.07,251.27 h -43.3 c -4.34,0 -7.3,-1 -8.89,-3 a 8,8 0 0 1 -1.27,-4.77 22.47,22.47 0 0 1 0.74,-5.4 l 5.4,-23.5 c 1.16,-4.76 2.86,-8.15 5.19,-10.16 2.33,-2.01 5.72,-3 10.16,-3 h 32 c 4.55,0 7.52,0.95 9,3 a 7.42,7.42 0 0 1 1.38,4.87 20.37,20.37 0 0 1 -0.74,5.29 l -3.5,15.57 H 86.7 l -2.33,10.16 a 13.79,13.79 0 0 0 -0.31,2.43 c 0,0.53 0,1 0.21,1.16 0.31,0.64 1.27,1 2.75,1 h 31.76 a 38.76,38.76 0 0 0 8.26,-0.84 z m -3.39,-38.85 a 8.39,8.39 0 0 0 0.43,-2.54 3.32,3.32 0 0 0 -0.21,-1.06 c -0.43,-0.63 -1.48,-0.95 -3,-0.95 H 95.49 a 4.43,4.43 0 0 0 -3.18,0.95 5.5,5.5 0 0 0 -1.48,3.6 l -2.65,11.43 H 118 Z"
       id="path4060"
       inkscape:connector-curvature="0"
       style="fill:#4d4848" />
    <path
       class="cls-1"
       d="m 134.86,251.27 c 0.68,-1.54 1.24,-3.2 1.91,-5.22 a 52,52 0 0 0 1.91,-7 l 11.12,-51.5 c 0.68,-3.21 1.12,-5.58 1.35,-7 0.23,-1.42 0.22,-3.09 0.22,-5.23 h 15.5 L 153.06,239 c -0.67,3.09 -1.13,5.47 -1.35,7.13 a 26.34,26.34 0 0 0 -0.34,5.1 z"
       id="path4062"
       inkscape:connector-curvature="0"
       style="fill:#4d4848" />
    <path
       class="cls-1"
       d="m 313.48,209.88 c -1.59,-0.11 -3.17,-0.21 -5,-0.21 h -7.1 a 5.17,5.17 0 0 0 -3.17,0.84 5.7,5.7 0 0 0 -1.8,3.28 l -5.93,26.58 a 40.11,40.11 0 0 0 -1.48,9.74 v 1.16 h -15.43 c 0.64,-1.59 1.27,-3.07 1.7,-4.55 0.43,-1.48 1,-3.5 1.69,-6.35 l 6.35,-28 c 0.74,-2.75 1.06,-4.87 1.38,-6.46 a 31.44,31.44 0 0 0 0.21,-4.44 h 13 l -0.53,5.08 a 9.05,9.05 0 0 1 3.29,-3.81 10.41,10.41 0 0 1 5.6,-1.27 H 319 l 3.07,5.5 a 11.72,11.72 0 0 0 -1.8,2 c -0.74,0.95 -1.27,1.38 -1.59,1.38 -1.91,-0.15 -3.61,-0.35 -5.2,-0.47 z"
       id="path4064"
       inkscape:connector-curvature="0"
       style="fill:#4d4848" />
    <path
       class="cls-1"
       d="m 245,251.27 c 0.63,-1.37 1.16,-2.85 1.8,-4.66 a 45.12,45.12 0 0 0 1.79,-6.24 l 6.47,-28 c 0.53,-2.86 1,-5 1,-6.25 a 15.42,15.42 0 0 0 0.22,-3.38 v -1.27 h 14.6 l -8.78,38.85 q -1,4.13 -1.27,6.35 a 22.31,22.31 0 0 0 -0.32,4.55 z"
       id="path4066"
       inkscape:connector-curvature="0"
       style="fill:#4d4848" />
    <path
       class="cls-1"
       d="m 188.9,184.12 a 7.17,7.17 0 1 1 -7.17,-7.17 7.17,7.17 0 0 1 7.17,7.17 z"
       id="path4068"
       inkscape:connector-curvature="0"
       style="fill:#4d4848" />
    <path
       class="cls-1"
       d="m 235.12,322 a 8.94,8.94 0 0 0 -3.87,-0.7 H 224 c -1.32,0 -2.09,0.41 -2.41,1.7 L 218,337.35 c -0.32,1.28 0.24,1.69 1.56,1.69 h 5.71 c 4.05,0 4.79,-0.29 6.33,-1 l -2.21,5.37 h -16.25 c -4.31,0 -6.19,-2.06 -4.77,-7.77 l 2.72,-10.92 c 1.42,-5.71 4.33,-7.77 8.63,-7.77 h 15.89 z"
       id="path4070"
       inkscape:connector-curvature="0"
       style="fill:#4d4848" />
    <path
       class="cls-1"
       d="M 230.88,343.42 250,321.34 h -8 a 8.11,8.11 0 0 0 -4,0.83 l 2,-5.21 h 25.35 L 246.24,339 h 8 a 9,9 0 0 0 4.06,-0.54 l -1.84,4.92 z"
       id="path4072"
       inkscape:connector-curvature="0"
       style="fill:#4d4848" />
    <path
       class="cls-1"
       d="m 281.18,339 a 14.47,14.47 0 0 0 4.72,-0.7 l -2.17,5.08 H 260.4 a 11.17,11.17 0 0 0 2,-4.54 l 4.33,-17.37 c 0.62,-2.53 0.54,-3.52 0.3,-4.55 h 22.87 l -0.44,5.08 a 11.82,11.82 0 0 0 -4.41,-0.7 h -8.23 l -1.55,6.2 h 7.2 a 14.87,14.87 0 0 0 4.72,-0.7 l -1.44,5.79 a 11.77,11.77 0 0 0 -4.37,-0.7 h -7.2 l -1.77,7.11 z"
       id="path4074"
       inkscape:connector-curvature="0"
       style="fill:#4d4848" />
    <path
       class="cls-1"
       d="m 315.56,322 a 9,9 0 0 0 -3.88,-0.7 h -7.24 c -1.32,0 -2.09,0.41 -2.41,1.7 l -3.56,14.31 c -0.32,1.28 0.24,1.69 1.57,1.69 h 5.7 c 4.06,0 4.79,-0.29 6.33,-1 l -2.21,5.37 h -16.29 c -4.3,0 -6.19,-2.06 -4.77,-7.77 l 2.72,-10.92 c 1.42,-5.71 4.34,-7.77 8.64,-7.77 H 316 Z"
       id="path4076"
       inkscape:connector-curvature="0"
       style="fill:#4d4848" />
    <path
       class="cls-1"
       d="m 334.91,327.54 1.5,-6 c 0.63,-2.53 0.54,-3.52 0.3,-4.55 h 11.75 a 11.3,11.3 0 0 0 -2,4.55 l -4.32,17.37 c -0.63,2.52 -0.55,3.51 -0.31,4.54 h -11.7 a 11.31,11.31 0 0 0 2,-4.54 l 1.73,-6.95 h -7.53 l -1.73,6.95 c -0.63,2.52 -0.55,3.51 -0.31,4.54 h -11.78 a 11.31,11.31 0 0 0 2,-4.54 l 4.32,-17.37 c 0.63,-2.53 0.54,-3.52 0.31,-4.55 h 11.74 a 11.3,11.3 0 0 0 -2,4.55 l -1.5,6 z"
       id="path4078"
       inkscape:connector-curvature="0"
       style="fill:#4d4848" />
    <path
       class="cls-1"
       d="m 219.8,373.28 -1.73,7 c -0.62,2.52 -0.54,3.52 -0.3,4.55 H 206 a 11.23,11.23 0 0 0 2,-4.55 l 4.33,-17.37 c 0.62,-2.52 0.54,-3.52 0.05,-4.55 h 21.76 c 4.63,0 6.51,1.41 5.41,5.83 l -1.23,4.81 c -1,3.89 -2.93,4.1 -5.12,4.26 l 1.75,7.45 a 14.48,14.48 0 0 0 1.18,4 h -11.29 l -1.94,-11.5 z m 1.09,-4.38 h 5.71 c 1.28,0 1.71,-0.21 2,-1.49 l 0.8,-3.23 c 0.32,-1.28 0,-1.49 -1.29,-1.49 h -5.7 z"
       id="path4080"
       inkscape:connector-curvature="0"
       style="fill:#4d4848" />
    <path
       class="cls-1"
       d="m 259,380.4 a 14.53,14.53 0 0 0 4.73,-0.71 l -2.18,5.09 H 238.2 a 11.37,11.37 0 0 0 2,-4.55 l 4.32,-17.37 c 0.63,-2.52 0.54,-3.52 0.3,-4.55 h 22.88 l -0.44,5.09 a 11.87,11.87 0 0 0 -4.42,-0.71 h -8.23 l -1.54,6.21 h 7.19 a 14.66,14.66 0 0 0 4.73,-0.71 l -1.44,5.81 a 11.84,11.84 0 0 0 -4.38,-0.7 H 252 l -1.77,7.12 z"
       id="path4082"
       inkscape:connector-curvature="0"
       style="fill:#4d4848" />
    <path
       class="cls-1"
       d="m 276.3,380.23 a 8.73,8.73 0 0 0 -0.31,4.55 h -11.74 a 11.37,11.37 0 0 0 2,-4.55 l 4.32,-17.37 c 0.63,-2.52 0.55,-3.52 0.06,-4.55 h 21.67 c 3.93,0 6.43,1.08 5.09,6.45 l -1,4.14 c -1.33,5.37 -4.37,6.45 -8.3,6.45 h -10.58 z m 2.31,-9.26 h 5.29 c 1.44,0 1.92,-0.42 2.38,-2.28 l 0.93,-3.72 c 0.46,-1.86 0.21,-2.32 -1.25,-2.28 h -5.3 z"
       id="path4084"
       inkscape:connector-curvature="0"
       style="fill:#4d4848" />
    <path
       class="cls-1"
       d="m 317.32,380.4 c 2.82,0 3.09,-0.29 3.68,-2.65 l 3.66,-14.68 c 0.74,-3 0.75,-3.52 0.19,-4.76 h 6.37 c -1.18,1.24 -1.44,1.78 -2.18,4.76 l -3.37,13.52 c -1.5,6 -3.69,8.19 -9.44,8.19 h -13.4 c -5.17,0 -6.66,-2.65 -5.28,-8.19 L 301,362.86 c 0.63,-2.52 0.54,-3.52 0.3,-4.55 H 313 a 11.37,11.37 0 0 0 -2,4.55 l -3.75,15.05 c -0.43,1.74 0.13,2.49 1.91,2.49 z"
       id="path4086"
       inkscape:connector-curvature="0"
       style="fill:#4d4848" />
    <path
       class="cls-1"
       d="m 333.35,362.86 c 0.63,-2.52 0.54,-3.52 0.3,-4.55 h 21.67 c 5.59,0 6.31,2.23 5.51,5.46 l -0.75,3 c -0.83,3.35 -3.05,3.93 -6.8,4.22 v 0.08 c 4.25,0.54 5.49,1 4.79,3.85 l -1.07,4.4 c -0.8,3.23 -2.64,5.46 -8.22,5.46 h -21.71 a 11.37,11.37 0 0 0 2,-4.55 z m 5.73,17.54 H 345 c 1.28,0 1.7,-0.21 2,-1.49 l 1,-4.14 c 0.32,-1.28 0,-1.49 -1.28,-1.49 h -5.87 z m 2.86,-11.5 h 5.87 c 1.28,0 1.71,-0.21 2,-1.49 l 0.81,-3.23 c 0.32,-1.28 0,-1.49 -1.29,-1.49 h -5.87 z"
       id="path4088"
       inkscape:connector-curvature="0"
       style="fill:#4d4848" />
    <path
       class="cls-1"
       d="m 379.31,380.4 a 10.94,10.94 0 0 0 4.56,-0.87 l -2.17,5.25 h -22.83 a 11.37,11.37 0 0 0 2,-4.55 l 4.32,-17.37 c 0.63,-2.52 0.54,-3.52 0.3,-4.55 h 11.71 a 11.37,11.37 0 0 0 -2,4.55 l -4.36,17.54 z"
       id="path4090"
       inkscape:connector-curvature="0"
       style="fill:#4d4848" />
    <path
       class="cls-1"
       d="m 384.46,384.78 a 11.09,11.09 0 0 0 2,-4.55 l 4.33,-17.37 c 0.63,-2.52 0.54,-3.52 0.3,-4.55 h 11.71 a 11.23,11.23 0 0 0 -2,4.55 l -4.32,17.37 c -0.63,2.52 -0.55,3.52 -0.31,4.55 z"
       id="path4092"
       inkscape:connector-curvature="0"
       style="fill:#4d4848" />
    <path
       class="cls-1"
       d="m 428.91,363.4 a 8.82,8.82 0 0 0 -3.88,-0.71 h -7.24 c -1.32,0 -2.08,0.42 -2.4,1.7 l -3.57,14.31 c -0.31,1.28 0.24,1.7 1.57,1.7 h 5.7 c 4.06,0 4.79,-0.29 6.33,-1 l -2.21,5.38 h -16.29 c -4.3,0 -6.19,-2.07 -4.76,-7.78 l 2.71,-10.91 c 1.42,-5.71 4.34,-7.78 8.64,-7.78 h 15.88 z"
       id="path4094"
       inkscape:connector-curvature="0"
       style="fill:#4d4848" />
  </g>
</svg>
