<?xml version="1.0" encoding="UTF-8"?>
<svg width="360px" height="270px" viewBox="0 0 360 270" version="1.1" xmlns="http://www.w3.org/2000/svg" xmlns:xlink="http://www.w3.org/1999/xlink" xmlns:sketch="http://www.bohemiancoding.com/sketch/ns">
    <!-- Generator: Sketch 3.3.2 (12043) - http://www.bohemiancoding.com/sketch -->
    <title>Nodes</title>
    <desc>Created with Sketch.</desc>
    <defs></defs>
    <g id="Page-1" stroke="none" stroke-width="1" fill="none" fill-rule="evenodd" sketch:type="MSPage">
        <g id="Nodes" sketch:type="MSLayerGroup">
            <path d="M90.51,136.27 C91.14,134.9 91.67,133.42 92.31,131.61 C93.0548513,129.574544 93.656321,127.489448 94.11,125.37 L100.57,97.37 C101.1,94.51 101.51,92.37 101.63,91.12 C101.818333,90.0038147 101.88872,88.8709135 101.84,87.74 L101.84,86.47 L116.45,86.47 L107.66,125.32 C106.993333,128.073333 106.57,130.19 106.39,131.67 C106.128166,133.171751 106.02094,134.696384 106.07,136.22 L90.51,136.27 Z" id="Shape" fill="#4D4848" sketch:type="MSShapeGroup"></path>
            <path d="M283.91,0.22 C277.921758,0.230848629 272.380884,3.39146763 269.323507,8.54040979 C266.26613,13.6893519 266.143242,20.0671025 269,25.33 C267.31,26.18 263.37,28.15 257.85,31.02 C255.709979,27.0347022 251.606387,24.4938228 247.085008,24.3544864 C242.563628,24.21515 238.311366,26.4985251 235.930008,30.3444865 C233.548649,34.1904478 233.399979,39.0147023 235.54,43 C232.71,44.57 229.76,46.21 226.74,47.92 C223.978576,43.1813971 217.898603,41.5785767 213.16,44.3400004 C208.421397,47.101424 206.818577,53.1813969 209.58,57.92 C206.453333,59.7866667 203.306667,61.6933333 200.14,63.64 C197.726957,61.6072762 194.276334,61.3685262 191.606335,63.0495522 C188.936336,64.7305783 187.660059,67.9453745 188.45,71 C176.35295,78.6974026 164.756335,87.1543817 153.73,96.32 C142.25,70.64 125.31,42.45 101.73,19.5 L101.67,19.43 C98.91,16.71 96.62,17.91 99.79,21.3 L99.91,21.43 C119.91,42.95 135.63,74.1 146.34,102.51 C105.72,137.2 60.93,204.42 110.02,225.51 C117.17,228.58 120.42,222.7 117.35,220.89 C116.79,220.57 94.93,208.75 108.83,172.44 L143.83,172.44 C145.702245,172.44 147.22,170.922245 147.22,169.05 C147.22,167.177755 145.702245,165.66 143.83,165.66 L111.74,165.66 C113.818007,161.25741 116.127914,156.968059 118.66,152.81 L143.82,152.81 C145.623492,152.712084 147.035677,151.221148 147.035677,149.415 C147.035677,147.608852 145.623492,146.117916 143.82,146.02 L123,146.02 C125.586667,142.14 128.513333,138.07 131.78,133.81 L143.78,133.81 C145.583492,133.712084 146.995677,132.221148 146.995677,130.415 C146.995677,128.608852 145.583492,127.117916 143.78,127.02 L137.12,127.02 C140.92,122.38 145.12,117.53 149.75,112.46 L149.87,112.32 C159.1,139.04 163.55,161.82 162.57,169.42 C162.336235,172.136149 160.723656,174.541799 158.3,175.79 C156.58,176.6 155.88,178.98 158.57,179.79 C167.17,182.32 172.46,173.79 173.41,166.94 C174.36,160.09 169.67,134.75 157.26,104.61 C168.058857,94.0586248 179.601911,84.2968231 191.8,75.4 C192.896194,76.0494948 194.14585,76.3947037 195.42,76.4 C199.429587,76.4 202.68,73.1495873 202.68,69.14 C202.679453,68.6599391 202.632569,68.1810517 202.54,67.71 C205.78,65.45 209.01,63.25 212.2,61.13 C215.523988,63.799059 220.181553,64.0460147 223.76915,61.7434252 C227.356748,59.4408357 229.072101,55.1036182 228.03,50.97 C231.21,48.97 234.3,47.11 237.27,45.33 C240.839261,49.068843 246.324199,50.2600017 251.122737,48.3383856 C255.921274,46.4167694 259.067963,41.7690005 259.07,36.6 C259.065327,35.4020339 258.893675,34.2105676 258.56,33.06 C263.96,30.06 267.9,27.92 269.82,26.83 C274.37497,33.5175002 283.012243,36.0678148 290.469189,32.9270552 C297.926135,29.7862957 302.136039,21.824933 300.533836,13.8937692 C298.931633,5.96260535 291.961379,0.259786584 283.87,0.26 L283.91,0.22 Z" id="Shape" fill="#F47D20" sketch:type="MSShapeGroup"></path>
            <path d="M54.07,136.27 L10.77,136.27 C6.43,136.27 3.47,135.27 1.88,133.27 C0.96445459,131.853617 0.519955183,130.184119 0.61,128.5 C0.636634273,126.676641 0.885128593,124.863304 1.35,123.1 L6.75,99.6 C7.91,94.84 9.61,91.45 11.94,89.44 C14.27,87.43 17.66,86.44 22.1,86.44 L54.1,86.44 C58.65,86.44 61.62,87.39 63.1,89.44 C64.1165962,90.8514036 64.6050345,92.5750953 64.48,94.31 C64.4665992,96.0981706 64.2177939,97.8767918 63.74,99.6 L60.24,115.17 L16.7,115.17 L14.37,125.33 C14.1947835,126.1292 14.0910409,126.942408 14.06,127.76 C14.06,128.29 14.06,128.76 14.27,128.92 C14.58,129.56 15.54,129.92 17.02,129.92 L48.78,129.92 C51.5554671,129.936548 54.3246834,129.654932 57.04,129.08 L54.07,136.27 Z M50.68,97.42 C50.9532378,96.6005183 51.0982805,95.7437544 51.11,94.88 C51.0983575,94.5175693 51.027418,94.159494 50.9,93.82 C50.47,93.19 49.42,92.87 47.9,92.87 L25.49,92.87 C24.3469452,92.762636 23.2068513,93.1032301 22.31,93.82 C21.3943436,94.7994817 20.8680256,96.0797146 20.83,97.42 L18.18,108.85 L48,108.85 L50.68,97.42 Z" id="Shape" fill="#4D4848" sketch:type="MSShapeGroup"></path>
            <path d="M64.86,136.27 C65.54,134.73 66.1,133.07 66.77,131.05 C67.5688813,128.763986 68.2071012,126.42496 68.68,124.05 L79.8,72.55 C80.48,69.34 80.92,66.97 81.15,65.55 C81.38,64.13 81.37,62.46 81.37,60.32 L96.87,60.32 L83.06,124 C82.39,127.09 81.93,129.47 81.71,131.13 C81.4316007,132.814958 81.3177314,134.522998 81.37,136.23 L64.86,136.27 Z" id="Shape" fill="#4D4848" sketch:type="MSShapeGroup"></path>
            <path d="M243.48,94.88 C241.89,94.77 240.31,94.67 238.48,94.67 L231.38,94.67 C230.260175,94.5985712 229.147511,94.8934098 228.21,95.51 C227.258041,96.3696635 226.62386,97.5252823 226.41,98.79 L220.48,125.37 C219.588304,128.543515 219.091222,131.814852 219,135.11 L219,136.27 L203.57,136.27 C204.21,134.68 204.84,133.2 205.27,131.72 C205.7,130.24 206.27,128.22 206.96,125.37 L213.31,97.37 C214.05,94.62 214.37,92.5 214.69,90.91 C214.864664,89.436808 214.934839,87.9531009 214.9,86.47 L227.9,86.47 L227.37,91.55 C228.084283,89.994418 229.225086,88.673305 230.66,87.74 C232.370686,86.8000263 234.311184,86.359949 236.26,86.47 L249,86.47 L252.07,91.97 C251.395208,92.5653523 250.791228,93.2364405 250.27,93.97 C249.53,94.92 249,95.35 248.68,95.35 C246.77,95.2 245.07,95 243.48,94.88 L243.48,94.88 Z" id="Shape" fill="#4D4848" sketch:type="MSShapeGroup"></path>
            <path d="M175,136.27 C175.63,134.9 176.16,133.42 176.8,131.61 C177.545717,129.575677 178.143932,127.490281 178.59,125.37 L185.06,97.37 C185.59,94.51 186.06,92.37 186.06,91.12 C186.257228,90.0048302 186.331006,88.871327 186.28,87.74 L186.28,86.47 L200.88,86.47 L192.1,125.32 C191.433333,128.073333 191.01,130.19 190.83,131.67 C190.568166,133.171751 190.46094,134.696384 190.51,136.22 L175,136.27 Z" id="Shape" fill="#4D4848" sketch:type="MSShapeGroup"></path>
            <path d="M118.9,69.12 C118.9,73.0798817 115.689882,76.29 111.73,76.29 C107.770118,76.29 104.56,73.0798817 104.56,69.12 C104.56,65.1601183 107.770118,61.95 111.73,61.95 C115.689882,61.95 118.9,65.1601183 118.9,69.12 L118.9,69.12 Z" id="Shape" fill="#4D4848" sketch:type="MSShapeGroup"></path>
            <path d="M165.12,207 C163.897951,206.4823 162.575967,206.243181 161.25,206.3 L154,206.3 C152.68,206.3 151.91,206.71 151.59,208 L148,222.35 C147.68,223.63 148.24,224.04 149.56,224.04 L155.27,224.04 C159.32,224.04 160.06,223.75 161.6,223.04 L159.39,228.41 L143.14,228.41 C138.83,228.41 136.95,226.35 138.37,220.64 L141.09,209.72 C142.51,204.01 145.42,201.95 149.72,201.95 L165.61,201.95 L165.12,207 Z" id="Shape" fill="#4D4848" sketch:type="MSShapeGroup"></path>
            <path d="M160.88,228.42 L180,206.34 L172,206.34 C170.617687,206.270816 169.240667,206.556548 168,207.17 L170,201.96 L195.35,201.96 L176.24,224 L184.24,224 C185.616849,224.134425 187.006155,223.94964 188.3,223.46 L186.46,228.38 L160.88,228.42 Z" id="Shape" fill="#4D4848" sketch:type="MSShapeGroup"></path>
            <path d="M211.18,224 C212.78123,224.029473 214.376245,223.792924 215.9,223.3 L213.73,228.38 L190.4,228.38 C191.398551,227.035716 192.082074,225.484119 192.4,223.84 L196.73,206.47 C197.35,203.94 197.27,202.95 197.03,201.92 L219.9,201.92 L219.46,207 C218.047824,206.488605 216.551123,206.251034 215.05,206.3 L206.82,206.3 L205.27,212.5 L212.47,212.5 C214.070757,212.522267 215.664606,212.285891 217.19,211.8 L215.75,217.59 C214.350701,217.082437 212.867825,216.844905 211.38,216.89 L204.18,216.89 L202.41,224 L211.18,224 Z" id="Shape" fill="#4D4848" sketch:type="MSShapeGroup"></path>
            <path d="M245.56,207 C244.334299,206.482767 243.009174,206.243698 241.68,206.3 L234.44,206.3 C233.12,206.3 232.35,206.71 232.03,208 L228.47,222.31 C228.15,223.59 228.71,224 230.04,224 L235.74,224 C239.8,224 240.53,223.71 242.07,223 L239.86,228.37 L223.57,228.37 C219.27,228.37 217.38,226.31 218.8,220.6 L221.52,209.68 C222.94,203.97 225.86,201.91 230.16,201.91 L246,201.91 L245.56,207 Z" id="Shape" fill="#4D4848" sketch:type="MSShapeGroup"></path>
            <path d="M264.91,212.54 L266.41,206.54 C267.04,204.01 266.95,203.02 266.71,201.99 L278.46,201.99 C277.463918,203.339442 276.780728,204.893699 276.46,206.54 L272.14,223.91 C271.51,226.43 271.59,227.42 271.83,228.45 L260.13,228.45 C261.124445,227.103331 261.807543,225.552699 262.13,223.91 L263.86,216.96 L256.33,216.96 L254.6,223.91 C253.97,226.43 254.05,227.42 254.29,228.45 L242.51,228.45 C243.504445,227.103331 244.187543,225.552699 244.51,223.91 L248.83,206.54 C249.46,204.01 249.37,203.02 249.14,201.99 L260.88,201.99 C259.883918,203.339442 259.200728,204.893699 258.88,206.54 L257.38,212.54 L264.91,212.54 Z" id="Shape" fill="#4D4848" sketch:type="MSShapeGroup"></path>
            <path d="M149.8,258.28 L148.07,265.28 C147.45,267.8 147.53,268.8 147.77,269.83 L136,269.83 C136.998134,268.481748 137.681536,266.927008 138,265.28 L142.33,247.91 C142.95,245.39 142.87,244.39 142.38,243.36 L164.14,243.36 C168.77,243.36 170.65,244.77 169.55,249.19 L168.32,254 C167.32,257.89 165.39,258.1 163.2,258.26 L164.95,265.71 C165.148259,267.093287 165.545713,268.440591 166.13,269.71 L154.84,269.71 L152.9,258.21 L149.8,258.28 Z M150.89,253.9 L156.6,253.9 C157.88,253.9 158.31,253.69 158.6,252.41 L159.4,249.18 C159.72,247.9 159.4,247.69 158.11,247.69 L152.41,247.69 L150.89,253.9 Z" id="Shape" fill="#4D4848" sketch:type="MSShapeGroup"></path>
            <path d="M189,265.4 C190.605062,265.426244 192.203379,265.186327 193.73,264.69 L191.55,269.78 L168.2,269.78 C169.194055,268.429385 169.877037,266.8756 170.2,265.23 L174.52,247.86 C175.15,245.34 175.06,244.34 174.82,243.31 L197.7,243.31 L197.26,248.4 C195.845035,247.885134 194.34503,247.644183 192.84,247.69 L184.61,247.69 L183.07,253.9 L190.26,253.9 C191.864903,253.923866 193.462833,253.684008 194.99,253.19 L193.55,259 C192.147133,258.492831 190.66106,258.25533 189.17,258.3 L182,258.3 L180.23,265.42 L189,265.4 Z" id="Shape" fill="#4D4848" sketch:type="MSShapeGroup"></path>
            <path d="M206.3,265.23 C205.795341,266.692409 205.688357,268.262657 205.99,269.78 L194.25,269.78 C195.244055,268.429385 195.927037,266.8756 196.25,265.23 L200.57,247.86 C201.2,245.34 201.12,244.34 200.63,243.31 L222.3,243.31 C226.23,243.31 228.73,244.39 227.39,249.76 L226.39,253.9 C225.06,259.27 222.02,260.35 218.09,260.35 L207.51,260.35 L206.3,265.23 Z M208.61,255.97 L213.9,255.97 C215.34,255.97 215.82,255.55 216.28,253.69 L217.21,249.97 C217.67,248.11 217.42,247.65 215.96,247.69 L210.66,247.69 L208.61,255.97 Z" id="Shape" fill="#4D4848" sketch:type="MSShapeGroup"></path>
            <path d="M247.32,265.4 C250.14,265.4 250.41,265.11 251,262.75 L254.66,248.07 C255.4,245.07 255.41,244.55 254.85,243.31 L261.22,243.31 C260.04,244.55 259.78,245.09 259.04,248.07 L255.67,261.59 C254.17,267.59 251.98,269.78 246.23,269.78 L232.83,269.78 C227.66,269.78 226.17,267.13 227.55,261.59 L231,247.86 C231.63,245.34 231.54,244.34 231.3,243.31 L243,243.31 C242.005945,244.660615 241.322963,246.2144 241,247.86 L237.25,262.91 C236.82,264.65 237.38,265.4 239.16,265.4 L247.32,265.4 Z" id="Shape" fill="#4D4848" sketch:type="MSShapeGroup"></path>
            <path d="M263.35,247.86 C263.98,245.34 263.89,244.34 263.65,243.31 L285.32,243.31 C290.91,243.31 291.63,245.54 290.83,248.77 L290.08,251.77 C289.25,255.12 287.03,255.7 283.28,255.99 L283.28,256.07 C287.53,256.61 288.77,257.07 288.07,259.92 L287,264.32 C286.2,267.55 284.36,269.78 278.78,269.78 L257.07,269.78 C258.064055,268.429385 258.747037,266.8756 259.07,265.23 L263.35,247.86 Z M269.08,265.4 L275,265.4 C276.28,265.4 276.7,265.19 277,263.91 L278,259.77 C278.32,258.49 278,258.28 276.72,258.28 L270.85,258.28 L269.08,265.4 Z M271.94,253.9 L277.81,253.9 C279.09,253.9 279.52,253.69 279.81,252.41 L280.62,249.18 C280.94,247.9 280.62,247.69 279.33,247.69 L273.46,247.69 L271.94,253.9 Z" id="Shape" fill="#4D4848" sketch:type="MSShapeGroup"></path>
            <path d="M309.31,265.4 C310.874735,265.439549 312.42974,265.142871 313.87,264.53 L311.7,269.78 L288.87,269.78 C289.864055,268.429385 290.547037,266.8756 290.87,265.23 L295.19,247.86 C295.82,245.34 295.73,244.34 295.49,243.31 L307.2,243.31 C306.205945,244.660615 305.522963,246.2144 305.2,247.86 L300.84,265.4 L309.31,265.4 Z" id="Shape" fill="#4D4848" sketch:type="MSShapeGroup"></path>
            <path d="M314.46,269.78 C315.462317,268.434179 316.146155,266.878447 316.46,265.23 L320.79,247.86 C321.42,245.34 321.33,244.34 321.09,243.31 L332.8,243.31 C331.801866,244.658252 331.118464,246.212992 330.8,247.86 L326.48,265.23 C325.85,267.75 325.93,268.75 326.17,269.78 L314.46,269.78 Z" id="Shape" fill="#4D4848" sketch:type="MSShapeGroup"></path>
            <path d="M358.91,248.4 C357.686849,247.873461 356.360348,247.630725 355.03,247.69 L347.79,247.69 C346.47,247.69 345.71,248.11 345.39,249.39 L341.82,263.7 C341.51,264.98 342.06,265.4 343.39,265.4 L349.09,265.4 C353.15,265.4 353.88,265.11 355.42,264.4 L353.21,269.78 L336.92,269.78 C332.62,269.78 330.73,267.71 332.16,262 L334.87,251.09 C336.29,245.38 339.21,243.31 343.51,243.31 L359.39,243.31 L358.91,248.4 Z" id="Shape" fill="#4D4848" sketch:type="MSShapeGroup"></path>
        </g>
    </g>
</svg>