<?xml version="1.0" encoding="UTF-8" standalone="no"?>
<svg
   xmlns:dc="http://purl.org/dc/elements/1.1/"
   xmlns:cc="http://creativecommons.org/ns#"
   xmlns:rdf="http://www.w3.org/1999/02/22-rdf-syntax-ns#"
   xmlns:svg="http://www.w3.org/2000/svg"
   xmlns="http://www.w3.org/2000/svg"
   xmlns:sodipodi="http://sodipodi.sourceforge.net/DTD/sodipodi-0.dtd"
   xmlns:inkscape="http://www.inkscape.org/namespaces/inkscape"
   width="500"
   height="300"
   viewBox="0 100 500 300"
   version="1.1"
   id="svg4136"
   sodipodi:docname="DE.svg"
   inkscape:version="0.92.3 (2405546, 2018-03-11)">
  <metadata
     id="metadata4140">
    <rdf:RDF>
      <cc:Work
         rdf:about="">
        <dc:format>image/svg+xml</dc:format>
        <dc:type
           rdf:resource="http://purl.org/dc/dcmitype/StillImage" />
      </cc:Work>
    </rdf:RDF>
  </metadata>
  <sodipodi:namedview
     pagecolor="#ffffff"
     bordercolor="#666666"
     borderopacity="1"
     objecttolerance="10"
     gridtolerance="10"
     guidetolerance="10"
     inkscape:pageopacity="0"
     inkscape:pageshadow="2"
     inkscape:window-width="2560"
     inkscape:window-height="1247"
     id="namedview4138"
     showgrid="false"
     inkscape:zoom="11.776"
     inkscape:cx="350.09823"
     inkscape:cy="259.7711"
     inkscape:window-x="0"
     inkscape:window-y="0"
     inkscape:window-maximized="1"
     inkscape:current-layer="svg4136" />
  <defs
     id="defs4105">
    <style
       id="style4103">.cls-1{fill:#4d4848;}.cls-2{fill:#f47d20;}</style>
  </defs>
  <g
     id="Nodes"
     transform="translate(-55.509078,-25.915082)">
    <path
       class="cls-1"
       d="m 155.42,272 c 0.63,-1.38 1.17,-2.86 1.8,-4.66 A 44.79,44.79 0 0 0 159,261 l 6.46,-27.94 c 0.53,-2.86 1,-5 1.06,-6.25 a 16.19,16.19 0 0 0 0.21,-3.39 v -1.27 h 14.61 L 172.57,261 c -0.63,2.76 -1,4.87 -1.27,6.36 A 22.21,22.21 0 0 0 171,272 Z"
       id="path4107"
       inkscape:connector-curvature="0"
       style="fill:#4d4848" />
    <path
       class="cls-2"
       d="m 348.82,135.9 a 17,17 0 0 0 -17,17 16.81,16.81 0 0 0 2.06,8.11 c -1.7,0.84 -5.64,2.82 -11.16,5.69 a 12.64,12.64 0 1 0 -22.27,11.93 c -2.84,1.56 -5.79,3.21 -8.81,4.92 a 9.930579,9.930579 0 0 0 -17.16,10 q -4.69,2.79 -9.43,5.72 a 7.26,7.26 0 0 0 -11.95,5.54 7.08,7.08 0 0 0 0.25,1.86 342.1,342.1 0 0 0 -34.71,25.33 c -11.48,-25.68 -28.41,-53.87 -52,-76.82 l -0.07,-0.06 c -2.76,-2.72 -5,-1.52 -1.87,1.86 l 0.12,0.13 c 20,21.53 35.72,52.68 46.43,81.09 -40.63,34.69 -85.42,101.91 -36.33,123 7.15,3.08 10.41,-2.8 7.33,-4.61 -0.55,-0.33 -22.42,-12.14 -8.52,-48.45 h 35 a 3.4,3.4 0 0 0 0,-6.79 h -32.08 a 136.82,136.82 0 0 1 6.93,-12.84 h 25.15 a 3.4,3.4 0 1 0 0,-6.79 H 187.9 c 2.6,-3.89 5.51,-7.95 8.79,-12.21 h 12 a 3.4,3.4 0 1 0 0,-6.79 h -6.66 c 3.8,-4.64 8,-9.49 12.64,-14.57 l 0.12,-0.13 c 9.22,26.72 13.67,49.5 12.7,57.09 a 7.93,7.93 0 0 1 -4.27,6.38 c -1.72,0.81 -2.43,3.18 0.27,4 8.59,2.53 13.88,-6 14.84,-12.85 0.96,-6.85 -3.75,-32.19 -16.16,-62.34 a 316.22,316.22 0 0 1 34.54,-29.2 7.26,7.26 0 0 0 10.74,-7.71 c 3.24,-2.26 6.47,-4.46 9.66,-6.58 A 9.92,9.92 0 0 0 293,186.61 c 3.19,-2 6.28,-3.86 9.24,-5.64 a 12.65,12.65 0 0 0 21.29,-12.28 c 5.4,-3 9.34,-5.13 11.27,-6.23 a 17,17 0 1 0 14,-26.56 z"
       id="path4109"
       inkscape:connector-curvature="0"
       style="fill:#f47d20" />
    <path
       class="cls-1"
       d="M 119,272 H 75.69 c -4.34,0 -7.3,-0.95 -8.9,-3 a 8,8 0 0 1 -1.27,-4.76 23,23 0 0 1 0.74,-5.4 l 5.41,-23.5 c 1.16,-4.76 2.85,-8.15 5.18,-10.17 2.33,-2.02 5.72,-3 10.17,-3 h 32 c 4.55,0 7.51,1 9,3 a 7.47,7.47 0 0 1 1.38,4.88 20.37,20.37 0 0 1 -0.74,5.29 l -3.5,15.57 H 81.61 L 79.28,261 a 13.87,13.87 0 0 0 -0.31,2.44 c 0,0.53 0,0.95 0.21,1.16 0.32,0.64 1.27,1 2.76,1 h 31.75 a 38.76,38.76 0 0 0 8.26,-0.84 z m -3.4,-38.9 a 8.38,8.38 0 0 0 0.42,-2.54 3.07,3.07 0 0 0 -0.21,-1.06 c -0.43,-0.64 -1.48,-0.95 -3,-0.95 H 90.4 a 4.38,4.38 0 0 0 -3.18,0.95 5.5,5.5 0 0 0 -1.48,3.6 L 83.1,244.53 H 113 Z"
       id="path4111"
       inkscape:connector-curvature="0"
       style="fill:#4d4848" />
    <path
       class="cls-1"
       d="m 129.78,272 c 0.67,-1.54 1.23,-3.2 1.91,-5.22 a 53.53,53.53 0 0 0 1.91,-7 l 11.12,-51.5 c 0.67,-3.21 1.12,-5.58 1.34,-7 0.22,-1.42 0.23,-3.08 0.23,-5.22 h 15.49 L 148,259.72 q -1,4.63 -1.35,7.13 a 27.12,27.12 0 0 0 -0.33,5.1 z"
       id="path4113"
       inkscape:connector-curvature="0"
       style="fill:#4d4848" />
    <path
       class="cls-1"
       d="m 308.4,230.56 c -1.6,-0.11 -3.18,-0.22 -5,-0.22 h -7.09 a 5.2,5.2 0 0 0 -3.18,0.85 5.78,5.78 0 0 0 -1.8,3.28 L 285.42,261 a 40.68,40.68 0 0 0 -1.48,9.74 V 272 h -15.45 c 0.63,-1.59 1.27,-3.08 1.69,-4.55 0.42,-1.47 0.95,-3.5 1.69,-6.36 l 6.35,-27.94 c 0.75,-2.76 1.06,-4.87 1.39,-6.46 a 31.58,31.58 0 0 0 0.21,-4.45 h 13 l -0.53,5.08 a 9,9 0 0 1 3.28,-3.81 10.52,10.52 0 0 1 5.61,-1.27 h 12.7 l 3.07,5.5 a 12.26,12.26 0 0 0 -1.8,2 c -0.74,0.95 -1.27,1.37 -1.58,1.37 -1.89,-0.23 -3.57,-0.45 -5.17,-0.55 z"
       id="path4115"
       inkscape:connector-curvature="0"
       style="fill:#4d4848" />
    <path
       class="cls-1"
       d="m 239.9,272 c 0.62,-1.38 1.15,-2.86 1.79,-4.66 a 44.79,44.79 0 0 0 1.8,-6.25 L 250,233.1 c 0.53,-2.86 1,-5 1.05,-6.25 a 15.47,15.47 0 0 0 0.22,-3.39 v -1.27 h 14.6 L 257,261 c -0.63,2.76 -1.06,4.87 -1.27,6.36 a 22.21,22.21 0 0 0 -0.32,4.55 z"
       id="path4117"
       inkscape:connector-curvature="0"
       style="fill:#4d4848" />
    <path
       class="cls-1"
       d="m 183.81,204.79 a 7.17,7.17 0 1 1 -7.16,-7.17 7.17,7.17 0 0 1 7.16,7.17 z"
       id="path4119"
       inkscape:connector-curvature="0"
       style="fill:#4d4848" />
    <path
       class="cls-1"
       d="m 234.09,348.22 a 7.63,7.63 0 0 0 -2.27,4.14 l -1.63,6.53 c -0.81,3.27 -0.78,3.81 -0.22,5.21 h -8.89 l 0.27,-2.44 h -0.08 c -0.83,1.53 -1.43,2.44 -4.29,2.44 h -8.93 c -4.3,0 -6.19,-2.07 -4.77,-7.77 L 206,345.41 c 1.42,-5.71 4.34,-7.78 8.64,-7.78 H 234 l -0.48,5.09 a 9,9 0 0 0 -3.88,-0.7 h -10.72 c -1.32,0 -2.09,0.41 -2.4,1.69 L 213,358 c -0.32,1.28 0.24,1.7 1.57,1.7 h 3.39 c 1.32,0 2.09,-0.42 2.41,-1.7 l 1.34,-5.42 h -3.81 a 4.16,4.16 0 0 0 -1.82,0.5 l 1.22,-4.88 z"
       id="path4121"
       inkscape:connector-curvature="0"
       style="fill:#4d4848" />
    <path
       class="cls-1"
       d="m 253.1,359.72 a 14.47,14.47 0 0 0 4.72,-0.7 l -2.17,5.08 h -23.33 a 11.16,11.16 0 0 0 2,-4.55 l 4.33,-17.37 c 0.62,-2.52 0.54,-3.51 0.3,-4.55 h 22.91 l -0.44,5.09 A 11.82,11.82 0 0 0 257,342 h -8.23 l -1.55,6.2 h 7.2 a 14.87,14.87 0 0 0 4.72,-0.7 l -1.44,5.79 a 11.68,11.68 0 0 0 -4.37,-0.71 h -7.2 l -1.77,7.12 z"
       id="path4123"
       inkscape:connector-curvature="0"
       style="fill:#4d4848" />
    <path
       class="cls-1"
       d="m 272.16,352.6 -1.73,6.95 c -0.63,2.53 -0.55,3.52 -0.31,4.55 h -11.74 a 11.3,11.3 0 0 0 2,-4.55 l 4.32,-17.37 c 0.63,-2.52 0.54,-3.51 0.06,-4.55 h 21.75 c 4.63,0 6.52,1.41 5.41,5.83 l -1.21,4.88 c -1,3.89 -2.92,4.1 -5.11,4.26 l 1.74,7.45 a 14.82,14.82 0 0 0 1.18,4.05 h -11.33 l -1.93,-11.5 z m 1.09,-4.38 H 279 c 1.29,0 1.71,-0.21 2,-1.49 l 0.8,-3.22 c 0.32,-1.29 0,-1.49 -1.28,-1.49 h -5.71 z"
       id="path4125"
       inkscape:connector-curvature="0"
       style="fill:#4d4848" />
    <path
       class="cls-1"
       d="M 321.46,337.63 H 335 a 10.7,10.7 0 0 0 -2,4.55 l -4.32,17.37 c -0.63,2.53 -0.55,3.52 -0.27,4.55 H 316.6 a 11,11 0 0 0 2,-4.55 l 4.06,-16.29 h -0.08 L 310,364.1 h -7 l -1.93,-20.84 H 301 l -4,16.09 c -0.74,3 -0.75,3.51 -0.19,4.75 h -6.37 c 1.17,-1.24 1.43,-1.78 2.17,-4.75 l 4.22,-17 c 0.74,-3 0.75,-3.52 0.19,-4.76 H 311 l 1.31,15 h 0.08 z"
       id="path4127"
       inkscape:connector-curvature="0"
       style="fill:#4d4848" />
    <path
       class="cls-1"
       d="m 339.79,357 -2.68,3.64 a 4.31,4.31 0 0 0 -0.76,1.57 2.34,2.34 0 0 0 0.1,1.9 H 329 a 29.23,29.23 0 0 0 4.21,-4.8 l 14.66,-20.18 -0.79,-1.49 H 359 l 3.75,22.83 a 9.69,9.69 0 0 0 1.41,3.64 h -13.27 a 4.28,4.28 0 0 0 1,-1.73 5.42,5.42 0 0 0 0.12,-2 l -0.6,-3.39 z m 11,-4.39 -1.54,-8.93 -6.25,8.92 z"
       id="path4129"
       inkscape:connector-curvature="0"
       style="fill:#4d4848" />
    <path
       class="cls-1"
       d="m 375.57,342.18 h -0.08 l -4.27,17.17 c -0.75,3 -0.76,3.51 -0.2,4.75 h -6.36 c 1.17,-1.24 1.43,-1.78 2.17,-4.75 l 4.22,-17 c 0.74,-3 0.75,-3.52 0.19,-4.76 h 14.19 l 5.38,21.59 h 0.12 l 4.19,-16.83 c 0.74,-3 0.75,-3.52 0.19,-4.76 h 6.37 c -1.18,1.24 -1.43,1.78 -2.17,4.76 L 394.1,364.1 H 381 Z"
       id="path4131"
       inkscape:connector-curvature="0"
       style="fill:#4d4848" />
    <path
       class="cls-1"
       d="m 408.87,353.76 -5.14,-12.9 a 9.55,9.55 0 0 0 -1.72,-3.23 h 13.61 a 3.36,3.36 0 0 0 -0.37,0.83 5.71,5.71 0 0 0 0.61,3 l 2.81,7.15 6.37,-7.32 a 8.33,8.33 0 0 0 1.91,-3.68 h 7.53 a 16.23,16.23 0 0 0 -4.49,3.89 l -11.16,12.8 -1.31,5.25 c -0.63,2.53 -0.54,3.52 -0.3,4.55 h -11.75 a 11.16,11.16 0 0 0 2,-4.55 z"
       id="path4133"
       inkscape:connector-curvature="0"
       style="fill:#4d4848" />
  </g>
</svg>
