<?xml version="1.0" encoding="UTF-8"?>
<svg width="370px" height="230px" viewBox="0 0 370 230" version="1.1" xmlns="http://www.w3.org/2000/svg" xmlns:xlink="http://www.w3.org/1999/xlink" xmlns:sketch="http://www.bohemiancoding.com/sketch/ns">
    <!-- Generator: Sketch 3.3.2 (12043) - http://www.bohemiancoding.com/sketch -->
    <title>Nodes</title>
    <desc>Created with Sketch.</desc>
    <defs></defs>
    <g id="Page-1" stroke="none" stroke-width="1" fill="none" fill-rule="evenodd" sketch:type="MSPage">
        <g id="Nodes" sketch:type="MSLayerGroup">
            <path d="M90.42,137 C91.05,135.62 91.59,134.14 92.22,132.34 C92.9680937,130.273205 93.5630346,128.154146 94,126 L100.46,98.06 C100.99,95.2 101.46,93.06 101.52,91.81 C101.708666,90.6904885 101.779053,89.5542374 101.73,88.42 L101.73,87.15 L116.34,87.15 L107.57,126 C106.94,128.76 106.57,130.87 106.3,132.36 C106.037931,133.89191 105.93738,135.447097 106,137 L90.42,137 Z" id="Shape" fill="#4D4848" sketch:type="MSShapeGroup"></path>
            <path d="M283.82,0.9 C274.431159,0.9 266.82,8.51115925 266.82,17.9 C266.812114,20.7337538 267.520734,23.5235131 268.88,26.01 C267.18,26.85 263.24,28.83 257.72,31.7 C255.682757,27.5505502 251.542895,24.844146 246.924704,24.6426533 C242.306512,24.4411606 237.946669,26.776721 235.555772,30.7329701 C233.164875,34.6892193 233.124313,39.635069 235.45,43.63 C232.61,45.19 229.66,46.84 226.64,48.55 C223.878576,43.8113968 217.798603,42.2085763 213.06,44.97 C208.321397,47.7314237 206.718576,53.8113968 209.48,58.55 C206.353333,60.41 203.21,62.3166667 200.05,64.27 C197.892315,62.4439599 194.870939,62.0362927 192.306457,63.2251822 C189.741975,64.4140717 188.100699,66.9833369 188.1,69.81 C188.100427,70.4383468 188.184499,71.0638406 188.35,71.67 C176.260642,79.377645 164.66778,87.8376624 153.64,97 C142.16,71.32 125.23,43.13 101.64,20.18 L101.57,20.12 C98.81,17.4 96.57,18.6 99.7,21.98 L99.82,22.11 C119.82,43.64 135.54,74.79 146.25,103.2 C105.62,137.89 60.83,205.11 109.92,226.2 C117.07,229.28 120.33,223.4 117.25,221.59 C116.7,221.26 94.83,209.45 108.73,173.14 L143.73,173.14 C145.533492,173.042084 146.945677,171.551148 146.945677,169.745 C146.945677,167.938852 145.533492,166.447916 143.73,166.35 L111.65,166.35 C113.729979,161.949787 116.043268,157.663694 118.58,153.51 L143.73,153.51 C144.986883,153.578239 146.178623,152.946494 146.827594,151.867955 C147.476566,150.789416 147.476566,149.440584 146.827594,148.362045 C146.178623,147.283506 144.986883,146.651761 143.73,146.72 L122.9,146.72 C125.5,142.83 128.41,138.77 131.69,134.51 L143.69,134.51 C144.946883,134.578239 146.138623,133.946494 146.787594,132.867955 C147.436566,131.789416 147.436566,130.440584 146.787594,129.362045 C146.138623,128.283506 144.946883,127.651761 143.69,127.72 L137.03,127.72 C140.83,123.08 145.03,118.23 149.67,113.15 L149.79,113.02 C159.01,139.74 163.46,162.52 162.49,170.11 C162.259546,172.829819 160.646498,175.239947 158.22,176.49 C156.5,177.3 155.79,179.67 158.49,180.49 C167.08,183.02 172.37,174.49 173.33,167.64 C174.29,160.79 169.58,135.45 157.17,105.3 C167.971604,94.7547133 179.514455,84.9964261 191.71,76.1 C194.178797,77.5198999 197.249785,77.3651676 199.563357,75.704307 C201.87693,74.0434463 203.005726,71.1832496 202.45,68.39 C205.69,66.13 208.92,63.93 212.11,61.81 C215.435725,64.5442958 220.145524,64.8211777 223.768723,62.4953985 C227.391923,60.1696193 229.10124,55.7722219 228,51.61 C231.19,49.61 234.28,47.75 237.24,45.97 C241.268128,50.1851682 247.655479,51.101254 252.705956,48.1881561 C257.756433,45.2750581 260.16173,39.2874024 258.53,33.69 C263.93,30.69 267.87,28.56 269.8,27.46 C274.355098,34.1578277 283.00314,36.7116134 290.465998,33.5627144 C297.928857,30.4138155 302.13355,22.436911 300.513844,14.5005159 C298.894138,6.56412068 291.899943,0.872751192 283.8,0.9 L283.82,0.9 Z" id="Shape" fill="#F47D20" sketch:type="MSShapeGroup"></path>
            <path d="M54,137 L10.69,137 C6.35,137 3.39,136.05 1.79,134 C0.876497541,132.586428 0.432085146,130.920757 0.52,129.24 C0.551761703,127.417032 0.800172172,125.604307 1.26,123.84 L6.67,100.34 C7.83,95.58 9.52,92.19 11.85,90.17 C14.18,88.15 17.57,87.17 22.02,87.17 L54.02,87.17 C58.57,87.17 61.53,88.17 63.02,90.17 C64.0349907,91.5859729 64.5231392,93.3121789 64.4,95.05 C64.3865992,96.8381706 64.1377939,98.6167918 63.66,100.34 L60.16,115.91 L16.61,115.91 L14.28,126 C14.1046127,126.802548 14.0008716,127.619091 13.97,128.44 C13.97,128.97 13.97,129.39 14.18,129.6 C14.5,130.24 15.45,130.6 16.94,130.6 L48.69,130.6 C51.4654671,130.616548 54.2346834,130.334932 56.95,129.76 L54,137 Z M50.6,98.1 C50.8699964,97.2800212 51.0116679,96.4232461 51.02,95.56 C51.0132242,95.1970294 50.942123,94.8381376 50.81,94.5 C50.38,93.86 49.33,93.55 47.81,93.55 L25.4,93.55 C24.2564211,93.4372588 23.11434,93.7784465 22.22,94.5 C21.3043436,95.4794817 20.7780256,96.7597146 20.74,98.1 L18.1,109.53 L48,109.53 L50.6,98.1 Z" id="Shape" fill="#4D4848" sketch:type="MSShapeGroup"></path>
            <path d="M64.78,137 C65.45,135.46 66.01,133.8 66.69,131.78 C67.4842556,129.492551 68.1223878,127.153847 68.6,124.78 L79.72,73.28 C80.39,70.07 80.84,67.7 81.06,66.28 C81.28,64.86 81.29,63.2 81.29,61.06 L96.78,61.06 L83,124.72 C82.3333333,127.806667 81.8833333,130.183333 81.65,131.85 C81.3797087,133.535822 81.2692183,135.243402 81.32,136.95 L64.78,137 Z" id="Shape" fill="#4D4848" sketch:type="MSShapeGroup"></path>
            <path d="M243.4,95.56 C241.8,95.45 240.22,95.34 238.4,95.34 L231.31,95.34 C230.185924,95.2715129 229.069992,95.5697964 228.13,96.19 C227.182945,97.0535322 226.549757,98.2073413 226.33,99.47 L220.42,126 C219.533901,129.17472 219.036924,132.445365 218.94,135.74 L218.94,137 L203.49,137 C204.12,135.41 204.76,133.92 205.18,132.45 C205.6,130.98 206.13,128.95 206.87,126.09 L213.22,98.15 C213.97,95.39 214.28,93.28 214.61,91.69 C214.784669,90.2134598 214.854844,88.7264274 214.82,87.24 L227.82,87.24 L227.29,92.32 C227.999226,90.7642173 229.136953,89.4426507 230.57,88.51 C232.285711,87.5737358 234.228331,87.1339627 236.18,87.24 L248.88,87.24 L251.95,92.74 C251.278438,93.3386065 250.674804,94.0093115 250.15,94.74 C249.41,95.69 248.88,96.11 248.57,96.11 C246.68,95.88 245,95.66 243.4,95.56 L243.4,95.56 Z" id="Shape" fill="#4D4848" sketch:type="MSShapeGroup"></path>
            <path d="M174.9,137 C175.52,135.62 176.05,134.14 176.69,132.34 C177.440669,130.303041 178.042255,128.214202 178.49,126.09 L185,98.1 C185.53,95.24 186,93.1 186.05,91.85 C186.247558,90.7315026 186.321336,89.5946499 186.27,88.46 L186.27,87.19 L200.87,87.19 L192,126 C191.37,128.76 190.94,130.87 190.73,132.36 C190.467465,133.861665 190.360233,135.38637 190.41,136.91 L174.9,137 Z" id="Shape" fill="#4D4848" sketch:type="MSShapeGroup"></path>
            <path d="M118.81,69.79 C118.809997,72.6909037 117.061999,75.3059763 114.381526,76.4151676 C111.701052,77.5243589 108.616324,76.909089 106.566508,74.8564094 C104.516691,72.8037298 103.905727,69.7181462 105.018658,67.0392236 C106.131589,64.360301 108.749099,62.6159541 111.65,62.62 C115.605976,62.6255174 118.810004,65.8340203 118.81,69.79 L118.81,69.79 Z" id="Shape" fill="#4D4848" sketch:type="MSShapeGroup"></path>
            <path d="M169.09,213.22 C167.914649,214.325287 167.11992,215.774706 166.82,217.36 L165.19,223.89 C164.38,227.16 164.41,227.7 164.97,229.1 L156.08,229.1 L156.35,226.66 L156.27,226.66 C155.44,228.19 154.84,229.1 151.98,229.1 L143.05,229.1 C138.75,229.1 136.86,227.03 138.28,221.33 L141,210.41 C142.42,204.7 145.34,202.63 149.64,202.63 L169,202.63 L168.52,207.72 C167.294299,207.202767 165.969174,206.963698 164.64,207.02 L153.92,207.02 C152.6,207.02 151.83,207.43 151.52,208.71 L148,223 C147.68,224.28 148.24,224.7 149.57,224.7 L152.96,224.7 C154.28,224.7 155.05,224.28 155.37,223 L156.71,217.58 L152.9,217.58 C152.263038,217.605022 151.640345,217.776092 151.08,218.08 L152.3,213.2 L169.09,213.22 Z" id="Shape" fill="#4D4848" sketch:type="MSShapeGroup"></path>
            <path d="M188.1,224.72 C189.70123,224.749473 191.296245,224.512924 192.82,224.02 L190.65,229.1 L167.32,229.1 C168.320212,227.752954 169.00383,226.197723 169.32,224.55 L173.65,207.18 C174.27,204.66 174.19,203.67 173.95,202.63 L196.86,202.63 L196.42,207.72 C195.006007,207.200541 193.505753,206.956156 192,207 L183.77,207 L182.22,213.2 L189.42,213.2 C191.020757,213.222267 192.614606,212.985891 194.14,212.5 L192.7,218.29 C191.301919,217.776898 189.81861,217.535903 188.33,217.58 L181.13,217.58 L179.36,224.7 L188.1,224.72 Z" id="Shape" fill="#4D4848" sketch:type="MSShapeGroup"></path>
            <path d="M207.16,217.6 L205.43,224.55 C204.8,227.08 204.88,228.07 205.12,229.1 L193.38,229.1 C194.376082,227.750558 195.059272,226.196301 195.38,224.55 L199.7,207.18 C200.33,204.66 200.24,203.67 199.76,202.63 L221.51,202.63 C226.14,202.63 228.03,204.04 226.92,208.46 L225.71,213.34 C224.71,217.23 222.79,217.44 220.6,217.6 L222.34,225.05 C222.538205,226.44936 222.935562,227.813172 223.52,229.1 L212.19,229.1 L210.26,217.6 L207.16,217.6 Z M208.25,213.22 L214,213.22 C215.29,213.22 215.71,213.01 216,211.73 L216.8,208.51 C217.12,207.22 216.8,207.02 215.52,207.02 L209.81,207.02 L208.25,213.22 Z" id="Shape" fill="#4D4848" sketch:type="MSShapeGroup"></path>
            <path d="M256.46,202.63 L270,202.63 C268.985445,203.968663 268.300296,205.527377 268,207.18 L263.68,224.55 C263.05,227.08 263.13,228.07 263.41,229.1 L251.6,229.1 C252.605063,227.755779 253.289191,226.199388 253.6,224.55 L257.66,208.26 L257.58,208.26 L245,229.1 L238,229.1 L236.07,208.26 L236,208.26 L232,224.35 C231.26,227.35 231.25,227.86 231.81,229.1 L225.44,229.1 C226.61,227.86 226.87,227.32 227.61,224.35 L231.83,207.35 C232.57,204.35 232.58,203.83 232.02,202.59 L246,202.59 L247.31,217.59 L247.39,217.59 L256.46,202.63 Z" id="Shape" fill="#4D4848" sketch:type="MSShapeGroup"></path>
            <path d="M274.79,222 L272.11,225.64 C271.75231,226.106065 271.493681,226.640338 271.35,227.21 C271.11273,227.828912 271.149072,228.519414 271.45,229.11 L264,229.11 C265.574391,227.668524 266.986144,226.058924 268.21,224.31 L282.87,204.13 L282.08,202.64 L294,202.64 L297.75,225.47 C297.968212,226.766419 298.447944,228.004878 299.16,229.11 L285.89,229.11 C286.355165,228.620313 286.697837,228.027491 286.89,227.38 C287.053946,226.726584 287.094641,226.048331 287.01,225.38 L286.41,221.99 L274.79,222 Z M285.79,217.61 L284.25,208.68 L278,217.6 L285.79,217.61 Z" id="Shape" fill="#4D4848" sketch:type="MSShapeGroup"></path>
            <path d="M310.57,207.18 L310.49,207.18 L306.22,224.35 C305.47,227.35 305.46,227.86 306.02,229.1 L299.66,229.1 C300.83,227.86 301.09,227.32 301.83,224.35 L306.05,207.35 C306.79,204.35 306.8,203.83 306.24,202.59 L320.43,202.59 L325.81,224.18 L325.93,224.18 L330.12,207.35 C330.86,204.35 330.87,203.83 330.31,202.59 L336.68,202.59 C335.5,203.83 335.25,204.37 334.51,207.35 L329.1,229.1 L316,229.1 L310.57,207.18 Z" id="Shape" fill="#4D4848" sketch:type="MSShapeGroup"></path>
            <path d="M343.87,218.76 L338.73,205.86 C338.370237,204.682526 337.786183,203.585727 337.01,202.63 L350.62,202.63 C350.45965,202.888635 350.335178,203.167855 350.25,203.46 C350.176473,204.496882 350.387387,205.534166 350.86,206.46 L353.67,213.61 L360.04,206.29 C360.976648,205.243917 361.633666,203.97804 361.95,202.61 L369.48,202.61 C367.756748,203.619375 366.234587,204.938129 364.99,206.5 L353.83,219.3 L352.52,224.55 C351.89,227.08 351.98,228.07 352.22,229.1 L340.47,229.1 C341.470212,227.752954 342.15383,226.197723 342.47,224.55 L343.87,218.76 Z" id="Shape" fill="#4D4848" sketch:type="MSShapeGroup"></path>
        </g>
    </g>
</svg>