<?xml version="1.0" encoding="UTF-8"?>
<svg width="368px" height="230px" viewBox="0 0 368 230" version="1.1" xmlns="http://www.w3.org/2000/svg" xmlns:xlink="http://www.w3.org/1999/xlink" xmlns:sketch="http://www.bohemiancoding.com/sketch/ns">
    <!-- Generator: Sketch 3.3.2 (12043) - http://www.bohemiancoding.com/sketch -->
    <title>Nodes</title>
    <desc>Created with Sketch.</desc>
    <defs></defs>
    <g id="Page-1" stroke="none" stroke-width="1" fill="none" fill-rule="evenodd" sketch:type="MSPage">
        <g id="Nodes" sketch:type="MSLayerGroup">
            <path d="M90.31,137 C90.94,135.62 91.48,134.14 92.11,132.34 C92.8606694,130.303041 93.462255,128.214202 93.91,126.09 L100.37,98.15 C100.9,95.29 101.32,93.15 101.43,91.9 C101.618666,90.7804885 101.689053,89.6442374 101.64,88.51 L101.64,87.24 L116.25,87.24 L107.46,126 C106.82,128.76 106.41,130.87 106.19,132.36 C105.927465,133.861665 105.820233,135.38637 105.87,136.91 L90.31,137 Z" id="Shape" fill="#4D4848" sketch:type="MSShapeGroup"></path>
            <path d="M283.71,0.9 C277.719403,0.902197621 272.172157,4.05725739 269.108136,9.20497788 C266.044114,14.3526984 265.915656,20.7331246 268.77,26 C267.08,26.84 263.14,28.82 257.62,31.69 C255.582757,27.5405502 251.442895,24.834146 246.824704,24.6326533 C242.206512,24.4311606 237.846669,26.766721 235.455772,30.7229701 C233.064875,34.6792193 233.024313,39.625069 235.35,43.62 C232.51,45.18 229.56,46.83 226.54,48.54 C223.778576,43.8013968 217.698603,42.1985763 212.96,44.96 C208.221397,47.7214237 206.618576,53.8013968 209.38,58.54 C206.253333,60.4 203.11,62.3066667 199.95,64.26 C197.796459,62.4374205 194.78205,62.0274998 192.220018,63.208822 C189.657985,64.3901442 188.012333,66.9487623 188,69.77 C188.000427,70.3983468 188.084499,71.0238406 188.25,71.63 C176.156098,79.3502061 164.559862,87.8236078 153.53,97 C142.05,71.32 125.12,43.13 101.53,20.18 L101.46,20.12 C98.7,17.4 96.46,18.6 99.59,21.98 L99.71,22.11 C119.71,43.64 135.43,74.79 146.14,103.2 C105.51,137.89 60.72,205.11 109.81,226.2 C116.96,229.28 120.21,223.4 117.14,221.59 C116.59,221.26 94.72,209.44 108.62,173.14 L143.62,173.14 C144.876883,173.208239 146.068623,172.576494 146.717594,171.497955 C147.366566,170.419416 147.366566,169.070584 146.717594,167.992045 C146.068623,166.913506 144.876883,166.281761 143.62,166.35 L111.54,166.35 C113.619979,161.949787 115.933268,157.663694 118.47,153.51 L143.62,153.51 C144.876883,153.578239 146.068623,152.946494 146.717594,151.867955 C147.366566,150.789416 147.366566,149.440584 146.717594,148.362045 C146.068623,147.283506 144.876883,146.651761 143.62,146.72 L122.79,146.72 C125.39,142.83 128.3,138.77 131.58,134.51 L143.58,134.51 C144.836883,134.578239 146.028623,133.946494 146.677594,132.867955 C147.326566,131.789416 147.326566,130.440584 146.677594,129.362045 C146.028623,128.283506 144.836883,127.651761 143.58,127.72 L137,127.72 C140.8,123.08 145,118.23 149.63,113.15 C149.675055,113.111621 149.715343,113.067976 149.75,113.02 C158.98,139.74 163.43,162.52 162.46,170.11 C162.231232,172.833225 160.612988,175.245467 158.18,176.49 C156.47,177.3 155.76,179.67 158.46,180.49 C167.05,183.02 172.34,174.49 173.29,167.64 C174.24,160.79 169.55,135.45 157.14,105.3 C167.941604,94.7547133 179.484455,84.9964261 191.68,76.1 C194.148797,77.5198999 197.219785,77.3651676 199.533357,75.704307 C201.84693,74.0434463 202.975726,71.1832496 202.42,68.39 C205.66,66.13 208.89,63.93 212.08,61.81 C215.403988,64.479059 220.061553,64.7260147 223.64915,62.4234252 C227.236748,60.1208357 228.952101,55.7836182 227.91,51.65 C231.1,49.65 234.19,47.79 237.15,46.01 C241.178128,50.2251682 247.565479,51.141254 252.615956,48.2281561 C257.666433,45.3150581 260.07173,39.3274024 258.44,33.73 C263.84,30.73 267.78,28.6 269.71,27.5 C274.265098,34.1978277 282.91314,36.7516134 290.375998,33.6027144 C297.838857,30.4538155 302.04355,22.476911 300.423844,14.5405159 C298.804138,6.60412068 291.809943,0.912751192 283.71,0.94 L283.71,0.9 Z" id="Shape" fill="#F47D20" sketch:type="MSShapeGroup"></path>
            <path d="M53.88,137 L10.58,137 C6.24,137 3.28,136.05 1.68,134 C0.766497541,132.586428 0.322085146,130.920757 0.41,129.24 C0.436634273,127.416641 0.685128593,125.603304 1.15,123.84 L6.56,100.34 C7.72,95.58 9.41,92.19 11.74,90.17 C14.07,88.15 17.46,87.17 21.9,87.17 L53.9,87.17 C58.45,87.17 61.41,88.17 62.9,90.17 C63.9149907,91.5859729 64.4031392,93.3121789 64.28,95.05 C64.2665992,96.8381706 64.0177939,98.6167918 63.54,100.34 L60,115.89 L16.5,115.89 L14.17,126 C13.9946127,126.802548 13.8908716,127.619091 13.86,128.44 C13.86,128.97 13.86,129.39 14.07,129.6 C14.38,130.24 15.34,130.6 16.83,130.6 L48.58,130.6 C51.3554671,130.616548 54.1246834,130.334932 56.84,129.76 L53.88,137 Z M50.49,98.15 C50.7550462,97.3288124 50.896592,96.4727971 50.91,95.61 C50.8983575,95.2475693 50.827418,94.889494 50.7,94.55 C50.27,93.91 49.22,93.6 47.7,93.6 L25.29,93.6 C24.1464211,93.4872588 23.00434,93.8284465 22.11,94.55 C21.1943436,95.5294817 20.6680256,96.8097146 20.63,98.15 L18,109.53 L47.85,109.53 L50.49,98.15 Z" id="Shape" fill="#4D4848" sketch:type="MSShapeGroup"></path>
            <path d="M64.67,137 C65.34,135.46 65.9,133.8 66.58,131.78 C67.3751209,129.49362 68.0099912,127.154624 68.48,124.78 L79.61,73.28 C80.28,70.07 80.73,67.7 80.95,66.28 C81.17,64.86 81.18,63.2 81.18,61.06 L96.67,61.06 L82.86,124.79 C82.1933333,127.876667 81.7433333,130.253333 81.51,131.92 C81.2397087,133.605822 81.1292183,135.313402 81.18,137.02 L64.67,137 Z" id="Shape" fill="#4D4848" sketch:type="MSShapeGroup"></path>
            <path d="M243.28,95.56 C241.69,95.45 240.11,95.34 238.28,95.34 L231.18,95.34 C230.059208,95.2729785 228.946905,95.57123 228.01,96.19 C227.062945,97.0535322 226.429757,98.2073413 226.21,99.47 L220.31,126 C219.423901,129.17472 218.926924,132.445365 218.83,135.74 L218.83,137 L203.38,137 C204.01,135.41 204.65,133.92 205.07,132.45 C205.49,130.98 206.02,128.95 206.76,126.09 L213.11,98.15 C213.85,95.39 214.17,93.28 214.49,91.69 C214.672983,90.2141226 214.746517,88.7267291 214.71,87.24 L227.71,87.24 L227.19,92.32 C227.899226,90.7642173 229.036953,89.4426507 230.47,88.51 C232.185711,87.5737358 234.128331,87.1339627 236.08,87.24 L248.78,87.24 L251.85,92.74 C251.178438,93.3386065 250.574804,94.0093115 250.05,94.74 C249.31,95.69 248.78,96.11 248.46,96.11 C246.57,95.88 244.87,95.66 243.28,95.56 L243.28,95.56 Z" id="Shape" fill="#4D4848" sketch:type="MSShapeGroup"></path>
            <path d="M174.78,137 C175.41,135.62 175.94,134.14 176.58,132.34 C177.330669,130.303041 177.932255,128.214202 178.38,126.09 L184.84,98.15 C185.37,95.29 185.79,93.15 185.84,91.9 C186.037558,90.7815026 186.111336,89.6446499 186.06,88.51 L186.06,87.24 L200.66,87.24 L191.93,126 C191.3,128.76 190.87,130.87 190.66,132.36 C190.397465,133.861665 190.290233,135.38637 190.34,136.91 L174.78,137 Z" id="Shape" fill="#4D4848" sketch:type="MSShapeGroup"></path>
            <path d="M118.7,69.79 C118.699997,72.6909037 116.951999,75.3059763 114.271526,76.4151676 C111.591052,77.5243589 108.506324,76.909089 106.456508,74.8564094 C104.406691,72.8037298 103.795727,69.7181462 104.908658,67.0392236 C106.021589,64.360301 108.639099,62.6159541 111.54,62.62 C115.495976,62.6255174 118.700004,65.8340203 118.7,69.79 L118.7,69.79 Z" id="Shape" fill="#4D4848" sketch:type="MSShapeGroup"></path>
            <path d="M142.11,207.18 C142.74,204.66 142.65,203.67 142.41,202.63 L163,202.63 C168.62,202.63 170.07,204.78 168.73,210.16 L165.89,221.57 C164.56,226.95 162.03,229.1 156.41,229.1 L135.83,229.1 C136.811825,227.748098 137.478157,226.193323 137.78,224.55 L142.11,207.18 Z M147.83,224.72 L153.09,224.72 C154.74,224.72 155.09,224.35 155.52,222.57 L158.86,209.17 C159.3,207.39 159.15,207.02 157.49,207.02 L152.24,207.02 L147.83,224.72 Z" id="Shape" fill="#4D4848" sketch:type="MSShapeGroup"></path>
            <path d="M188,224.72 C189.60123,224.749473 191.196245,224.512924 192.72,224.02 L190.55,229.1 L167.21,229.1 C168.210212,227.752954 168.89383,226.197723 169.21,224.55 L173.54,207.18 C174.16,204.66 174.08,203.67 173.84,202.63 L196.75,202.63 L196.31,207.72 C194.897824,207.208605 193.401123,206.971034 191.9,207.02 L183.67,207.02 L182.12,213.22 L189.32,213.22 C190.920757,213.242267 192.514606,213.005891 194.04,212.52 L192.6,218.31 C191.201669,217.797852 189.718545,217.556886 188.23,217.6 L181,217.6 L179.23,224.72 L188,224.72 Z" id="Shape" fill="#4D4848" sketch:type="MSShapeGroup"></path>
            <path d="M204,207.18 L203.92,207.18 L199.65,224.35 C198.91,227.35 198.9,227.86 199.46,229.1 L193.1,229.1 C194.28,227.86 194.53,227.32 195.28,224.35 L199.5,207.35 C200.24,204.35 200.25,203.83 199.69,202.59 L213.87,202.59 L219.25,224.18 L219.38,224.18 L223.57,207.35 C224.31,204.35 224.32,203.83 223.76,202.59 L230.13,202.59 C228.95,203.83 228.69,204.37 227.95,207.35 L222.55,229.06 L209.48,229.06 L204,207.18 Z" id="Shape" fill="#4D4848" sketch:type="MSShapeGroup"></path>
            <path d="M257.09,202.63 L270.61,202.63 C269.599624,203.971115 268.914928,205.528798 268.61,207.18 L264.29,224.55 C263.66,227.08 263.74,228.07 264.03,229.1 L252.24,229.1 C253.236082,227.750558 253.919272,226.196301 254.24,224.55 L258.29,208.26 L258.21,208.26 L245.66,229.1 L238.66,229.1 L236.74,208.26 L236.65,208.26 L232.65,224.35 C231.91,227.35 231.9,227.86 232.46,229.1 L226.1,229.1 C227.28,227.86 227.54,227.32 228.28,224.35 L232.5,207.35 C233.24,204.35 233.25,203.83 232.69,202.59 L246.58,202.59 L247.89,217.59 L248,217.59 L257.09,202.63 Z" id="Shape" fill="#4D4848" sketch:type="MSShapeGroup"></path>
            <path d="M275.43,222 L272.74,225.64 C272.38231,226.106065 272.123681,226.640338 271.98,227.21 C271.740625,227.82951 271.780731,228.522253 272.09,229.11 L264.6,229.11 C266.179782,227.67381 267.592088,226.06358 268.81,224.31 L283.47,204.13 L282.69,202.64 L294.64,202.64 L298.39,225.47 C298.599248,226.768865 299.079671,228.009108 299.8,229.11 L286.52,229.11 C287.26,228.11 287.39,227.95 287.52,227.38 C287.694532,226.728258 287.735351,226.047935 287.64,225.38 L287.04,221.99 L275.43,222 Z M286.43,217.61 L284.89,208.68 L278.62,217.61 L286.43,217.61 Z" id="Shape" fill="#4D4848" sketch:type="MSShapeGroup"></path>
            <path d="M314.23,217.6 L312.5,224.55 C311.88,227.08 311.96,228.07 312.2,229.1 L300.45,229.1 C301.455063,227.755779 302.139191,226.199388 302.45,224.55 L306.78,207.18 C307.4,204.66 307.32,203.67 306.83,202.63 L328.59,202.63 C333.22,202.63 335.1,204.04 334,208.46 L332.79,213.34 C331.79,217.23 329.87,217.44 327.67,217.6 L329.42,225.05 C329.613525,226.450363 330.011076,227.814839 330.6,229.1 L319.27,229.1 L317.34,217.6 L314.23,217.6 Z M315.32,213.22 L321,213.22 C322.28,213.22 322.71,213.01 323,211.73 L323.8,208.51 C324.12,207.22 323.8,207.02 322.52,207.02 L316.81,207.02 L315.32,213.22 Z" id="Shape" fill="#4D4848" sketch:type="MSShapeGroup"></path>
            <path d="M361.77,223.68 C362.372389,225.584495 363.212337,227.405502 364.27,229.1 L351.86,229.1 L348.73,217.89 L345.67,220.58 L344.67,224.58 C344.04,227.11 344.12,228.1 344.36,229.13 L332.63,229.13 C333.626082,227.780558 334.309272,226.226301 334.63,224.58 L338.95,207.21 C339.454659,205.747591 339.561643,204.177343 339.26,202.66 L351,202.66 C350.007947,204.011771 349.325168,205.565092 349,207.21 L347.18,214.53 L356.08,206.53 C357.57,205.21 357.98,204.53 358.2,203.68 C358.27206,203.349934 358.325478,203.016072 358.36,202.68 L367.59,202.68 C366.090314,203.338112 364.698089,204.217944 363.46,205.29 L357.29,210.5 L361.77,223.68 Z" id="Shape" fill="#4D4848" sketch:type="MSShapeGroup"></path>
        </g>
    </g>
</svg>