<?xml version="1.0" encoding="UTF-8" standalone="no"?>
<svg
   xmlns:dc="http://purl.org/dc/elements/1.1/"
   xmlns:cc="http://creativecommons.org/ns#"
   xmlns:rdf="http://www.w3.org/1999/02/22-rdf-syntax-ns#"
   xmlns:svg="http://www.w3.org/2000/svg"
   xmlns="http://www.w3.org/2000/svg"
   xmlns:sodipodi="http://sodipodi.sourceforge.net/DTD/sodipodi-0.dtd"
   xmlns:inkscape="http://www.inkscape.org/namespaces/inkscape"
   width="500"
   height="300"
   viewBox="0 100 500 300"
   version="1.1"
   id="svg2657"
   sodipodi:docname="EE.svg"
   inkscape:version="0.92.3 (2405546, 2018-03-11)">
  <metadata
     id="metadata2661">
    <rdf:RDF>
      <cc:Work
         rdf:about="">
        <dc:format>image/svg+xml</dc:format>
        <dc:type
           rdf:resource="http://purl.org/dc/dcmitype/StillImage" />
      </cc:Work>
    </rdf:RDF>
  </metadata>
  <sodipodi:namedview
     pagecolor="#ffffff"
     bordercolor="#666666"
     borderopacity="1"
     objecttolerance="10"
     gridtolerance="10"
     guidetolerance="10"
     inkscape:pageopacity="0"
     inkscape:pageshadow="2"
     inkscape:window-width="2560"
     inkscape:window-height="1247"
     id="namedview2659"
     showgrid="false"
     inkscape:zoom="1.472"
     inkscape:cx="-7.7203736"
     inkscape:cy="251.29108"
     inkscape:window-x="0"
     inkscape:window-y="0"
     inkscape:window-maximized="1"
     inkscape:current-layer="svg2657" />
  <defs
     id="defs2626">
    <style
       id="style2624">.cls-1{fill:#4d4848;}.cls-2{fill:#f47d20;}</style>
  </defs>
  <g
     id="Nodes"
     transform="translate(-74.189078,-25.903004)">
    <path
       class="cls-1"
       d="m 174.1,272 c 0.63,-1.38 1.16,-2.86 1.8,-4.66 a 46.2,46.2 0 0 0 1.8,-6.25 l 6.46,-27.94 c 0.53,-2.86 1,-5 1.06,-6.25 a 16.19,16.19 0 0 0 0.21,-3.39 v -1.27 H 200 L 191.25,261 c -0.64,2.76 -1.06,4.87 -1.27,6.36 a 22.21,22.21 0 0 0 -0.32,4.55 z"
       id="path2628"
       inkscape:connector-curvature="0"
       style="fill:#4d4848" />
    <path
       class="cls-2"
       d="M 367.5,135.9 A 17,17 0 0 0 352.56,161 c -1.69,0.84 -5.63,2.82 -11.15,5.69 a 12.64,12.64 0 1 0 -22.27,11.93 c -2.84,1.56 -5.79,3.21 -8.81,4.92 a 9.930579,9.930579 0 0 0 -17.16,10 q -4.69,2.79 -9.43,5.72 a 7.26,7.26 0 0 0 -11.95,5.54 7.08,7.08 0 0 0 0.25,1.86 342.1,342.1 0 0 0 -34.72,25.34 c -11.48,-25.68 -28.42,-53.87 -52,-76.82 l -0.06,-0.06 c -2.76,-2.72 -5.05,-1.52 -1.88,1.86 l 0.13,0.13 c 20,21.53 35.71,52.68 46.42,81.09 -40.62,34.69 -85.41,101.91 -36.32,123 7.15,3.08 10.4,-2.8 7.33,-4.61 -0.56,-0.33 -22.42,-12.14 -8.52,-48.45 h 35 a 3.4,3.4 0 1 0 0,-6.79 h -32.09 a 139,139 0 0 1 6.92,-12.84 h 25.16 a 3.4,3.4 0 0 0 0,-6.79 h -20.83 q 3.88,-5.83 8.78,-12.21 h 12 a 3.4,3.4 0 0 0 0,-6.79 h -6.66 c 3.8,-4.64 8,-9.49 12.63,-14.57 l 0.12,-0.13 c 9.23,26.72 13.68,49.5 12.71,57.09 a 7.93,7.93 0 0 1 -4.28,6.38 c -1.72,0.81 -2.42,3.18 0.27,4 8.6,2.53 13.89,-6 14.84,-12.85 0.95,-6.85 -3.74,-32.19 -16.15,-62.34 a 316.22,316.22 0 0 1 34.54,-29.2 7.26,7.26 0 0 0 10.88,-6.29 7.35,7.35 0 0 0 -0.14,-1.42 c 3.24,-2.26 6.47,-4.46 9.66,-6.58 a 9.92,9.92 0 0 0 15.83,-10.16 c 3.18,-2 6.27,-3.86 9.24,-5.64 a 12.65,12.65 0 0 0 21.29,-12.28 c 5.4,-3 9.34,-5.13 11.26,-6.23 a 17,17 0 1 0 14.1,-26.6 z"
       id="path2630"
       inkscape:connector-curvature="0"
       style="fill:#f47d20" />
    <path
       class="cls-1"
       d="m 137.66,272 h -43.3 c -4.34,0 -7.3,-0.95 -8.89,-3 a 8,8 0 0 1 -1.27,-4.76 22.47,22.47 0 0 1 0.74,-5.4 l 5.4,-23.5 c 1.16,-4.76 2.86,-8.15 5.19,-10.17 2.33,-2.02 5.72,-3 10.16,-3 h 32 c 4.55,0 7.52,1 9,3 a 7.47,7.47 0 0 1 1.31,4.83 20.37,20.37 0 0 1 -0.74,5.29 l -3.5,15.57 H 100.29 L 98,261 a 13.87,13.87 0 0 0 -0.31,2.44 c 0,0.53 0,0.95 0.21,1.16 0.31,0.64 1.27,1 2.75,1 h 31.76 a 38.76,38.76 0 0 0 8.26,-0.84 z m -3.38,-38.85 a 8.71,8.71 0 0 0 0.42,-2.54 3.32,3.32 0 0 0 -0.21,-1.06 c -0.43,-0.64 -1.48,-0.95 -3,-0.95 h -22.41 a 4.38,4.38 0 0 0 -3.18,0.95 5.5,5.5 0 0 0 -1.48,3.6 l -2.65,11.43 h 29.86 z"
       id="path2632"
       inkscape:connector-curvature="0"
       style="fill:#4d4848" />
    <path
       class="cls-1"
       d="m 148.46,272 c 0.67,-1.54 1.23,-3.2 1.91,-5.22 a 53.66,53.66 0 0 0 1.9,-7 l 11.12,-51.5 c 0.68,-3.21 1.12,-5.58 1.35,-7 0.23,-1.42 0.22,-3.08 0.22,-5.22 h 15.5 l -13.81,63.73 c -0.67,3.09 -1.13,5.47 -1.35,7.13 A 26.34,26.34 0 0 0 165,272 Z"
       id="path2634"
       inkscape:connector-curvature="0"
       style="fill:#4d4848" />
    <path
       class="cls-1"
       d="m 327.07,230.56 c -1.59,-0.11 -3.17,-0.22 -5,-0.22 H 315 a 5.17,5.17 0 0 0 -3.17,0.85 5.67,5.67 0 0 0 -1.8,3.28 L 304.1,261 a 40.17,40.17 0 0 0 -1.48,9.74 V 272 h -15.45 c 0.63,-1.59 1.26,-3.08 1.69,-4.55 0.43,-1.47 0.95,-3.5 1.69,-6.36 l 6.35,-27.94 c 0.74,-2.76 1.06,-4.87 1.38,-6.46 a 31.58,31.58 0 0 0 0.21,-4.45 h 13 l -0.53,5.08 a 9.05,9.05 0 0 1 3.29,-3.81 10.51,10.51 0 0 1 5.6,-1.27 h 12.71 l 3.07,5.5 a 11.82,11.82 0 0 0 -1.8,2 c -0.74,0.95 -1.27,1.37 -1.59,1.37 -1.88,-0.23 -3.58,-0.45 -5.17,-0.55 z"
       id="path2636"
       inkscape:connector-curvature="0"
       style="fill:#4d4848" />
    <path
       class="cls-1"
       d="m 258.57,272 c 0.63,-1.38 1.16,-2.86 1.8,-4.66 a 46.2,46.2 0 0 0 1.8,-6.25 l 6.46,-27.94 c 0.53,-2.86 0.95,-5 1.05,-6.25 a 15.47,15.47 0 0 0 0.22,-3.39 v -1.27 h 14.6 L 275.72,261 c -0.64,2.76 -1.06,4.87 -1.27,6.36 a 22.21,22.21 0 0 0 -0.32,4.55 z"
       id="path2638"
       inkscape:connector-curvature="0"
       style="fill:#4d4848" />
    <path
       class="cls-1"
       d="m 202.49,204.79 a 7.17,7.17 0 1 1 -7.17,-7.17 7.17,7.17 0 0 1 7.17,7.17 z"
       id="path2640"
       inkscape:connector-curvature="0"
       style="fill:#4d4848" />
    <path
       class="cls-1"
       d="m 240.39,359.72 a 14.47,14.47 0 0 0 4.72,-0.7 l -2.17,5.08 h -23.33 a 11.16,11.16 0 0 0 2,-4.55 l 4.33,-17.37 c 0.62,-2.52 0.54,-3.51 0.3,-4.55 h 22.91 l -0.44,5.09 a 11.82,11.82 0 0 0 -4.41,-0.7 H 236 l -1.55,6.2 h 7.2 a 14.87,14.87 0 0 0 4.72,-0.7 l -1.37,5.79 a 11.68,11.68 0 0 0 -4.37,-0.71 h -7.2 l -1.77,7.12 z"
       id="path2642"
       inkscape:connector-curvature="0"
       style="fill:#4d4848" />
    <path
       class="cls-1"
       d="m 276.55,342.89 a 7.45,7.45 0 0 0 -3.88,-0.87 h -9.39 c -1.57,0 -2,0.2 -2.23,1.16 l -0.37,1.48 c -0.25,1 0.08,1.16 1.65,1.16 h 7.16 c 4.3,0 6.24,1.49 5.29,5.34 l -1.61,6.45 c -1,4.18 -3.1,6.49 -7.94,6.49 H 247 l 0.47,-5.37 a 6.44,6.44 0 0 0 3.72,1 H 261 c 1.58,0 1.95,-0.17 2.19,-1.16 l 0.46,-1.82 c 0.23,-0.95 -0.05,-1.16 -1.62,-1.16 h -8.23 c -4,0 -5.25,-1.32 -4.15,-5.75 l 1.47,-5.91 c 1,-4.14 3.59,-6.29 7.15,-6.29 H 277 Z"
       id="path2644"
       inkscape:connector-curvature="0"
       style="fill:#4d4848" />
    <path
       class="cls-1"
       d="m 305.93,337.63 -0.53,5.46 a 4.82,4.82 0 0 0 -3.49,-1.07 h -4.59 L 293,359.55 c -0.63,2.53 -0.54,3.52 -0.3,4.55 h -11.8 a 11.3,11.3 0 0 0 2,-4.55 L 287.22,342 h -4.59 a 7.17,7.17 0 0 0 -4,1.07 l 2.19,-5.46 z"
       id="path2646"
       inkscape:connector-curvature="0"
       style="fill:#4d4848" />
    <path
       class="cls-1"
       d="m 306.64,345.41 c 1.42,-5.71 4.34,-7.78 8.64,-7.78 h 15.13 c 4.31,0 6.19,2.07 4.77,7.78 l -2.72,10.92 c -1.42,5.7 -4.33,7.77 -8.63,7.77 h -15.14 c -4.3,0 -6.19,-2.07 -4.77,-7.77 z m 6.95,12.59 c -0.31,1.28 0.24,1.7 1.57,1.7 h 4.38 c 1.32,0 2.09,-0.42 2.41,-1.7 l 3.56,-14.31 c 0.32,-1.28 -0.24,-1.69 -1.56,-1.69 h -4.39 c -1.32,0 -2.09,0.41 -2.4,1.69 z"
       id="path2648"
       inkscape:connector-curvature="0"
       style="fill:#4d4848" />
    <path
       class="cls-1"
       d="m 344.5,342.18 h -0.08 l -4.28,17.17 c -0.74,3 -0.75,3.51 -0.19,4.75 h -6.37 c 1.18,-1.24 1.44,-1.78 2.18,-4.75 l 4.22,-17 c 0.74,-3 0.75,-3.52 0.19,-4.76 h 14.19 l 5.38,21.59 h 0.12 l 4.19,-16.83 c 0.74,-3 0.75,-3.52 0.19,-4.76 h 6.37 c -1.18,1.24 -1.43,1.78 -2.17,4.76 L 363,364.1 h -13 z"
       id="path2650"
       inkscape:connector-curvature="0"
       style="fill:#4d4848" />
    <path
       class="cls-1"
       d="m 367.41,364.1 a 11.16,11.16 0 0 0 2,-4.55 l 4.32,-17.37 c 0.63,-2.52 0.55,-3.51 0.31,-4.55 h 11.75 a 11.16,11.16 0 0 0 -2,4.55 l -4.33,17.37 c -0.63,2.53 -0.54,3.52 -0.3,4.55 z"
       id="path2652"
       inkscape:connector-curvature="0"
       style="fill:#4d4848" />
    <path
       class="cls-1"
       d="m 391.43,357 -2.68,3.64 a 4.5,4.5 0 0 0 -0.77,1.57 2.38,2.38 0 0 0 0.11,1.9 h -7.49 a 28.86,28.86 0 0 0 4.22,-4.8 l 14.66,-20.18 -0.79,-1.49 h 11.95 l 3.75,22.83 a 9.69,9.69 0 0 0 1.41,3.64 h -13.28 c 0.75,-1 0.87,-1.16 1,-1.73 a 5.22,5.22 0 0 0 0.13,-2 l -0.61,-3.39 z m 11,-4.39 -1.54,-8.93 -6.28,8.93 z"
       id="path2654"
       inkscape:connector-curvature="0"
       style="fill:#4d4848" />
  </g>
</svg>
