<?xml version="1.0" encoding="UTF-8"?>
<svg width="332px" height="230px" viewBox="0 0 332 230" version="1.1" xmlns="http://www.w3.org/2000/svg" xmlns:xlink="http://www.w3.org/1999/xlink" xmlns:sketch="http://www.bohemiancoding.com/sketch/ns">
    <!-- Generator: Sketch 3.3.2 (12043) - http://www.bohemiancoding.com/sketch -->
    <title>Nodes</title>
    <desc>Created with Sketch.</desc>
    <defs></defs>
    <g id="Page-1" stroke="none" stroke-width="1" fill="none" fill-rule="evenodd" sketch:type="MSPage">
        <g id="Nodes" sketch:type="MSLayerGroup">
            <path d="M90.1,137 C90.73,135.62 91.26,134.14 91.9,132.34 C92.6460829,130.30154 93.247573,128.213033 93.7,126.09 L100.16,98.15 C100.69,95.29 101.16,93.15 101.22,91.9 C101.408666,90.7804885 101.479053,89.6442374 101.43,88.51 L101.43,87.24 L116,87.24 L107.25,126 C106.61,128.76 106.19,130.87 105.98,132.36 C105.717465,133.861665 105.610233,135.38637 105.66,136.91 L90.1,137 Z" id="Shape" fill="#4D4848" sketch:type="MSShapeGroup"></path>
            <path d="M283.5,0.9 C277.509403,0.902197621 271.962157,4.05725739 268.898136,9.20497788 C265.834114,14.3526984 265.705656,20.7331246 268.56,26 C266.87,26.84 262.93,28.82 257.41,31.69 C255.372757,27.5405502 251.232895,24.834146 246.614704,24.6326533 C241.996512,24.4311606 237.636669,26.766721 235.245772,30.7229701 C232.854875,34.6792193 232.814313,39.625069 235.14,43.62 C232.3,45.18 229.35,46.83 226.33,48.54 C223.568576,43.8013968 217.488603,42.1985763 212.75,44.96 C208.011397,47.7214237 206.408576,53.8013968 209.17,58.54 C206.043333,60.4 202.9,62.3066667 199.74,64.26 C197.582315,62.4339599 194.560939,62.0262927 191.996457,63.2151822 C189.431975,64.4040717 187.790699,66.9733369 187.79,69.8 C187.790427,70.4283468 187.874499,71.0538406 188.04,71.66 C175.946937,79.370523 164.35072,87.8338912 153.32,97 C141.84,71.32 124.9,43.13 101.32,20.18 L101.26,20.12 C98.5,17.4 96.21,18.6 99.38,21.98 L99.51,22.11 C119.51,43.64 135.22,74.79 145.93,103.2 C105.31,137.89 60.52,205.11 109.61,226.2 C116.76,229.28 120.01,223.4 116.94,221.59 C116.38,221.26 94.52,209.45 108.42,173.14 L143.42,173.14 C144.676883,173.208239 145.868623,172.576494 146.517594,171.497955 C147.166566,170.419416 147.166566,169.070584 146.517594,167.992045 C145.868623,166.913506 144.676883,166.281761 143.42,166.35 L111.33,166.35 C113.41036,161.951841 115.720206,157.665941 118.25,153.51 L143.41,153.51 C145.213492,153.412084 146.625677,151.921148 146.625677,150.115 C146.625677,148.308852 145.213492,146.817916 143.41,146.72 L122.58,146.72 C125.166667,142.833333 128.093333,138.763333 131.36,134.51 L143.36,134.51 C145.163492,134.412084 146.575677,132.921148 146.575677,131.115 C146.575677,129.308852 145.163492,127.817916 143.36,127.72 L136.7,127.72 C140.5,123.08 144.7,118.23 149.33,113.15 L149.45,113.02 C158.68,139.74 163.13,162.52 162.16,170.11 C161.927502,172.831916 160.310362,175.242513 157.88,176.49 C156.16,177.3 155.46,179.67 158.15,180.49 C166.75,183.02 172.04,174.49 172.99,167.64 C173.94,160.79 169.25,135.45 156.84,105.3 C167.641604,94.7547133 179.184455,84.9964261 191.38,76.1 C193.626043,77.3919971 196.390419,77.388997 198.633652,76.0921279 C200.876885,74.7952588 202.258891,72.4011315 202.26,69.81 C202.259498,69.3332464 202.21261,68.8576726 202.12,68.39 C205.36,66.13 208.59,63.93 211.78,61.81 C215.103988,64.479059 219.761553,64.7260147 223.34915,62.4234252 C226.936748,60.1208357 228.652101,55.7836182 227.61,51.65 C230.79,49.65 233.88,47.79 236.85,46.01 C240.878128,50.2251682 247.265479,51.141254 252.315956,48.2281561 C257.366433,45.3150581 259.77173,39.3274024 258.14,33.73 C263.54,30.73 267.48,28.6 269.4,27.5 C273.961745,34.166637 282.584915,36.7025045 290.029353,33.5665975 C297.47379,30.4306906 301.683425,22.4891114 300.10013,14.5678274 C298.516835,6.64654347 291.577899,0.933324495 283.5,0.9 L283.5,0.9 Z" id="Shape" fill="#F47D20" sketch:type="MSShapeGroup"></path>
            <path d="M53.66,137 L10.36,137 C6.02,137 3.06,136.05 1.47,134 C0.556497541,132.586428 0.112085146,130.920757 0.2,129.24 C0.226634273,127.416641 0.475128593,125.603304 0.94,123.84 L6.34,100.34 C7.5,95.58 9.2,92.19 11.53,90.17 C13.86,88.15 17.25,87.17 21.69,87.17 L53.69,87.17 C58.24,87.17 61.21,88.17 62.69,90.17 C63.6690264,91.5814874 64.1316707,93.2872676 64,95 C63.9865992,96.7881706 63.7377939,98.5667918 63.26,100.29 L59.76,115.86 L16.29,115.86 L14,126 C13.8246127,126.802548 13.7208716,127.619091 13.69,128.44 C13.69,128.97 13.69,129.39 13.9,129.6 C14.21,130.24 15.17,130.6 16.65,130.6 L48.41,130.6 C51.1854671,130.616548 53.9546834,130.334932 56.67,129.76 L53.66,137 Z M50.28,98.15 C50.5450462,97.3288124 50.686592,96.4727971 50.7,95.61 C50.6883575,95.2475693 50.617418,94.889494 50.49,94.55 C50.06,93.91 49.01,93.6 47.49,93.6 L25.08,93.6 C23.9364211,93.4872588 22.79434,93.8284465 21.9,94.55 C20.9843436,95.5294817 20.4580256,96.8097146 20.42,98.15 L17.77,109.58 L47.63,109.58 L50.28,98.15 Z" id="Shape" fill="#4D4848" sketch:type="MSShapeGroup"></path>
            <path d="M64.46,137 C65.13,135.46 65.69,133.8 66.37,131.78 C67.1604884,129.49219 67.7952715,127.153516 68.27,124.78 L79.39,73.28 C80.07,70.07 80.51,67.7 80.74,66.28 C80.97,64.86 80.96,63.2 80.96,61.06 L96.46,61.06 L82.65,124.79 C81.98,127.88 81.52,130.26 81.3,131.92 C81.0362762,133.599682 80.9358074,135.300953 81,137 L64.46,137 Z" id="Shape" fill="#4D4848" sketch:type="MSShapeGroup"></path>
            <path d="M243.07,95.56 C241.48,95.45 239.9,95.34 238.07,95.34 L231,95.34 C229.87906,95.2715188 228.766303,95.5698923 227.83,96.19 C226.876165,97.0481785 226.2416,98.2044973 226.03,99.47 L220.1,126 C219.2089,129.173644 218.71183,132.444906 218.62,135.74 L218.62,137 L203.17,137 C203.8,135.41 204.43,133.92 204.86,132.45 C205.29,130.98 205.81,128.95 206.55,126.09 L212.9,98.15 C213.64,95.39 213.96,93.28 214.28,91.69 C214.454669,90.2134598 214.524844,88.7264274 214.49,87.24 L227.49,87.24 L226.96,92.32 C227.674283,90.764418 228.815086,89.443305 230.25,88.51 C231.96259,87.5750553 233.901635,87.1353077 235.85,87.24 L248.56,87.24 L251.63,92.74 C250.955828,93.3359782 250.351916,94.0069915 249.83,94.74 C249.09,95.69 248.56,96.11 248.24,96.11 C246.36,95.88 244.66,95.66 243.07,95.56 L243.07,95.56 Z" id="Shape" fill="#4D4848" sketch:type="MSShapeGroup"></path>
            <path d="M174.57,137 C175.2,135.62 175.73,134.14 176.37,132.34 C177.116083,130.30154 177.717573,128.213033 178.17,126.09 L184.63,98.15 C185.16,95.29 185.58,93.15 185.68,91.9 C185.877558,90.7815026 185.951336,89.6446499 185.9,88.51 L185.9,87.24 L200.5,87.24 L191.72,126 C191.08,128.76 190.66,130.87 190.45,132.36 C190.187465,133.861665 190.080233,135.38637 190.13,136.91 L174.57,137 Z" id="Shape" fill="#4D4848" sketch:type="MSShapeGroup"></path>
            <path d="M118.49,69.79 C118.49,72.6899943 116.743086,75.3044365 114.06384,76.4142162 C111.384595,77.523996 108.30065,76.9105613 106.250044,74.8599556 C104.199439,72.80935 103.586004,69.7254052 104.695784,67.0461598 C105.805564,64.3669144 108.420006,62.62 111.32,62.62 C115.279882,62.62 118.49,65.8301183 118.49,69.79 L118.49,69.79 Z" id="Shape" fill="#4D4848" sketch:type="MSShapeGroup"></path>
            <path d="M156.39,224.72 C157.99123,224.749473 159.586245,224.512924 161.11,224.02 L158.94,229.1 L135.61,229.1 C136.610212,227.752954 137.29383,226.197723 137.61,224.55 L141.94,207.18 C142.56,204.66 142.48,203.67 142.24,202.63 L165.15,202.63 L164.71,207.72 C163.297824,207.208605 161.801123,206.971034 160.3,207.02 L152,207.02 L150.45,213.22 L157.65,213.22 C159.250757,213.242267 160.844606,213.005891 162.37,212.52 L161,218.31 C159.601919,217.796898 158.11861,217.555903 156.63,217.6 L149.43,217.6 L147.66,224.72 L156.39,224.72 Z" id="Shape" fill="#4D4848" sketch:type="MSShapeGroup"></path>
            <path d="M192.55,207.89 C191.359374,207.253831 190.018269,206.95312 188.67,207.02 L179.28,207.02 C177.71,207.02 177.28,207.22 177.05,208.18 L176.68,209.66 C176.43,210.66 176.76,210.82 178.33,210.82 L185.49,210.82 C189.79,210.82 191.73,212.31 190.78,216.16 L189.17,222.61 C188.17,226.79 186.07,229.1 181.23,229.1 L163,229.1 L163.47,223.73 C164.578932,224.435063 165.877016,224.78401 167.19,224.73 L177,224.73 C178.58,224.73 178.95,224.56 179.19,223.57 L179.65,221.75 C179.88,220.8 179.6,220.59 178.03,220.59 L169.8,220.59 C165.8,220.59 164.55,219.27 165.65,214.84 L167.12,208.93 C168.12,204.79 170.71,202.64 174.27,202.64 L193,202.64 L192.55,207.89 Z" id="Shape" fill="#4D4848" sketch:type="MSShapeGroup"></path>
            <path d="M221.93,202.63 L221.4,208.09 C220.421937,207.289576 219.168624,206.905322 217.91,207.02 L213.32,207.02 L209,224.55 C208.37,227.08 208.46,228.07 208.7,229.1 L196.9,229.1 C197.896082,227.750558 198.579272,226.196301 198.9,224.55 L203.22,207 L198.63,207 C197.220453,206.955531 195.829091,207.32772 194.63,208.07 L196.82,202.61 L221.93,202.63 Z" id="Shape" fill="#4D4848" sketch:type="MSShapeGroup"></path>
            <path d="M222.64,210.41 C224.06,204.7 226.98,202.63 231.28,202.63 L246.41,202.63 C250.72,202.63 252.6,204.7 251.18,210.41 L248.46,221.33 C247.04,227.03 244.13,229.1 239.83,229.1 L224.69,229.1 C220.39,229.1 218.5,227.03 219.92,221.33 L222.64,210.41 Z M229.59,223 C229.28,224.28 229.83,224.7 231.16,224.7 L235.54,224.7 C236.86,224.7 237.63,224.28 237.95,223 L241.51,208.69 C241.83,207.41 241.27,207 239.95,207 L235.56,207 C234.24,207 233.47,207.41 233.16,208.69 L229.59,223 Z" id="Shape" fill="#4D4848" sketch:type="MSShapeGroup"></path>
            <path d="M260.5,207.18 L260.42,207.18 L256.14,224.35 C255.4,227.35 255.39,227.86 255.95,229.1 L249.58,229.1 C250.76,227.86 251.02,227.32 251.76,224.35 L255.98,207.35 C256.72,204.35 256.73,203.83 256.17,202.59 L270.36,202.59 L275.74,224.18 L275.86,224.18 L280.05,207.35 C280.79,204.35 280.8,203.83 280.24,202.59 L286.61,202.59 C285.43,203.83 285.18,204.37 284.44,207.35 L279,229.1 L266,229.1 L260.5,207.18 Z" id="Shape" fill="#4D4848" sketch:type="MSShapeGroup"></path>
            <path d="M283.41,229.1 C284.410212,227.752954 285.09383,226.197723 285.41,224.55 L289.73,207.18 C290.36,204.66 290.28,203.67 290.04,202.63 L301.79,202.63 C300.789788,203.977046 300.10617,205.532277 299.79,207.18 L295.46,224.55 C294.83,227.08 294.92,228.07 295.16,229.1 L283.41,229.1 Z" id="Shape" fill="#4D4848" sketch:type="MSShapeGroup"></path>
            <path d="M307.43,222 L304.75,225.64 C304.393143,226.10795 304.131538,226.641352 303.98,227.21 C303.750826,227.831069 303.790684,228.519528 304.09,229.11 L296.6,229.11 C298.180041,227.671174 299.595384,226.061304 300.82,224.31 L315.48,204.13 L314.69,202.64 L326.64,202.64 L330.39,225.47 C330.608212,226.766419 331.087944,228.004878 331.8,229.11 L318.52,229.11 C319.27,228.11 319.39,227.95 319.52,227.38 C319.692111,226.727989 319.736258,226.048805 319.65,225.38 L319.04,221.99 L307.43,222 Z M318.43,217.61 L316.89,208.68 L310.61,217.61 L318.43,217.61 Z" id="Shape" fill="#4D4848" sketch:type="MSShapeGroup"></path>
        </g>
    </g>
</svg>