<?xml version="1.0" encoding="utf-8"?>
<!-- Generator: Adobe Illustrator 19.2.1, SVG Export Plug-In . SVG Version: 6.00 Build 0)  -->
<svg version="1.1" id="layer" xmlns="http://www.w3.org/2000/svg" xmlns:xlink="http://www.w3.org/1999/xlink" x="0px" y="0px"
	 viewBox="0 0 652 652" style="enable-background:new 0 0 652 652;" xml:space="preserve">
<style type="text/css">
	.st0{fill:#6DAC48;}
	.st1{fill:#DB0720;}
	.st2{fill-rule:evenodd;clip-rule:evenodd;}
</style>
<g>
	<path class="st0" d="M494.9,204.8c0-6,4.9-10.9,10.9-10.9c6,0,10.9,4.9,10.9,10.9c0,6-4.9,10.9-10.9,10.9
		C499.7,215.7,494.9,210.8,494.9,204.8"/>
	<path class="st0" d="M494.9,204.8c0-6,4.9-10.9,10.9-10.9c6,0,10.9,4.9,10.9,10.9c0,6-4.9,10.9-10.9,10.9
		C499.7,215.7,494.9,210.8,494.9,204.8"/>
	<path class="st0" d="M494.9,438.4c0-6,4.9-10.9,10.9-10.9c6,0,10.9,4.9,10.9,10.9c0,6-4.9,10.9-10.9,10.9
		C499.7,449.3,494.9,444.5,494.9,438.4"/>
	<path class="st0" d="M494.9,438.4c0-6,4.9-10.9,10.9-10.9c6,0,10.9,4.9,10.9,10.9c0,6-4.9,10.9-10.9,10.9
		C499.7,449.3,494.9,444.5,494.9,438.4"/>
	<path class="st0" d="M520.9,219.4c0-6,4.9-10.9,10.9-10.9c6,0,10.9,4.9,10.9,10.9c0,6-4.9,10.9-10.9,10.9
		C525.7,230.3,520.9,225.4,520.9,219.4"/>
	<path class="st0" d="M468.9,219.4c0-6,4.9-10.9,10.9-10.9c6,0,10.9,4.9,10.9,10.9c0,6-4.9,10.9-10.9,10.9
		C473.8,230.3,468.9,225.4,468.9,219.4"/>
	<path class="st0" d="M520.9,423.8c0-6,4.9-10.9,10.9-10.9c6,0,10.9,4.9,10.9,10.9s-4.9,10.9-10.9,10.9
		C525.7,434.7,520.9,429.9,520.9,423.8"/>
	<path class="st0" d="M468.9,423.8c0-6,4.9-10.9,10.9-10.9c6,0,10.9,4.9,10.9,10.9s-4.9,10.9-10.9,10.9
		C473.8,434.7,468.9,429.9,468.9,423.8"/>
	<path class="st0" d="M494.9,234c0-6,4.9-10.9,10.9-10.9c6,0,10.9,4.9,10.9,10.9c0,6-4.9,10.9-10.9,10.9
		C499.7,244.9,494.9,240,494.9,234"/>
	<path class="st0" d="M546.8,234c0-6,4.9-10.9,10.9-10.9c6,0,10.9,4.9,10.9,10.9c0,6-4.9,10.9-10.9,10.9
		C551.7,244.9,546.8,240,546.8,234"/>
	<path class="st0" d="M442.9,234c0-6,4.9-10.9,10.9-10.9c6,0,10.9,4.9,10.9,10.9c0,6-4.9,10.9-10.9,10.9
		C447.8,244.9,442.9,240,442.9,234"/>
	<path class="st0" d="M494.9,409.2c0-6,4.9-10.9,10.9-10.9c6,0,10.9,4.9,10.9,10.9s-4.9,10.9-10.9,10.9
		C499.7,420.1,494.9,415.2,494.9,409.2"/>
	<path class="st0" d="M546.8,409.2c0-6,4.9-10.9,10.9-10.9c6,0,10.9,4.9,10.9,10.9s-4.9,10.9-10.9,10.9
		C551.7,420.1,546.8,415.2,546.8,409.2"/>
	<path class="st0" d="M442.9,409.2c0-6,4.9-10.9,10.9-10.9c6,0,10.9,4.9,10.9,10.9s-4.9,10.9-10.9,10.9
		C447.8,420.1,442.9,415.2,442.9,409.2"/>
	<path class="st0" d="M520.9,248.6c0-6,4.9-10.9,10.9-10.9c6,0,10.9,4.9,10.9,10.9c0,6-4.9,10.9-10.9,10.9
		C525.7,259.5,520.9,254.6,520.9,248.6"/>
	<path class="st0" d="M572.8,248.6c0-6,4.9-10.9,10.9-10.9s10.9,4.9,10.9,10.9c0,6-4.9,10.9-10.9,10.9S572.8,254.6,572.8,248.6"/>
	<path class="st0" d="M468.9,248.6c0-6,4.9-10.9,10.9-10.9c6,0,10.9,4.9,10.9,10.9c0,6-4.9,10.9-10.9,10.9
		C473.8,259.5,468.9,254.6,468.9,248.6"/>
	<path class="st0" d="M416.9,248.6c0-6,4.9-10.9,10.9-10.9c6,0,10.9,4.9,10.9,10.9c0,6-4.9,10.9-10.9,10.9
		C421.8,259.5,416.9,254.6,416.9,248.6"/>
	<path class="st0" d="M520.9,277.8c0-6,4.9-10.9,10.9-10.9c6,0,10.9,4.9,10.9,10.9s-4.9,10.9-10.9,10.9
		C525.7,288.7,520.9,283.8,520.9,277.8"/>
	<path class="st0" d="M572.8,277.8c0-6,4.9-10.9,10.9-10.9s10.9,4.9,10.9,10.9c0,6-4.9,10.9-10.9,10.9S572.8,283.8,572.8,277.8"/>
	<path class="st0" d="M468.9,277.8c0-6,4.9-10.9,10.9-10.9c6,0,10.9,4.9,10.9,10.9s-4.9,10.9-10.9,10.9
		C473.8,288.7,468.9,283.8,468.9,277.8"/>
	<path class="st0" d="M416.9,277.8c0-6,4.9-10.9,10.9-10.9c6,0,10.9,4.9,10.9,10.9c0,6-4.9,10.9-10.9,10.9
		C421.8,288.7,416.9,283.8,416.9,277.8"/>
	<path class="st0" d="M520.9,307c0-6,4.9-10.9,10.9-10.9c6,0,10.9,4.9,10.9,10.9c0,6-4.9,10.9-10.9,10.9
		C525.7,317.9,520.9,313,520.9,307"/>
	<path class="st0" d="M572.8,307c0-6,4.9-10.9,10.9-10.9s10.9,4.9,10.9,10.9c0,6-4.9,10.9-10.9,10.9S572.8,313,572.8,307"/>
	<path class="st0" d="M468.9,307c0-6,4.9-10.9,10.9-10.9c6,0,10.9,4.9,10.9,10.9c0,6-4.9,10.9-10.9,10.9
		C473.8,317.9,468.9,313,468.9,307"/>
	<path class="st0" d="M416.9,307c0-6,4.9-10.9,10.9-10.9c6,0,10.9,4.9,10.9,10.9c0,6-4.9,10.9-10.9,10.9
		C421.8,317.9,416.9,313,416.9,307"/>
	<path class="st0" d="M520.9,336.2c0-6,4.9-10.9,10.9-10.9c6,0,10.9,4.9,10.9,10.9s-4.9,10.9-10.9,10.9
		C525.7,347.1,520.9,342.2,520.9,336.2"/>
	<path class="st0" d="M572.8,336.2c0-6,4.9-10.9,10.9-10.9s10.9,4.9,10.9,10.9s-4.9,10.9-10.9,10.9S572.8,342.2,572.8,336.2"/>
	<path class="st0" d="M468.9,336.2c0-6,4.9-10.9,10.9-10.9c6,0,10.9,4.9,10.9,10.9s-4.9,10.9-10.9,10.9
		C473.8,347.1,468.9,342.2,468.9,336.2"/>
	<path class="st0" d="M416.9,336.2c0-6,4.9-10.9,10.9-10.9c6,0,10.9,4.9,10.9,10.9s-4.9,10.9-10.9,10.9
		C421.8,347.1,416.9,342.2,416.9,336.2"/>
	<path class="st0" d="M520.9,365.4c0-6,4.9-10.9,10.9-10.9c6,0,10.9,4.9,10.9,10.9s-4.9,10.9-10.9,10.9
		C525.7,376.3,520.9,371.4,520.9,365.4"/>
	<path class="st0" d="M572.8,365.4c0-6,4.9-10.9,10.9-10.9s10.9,4.9,10.9,10.9s-4.9,10.9-10.9,10.9S572.8,371.4,572.8,365.4"/>
	<path class="st0" d="M468.9,365.4c0-6,4.9-10.9,10.9-10.9c6,0,10.9,4.9,10.9,10.9s-4.9,10.9-10.9,10.9
		C473.8,376.3,468.9,371.4,468.9,365.4"/>
	<path class="st0" d="M416.9,365.4c0-6,4.9-10.9,10.9-10.9c6,0,10.9,4.9,10.9,10.9s-4.9,10.9-10.9,10.9
		C421.8,376.3,416.9,371.4,416.9,365.4"/>
	<path class="st0" d="M520.9,394.6c0-6,4.9-10.9,10.9-10.9c6,0,10.9,4.9,10.9,10.9s-4.9,10.9-10.9,10.9
		C525.7,405.5,520.9,400.6,520.9,394.6"/>
	<path class="st0" d="M572.8,394.6c0-6,4.9-10.9,10.9-10.9s10.9,4.9,10.9,10.9s-4.9,10.9-10.9,10.9S572.8,400.6,572.8,394.6"/>
	<path class="st0" d="M468.9,394.6c0-6,4.9-10.9,10.9-10.9c6,0,10.9,4.9,10.9,10.9s-4.9,10.9-10.9,10.9
		C473.8,405.5,468.9,400.6,468.9,394.6"/>
	<path class="st0" d="M416.9,394.6c0-6,4.9-10.9,10.9-10.9c6,0,10.9,4.9,10.9,10.9s-4.9,10.9-10.9,10.9
		C421.8,405.5,416.9,400.6,416.9,394.6"/>
	<path class="st0" d="M494.9,263.2c0-6,4.9-10.9,10.9-10.9c6,0,10.9,4.9,10.9,10.9c0,6-4.9,10.9-10.9,10.9
		C499.7,274.1,494.9,269.2,494.9,263.2"/>
	<path class="st0" d="M546.8,263.2c0-6,4.9-10.9,10.9-10.9c6,0,10.9,4.9,10.9,10.9c0,6-4.9,10.9-10.9,10.9
		C551.7,274.1,546.8,269.2,546.8,263.2"/>
	<path class="st0" d="M598.8,263.2c0-6,4.9-10.9,10.9-10.9s10.9,4.9,10.9,10.9c0,6-4.9,10.9-10.9,10.9S598.8,269.2,598.8,263.2"/>
	<path class="st0" d="M442.9,263.2c0-6,4.9-10.9,10.9-10.9c6,0,10.9,4.9,10.9,10.9c0,6-4.9,10.9-10.9,10.9
		C447.8,274.1,442.9,269.2,442.9,263.2"/>
	<path class="st0" d="M391,263.2c0-6,4.9-10.9,10.9-10.9c6,0,10.9,4.9,10.9,10.9c0,6-4.9,10.9-10.9,10.9
		C395.8,274.1,391,269.2,391,263.2"/>
	<path class="st0" d="M494.9,292.4c0-6,4.9-10.9,10.9-10.9c6,0,10.9,4.9,10.9,10.9c0,6-4.9,10.9-10.9,10.9
		C499.7,303.3,494.9,298.4,494.9,292.4"/>
	<path class="st0" d="M546.8,292.4c0-6,4.9-10.9,10.9-10.9c6,0,10.9,4.9,10.9,10.9c0,6-4.9,10.9-10.9,10.9
		C551.7,303.3,546.8,298.4,546.8,292.4"/>
	<path class="st0" d="M598.8,292.4c0-6,4.9-10.9,10.9-10.9s10.9,4.9,10.9,10.9c0,6-4.9,10.9-10.9,10.9S598.8,298.4,598.8,292.4"/>
	<path class="st0" d="M442.9,292.4c0-6,4.9-10.9,10.9-10.9c6,0,10.9,4.9,10.9,10.9c0,6-4.9,10.9-10.9,10.9
		C447.8,303.3,442.9,298.4,442.9,292.4"/>
	<path class="st0" d="M391,292.4c0-6,4.9-10.9,10.9-10.9c6,0,10.9,4.9,10.9,10.9c0,6-4.9,10.9-10.9,10.9
		C395.8,303.3,391,298.4,391,292.4"/>
	<path class="st0" d="M494.9,321.6c0-6,4.9-10.9,10.9-10.9c6,0,10.9,4.9,10.9,10.9c0,6-4.9,10.9-10.9,10.9
		C499.7,332.5,494.9,327.6,494.9,321.6"/>
	<path class="st0" d="M546.8,321.6c0-6,4.9-10.9,10.9-10.9c6,0,10.9,4.9,10.9,10.9c0,6-4.9,10.9-10.9,10.9
		C551.7,332.5,546.8,327.6,546.8,321.6"/>
	<path class="st0" d="M598.8,321.6c0-6,4.9-10.9,10.9-10.9s10.9,4.9,10.9,10.9c0,6-4.9,10.9-10.9,10.9S598.8,327.6,598.8,321.6"/>
	<path class="st0" d="M442.9,321.6c0-6,4.9-10.9,10.9-10.9c6,0,10.9,4.9,10.9,10.9c0,6-4.9,10.9-10.9,10.9
		C447.8,332.5,442.9,327.6,442.9,321.6"/>
	<path class="st0" d="M391,321.6c0-6,4.9-10.9,10.9-10.9c6,0,10.9,4.9,10.9,10.9c0,6-4.9,10.9-10.9,10.9
		C395.8,332.5,391,327.6,391,321.6"/>
	<path class="st0" d="M494.9,350.8c0-6,4.9-10.9,10.9-10.9c6,0,10.9,4.9,10.9,10.9c0,6-4.9,10.9-10.9,10.9
		C499.7,361.7,494.9,356.8,494.9,350.8"/>
	<path class="st0" d="M546.8,350.8c0-6,4.9-10.9,10.9-10.9c6,0,10.9,4.9,10.9,10.9c0,6-4.9,10.9-10.9,10.9
		C551.7,361.7,546.8,356.8,546.8,350.8"/>
	<path class="st0" d="M598.8,350.8c0-6,4.9-10.9,10.9-10.9s10.9,4.9,10.9,10.9c0,6-4.9,10.9-10.9,10.9S598.8,356.8,598.8,350.8"/>
	<path class="st1" d="M442.9,350.8c0-6,4.9-10.9,10.9-10.9c6,0,10.9,4.9,10.9,10.9c0,6-4.9,10.9-10.9,10.9
		C447.8,361.7,442.9,356.8,442.9,350.8"/>
	<path class="st0" d="M391,350.8c0-6,4.9-10.9,10.9-10.9c6,0,10.9,4.9,10.9,10.9c0,6-4.9,10.9-10.9,10.9
		C395.8,361.7,391,356.8,391,350.8"/>
	<path class="st0" d="M494.9,380c0-6,4.9-10.9,10.9-10.9c6,0,10.9,4.9,10.9,10.9c0,6-4.9,10.9-10.9,10.9
		C499.7,390.9,494.9,386,494.9,380"/>
	<path class="st0" d="M546.8,380c0-6,4.9-10.9,10.9-10.9c6,0,10.9,4.9,10.9,10.9c0,6-4.9,10.9-10.9,10.9
		C551.7,390.9,546.8,386,546.8,380"/>
	<path class="st0" d="M598.8,380c0-6,4.9-10.9,10.9-10.9s10.9,4.9,10.9,10.9c0,6-4.9,10.9-10.9,10.9S598.8,386,598.8,380"/>
	<path class="st0" d="M442.9,380c0-6,4.9-10.9,10.9-10.9c6,0,10.9,4.9,10.9,10.9c0,6-4.9,10.9-10.9,10.9
		C447.8,390.9,442.9,386,442.9,380"/>
	<path class="st0" d="M391,380c0-6,4.9-10.9,10.9-10.9c6,0,10.9,4.9,10.9,10.9c0,6-4.9,10.9-10.9,10.9C395.8,390.9,391,386,391,380"
		/>
	<polygon points="83.5,354.7 31.3,354.7 31.3,325.5 78.5,325.5 78.5,314.5 31.3,314.5 31.3,288.2 82.2,288.2 82.2,277.6 20.6,277.6 
		20.6,365.4 83.5,365.4 	"/>
	<path d="M184.6,365.4v-87.8H169c0,0-3.5,8.9-3.9,9.9c-12.6,38-21,63.3-21,63.3h-0.2c0,0-8.5-25.4-21.1-63.3
		c-0.4-1.1-3.9-9.9-3.9-9.9H103v87.8h10.8v-51.9c0-2.6-0.2-13-0.2-21.1h0.2l24.1,73h11.8l24.1-73.2h0.2c0,8.3-0.2,73.2-0.2,73.2
		H184.6z"/>
	<path class="st2" d="M216.3,287.4h22.1c13.3,0,18.8,4.7,18.8,13c0,10.9-7.5,13.9-18.9,13.9h-22V287.4z M205.6,365.4h37.3
		c19.6,0,28.9-11.6,28.9-25.8c0-15.2-9-19.3-14.8-21.6c9.8-4.6,10.6-12.7,10.6-18.5c0-12.1-7.3-21.9-23.8-21.9h-38.2V365.4z
		 M216.3,324.4h24c9.8,0,21.2,2.5,21.2,14.9c0,9.9-6.7,16.2-19.2,16.2h-26V324.4z"/>
	<polygon points="300.8,277.6 289.2,277.6 289.2,365.4 346.9,365.4 346.9,354.3 300.8,354.3 	"/>
</g>
</svg>
