<?xml version="1.0" encoding="UTF-8" standalone="no"?>
<!-- Generator: Adobe Illustrator 19.2.1, SVG Export Plug-In . SVG Version: 6.00 Build 0)  -->

<svg
   xmlns:dc="http://purl.org/dc/elements/1.1/"
   xmlns:cc="http://creativecommons.org/ns#"
   xmlns:rdf="http://www.w3.org/1999/02/22-rdf-syntax-ns#"
   xmlns:svg="http://www.w3.org/2000/svg"
   xmlns="http://www.w3.org/2000/svg"
   xmlns:sodipodi="http://sodipodi.sourceforge.net/DTD/sodipodi-0.dtd"
   xmlns:inkscape="http://www.inkscape.org/namespaces/inkscape"
   version="1.1"
   id="layer"
   x="0px"
   y="0px"
   viewBox="0 0 500 300"
   xml:space="preserve"
   sodipodi:docname="EMBL-EBI.svg"
   width="500"
   height="300"
   inkscape:version="0.92.3 (2405546, 2018-03-11)"><metadata
   id="metadata1234"><rdf:RDF><cc:Work
       rdf:about=""><dc:format>image/svg+xml</dc:format><dc:type
         rdf:resource="http://purl.org/dc/dcmitype/StillImage" /><dc:title></dc:title></cc:Work></rdf:RDF></metadata><defs
   id="defs1232" /><sodipodi:namedview
   pagecolor="#ffffff"
   bordercolor="#666666"
   borderopacity="1"
   objecttolerance="10"
   gridtolerance="10"
   guidetolerance="10"
   inkscape:pageopacity="0"
   inkscape:pageshadow="2"
   inkscape:window-width="2560"
   inkscape:window-height="1247"
   id="namedview1230"
   showgrid="false"
   units="px"
   inkscape:zoom="1.6058282"
   inkscape:cx="305.3588"
   inkscape:cy="294.20433"
   inkscape:window-x="0"
   inkscape:window-y="0"
   inkscape:window-maximized="1"
   inkscape:current-layer="layer" />
<style
   type="text/css"
   id="style1091">
	.st0{fill:#6DAC48;}
	.st1{fill:#DB0720;}
	.st2{fill-rule:evenodd;clip-rule:evenodd;}
</style>
<g
   id="g1227"
   transform="matrix(0.7683653,0,0,0.7683653,4.7716749,-97.08603)">
	<path
   class="st0"
   d="m 494.9,204.8 c 0,-6 4.9,-10.9 10.9,-10.9 6,0 10.9,4.9 10.9,10.9 0,6 -4.9,10.9 -10.9,10.9 -6.1,0 -10.9,-4.9 -10.9,-10.9"
   id="path1093"
   inkscape:connector-curvature="0"
   style="fill:#6dac48" />
	<path
   class="st0"
   d="m 494.9,204.8 c 0,-6 4.9,-10.9 10.9,-10.9 6,0 10.9,4.9 10.9,10.9 0,6 -4.9,10.9 -10.9,10.9 -6.1,0 -10.9,-4.9 -10.9,-10.9"
   id="path1095"
   inkscape:connector-curvature="0"
   style="fill:#6dac48" />
	<path
   class="st0"
   d="m 494.9,438.4 c 0,-6 4.9,-10.9 10.9,-10.9 6,0 10.9,4.9 10.9,10.9 0,6 -4.9,10.9 -10.9,10.9 -6.1,0 -10.9,-4.8 -10.9,-10.9"
   id="path1097"
   inkscape:connector-curvature="0"
   style="fill:#6dac48" />
	<path
   class="st0"
   d="m 494.9,438.4 c 0,-6 4.9,-10.9 10.9,-10.9 6,0 10.9,4.9 10.9,10.9 0,6 -4.9,10.9 -10.9,10.9 -6.1,0 -10.9,-4.8 -10.9,-10.9"
   id="path1099"
   inkscape:connector-curvature="0"
   style="fill:#6dac48" />
	<path
   class="st0"
   d="m 520.9,219.4 c 0,-6 4.9,-10.9 10.9,-10.9 6,0 10.9,4.9 10.9,10.9 0,6 -4.9,10.9 -10.9,10.9 -6.1,0 -10.9,-4.9 -10.9,-10.9"
   id="path1101"
   inkscape:connector-curvature="0"
   style="fill:#6dac48" />
	<path
   class="st0"
   d="m 468.9,219.4 c 0,-6 4.9,-10.9 10.9,-10.9 6,0 10.9,4.9 10.9,10.9 0,6 -4.9,10.9 -10.9,10.9 -6,0 -10.9,-4.9 -10.9,-10.9"
   id="path1103"
   inkscape:connector-curvature="0"
   style="fill:#6dac48" />
	<path
   class="st0"
   d="m 520.9,423.8 c 0,-6 4.9,-10.9 10.9,-10.9 6,0 10.9,4.9 10.9,10.9 0,6 -4.9,10.9 -10.9,10.9 -6.1,0 -10.9,-4.8 -10.9,-10.9"
   id="path1105"
   inkscape:connector-curvature="0"
   style="fill:#6dac48" />
	<path
   class="st0"
   d="m 468.9,423.8 c 0,-6 4.9,-10.9 10.9,-10.9 6,0 10.9,4.9 10.9,10.9 0,6 -4.9,10.9 -10.9,10.9 -6,0 -10.9,-4.8 -10.9,-10.9"
   id="path1107"
   inkscape:connector-curvature="0"
   style="fill:#6dac48" />
	<path
   class="st0"
   d="m 494.9,234 c 0,-6 4.9,-10.9 10.9,-10.9 6,0 10.9,4.9 10.9,10.9 0,6 -4.9,10.9 -10.9,10.9 -6.1,0 -10.9,-4.9 -10.9,-10.9"
   id="path1109"
   inkscape:connector-curvature="0"
   style="fill:#6dac48" />
	<path
   class="st0"
   d="m 546.8,234 c 0,-6 4.9,-10.9 10.9,-10.9 6,0 10.9,4.9 10.9,10.9 0,6 -4.9,10.9 -10.9,10.9 -6,0 -10.9,-4.9 -10.9,-10.9"
   id="path1111"
   inkscape:connector-curvature="0"
   style="fill:#6dac48" />
	<path
   class="st0"
   d="m 442.9,234 c 0,-6 4.9,-10.9 10.9,-10.9 6,0 10.9,4.9 10.9,10.9 0,6 -4.9,10.9 -10.9,10.9 -6,0 -10.9,-4.9 -10.9,-10.9"
   id="path1113"
   inkscape:connector-curvature="0"
   style="fill:#6dac48" />
	<path
   class="st0"
   d="m 494.9,409.2 c 0,-6 4.9,-10.9 10.9,-10.9 6,0 10.9,4.9 10.9,10.9 0,6 -4.9,10.9 -10.9,10.9 -6.1,0 -10.9,-4.9 -10.9,-10.9"
   id="path1115"
   inkscape:connector-curvature="0"
   style="fill:#6dac48" />
	<path
   class="st0"
   d="m 546.8,409.2 c 0,-6 4.9,-10.9 10.9,-10.9 6,0 10.9,4.9 10.9,10.9 0,6 -4.9,10.9 -10.9,10.9 -6,0 -10.9,-4.9 -10.9,-10.9"
   id="path1117"
   inkscape:connector-curvature="0"
   style="fill:#6dac48" />
	<path
   class="st0"
   d="m 442.9,409.2 c 0,-6 4.9,-10.9 10.9,-10.9 6,0 10.9,4.9 10.9,10.9 0,6 -4.9,10.9 -10.9,10.9 -6,0 -10.9,-4.9 -10.9,-10.9"
   id="path1119"
   inkscape:connector-curvature="0"
   style="fill:#6dac48" />
	<path
   class="st0"
   d="m 520.9,248.6 c 0,-6 4.9,-10.9 10.9,-10.9 6,0 10.9,4.9 10.9,10.9 0,6 -4.9,10.9 -10.9,10.9 -6.1,0 -10.9,-4.9 -10.9,-10.9"
   id="path1121"
   inkscape:connector-curvature="0"
   style="fill:#6dac48" />
	<path
   class="st0"
   d="m 572.8,248.6 c 0,-6 4.9,-10.9 10.9,-10.9 6,0 10.9,4.9 10.9,10.9 0,6 -4.9,10.9 -10.9,10.9 -6,0 -10.9,-4.9 -10.9,-10.9"
   id="path1123"
   inkscape:connector-curvature="0"
   style="fill:#6dac48" />
	<path
   class="st0"
   d="m 468.9,248.6 c 0,-6 4.9,-10.9 10.9,-10.9 6,0 10.9,4.9 10.9,10.9 0,6 -4.9,10.9 -10.9,10.9 -6,0 -10.9,-4.9 -10.9,-10.9"
   id="path1125"
   inkscape:connector-curvature="0"
   style="fill:#6dac48" />
	<path
   class="st0"
   d="m 416.9,248.6 c 0,-6 4.9,-10.9 10.9,-10.9 6,0 10.9,4.9 10.9,10.9 0,6 -4.9,10.9 -10.9,10.9 -6,0 -10.9,-4.9 -10.9,-10.9"
   id="path1127"
   inkscape:connector-curvature="0"
   style="fill:#6dac48" />
	<path
   class="st0"
   d="m 520.9,277.8 c 0,-6 4.9,-10.9 10.9,-10.9 6,0 10.9,4.9 10.9,10.9 0,6 -4.9,10.9 -10.9,10.9 -6.1,0 -10.9,-4.9 -10.9,-10.9"
   id="path1129"
   inkscape:connector-curvature="0"
   style="fill:#6dac48" />
	<path
   class="st0"
   d="m 572.8,277.8 c 0,-6 4.9,-10.9 10.9,-10.9 6,0 10.9,4.9 10.9,10.9 0,6 -4.9,10.9 -10.9,10.9 -6,0 -10.9,-4.9 -10.9,-10.9"
   id="path1131"
   inkscape:connector-curvature="0"
   style="fill:#6dac48" />
	<path
   class="st0"
   d="m 468.9,277.8 c 0,-6 4.9,-10.9 10.9,-10.9 6,0 10.9,4.9 10.9,10.9 0,6 -4.9,10.9 -10.9,10.9 -6,0 -10.9,-4.9 -10.9,-10.9"
   id="path1133"
   inkscape:connector-curvature="0"
   style="fill:#6dac48" />
	<path
   class="st0"
   d="m 416.9,277.8 c 0,-6 4.9,-10.9 10.9,-10.9 6,0 10.9,4.9 10.9,10.9 0,6 -4.9,10.9 -10.9,10.9 -6,0 -10.9,-4.9 -10.9,-10.9"
   id="path1135"
   inkscape:connector-curvature="0"
   style="fill:#6dac48" />
	<path
   class="st0"
   d="m 520.9,307 c 0,-6 4.9,-10.9 10.9,-10.9 6,0 10.9,4.9 10.9,10.9 0,6 -4.9,10.9 -10.9,10.9 -6.1,0 -10.9,-4.9 -10.9,-10.9"
   id="path1137"
   inkscape:connector-curvature="0"
   style="fill:#6dac48" />
	<path
   class="st0"
   d="m 572.8,307 c 0,-6 4.9,-10.9 10.9,-10.9 6,0 10.9,4.9 10.9,10.9 0,6 -4.9,10.9 -10.9,10.9 -6,0 -10.9,-4.9 -10.9,-10.9"
   id="path1139"
   inkscape:connector-curvature="0"
   style="fill:#6dac48" />
	<path
   class="st0"
   d="m 468.9,307 c 0,-6 4.9,-10.9 10.9,-10.9 6,0 10.9,4.9 10.9,10.9 0,6 -4.9,10.9 -10.9,10.9 -6,0 -10.9,-4.9 -10.9,-10.9"
   id="path1141"
   inkscape:connector-curvature="0"
   style="fill:#6dac48" />
	<path
   class="st0"
   d="m 416.9,307 c 0,-6 4.9,-10.9 10.9,-10.9 6,0 10.9,4.9 10.9,10.9 0,6 -4.9,10.9 -10.9,10.9 -6,0 -10.9,-4.9 -10.9,-10.9"
   id="path1143"
   inkscape:connector-curvature="0"
   style="fill:#6dac48" />
	<path
   class="st0"
   d="m 520.9,336.2 c 0,-6 4.9,-10.9 10.9,-10.9 6,0 10.9,4.9 10.9,10.9 0,6 -4.9,10.9 -10.9,10.9 -6.1,0 -10.9,-4.9 -10.9,-10.9"
   id="path1145"
   inkscape:connector-curvature="0"
   style="fill:#6dac48" />
	<path
   class="st0"
   d="m 572.8,336.2 c 0,-6 4.9,-10.9 10.9,-10.9 6,0 10.9,4.9 10.9,10.9 0,6 -4.9,10.9 -10.9,10.9 -6,0 -10.9,-4.9 -10.9,-10.9"
   id="path1147"
   inkscape:connector-curvature="0"
   style="fill:#6dac48" />
	<path
   class="st0"
   d="m 468.9,336.2 c 0,-6 4.9,-10.9 10.9,-10.9 6,0 10.9,4.9 10.9,10.9 0,6 -4.9,10.9 -10.9,10.9 -6,0 -10.9,-4.9 -10.9,-10.9"
   id="path1149"
   inkscape:connector-curvature="0"
   style="fill:#6dac48" />
	<path
   class="st0"
   d="m 416.9,336.2 c 0,-6 4.9,-10.9 10.9,-10.9 6,0 10.9,4.9 10.9,10.9 0,6 -4.9,10.9 -10.9,10.9 -6,0 -10.9,-4.9 -10.9,-10.9"
   id="path1151"
   inkscape:connector-curvature="0"
   style="fill:#6dac48" />
	<path
   class="st0"
   d="m 520.9,365.4 c 0,-6 4.9,-10.9 10.9,-10.9 6,0 10.9,4.9 10.9,10.9 0,6 -4.9,10.9 -10.9,10.9 -6.1,0 -10.9,-4.9 -10.9,-10.9"
   id="path1153"
   inkscape:connector-curvature="0"
   style="fill:#6dac48" />
	<path
   class="st0"
   d="m 572.8,365.4 c 0,-6 4.9,-10.9 10.9,-10.9 6,0 10.9,4.9 10.9,10.9 0,6 -4.9,10.9 -10.9,10.9 -6,0 -10.9,-4.9 -10.9,-10.9"
   id="path1155"
   inkscape:connector-curvature="0"
   style="fill:#6dac48" />
	<path
   class="st0"
   d="m 468.9,365.4 c 0,-6 4.9,-10.9 10.9,-10.9 6,0 10.9,4.9 10.9,10.9 0,6 -4.9,10.9 -10.9,10.9 -6,0 -10.9,-4.9 -10.9,-10.9"
   id="path1157"
   inkscape:connector-curvature="0"
   style="fill:#6dac48" />
	<path
   class="st0"
   d="m 416.9,365.4 c 0,-6 4.9,-10.9 10.9,-10.9 6,0 10.9,4.9 10.9,10.9 0,6 -4.9,10.9 -10.9,10.9 -6,0 -10.9,-4.9 -10.9,-10.9"
   id="path1159"
   inkscape:connector-curvature="0"
   style="fill:#6dac48" />
	<path
   class="st0"
   d="m 520.9,394.6 c 0,-6 4.9,-10.9 10.9,-10.9 6,0 10.9,4.9 10.9,10.9 0,6 -4.9,10.9 -10.9,10.9 -6.1,0 -10.9,-4.9 -10.9,-10.9"
   id="path1161"
   inkscape:connector-curvature="0"
   style="fill:#6dac48" />
	<path
   class="st0"
   d="m 572.8,394.6 c 0,-6 4.9,-10.9 10.9,-10.9 6,0 10.9,4.9 10.9,10.9 0,6 -4.9,10.9 -10.9,10.9 -6,0 -10.9,-4.9 -10.9,-10.9"
   id="path1163"
   inkscape:connector-curvature="0"
   style="fill:#6dac48" />
	<path
   class="st0"
   d="m 468.9,394.6 c 0,-6 4.9,-10.9 10.9,-10.9 6,0 10.9,4.9 10.9,10.9 0,6 -4.9,10.9 -10.9,10.9 -6,0 -10.9,-4.9 -10.9,-10.9"
   id="path1165"
   inkscape:connector-curvature="0"
   style="fill:#6dac48" />
	<path
   class="st0"
   d="m 416.9,394.6 c 0,-6 4.9,-10.9 10.9,-10.9 6,0 10.9,4.9 10.9,10.9 0,6 -4.9,10.9 -10.9,10.9 -6,0 -10.9,-4.9 -10.9,-10.9"
   id="path1167"
   inkscape:connector-curvature="0"
   style="fill:#6dac48" />
	<path
   class="st0"
   d="m 494.9,263.2 c 0,-6 4.9,-10.9 10.9,-10.9 6,0 10.9,4.9 10.9,10.9 0,6 -4.9,10.9 -10.9,10.9 -6.1,0 -10.9,-4.9 -10.9,-10.9"
   id="path1169"
   inkscape:connector-curvature="0"
   style="fill:#6dac48" />
	<path
   class="st0"
   d="m 546.8,263.2 c 0,-6 4.9,-10.9 10.9,-10.9 6,0 10.9,4.9 10.9,10.9 0,6 -4.9,10.9 -10.9,10.9 -6,0 -10.9,-4.9 -10.9,-10.9"
   id="path1171"
   inkscape:connector-curvature="0"
   style="fill:#6dac48" />
	<path
   class="st0"
   d="m 598.8,263.2 c 0,-6 4.9,-10.9 10.9,-10.9 6,0 10.9,4.9 10.9,10.9 0,6 -4.9,10.9 -10.9,10.9 -6,0 -10.9,-4.9 -10.9,-10.9"
   id="path1173"
   inkscape:connector-curvature="0"
   style="fill:#6dac48" />
	<path
   class="st0"
   d="m 442.9,263.2 c 0,-6 4.9,-10.9 10.9,-10.9 6,0 10.9,4.9 10.9,10.9 0,6 -4.9,10.9 -10.9,10.9 -6,0 -10.9,-4.9 -10.9,-10.9"
   id="path1175"
   inkscape:connector-curvature="0"
   style="fill:#6dac48" />
	<path
   class="st0"
   d="m 391,263.2 c 0,-6 4.9,-10.9 10.9,-10.9 6,0 10.9,4.9 10.9,10.9 0,6 -4.9,10.9 -10.9,10.9 -6.1,0 -10.9,-4.9 -10.9,-10.9"
   id="path1177"
   inkscape:connector-curvature="0"
   style="fill:#6dac48" />
	<path
   class="st0"
   d="m 494.9,292.4 c 0,-6 4.9,-10.9 10.9,-10.9 6,0 10.9,4.9 10.9,10.9 0,6 -4.9,10.9 -10.9,10.9 -6.1,0 -10.9,-4.9 -10.9,-10.9"
   id="path1179"
   inkscape:connector-curvature="0"
   style="fill:#6dac48" />
	<path
   class="st0"
   d="m 546.8,292.4 c 0,-6 4.9,-10.9 10.9,-10.9 6,0 10.9,4.9 10.9,10.9 0,6 -4.9,10.9 -10.9,10.9 -6,0 -10.9,-4.9 -10.9,-10.9"
   id="path1181"
   inkscape:connector-curvature="0"
   style="fill:#6dac48" />
	<path
   class="st0"
   d="m 598.8,292.4 c 0,-6 4.9,-10.9 10.9,-10.9 6,0 10.9,4.9 10.9,10.9 0,6 -4.9,10.9 -10.9,10.9 -6,0 -10.9,-4.9 -10.9,-10.9"
   id="path1183"
   inkscape:connector-curvature="0"
   style="fill:#6dac48" />
	<path
   class="st0"
   d="m 442.9,292.4 c 0,-6 4.9,-10.9 10.9,-10.9 6,0 10.9,4.9 10.9,10.9 0,6 -4.9,10.9 -10.9,10.9 -6,0 -10.9,-4.9 -10.9,-10.9"
   id="path1185"
   inkscape:connector-curvature="0"
   style="fill:#6dac48" />
	<path
   class="st0"
   d="m 391,292.4 c 0,-6 4.9,-10.9 10.9,-10.9 6,0 10.9,4.9 10.9,10.9 0,6 -4.9,10.9 -10.9,10.9 -6.1,0 -10.9,-4.9 -10.9,-10.9"
   id="path1187"
   inkscape:connector-curvature="0"
   style="fill:#6dac48" />
	<path
   class="st0"
   d="m 494.9,321.6 c 0,-6 4.9,-10.9 10.9,-10.9 6,0 10.9,4.9 10.9,10.9 0,6 -4.9,10.9 -10.9,10.9 -6.1,0 -10.9,-4.9 -10.9,-10.9"
   id="path1189"
   inkscape:connector-curvature="0"
   style="fill:#6dac48" />
	<path
   class="st0"
   d="m 546.8,321.6 c 0,-6 4.9,-10.9 10.9,-10.9 6,0 10.9,4.9 10.9,10.9 0,6 -4.9,10.9 -10.9,10.9 -6,0 -10.9,-4.9 -10.9,-10.9"
   id="path1191"
   inkscape:connector-curvature="0"
   style="fill:#6dac48" />
	<path
   class="st0"
   d="m 598.8,321.6 c 0,-6 4.9,-10.9 10.9,-10.9 6,0 10.9,4.9 10.9,10.9 0,6 -4.9,10.9 -10.9,10.9 -6,0 -10.9,-4.9 -10.9,-10.9"
   id="path1193"
   inkscape:connector-curvature="0"
   style="fill:#6dac48" />
	<path
   class="st0"
   d="m 442.9,321.6 c 0,-6 4.9,-10.9 10.9,-10.9 6,0 10.9,4.9 10.9,10.9 0,6 -4.9,10.9 -10.9,10.9 -6,0 -10.9,-4.9 -10.9,-10.9"
   id="path1195"
   inkscape:connector-curvature="0"
   style="fill:#6dac48" />
	<path
   class="st0"
   d="m 391,321.6 c 0,-6 4.9,-10.9 10.9,-10.9 6,0 10.9,4.9 10.9,10.9 0,6 -4.9,10.9 -10.9,10.9 -6.1,0 -10.9,-4.9 -10.9,-10.9"
   id="path1197"
   inkscape:connector-curvature="0"
   style="fill:#6dac48" />
	<path
   class="st0"
   d="m 494.9,350.8 c 0,-6 4.9,-10.9 10.9,-10.9 6,0 10.9,4.9 10.9,10.9 0,6 -4.9,10.9 -10.9,10.9 -6.1,0 -10.9,-4.9 -10.9,-10.9"
   id="path1199"
   inkscape:connector-curvature="0"
   style="fill:#6dac48" />
	<path
   class="st0"
   d="m 546.8,350.8 c 0,-6 4.9,-10.9 10.9,-10.9 6,0 10.9,4.9 10.9,10.9 0,6 -4.9,10.9 -10.9,10.9 -6,0 -10.9,-4.9 -10.9,-10.9"
   id="path1201"
   inkscape:connector-curvature="0"
   style="fill:#6dac48" />
	<path
   class="st0"
   d="m 598.8,350.8 c 0,-6 4.9,-10.9 10.9,-10.9 6,0 10.9,4.9 10.9,10.9 0,6 -4.9,10.9 -10.9,10.9 -6,0 -10.9,-4.9 -10.9,-10.9"
   id="path1203"
   inkscape:connector-curvature="0"
   style="fill:#6dac48" />
	<path
   class="st1"
   d="m 442.9,350.8 c 0,-6 4.9,-10.9 10.9,-10.9 6,0 10.9,4.9 10.9,10.9 0,6 -4.9,10.9 -10.9,10.9 -6,0 -10.9,-4.9 -10.9,-10.9"
   id="path1205"
   inkscape:connector-curvature="0"
   style="fill:#db0720" />
	<path
   class="st0"
   d="m 391,350.8 c 0,-6 4.9,-10.9 10.9,-10.9 6,0 10.9,4.9 10.9,10.9 0,6 -4.9,10.9 -10.9,10.9 -6.1,0 -10.9,-4.9 -10.9,-10.9"
   id="path1207"
   inkscape:connector-curvature="0"
   style="fill:#6dac48" />
	<path
   class="st0"
   d="m 494.9,380 c 0,-6 4.9,-10.9 10.9,-10.9 6,0 10.9,4.9 10.9,10.9 0,6 -4.9,10.9 -10.9,10.9 -6.1,0 -10.9,-4.9 -10.9,-10.9"
   id="path1209"
   inkscape:connector-curvature="0"
   style="fill:#6dac48" />
	<path
   class="st0"
   d="m 546.8,380 c 0,-6 4.9,-10.9 10.9,-10.9 6,0 10.9,4.9 10.9,10.9 0,6 -4.9,10.9 -10.9,10.9 -6,0 -10.9,-4.9 -10.9,-10.9"
   id="path1211"
   inkscape:connector-curvature="0"
   style="fill:#6dac48" />
	<path
   class="st0"
   d="m 598.8,380 c 0,-6 4.9,-10.9 10.9,-10.9 6,0 10.9,4.9 10.9,10.9 0,6 -4.9,10.9 -10.9,10.9 -6,0 -10.9,-4.9 -10.9,-10.9"
   id="path1213"
   inkscape:connector-curvature="0"
   style="fill:#6dac48" />
	<path
   class="st0"
   d="m 442.9,380 c 0,-6 4.9,-10.9 10.9,-10.9 6,0 10.9,4.9 10.9,10.9 0,6 -4.9,10.9 -10.9,10.9 -6,0 -10.9,-4.9 -10.9,-10.9"
   id="path1215"
   inkscape:connector-curvature="0"
   style="fill:#6dac48" />
	<path
   class="st0"
   d="m 391,380 c 0,-6 4.9,-10.9 10.9,-10.9 6,0 10.9,4.9 10.9,10.9 0,6 -4.9,10.9 -10.9,10.9 -6.1,0 -10.9,-4.9 -10.9,-10.9"
   id="path1217"
   inkscape:connector-curvature="0"
   style="fill:#6dac48" />
	<polygon
   points="82.2,277.6 20.6,277.6 20.6,365.4 83.5,365.4 83.5,354.7 31.3,354.7 31.3,325.5 78.5,325.5 78.5,314.5 31.3,314.5 31.3,288.2 82.2,288.2 "
   id="polygon1219" />
	<path
   d="M 184.6,365.4 V 277.6 H 169 c 0,0 -3.5,8.9 -3.9,9.9 -12.6,38 -21,63.3 -21,63.3 h -0.2 c 0,0 -8.5,-25.4 -21.1,-63.3 -0.4,-1.1 -3.9,-9.9 -3.9,-9.9 H 103 v 87.8 h 10.8 v -51.9 c 0,-2.6 -0.2,-13 -0.2,-21.1 h 0.2 l 24.1,73 h 11.8 l 24.1,-73.2 h 0.2 c 0,8.3 -0.2,73.2 -0.2,73.2 z"
   id="path1221"
   inkscape:connector-curvature="0" />
	<path
   class="st2"
   d="m 216.3,287.4 h 22.1 c 13.3,0 18.8,4.7 18.8,13 0,10.9 -7.5,13.9 -18.9,13.9 h -22 z m -10.7,78 h 37.3 c 19.6,0 28.9,-11.6 28.9,-25.8 0,-15.2 -9,-19.3 -14.8,-21.6 9.8,-4.6 10.6,-12.7 10.6,-18.5 0,-12.1 -7.3,-21.9 -23.8,-21.9 h -38.2 z m 10.7,-41 h 24 c 9.8,0 21.2,2.5 21.2,14.9 0,9.9 -6.7,16.2 -19.2,16.2 h -26 z"
   id="path1223"
   inkscape:connector-curvature="0"
   style="clip-rule:evenodd;fill-rule:evenodd" />
	<polygon
   points="289.2,365.4 346.9,365.4 346.9,354.3 300.8,354.3 300.8,277.6 289.2,277.6 "
   id="polygon1225" />
</g>
</svg>