<?xml version="1.0" encoding="UTF-8"?>
<svg width="601px" height="257px" viewBox="0 0 601 257" version="1.1" xmlns="http://www.w3.org/2000/svg" xmlns:xlink="http://www.w3.org/1999/xlink" xmlns:sketch="http://www.bohemiancoding.com/sketch/ns">
    <!-- Generator: Sketch 3.3.2 (12043) - http://www.bohemiancoding.com/sketch -->
    <title>ELIXIR-EMBL-EBI</title>
    <desc>Created with Sketch.</desc>
    <defs></defs>
    <g id="Page-1" stroke="none" stroke-width="1" fill="none" fill-rule="evenodd" sketch:type="MSPage">
        <g id="ELIXIR-EMBL-EBI" sketch:type="MSLayerGroup">
            <g id="Group" sketch:type="MSShapeGroup">
                <path d="M474.9,11.8 C474.9,5.8 479.8,0.9 485.8,0.9 C491.8,0.9 496.7,5.8 496.7,11.8 C496.7,17.8 491.8,22.7 485.8,22.7 C479.7,22.7 474.9,17.8 474.9,11.8" id="Shape" fill="#6DAC48"></path>
                <path d="M474.9,11.8 C474.9,5.8 479.8,0.9 485.8,0.9 C491.8,0.9 496.7,5.8 496.7,11.8 C496.7,17.8 491.8,22.7 485.8,22.7 C479.7,22.7 474.9,17.8 474.9,11.8" id="Shape" fill="#6DAC48"></path>
                <path d="M474.9,245.4 C474.9,239.4 479.8,234.5 485.8,234.5 C491.8,234.5 496.7,239.4 496.7,245.4 C496.7,251.4 491.8,256.3 485.8,256.3 C479.7,256.3 474.9,251.5 474.9,245.4" id="Shape" fill="#6DAC48"></path>
                <path d="M474.9,245.4 C474.9,239.4 479.8,234.5 485.8,234.5 C491.8,234.5 496.7,239.4 496.7,245.4 C496.7,251.4 491.8,256.3 485.8,256.3 C479.7,256.3 474.9,251.5 474.9,245.4" id="Shape" fill="#6DAC48"></path>
                <path d="M500.9,26.4 C500.9,20.4 505.8,15.5 511.8,15.5 C517.8,15.5 522.7,20.4 522.7,26.4 C522.7,32.4 517.8,37.3 511.8,37.3 C505.7,37.3 500.9,32.4 500.9,26.4" id="Shape" fill="#6DAC48"></path>
                <path d="M448.9,26.4 C448.9,20.4 453.8,15.5 459.8,15.5 C465.8,15.5 470.7,20.4 470.7,26.4 C470.7,32.4 465.8,37.3 459.8,37.3 C453.8,37.3 448.9,32.4 448.9,26.4" id="Shape" fill="#6DAC48"></path>
                <path d="M500.9,230.8 C500.9,224.8 505.8,219.9 511.8,219.9 C517.8,219.9 522.7,224.8 522.7,230.8 C522.7,236.8 517.8,241.7 511.8,241.7 C505.7,241.7 500.9,236.9 500.9,230.8" id="Shape" fill="#6DAC48"></path>
                <path d="M448.9,230.8 C448.9,224.8 453.8,219.9 459.8,219.9 C465.8,219.9 470.7,224.8 470.7,230.8 C470.7,236.8 465.8,241.7 459.8,241.7 C453.8,241.7 448.9,236.9 448.9,230.8" id="Shape" fill="#6DAC48"></path>
                <path d="M474.9,41 C474.9,35 479.8,30.1 485.8,30.1 C491.8,30.1 496.7,35 496.7,41 C496.7,47 491.8,51.9 485.8,51.9 C479.7,51.9 474.9,47 474.9,41" id="Shape" fill="#6DAC48"></path>
                <path d="M526.8,41 C526.8,35 531.7,30.1 537.7,30.1 C543.7,30.1 548.6,35 548.6,41 C548.6,47 543.7,51.9 537.7,51.9 C531.7,51.9 526.8,47 526.8,41" id="Shape" fill="#6DAC48"></path>
                <path d="M422.9,41 C422.9,35 427.8,30.1 433.8,30.1 C439.8,30.1 444.7,35 444.7,41 C444.7,47 439.8,51.9 433.8,51.9 C427.8,51.9 422.9,47 422.9,41" id="Shape" fill="#6DAC48"></path>
                <path d="M474.9,216.2 C474.9,210.2 479.8,205.3 485.8,205.3 C491.8,205.3 496.7,210.2 496.7,216.2 C496.7,222.2 491.8,227.1 485.8,227.1 C479.7,227.1 474.9,222.2 474.9,216.2" id="Shape" fill="#6DAC48"></path>
                <path d="M526.8,216.2 C526.8,210.2 531.7,205.3 537.7,205.3 C543.7,205.3 548.6,210.2 548.6,216.2 C548.6,222.2 543.7,227.1 537.7,227.1 C531.7,227.1 526.8,222.2 526.8,216.2" id="Shape" fill="#6DAC48"></path>
                <path d="M422.9,216.2 C422.9,210.2 427.8,205.3 433.8,205.3 C439.8,205.3 444.7,210.2 444.7,216.2 C444.7,222.2 439.8,227.1 433.8,227.1 C427.8,227.1 422.9,222.2 422.9,216.2" id="Shape" fill="#6DAC48"></path>
                <path d="M500.9,55.6 C500.9,49.6 505.8,44.7 511.8,44.7 C517.8,44.7 522.7,49.6 522.7,55.6 C522.7,61.6 517.8,66.5 511.8,66.5 C505.7,66.5 500.9,61.6 500.9,55.6" id="Shape" fill="#6DAC48"></path>
                <path d="M552.8,55.6 C552.8,49.6 557.7,44.7 563.7,44.7 C569.7,44.7 574.6,49.6 574.6,55.6 C574.6,61.6 569.7,66.5 563.7,66.5 C557.7,66.5 552.8,61.6 552.8,55.6" id="Shape" fill="#6DAC48"></path>
                <path d="M448.9,55.6 C448.9,49.6 453.8,44.7 459.8,44.7 C465.8,44.7 470.7,49.6 470.7,55.6 C470.7,61.6 465.8,66.5 459.8,66.5 C453.8,66.5 448.9,61.6 448.9,55.6" id="Shape" fill="#6DAC48"></path>
                <path d="M396.9,55.6 C396.9,49.6 401.8,44.7 407.8,44.7 C413.8,44.7 418.7,49.6 418.7,55.6 C418.7,61.6 413.8,66.5 407.8,66.5 C401.8,66.5 396.9,61.6 396.9,55.6" id="Shape" fill="#6DAC48"></path>
                <path d="M500.9,84.8 C500.9,78.8 505.8,73.9 511.8,73.9 C517.8,73.9 522.7,78.8 522.7,84.8 C522.7,90.8 517.8,95.7 511.8,95.7 C505.7,95.7 500.9,90.8 500.9,84.8" id="Shape" fill="#6DAC48"></path>
                <path d="M552.8,84.8 C552.8,78.8 557.7,73.9 563.7,73.9 C569.7,73.9 574.6,78.8 574.6,84.8 C574.6,90.8 569.7,95.7 563.7,95.7 C557.7,95.7 552.8,90.8 552.8,84.8" id="Shape" fill="#6DAC48"></path>
                <path d="M448.9,84.8 C448.9,78.8 453.8,73.9 459.8,73.9 C465.8,73.9 470.7,78.8 470.7,84.8 C470.7,90.8 465.8,95.7 459.8,95.7 C453.8,95.7 448.9,90.8 448.9,84.8" id="Shape" fill="#6DAC48"></path>
                <path d="M396.9,84.8 C396.9,78.8 401.8,73.9 407.8,73.9 C413.8,73.9 418.7,78.8 418.7,84.8 C418.7,90.8 413.8,95.7 407.8,95.7 C401.8,95.7 396.9,90.8 396.9,84.8" id="Shape" fill="#6DAC48"></path>
                <path d="M500.9,114 C500.9,108 505.8,103.1 511.8,103.1 C517.8,103.1 522.7,108 522.7,114 C522.7,120 517.8,124.9 511.8,124.9 C505.7,124.9 500.9,120 500.9,114" id="Shape" fill="#6DAC48"></path>
                <path d="M552.8,114 C552.8,108 557.7,103.1 563.7,103.1 C569.7,103.1 574.6,108 574.6,114 C574.6,120 569.7,124.9 563.7,124.9 C557.7,124.9 552.8,120 552.8,114" id="Shape" fill="#6DAC48"></path>
                <path d="M448.9,114 C448.9,108 453.8,103.1 459.8,103.1 C465.8,103.1 470.7,108 470.7,114 C470.7,120 465.8,124.9 459.8,124.9 C453.8,124.9 448.9,120 448.9,114" id="Shape" fill="#6DAC48"></path>
                <path d="M396.9,114 C396.9,108 401.8,103.1 407.8,103.1 C413.8,103.1 418.7,108 418.7,114 C418.7,120 413.8,124.9 407.8,124.9 C401.8,124.9 396.9,120 396.9,114" id="Shape" fill="#6DAC48"></path>
                <path d="M500.9,143.2 C500.9,137.2 505.8,132.3 511.8,132.3 C517.8,132.3 522.7,137.2 522.7,143.2 C522.7,149.2 517.8,154.1 511.8,154.1 C505.7,154.1 500.9,149.2 500.9,143.2" id="Shape" fill="#6DAC48"></path>
                <path d="M552.8,143.2 C552.8,137.2 557.7,132.3 563.7,132.3 C569.7,132.3 574.6,137.2 574.6,143.2 C574.6,149.2 569.7,154.1 563.7,154.1 C557.7,154.1 552.8,149.2 552.8,143.2" id="Shape" fill="#6DAC48"></path>
                <path d="M448.9,143.2 C448.9,137.2 453.8,132.3 459.8,132.3 C465.8,132.3 470.7,137.2 470.7,143.2 C470.7,149.2 465.8,154.1 459.8,154.1 C453.8,154.1 448.9,149.2 448.9,143.2" id="Shape" fill="#6DAC48"></path>
                <path d="M396.9,143.2 C396.9,137.2 401.8,132.3 407.8,132.3 C413.8,132.3 418.7,137.2 418.7,143.2 C418.7,149.2 413.8,154.1 407.8,154.1 C401.8,154.1 396.9,149.2 396.9,143.2" id="Shape" fill="#6DAC48"></path>
                <path d="M500.9,172.4 C500.9,166.4 505.8,161.5 511.8,161.5 C517.8,161.5 522.7,166.4 522.7,172.4 C522.7,178.4 517.8,183.3 511.8,183.3 C505.7,183.3 500.9,178.4 500.9,172.4" id="Shape" fill="#6DAC48"></path>
                <path d="M552.8,172.4 C552.8,166.4 557.7,161.5 563.7,161.5 C569.7,161.5 574.6,166.4 574.6,172.4 C574.6,178.4 569.7,183.3 563.7,183.3 C557.7,183.3 552.8,178.4 552.8,172.4" id="Shape" fill="#6DAC48"></path>
                <path d="M448.9,172.4 C448.9,166.4 453.8,161.5 459.8,161.5 C465.8,161.5 470.7,166.4 470.7,172.4 C470.7,178.4 465.8,183.3 459.8,183.3 C453.8,183.3 448.9,178.4 448.9,172.4" id="Shape" fill="#6DAC48"></path>
                <path d="M396.9,172.4 C396.9,166.4 401.8,161.5 407.8,161.5 C413.8,161.5 418.7,166.4 418.7,172.4 C418.7,178.4 413.8,183.3 407.8,183.3 C401.8,183.3 396.9,178.4 396.9,172.4" id="Shape" fill="#6DAC48"></path>
                <path d="M500.9,201.6 C500.9,195.6 505.8,190.7 511.8,190.7 C517.8,190.7 522.7,195.6 522.7,201.6 C522.7,207.6 517.8,212.5 511.8,212.5 C505.7,212.5 500.9,207.6 500.9,201.6" id="Shape" fill="#6DAC48"></path>
                <path d="M552.8,201.6 C552.8,195.6 557.7,190.7 563.7,190.7 C569.7,190.7 574.6,195.6 574.6,201.6 C574.6,207.6 569.7,212.5 563.7,212.5 C557.7,212.5 552.8,207.6 552.8,201.6" id="Shape" fill="#6DAC48"></path>
                <path d="M448.9,201.6 C448.9,195.6 453.8,190.7 459.8,190.7 C465.8,190.7 470.7,195.6 470.7,201.6 C470.7,207.6 465.8,212.5 459.8,212.5 C453.8,212.5 448.9,207.6 448.9,201.6" id="Shape" fill="#6DAC48"></path>
                <path d="M396.9,201.6 C396.9,195.6 401.8,190.7 407.8,190.7 C413.8,190.7 418.7,195.6 418.7,201.6 C418.7,207.6 413.8,212.5 407.8,212.5 C401.8,212.5 396.9,207.6 396.9,201.6" id="Shape" fill="#6DAC48"></path>
                <path d="M474.9,70.2 C474.9,64.2 479.8,59.3 485.8,59.3 C491.8,59.3 496.7,64.2 496.7,70.2 C496.7,76.2 491.8,81.1 485.8,81.1 C479.7,81.1 474.9,76.2 474.9,70.2" id="Shape" fill="#6DAC48"></path>
                <path d="M526.8,70.2 C526.8,64.2 531.7,59.3 537.7,59.3 C543.7,59.3 548.6,64.2 548.6,70.2 C548.6,76.2 543.7,81.1 537.7,81.1 C531.7,81.1 526.8,76.2 526.8,70.2" id="Shape" fill="#6DAC48"></path>
                <path d="M578.8,70.2 C578.8,64.2 583.7,59.3 589.7,59.3 C595.7,59.3 600.6,64.2 600.6,70.2 C600.6,76.2 595.7,81.1 589.7,81.1 C583.7,81.1 578.8,76.2 578.8,70.2" id="Shape" fill="#6DAC48"></path>
                <path d="M422.9,70.2 C422.9,64.2 427.8,59.3 433.8,59.3 C439.8,59.3 444.7,64.2 444.7,70.2 C444.7,76.2 439.8,81.1 433.8,81.1 C427.8,81.1 422.9,76.2 422.9,70.2" id="Shape" fill="#6DAC48"></path>
                <path d="M371,70.2 C371,64.2 375.9,59.3 381.9,59.3 C387.9,59.3 392.8,64.2 392.8,70.2 C392.8,76.2 387.9,81.1 381.9,81.1 C375.8,81.1 371,76.2 371,70.2" id="Shape" fill="#6DAC48"></path>
                <path d="M474.9,99.4 C474.9,93.4 479.8,88.5 485.8,88.5 C491.8,88.5 496.7,93.4 496.7,99.4 C496.7,105.4 491.8,110.3 485.8,110.3 C479.7,110.3 474.9,105.4 474.9,99.4" id="Shape" fill="#6DAC48"></path>
                <path d="M526.8,99.4 C526.8,93.4 531.7,88.5 537.7,88.5 C543.7,88.5 548.6,93.4 548.6,99.4 C548.6,105.4 543.7,110.3 537.7,110.3 C531.7,110.3 526.8,105.4 526.8,99.4" id="Shape" fill="#6DAC48"></path>
                <path d="M578.8,99.4 C578.8,93.4 583.7,88.5 589.7,88.5 C595.7,88.5 600.6,93.4 600.6,99.4 C600.6,105.4 595.7,110.3 589.7,110.3 C583.7,110.3 578.8,105.4 578.8,99.4" id="Shape" fill="#6DAC48"></path>
                <path d="M422.9,99.4 C422.9,93.4 427.8,88.5 433.8,88.5 C439.8,88.5 444.7,93.4 444.7,99.4 C444.7,105.4 439.8,110.3 433.8,110.3 C427.8,110.3 422.9,105.4 422.9,99.4" id="Shape" fill="#6DAC48"></path>
                <path d="M371,99.4 C371,93.4 375.9,88.5 381.9,88.5 C387.9,88.5 392.8,93.4 392.8,99.4 C392.8,105.4 387.9,110.3 381.9,110.3 C375.8,110.3 371,105.4 371,99.4" id="Shape" fill="#6DAC48"></path>
                <path d="M474.9,128.6 C474.9,122.6 479.8,117.7 485.8,117.7 C491.8,117.7 496.7,122.6 496.7,128.6 C496.7,134.6 491.8,139.5 485.8,139.5 C479.7,139.5 474.9,134.6 474.9,128.6" id="Shape" fill="#6DAC48"></path>
                <path d="M526.8,128.6 C526.8,122.6 531.7,117.7 537.7,117.7 C543.7,117.7 548.6,122.6 548.6,128.6 C548.6,134.6 543.7,139.5 537.7,139.5 C531.7,139.5 526.8,134.6 526.8,128.6" id="Shape" fill="#6DAC48"></path>
                <path d="M578.8,128.6 C578.8,122.6 583.7,117.7 589.7,117.7 C595.7,117.7 600.6,122.6 600.6,128.6 C600.6,134.6 595.7,139.5 589.7,139.5 C583.7,139.5 578.8,134.6 578.8,128.6" id="Shape" fill="#6DAC48"></path>
                <path d="M422.9,128.6 C422.9,122.6 427.8,117.7 433.8,117.7 C439.8,117.7 444.7,122.6 444.7,128.6 C444.7,134.6 439.8,139.5 433.8,139.5 C427.8,139.5 422.9,134.6 422.9,128.6" id="Shape" fill="#6DAC48"></path>
                <path d="M371,128.6 C371,122.6 375.9,117.7 381.9,117.7 C387.9,117.7 392.8,122.6 392.8,128.6 C392.8,134.6 387.9,139.5 381.9,139.5 C375.8,139.5 371,134.6 371,128.6" id="Shape" fill="#6DAC48"></path>
                <path d="M474.9,157.8 C474.9,151.8 479.8,146.9 485.8,146.9 C491.8,146.9 496.7,151.8 496.7,157.8 C496.7,163.8 491.8,168.7 485.8,168.7 C479.7,168.7 474.9,163.8 474.9,157.8" id="Shape" fill="#6DAC48"></path>
                <path d="M526.8,157.8 C526.8,151.8 531.7,146.9 537.7,146.9 C543.7,146.9 548.6,151.8 548.6,157.8 C548.6,163.8 543.7,168.7 537.7,168.7 C531.7,168.7 526.8,163.8 526.8,157.8" id="Shape" fill="#6DAC48"></path>
                <path d="M578.8,157.8 C578.8,151.8 583.7,146.9 589.7,146.9 C595.7,146.9 600.6,151.8 600.6,157.8 C600.6,163.8 595.7,168.7 589.7,168.7 C583.7,168.7 578.8,163.8 578.8,157.8" id="Shape" fill="#6DAC48"></path>
                <path d="M422.9,157.8 C422.9,151.8 427.8,146.9 433.8,146.9 C439.8,146.9 444.7,151.8 444.7,157.8 C444.7,163.8 439.8,168.7 433.8,168.7 C427.8,168.7 422.9,163.8 422.9,157.8" id="Shape" fill="#DB0720"></path>
                <path d="M371,157.8 C371,151.8 375.9,146.9 381.9,146.9 C387.9,146.9 392.8,151.8 392.8,157.8 C392.8,163.8 387.9,168.7 381.9,168.7 C375.8,168.7 371,163.8 371,157.8" id="Shape" fill="#6DAC48"></path>
                <path d="M474.9,187 C474.9,181 479.8,176.1 485.8,176.1 C491.8,176.1 496.7,181 496.7,187 C496.7,193 491.8,197.9 485.8,197.9 C479.7,197.9 474.9,193 474.9,187" id="Shape" fill="#6DAC48"></path>
                <path d="M526.8,187 C526.8,181 531.7,176.1 537.7,176.1 C543.7,176.1 548.6,181 548.6,187 C548.6,193 543.7,197.9 537.7,197.9 C531.7,197.9 526.8,193 526.8,187" id="Shape" fill="#6DAC48"></path>
                <path d="M578.8,187 C578.8,181 583.7,176.1 589.7,176.1 C595.7,176.1 600.6,181 600.6,187 C600.6,193 595.7,197.9 589.7,197.9 C583.7,197.9 578.8,193 578.8,187" id="Shape" fill="#6DAC48"></path>
                <path d="M422.9,187 C422.9,181 427.8,176.1 433.8,176.1 C439.8,176.1 444.7,181 444.7,187 C444.7,193 439.8,197.9 433.8,197.9 C427.8,197.9 422.9,193 422.9,187" id="Shape" fill="#6DAC48"></path>
                <path d="M371,187 C371,181 375.9,176.1 381.9,176.1 C387.9,176.1 392.8,181 392.8,187 C392.8,193 387.9,197.9 381.9,197.9 C375.8,197.9 371,193 371,187" id="Shape" fill="#6DAC48"></path>
                <path d="M63.5,161.7 L11.3,161.7 L11.3,132.5 L58.5,132.5 L58.5,121.5 L11.3,121.5 L11.3,95.2 L62.2,95.2 L62.2,84.6 L0.6,84.6 L0.6,172.4 L63.5,172.4 L63.5,161.7 Z" id="Shape" fill="#000000"></path>
                <path d="M164.6,172.4 L164.6,84.6 L149,84.6 C149,84.6 145.5,93.5 145.1,94.5 C132.5,132.5 124.1,157.8 124.1,157.8 L123.9,157.8 C123.9,157.8 115.4,132.4 102.8,94.5 C102.4,93.4 98.9,84.6 98.9,84.6 L83,84.6 L83,172.4 L93.8,172.4 L93.8,120.5 C93.8,117.9 93.6,107.5 93.6,99.4 L93.8,99.4 L117.9,172.4 L129.7,172.4 L153.8,99.2 L154,99.2 C154,107.5 153.8,172.4 153.8,172.4 L164.6,172.4 L164.6,172.4 Z" id="Shape" fill="#000000"></path>
                <path d="M196.3,94.4 L218.4,94.4 C231.7,94.4 237.2,99.1 237.2,107.4 C237.2,118.3 229.7,121.3 218.3,121.3 L196.3,121.3 L196.3,94.4 L196.3,94.4 Z M185.6,172.4 L222.9,172.4 C242.5,172.4 251.8,160.8 251.8,146.6 C251.8,131.4 242.8,127.3 237,125 C246.8,120.4 247.6,112.3 247.6,106.5 C247.6,94.4 240.3,84.6 223.8,84.6 L185.6,84.6 L185.6,172.4 L185.6,172.4 Z M196.3,131.4 L220.3,131.4 C230.1,131.4 241.5,133.9 241.5,146.3 C241.5,156.2 234.8,162.5 222.3,162.5 L196.3,162.5 L196.3,131.4 L196.3,131.4 Z" id="Shape" fill="#000000"></path>
                <path d="M280.8,84.6 L269.2,84.6 L269.2,172.4 L326.9,172.4 L326.9,161.3 L280.8,161.3 L280.8,84.6 Z" id="Shape" fill="#000000"></path>
            </g>
        </g>
    </g>
</svg>