<?xml version="1.0" encoding="UTF-8" standalone="no"?>
<svg
   xmlns:dc="http://purl.org/dc/elements/1.1/"
   xmlns:cc="http://creativecommons.org/ns#"
   xmlns:rdf="http://www.w3.org/1999/02/22-rdf-syntax-ns#"
   xmlns:svg="http://www.w3.org/2000/svg"
   xmlns="http://www.w3.org/2000/svg"
   xmlns:sodipodi="http://sodipodi.sourceforge.net/DTD/sodipodi-0.dtd"
   xmlns:inkscape="http://www.inkscape.org/namespaces/inkscape"
   width="500"
   height="300"
   viewBox="0 100 500 300"
   version="1.1"
   id="svg37"
   sodipodi:docname="ELIXIR-FI.svg"
   inkscape:version="0.92.3 (2405546, 2018-03-11)">
  <metadata
     id="metadata41">
    <rdf:RDF>
      <cc:Work
         rdf:about="">
        <dc:format>image/svg+xml</dc:format>
        <dc:type
           rdf:resource="http://purl.org/dc/dcmitype/StillImage" />
      </cc:Work>
    </rdf:RDF>
  </metadata>
  <sodipodi:namedview
     pagecolor="#ffffff"
     bordercolor="#666666"
     borderopacity="1"
     objecttolerance="10"
     gridtolerance="10"
     guidetolerance="10"
     inkscape:pageopacity="0"
     inkscape:pageshadow="2"
     inkscape:window-width="640"
     inkscape:window-height="480"
     id="namedview39"
     showgrid="false"
     inkscape:zoom="0.472"
     inkscape:cx="101.54837"
     inkscape:cy="171.64012"
     inkscape:window-x="0"
     inkscape:window-y="0"
     inkscape:window-maximized="0"
     inkscape:current-layer="Nodes" />
  <defs
     id="defs4">
    <style
       id="style2">.cls-1{fill:#4d4848;}.cls-2{fill:#f47d20;}</style>
  </defs>
  <g
     id="Nodes">
    <path
       class="cls-1"
       d="M156.75,272c.63-1.38,1.16-2.86,1.8-4.66a46.2,46.2,0,0,0,1.8-6.25l6.46-27.94c.53-2.86.94-5,1.06-6.25a16.19,16.19,0,0,0,.21-3.39v-1.27h14.61L173.9,261c-.64,2.76-1.06,4.87-1.27,6.36a22.21,22.21,0,0,0-.32,4.55Z"
       id="path6" />
    <path
       class="cls-2"
       d="M350.15,135.9A17,17,0,0,0,335.21,161c-1.69.84-5.63,2.82-11.15,5.69a12.65,12.65,0,1,0-22.28,11.93c-2.83,1.56-5.78,3.21-8.8,4.92A9.93,9.93,0,0,0,274.73,189a9.82,9.82,0,0,0,1.09,4.51q-4.69,2.79-9.44,5.72a7.25,7.25,0,0,0-11.94,5.54,7.08,7.08,0,0,0,.25,1.86A342.1,342.1,0,0,0,220,232c-11.48-25.68-28.42-53.87-52-76.82l-.07-.06c-2.75-2.72-5-1.52-1.87,1.86l.12.13c20,21.53,35.72,52.68,46.43,81.09-40.62,34.69-85.41,101.91-36.32,123,7.14,3.08,10.4-2.8,7.33-4.61-.56-.33-22.42-12.14-8.52-48.45h35a3.4,3.4,0,0,0,0-6.79H178a136.59,136.59,0,0,1,6.92-12.84h25.16a3.4,3.4,0,0,0,0-6.79H189.23q3.89-5.83,8.78-12.21h12.05a3.4,3.4,0,0,0,0-6.79H203.4c3.8-4.64,8-9.49,12.63-14.57l.12-.13c9.23,26.72,13.68,49.5,12.7,57.09a7.93,7.93,0,0,1-4.27,6.38c-1.72.81-2.42,3.18.27,4,8.6,2.53,13.89-6,14.84-12.85s-3.74-32.19-16.15-62.34a316.22,316.22,0,0,1,34.54-29.2A7.26,7.26,0,0,0,269,204.77a7.35,7.35,0,0,0-.14-1.42c3.24-2.26,6.47-4.46,9.66-6.58a9.92,9.92,0,0,0,15.83-10.16c3.18-2,6.27-3.86,9.24-5.64a12.65,12.65,0,0,0,21.8-8.73,13,13,0,0,0-.51-3.55c5.4-3,9.34-5.13,11.26-6.23a17,17,0,1,0,14-26.56Z"
       id="path8" />
    <path
       class="cls-1"
       d="M120.31,272H77c-4.34,0-7.3-.95-8.89-3a8,8,0,0,1-1.27-4.76,22.47,22.47,0,0,1,.74-5.4l5.4-23.5c1.16-4.76,2.85-8.15,5.19-10.17s5.71-3,10.16-3h32c4.55,0,7.52,1,9,3a7.47,7.47,0,0,1,1.38,4.88,20.42,20.42,0,0,1-.75,5.29l-3.49,15.57H82.94L80.61,261a14.11,14.11,0,0,0-.32,2.44c0,.53,0,.95.22,1.16.31.64,1.26,1,2.75,1H115a38.86,38.86,0,0,0,8.27-.84Zm-3.39-38.85a8.44,8.44,0,0,0,.43-2.54,3.32,3.32,0,0,0-.21-1.06c-.43-.64-1.48-.95-3-.95H91.73a4.38,4.38,0,0,0-3.18.95,5.45,5.45,0,0,0-1.48,3.6l-2.65,11.43h29.85Z"
       id="path10" />
    <path
       class="cls-1"
       d="M131.1,272c.68-1.54,1.24-3.2,1.91-5.22a52,52,0,0,0,1.91-7L146,208.22c.67-3.21,1.12-5.58,1.35-7s.22-3.08.22-5.22h15.5L149.3,259.72c-.67,3.09-1.13,5.47-1.35,7.13a26.34,26.34,0,0,0-.34,5.1Z"
       id="path12" />
    <path
       class="cls-1"
       d="M309.72,230.56c-1.59-.11-3.18-.22-5-.22h-7.09a5.17,5.17,0,0,0-3.17.85,5.67,5.67,0,0,0-1.8,3.28L286.75,261a40.17,40.17,0,0,0-1.48,9.74V272H269.81a47.74,47.74,0,0,0,1.69-4.55c.43-1.38,1-3.5,1.7-6.36l6.35-27.94c.74-2.76,1.06-4.87,1.38-6.46a31.58,31.58,0,0,0,.21-4.45h13l-.53,5.08a9.1,9.1,0,0,1,3.28-3.81,10.57,10.57,0,0,1,5.61-1.27h12.71l3.07,5.5a11.41,11.41,0,0,0-1.8,2c-.74.95-1.27,1.37-1.59,1.37C313,230.88,311.3,230.66,309.72,230.56Z"
       id="path14" />
    <path
       class="cls-1"
       d="M241.22,272c.63-1.38,1.16-2.86,1.79-4.66a43.46,43.46,0,0,0,1.8-6.25l6.47-27.94c.52-2.86.94-5,1.05-6.25a16.19,16.19,0,0,0,.21-3.39v-1.27h14.61L258.37,261c-.64,2.76-1.06,4.87-1.27,6.36a22.21,22.21,0,0,0-.32,4.55Z"
       id="path16" />
    <path
       class="cls-1"
       d="M185.14,204.79a7.17,7.17,0,1,1-7.17-7.17A7.17,7.17,0,0,1,185.14,204.79Z"
       id="path18" />
    <path
       class="cls-1"
       d="M214.31,359.55c-.63,2.53-.54,3.52-.3,4.55H202.26a11.3,11.3,0,0,0,2-4.55l4.32-17.37c.63-2.52.55-3.51.31-4.55h22.91l-.48,5.09a11.44,11.44,0,0,0-4.37-.7h-8.23l-1.55,6.2h7.2a14.93,14.93,0,0,0,4.72-.7l-1.44,5.79a11.72,11.72,0,0,0-4.37-.71H216Z"
       id="path20" />
    <path
       class="cls-1"
       d="M228.27,364.1a11.16,11.16,0,0,0,2-4.55l4.33-17.37c.62-2.52.54-3.51.3-4.55h11.75a11.16,11.16,0,0,0-2,4.55l-4.33,17.37c-.62,2.53-.54,3.52-.3,4.55Z"
       id="path22" />
    <path
       class="cls-1"
       d="M254.36,342.18h-.08L250,359.35c-.74,3-.75,3.51-.19,4.75h-6.37c1.18-1.24,1.43-1.78,2.18-4.75l4.22-17c.74-3,.75-3.52.19-4.76h14.18l5.38,21.59h.13l4.19-16.83c.74-3,.75-3.52.19-4.76h6.37c-1.18,1.24-1.44,1.78-2.18,4.76l-5.4,21.71H259.83Z"
       id="path24" />
    <path
       class="cls-1"
       d="m 296.78,359.72 a 10.94,10.94 0 0 0 4.56,-0.87 l -2.18,5.25 h -22.83 a 11.16,11.16 0 0 0 2,-4.55 l 4.33,-17.37 c 0.62,-2.52 0.54,-3.51 0.3,-4.55 h 11.75 a 11.29,11.29 0 0 0 -2,4.55 l -4.37,17.54 z"
       id="path28"
       inkscape:connector-curvature="0"
       style="fill:#4d4848" />
    <path
       class="cls-1"
       d="m 309.86,357 -2.68,3.64 a 4.31,4.31 0 0 0 -0.76,1.57 2.34,2.34 0 0 0 0.1,1.9 H 299 a 29.23,29.23 0 0 0 4.21,-4.8 l 14.66,-20.18 -0.79,-1.49 h 11.95 l 3.75,22.83 a 9.69,9.69 0 0 0 1.41,3.64 H 321 a 4.28,4.28 0 0 0 1,-1.73 5.42,5.42 0 0 0 0.12,-2 l -0.6,-3.39 z m 11,-4.39 -1.54,-8.93 -6.32,8.92 z"
       id="path30"
       inkscape:connector-curvature="0"
       style="fill:#4d4848" />
    <path
       class="cls-1"
       d="m 345.64,342.18 h -0.08 l -4.28,17.17 c -0.74,3 -0.75,3.51 -0.19,4.75 h -6.37 c 1.18,-1.24 1.44,-1.78 2.18,-4.75 l 4.22,-17 c 0.74,-3 0.75,-3.52 0.19,-4.76 h 14.19 l 5.38,21.59 H 361 l 4.19,-16.83 c 0.74,-3 0.75,-3.52 0.19,-4.76 h 6.37 c -1.18,1.24 -1.43,1.78 -2.17,4.76 l -5.41,21.71 H 351.1 Z"
       id="path32"
       inkscape:connector-curvature="0"
       style="fill:#4d4848" />
    <path
       class="cls-1"
       d="m 374.09,342.18 a 8.73,8.73 0 0 0 0.31,-4.55 H 395 c 5.62,0 7.07,2.15 5.74,7.53 l -2.84,11.41 c -1.34,5.38 -3.86,7.53 -9.49,7.53 h -20.6 a 11.3,11.3 0 0 0 2,-4.55 z m 5.73,17.54 h 5.25 c 1.65,0 2,-0.37 2.44,-2.15 l 3.33,-13.4 c 0.44,-1.78 0.29,-2.15 -1.37,-2.15 h -5.25 z"
       id="path34"
       inkscape:connector-curvature="0"
       style="fill:#4d4848" />
  </g>
</svg>
