<?xml version="1.0" encoding="UTF-8"?>
<svg width="337px" height="230px" viewBox="0 0 337 230" version="1.1" xmlns="http://www.w3.org/2000/svg" xmlns:xlink="http://www.w3.org/1999/xlink" xmlns:sketch="http://www.bohemiancoding.com/sketch/ns">
    <!-- Generator: Sketch 3.3.2 (12043) - http://www.bohemiancoding.com/sketch -->
    <title>Nodes</title>
    <desc>Created with Sketch.</desc>
    <defs></defs>
    <g id="Page-1" stroke="none" stroke-width="1" fill="none" fill-rule="evenodd" sketch:type="MSPage">
        <g id="Nodes" sketch:type="MSLayerGroup">
            <path d="M90.75,137 C91.38,135.62 91.91,134.14 92.55,132.34 C93.2960829,130.30154 93.897573,128.213033 94.35,126.09 L100.81,98.15 C101.34,95.29 101.75,93.15 101.87,91.9 C102.058666,90.7804885 102.129053,89.6442374 102.08,88.51 L102.08,87.24 L116.69,87.24 L107.9,126 C107.26,128.76 106.84,130.87 106.63,132.36 C106.367465,133.861665 106.260233,135.38637 106.31,136.91 L90.75,137 Z" id="Shape" fill="#4D4848" sketch:type="MSShapeGroup"></path>
            <path d="M284.15,0.9 C278.159403,0.902197621 272.612157,4.05725739 269.548136,9.20497788 C266.484114,14.3526984 266.355656,20.7331246 269.21,26 C267.52,26.84 263.58,28.82 258.06,31.69 C256.052888,27.4855359 251.897163,24.7246388 247.243423,24.5039001 C242.589683,24.2831614 238.191291,26.638315 235.795228,30.6339253 C233.399166,34.6295356 233.393315,39.6187811 235.78,43.62 C232.95,45.18 230,46.83 226.98,48.54 C224.576785,44.8511976 220.03159,43.1851863 215.813731,44.4470774 C211.595872,45.7089684 208.712461,49.5974555 208.73,54 C208.727864,55.5688188 209.101629,57.1153171 209.82,58.51 C206.693333,60.37 203.546667,62.2766667 200.38,64.23 C198.224443,62.40143 195.202665,61.9924012 192.638553,63.1821151 C190.07444,64.3718291 188.435587,66.9433281 188.44,69.77 C188.440427,70.3983468 188.524499,71.0238406 188.69,71.63 C176.606376,79.3512552 165.020185,87.824638 154,97 C142.52,71.32 125.58,43.13 102,20.18 L101.93,20.12 C99.18,17.4 96.93,18.6 100.06,21.98 L100.18,22.11 C120.18,43.64 135.9,74.79 146.61,103.2 C105.99,137.89 61.2,205.11 110.29,226.2 C117.43,229.28 120.69,223.4 117.62,221.59 C117.06,221.26 95.2,209.45 109.1,173.14 L144.1,173.14 C145.903492,173.042084 147.315677,171.551148 147.315677,169.745 C147.315677,167.938852 145.903492,166.447916 144.1,166.35 L112,166.35 C114.076333,161.949806 116.386293,157.663696 118.92,153.51 L144.08,153.51 C145.883492,153.412084 147.295677,151.921148 147.295677,150.115 C147.295677,148.308852 145.883492,146.817916 144.08,146.72 L123.23,146.72 C125.823333,142.833333 128.75,138.763333 132.01,134.51 L144.06,134.51 C145.863492,134.412084 147.275677,132.921148 147.275677,131.115 C147.275677,129.308852 145.863492,127.817916 144.06,127.72 L137.4,127.72 C141.2,123.08 145.4,118.23 150.03,113.15 L150.15,113.02 C159.38,139.74 163.83,162.52 162.85,170.11 C162.619546,172.829819 161.006498,175.239947 158.58,176.49 C156.86,177.3 156.16,179.67 158.85,180.49 C167.45,183.02 172.74,174.49 173.69,167.64 C174.64,160.79 169.95,135.45 157.54,105.3 C168.341604,94.7547133 179.884455,84.9964261 192.08,76.1 C194.33467,77.4162585 197.122461,77.4205512 199.381174,76.1112425 C201.639886,74.8019337 203.021655,72.3806711 203,69.77 C202.999498,69.2932464 202.95261,68.8176726 202.86,68.35 C206.1,66.09 209.33,63.89 212.52,61.77 C215.843988,64.439059 220.501553,64.6860147 224.08915,62.3834252 C227.676748,60.0808357 229.392101,55.7436182 228.35,51.61 C231.53,49.61 234.62,47.75 237.59,45.97 C241.159261,49.708843 246.644199,50.9000017 251.442737,48.9783856 C256.241274,47.0567694 259.387963,42.4090005 259.39,37.24 C259.38483,36.0387874 259.213197,34.8440877 258.88,33.69 C264.28,30.69 268.22,28.56 270.14,27.46 C274.695098,34.1578277 283.34314,36.7116134 290.805998,33.5627144 C298.268857,30.4138155 302.47355,22.436911 300.853844,14.5005159 C299.234138,6.56412068 292.239943,0.872751192 284.14,0.9 L284.15,0.9 Z" id="Shape" fill="#F47D20" sketch:type="MSShapeGroup"></path>
            <path d="M54.31,137 L11,137 C6.66,137 3.7,136.05 2.11,134 C1.19649754,132.586428 0.752085146,130.920757 0.84,129.24 C0.866634273,127.416641 1.11512859,125.603304 1.58,123.84 L6.98,100.34 C8.14,95.58 9.83,92.19 12.17,90.17 C14.51,88.15 17.88,87.17 22.33,87.17 L54.33,87.17 C58.88,87.17 61.85,88.17 63.33,90.17 C64.3449907,91.5859729 64.8331392,93.3121789 64.71,95.05 C64.692763,96.8385706 64.4406051,98.6171244 63.96,100.34 L60.47,115.91 L16.94,115.91 L14.61,126 C14.4324757,126.802462 14.3254019,127.618899 14.29,128.44 C14.29,128.97 14.29,129.39 14.51,129.6 C14.82,130.24 15.77,130.6 17.26,130.6 L49,130.6 C51.7787712,130.616493 54.551296,130.334882 57.27,129.76 L54.31,137 Z M50.92,98.15 C51.1924641,97.3303253 51.3374864,96.4736821 51.35,95.61 C51.3383575,95.2475693 51.267418,94.889494 51.14,94.55 C50.71,93.91 49.66,93.6 48.14,93.6 L25.73,93.6 C24.5864211,93.4872588 23.44434,93.8284465 22.55,94.55 C21.6303605,95.5269188 21.1033917,96.8087349 21.07,98.15 L18.42,109.58 L48.27,109.58 L50.92,98.15 Z" id="Shape" fill="#4D4848" sketch:type="MSShapeGroup"></path>
            <path d="M65.1,137 C65.78,135.46 66.34,133.8 67.01,131.78 C67.8088813,129.493986 68.4471012,127.15496 68.92,124.78 L80,73.22 C80.67,70.01 81.12,67.64 81.35,66.22 C81.58,64.8 81.57,63.14 81.57,61 L97.07,61 L83.3,124.72 C82.63,127.81 82.17,130.19 81.95,131.85 C81.6716007,133.534958 81.5577314,135.242998 81.61,136.95 L65.1,137 Z" id="Shape" fill="#4D4848" sketch:type="MSShapeGroup"></path>
            <path d="M243.72,95.56 C242.13,95.45 240.54,95.34 238.72,95.34 L231.63,95.34 C230.50906,95.2715188 229.396303,95.5698923 228.46,96.19 C227.506165,97.0481785 226.8716,98.2044973 226.66,99.47 L220.75,126 C219.8589,129.173644 219.36183,132.444906 219.27,135.74 L219.27,137 L203.81,137 C204.450118,135.51297 205.014181,133.994341 205.5,132.45 C205.93,131.07 206.5,128.95 207.2,126.09 L213.55,98.15 C214.29,95.39 214.61,93.28 214.93,91.69 C215.104669,90.2134598 215.174844,88.7264274 215.14,87.24 L228.14,87.24 L227.61,92.32 C228.32387,90.7671942 229.460587,89.4468003 230.89,88.51 C232.606647,87.5762174 234.548555,87.1366055 236.5,87.24 L249.21,87.24 L252.28,92.74 C251.603218,93.3333391 250.999018,94.0046726 250.48,94.74 C249.74,95.69 249.21,96.11 248.89,96.11 C247,95.88 245.3,95.66 243.72,95.56 L243.72,95.56 Z" id="Shape" fill="#4D4848" sketch:type="MSShapeGroup"></path>
            <path d="M175.22,137 C175.85,135.62 176.38,134.14 177.01,132.34 C177.765268,130.304551 178.366952,128.215369 178.81,126.09 L185.28,98.15 C185.8,95.29 186.22,93.15 186.33,91.9 C186.518666,90.7804885 186.589053,89.6442374 186.54,88.51 L186.54,87.24 L201.15,87.24 L192.37,126 C191.73,128.76 191.31,130.87 191.1,132.36 C190.837465,133.861665 190.730233,135.38637 190.78,136.91 L175.22,137 Z" id="Shape" fill="#4D4848" sketch:type="MSShapeGroup"></path>
            <path d="M119.14,69.79 C119.14,72.6899943 117.393086,75.3044365 114.71384,76.4142162 C112.034595,77.523996 108.95065,76.9105613 106.900044,74.8599556 C104.849439,72.80935 104.236004,69.7254052 105.345784,67.0461598 C106.455564,64.3669144 109.070006,62.62 111.97,62.62 C115.929882,62.62 119.14,65.8301183 119.14,69.79 L119.14,69.79 Z" id="Shape" fill="#4D4848" sketch:type="MSShapeGroup"></path>
            <path d="M148.31,224.55 C147.68,227.08 147.77,228.07 148.01,229.1 L136.26,229.1 C137.256082,227.750558 137.939272,226.196301 138.26,224.55 L142.58,207.18 C143.21,204.66 143.13,203.67 142.89,202.63 L165.8,202.63 L165.32,207.72 C163.922784,207.20444 162.438344,206.966658 160.95,207.02 L152.72,207.02 L151.17,213.22 L158.37,213.22 C159.970687,213.24122 161.564369,213.004869 163.09,212.52 L161.65,218.31 C160.251669,217.797852 158.768545,217.556886 157.28,217.6 L150,217.6 L148.31,224.55 Z" id="Shape" fill="#4D4848" sketch:type="MSShapeGroup"></path>
            <path d="M162.27,229.1 C163.270212,227.752954 163.95383,226.197723 164.27,224.55 L168.6,207.18 C169.22,204.66 169.14,203.67 168.9,202.63 L180.65,202.63 C179.649788,203.977046 178.96617,205.532277 178.65,207.18 L174.32,224.55 C173.7,227.08 173.78,228.07 174.02,229.1 L162.27,229.1 Z" id="Shape" fill="#4D4848" sketch:type="MSShapeGroup"></path>
            <path d="M188.36,207.18 L188.28,207.18 L184,224.35 C183.26,227.35 183.25,227.86 183.81,229.1 L177.44,229.1 C178.62,227.86 178.87,227.32 179.62,224.35 L183.84,207.35 C184.58,204.35 184.59,203.83 184.03,202.59 L198.21,202.59 L203.59,224.18 L203.72,224.18 L207.91,207.35 C208.65,204.35 208.66,203.83 208.1,202.59 L214.47,202.59 C213.29,203.83 213.03,204.37 212.29,207.35 L206.89,229.06 L193.83,229.06 L188.36,207.18 Z" id="Shape" fill="#4D4848" sketch:type="MSShapeGroup"></path>
            <path d="M231.78,224.72 C233.344735,224.759549 234.89974,224.462871 236.34,223.85 L234.16,229.1 L211.33,229.1 C212.330212,227.752954 213.01383,226.197723 213.33,224.55 L217.66,207.18 C218.28,204.66 218.2,203.67 217.96,202.63 L229.71,202.63 C228.713627,203.979273 228.030407,205.533599 227.71,207.18 L223.34,224.72 L231.78,224.72 Z" id="Shape" fill="#4D4848" sketch:type="MSShapeGroup"></path>
            <path d="M244.86,222 L242.18,225.64 C241.82231,226.106065 241.563681,226.640338 241.42,227.21 C241.18273,227.828912 241.219072,228.519414 241.52,229.11 L234,229.11 C235.574391,227.668524 236.986144,226.058924 238.21,224.31 L252.87,204.13 L252.08,202.64 L264.03,202.64 L267.78,225.47 C267.998212,226.766419 268.477944,228.004878 269.19,229.11 L256,229.11 C256.465165,228.620313 256.807837,228.027491 257,227.38 C257.163946,226.726584 257.204641,226.048331 257.12,225.38 L256.52,221.99 L244.86,222 Z M255.86,217.61 L254.32,208.68 L248,217.6 L255.86,217.61 Z" id="Shape" fill="#4D4848" sketch:type="MSShapeGroup"></path>
            <path d="M280.64,207.18 L280.56,207.18 L276.28,224.35 C275.54,227.35 275.53,227.86 276.09,229.1 L269.72,229.1 C270.9,227.86 271.16,227.32 271.9,224.35 L276.12,207.35 C276.86,204.35 276.87,203.83 276.31,202.59 L290.5,202.59 L295.88,224.18 L296,224.18 L300.19,207.35 C300.93,204.35 300.94,203.83 300.38,202.59 L306.75,202.59 C305.57,203.83 305.32,204.37 304.58,207.35 L299.17,229.06 L286.1,229.06 L280.64,207.18 Z" id="Shape" fill="#4D4848" sketch:type="MSShapeGroup"></path>
            <path d="M309.09,207.18 C309.594659,205.717591 309.701643,204.147343 309.4,202.63 L330,202.63 C335.62,202.63 337.07,204.78 335.74,210.16 L332.9,221.57 C331.56,226.95 329.04,229.1 323.41,229.1 L302.81,229.1 C303.806082,227.750558 304.489272,226.196301 304.81,224.55 L309.09,207.18 Z M314.82,224.72 L320.07,224.72 C321.72,224.72 322.07,224.35 322.51,222.57 L325.84,209.17 C326.28,207.39 326.13,207.02 324.47,207.02 L319.22,207.02 L314.82,224.72 Z" id="Shape" fill="#4D4848" sketch:type="MSShapeGroup"></path>
        </g>
    </g>
</svg>