<?xml version="1.0" encoding="UTF-8"?>
<svg width="316px" height="230px" viewBox="0 0 316 230" version="1.1" xmlns="http://www.w3.org/2000/svg" xmlns:xlink="http://www.w3.org/1999/xlink" xmlns:sketch="http://www.bohemiancoding.com/sketch/ns">
    <!-- Generator: Sketch 3.3.2 (12043) - http://www.bohemiancoding.com/sketch -->
    <title>Nodes</title>
    <desc>Created with Sketch.</desc>
    <defs></defs>
    <g id="Page-1" stroke="none" stroke-width="1" fill="none" fill-rule="evenodd" sketch:type="MSPage">
        <g id="Nodes" sketch:type="MSLayerGroup">
            <path d="M90.39,137 C91.02,135.62 91.55,134.14 92.19,132.34 C92.9479275,130.273892 93.5528922,128.154844 94,126 L100.47,98.06 C100.99,95.2 101.41,93.06 101.53,91.81 C101.709646,90.6895076 101.776647,89.553843 101.73,88.42 L101.73,87.15 L116.34,87.15 L107.53,126 C106.9,128.76 106.48,130.87 106.27,132.36 C106.017968,133.892967 105.927473,135.448147 106,137 L90.39,137 Z" id="Shape" fill="#4D4848" sketch:type="MSShapeGroup"></path>
            <path d="M283.79,0.9 C277.799403,0.902197621 272.252157,4.05725739 269.188136,9.20497788 C266.124114,14.3526984 265.995656,20.7331246 268.85,26 C267.16,26.84 263.22,28.82 257.7,31.69 C255.692888,27.4855359 251.537163,24.7246388 246.883423,24.5039001 C242.229683,24.2831614 237.831291,26.638315 235.435228,30.6339253 C233.039166,34.6295356 233.033315,39.6187811 235.42,43.62 C232.58,45.18 229.64,46.83 226.61,48.54 C224.823672,45.4746612 221.537698,43.595166 217.989873,43.609502 C214.442048,43.623838 211.17137,45.5298273 209.409873,48.609502 C207.648376,51.6891768 207.663672,55.4746612 209.45,58.54 C206.33,60.4 203.17,62.31 200.02,64.26 C197.864443,62.43143 194.842665,62.0224012 192.278553,63.2121151 C189.71444,64.4018291 188.075587,66.9733281 188.08,69.8 C188.080427,70.4283468 188.164499,71.0538406 188.33,71.66 C176.233596,79.365628 164.637077,87.8292165 153.61,97 C142.12,71.32 125.19,43.13 101.61,20.18 L101.54,20.12 C98.78,17.4 96.54,18.6 99.67,21.98 L99.79,22.11 C119.79,43.64 135.51,74.79 146.22,103.2 C105.59,137.89 60.81,205.11 109.89,226.2 C117.04,229.28 120.3,223.4 117.22,221.59 C116.67,221.26 94.81,209.45 108.71,173.14 L143.71,173.14 C145.513492,173.042084 146.925677,171.551148 146.925677,169.745 C146.925677,167.938852 145.513492,166.447916 143.71,166.35 L111.62,166.35 C113.692389,161.947815 116.002461,157.661496 118.54,153.51 L143.7,153.51 C145.503492,153.412084 146.915677,151.921148 146.915677,150.115 C146.915677,148.308852 145.503492,146.817916 143.7,146.72 L122.86,146.72 C125.46,142.833333 128.39,138.763333 131.65,134.51 L143.65,134.51 C145.453492,134.412084 146.865677,132.921148 146.865677,131.115 C146.865677,129.308852 145.453492,127.817916 143.65,127.72 L137,127.72 C140.8,123.053333 145.013333,118.196667 149.64,113.15 L149.76,113.02 C158.98,139.74 163.44,162.52 162.46,170.11 C162.229546,172.829819 160.616498,175.239947 158.19,176.49 C156.47,177.3 155.77,179.67 158.46,180.49 C167.06,183.02 172.35,174.49 173.3,167.64 C174.25,160.79 169.56,135.45 157.15,105.3 C167.948122,94.7547831 179.487643,84.9964854 191.68,76.1 C193.926663,77.3971115 196.694725,77.3968585 198.94115,76.0993364 C201.187576,74.8018142 202.570949,72.4042225 202.57,69.81 C202.571187,69.3326509 202.520897,68.8565655 202.42,68.39 C205.673333,66.13 208.896667,63.9366667 212.09,61.81 C215.414375,64.5618885 220.13649,64.8487811 223.769566,62.5195933 C227.402643,60.1904055 229.113031,55.7795948 228,51.61 C231.18,49.61 234.27,47.75 237.24,45.97 C241.25764,50.2155522 247.663581,51.1496242 252.726276,48.2281066 C257.788971,45.306589 260.185561,39.2928612 258.52,33.69 C263.93,30.69 267.87,28.56 269.79,27.46 C274.341543,34.1526968 282.980455,36.7084379 290.440653,33.5693021 C297.900852,30.4301662 302.113448,22.4667095 300.510541,14.5332725 C298.907634,6.59983559 291.933746,0.896546683 283.84,0.9 L283.79,0.9 Z" id="Shape" fill="#F47D20" sketch:type="MSShapeGroup"></path>
            <path d="M54,137 L10.7,137 C6.36,137 3.4,136.05 1.81,134 C0.889463817,132.589555 0.444428442,130.921549 0.54,129.24 C0.566634273,127.416641 0.815128593,125.603304 1.28,123.84 L6.68,100.34 C7.84,95.58 9.53,92.19 11.86,90.17 C14.19,88.15 17.58,87.17 22.03,87.17 L54.03,87.17 C58.58,87.17 61.54,88.17 63.03,90.17 C64.0531916,91.5823974 64.5454011,93.310442 64.42,95.05 C64.402763,96.8385706 64.1506051,98.6171244 63.67,100.34 L60.18,115.91 L16.58,115.91 L14.25,126 C14.0724757,126.802462 13.9654019,127.618899 13.93,128.44 C13.93,128.97 13.93,129.39 14.15,129.6 C14.46,130.24 15.41,130.6 16.9,130.6 L48.65,130.6 C51.4254929,130.617089 54.1947671,130.335468 56.91,129.76 L54,137 Z M50.61,98.15 C50.8824641,97.3303253 51.0274864,96.4736821 51.04,95.61 C51.0300364,95.2464243 50.9555451,94.8875117 50.82,94.55 C50.4,93.91 49.34,93.6 47.82,93.6 L25.36,93.6 C24.2195474,93.4877675 23.0807591,93.8290448 22.19,94.55 C21.2703605,95.5269188 20.7433917,96.8087349 20.71,98.15 L18.06,109.58 L47.91,109.58 L50.61,98.15 Z" id="Shape" fill="#4D4848" sketch:type="MSShapeGroup"></path>
            <path d="M64.74,137 C65.41,135.46 65.98,133.8 66.65,131.78 C67.4488813,129.493986 68.0871012,127.15496 68.56,124.78 L79.68,73.28 C80.35,70.07 80.8,67.7 81.02,66.28 C81.24,64.86 81.25,63.2 81.25,61.06 L96.75,61.06 L82.93,124.79 C82.2633333,127.876667 81.8166667,130.253333 81.59,131.92 C81.3116007,133.604958 81.1977314,135.312998 81.25,137.02 L64.74,137 Z" id="Shape" fill="#4D4848" sketch:type="MSShapeGroup"></path>
            <path d="M243.36,95.56 C241.77,95.45 240.18,95.34 238.36,95.34 L231.27,95.34 C230.148912,95.2700466 229.035694,95.5685436 228.1,96.19 C227.146165,97.0481785 226.5116,98.2044973 226.3,99.47 L220.39,126 C219.4989,129.173644 219.00183,132.444906 218.91,135.74 L218.91,137 L203.45,137 C204.08,135.41 204.72,133.92 205.14,132.45 C205.56,130.98 206.14,128.95 206.84,126.09 L213.19,98.15 C213.93,95.39 214.25,93.28 214.57,91.69 C214.744669,90.2134598 214.814844,88.7264274 214.78,87.24 L227.78,87.24 L227.25,92.32 C227.96387,90.7671942 229.100587,89.4468003 230.53,88.51 C232.246647,87.5762174 234.188555,87.1366055 236.14,87.24 L248.85,87.24 L251.91,92.74 C251.238438,93.3386065 250.634804,94.0093115 250.11,94.74 C249.38,95.69 248.85,96.11 248.53,96.11 C246.64,95.88 244.94,95.66 243.36,95.56 L243.36,95.56 Z" id="Shape" fill="#4D4848" sketch:type="MSShapeGroup"></path>
            <path d="M174.86,137 C175.49,135.62 176.02,134.14 176.65,132.34 C177.405268,130.304551 178.006952,128.215369 178.45,126.09 L184.91,98.15 C185.44,95.29 185.86,93.15 185.97,91.9 C186.158666,90.7804885 186.229053,89.6442374 186.18,88.51 L186.18,87.24 L200.79,87.24 L192,126 C191.37,128.76 190.94,130.87 190.74,132.36 C190.477465,133.861665 190.370233,135.38637 190.42,136.91 L174.86,137 Z" id="Shape" fill="#4D4848" sketch:type="MSShapeGroup"></path>
            <path d="M118.77,69.79 C118.769997,72.6909037 117.021999,75.3059763 114.341526,76.4151676 C111.661052,77.5243589 108.576324,76.909089 106.526508,74.8564094 C104.476691,72.8037298 103.865727,69.7181462 104.978658,67.0392236 C106.091589,64.360301 108.709099,62.6159541 111.61,62.62 C113.510684,62.6199981 115.333375,63.3757257 116.676423,64.7206497 C118.019472,66.0655738 118.772655,67.8893179 118.77,69.79 L118.77,69.79 Z" id="Shape" fill="#4D4848" sketch:type="MSShapeGroup"></path>
            <path d="M148,224.55 C147.37,227.08 147.46,228.07 147.69,229.1 L135.9,229.1 C136.896082,227.750558 137.579272,226.196301 137.9,224.55 L142.22,207.18 C142.85,204.66 142.77,203.67 142.53,202.63 L165.4,202.63 L164.92,207.72 C163.519519,207.203651 162.031655,206.965865 160.54,207.02 L152.31,207.02 L150.77,213.22 L158,213.22 C159.600605,213.24001 161.194096,213.003687 162.72,212.52 L161.28,218.31 C159.881669,217.797852 158.398545,217.556886 156.91,217.6 L149.71,217.6 L148,224.55 Z" id="Shape" fill="#4D4848" sketch:type="MSShapeGroup"></path>
            <path d="M175,217.6 L173.27,224.55 C172.64,227.08 172.72,228.07 172.96,229.1 L161.17,229.1 C162.166082,227.750558 162.849272,226.196301 163.17,224.55 L167.49,207.18 C168.12,204.66 168.03,203.67 167.55,202.63 L189.3,202.63 C193.93,202.63 195.82,204.04 194.71,208.46 L193.5,213.34 C192.5,217.23 190.58,217.44 188.39,217.6 L190.13,225.05 C190.328205,226.44936 190.725562,227.813172 191.31,229.1 L180,229.1 L178.07,217.6 L175,217.6 Z M176.09,213.22 L181.79,213.22 C183.08,213.22 183.5,213.01 183.79,211.73 L184.59,208.51 C184.91,207.22 184.59,207.02 183.31,207.02 L177.6,207.02 L176.09,213.22 Z" id="Shape" fill="#4D4848" sketch:type="MSShapeGroup"></path>
            <path d="M202,222 L199.31,225.64 C198.95231,226.106065 198.693681,226.640338 198.55,227.21 C198.31273,227.828912 198.349072,228.519414 198.65,229.11 L191.17,229.11 C192.747074,227.671153 194.1591,226.061242 195.38,224.31 L210.04,204.13 L209.25,202.64 L221.25,202.64 L225,225.46 C225.218212,226.756419 225.697944,227.994878 226.41,229.1 L213.11,229.1 C213.85,228.1 213.98,227.94 214.11,227.37 C214.27902,226.717376 214.319773,226.038152 214.23,225.37 L213.63,221.98 L202,222 Z M213,217.61 L211.46,208.68 L205.19,217.61 L213,217.61 Z" id="Shape" fill="#4D4848" sketch:type="MSShapeGroup"></path>
            <path d="M237.79,207.18 L237.71,207.18 L233.44,224.35 C232.7,227.35 232.69,227.86 233.25,229.1 L226.88,229.1 C228.05,227.86 228.31,227.32 229.05,224.35 L233.27,207.35 C234.01,204.35 234.02,203.83 233.47,202.59 L247.65,202.59 L253,224.22 L253.12,224.22 L257.31,207.39 C258.06,204.39 258.06,203.87 257.51,202.63 L263.87,202.63 C262.7,203.87 262.44,204.41 261.7,207.39 L256.29,229.1 L243.25,229.1 L237.79,207.18 Z" id="Shape" fill="#4D4848" sketch:type="MSShapeGroup"></path>
            <path d="M289.06,207.72 C287.834299,207.202767 286.509174,206.963698 285.18,207.02 L278,207.02 C276.67,207.02 275.91,207.43 275.59,208.71 L272,223 C271.68,224.28 272.24,224.7 273.56,224.7 L279.27,224.7 C283.32,224.7 284.06,224.41 285.6,223.7 L283.39,229.07 L267.09,229.07 C262.79,229.07 260.91,227 262.33,221.3 L265,210.41 C266.42,204.7 269.33,202.63 273.63,202.63 L289.51,202.63 L289.06,207.72 Z" id="Shape" fill="#4D4848" sketch:type="MSShapeGroup"></path>
            <path d="M306.79,224.72 C308.39123,224.749473 309.986245,224.512924 311.51,224.02 L309.34,229.1 L286,229.1 C287.000212,227.752954 287.68383,226.197723 288,224.55 L292.33,207.18 C292.95,204.66 292.87,203.67 292.63,202.63 L315.54,202.63 L315.1,207.72 C313.687824,207.208605 312.191123,206.971034 310.69,207.02 L302.46,207.02 L300.91,213.22 L308.11,213.22 C309.710757,213.242267 311.304606,213.005891 312.83,212.52 L311.39,218.31 C309.991919,217.796898 308.50861,217.555903 307.02,217.6 L299.82,217.6 L298,224.72 L306.79,224.72 Z" id="Shape" fill="#4D4848" sketch:type="MSShapeGroup"></path>
        </g>
    </g>
</svg>