<?xml version="1.0" encoding="UTF-8" standalone="no"?>
<svg
   xmlns:dc="http://purl.org/dc/elements/1.1/"
   xmlns:cc="http://creativecommons.org/ns#"
   xmlns:rdf="http://www.w3.org/1999/02/22-rdf-syntax-ns#"
   xmlns:svg="http://www.w3.org/2000/svg"
   xmlns="http://www.w3.org/2000/svg"
   xmlns:sodipodi="http://sodipodi.sourceforge.net/DTD/sodipodi-0.dtd"
   xmlns:inkscape="http://www.inkscape.org/namespaces/inkscape"
   width="500"
   height="300"
   viewBox="0 100 500 300"
   version="1.1"
   id="svg4267"
   sodipodi:docname="FR.svg"
   inkscape:version="0.92.3 (2405546, 2018-03-11)">
  <metadata
     id="metadata4271">
    <rdf:RDF>
      <cc:Work
         rdf:about="">
        <dc:format>image/svg+xml</dc:format>
        <dc:type
           rdf:resource="http://purl.org/dc/dcmitype/StillImage" />
      </cc:Work>
    </rdf:RDF>
  </metadata>
  <sodipodi:namedview
     pagecolor="#ffffff"
     bordercolor="#666666"
     borderopacity="1"
     objecttolerance="10"
     gridtolerance="10"
     guidetolerance="10"
     inkscape:pageopacity="0"
     inkscape:pageshadow="2"
     inkscape:window-width="2560"
     inkscape:window-height="1247"
     id="namedview4269"
     showgrid="false"
     inkscape:zoom="11.776"
     inkscape:cx="312.67269"
     inkscape:cy="269.52333"
     inkscape:window-x="0"
     inkscape:window-y="0"
     inkscape:window-maximized="1"
     inkscape:current-layer="svg4267" />
  <defs
     id="defs4238">
    <style
       id="style4236">.cls-1{fill:#4d4848;}.cls-2{fill:#f47d20;}</style>
  </defs>
  <g
     id="Nodes"
     transform="translate(-82.527287,-25.915082)">
    <path
       class="cls-1"
       d="m 182.39,272 c 0.63,-1.38 1.16,-2.86 1.8,-4.66 A 44.89,44.89 0 0 0 186,261 l 6.47,-27.94 c 0.52,-2.86 0.94,-5 1.06,-6.25 a 17,17 0 0 0 0.2,-3.39 v -1.27 h 14.61 L 199.53,261 c -0.63,2.76 -1.05,4.87 -1.26,6.36 A 22.21,22.21 0 0 0 198,272 Z"
       id="path4240"
       inkscape:connector-curvature="0"
       style="fill:#4d4848" />
    <path
       class="cls-2"
       d="M 375.79,135.9 A 17,17 0 0 0 360.85,161 c -1.69,0.84 -5.63,2.82 -11.15,5.69 a 12.65,12.65 0 1 0 -22.28,11.93 c -2.84,1.56 -5.78,3.21 -8.81,4.92 a 9.930579,9.930579 0 0 0 -17.16,10 c -3.12,1.86 -6.28,3.77 -9.43,5.72 a 7.25,7.25 0 0 0 -11.94,5.54 7.08,7.08 0 0 0 0.25,1.86 339.87,339.87 0 0 0 -34.72,25.34 c -11.49,-25.68 -28.42,-53.87 -52,-76.82 l -0.07,-0.06 c -2.76,-2.72 -5,-1.52 -1.87,1.86 l 0.12,0.13 c 20,21.53 35.72,52.68 46.43,81.09 -40.63,34.69 -85.41,101.91 -36.33,123 7.15,3.08 10.41,-2.8 7.33,-4.61 -0.55,-0.33 -22.41,-12.14 -8.51,-48.45 h 35 a 3.4,3.4 0 0 0 0,-6.79 h -32.09 a 134.31,134.31 0 0 1 6.92,-12.84 h 25.16 a 3.4,3.4 0 0 0 0,-6.79 h -20.84 q 3.9,-5.83 8.79,-12.21 h 12 a 3.4,3.4 0 0 0 0,-6.79 H 229 q 5.7,-7 12.64,-14.57 l 0.12,-0.13 c 9.22,26.72 13.68,49.5 12.7,57.09 a 7.93,7.93 0 0 1 -4.27,6.38 c -1.72,0.81 -2.42,3.18 0.27,4 8.6,2.53 13.89,-6 14.84,-12.85 0.95,-6.85 -3.74,-32.19 -16.15,-62.34 a 316.1,316.1 0 0 1 34.53,-29.2 7.26,7.26 0 0 0 10.89,-6.29 6.64,6.64 0 0 0 -0.15,-1.42 q 4.88,-3.39 9.67,-6.58 A 9.92,9.92 0 0 0 320,186.61 c 3.18,-2 6.27,-3.86 9.24,-5.64 a 12.63,12.63 0 0 0 21.28,-12.28 c 5.41,-3 9.35,-5.13 11.27,-6.23 a 17,17 0 1 0 14.05,-26.56 z"
       id="path4242"
       inkscape:connector-curvature="0"
       style="fill:#f47d20" />
    <path
       class="cls-1"
       d="m 146,272 h -43.3 c -4.34,0 -7.3,-0.95 -8.89,-3 a 7.89,7.89 0 0 1 -1.27,-4.76 22.47,22.47 0 0 1 0.74,-5.4 l 5.4,-23.5 c 1.16,-4.76 2.85,-8.15 5.18,-10.17 2.33,-2.02 5.72,-3 10.17,-3 h 32 c 4.55,0 7.51,1 9,3 a 7.41,7.41 0 0 1 1.39,4.88 20.42,20.42 0 0 1 -0.75,5.29 l -3.49,15.57 h -43.6 L 106.25,261 a 14.11,14.11 0 0 0 -0.32,2.44 c 0,0.53 0,0.95 0.22,1.16 0.31,0.64 1.26,1 2.75,1 h 31.75 a 38.69,38.69 0 0 0 8.26,-0.84 z m -3.39,-38.85 a 8.44,8.44 0 0 0 0.43,-2.54 3.07,3.07 0 0 0 -0.22,-1.06 c -0.42,-0.64 -1.48,-0.95 -3,-0.95 h -22.46 a 4.36,4.36 0 0 0 -3.17,0.95 5.45,5.45 0 0 0 -1.48,3.6 l -2.65,11.43 h 29.85 z"
       id="path4244"
       inkscape:connector-curvature="0"
       style="fill:#4d4848" />
    <path
       class="cls-1"
       d="m 156.74,272 c 0.67,-1.54 1.24,-3.2 1.91,-5.22 a 52,52 0 0 0 1.91,-7 l 11.12,-51.5 c 0.67,-3.21 1.12,-5.58 1.34,-7 0.22,-1.42 0.23,-3.08 0.23,-5.22 h 15.5 l -13.82,63.73 q -1,4.63 -1.34,7.13 a 26.34,26.34 0 0 0 -0.34,5.1 z"
       id="path4246"
       inkscape:connector-curvature="0"
       style="fill:#4d4848" />
    <path
       class="cls-1"
       d="m 335.36,230.56 c -1.59,-0.11 -3.18,-0.22 -5,-0.22 h -7.09 a 5.15,5.15 0 0 0 -3.17,0.85 5.67,5.67 0 0 0 -1.8,3.28 L 312.39,261 a 40.17,40.17 0 0 0 -1.48,9.74 V 272 h -15.46 c 0.63,-1.59 1.27,-3.08 1.69,-4.55 0.42,-1.47 1,-3.5 1.7,-6.36 l 6.35,-27.94 c 0.74,-2.76 1.06,-4.87 1.38,-6.46 a 31.58,31.58 0 0 0 0.21,-4.45 h 13 l -0.53,5.08 a 9.1,9.1 0 0 1 3.28,-3.81 10.57,10.57 0 0 1 5.61,-1.27 h 12.71 l 3.06,5.5 a 12.26,12.26 0 0 0 -1.8,2 c -0.73,0.95 -1.26,1.37 -1.58,1.37 -1.89,-0.23 -3.59,-0.45 -5.17,-0.55 z"
       id="path4248"
       inkscape:connector-curvature="0"
       style="fill:#4d4848" />
    <path
       class="cls-1"
       d="m 266.86,272 c 0.63,-1.38 1.16,-2.86 1.79,-4.66 a 43.46,43.46 0 0 0 1.8,-6.25 l 6.46,-27.94 c 0.53,-2.86 0.95,-5 1.06,-6.25 a 16.19,16.19 0 0 0 0.21,-3.39 v -1.27 h 14.61 L 284,261 c -0.63,2.76 -1.06,4.87 -1.26,6.36 a 22.21,22.21 0 0 0 -0.32,4.55 z"
       id="path4250"
       inkscape:connector-curvature="0"
       style="fill:#4d4848" />
    <path
       class="cls-1"
       d="m 210.77,204.79 a 7.17,7.17 0 1 1 -7.16,-7.17 7.16,7.16 0 0 1 7.16,7.17 z"
       id="path4252"
       inkscape:connector-curvature="0"
       style="fill:#4d4848" />
    <path
       class="cls-1"
       d="m 240,359.55 c -0.63,2.53 -0.54,3.52 -0.31,4.55 H 227.9 a 11.3,11.3 0 0 0 2,-4.55 l 4.32,-17.37 c 0.63,-2.52 0.55,-3.51 0.31,-4.55 h 22.87 l -0.48,5.09 a 11.46,11.46 0 0 0 -4.38,-0.7 h -8.23 l -1.54,6.2 H 250 a 15,15 0 0 0 4.72,-0.7 l -1.44,5.79 a 11.72,11.72 0 0 0 -4.37,-0.71 h -7.2 z"
       id="path4254"
       inkscape:connector-curvature="0"
       style="fill:#4d4848" />
    <path
       class="cls-1"
       d="m 267,352.6 -1.73,6.95 c -0.63,2.53 -0.55,3.52 -0.31,4.55 h -11.79 a 11.3,11.3 0 0 0 2,-4.55 l 4.32,-17.37 c 0.63,-2.52 0.54,-3.51 0.06,-4.55 h 21.75 c 4.63,0 6.52,1.41 5.41,5.83 l -1.21,4.88 c -1,3.89 -2.92,4.1 -5.11,4.26 l 1.74,7.45 a 14.82,14.82 0 0 0 1.18,4.05 H 272 l -1.93,-11.5 z m 1.09,-4.38 h 5.7 c 1.29,0 1.71,-0.21 2,-1.49 l 0.8,-3.22 c 0.32,-1.29 0,-1.49 -1.28,-1.49 h -5.71 z"
       id="path4256"
       inkscape:connector-curvature="0"
       style="fill:#4d4848" />
    <path
       class="cls-1"
       d="m 294,357 -2.69,3.64 a 4.31,4.31 0 0 0 -0.76,1.57 2.34,2.34 0 0 0 0.1,1.9 h -7.48 a 28.77,28.77 0 0 0 4.21,-4.8 l 14.66,-20.18 -0.79,-1.49 h 12 l 3.75,22.82 a 9.69,9.69 0 0 0 1.41,3.64 h -13.3 c 0.74,-1 0.87,-1.16 1,-1.73 a 5.21,5.21 0 0 0 0.12,-2 l -0.6,-3.39 z m 11,-4.39 -1.54,-8.93 -6.27,8.93 z"
       id="path4258"
       inkscape:connector-curvature="0"
       style="fill:#4d4848" />
    <path
       class="cls-1"
       d="m 329.79,342.18 h -0.08 l -4.27,17.17 c -0.74,3 -0.75,3.51 -0.19,4.75 h -6.37 c 1.17,-1.24 1.43,-1.78 2.17,-4.75 l 4.22,-17 c 0.74,-3 0.75,-3.52 0.2,-4.76 h 14.18 l 5.35,21.63 h 0.12 l 4.19,-16.83 c 0.75,-3 0.75,-3.52 0.2,-4.76 h 6.36 c -1.17,1.24 -1.43,1.78 -2.17,4.76 l -5.41,21.71 h -13.04 z"
       id="path4260"
       inkscape:connector-curvature="0"
       style="fill:#4d4848" />
    <path
       class="cls-1"
       d="m 381.06,342.72 a 9,9 0 0 0 -3.88,-0.7 H 370 c -1.33,0 -2.09,0.41 -2.41,1.69 L 364,358 c -0.32,1.28 0.24,1.7 1.56,1.7 h 5.71 c 4.05,0 4.79,-0.29 6.33,-1 l -2.21,5.37 h -16.3 c -4.3,0 -6.18,-2.07 -4.76,-7.77 L 357,345.41 c 1.42,-5.71 4.33,-7.78 8.63,-7.78 h 15.88 z"
       id="path4262"
       inkscape:connector-curvature="0"
       style="fill:#4d4848" />
    <path
       class="cls-1"
       d="m 398.79,359.72 a 14.47,14.47 0 0 0 4.72,-0.7 l -2.17,5.08 H 378 a 11.16,11.16 0 0 0 2,-4.55 l 4.33,-17.37 c 0.62,-2.52 0.54,-3.51 0.3,-4.55 h 22.91 l -0.44,5.09 a 11.82,11.82 0 0 0 -4.41,-0.7 h -8.23 l -1.55,6.2 h 7.2 a 14.87,14.87 0 0 0 4.72,-0.7 l -1.44,5.79 a 11.68,11.68 0 0 0 -4.37,-0.71 h -7.2 l -1.82,7.12 z"
       id="path4264"
       inkscape:connector-curvature="0"
       style="fill:#4d4848" />
  </g>
</svg>
