<?xml version="1.0" encoding="UTF-8" standalone="no"?>
<svg
   xmlns:dc="http://purl.org/dc/elements/1.1/"
   xmlns:cc="http://creativecommons.org/ns#"
   xmlns:rdf="http://www.w3.org/1999/02/22-rdf-syntax-ns#"
   xmlns:svg="http://www.w3.org/2000/svg"
   xmlns="http://www.w3.org/2000/svg"
   xmlns:sodipodi="http://sodipodi.sourceforge.net/DTD/sodipodi-0.dtd"
   xmlns:inkscape="http://www.inkscape.org/namespaces/inkscape"
   width="500"
   height="300"
   viewBox="0 100 500 300"
   version="1.1"
   id="svg1978"
   sodipodi:docname="GB.svg"
   inkscape:version="0.92.3 (2405546, 2018-03-11)">
  <metadata
     id="metadata1982">
    <rdf:RDF>
      <cc:Work
         rdf:about="">
        <dc:format>image/svg+xml</dc:format>
        <dc:type
           rdf:resource="http://purl.org/dc/dcmitype/StillImage" />
        <dc:title></dc:title>
      </cc:Work>
    </rdf:RDF>
  </metadata>
  <sodipodi:namedview
     pagecolor="#ffffff"
     bordercolor="#666666"
     borderopacity="1"
     objecttolerance="10"
     gridtolerance="10"
     guidetolerance="10"
     inkscape:pageopacity="0"
     inkscape:pageshadow="2"
     inkscape:window-width="2560"
     inkscape:window-height="1247"
     id="namedview1980"
     showgrid="false"
     inkscape:zoom="2.0788939"
     inkscape:cx="344.37826"
     inkscape:cy="115.71647"
     inkscape:window-x="0"
     inkscape:window-y="0"
     inkscape:window-maximized="1"
     inkscape:current-layer="svg1978" />
  <defs
     id="defs1935">
    <style
       id="style1933">.cls-1{fill:#4d4848;}.cls-2{fill:#f47d20;}</style>
  </defs>
  <g
     id="Nodes"
     transform="translate(-61.991174,-5.2258378)">
    <path
       class="cls-1"
       d="m 161.92,251.27 c 0.63,-1.37 1.16,-2.85 1.8,-4.66 a 45.12,45.12 0 0 0 1.79,-6.24 l 6.46,-28 c 0.53,-2.86 0.95,-5 1.06,-6.25 a 16.14,16.14 0 0 0 0.21,-3.38 v -1.27 h 14.61 l -8.79,38.85 q -0.94,4.13 -1.27,6.35 a 23,23 0 0 0 -0.31,4.55 z"
       id="path1937"
       inkscape:connector-curvature="0"
       style="fill:#4d4848" />
    <path
       class="cls-2"
       d="m 355.32,115.22 a 17,17 0 0 0 -17,17 16.81,16.81 0 0 0 2.06,8.11 c -1.69,0.85 -5.63,2.82 -11.15,5.69 A 12.65,12.65 0 1 0 307,158 q -4.26,2.36 -8.81,4.92 a 9.930579,9.930579 0 0 0 -17.16,10 c -3.12,1.87 -6.28,3.78 -9.43,5.72 a 7.26,7.26 0 0 0 -11.95,5.55 7.65,7.65 0 0 0 0.25,1.86 337.79,337.79 0 0 0 -34.71,25.32 c -11.49,-25.68 -28.42,-53.87 -52,-76.82 l -0.07,-0.07 c -2.76,-2.72 -5,-1.52 -1.87,1.87 l 0.12,0.13 c 20,21.52 35.72,52.67 46.43,81.08 -40.63,34.69 -85.41,101.91 -36.33,123 7.15,3.07 10.41,-2.81 7.33,-4.62 -0.55,-0.32 -22.41,-12.14 -8.52,-48.45 h 35 a 3.39,3.39 0 1 0 0,-6.78 h -32.14 a 135.68,135.68 0 0 1 6.93,-12.85 h 25.16 a 3.4,3.4 0 0 0 0,-6.79 h -20.84 c 2.6,-3.88 5.51,-7.95 8.79,-12.21 h 12 a 3.4,3.4 0 0 0 0,-6.79 h -6.67 q 5.7,-7 12.64,-14.56 l 0.12,-0.14 c 9.22,26.72 13.68,49.5 12.7,57.1 a 7.93,7.93 0 0 1 -4.27,6.37 c -1.72,0.81 -2.43,3.19 0.27,4 8.59,2.53 13.89,-6 14.84,-12.85 0.95,-6.85 -3.74,-32.19 -16.15,-62.34 a 316.1,316.1 0 0 1 34.53,-29.2 7.19,7.19 0 0 0 3.62,1 7.27,7.27 0 0 0 7.27,-7.26 6.74,6.74 0 0 0 -0.15,-1.43 q 4.88,-3.39 9.67,-6.58 a 9.84,9.84 0 0 0 6.18,2.17 9.87,9.87 0 0 0 9.64,-12.33 q 4.78,-3 9.25,-5.64 A 12.64,12.64 0 0 0 330,148 c 5.4,-3 9.34,-5.14 11.27,-6.23 a 17,17 0 1 0 14.05,-26.57 z"
       id="path1939"
       inkscape:connector-curvature="0"
       style="fill:#f47d20" />
    <path
       class="cls-1"
       d="m 125.48,251.27 h -43.3 c -4.34,0 -7.3,-1 -8.9,-3 a 8,8 0 0 1 -1.28,-4.73 22.47,22.47 0 0 1 0.74,-5.4 l 5.4,-23.5 c 1.16,-4.76 2.85,-8.15 5.18,-10.16 2.33,-2.01 5.72,-3 10.17,-3 h 32 c 4.55,0 7.51,0.95 9,3 a 7.36,7.36 0 0 1 1.39,4.87 20.42,20.42 0 0 1 -0.75,5.29 l -3.49,15.57 H 88.11 l -2.33,10.16 a 14,14 0 0 0 -0.32,2.43 c 0,0.53 0,1 0.22,1.16 0.31,0.64 1.26,1 2.75,1 h 31.75 a 38.76,38.76 0 0 0 8.26,-0.84 z m -3.39,-38.85 a 8.34,8.34 0 0 0 0.42,-2.54 3.07,3.07 0 0 0 -0.21,-1.06 c -0.42,-0.63 -1.48,-0.95 -3,-0.95 H 96.89 a 4.4,4.4 0 0 0 -3.17,0.95 5.45,5.45 0 0 0 -1.48,3.6 l -2.65,11.43 h 29.85 z"
       id="path1941"
       inkscape:connector-curvature="0"
       style="fill:#4d4848" />
    <path
       class="cls-1"
       d="m 136.27,251.27 c 0.67,-1.54 1.23,-3.2 1.91,-5.22 a 52,52 0 0 0 1.91,-7 l 11.12,-51.5 c 0.67,-3.21 1.12,-5.58 1.34,-7 0.22,-1.42 0.23,-3.09 0.23,-5.23 h 15.5 L 154.46,239 q -1,4.64 -1.35,7.13 a 27.12,27.12 0 0 0 -0.33,5.1 z"
       id="path1943"
       inkscape:connector-curvature="0"
       style="fill:#4d4848" />
    <path
       class="cls-1"
       d="m 314.89,209.88 c -1.59,-0.11 -3.18,-0.21 -5,-0.21 h -7.09 a 5.15,5.15 0 0 0 -3.17,0.84 5.7,5.7 0 0 0 -1.8,3.28 l -5.93,26.58 a 40.11,40.11 0 0 0 -1.48,9.74 v 1.16 H 275 c 0.63,-1.59 1.27,-3.07 1.69,-4.55 0.42,-1.48 1,-3.5 1.7,-6.35 l 6.35,-28 c 0.74,-2.75 1.06,-4.87 1.38,-6.46 a 31.44,31.44 0 0 0 0.21,-4.44 h 13 l -0.53,5.08 a 9,9 0 0 1 3.28,-3.81 10.48,10.48 0 0 1 5.61,-1.27 h 12.71 l 3.06,5.5 a 12.16,12.16 0 0 0 -1.8,2 c -0.74,0.95 -1.26,1.38 -1.58,1.38 -1.91,-0.15 -3.61,-0.35 -5.19,-0.47 z"
       id="path1945"
       inkscape:connector-curvature="0"
       style="fill:#4d4848" />
    <path
       class="cls-1"
       d="m 246.39,251.27 c 0.63,-1.37 1.16,-2.85 1.79,-4.66 a 43.67,43.67 0 0 0 1.8,-6.24 l 6.46,-28 c 0.53,-2.86 0.95,-5 1.06,-6.25 a 16.14,16.14 0 0 0 0.21,-3.38 v -1.27 h 14.61 l -8.79,38.85 c -0.63,2.75 -1.06,4.87 -1.26,6.35 a 22.31,22.31 0 0 0 -0.32,4.55 z"
       id="path1947"
       inkscape:connector-curvature="0"
       style="fill:#4d4848" />
    <path
       class="cls-1"
       d="m 190.3,184.11 a 7.17,7.17 0 1 1 -7.16,-7.16 7.16,7.16 0 0 1 7.16,7.16 z"
       id="path1949"
       inkscape:connector-curvature="0"
       style="fill:#4d4848" />
    <path
       class="cls-1"
       d="m 229.86,339 c 2.81,0 3.09,-0.29 3.68,-2.65 l 3.65,-14.68 c 0.74,-3 0.75,-3.51 0.19,-4.75 h 6.37 c -1.18,1.24 -1.43,1.77 -2.17,4.75 l -3.37,13.53 c -1.5,6 -3.69,8.19 -9.44,8.19 h -13.4 c -5.17,0 -6.66,-2.65 -5.28,-8.19 l 3.41,-13.73 c 0.63,-2.53 0.55,-3.52 0.31,-4.55 h 11.74 a 11.18,11.18 0 0 0 -2,4.55 l -3.75,15.05 c -0.43,1.74 0.13,2.48 1.9,2.48 z"
       id="path1951"
       inkscape:connector-curvature="0"
       style="fill:#4d4848" />
    <path
       class="cls-1"
       d="m 250.35,321.51 h -0.08 L 246,338.67 c -0.74,3 -0.75,3.51 -0.19,4.76 h -6.37 c 1.17,-1.25 1.43,-1.78 2.17,-4.76 l 4.22,-17 c 0.74,-3 0.75,-3.51 0.19,-4.75 h 14.19 l 5.38,21.58 h 0.12 l 4.19,-16.83 c 0.74,-3 0.75,-3.51 0.19,-4.75 h 6.37 c -1.17,1.24 -1.43,1.77 -2.17,4.75 l -5.41,21.72 h -13.07 z"
       id="path1953"
       inkscape:connector-curvature="0"
       style="fill:#4d4848" />
    <path
       class="cls-1"
       d="m 273.26,343.43 a 11.16,11.16 0 0 0 2,-4.55 l 4.33,-17.37 c 0.62,-2.53 0.54,-3.52 0.3,-4.55 h 11.71 a 11.16,11.16 0 0 0 -2,4.55 l -4.33,17.37 c -0.62,2.52 -0.54,3.51 -0.3,4.55 z"
       id="path1955"
       inkscape:connector-curvature="0"
       style="fill:#4d4848" />
    <path
       class="cls-1"
       d="m 319.76,317 -0.53,5.46 a 4.81,4.81 0 0 0 -3.5,-1.08 h -4.59 l -4.36,17.54 c -0.63,2.52 -0.55,3.51 -0.31,4.55 h -11.74 a 11.44,11.44 0 0 0 2,-4.55 l 4.36,-17.54 h -4.59 a 7.09,7.09 0 0 0 -4,1.08 l 2.18,-5.46 z"
       id="path1957"
       inkscape:connector-curvature="0"
       style="fill:#4d4848" />
    <path
       class="cls-1"
       d="m 336.18,339 a 14.47,14.47 0 0 0 4.72,-0.7 l -2.17,5.09 H 315.4 a 11.29,11.29 0 0 0 2,-4.55 l 4.33,-17.37 c 0.62,-2.53 0.54,-3.52 0.3,-4.55 h 22.87 l -0.44,5.08 a 11.82,11.82 0 0 0 -4.41,-0.7 h -8.23 l -1.55,6.2 h 7.2 a 14.87,14.87 0 0 0 4.72,-0.7 l -1.44,5.79 a 11.73,11.73 0 0 0 -4.37,-0.7 h -7.2 l -1.77,7.11 z"
       id="path1959"
       inkscape:connector-curvature="0"
       style="fill:#4d4848" />
    <path
       class="cls-1"
       d="m 347.74,321.51 c 0.63,-2.53 0.54,-3.52 0.3,-4.55 h 20.56 c 5.62,0 7.07,2.15 5.73,7.52 l -2.84,11.42 c -1.33,5.37 -3.86,7.53 -9.48,7.53 h -20.55 a 11.31,11.31 0 0 0 2,-4.55 z m 5.72,17.49 h 5.26 c 1.65,0 2,-0.37 2.44,-2.15 l 3.33,-13.4 c 0.44,-1.78 0.29,-2.15 -1.37,-2.15 h -5.25 z"
       id="path1961"
       inkscape:connector-curvature="0"
       style="fill:#4d4848" />
    <path
       class="cls-1"
       d="m 236.57,379.36 a 23.78,23.78 0 0 0 2.5,5.42 h -12.41 l -3.13,-11.21 -3.06,2.69 -1,4 c -0.63,2.52 -0.55,3.52 -0.31,4.55 h -11.73 a 11.37,11.37 0 0 0 2,-4.55 l 4.32,-17.37 a 8.73,8.73 0 0 0 0.31,-4.55 h 11.74 a 11.37,11.37 0 0 0 -2,4.55 l -1.8,7.29 8.9,-8 c 1.49,-1.33 1.9,-2 2.12,-2.86 a 8.5,8.5 0 0 0 0.16,-1 h 9.23 a 16.34,16.34 0 0 0 -4.13,2.61 l -6.17,5.21 z"
       id="path1963"
       inkscape:connector-curvature="0"
       style="fill:#4d4848" />
    <path
       class="cls-1"
       d="m 240.35,384.78 a 11.37,11.37 0 0 0 2,-4.55 l 4.32,-17.37 c 0.63,-2.52 0.54,-3.52 0.3,-4.55 h 11.75 a 11.37,11.37 0 0 0 -2,4.55 l -4.32,17.37 c -0.63,2.52 -0.55,3.52 -0.31,4.55 z"
       id="path1965"
       inkscape:connector-curvature="0"
       style="fill:#4d4848" />
    <path
       class="cls-1"
       d="m 266.44,362.86 h -0.09 L 262.08,380 c -0.74,3 -0.75,3.52 -0.19,4.76 h -6.37 c 1.18,-1.24 1.44,-1.78 2.18,-4.76 l 4.22,-16.95 c 0.74,-3 0.75,-3.52 0.19,-4.76 h 14.19 l 5.38,21.59 h 0.12 l 4.2,-16.81 c 0.74,-3 0.75,-3.52 0.19,-4.76 h 6.37 c -1.18,1.24 -1.44,1.78 -2.18,4.76 L 285,384.78 h -13.1 z"
       id="path1967"
       inkscape:connector-curvature="0"
       style="fill:#4d4848" />
    <path
       class="cls-1"
       d="m 321.76,368.9 a 7.6,7.6 0 0 0 -2.27,4.13 l -1.63,6.54 c -0.81,3.27 -0.78,3.8 -0.22,5.21 h -8.89 l 0.27,-2.44 h -0.08 c -0.84,1.53 -1.43,2.44 -4.29,2.44 h -8.93 c -4.3,0 -6.19,-2.07 -4.77,-7.78 l 2.72,-10.91 c 1.42,-5.71 4.34,-7.78 8.64,-7.78 h 19.35 l -0.48,5.09 a 8.79,8.79 0 0 0 -3.88,-0.71 h -10.71 c -1.32,0 -2.09,0.42 -2.4,1.7 l -3.57,14.31 c -0.32,1.28 0.24,1.7 1.57,1.7 h 3.39 c 1.32,0 2.09,-0.42 2.41,-1.7 l 1.34,-5.42 h -3.76 a 4.16,4.16 0 0 0 -1.82,0.5 L 305,368.9 Z"
       id="path1969"
       inkscape:connector-curvature="0"
       style="fill:#4d4848" />
    <path
       class="cls-1"
       d="m 326.28,362.86 c 0.62,-2.52 0.54,-3.52 0.3,-4.55 h 20.56 c 5.62,0 7.07,2.15 5.73,7.53 L 350,377.25 c -1.34,5.38 -3.86,7.53 -9.48,7.53 H 320 a 11.23,11.23 0 0 0 2,-4.55 z M 332,380.4 h 5.25 c 1.66,0 2,-0.38 2.44,-2.16 l 3.34,-13.4 c 0.44,-1.77 0.28,-2.15 -1.37,-2.15 h -5.25 z"
       id="path1971"
       inkscape:connector-curvature="0"
       style="fill:#4d4848" />
    <path
       class="cls-1"
       d="m 356.45,366.09 c 1.42,-5.71 4.33,-7.78 8.63,-7.78 h 15.14 c 4.3,0 6.18,2.07 4.76,7.78 L 382.27,377 c -1.42,5.71 -4.34,7.78 -8.64,7.78 h -15.14 c -4.3,0 -6.18,-2.07 -4.76,-7.78 z m 6.95,12.61 c -0.32,1.28 0.24,1.7 1.56,1.7 h 4.39 c 1.32,0 2.08,-0.42 2.4,-1.7 l 3.56,-14.31 c 0.32,-1.28 -0.24,-1.7 -1.56,-1.7 h -4.38 c -1.33,0 -2.09,0.42 -2.41,1.7 z"
       id="path1973"
       inkscape:connector-curvature="0"
       style="fill:#4d4848" />
    <path
       class="cls-1"
       d="M 414.46,358.31 H 428 a 10.76,10.76 0 0 0 -2,4.55 l -4.32,17.37 c -0.63,2.52 -0.54,3.52 -0.26,4.55 h -11.81 a 11.37,11.37 0 0 0 2,-4.55 l 4.05,-16.3 h -0.08 L 403,384.78 h -7 l -1.92,-20.85 H 394 L 390,380 c -0.74,3 -0.75,3.52 -0.19,4.76 h -6.37 c 1.18,-1.24 1.44,-1.78 2.18,-4.76 l 4.22,-16.95 c 0.74,-3 0.75,-3.52 0.19,-4.76 H 404 l 1.31,15 h 0.09 z"
       id="path1975"
       inkscape:connector-curvature="0"
       style="fill:#4d4848" />
  </g>
</svg>
