<?xml version="1.0" encoding="UTF-8"?>
<svg width="356px" height="270px" viewBox="0 0 356 270" version="1.1" xmlns="http://www.w3.org/2000/svg" xmlns:xlink="http://www.w3.org/1999/xlink" xmlns:sketch="http://www.bohemiancoding.com/sketch/ns">
    <!-- Generator: Sketch 3.3.2 (12043) - http://www.bohemiancoding.com/sketch -->
    <title>Nodes</title>
    <desc>Created with Sketch.</desc>
    <defs></defs>
    <g id="Page-1" stroke="none" stroke-width="1" fill="none" fill-rule="evenodd" sketch:type="MSPage">
        <g id="Nodes" sketch:type="MSLayerGroup" transform="translate(-1.000000, 0.000000)">
            <path d="M90.92,136.27 C91.55,134.9 92.08,133.42 92.72,131.61 C93.4657174,129.575677 94.0639319,127.490281 94.51,125.37 L100.97,97.37 C101.5,94.51 101.92,92.37 102.03,91.12 C102.218333,90.0038147 102.28872,88.8709135 102.24,87.74 L102.24,86.47 L116.85,86.47 L108.06,125.32 C107.433333,128.073333 107.01,130.19 106.79,131.67 C106.536185,133.172651 106.432341,134.696809 106.48,136.22 L90.92,136.27 Z" id="Shape" fill="#4D4848" sketch:type="MSShapeGroup"></path>
            <path d="M284.32,0.22 C274.931159,0.22 267.32,7.83115925 267.32,17.22 C267.312114,20.0537538 268.020734,22.8435131 269.38,25.33 C267.69,26.18 263.75,28.15 258.23,31.02 C256.255792,26.7498831 252.075046,23.9280179 247.376458,23.6942187 C242.67787,23.4604196 238.23764,25.8533099 235.849277,29.9063477 C233.460914,33.9593856 233.518972,39.0030145 236,43 C233.16,44.5733333 230.223333,46.2133333 227.19,47.92 C224.428576,43.1813971 218.348603,41.5785767 213.61,44.3400004 C208.871397,47.101424 207.268577,53.1813969 210.03,57.92 C206.91,59.79 203.75,61.7 200.6,63.64 C198.440935,61.8127885 195.417223,61.4058649 192.851918,62.5972826 C190.286613,63.7887002 188.646802,66.361528 188.65,69.19 C188.656679,69.8179107 188.740644,70.4426104 188.9,71.05 C176.804433,78.7449048 165.210989,87.2020067 154.19,96.37 C142.7,70.69 125.77,42.5 102.19,19.55 L102.12,19.48 C99.36,16.76 97.12,17.96 100.25,21.35 L100.37,21.48 C120.37,43 136.09,74.15 146.8,102.56 C106.17,137.25 61.39,204.47 110.47,225.56 C117.62,228.63 120.88,222.75 117.8,220.94 C117.25,220.62 95.39,208.8 109.28,172.49 L144.28,172.49 C145.49113,172.49 146.610261,171.84387 147.215826,170.795 C147.821392,169.74613 147.821392,168.45387 147.215826,167.405 C146.610261,166.35613 145.49113,165.71 144.28,165.71 L112.14,165.71 C114.217709,161.305399 116.531057,157.015858 119.07,152.86 L144.23,152.86 C146.033492,152.762084 147.445677,151.271148 147.445677,149.465 C147.445677,147.658852 146.033492,146.167916 144.23,146.07 L123.39,146.07 C125.99,142.19 128.9,138.12 132.18,133.86 L144.18,133.86 C145.983492,133.762084 147.395677,132.271148 147.395677,130.465 C147.395677,128.658852 145.983492,127.167916 144.18,127.07 L137.51,127.07 C141.31,122.403333 145.523333,117.55 150.15,112.51 L150.27,112.37 C159.49,139.09 163.95,161.87 162.97,169.47 C162.736235,172.186149 161.123656,174.591799 158.7,175.84 C156.98,176.65 156.27,179.03 158.97,179.84 C167.56,182.37 172.86,173.84 173.81,166.99 C174.76,160.14 170.07,134.8 157.66,104.65 C168.458122,94.1047831 179.997643,84.3464854 192.19,75.45 C193.286764,76.0981537 194.53605,76.4432601 195.81,76.45 C199.821208,76.4500038 203.074483,73.2012043 203.08,69.19 C203.081132,68.7093484 203.030846,68.2299546 202.93,67.76 C206.183333,65.5 209.406667,63.3066667 212.6,61.18 C214.351753,62.5878368 216.532639,63.3536172 218.78,63.35 C221.845594,63.3753353 224.748915,61.9747205 226.637168,59.559558 C228.525422,57.1443956 229.1842,53.988924 228.42,51.02 C231.606667,49.02 234.69,47.14 237.67,45.38 C241.687812,49.7155 248.173795,50.6875549 253.28606,47.7203803 C258.398324,44.7532056 260.771556,38.6392344 259,33 C264.4,30 268.34,27.86 270.27,26.77 C274.82497,33.4575002 283.462243,36.0078148 290.919189,32.8670552 C298.376135,29.7262957 302.586039,21.764933 300.983836,13.8337692 C299.381633,5.90260535 292.411379,0.199786584 284.32,0.2 L284.32,0.22 Z" id="Shape" fill="#F47D20" sketch:type="MSShapeGroup"></path>
            <path d="M54.48,136.27 L11.18,136.27 C6.84,136.27 3.88,135.27 2.28,133.27 C1.36908259,131.866033 0.921409231,130.21174 1,128.54 C1.02663427,126.716641 1.27512859,124.903304 1.74,123.14 L7.14,99.64 C8.3,94.88 9.99,91.49 12.32,89.48 C14.65,87.47 18.04,86.48 22.49,86.48 L54.49,86.48 C59.04,86.48 62,87.43 63.49,89.48 C64.5148456,90.8877893 65.0073563,92.6133482 64.88,94.35 C64.862763,96.1385706 64.6106051,97.9171244 64.13,99.64 L60.64,115.21 L17.11,115.21 L14.78,125.37 C14.6024988,126.169087 14.4954219,126.982203 14.46,127.8 C14.46,128.33 14.46,128.8 14.68,128.96 C14.99,129.6 15.94,129.96 17.43,129.96 L49.18,129.96 C51.9554671,129.976548 54.7246834,129.694932 57.44,129.12 L54.48,136.27 Z M51.09,97.42 C51.3606234,96.6001755 51.5023111,95.7433019 51.51,94.88 C51.5032242,94.5170294 51.432123,94.1581376 51.3,93.82 C50.88,93.19 49.82,92.87 48.3,92.87 L25.89,92.87 C24.7499707,92.7620967 23.6127865,93.1028932 22.72,93.82 C21.8003605,94.7969188 21.2733917,96.0787349 21.24,97.42 L18.59,108.85 L48.44,108.85 L51.09,97.42 Z" id="Shape" fill="#4D4848" sketch:type="MSShapeGroup"></path>
            <path d="M65.27,136.27 C65.94,134.73 66.5,133.07 67.18,131.05 C67.9788813,128.763986 68.6171012,126.42496 69.09,124.05 L80.21,72.55 C80.88,69.34 81.33,66.97 81.55,65.55 C81.77,64.13 81.78,62.46 81.78,60.32 L97.28,60.32 L83.46,124 C82.7933333,127.093333 82.3433333,129.47 82.11,131.13 C81.8397087,132.815822 81.7292183,134.523402 81.78,136.23 L65.27,136.27 Z" id="Shape" fill="#4D4848" sketch:type="MSShapeGroup"></path>
            <path d="M243.89,94.88 C242.3,94.77 240.71,94.67 238.89,94.67 L231.8,94.67 C230.680032,94.5971011 229.566907,94.8920615 228.63,95.51 C227.678041,96.3696635 227.04386,97.5252823 226.83,98.79 L220.9,125.37 C220.008304,128.543515 219.511222,131.814852 219.42,135.11 L219.42,136.27 L204,136.27 C204.63,134.68 205.27,133.2 205.69,131.72 C206.11,130.24 206.69,128.22 207.39,125.37 L213.74,97.37 C214.48,94.62 214.8,92.5 215.12,90.91 C215.294664,89.436808 215.364839,87.9531009 215.33,86.47 L228.33,86.47 L227.8,91.55 C228.509226,89.9942173 229.646953,88.6726507 231.08,87.74 C232.794954,86.8017328 234.738152,86.361829 236.69,86.47 L249.4,86.47 L252.46,91.97 C251.787861,92.5680265 251.184167,93.2387986 250.66,93.97 C249.92,94.92 249.4,95.35 249.08,95.35 C247.17,95.2 245.47,95 243.89,94.88 L243.89,94.88 Z" id="Shape" fill="#4D4848" sketch:type="MSShapeGroup"></path>
            <path d="M175.39,136.27 C176.02,134.9 176.55,133.42 177.18,131.61 C177.934047,129.57756 178.535711,127.491794 178.98,125.37 L185.44,97.37 C185.97,94.51 186.39,92.37 186.5,91.12 C186.688333,90.0038147 186.75872,88.8709135 186.71,87.74 L186.71,86.47 L201.32,86.47 L192.53,125.32 C191.9,128.07 191.47,130.19 191.27,131.67 C191.008166,133.171751 190.90094,134.696384 190.95,136.22 L175.39,136.27 Z" id="Shape" fill="#4D4848" sketch:type="MSShapeGroup"></path>
            <path d="M119.3,69.11 C119.304044,72.0118103 117.558614,74.6299518 114.878463,75.7422956 C112.198311,76.8546394 109.111943,76.2418404 107.060051,74.1899487 C105.00816,72.1380569 104.395361,69.0516886 105.507704,66.3715373 C106.620048,63.691386 109.23819,61.9459557 112.14,61.95 C116.094359,61.95 119.3,65.1556412 119.3,69.11 L119.3,69.11 Z" id="Shape" fill="#4D4848" sketch:type="MSShapeGroup"></path>
            <path d="M158.86,224 C161.67,224 161.95,223.71 162.54,221.35 L166.19,206.67 C166.93,203.67 166.94,203.16 166.38,201.92 L172.75,201.92 C171.57,203.16 171.32,203.69 170.58,206.67 L167.21,220.2 C165.71,226.2 163.52,228.39 157.77,228.39 L144.37,228.39 C139.2,228.39 137.71,225.74 139.09,220.2 L142.5,206.47 C143.13,203.94 143.05,202.95 142.81,201.92 L154.55,201.92 C153.550384,203.267392 152.866828,204.822482 152.55,206.47 L148.8,221.52 C148.37,223.26 148.93,224 150.7,224 L158.86,224 Z" id="Shape" fill="#4D4848" sketch:type="MSShapeGroup"></path>
            <path d="M179.35,206.51 L179.27,206.51 L175,223.67 C174.26,226.67 174.25,227.18 174.81,228.43 L168.44,228.43 C169.61,227.18 169.87,226.65 170.61,223.67 L174.83,206.67 C175.57,203.67 175.58,203.16 175.02,201.92 L189.21,201.92 L194.59,223.5 L194.71,223.5 L198.9,206.67 C199.64,203.67 199.65,203.16 199.09,201.92 L205.46,201.92 C204.29,203.16 204.03,203.69 203.29,206.67 L197.88,228.39 L184.81,228.39 L179.35,206.51 Z" id="Shape" fill="#4D4848" sketch:type="MSShapeGroup"></path>
            <path d="M202.26,228.43 C203.260212,227.082954 203.94383,225.527723 204.26,223.88 L208.59,206.51 C209.21,203.98 209.13,202.99 208.89,201.96 L220.6,201.96 C219.599788,203.307046 218.91617,204.862277 218.6,206.51 L214.27,223.88 C213.65,226.4 213.73,227.39 213.97,228.43 L202.26,228.43 Z" id="Shape" fill="#4D4848" sketch:type="MSShapeGroup"></path>
            <path d="M248.76,202 L248.23,207.46 C247.251427,206.652493 245.993444,206.264315 244.73,206.38 L240.14,206.38 L235.78,223.92 C235.15,226.44 235.23,227.43 235.47,228.47 L223.73,228.47 C224.722053,227.118229 225.404832,225.564908 225.73,223.92 L230.09,206.38 L225.5,206.38 C224.088874,206.333695 222.696057,206.709755 221.5,207.46 L223.68,202 L248.76,202 Z" id="Shape" fill="#4D4848" sketch:type="MSShapeGroup"></path>
            <path d="M265.18,224 C266.78123,224.029473 268.376245,223.792924 269.9,223.3 L267.73,228.39 L244.4,228.39 C245.396373,227.040727 246.079593,225.486401 246.4,223.84 L250.73,206.47 C251.35,203.94 251.27,202.95 251.03,201.92 L273.9,201.92 L273.46,207 C272.047824,206.488605 270.551123,206.251034 269.05,206.3 L260.82,206.3 L259.27,212.5 L266.47,212.5 C268.070757,212.522267 269.664606,212.285891 271.19,211.8 L269.75,217.59 C268.350946,217.081492 266.867888,216.843931 265.38,216.89 L258.18,216.89 L256.41,224 L265.18,224 Z" id="Shape" fill="#4D4848" sketch:type="MSShapeGroup"></path>
            <path d="M276.74,206.51 C277.37,203.98 277.28,202.99 277.04,201.96 L297.6,201.96 C303.22,201.96 304.67,204.11 303.33,209.48 L300.49,220.9 C299.16,226.27 296.63,228.43 291.01,228.43 L270.46,228.43 C271.455791,227.08039 272.138951,225.5262 272.46,223.88 L276.74,206.51 Z M282.46,224 L287.72,224 C289.37,224 289.72,223.63 290.16,221.85 L293.49,208.45 C293.93,206.67 293.78,206.3 292.12,206.3 L286.87,206.3 L282.46,224 Z" id="Shape" fill="#4D4848" sketch:type="MSShapeGroup"></path>
            <path d="M165.57,264.36 C166.172389,266.264495 167.012337,268.085502 168.07,269.78 L155.66,269.78 L152.53,258.57 L149.47,261.26 L148.47,265.26 C147.84,267.78 147.92,268.78 148.16,269.81 L136.43,269.81 C137.424055,268.459385 138.107037,266.9056 138.43,265.26 L142.75,247.89 C143.254659,246.427591 143.361643,244.857343 143.06,243.34 L154.8,243.34 C153.805945,244.690615 153.122963,246.2444 152.8,247.89 L151,255.18 L159.9,247.18 C161.39,245.85 161.8,245.18 162.02,244.32 C162.093161,243.990143 162.146589,243.656217 162.18,243.32 L171.41,243.32 C169.910314,243.978112 168.518089,244.857944 167.28,245.93 L161.11,251.14 L165.57,264.36 Z" id="Shape" fill="#4D4848" sketch:type="MSShapeGroup"></path>
            <path d="M169.35,269.78 C170.344055,268.429385 171.027037,266.8756 171.35,265.23 L175.67,247.86 C176.3,245.34 176.21,244.34 175.97,243.31 L187.72,243.31 C186.725945,244.660615 186.042963,246.2144 185.72,247.86 L181.4,265.23 C180.77,267.75 180.85,268.75 181.09,269.78 L169.35,269.78 Z" id="Shape" fill="#4D4848" sketch:type="MSShapeGroup"></path>
            <path d="M195.44,247.86 L195.35,247.86 L191.08,265 C190.34,268 190.33,268.52 190.89,269.76 L184.52,269.76 C185.7,268.52 185.96,267.98 186.7,265 L190.92,248.05 C191.66,245.05 191.67,244.53 191.11,243.29 L205.3,243.29 L210.68,264.88 L210.8,264.88 L215,248.07 C215.74,245.07 215.75,244.55 215.19,243.31 L221.56,243.31 C220.38,244.55 220.12,245.09 219.38,248.07 L214,269.78 L200.9,269.78 L195.44,247.86 Z" id="Shape" fill="#4D4848" sketch:type="MSShapeGroup"></path>
            <path d="M250.76,253.9 C249.584833,255.00136 248.789937,256.447581 248.49,258.03 L246.86,264.57 C246.05,267.84 246.08,268.37 246.64,269.78 L237.75,269.78 L238.02,267.34 L237.94,267.34 C237.1,268.87 236.51,269.78 233.65,269.78 L224.72,269.78 C220.42,269.78 218.53,267.71 219.95,262 L222.67,251.09 C224.09,245.38 227.01,243.31 231.31,243.31 L250.66,243.31 L250.18,248.4 C248.957154,247.872457 247.63042,247.629678 246.3,247.69 L235.59,247.69 C234.27,247.69 233.5,248.11 233.19,249.39 L229.62,263.7 C229.3,264.98 229.86,265.4 231.19,265.4 L234.58,265.4 C235.9,265.4 236.67,264.98 236.99,263.7 L238.33,258.28 L234.57,258.28 C233.933038,258.305022 233.310345,258.476092 232.75,258.78 L234,253.9 L250.76,253.9 Z" id="Shape" fill="#4D4848" sketch:type="MSShapeGroup"></path>
            <path d="M255.28,247.86 C255.9,245.34 255.82,244.34 255.58,243.31 L276.14,243.31 C281.76,243.31 283.21,245.46 281.87,250.84 L279,262.25 C277.66,267.63 275.14,269.78 269.52,269.78 L249,269.78 C249.998134,268.431748 250.681536,266.877008 251,265.23 L255.28,247.86 Z M261,265.4 L266.25,265.4 C267.91,265.4 268.25,265.02 268.69,263.24 L272.03,249.84 C272.47,248.07 272.31,247.69 270.66,247.69 L265.41,247.69 L261,265.4 Z" id="Shape" fill="#4D4848" sketch:type="MSShapeGroup"></path>
            <path d="M285.45,251.09 C286.87,245.38 289.78,243.31 294.08,243.31 L309.22,243.31 C313.52,243.31 315.4,245.38 313.98,251.09 L311.27,262 C309.85,267.71 306.93,269.78 302.63,269.78 L287.49,269.78 C283.19,269.78 281.31,267.71 282.73,262 L285.45,251.09 Z M292.4,263.7 C292.08,264.98 292.64,265.4 293.96,265.4 L298.35,265.4 C299.67,265.4 300.43,264.98 300.75,263.7 L304.31,249.39 C304.63,248.11 304.07,247.69 302.75,247.69 L298.37,247.69 C297.04,247.69 296.28,248.11 295.96,249.39 L292.4,263.7 Z" id="Shape" fill="#4D4848" sketch:type="MSShapeGroup"></path>
            <path d="M343.46,243.31 L357,243.31 C355.987386,244.649804 355.302449,246.208036 355,247.86 L350.68,265.23 C350.05,267.75 350.14,268.75 350.42,269.78 L338.61,269.78 C339.604055,268.429385 340.287037,266.8756 340.61,265.23 L344.66,248.93 L344.58,248.93 L332,269.78 L325,269.78 L323.08,248.93 L323,248.93 L319,265 C318.26,268 318.25,268.52 318.81,269.76 L312.44,269.76 C313.62,268.52 313.88,267.98 314.62,265 L318.84,248.05 C319.58,245.05 319.59,244.53 319.03,243.29 L333,243.29 L334.31,258.29 L334.4,258.29 L343.46,243.31 Z" id="Shape" fill="#4D4848" sketch:type="MSShapeGroup"></path>
        </g>
    </g>
</svg>