<?xml version="1.0" encoding="UTF-8" standalone="no"?>
<svg
   xmlns:dc="http://purl.org/dc/elements/1.1/"
   xmlns:cc="http://creativecommons.org/ns#"
   xmlns:rdf="http://www.w3.org/1999/02/22-rdf-syntax-ns#"
   xmlns:svg="http://www.w3.org/2000/svg"
   xmlns="http://www.w3.org/2000/svg"
   xmlns:sodipodi="http://sodipodi.sourceforge.net/DTD/sodipodi-0.dtd"
   xmlns:inkscape="http://www.inkscape.org/namespaces/inkscape"
   width="500"
   height="300"
   viewBox="0 100 500 300"
   version="1.1"
   id="svg35"
   sodipodi:docname="ELIXIR-GR.svg"
   inkscape:version="0.92.3 (2405546, 2018-03-11)">
  <metadata
     id="metadata39">
    <rdf:RDF>
      <cc:Work
         rdf:about="">
        <dc:format>image/svg+xml</dc:format>
        <dc:type
           rdf:resource="http://purl.org/dc/dcmitype/StillImage" />
      </cc:Work>
    </rdf:RDF>
  </metadata>
  <sodipodi:namedview
     pagecolor="#ffffff"
     bordercolor="#666666"
     borderopacity="1"
     objecttolerance="10"
     gridtolerance="10"
     guidetolerance="10"
     inkscape:pageopacity="0"
     inkscape:pageshadow="2"
     inkscape:window-width="2560"
     inkscape:window-height="1247"
     id="namedview37"
     showgrid="false"
     inkscape:zoom="1.3350176"
     inkscape:cx="329.00971"
     inkscape:cy="269.89868"
     inkscape:window-x="0"
     inkscape:window-y="0"
     inkscape:window-maximized="1"
     inkscape:current-layer="svg35" />
  <defs
     id="defs4">
    <style
       id="style2">.cls-1{fill:#4d4848;}.cls-2{fill:#f47d20;}</style>
  </defs>
  <g
     id="Nodes">
    <path
       class="cls-1"
       d="m 173.19,272 c 0.63,-1.38 1.16,-2.86 1.8,-4.66 a 44.89,44.89 0 0 0 1.79,-6.25 l 6.46,-27.94 c 0.53,-2.86 0.95,-5 1.06,-6.25 a 16.19,16.19 0 0 0 0.21,-3.39 v -1.27 h 14.61 L 190.33,261 c -0.63,2.76 -1.05,4.87 -1.27,6.36 a 22.92,22.92 0 0 0 -0.31,4.55 z"
       id="path6"
       inkscape:connector-curvature="0"
       style="fill:#4d4848" />
    <path
       class="cls-2"
       d="m 366.59,135.9 a 17,17 0 0 0 -17,17 16.81,16.81 0 0 0 2.06,8.11 c -1.7,0.84 -5.64,2.82 -11.15,5.69 a 12.65,12.65 0 1 0 -22.28,11.93 c -2.84,1.56 -5.78,3.21 -8.81,4.92 a 9.930579,9.930579 0 0 0 -17.16,10 c -3.12,1.86 -6.28,3.77 -9.43,5.72 a 7.26,7.26 0 0 0 -11.95,5.54 7.52,7.52 0 0 0 0.25,1.86 340.8,340.8 0 0 0 -34.71,25.33 c -11.49,-25.68 -28.42,-53.87 -52,-76.82 l -0.07,-0.06 c -2.76,-2.72 -5,-1.52 -1.87,1.86 l 0.12,0.13 c 20,21.53 35.72,52.68 46.43,81.09 -40.63,34.69 -85.42,101.91 -36.33,123 7.15,3.08 10.41,-2.8 7.33,-4.61 -0.55,-0.33 -22.41,-12.15 -8.52,-48.45 h 35 a 3.4,3.4 0 0 0 0,-6.79 h -32.09 a 136.82,136.82 0 0 1 6.93,-12.84 h 25.16 a 3.4,3.4 0 0 0 0,-6.79 h -20.84 c 2.6,-3.89 5.51,-7.95 8.79,-12.21 h 12.05 a 3.4,3.4 0 0 0 0,-6.79 h -6.67 q 5.7,-7 12.64,-14.57 l 0.12,-0.13 c 9.22,26.72 13.68,49.5 12.7,57.09 a 7.93,7.93 0 0 1 -4.27,6.38 c -1.72,0.81 -2.43,3.18 0.27,4 8.59,2.53 13.88,-6 14.84,-12.85 0.96,-6.85 -3.74,-32.19 -16.16,-62.34 a 317.16,317.16 0 0 1 34.54,-29.2 7.26,7.26 0 0 0 10.89,-6.29 6.64,6.64 0 0 0 -0.15,-1.42 q 4.88,-3.39 9.67,-6.58 a 9.9,9.9 0 0 0 15.82,-10.16 q 4.78,-3 9.25,-5.64 a 12.64,12.64 0 0 0 21.28,-12.28 c 5.4,-3 9.34,-5.13 11.27,-6.23 a 17,17 0 1 0 14,-26.56 z"
       id="path8"
       inkscape:connector-curvature="0"
       style="fill:#f47d20" />
    <path
       class="cls-1"
       d="m 136.75,272 h -43.3 c -4.34,0 -7.3,-0.95 -8.9,-3 a 8,8 0 0 1 -1.26,-4.76 22.47,22.47 0 0 1 0.74,-5.4 l 5.4,-23.5 c 1.16,-4.76 2.85,-8.15 5.18,-10.17 2.33,-2.02 5.72,-3 10.17,-3 h 32 c 4.55,0 7.51,1 9,3 a 7.41,7.41 0 0 1 1.39,4.88 20.42,20.42 0 0 1 -0.75,5.29 l -3.49,15.57 H 99.38 L 97.05,261 a 14.11,14.11 0 0 0 -0.32,2.44 c 0,0.53 0,0.95 0.22,1.16 0.31,0.64 1.26,1 2.75,1 h 31.75 a 38.76,38.76 0 0 0 8.26,-0.84 z m -3.39,-38.85 a 8.38,8.38 0 0 0 0.42,-2.54 3.07,3.07 0 0 0 -0.21,-1.06 c -0.43,-0.64 -1.48,-0.95 -3,-0.95 h -22.41 a 4.36,4.36 0 0 0 -3.17,0.95 5.45,5.45 0 0 0 -1.48,3.6 l -2.65,11.43 h 29.85 z"
       id="path10"
       inkscape:connector-curvature="0"
       style="fill:#4d4848" />
    <path
       class="cls-1"
       d="m 147.54,272 c 0.67,-1.54 1.23,-3.2 1.91,-5.22 a 52.42,52.42 0 0 0 1.91,-7 l 11.12,-51.5 c 0.67,-3.21 1.12,-5.58 1.34,-7 0.22,-1.42 0.23,-3.08 0.23,-5.22 h 15.5 l -13.82,63.73 q -1,4.63 -1.35,7.13 a 27.12,27.12 0 0 0 -0.33,5.1 z"
       id="path12"
       inkscape:connector-curvature="0"
       style="fill:#4d4848" />
    <path
       class="cls-1"
       d="m 326.16,230.56 c -1.59,-0.11 -3.18,-0.22 -5,-0.22 h -7.09 a 5.15,5.15 0 0 0 -3.17,0.85 5.67,5.67 0 0 0 -1.8,3.28 L 303.19,261 a 40.17,40.17 0 0 0 -1.48,9.74 V 272 h -15.46 c 0.63,-1.59 1.27,-3.08 1.69,-4.55 0.42,-1.47 1,-3.5 1.7,-6.36 L 296,233.1 c 0.74,-2.76 1.06,-4.87 1.38,-6.46 a 31.58,31.58 0 0 0 0.21,-4.45 h 13 l -0.53,5.08 a 9,9 0 0 1 3.28,-3.81 10.57,10.57 0 0 1 5.61,-1.27 h 12.71 l 3.06,5.5 a 12.26,12.26 0 0 0 -1.8,2 c -0.74,0.95 -1.26,1.37 -1.58,1.37 -1.9,-0.18 -3.6,-0.4 -5.18,-0.5 z"
       id="path14"
       inkscape:connector-curvature="0"
       style="fill:#4d4848" />
    <path
       class="cls-1"
       d="m 257.66,272 c 0.63,-1.38 1.16,-2.86 1.79,-4.66 a 43.46,43.46 0 0 0 1.8,-6.25 l 6.46,-27.94 c 0.53,-2.86 1,-5 1.06,-6.25 a 16.19,16.19 0 0 0 0.21,-3.39 v -1.27 h 14.61 L 274.8,261 c -0.63,2.76 -1.06,4.87 -1.26,6.36 a 22.21,22.21 0 0 0 -0.32,4.55 z"
       id="path16"
       inkscape:connector-curvature="0"
       style="fill:#4d4848" />
    <path
       class="cls-1"
       d="m 201.57,204.79 a 7.17,7.17 0 1 1 -7.16,-7.17 7.16,7.16 0 0 1 7.16,7.17 z"
       id="path18"
       inkscape:connector-curvature="0"
       style="fill:#4d4848" />
    <path
       class="cls-1"
       d="m 251.85,348.22 a 7.63,7.63 0 0 0 -2.27,4.14 l -1.58,6.53 c -0.81,3.27 -0.78,3.81 -0.22,5.21 h -8.89 l 0.28,-2.44 H 239 c -0.83,1.53 -1.43,2.44 -4.29,2.44 h -8.93 c -4.3,0 -6.18,-2.07 -4.76,-7.77 l 2.71,-10.92 c 1.42,-5.71 4.34,-7.78 8.64,-7.78 h 19.35 l -0.48,5.09 a 8.94,8.94 0 0 0 -3.87,-0.7 h -10.69 c -1.32,0 -2.08,0.41 -2.4,1.69 L 230.72,358 c -0.32,1.28 0.24,1.7 1.56,1.7 h 3.39 c 1.32,0 2.09,-0.42 2.41,-1.7 l 1.35,-5.42 h -3.77 a 4.16,4.16 0 0 0 -1.82,0.5 l 1.22,-4.88 z"
       id="path20"
       inkscape:connector-curvature="0"
       style="fill:#4d4848" />
    <path
       class="cls-1"
       d="m 264.66,352.6 -1.73,6.95 c -0.62,2.53 -0.54,3.52 -0.3,4.55 h -11.75 a 11.16,11.16 0 0 0 2,-4.55 l 4.32,-17.37 c 0.63,-2.52 0.55,-3.51 0.06,-4.55 H 279 c 4.63,0 6.51,1.41 5.41,5.83 l -1.21,4.88 c -1,3.89 -2.93,4.1 -5.12,4.26 l 1.75,7.45 a 14.48,14.48 0 0 0 1.17,4.05 h -11.3 l -1.94,-11.5 z m 1.09,-4.38 h 5.71 c 1.28,0 1.71,-0.21 2,-1.49 l 0.8,-3.22 c 0.32,-1.29 0,-1.49 -1.29,-1.49 h -5.7 z"
       id="path24"
       inkscape:connector-curvature="0"
       style="fill:#4d4848" />
    <path
       class="cls-1"
       d="m 303.83,359.72 a 14.59,14.59 0 0 0 4.73,-0.7 l -2.18,5.08 h -23.32 a 11.3,11.3 0 0 0 2,-4.55 l 4.32,-17.37 c 0.63,-2.52 0.54,-3.51 0.3,-4.55 h 22.92 l -0.44,5.09 a 11.92,11.92 0 0 0 -4.42,-0.7 h -8.23 l -1.54,6.2 h 7.19 a 15,15 0 0 0 4.73,-0.7 l -1.44,5.79 a 11.79,11.79 0 0 0 -4.38,-0.71 h -7.19 l -1.77,7.12 z"
       id="path26"
       inkscape:connector-curvature="0"
       style="fill:#4d4848" />
    <path
       class="cls-1"
       d="m 329.89,359.72 a 14.57,14.57 0 0 0 4.72,-0.7 l -2.18,5.08 h -23.32 a 11.3,11.3 0 0 0 2,-4.55 l 4.32,-17.37 c 0.63,-2.52 0.55,-3.51 0.31,-4.55 h 22.91 l -0.44,5.09 a 11.88,11.88 0 0 0 -4.42,-0.7 h -8.23 l -1.54,6.2 h 7.2 a 15,15 0 0 0 4.72,-0.7 l -1.44,5.79 a 11.74,11.74 0 0 0 -4.38,-0.71 h -7.19 l -1.77,7.12 z"
       id="path28"
       inkscape:connector-curvature="0"
       style="fill:#4d4848" />
    <path
       class="cls-1"
       d="m 364.26,342.72 a 8.94,8.94 0 0 0 -3.87,-0.7 h -7.24 c -1.33,0 -2.09,0.41 -2.41,1.69 L 347.18,358 c -0.32,1.28 0.24,1.7 1.56,1.7 h 5.71 c 4.05,0 4.79,-0.29 6.33,-1 l -2.21,5.37 h -16.3 c -4.3,0 -6.18,-2.07 -4.76,-7.77 l 2.72,-10.92 c 1.42,-5.71 4.33,-7.78 8.63,-7.78 h 15.88 z"
       id="path30"
       inkscape:connector-curvature="0"
       style="fill:#4d4848" />
    <path
       class="cls-1"
       d="m 382,359.72 a 14.59,14.59 0 0 0 4.73,-0.7 l -2.18,5.08 h -23.34 a 11,11 0 0 0 2,-4.55 l 4.33,-17.37 c 0.62,-2.52 0.54,-3.51 0.3,-4.55 h 22.91 l -0.43,5.09 a 11.92,11.92 0 0 0 -4.42,-0.7 h -8.23 l -1.54,6.2 h 7.19 a 15,15 0 0 0 4.73,-0.7 l -1.45,5.79 a 11.68,11.68 0 0 0 -4.37,-0.71 H 375 l -1.77,7.12 z"
       id="path32"
       inkscape:connector-curvature="0"
       style="fill:#4d4848" />
  </g>
</svg>
