<?xml version="1.0" encoding="UTF-8"?>
<svg width="307px" height="230px" viewBox="0 0 307 230" version="1.1" xmlns="http://www.w3.org/2000/svg" xmlns:xlink="http://www.w3.org/1999/xlink" xmlns:sketch="http://www.bohemiancoding.com/sketch/ns">
    <!-- Generator: Sketch 3.3.2 (12043) - http://www.bohemiancoding.com/sketch -->
    <title>Nodes</title>
    <desc>Created with Sketch.</desc>
    <defs></defs>
    <g id="Page-1" stroke="none" stroke-width="1" fill="none" fill-rule="evenodd" sketch:type="MSPage">
        <g id="Nodes" sketch:type="MSLayerGroup">
            <path d="M90.19,137 C90.82,135.62 91.35,134.14 91.99,132.34 C92.736942,130.302668 93.3351772,128.213859 93.78,126.09 L100.24,98.15 C100.77,95.29 101.19,93.15 101.3,91.9 C101.488666,90.7804885 101.559053,89.6442374 101.51,88.51 L101.51,87.24 L116.12,87.24 L107.33,126 C106.7,128.76 106.28,130.87 106.06,132.36 C105.805658,133.862589 105.70181,135.386799 105.75,136.91 L90.19,137 Z" id="Shape" fill="#4D4848" sketch:type="MSShapeGroup"></path>
            <path d="M283.59,0.9 C274.201159,0.9 266.59,8.51115925 266.59,17.9 C266.582114,20.7337538 267.290734,23.5235131 268.65,26.01 C266.95,26.85 263.01,28.83 257.5,31.7 C255.492888,27.4955359 251.337163,24.7346388 246.683423,24.5139001 C242.029683,24.2931614 237.631291,26.648315 235.235228,30.6439253 C232.839166,34.6395356 232.833315,39.6287811 235.22,43.63 C232.38,45.19 229.44,46.84 226.41,48.55 C224.623672,45.4846612 221.337698,43.605166 217.789873,43.619502 C214.242048,43.633838 210.97137,45.5398273 209.209873,48.619502 C207.448376,51.6991768 207.463672,55.4846612 209.25,58.55 C206.13,60.41 202.97,62.32 199.82,64.27 C197.662315,62.4439599 194.640939,62.0362927 192.076457,63.2251822 C189.511975,64.4140717 187.870699,66.9833369 187.87,69.81 C187.875338,70.4380069 187.959325,71.0628717 188.12,71.67 C176.028701,79.3748011 164.435664,87.8349462 153.41,97 C141.92,71.32 124.99,43.13 101.41,20.18 L101.34,20.12 C98.58,17.4 96.34,18.6 99.47,21.98 L99.59,22.11 C119.59,43.64 135.31,74.79 146.02,103.2 C105.39,137.89 60.6,205.11 109.69,226.2 C116.84,229.28 120.1,223.4 117.02,221.59 C116.47,221.26 94.61,209.44 108.5,173.14 L143.5,173.14 C145.303492,173.042084 146.715677,171.551148 146.715677,169.745 C146.715677,167.938852 145.303492,166.447916 143.5,166.35 L111.41,166.35 C113.489979,161.949787 115.803268,157.663694 118.34,153.51 L143.5,153.51 C145.303492,153.412084 146.715677,151.921148 146.715677,150.115 C146.715677,148.308852 145.303492,146.817916 143.5,146.72 L122.66,146.72 C125.26,142.83 128.17,138.77 131.45,134.51 L143.5,134.51 C145.303492,134.412084 146.715677,132.921148 146.715677,131.115 C146.715677,129.308852 145.303492,127.817916 143.5,127.72 L136.83,127.72 C140.63,123.053333 144.843333,118.196667 149.47,113.15 L149.59,113.02 C158.81,139.74 163.27,162.52 162.29,170.11 C162.059546,172.829819 160.446498,175.239947 158.02,176.49 C156.3,177.3 155.59,179.67 158.29,180.49 C166.88,183.02 172.17,174.49 173.13,167.64 C174.09,160.79 169.39,135.45 156.97,105.3 C167.773763,94.757089 179.316438,84.9989499 191.51,76.1 C193.756663,77.3971115 196.524725,77.3968585 198.77115,76.0993364 C201.017576,74.8018142 202.400949,72.4042225 202.4,69.81 C202.401187,69.3326509 202.350897,68.8565655 202.25,68.39 C205.503333,66.13 208.726667,63.9366667 211.92,61.81 C215.238811,64.4991815 219.908196,64.7564691 223.502371,62.4481998 C227.096546,60.1399305 228.804929,55.7866809 227.74,51.65 C230.926667,49.65 234.01,47.77 236.99,46.01 C241.014069,50.2344198 247.40665,51.1558072 252.459905,48.2397372 C257.51316,45.3236671 259.914047,39.3278529 258.27,33.73 C263.67,30.73 267.61,28.6 269.54,27.5 C274.095098,34.1978277 282.74314,36.7516134 290.205998,33.6027144 C297.668857,30.4538155 301.87355,22.476911 300.253844,14.5405159 C298.634138,6.60412068 291.639943,0.912751192 283.54,0.94 L283.59,0.9 Z" id="Shape" fill="#F47D20" sketch:type="MSShapeGroup"></path>
            <path d="M53.75,137 L10.45,137 C6.11,137 3.15,136.05 1.55,134 C0.640010791,132.58526 0.199120618,130.919675 0.29,129.24 C0.316634273,127.416641 0.565128593,125.603304 1.03,123.84 L6.43,100.34 C7.59,95.58 9.28,92.19 11.61,90.17 C13.94,88.15 17.33,87.17 21.78,87.17 L53.78,87.17 C58.33,87.17 61.29,88.17 62.78,90.17 C63.8031916,91.5823974 64.2954011,93.310442 64.17,95.05 C64.152763,96.8385706 63.9006051,98.6171244 63.42,100.34 L59.93,115.91 L16.38,115.91 L14.05,126 C13.8724757,126.802462 13.7654019,127.618899 13.73,128.44 C13.73,128.97 13.73,129.39 13.95,129.6 C14.26,130.24 15.21,130.6 16.7,130.6 L48.45,130.6 C51.2254671,130.616548 53.9946834,130.334932 56.71,129.76 L53.75,137 Z M50.36,98.15 C50.6299964,97.3300212 50.7716679,96.4732461 50.78,95.61 C50.7732242,95.2470294 50.702123,94.8881376 50.57,94.55 C50.14,93.91 49.09,93.6 47.57,93.6 L25.16,93.6 C24.0195474,93.4877675 22.8807591,93.8290448 21.99,94.55 C21.0703605,95.5269188 20.5433917,96.8087349 20.51,98.15 L17.86,109.58 L47.71,109.58 L50.36,98.15 Z" id="Shape" fill="#4D4848" sketch:type="MSShapeGroup"></path>
            <path d="M64.54,137 C65.21,135.46 65.77,133.8 66.45,131.78 C67.2475846,129.493584 67.8857797,127.154649 68.36,124.78 L79.48,73.28 C80.15,70.07 80.6,67.7 80.82,66.28 C81.04,64.86 81.05,63.2 81.05,61.06 L96.55,61.06 L82.73,124.79 C82.0633333,127.876667 81.6133333,130.253333 81.38,131.92 C81.1097087,133.605822 80.9992183,135.313402 81.05,137.02 L64.54,137 Z" id="Shape" fill="#4D4848" sketch:type="MSShapeGroup"></path>
            <path d="M243.16,95.56 C241.57,95.45 239.98,95.34 238.16,95.34 L231.07,95.34 C229.948912,95.2700466 228.835694,95.5685436 227.9,96.19 C226.946165,97.0481785 226.3116,98.2044973 226.1,99.47 L220.19,126 C219.2989,129.173644 218.80183,132.444906 218.71,135.74 L218.71,137 L203.25,137 C203.88,135.41 204.52,133.92 204.94,132.45 C205.36,130.98 205.94,128.95 206.64,126.09 L213,98.1 C213.74,95.34 214.06,93.23 214.38,91.64 C214.554669,90.1634598 214.624844,88.6764274 214.59,87.19 L227.59,87.19 L227.06,92.27 C227.769226,90.7142173 228.906953,89.3926507 230.34,88.46 C232.056647,87.5262174 233.998555,87.0866055 235.95,87.19 L248.66,87.19 L251.72,92.69 C251.048438,93.2886065 250.444804,93.9593115 249.92,94.69 C249.18,95.64 248.66,96.06 248.34,96.06 C246.44,95.88 244.74,95.66 243.16,95.56 L243.16,95.56 Z" id="Shape" fill="#4D4848" sketch:type="MSShapeGroup"></path>
            <path d="M174.66,137 C175.29,135.62 175.82,134.14 176.45,132.34 C177.205268,130.304551 177.806952,128.215369 178.25,126.09 L184.71,98.15 C185.24,95.29 185.71,93.15 185.77,91.9 C185.958666,90.7804885 186.029053,89.6442374 185.98,88.51 L185.98,87.24 L200.59,87.24 L191.8,126 C191.17,128.76 190.74,130.87 190.54,132.36 C190.277465,133.861665 190.170233,135.38637 190.22,136.91 L174.66,137 Z" id="Shape" fill="#4D4848" sketch:type="MSShapeGroup"></path>
            <path d="M118.57,69.79 C118.569997,72.6909037 116.821999,75.3059763 114.141526,76.4151676 C111.461052,77.5243589 108.376324,76.909089 106.326508,74.8564094 C104.276691,72.8037298 103.665727,69.7181462 104.778658,67.0392236 C105.891589,64.360301 108.509099,62.6159541 111.41,62.62 C113.310684,62.6199981 115.133375,63.3757257 116.476423,64.7206497 C117.819472,66.0655738 118.572655,67.8893179 118.57,69.79 L118.57,69.79 Z" id="Shape" fill="#4D4848" sketch:type="MSShapeGroup"></path>
            <path d="M168.85,213.22 C167.674649,214.325287 166.87992,215.774706 166.58,217.36 L165,223.89 C164.19,227.16 164.22,227.7 164.78,229.1 L155.89,229.1 L156.17,226.66 L156,226.66 C155.17,228.19 154.57,229.1 151.71,229.1 L142.78,229.1 C138.48,229.1 136.6,227.03 138.02,221.33 L140.73,210.41 C142.15,204.7 145.07,202.63 149.37,202.63 L168.72,202.63 L168.24,207.72 C167.017951,207.2023 165.695967,206.963181 164.37,207.02 L153.68,207.02 C152.36,207.02 151.6,207.43 151.28,208.71 L147.72,223 C147.4,224.28 147.96,224.7 149.28,224.7 L152.67,224.7 C153.99,224.7 154.76,224.28 155.08,223 L156.43,217.58 L152.66,217.58 C152.023038,217.605022 151.400345,217.776092 150.84,218.08 L152.06,213.2 L168.85,213.22 Z" id="Shape" fill="#4D4848" sketch:type="MSShapeGroup"></path>
            <path d="M180.66,217.6 L178.93,224.55 C178.31,227.08 178.39,228.07 178.63,229.1 L166.88,229.1 C167.880212,227.752954 168.56383,226.197723 168.88,224.55 L173.2,207.18 C173.83,204.66 173.75,203.67 173.26,202.63 L195,202.63 C199.63,202.63 201.51,204.04 200.41,208.46 L199.2,213.34 C198.2,217.23 196.27,217.44 194.08,217.6 L195.83,225.05 C196.020344,226.449847 196.414521,227.814303 197,229.1 L185.7,229.1 L183.76,217.6 L180.66,217.6 Z M181.75,213.22 L187.46,213.22 C188.74,213.22 189.17,213.01 189.46,211.73 L190.26,208.51 C190.58,207.22 190.26,207.02 188.97,207.02 L183.27,207.02 L181.75,213.22 Z" id="Shape" fill="#4D4848" sketch:type="MSShapeGroup"></path>
            <path d="M219.83,224.72 C221.434433,224.748369 223.032556,224.511861 224.56,224.02 L222.38,229.1 L199.06,229.1 C200.056082,227.750558 200.739272,226.196301 201.06,224.55 L205.38,207.18 C206.01,204.66 205.92,203.67 205.68,202.63 L228.6,202.63 L228.16,207.72 C226.744072,207.209715 225.244313,206.972196 223.74,207.02 L215.51,207.02 L213.97,213.22 L221.16,213.22 C222.763953,213.241079 224.360904,213.004744 225.89,212.52 L224.45,218.31 C223.048095,217.798254 221.561778,217.557322 220.07,217.6 L212.88,217.6 L211.11,224.72 L219.83,224.72 Z" id="Shape" fill="#4D4848" sketch:type="MSShapeGroup"></path>
            <path d="M245.89,224.72 C247.49111,224.747633 249.085825,224.511129 250.61,224.02 L248.43,229.1 L225.11,229.1 C226.106082,227.750558 226.789272,226.196301 227.11,224.55 L231.43,207.18 C232.06,204.66 231.98,203.67 231.74,202.63 L254.65,202.63 L254.21,207.72 C252.794314,207.208772 251.294374,206.971225 249.79,207.02 L241.56,207.02 L240.02,213.22 L247.22,213.22 C248.820605,213.24001 250.414096,213.003687 251.94,212.52 L250.5,218.31 C249.098404,217.797071 247.611858,217.556101 246.12,217.6 L238.93,217.6 L237.16,224.72 L245.89,224.72 Z" id="Shape" fill="#4D4848" sketch:type="MSShapeGroup"></path>
            <path d="M280.26,207.72 C279.037951,207.2023 277.715967,206.963181 276.39,207.02 L269.15,207.02 C267.82,207.02 267.06,207.43 266.74,208.71 L263.18,223 C262.86,224.28 263.42,224.7 264.74,224.7 L270.45,224.7 C274.5,224.7 275.24,224.41 276.78,223.7 L274.57,229.07 L258.27,229.07 C253.97,229.07 252.09,227 253.51,221.3 L256.23,210.38 C257.65,204.67 260.56,202.6 264.86,202.6 L280.74,202.6 L280.26,207.72 Z" id="Shape" fill="#4D4848" sketch:type="MSShapeGroup"></path>
            <path d="M298,224.72 C299.604433,224.748369 301.202556,224.511861 302.73,224.02 L300.55,229.1 L277.21,229.1 C278.215063,227.755779 278.899191,226.199388 279.21,224.55 L283.54,207.18 C284.16,204.66 284.08,203.67 283.84,202.63 L306.75,202.63 L306.32,207.72 C304.904072,207.209715 303.404313,206.972196 301.9,207.02 L293.67,207.02 L292.13,213.22 L299.32,213.22 C300.923953,213.241079 302.520904,213.004744 304.05,212.52 L302.6,218.31 C301.201919,217.796898 299.71861,217.555903 298.23,217.6 L291,217.6 L289.23,224.72 L298,224.72 Z" id="Shape" fill="#4D4848" sketch:type="MSShapeGroup"></path>
        </g>
    </g>
</svg>