<?xml version="1.0" encoding="UTF-8"?>
<svg width="368px" height="230px" viewBox="0 0 368 230" version="1.1" xmlns="http://www.w3.org/2000/svg" xmlns:xlink="http://www.w3.org/1999/xlink" xmlns:sketch="http://www.bohemiancoding.com/sketch/ns">
    <!-- Generator: Sketch 3.3.2 (12043) - http://www.bohemiancoding.com/sketch -->
    <title>ELIXIR-HU</title>
    <desc>Created with Sketch.</desc>
    <defs></defs>
    <g id="Page-1" stroke="none" stroke-width="1" fill="none" fill-rule="evenodd" sketch:type="MSPage">
        <g id="ELIXIR-HU" sketch:type="MSLayerGroup">
            <path d="M90.56,137 C91.19,135.62 91.72,134.14 92.36,132.34 C93.1060829,130.30154 93.707573,128.213033 94.16,126.09 L100.62,98.15 C101.15,95.29 101.57,93.15 101.68,91.9 C101.868666,90.7804885 101.939053,89.6442374 101.89,88.51 L101.89,87.24 L116.5,87.24 L107.71,126 C107.07,128.76 106.65,130.87 106.44,132.36 C106.177465,133.861665 106.070233,135.38637 106.12,136.91 L90.56,137 Z" id="Shape" fill="#4D4848" sketch:type="MSShapeGroup"></path>
            <path d="M284,0.9 C277.998708,0.881004344 272.432039,4.02763371 269.353444,9.17914985 C266.274849,14.330666 266.140516,20.7237114 269,26 C267.31,26.84 263.37,28.82 257.85,31.69 C255.812757,27.5405502 251.672895,24.834146 247.054704,24.6326533 C242.436512,24.4311606 238.076669,26.766721 235.685772,30.7229701 C233.294875,34.6792193 233.254313,39.625069 235.58,43.62 C232.74,45.18 229.79,46.83 226.77,48.54 C224.008576,43.8013968 217.928603,42.1985763 213.19,44.96 C208.451397,47.7214237 206.848576,53.8013968 209.61,58.54 C206.483333,60.4 203.34,62.3066667 200.18,64.26 C198.022315,62.4339599 195.000939,62.0262927 192.436457,63.2151822 C189.871975,64.4040717 188.230699,66.9733369 188.23,69.8 C188.230427,70.4283468 188.314499,71.0538406 188.48,71.66 C176.393789,79.3712225 164.804269,87.834578 153.78,97 C142.3,71.32 125.36,43.13 101.78,20.18 L101.72,20.12 C98.96,17.4 96.72,18.6 99.84,21.98 L99.96,22.11 C119.96,43.64 135.68,74.79 146.39,103.2 C105.77,137.89 60.98,205.11 110.07,226.2 C117.22,229.28 120.47,223.4 117.4,221.59 C116.84,221.26 94.98,209.44 108.88,173.14 L143.88,173.14 C145.683492,173.042084 147.095677,171.551148 147.095677,169.745 C147.095677,167.938852 145.683492,166.447916 143.88,166.35 L111.79,166.35 C113.87036,161.951841 116.180206,157.665941 118.71,153.51 L143.87,153.51 C145.673492,153.412084 147.085677,151.921148 147.085677,150.115 C147.085677,148.308852 145.673492,146.817916 143.87,146.72 L123,146.72 C125.593333,142.833333 128.52,138.763333 131.78,134.51 L143.83,134.51 C145.633492,134.412084 147.045677,132.921148 147.045677,131.115 C147.045677,129.308852 145.633492,127.817916 143.83,127.72 L137.17,127.72 C140.97,123.08 145.17,118.23 149.8,113.15 L150,113 C159.23,139.72 163.68,162.5 162.71,170.09 C162.477502,172.811916 160.860362,175.222513 158.43,176.47 C156.71,177.28 156.01,179.65 158.7,180.47 C167.3,183 172.59,174.47 173.54,167.62 C174.49,160.77 169.8,135.43 157.39,105.28 C168.191604,94.7347133 179.734455,84.9764261 191.93,76.08 C194.176043,77.3719971 196.940419,77.368997 199.183652,76.0721279 C201.426885,74.7752588 202.808891,72.3811315 202.81,69.79 C202.809498,69.3132464 202.76261,68.8376726 202.67,68.37 C205.91,66.11 209.14,63.91 212.33,61.79 C215.653988,64.459059 220.311553,64.7060147 223.89915,62.4034252 C227.486748,60.1008357 229.202101,55.7636182 228.16,51.63 C231.34,49.63 234.43,47.77 237.4,45.99 C240.969261,49.728843 246.454199,50.9200017 251.252737,48.9983856 C256.051274,47.0767694 259.197963,42.4290005 259.2,37.26 C259.19483,36.0587874 259.023197,34.8640877 258.69,33.71 C264.09,30.71 268.03,28.58 269.95,27.48 C274.505098,34.1778277 283.15314,36.7316134 290.615998,33.5827144 C298.078857,30.4338155 302.28355,22.456911 300.663844,14.5205159 C299.044138,6.58412068 292.049943,0.892751192 283.95,0.92 L284,0.9 Z" id="Shape" fill="#F47D20" sketch:type="MSShapeGroup"></path>
            <g id="Group" transform="translate(0.000000, 61.000000)" fill="#4D4848" sketch:type="MSShapeGroup">
                <path d="M54.12,76 L10.82,76 C6.48,76 3.52,75.05 1.93,73 C1.01649754,71.5864283 0.572085146,69.9207566 0.66,68.24 C0.686634273,66.4166411 0.935128593,64.6033042 1.4,62.84 L6.8,39.34 C7.96,34.58 9.66,31.19 11.99,29.17 C14.32,27.15 17.71,26.17 22.15,26.17 L54.15,26.17 C58.7,26.17 61.67,27.17 63.15,29.17 C64.1431537,30.5763227 64.6200453,32.2825348 64.5,34 C64.4865992,35.7881706 64.2377939,37.5667918 63.76,39.29 L60.26,54.86 L16.75,54.86 L14.42,65 C14.2446127,65.8025482 14.1408716,66.6190912 14.11,67.44 C14.11,67.97 14.11,68.39 14.32,68.6 C14.63,69.24 15.59,69.6 17.07,69.6 L48.83,69.6 C51.6054671,69.6165476 54.3746834,69.3349324 57.09,68.76 L54.12,76 Z M50.74,37.15 C51.0050462,36.3288124 51.146592,35.4727971 51.16,34.61 C51.1483575,34.2475693 51.077418,33.889494 50.95,33.55 C50.52,32.91 49.47,32.6 47.95,32.6 L25.54,32.6 C24.3964211,32.4872588 23.25434,32.8284465 22.36,33.55 C21.4443436,34.5294817 20.9180256,35.8097146 20.88,37.15 L18.23,48.58 L48.09,48.58 L50.74,37.15 Z" id="Shape"></path>
                <path d="M64.92,76 C65.59,74.46 66.15,72.8 66.82,70.78 C67.6175846,68.4935836 68.2557797,66.1546486 68.73,63.78 L79.85,12.28 C80.53,9.07 80.97,6.7 81.2,5.28 C81.43,3.86 81.42,2.2 81.42,0.06 L96.92,0.06 L83.11,63.79 C82.44,66.88 81.98,69.26 81.76,70.92 C81.4816007,72.6049578 81.3677314,74.3129976 81.42,76.02 L64.92,76 Z" id="Shape"></path>
                <path d="M243.53,34.56 C241.94,34.45 240.36,34.34 238.53,34.34 L231.43,34.34 C230.30906,34.2715188 229.196303,34.5698923 228.26,35.19 C227.306165,36.0481785 226.6716,37.2044973 226.46,38.47 L220.56,65 C219.6689,68.173644 219.17183,71.4449064 219.08,74.74 L219.08,76 L203.62,76 C204.26,74.41 204.89,72.92 205.32,71.45 C205.75,69.98 206.27,67.95 207.01,65.09 L213.36,37.15 C214.1,34.39 214.42,32.28 214.74,30.69 C214.914669,29.2134598 214.984844,27.7264274 214.95,26.24 L227.95,26.24 L227.42,31.32 C228.134283,29.764418 229.275086,28.443305 230.71,27.51 C232.42259,26.5750553 234.361635,26.1353077 236.31,26.24 L249,26.24 L252.07,31.74 C251.395828,32.3359782 250.791916,33.0069915 250.27,33.74 C249.53,34.69 249,35.11 248.68,35.11 C246.82,34.88 245.12,34.66 243.53,34.56 L243.53,34.56 Z" id="Shape"></path>
                <path d="M175,76 C175.63,74.62 176.16,73.14 176.8,71.34 C177.546083,69.3015401 178.147573,67.2130328 178.6,65.09 L185.06,37.15 C185.59,34.29 186.01,32.15 186.06,30.9 C186.257558,29.7815026 186.331336,28.6446499 186.28,27.51 L186.28,26.24 L201,26.24 L192.18,65 C191.54,67.76 191.12,69.87 190.91,71.36 C190.647465,72.8616655 190.540233,74.3863705 190.59,75.91 L175,76 Z" id="Shape"></path>
                <path d="M119,8.79 C119,11.6899943 117.253086,14.3044365 114.57384,15.4142162 C111.894595,16.523996 108.81065,15.9105613 106.760044,13.8599556 C104.709439,11.80935 104.096004,8.72540516 105.205784,6.04615979 C106.315564,3.36691442 108.930006,1.62 111.83,1.62 C115.789882,1.62 119,4.83011834 119,8.79 L119,8.79 Z" id="Shape"></path>
                <path d="M158.47,152.22 L159.97,146.22 C160.6,143.7 160.52,142.71 160.28,141.67 L172,141.67 C171.004209,143.01961 170.321049,144.5738 170,146.22 L165.67,163.59 C165.04,166.12 165.13,167.11 165.37,168.14 L153.69,168.14 C154.686082,166.790558 155.369272,165.236301 155.69,163.59 L157.42,156.64 L149.89,156.64 L148.16,163.59 C147.54,166.12 147.62,167.11 147.86,168.14 L136.07,168.14 C137.070212,166.792954 137.75383,165.237723 138.07,163.59 L142.4,146.22 C143.02,143.7 142.94,142.71 142.7,141.67 L154.45,141.67 C153.449788,143.017046 152.76617,144.572277 152.45,146.22 L150.94,152.22 L158.47,152.22 Z" id="Shape"></path>
                <path d="M190.68,163.72 C193.49,163.72 193.77,163.43 194.36,161.07 L198,146.39 C198.74,143.39 198.75,142.87 198.19,141.63 L204.56,141.63 C203.38,142.87 203.13,143.41 202.38,146.39 L199,159.91 C197.5,165.91 195.31,168.1 189.56,168.1 L176.16,168.1 C170.99,168.1 169.5,165.46 170.87,159.91 L174.29,146.18 C174.92,143.66 174.84,142.67 174.6,141.63 L186.34,141.63 C185.347947,142.981771 184.665168,144.535092 184.34,146.18 L180.6,161.24 C180.16,162.97 180.72,163.72 182.5,163.72 L190.68,163.72 Z" id="Shape"></path>
                <path d="M211.17,146.18 L211.09,146.18 L206.81,163.35 C206.07,166.35 206.06,166.86 206.62,168.1 L200.25,168.1 C201.43,166.86 201.69,166.32 202.43,163.35 L206.65,146.35 C207.39,143.35 207.4,142.83 206.84,141.59 L221,141.59 L226.38,163.18 L226.5,163.18 L230.69,146.35 C231.43,143.35 231.44,142.83 230.88,141.59 L237.25,141.59 C236.07,142.83 235.82,143.37 235.08,146.35 L229.7,168.1 L216.63,168.1 L211.17,146.18 Z" id="Shape"></path>
                <path d="M266.49,152.22 C265.314649,153.325287 264.51992,154.774706 264.22,156.36 L262.59,162.89 C261.78,166.16 261.81,166.7 262.37,168.1 L253.48,168.1 L253.76,165.66 L253.67,165.66 C252.84,167.19 252.24,168.1 249.38,168.1 L240.45,168.1 C236.15,168.1 234.27,166.03 235.69,160.33 L238.4,149.41 C239.82,143.7 242.74,141.63 247.04,141.63 L266.39,141.63 L265.91,146.72 C264.67723,146.189564 263.340854,145.943479 262,146 L251.32,146 C250,146 249.24,146.41 248.92,147.69 L245.36,162 C245.04,163.28 245.6,163.7 246.92,163.7 L250.31,163.7 C251.63,163.7 252.4,163.28 252.72,162 L254.07,156.58 L250.3,156.58 C249.663038,156.605022 249.040345,156.776092 248.48,157.08 L249.7,152.2 L266.49,152.22 Z" id="Shape"></path>
                <path d="M273.4,161 L270.72,164.64 C270.363143,165.10795 270.101538,165.641352 269.95,166.21 C269.720826,166.831069 269.760684,167.519528 270.06,168.11 L262.57,168.11 C264.150041,166.671174 265.565384,165.061304 266.79,163.31 L281.45,143.13 L280.66,141.64 L292.61,141.64 L296.36,164.47 C296.578212,165.766419 297.057944,167.004878 297.77,168.11 L284.49,168.11 C285.24,167.11 285.36,166.95 285.49,166.38 C285.662111,165.727989 285.706258,165.048805 285.62,164.38 L285,161 L273.4,161 Z M284.4,156.61 L282.86,147.68 L276.58,156.61 L284.4,156.61 Z" id="Shape"></path>
                <path d="M312.21,156.6 L310.48,163.55 C309.85,166.08 309.93,167.07 310.17,168.1 L298.43,168.1 C299.426082,166.750558 300.109272,165.196301 300.43,163.55 L304.75,146.18 C305.38,143.66 305.29,142.67 304.81,141.63 L326.56,141.63 C331.19,141.63 333.08,143.04 331.98,147.46 L330.76,152.34 C329.76,156.23 327.84,156.44 325.65,156.6 L327.39,164.05 C327.586281,165.450972 327.987224,166.815529 328.58,168.1 L317.25,168.1 L315.31,156.6 L312.21,156.6 Z M313.3,152.22 L319,152.22 C320.28,152.22 320.7,152.01 321,150.73 L321.8,147.51 C322.12,146.22 321.8,146.02 320.52,146.02 L314.81,146.02 L313.3,152.22 Z" id="Shape"></path>
                <path d="M341.74,157.76 L336.59,144.86 C336.234526,143.680753 335.650048,142.583158 334.87,141.63 L348.48,141.63 C348.31965,141.888635 348.195178,142.167855 348.11,142.46 C348.036473,143.496882 348.247387,144.534166 348.72,145.46 L351.53,152.61 L357.9,145.29 C358.836648,144.243917 359.493666,142.97804 359.81,141.61 L367.34,141.61 C365.617207,142.616024 364.097754,143.93537 362.86,145.5 L351.69,158.3 L350.39,163.55 C349.76,166.08 349.84,167.07 350.08,168.1 L338.34,168.1 C339.339616,166.752608 340.023172,165.197518 340.34,163.55 L341.74,157.76 Z" id="Shape"></path>
            </g>
        </g>
    </g>
</svg>