<?xml version="1.0" encoding="UTF-8"?>
<svg width="336px" height="230px" viewBox="0 0 336 230" version="1.1" xmlns="http://www.w3.org/2000/svg" xmlns:xlink="http://www.w3.org/1999/xlink" xmlns:sketch="http://www.bohemiancoding.com/sketch/ns">
    <!-- Generator: Sketch 3.3.2 (12043) - http://www.bohemiancoding.com/sketch -->
    <title>Nodes</title>
    <desc>Created with Sketch.</desc>
    <defs></defs>
    <g id="Page-1" stroke="none" stroke-width="1" fill="none" fill-rule="evenodd" sketch:type="MSPage">
        <g id="Nodes" sketch:type="MSLayerGroup">
            <path d="M90.42,137 C91.05,135.62 91.58,134.14 92.22,132.34 C92.9680937,130.273205 93.5630346,128.154146 94,126 L100.46,98.06 C100.99,95.2 101.46,93.06 101.52,91.81 C101.708666,90.6904885 101.779053,89.5542374 101.73,88.42 L101.73,87.15 L116.34,87.15 L107.57,126 C106.93,128.76 106.57,130.87 106.3,132.36 C106.037931,133.89191 105.93738,135.447097 106,137 L90.42,137 Z" id="Shape" fill="#4D4848" sketch:type="MSShapeGroup"></path>
            <path d="M283.82,0.9 C277.829403,0.902197621 272.282157,4.05725739 269.218136,9.20497788 C266.154114,14.3526984 266.025656,20.7331246 268.88,26 C267.19,26.84 263.25,28.82 257.73,31.69 C255.692757,27.5405502 251.552895,24.834146 246.934704,24.6326533 C242.316512,24.4311606 237.956669,26.766721 235.565772,30.7229701 C233.174875,34.6792193 233.134313,39.625069 235.46,43.62 C232.62,45.18 229.67,46.83 226.65,48.54 C223.888576,43.8013968 217.808603,42.1985763 213.07,44.96 C208.331397,47.7214237 206.728576,53.8013968 209.49,58.54 C206.363333,60.4 203.22,62.3066667 200.06,64.26 C197.902315,62.4339599 194.880939,62.0262927 192.316457,63.2151822 C189.751975,64.4040717 188.110699,66.9733369 188.11,69.8 C188.110427,70.4283468 188.194499,71.0538406 188.36,71.66 C176.266937,79.370523 164.67072,87.8338912 153.64,97 C142.16,71.32 125.22,43.13 101.64,20.18 L101.58,20.12 C98.82,17.4 96.58,18.6 99.71,21.98 L99.83,22.11 C119.83,43.64 135.55,74.79 146.26,103.2 C105.63,137.89 60.84,205.11 109.93,226.2 C117.08,229.28 120.33,223.4 117.26,221.59 C116.71,221.26 94.84,209.45 108.74,173.14 L143.74,173.14 C144.996883,173.208239 146.188623,172.576494 146.837594,171.497955 C147.486566,170.419416 147.486566,169.070584 146.837594,167.992045 C146.188623,166.913506 144.996883,166.281761 143.74,166.35 L111.65,166.35 C113.73036,161.951841 116.040206,157.665941 118.57,153.51 L143.73,153.51 C145.533492,153.412084 146.945677,151.921148 146.945677,150.115 C146.945677,148.308852 145.533492,146.817916 143.73,146.72 L122.9,146.72 C125.5,142.83 128.41,138.77 131.69,134.51 L143.69,134.51 C145.493492,134.412084 146.905677,132.921148 146.905677,131.115 C146.905677,129.308852 145.493492,127.817916 143.69,127.72 L137.03,127.72 C140.83,123.08 145.03,118.23 149.66,113.15 L149.78,113.02 C159.01,139.74 163.46,162.52 162.49,170.11 C162.261232,172.833225 160.642988,175.245467 158.21,176.49 C156.49,177.3 155.79,179.67 158.48,180.49 C167.08,183.02 172.37,174.49 173.32,167.64 C174.27,160.79 169.58,135.45 157.17,105.3 C167.971604,94.7547133 179.514455,84.9964261 191.71,76.1 C193.956043,77.3919971 196.720419,77.388997 198.963652,76.0921279 C201.206885,74.7952588 202.588891,72.4011315 202.59,69.81 C202.589498,69.3332464 202.54261,68.8576726 202.45,68.39 C205.69,66.13 208.92,63.93 212.11,61.81 C215.435725,64.5442958 220.145524,64.8211777 223.768723,62.4953985 C227.391923,60.1696193 229.10124,55.7722219 228,51.61 C231.18,49.61 234.27,47.75 237.24,45.97 C241.268128,50.1851682 247.655479,51.101254 252.705956,48.1881561 C257.756433,45.2750581 260.16173,39.2874024 258.53,33.69 C263.93,30.69 267.87,28.56 269.79,27.46 C274.341543,34.1526968 282.980455,36.7084379 290.440653,33.5693021 C297.900852,30.4301662 302.113448,22.4667095 300.510541,14.5332725 C298.907634,6.59983559 291.933746,0.896546683 283.84,0.9 L283.82,0.9 Z" id="Shape" fill="#F47D20" sketch:type="MSShapeGroup"></path>
            <path d="M54,137 L10.69,137 C6.34,137 3.39,136.05 1.79,134 C0.876497541,132.586428 0.432085146,130.920757 0.52,129.24 C0.546634273,127.416641 0.795128593,125.603304 1.26,123.84 L6.66,100.34 C7.83,95.58 9.52,92.19 11.85,90.17 C14.18,88.15 17.57,87.17 22.01,87.17 L54.01,87.17 C58.57,87.17 61.53,88.17 63.01,90.17 C64.0249907,91.5859729 64.5131392,93.3121789 64.39,95.05 C64.3765992,96.8381706 64.1277939,98.6167918 63.65,100.34 L60.15,115.91 L16.61,115.91 L14.28,126 C14.1046127,126.802548 14.0008716,127.619091 13.97,128.44 C13.97,128.97 13.97,129.39 14.18,129.6 C14.49,130.24 15.45,130.6 16.93,130.6 L48.69,130.6 C51.4654671,130.616548 54.2346834,130.334932 56.95,129.76 L54,137 Z M50.6,98.1 C50.8650462,97.2788124 51.006592,96.4227971 51.02,95.56 C51.0083575,95.1975693 50.937418,94.839494 50.81,94.5 C50.38,93.86 49.33,93.55 47.81,93.55 L25.4,93.55 C24.2564211,93.4372588 23.11434,93.7784465 22.22,94.5 C21.3043436,95.4794817 20.7780256,96.7597146 20.74,98.1 L18.1,109.53 L48,109.53 L50.6,98.1 Z" id="Shape" fill="#4D4848" sketch:type="MSShapeGroup"></path>
            <path d="M64.78,137 C65.45,135.46 66.01,133.8 66.69,131.78 C67.4804884,129.49219 68.1152715,127.153516 68.59,124.78 L79.71,73.28 C80.39,70.07 80.84,67.7 81.06,66.28 C81.28,64.86 81.29,63.2 81.29,61.06 L96.78,61.06 L83,124.72 C82.3333333,127.806667 81.8833333,130.183333 81.65,131.85 C81.3797087,133.535822 81.2692183,135.243402 81.32,136.95 L64.78,137 Z" id="Shape" fill="#4D4848" sketch:type="MSShapeGroup"></path>
            <path d="M243.39,95.56 C241.8,95.45 240.22,95.34 238.39,95.34 L231.29,95.34 C230.16906,95.2715188 229.056303,95.5698923 228.12,96.19 C227.16928,97.050643 226.535352,98.2058016 226.32,99.47 L220.42,126 C219.533901,129.17472 219.036924,132.445365 218.94,135.74 L218.94,137 L203.49,137 C204.12,135.41 204.75,133.92 205.18,132.45 C205.61,130.98 206.13,128.95 206.87,126.09 L213.22,98.15 C213.96,95.39 214.28,93.28 214.6,91.69 C214.782983,90.2141226 214.856517,88.7267291 214.82,87.24 L227.82,87.24 L227.3,92.32 C228.009226,90.7642173 229.146953,89.4426507 230.58,88.51 C232.29259,87.5750553 234.231635,87.1353077 236.18,87.24 L248.9,87.24 L251.97,92.74 C251.295828,93.3359782 250.691916,94.0069915 250.17,94.74 C249.43,95.69 248.9,96.11 248.58,96.11 C246.68,95.88 245,95.66 243.39,95.56 L243.39,95.56 Z" id="Shape" fill="#4D4848" sketch:type="MSShapeGroup"></path>
            <path d="M174.89,137 C175.52,135.62 176.05,134.14 176.69,132.34 C177.440669,130.303041 178.042255,128.214202 178.49,126.09 L185,98.1 C185.53,95.24 185.95,93.1 186.05,91.85 C186.247558,90.7315026 186.321336,89.5946499 186.27,88.46 L186.27,87.19 L200.87,87.19 L192,126 C191.36,128.76 190.94,130.87 190.73,132.36 C190.467465,133.861665 190.360233,135.38637 190.41,136.91 L174.89,137 Z" id="Shape" fill="#4D4848" sketch:type="MSShapeGroup"></path>
            <path d="M118.81,69.79 C118.81,72.6899943 117.063086,75.3044365 114.38384,76.4142162 C111.704595,77.523996 108.62065,76.9105613 106.570044,74.8599556 C104.519439,72.80935 103.906004,69.7254052 105.015784,67.0461598 C106.125564,64.3669144 108.740006,62.62 111.64,62.62 C115.599882,62.62 118.81,65.8301183 118.81,69.79 L118.81,69.79 Z" id="Shape" fill="#4D4848" sketch:type="MSShapeGroup"></path>
            <path d="M136.68,229.1 C137.676082,227.750558 138.359272,226.196301 138.68,224.55 L143,207.18 C143.63,204.66 143.55,203.67 143.31,202.63 L155,202.63 C154.007947,203.981771 153.325168,205.535092 153,207.18 L148.68,224.55 C148.05,227.08 148.14,228.07 148.37,229.1 L136.68,229.1 Z" id="Shape" fill="#4D4848" sketch:type="MSShapeGroup"></path>
            <path d="M165.8,217.6 L164.07,224.55 C163.44,227.08 163.53,228.07 163.77,229.1 L152,229.1 C152.996082,227.750558 153.679272,226.196301 154,224.55 L158.32,207.18 C158.95,204.66 158.87,203.67 158.38,202.63 L180.13,202.63 C184.77,202.63 186.65,204.04 185.55,208.46 L184.33,213.34 C183.33,217.23 181.41,217.44 179.22,217.6 L180.97,225.05 C181.163525,226.450363 181.561076,227.814839 182.15,229.1 L170.84,229.1 L168.9,217.6 L165.8,217.6 Z M166.89,213.22 L172.6,213.22 C173.88,213.22 174.3,213.01 174.6,211.73 L175.41,208.51 C175.73,207.22 175.41,207.02 174.12,207.02 L168.42,207.02 L166.89,213.22 Z" id="Shape" fill="#4D4848" sketch:type="MSShapeGroup"></path>
            <path d="M205,224.72 C206.604433,224.748369 208.202556,224.511861 209.73,224.02 L207.55,229.1 L184.19,229.1 C185.195063,227.755779 185.879191,226.199388 186.19,224.55 L190.52,207.18 C191.14,204.66 191.06,203.67 190.82,202.63 L213.73,202.63 L213.3,207.72 C211.884072,207.209715 210.384313,206.972196 208.88,207.02 L200.65,207.02 L199.11,213.22 L206.3,213.22 C207.903953,213.241079 209.500904,213.004744 211.03,212.52 L209.58,218.31 C208.181919,217.796898 206.69861,217.555903 205.21,217.6 L198,217.6 L196.23,224.72 L205,224.72 Z" id="Shape" fill="#4D4848" sketch:type="MSShapeGroup"></path>
            <path d="M231.11,224.72 C232.674583,224.757691 234.229197,224.461087 235.67,223.85 L233.49,229.1 L210.66,229.1 C211.656082,227.750558 212.339272,226.196301 212.66,224.55 L216.98,207.18 C217.61,204.66 217.53,203.67 217.29,202.63 L229,202.63 C228.007947,203.981771 227.325168,205.535092 227,207.18 L222.64,224.72 L231.11,224.72 Z" id="Shape" fill="#4D4848" sketch:type="MSShapeGroup"></path>
            <path d="M244.19,222 L241.51,225.64 C241.153143,226.10795 240.891538,226.641352 240.74,227.21 C240.510826,227.831069 240.550684,228.519528 240.85,229.11 L233.36,229.11 C234.940041,227.671174 236.355384,226.061304 237.58,224.31 L252.24,204.13 L251.45,202.64 L263.4,202.64 L267.15,225.47 C267.368212,226.766419 267.847944,228.004878 268.56,229.11 L255.28,229.11 C256.03,228.11 256.15,227.95 256.28,227.38 C256.452111,226.727989 256.496258,226.048805 256.41,225.38 L255.8,221.99 L244.19,222 Z M255.19,217.61 L253.65,208.68 L247.37,217.61 L255.19,217.61 Z" id="Shape" fill="#4D4848" sketch:type="MSShapeGroup"></path>
            <path d="M280,207.18 L279.91,207.18 L275.64,224.35 C274.9,227.35 274.89,227.86 275.45,229.1 L269.08,229.1 C270.26,227.86 270.52,227.32 271.26,224.35 L275.48,207.35 C276.22,204.35 276.23,203.83 275.67,202.59 L289.86,202.59 L295.23,224.18 L295.36,224.18 L299.55,207.35 C300.29,204.35 300.3,203.83 299.74,202.59 L306.11,202.59 C304.93,203.83 304.67,204.37 303.93,207.35 L298.53,229.06 L285.43,229.06 L280,207.18 Z" id="Shape" fill="#4D4848" sketch:type="MSShapeGroup"></path>
            <path d="M308.42,207.18 C309.05,204.66 308.96,203.67 308.72,202.63 L329.28,202.63 C334.9,202.63 336.35,204.78 335.01,210.16 L332.17,221.57 C330.83,226.95 328.31,229.1 322.69,229.1 L302.13,229.1 C303.135063,227.755779 303.819191,226.199388 304.13,224.55 L308.42,207.18 Z M314.14,224.72 L319.4,224.72 C321.05,224.72 321.4,224.35 321.83,222.57 L325.17,209.17 C325.61,207.39 325.46,207.02 323.8,207.02 L318.55,207.02 L314.14,224.72 Z" id="Shape" fill="#4D4848" sketch:type="MSShapeGroup"></path>
        </g>
    </g>
</svg>