<?xml version="1.0" encoding="UTF-8" standalone="no"?>
<svg
   xmlns:dc="http://purl.org/dc/elements/1.1/"
   xmlns:cc="http://creativecommons.org/ns#"
   xmlns:rdf="http://www.w3.org/1999/02/22-rdf-syntax-ns#"
   xmlns:svg="http://www.w3.org/2000/svg"
   xmlns="http://www.w3.org/2000/svg"
   xmlns:sodipodi="http://sodipodi.sourceforge.net/DTD/sodipodi-0.dtd"
   xmlns:inkscape="http://www.inkscape.org/namespaces/inkscape"
   width="500"
   height="300"
   viewBox="0 100 500 300"
   version="1.1"
   id="svg4907"
   sodipodi:docname="IE.svg"
   inkscape:version="0.92.3 (2405546, 2018-03-11)">
  <metadata
     id="metadata4911">
    <rdf:RDF>
      <cc:Work
         rdf:about="">
        <dc:format>image/svg+xml</dc:format>
        <dc:type
           rdf:resource="http://purl.org/dc/dcmitype/StillImage" />
      </cc:Work>
    </rdf:RDF>
  </metadata>
  <sodipodi:namedview
     pagecolor="#ffffff"
     bordercolor="#666666"
     borderopacity="1"
     objecttolerance="10"
     gridtolerance="10"
     guidetolerance="10"
     inkscape:pageopacity="0"
     inkscape:pageshadow="2"
     inkscape:window-width="2560"
     inkscape:window-height="1247"
     id="namedview4909"
     showgrid="false"
     inkscape:zoom="11.776"
     inkscape:cx="255.12739"
     inkscape:cy="257.65028"
     inkscape:window-x="0"
     inkscape:window-y="0"
     inkscape:window-maximized="1"
     inkscape:current-layer="svg4907" />
  <defs
     id="defs4876">
    <style
       id="style4874">.cls-1{fill:#4d4848;}.cls-2{fill:#f47d20;}</style>
  </defs>
  <g
     id="Nodes"
     transform="translate(-72.509078,-25.915083)">
    <path
       class="cls-1"
       d="m 172.42,272 c 0.63,-1.38 1.16,-2.86 1.8,-4.66 A 44.79,44.79 0 0 0 176,261 l 6.46,-27.94 c 0.53,-2.86 1,-5 1.06,-6.25 a 16.19,16.19 0 0 0 0.21,-3.39 v -1.27 h 14.61 L 189.57,261 c -0.64,2.76 -1,4.87 -1.27,6.36 A 22.21,22.21 0 0 0 188,272 Z"
       id="path4878"
       inkscape:connector-curvature="0"
       style="fill:#4d4848" />
    <path
       class="cls-2"
       d="M 365.82,135.9 A 17,17 0 0 0 350.88,161 c -1.69,0.84 -5.63,2.82 -11.15,5.69 a 12.64,12.64 0 1 0 -22.27,11.93 c -2.84,1.56 -5.79,3.21 -8.81,4.92 a 9.930579,9.930579 0 0 0 -17.16,10 q -4.69,2.79 -9.43,5.72 a 7.26,7.26 0 0 0 -11.95,5.54 7.08,7.08 0 0 0 0.25,1.86 342.1,342.1 0 0 0 -34.72,25.34 c -11.48,-25.68 -28.42,-53.87 -52,-76.82 l -0.06,-0.06 c -2.76,-2.72 -5,-1.52 -1.87,1.86 l 0.12,0.13 c 20,21.53 35.72,52.68 46.43,81.09 -40.63,34.69 -85.42,101.91 -36.33,123 7.15,3.08 10.4,-2.8 7.33,-4.61 -0.55,-0.33 -22.42,-12.14 -8.52,-48.45 h 35 a 3.4,3.4 0 1 0 0,-6.79 h -32.09 a 139,139 0 0 1 6.92,-12.84 h 25.16 a 3.4,3.4 0 0 0 0,-6.79 H 204.9 c 2.6,-3.89 5.51,-7.95 8.79,-12.21 h 12 a 3.4,3.4 0 0 0 0,-6.79 h -6.66 c 3.8,-4.64 8,-9.49 12.63,-14.57 l 0.12,-0.13 c 9.23,26.72 13.68,49.5 12.71,57.09 a 7.91,7.91 0 0 1 -4.28,6.38 c -1.72,0.81 -2.42,3.18 0.27,4 8.6,2.53 13.89,-6 14.84,-12.85 0.95,-6.85 -3.74,-32.19 -16.15,-62.34 a 316.22,316.22 0 0 1 34.54,-29.2 7.26,7.26 0 0 0 10.88,-6.29 7.35,7.35 0 0 0 -0.14,-1.42 c 3.24,-2.26 6.47,-4.46 9.66,-6.58 A 9.92,9.92 0 0 0 310,186.61 c 3.18,-2 6.27,-3.86 9.24,-5.64 a 12.65,12.65 0 0 0 21.29,-12.28 c 5.4,-3 9.34,-5.13 11.26,-6.23 a 17,17 0 1 0 14.05,-26.56 z"
       id="path4880"
       inkscape:connector-curvature="0"
       style="fill:#f47d20" />
    <path
       class="cls-1"
       d="M 136,272 H 92.69 c -4.35,0 -7.3,-0.95 -8.9,-3 a 8,8 0 0 1 -1.27,-4.76 22.47,22.47 0 0 1 0.74,-5.4 l 5.4,-23.5 c 1.17,-4.76 2.86,-8.15 5.19,-10.17 2.33,-2.02 5.72,-3 10.16,-3 h 32 c 4.56,0 7.52,1 9,3 a 7.47,7.47 0 0 1 1.38,4.88 20.37,20.37 0 0 1 -0.74,5.29 l -3.5,15.57 H 98.61 L 96.28,261 a 13.87,13.87 0 0 0 -0.31,2.44 c 0,0.53 0,0.95 0.21,1.16 0.31,0.64 1.27,1 2.75,1 h 31.76 a 38.76,38.76 0 0 0 8.26,-0.84 z m -3.4,-38.9 a 8.71,8.71 0 0 0 0.42,-2.54 3.32,3.32 0 0 0 -0.21,-1.06 c -0.43,-0.64 -1.48,-0.95 -3,-0.95 H 107.4 a 4.38,4.38 0 0 0 -3.18,0.95 5.5,5.5 0 0 0 -1.48,3.6 l -2.64,11.43 H 130 Z"
       id="path4882"
       inkscape:connector-curvature="0"
       style="fill:#4d4848" />
    <path
       class="cls-1"
       d="m 146.78,272 c 0.67,-1.54 1.23,-3.2 1.91,-5.22 a 53.66,53.66 0 0 0 1.9,-7 l 11.12,-51.5 c 0.68,-3.21 1.13,-5.58 1.35,-7 0.22,-1.42 0.23,-3.08 0.23,-5.22 h 15.49 L 165,259.72 q -1,4.63 -1.35,7.13 a 27.12,27.12 0 0 0 -0.33,5.1 z"
       id="path4884"
       inkscape:connector-curvature="0"
       style="fill:#4d4848" />
    <path
       class="cls-1"
       d="m 325.39,230.56 c -1.59,-0.11 -3.17,-0.22 -5,-0.22 h -7.1 a 5.17,5.17 0 0 0 -3.17,0.85 5.72,5.72 0 0 0 -1.8,3.28 l -5.9,26.53 a 40.68,40.68 0 0 0 -1.48,9.74 V 272 h -15.45 c 0.63,-1.59 1.26,-3.08 1.69,-4.55 0.43,-1.47 0.95,-3.5 1.69,-6.36 l 6.35,-27.94 c 0.74,-2.76 1.06,-4.87 1.38,-6.46 a 30.15,30.15 0 0 0 0.22,-4.45 h 13 l -0.52,5.08 a 9,9 0 0 1 3.28,-3.81 10.51,10.51 0 0 1 5.6,-1.27 h 12.72 l 3.07,5.5 a 11.82,11.82 0 0 0 -1.8,2 c -0.74,0.95 -1.27,1.37 -1.59,1.37 -1.9,-0.23 -3.58,-0.45 -5.19,-0.55 z"
       id="path4886"
       inkscape:connector-curvature="0"
       style="fill:#4d4848" />
    <path
       class="cls-1"
       d="m 256.89,272 c 0.63,-1.38 1.16,-2.86 1.8,-4.66 a 44.79,44.79 0 0 0 1.8,-6.25 L 267,233.1 c 0.53,-2.86 0.95,-5 1.05,-6.25 a 15.47,15.47 0 0 0 0.22,-3.39 v -1.27 h 14.6 L 274,261 c -0.64,2.76 -1.06,4.87 -1.27,6.36 a 22.21,22.21 0 0 0 -0.32,4.55 z"
       id="path4888"
       inkscape:connector-curvature="0"
       style="fill:#4d4848" />
    <path
       class="cls-1"
       d="m 200.81,204.79 a 7.17,7.17 0 1 1 -7.17,-7.17 7.17,7.17 0 0 1 7.17,7.17 z"
       id="path4890"
       inkscape:connector-curvature="0"
       style="fill:#4d4848" />
    <path
       class="cls-1"
       d="m 218.68,364.1 a 11.3,11.3 0 0 0 2,-4.55 L 225,342.18 c 0.63,-2.52 0.55,-3.51 0.31,-4.55 H 237 a 11.44,11.44 0 0 0 -2,4.55 l -4.32,17.37 c -0.63,2.53 -0.54,3.52 -0.31,4.55 z"
       id="path4892"
       inkscape:connector-curvature="0"
       style="fill:#4d4848" />
    <path
       class="cls-1"
       d="m 247.8,352.6 -1.73,6.95 c -0.63,2.53 -0.54,3.52 -0.3,4.55 H 234 a 11.3,11.3 0 0 0 2,-4.55 l 4.32,-17.37 c 0.63,-2.52 0.55,-3.51 0.06,-4.55 h 21.75 c 4.64,0 6.52,1.41 5.42,5.83 l -1.22,4.88 c -1,3.89 -2.92,4.1 -5.11,4.26 l 1.75,7.45 a 14.48,14.48 0 0 0 1.18,4.05 h -11.31 l -1.94,-11.5 z m 1.09,-4.38 h 5.71 c 1.28,0 1.7,-0.21 2,-1.49 l 0.81,-3.22 c 0.32,-1.29 0,-1.49 -1.29,-1.49 h -5.7 z"
       id="path4894"
       inkscape:connector-curvature="0"
       style="fill:#4d4848" />
    <path
       class="cls-1"
       d="m 287,359.72 a 14.59,14.59 0 0 0 4.73,-0.7 l -2.18,5.08 h -23.36 a 11,11 0 0 0 2,-4.55 l 4.33,-17.37 c 0.62,-2.52 0.54,-3.51 0.3,-4.55 h 22.91 l -0.43,5.09 a 11.92,11.92 0 0 0 -4.42,-0.7 h -8.23 l -1.54,6.2 h 7.19 a 15,15 0 0 0 4.73,-0.7 l -1.45,5.79 a 11.68,11.68 0 0 0 -4.37,-0.71 H 280 l -1.77,7.12 z"
       id="path4896"
       inkscape:connector-curvature="0"
       style="fill:#4d4848" />
    <path
       class="cls-1"
       d="m 313.11,359.72 a 11,11 0 0 0 4.56,-0.87 l -2.18,5.25 h -22.83 a 11.3,11.3 0 0 0 2,-4.55 l 4.32,-17.37 c 0.63,-2.52 0.55,-3.51 0.31,-4.55 H 311 a 11.44,11.44 0 0 0 -2,4.55 l -4.36,17.54 z"
       id="path4898"
       inkscape:connector-curvature="0"
       style="fill:#4d4848" />
    <path
       class="cls-1"
       d="m 326.19,357 -2.68,3.64 a 4.5,4.5 0 0 0 -0.77,1.57 2.38,2.38 0 0 0 0.11,1.9 h -7.49 a 28.86,28.86 0 0 0 4.22,-4.8 l 14.66,-20.18 -0.79,-1.49 h 11.95 l 3.75,22.83 a 9.69,9.69 0 0 0 1.41,3.64 h -13.28 c 0.75,-1 0.87,-1.16 1,-1.73 a 5.22,5.22 0 0 0 0.13,-2 l -0.61,-3.39 z m 11,-4.39 -1.54,-8.93 -6.28,8.93 z"
       id="path4900"
       inkscape:connector-curvature="0"
       style="fill:#4d4848" />
    <path
       class="cls-1"
       d="m 362,342.18 h -0.09 l -4.27,17.17 c -0.74,3 -0.75,3.51 -0.19,4.75 h -6.37 c 1.18,-1.24 1.44,-1.78 2.18,-4.75 l 4.22,-17 c 0.74,-3 0.75,-3.52 0.19,-4.76 h 14.19 l 5.37,21.59 h 0.13 l 4.19,-16.83 c 0.74,-3 0.75,-3.52 0.19,-4.76 h 6.37 c -1.18,1.24 -1.44,1.78 -2.18,4.76 l -5.4,21.71 h -13.1 z"
       id="path4902"
       inkscape:connector-curvature="0"
       style="fill:#4d4848" />
    <path
       class="cls-1"
       d="m 390.42,342.18 c 0.63,-2.52 0.54,-3.51 0.3,-4.55 h 20.56 c 5.62,0 7.07,2.15 5.73,7.53 l -2.84,11.41 c -1.34,5.38 -3.86,7.53 -9.48,7.53 h -20.56 a 11,11 0 0 0 2,-4.55 z m 5.72,17.54 h 5.26 c 1.65,0 2,-0.37 2.43,-2.15 l 3.34,-13.4 c 0.44,-1.78 0.29,-2.15 -1.37,-2.15 h -5.25 z"
       id="path4904"
       inkscape:connector-curvature="0"
       style="fill:#4d4848" />
  </g>
</svg>
