<?xml version="1.0" encoding="UTF-8" standalone="no"?>
<svg
   xmlns:dc="http://purl.org/dc/elements/1.1/"
   xmlns:cc="http://creativecommons.org/ns#"
   xmlns:rdf="http://www.w3.org/1999/02/22-rdf-syntax-ns#"
   xmlns:svg="http://www.w3.org/2000/svg"
   xmlns="http://www.w3.org/2000/svg"
   xmlns:sodipodi="http://sodipodi.sourceforge.net/DTD/sodipodi-0.dtd"
   xmlns:inkscape="http://www.inkscape.org/namespaces/inkscape"
   width="500"
   height="300"
   viewBox="0 100 500 300"
   version="1.1"
   id="svg4944"
   sodipodi:docname="IL.svg"
   inkscape:version="0.92.3 (2405546, 2018-03-11)">
  <metadata
     id="metadata4948">
    <rdf:RDF>
      <cc:Work
         rdf:about="">
        <dc:format>image/svg+xml</dc:format>
        <dc:type
           rdf:resource="http://purl.org/dc/dcmitype/StillImage" />
      </cc:Work>
    </rdf:RDF>
  </metadata>
  <sodipodi:namedview
     pagecolor="#ffffff"
     bordercolor="#666666"
     borderopacity="1"
     objecttolerance="10"
     gridtolerance="10"
     guidetolerance="10"
     inkscape:pageopacity="0"
     inkscape:pageshadow="2"
     inkscape:window-width="2560"
     inkscape:window-height="1247"
     id="namedview4946"
     showgrid="false"
     inkscape:zoom="1.0408612"
     inkscape:cx="522.8564"
     inkscape:cy="24.700403"
     inkscape:window-x="0"
     inkscape:window-y="0"
     inkscape:window-maximized="1"
     inkscape:current-layer="svg4944" />
  <defs
     id="defs4915">
    <style
       id="style4913">.cls-1{fill:#4d4848;}.cls-2{fill:#f47d20;}</style>
  </defs>
  <g
     id="Nodes"
     transform="translate(-89.729078,-25.879907)">
    <path
       class="cls-1"
       d="m 189.75,272 c 0.63,-1.38 1.16,-2.86 1.8,-4.66 a 46.2,46.2 0 0 0 1.8,-6.25 l 6.46,-27.94 c 0.53,-2.86 0.95,-5 1.06,-6.25 a 16.19,16.19 0 0 0 0.21,-3.39 v -1.27 h 14.61 L 206.9,261 c -0.64,2.76 -1.06,4.87 -1.27,6.36 a 22.21,22.21 0 0 0 -0.32,4.55 z"
       id="path4917"
       inkscape:connector-curvature="0"
       style="fill:#4d4848" />
    <path
       class="cls-2"
       d="M 383.15,135.9 A 17,17 0 0 0 368.21,161 c -1.69,0.84 -5.63,2.82 -11.15,5.69 a 12.65,12.65 0 1 0 -22.28,11.93 c -2.83,1.56 -5.78,3.21 -8.8,4.92 a 9.930579,9.930579 0 0 0 -17.16,10 q -4.69,2.79 -9.44,5.72 a 7.25,7.25 0 0 0 -11.94,5.54 7.08,7.08 0 0 0 0.25,1.86 A 342.1,342.1 0 0 0 253,232 c -11.48,-25.68 -28.42,-53.87 -52,-76.82 l -0.06,-0.06 c -2.76,-2.72 -5,-1.52 -1.88,1.86 l 0.12,0.13 c 20,21.53 35.72,52.68 46.43,81.09 -40.62,34.69 -85.41,101.91 -36.32,123 7.15,3.08 10.4,-2.8 7.33,-4.61 -0.56,-0.33 -22.42,-12.15 -8.52,-48.45 h 35 a 3.4,3.4 0 0 0 0,-6.79 H 211 a 139,139 0 0 1 6.92,-12.84 h 25.16 a 3.4,3.4 0 0 0 0,-6.79 h -20.85 q 3.89,-5.83 8.78,-12.21 h 12.05 a 3.4,3.4 0 0 0 0,-6.79 h -6.66 c 3.8,-4.64 8,-9.49 12.63,-14.57 l 0.12,-0.13 c 9.23,26.72 13.68,49.5 12.7,57.09 a 7.93,7.93 0 0 1 -4.27,6.38 c -1.72,0.81 -2.42,3.18 0.27,4 8.6,2.53 13.89,-6 14.84,-12.85 0.95,-6.85 -3.74,-32.19 -16.15,-62.34 a 316.22,316.22 0 0 1 34.54,-29.2 7.26,7.26 0 0 0 10.92,-6.33 7.35,7.35 0 0 0 -0.14,-1.42 c 3.24,-2.26 6.47,-4.46 9.66,-6.58 a 9.92,9.92 0 0 0 15.83,-10.16 c 3.18,-2 6.27,-3.86 9.24,-5.64 a 12.65,12.65 0 0 0 21.8,-8.73 13,13 0 0 0 -0.51,-3.55 c 5.4,-3 9.34,-5.13 11.26,-6.23 a 17,17 0 1 0 14,-26.56 z"
       id="path4919"
       inkscape:connector-curvature="0"
       style="fill:#f47d20" />
    <path
       class="cls-1"
       d="M 153.31,272 H 110 c -4.34,0 -7.3,-0.95 -8.89,-3 a 8,8 0 0 1 -1.27,-4.76 22.47,22.47 0 0 1 0.74,-5.4 l 5.4,-23.5 c 1.16,-4.76 2.86,-8.15 5.19,-10.17 2.33,-2.02 5.72,-3 10.16,-3 h 32 c 4.55,0 7.52,1 9,3 a 7.47,7.47 0 0 1 1.38,4.88 20.37,20.37 0 0 1 -0.74,5.29 l -3.5,15.57 H 115.94 L 113.61,261 a 13.87,13.87 0 0 0 -0.31,2.44 c 0,0.53 0,0.95 0.21,1.16 0.31,0.64 1.27,1 2.75,1 H 148 a 38.76,38.76 0 0 0 8.26,-0.84 z m -3.38,-38.85 a 8.71,8.71 0 0 0 0.42,-2.54 3.32,3.32 0 0 0 -0.21,-1.06 c -0.43,-0.64 -1.48,-0.95 -3,-0.95 h -22.41 a 4.38,4.38 0 0 0 -3.18,0.95 5.5,5.5 0 0 0 -1.48,3.6 l -2.65,11.43 h 29.86 z"
       id="path4921"
       inkscape:connector-curvature="0"
       style="fill:#4d4848" />
    <path
       class="cls-1"
       d="m 164.11,272 c 0.67,-1.54 1.23,-3.2 1.9,-5.22 a 52,52 0 0 0 1.91,-7 L 179,208.22 c 0.68,-3.21 1.12,-5.58 1.35,-7 0.23,-1.42 0.22,-3.08 0.22,-5.22 h 15.5 l -13.77,63.72 c -0.67,3.09 -1.13,5.47 -1.35,7.13 a 26.34,26.34 0 0 0 -0.34,5.1 z"
       id="path4923"
       inkscape:connector-curvature="0"
       style="fill:#4d4848" />
    <path
       class="cls-1"
       d="m 342.72,230.56 c -1.59,-0.11 -3.17,-0.22 -5,-0.22 h -7.1 a 5.17,5.17 0 0 0 -3.17,0.85 5.67,5.67 0 0 0 -1.8,3.28 l -5.9,26.53 a 40.17,40.17 0 0 0 -1.48,9.74 V 272 h -15.46 c 0.64,-1.59 1.27,-3.08 1.7,-4.55 0.43,-1.47 0.95,-3.5 1.69,-6.36 l 6.35,-27.94 c 0.74,-2.76 1.06,-4.87 1.38,-6.46 a 31.58,31.58 0 0 0 0.21,-4.45 h 13 l -0.53,5.08 a 9.05,9.05 0 0 1 3.29,-3.81 10.51,10.51 0 0 1 5.6,-1.27 h 12.71 l 3.07,5.5 a 11.82,11.82 0 0 0 -1.8,2 c -0.74,0.95 -1.27,1.37 -1.59,1.37 -1.89,-0.23 -3.58,-0.45 -5.17,-0.55 z"
       id="path4925"
       inkscape:connector-curvature="0"
       style="fill:#4d4848" />
    <path
       class="cls-1"
       d="m 274.22,272 c 0.63,-1.38 1.16,-2.86 1.8,-4.66 a 44.89,44.89 0 0 0 1.79,-6.25 l 6.47,-27.94 c 0.53,-2.86 1,-5 1.05,-6.25 a 15.47,15.47 0 0 0 0.22,-3.39 v -1.27 h 14.6 L 291.37,261 c -0.64,2.76 -1.06,4.87 -1.27,6.36 a 22.21,22.21 0 0 0 -0.32,4.55 z"
       id="path4927"
       inkscape:connector-curvature="0"
       style="fill:#4d4848" />
    <path
       class="cls-1"
       d="m 218.14,204.79 a 7.17,7.17 0 1 1 -7.17,-7.17 7.17,7.17 0 0 1 7.17,7.17 z"
       id="path4929"
       inkscape:connector-curvature="0"
       style="fill:#4d4848" />
    <path
       class="cls-1"
       d="m 236,364.1 a 11.3,11.3 0 0 0 2,-4.55 l 4.32,-17.37 c 0.63,-2.52 0.54,-3.51 0.3,-4.55 h 11.75 a 11.44,11.44 0 0 0 -2,4.55 l -4.32,17.37 c -0.63,2.53 -0.55,3.52 -0.31,4.55 z"
       id="path4931"
       inkscape:connector-curvature="0"
       style="fill:#4d4848" />
    <path
       class="cls-1"
       d="m 282.23,342.89 a 7.42,7.42 0 0 0 -3.88,-0.87 H 269 c -1.57,0 -2,0.2 -2.23,1.16 l -0.37,1.48 c -0.25,1 0.08,1.16 1.66,1.16 h 7.15 c 4.3,0 6.25,1.49 5.29,5.34 l -1.6,6.45 c -1,4.18 -3.11,6.49 -7.95,6.49 h -18.2 l 0.47,-5.37 a 6.45,6.45 0 0 0 3.73,1 h 9.76 c 1.57,0 1.94,-0.17 2.19,-1.16 l 0.45,-1.82 c 0.24,-0.95 0,-1.16 -1.61,-1.16 h -8.23 c -4,0 -5.26,-1.32 -4.16,-5.75 l 1.48,-5.91 c 1,-4.14 3.59,-6.29 7.14,-6.29 h 18.74 z"
       id="path4933"
       inkscape:connector-curvature="0"
       style="fill:#4d4848" />
    <path
       class="cls-1"
       d="m 294.24,352.6 -1.73,6.95 c -0.63,2.53 -0.54,3.52 -0.3,4.55 h -11.75 a 11.16,11.16 0 0 0 2,-4.55 l 4.32,-17.37 c 0.63,-2.52 0.55,-3.51 0.06,-4.55 h 21.76 c 4.63,0 6.51,1.41 5.41,5.83 l -1.21,4.88 c -1,3.89 -2.93,4.1 -5.12,4.26 l 1.75,7.45 a 14.48,14.48 0 0 0 1.18,4.05 h -11.33 l -1.94,-11.5 z m 1.09,-4.38 H 301 c 1.28,0 1.71,-0.21 2,-1.49 l 0.8,-3.22 c 0.32,-1.29 0,-1.49 -1.29,-1.49 h -5.7 z"
       id="path4935"
       inkscape:connector-curvature="0"
       style="fill:#4d4848" />
    <path
       class="cls-1"
       d="m 321.31,357 -2.68,3.64 a 4.31,4.31 0 0 0 -0.76,1.57 2.34,2.34 0 0 0 0.1,1.9 h -7.48 a 29.23,29.23 0 0 0 4.21,-4.8 l 14.66,-20.18 -0.79,-1.49 h 11.95 l 3.75,22.83 a 9.69,9.69 0 0 0 1.41,3.64 H 332.4 a 4.22,4.22 0 0 0 1,-1.73 5.42,5.42 0 0 0 0.12,-2 l -0.61,-3.39 z m 11,-4.39 -1.54,-8.93 -6.28,8.93 z"
       id="path4937"
       inkscape:connector-curvature="0"
       style="fill:#4d4848" />
    <path
       class="cls-1"
       d="m 367.12,359.72 a 14.57,14.57 0 0 0 4.72,-0.7 l -2.18,5.08 h -23.32 a 11.3,11.3 0 0 0 2,-4.55 l 4.32,-17.37 c 0.63,-2.52 0.55,-3.51 0.31,-4.55 h 22.91 l -0.44,5.09 A 11.88,11.88 0 0 0 371,342 h -8.23 l -1.54,6.2 h 7.2 a 15,15 0 0 0 4.72,-0.7 l -1.44,5.79 a 11.72,11.72 0 0 0 -4.37,-0.71 h -7.2 l -1.77,7.12 z"
       id="path4939"
       inkscape:connector-curvature="0"
       style="fill:#4d4848" />
    <path
       class="cls-1"
       d="m 393.25,359.72 a 10.94,10.94 0 0 0 4.56,-0.87 l -2.18,5.25 h -22.82 a 11.18,11.18 0 0 0 1.95,-4.55 l 4.33,-17.37 c 0.63,-2.52 0.54,-3.51 0.3,-4.55 h 11.75 a 11.29,11.29 0 0 0 -2,4.55 l -4.37,17.54 z"
       id="path4941"
       inkscape:connector-curvature="0"
       style="fill:#4d4848" />
  </g>
</svg>
