<?xml version="1.0" encoding="UTF-8" standalone="no"?>
<svg
   xmlns:dc="http://purl.org/dc/elements/1.1/"
   xmlns:cc="http://creativecommons.org/ns#"
   xmlns:rdf="http://www.w3.org/1999/02/22-rdf-syntax-ns#"
   xmlns:svg="http://www.w3.org/2000/svg"
   xmlns="http://www.w3.org/2000/svg"
   xmlns:sodipodi="http://sodipodi.sourceforge.net/DTD/sodipodi-0.dtd"
   xmlns:inkscape="http://www.inkscape.org/namespaces/inkscape"
   width="500"
   height="300"
   viewBox="0 100 500 300"
   version="1.1"
   id="svg4979"
   sodipodi:docname="IT.svg"
   inkscape:version="0.92.3 (2405546, 2018-03-11)">
  <metadata
     id="metadata4983">
    <rdf:RDF>
      <cc:Work
         rdf:about="">
        <dc:format>image/svg+xml</dc:format>
        <dc:type
           rdf:resource="http://purl.org/dc/dcmitype/StillImage" />
      </cc:Work>
    </rdf:RDF>
  </metadata>
  <sodipodi:namedview
     pagecolor="#ffffff"
     bordercolor="#666666"
     borderopacity="1"
     objecttolerance="10"
     gridtolerance="10"
     guidetolerance="10"
     inkscape:pageopacity="0"
     inkscape:pageshadow="2"
     inkscape:window-width="2560"
     inkscape:window-height="1247"
     id="namedview4981"
     showgrid="false"
     inkscape:zoom="16.653779"
     inkscape:cx="375.92571"
     inkscape:cy="266.66748"
     inkscape:window-x="0"
     inkscape:window-y="0"
     inkscape:window-maximized="1"
     inkscape:current-layer="svg4979" />
  <defs
     id="defs4952">
    <style
       id="style4950">.cls-1{fill:#4d4848;}.cls-2{fill:#f47d20;}</style>
  </defs>
  <g
     id="Nodes"
     transform="translate(-89.829078,-25.939954)">
    <path
       class="cls-1"
       d="m 189.75,272 c 0.63,-1.38 1.16,-2.86 1.8,-4.66 a 46.2,46.2 0 0 0 1.8,-6.25 l 6.46,-27.94 c 0.53,-2.86 0.95,-5 1.06,-6.25 a 16.19,16.19 0 0 0 0.21,-3.39 v -1.27 h 14.61 L 206.9,261 c -0.64,2.76 -1.06,4.87 -1.27,6.36 a 22.21,22.21 0 0 0 -0.32,4.55 z"
       id="path4954"
       inkscape:connector-curvature="0"
       style="fill:#4d4848" />
    <path
       class="cls-2"
       d="M 383.15,135.9 A 17,17 0 0 0 368.21,161 c -1.69,0.84 -5.63,2.82 -11.15,5.69 a 12.65,12.65 0 1 0 -22.28,11.93 c -2.83,1.56 -5.78,3.21 -8.8,4.92 a 9.930579,9.930579 0 0 0 -17.16,10 q -4.69,2.79 -9.44,5.72 a 7.25,7.25 0 0 0 -11.94,5.54 7.08,7.08 0 0 0 0.25,1.86 A 342.1,342.1 0 0 0 253,232 c -11.48,-25.68 -28.42,-53.87 -52,-76.82 l -0.06,-0.06 c -2.76,-2.72 -5,-1.52 -1.88,1.86 l 0.12,0.13 c 20,21.53 35.72,52.68 46.43,81.09 -40.62,34.69 -85.41,101.91 -36.32,123 7.15,3.08 10.4,-2.8 7.33,-4.61 -0.56,-0.33 -22.42,-12.15 -8.52,-48.45 h 35 a 3.4,3.4 0 0 0 0,-6.79 H 211 a 139,139 0 0 1 6.92,-12.84 h 25.16 a 3.4,3.4 0 0 0 0,-6.79 h -20.85 q 3.89,-5.83 8.78,-12.21 h 12.05 a 3.4,3.4 0 0 0 0,-6.79 h -6.66 c 3.8,-4.64 8,-9.49 12.63,-14.57 l 0.12,-0.13 c 9.23,26.72 13.68,49.5 12.7,57.09 a 7.93,7.93 0 0 1 -4.27,6.38 c -1.72,0.81 -2.42,3.18 0.27,4 8.6,2.53 13.89,-6 14.84,-12.85 0.95,-6.85 -3.74,-32.19 -16.15,-62.34 a 316.22,316.22 0 0 1 34.54,-29.2 7.26,7.26 0 0 0 10.92,-6.33 7.35,7.35 0 0 0 -0.14,-1.42 c 3.24,-2.26 6.47,-4.46 9.66,-6.58 a 9.92,9.92 0 0 0 15.83,-10.16 c 3.18,-2 6.27,-3.86 9.24,-5.64 a 12.65,12.65 0 0 0 21.8,-8.73 13,13 0 0 0 -0.51,-3.55 c 5.4,-3 9.34,-5.13 11.26,-6.23 a 17,17 0 1 0 14,-26.56 z"
       id="path4956"
       inkscape:connector-curvature="0"
       style="fill:#f47d20" />
    <path
       class="cls-1"
       d="M 153.31,272 H 110 c -4.34,0 -7.3,-0.95 -8.89,-3 a 8,8 0 0 1 -1.27,-4.76 22.47,22.47 0 0 1 0.74,-5.4 l 5.4,-23.5 c 1.16,-4.76 2.86,-8.15 5.19,-10.17 2.33,-2.02 5.72,-3 10.16,-3 h 32 c 4.55,0 7.52,1 9,3 a 7.47,7.47 0 0 1 1.38,4.88 20.37,20.37 0 0 1 -0.74,5.29 l -3.5,15.57 H 115.94 L 113.61,261 a 13.87,13.87 0 0 0 -0.31,2.44 c 0,0.53 0,0.95 0.21,1.16 0.31,0.64 1.27,1 2.75,1 H 148 a 38.76,38.76 0 0 0 8.26,-0.84 z m -3.38,-38.85 a 8.71,8.71 0 0 0 0.42,-2.54 3.32,3.32 0 0 0 -0.21,-1.06 c -0.43,-0.64 -1.48,-0.95 -3,-0.95 h -22.41 a 4.38,4.38 0 0 0 -3.18,0.95 5.5,5.5 0 0 0 -1.48,3.6 l -2.65,11.43 h 29.86 z"
       id="path4958"
       inkscape:connector-curvature="0"
       style="fill:#4d4848" />
    <path
       class="cls-1"
       d="m 164.11,272 c 0.67,-1.54 1.23,-3.2 1.9,-5.22 a 52,52 0 0 0 1.91,-7 L 179,208.22 c 0.68,-3.21 1.12,-5.58 1.35,-7 0.23,-1.42 0.22,-3.08 0.22,-5.22 h 15.5 l -13.77,63.72 c -0.67,3.09 -1.13,5.47 -1.35,7.13 a 26.34,26.34 0 0 0 -0.34,5.1 z"
       id="path4960"
       inkscape:connector-curvature="0"
       style="fill:#4d4848" />
    <path
       class="cls-1"
       d="m 342.72,230.56 c -1.59,-0.11 -3.17,-0.22 -5,-0.22 h -7.1 a 5.17,5.17 0 0 0 -3.17,0.85 5.67,5.67 0 0 0 -1.8,3.28 l -5.9,26.53 a 40.17,40.17 0 0 0 -1.48,9.74 V 272 h -15.46 c 0.64,-1.59 1.27,-3.08 1.7,-4.55 0.43,-1.47 0.95,-3.5 1.69,-6.36 l 6.35,-27.94 c 0.74,-2.76 1.06,-4.87 1.38,-6.46 a 31.58,31.58 0 0 0 0.21,-4.45 h 13 l -0.53,5.08 a 9.05,9.05 0 0 1 3.29,-3.81 10.51,10.51 0 0 1 5.6,-1.27 h 12.71 l 3.07,5.5 a 11.82,11.82 0 0 0 -1.8,2 c -0.74,0.95 -1.27,1.37 -1.59,1.37 -1.89,-0.23 -3.58,-0.45 -5.17,-0.55 z"
       id="path4962"
       inkscape:connector-curvature="0"
       style="fill:#4d4848" />
    <path
       class="cls-1"
       d="m 274.22,272 c 0.63,-1.38 1.16,-2.86 1.8,-4.66 a 44.89,44.89 0 0 0 1.79,-6.25 l 6.47,-27.94 c 0.53,-2.86 1,-5 1.05,-6.25 a 15.47,15.47 0 0 0 0.22,-3.39 v -1.27 h 14.6 L 291.37,261 c -0.64,2.76 -1.06,4.87 -1.27,6.36 a 22.21,22.21 0 0 0 -0.32,4.55 z"
       id="path4964"
       inkscape:connector-curvature="0"
       style="fill:#4d4848" />
    <path
       class="cls-1"
       d="m 218.14,204.79 a 7.17,7.17 0 1 1 -7.17,-7.17 7.17,7.17 0 0 1 7.17,7.17 z"
       id="path4966"
       inkscape:connector-curvature="0"
       style="fill:#4d4848" />
    <path
       class="cls-1"
       d="m 236,364.1 a 11.3,11.3 0 0 0 2,-4.55 l 4.32,-17.37 c 0.63,-2.52 0.54,-3.51 0.3,-4.55 h 11.75 a 11.44,11.44 0 0 0 -2,4.55 l -4.32,17.37 c -0.63,2.53 -0.55,3.52 -0.31,4.55 z"
       id="path4968"
       inkscape:connector-curvature="0"
       style="fill:#4d4848" />
    <path
       class="cls-1"
       d="m 282.5,337.63 -0.53,5.46 a 4.82,4.82 0 0 0 -3.49,-1.07 h -4.59 l -4.37,17.53 c -0.63,2.53 -0.54,3.52 -0.3,4.55 h -11.75 a 11.3,11.3 0 0 0 2,-4.55 L 263.79,342 h -4.59 a 7.17,7.17 0 0 0 -4,1.07 l 2.19,-5.46 z"
       id="path4970"
       inkscape:connector-curvature="0"
       style="fill:#4d4848" />
    <path
       class="cls-1"
       d="m 285.29,357 -2.68,3.64 a 4.31,4.31 0 0 0 -0.76,1.57 2.34,2.34 0 0 0 0.1,1.9 h -7.48 a 29.23,29.23 0 0 0 4.21,-4.8 l 14.66,-20.18 -0.79,-1.49 h 11.95 l 3.75,22.83 a 9.69,9.69 0 0 0 1.41,3.64 h -13.27 a 4.28,4.28 0 0 0 1,-1.73 5.42,5.42 0 0 0 0.12,-2 l -0.6,-3.39 z m 11,-4.39 -1.54,-8.93 -6.28,8.93 z"
       id="path4972"
       inkscape:connector-curvature="0"
       style="fill:#4d4848" />
    <path
       class="cls-1"
       d="m 331.18,359.72 a 10.94,10.94 0 0 0 4.56,-0.87 l -2.18,5.25 h -22.83 a 11,11 0 0 0 2,-4.55 L 317,342.18 c 0.62,-2.52 0.54,-3.51 0.3,-4.55 h 11.75 a 11.29,11.29 0 0 0 -2,4.55 l -4.37,17.54 z"
       id="path4974"
       inkscape:connector-curvature="0"
       style="fill:#4d4848" />
    <path
       class="cls-1"
       d="m 342.92,353.76 -5.15,-12.9 a 9.37,9.37 0 0 0 -1.72,-3.23 h 13.61 a 3.78,3.78 0 0 0 -0.37,0.83 5.71,5.71 0 0 0 0.61,3 l 2.81,7.15 6.37,-7.32 a 8.33,8.33 0 0 0 1.91,-3.68 h 7.53 a 16,16 0 0 0 -4.48,3.89 l -11.17,12.8 -1.3,5.25 c -0.63,2.53 -0.55,3.52 -0.31,4.55 h -11.74 a 11.3,11.3 0 0 0 2,-4.55 z"
       id="path4976"
       inkscape:connector-curvature="0"
       style="fill:#4d4848" />
  </g>
</svg>
