<?xml version="1.0" encoding="UTF-8"?>
<svg width="302px" height="230px" viewBox="0 0 302 230" version="1.1" xmlns="http://www.w3.org/2000/svg" xmlns:xlink="http://www.w3.org/1999/xlink" xmlns:sketch="http://www.bohemiancoding.com/sketch/ns">
    <!-- Generator: Sketch 3.3.2 (12043) - http://www.bohemiancoding.com/sketch -->
    <title>Nodes</title>
    <desc>Created with Sketch.</desc>
    <defs></defs>
    <g id="Page-1" stroke="none" stroke-width="1" fill="none" fill-rule="evenodd" sketch:type="MSPage">
        <g id="Nodes" sketch:type="MSLayerGroup">
            <path d="M90.75,137 C91.38,135.62 91.91,134.14 92.55,132.34 C93.2960829,130.30154 93.897573,128.213033 94.35,126.09 L100.81,98.15 C101.34,95.29 101.76,93.15 101.87,91.9 C102.058666,90.7804885 102.129053,89.6442374 102.08,88.51 L102.08,87.24 L116.69,87.24 L107.9,126 C107.26,128.76 106.84,130.87 106.63,132.36 C106.367465,133.861665 106.260233,135.38637 106.31,136.91 L90.75,137 Z" id="Shape" fill="#4D4848" sketch:type="MSShapeGroup"></path>
            <path d="M284.15,0.9 C278.159403,0.902197621 272.612157,4.05725739 269.548136,9.20497788 C266.484114,14.3526984 266.355656,20.7331246 269.21,26 C267.52,26.84 263.58,28.82 258.06,31.69 C256.052888,27.4855359 251.897163,24.7246388 247.243423,24.5039001 C242.589683,24.2831614 238.191291,26.638315 235.795228,30.6339253 C233.399166,34.6295356 233.393315,39.6187811 235.78,43.62 C232.95,45.18 230,46.83 226.98,48.54 C225.193672,45.4746612 221.907698,43.595166 218.359873,43.609502 C214.812048,43.623838 211.54137,45.5298273 209.779873,48.609502 C208.018376,51.6891768 208.033672,55.4746612 209.82,58.54 C206.693333,60.4 203.546667,62.3066667 200.38,64.26 C198.224443,62.43143 195.202665,62.0224012 192.638553,63.2121151 C190.07444,64.4018291 188.435587,66.9733281 188.44,69.8 C188.440427,70.4283468 188.524499,71.0538406 188.69,71.66 C176.607214,79.371572 165.021043,87.8349213 154,97 C142.52,71.32 125.58,43.13 102,20.18 L101.94,20.12 C99.18,17.4 96.94,18.6 100.06,21.98 L100.18,22.11 C120.18,43.64 135.9,74.79 146.61,103.2 C105.99,137.89 61.2,205.11 110.29,226.2 C117.44,229.28 120.69,223.4 117.62,221.59 C117.06,221.26 95.2,209.44 109.1,173.14 L144.1,173.14 C145.903492,173.042084 147.315677,171.551148 147.315677,169.745 C147.315677,167.938852 145.903492,166.447916 144.1,166.35 L112,166.35 C114.08036,161.951841 116.390206,157.665941 118.92,153.51 L144.08,153.51 C145.883492,153.412084 147.295677,151.921148 147.295677,150.115 C147.295677,148.308852 145.883492,146.817916 144.08,146.72 L123.23,146.72 C125.823333,142.833333 128.75,138.763333 132.01,134.51 L144.06,134.51 C145.863492,134.412084 147.275677,132.921148 147.275677,131.115 C147.275677,129.308852 145.863492,127.817916 144.06,127.72 L137.4,127.72 C141.2,123.08 145.4,118.23 150.03,113.15 L150.15,113.02 C159.38,139.74 163.83,162.52 162.85,170.11 C162.619546,172.829819 161.006498,175.239947 158.58,176.49 C156.86,177.3 156.16,179.67 158.85,180.49 C167.45,183.02 172.74,174.49 173.69,167.64 C174.64,160.79 169.95,135.45 157.54,105.3 C168.341604,94.7547133 179.884455,84.9964261 192.08,76.1 C194.33467,77.4162585 197.122461,77.4205512 199.381174,76.1112425 C201.639886,74.8019337 203.021655,72.3806711 203,69.77 C202.999498,69.2932464 202.95261,68.8176726 202.86,68.35 C206.1,66.09 209.33,63.89 212.52,61.77 C215.843988,64.439059 220.501553,64.6860147 224.08915,62.3834252 C227.676748,60.0808357 229.392101,55.7436182 228.35,51.61 C231.53,49.61 234.62,47.75 237.59,45.97 C241.159261,49.708843 246.644199,50.9000017 251.442737,48.9783856 C256.241274,47.0567694 259.387963,42.4090005 259.39,37.24 C259.38483,36.0387874 259.213197,34.8440877 258.88,33.69 C264.28,30.69 268.22,28.56 270.14,27.46 C274.695098,34.1578277 283.34314,36.7116134 290.805998,33.5627144 C298.268857,30.4138155 302.47355,22.436911 300.853844,14.5005159 C299.234138,6.56412068 292.239943,0.872751192 284.14,0.9 L284.15,0.9 Z" id="Shape" fill="#F47D20" sketch:type="MSShapeGroup"></path>
            <path d="M54.31,137 L11,137 C6.66,137 3.7,136.05 2.11,134 C1.19649754,132.586428 0.752085146,130.920757 0.84,129.24 C0.866634273,127.416641 1.11512859,125.603304 1.58,123.84 L6.98,100.34 C8.14,95.58 9.84,92.19 12.17,90.17 C14.5,88.15 17.89,87.17 22.33,87.17 L54.33,87.17 C58.88,87.17 61.85,88.17 63.33,90.17 C64.3449907,91.5859729 64.8331392,93.3121789 64.71,95.05 C64.6965992,96.8381706 64.4477939,98.6167918 63.97,100.34 L60.47,115.91 L16.94,115.91 L14.61,126 C14.4346127,126.802548 14.3308716,127.619091 14.3,128.44 C14.3,128.97 14.3,129.39 14.51,129.6 C14.82,130.24 15.78,130.6 17.26,130.6 L49,130.6 C51.7754671,130.616548 54.5446834,130.334932 57.26,129.76 L54.31,137 Z M50.93,98.15 C51.1950462,97.3288124 51.336592,96.4727971 51.35,95.61 C51.3383575,95.2475693 51.267418,94.889494 51.14,94.55 C50.71,93.91 49.66,93.6 48.14,93.6 L25.73,93.6 C24.5864211,93.4872588 23.44434,93.8284465 22.55,94.55 C21.6343436,95.5294817 21.1080256,96.8097146 21.07,98.15 L18.42,109.58 L48.28,109.58 L50.93,98.15 Z" id="Shape" fill="#4D4848" sketch:type="MSShapeGroup"></path>
            <path d="M65.11,137 C65.78,135.46 66.34,133.8 67.01,131.78 C67.8088813,129.493986 68.4471012,127.15496 68.92,124.78 L80,73.22 C80.68,70.01 81.12,67.64 81.35,66.22 C81.58,64.8 81.57,63.14 81.57,61 L97.07,61 L83.3,124.72 C82.63,127.81 82.17,130.19 81.95,131.85 C81.6716007,133.534958 81.5577314,135.242998 81.61,136.95 L65.11,137 Z" id="Shape" fill="#4D4848" sketch:type="MSShapeGroup"></path>
            <path d="M243.72,95.56 C242.13,95.45 240.55,95.34 238.72,95.34 L231.62,95.34 C230.49906,95.2715188 229.386303,95.5698923 228.45,96.19 C227.496165,97.0481785 226.8616,98.2044973 226.65,99.47 L220.75,126 C219.8589,129.173644 219.36183,132.444906 219.27,135.74 L219.27,137 L203.81,137 C204.45,135.41 205.08,133.92 205.51,132.45 C205.94,130.98 206.46,128.95 207.2,126.09 L213.55,98.15 C214.29,95.39 214.61,93.28 214.93,91.69 C215.104669,90.2134598 215.174844,88.7264274 215.14,87.24 L228.14,87.24 L227.61,92.32 C228.324283,90.764418 229.465086,89.443305 230.9,88.51 C232.61259,87.5750553 234.551635,87.1353077 236.5,87.24 L249.21,87.24 L252.28,92.74 C251.605828,93.3359782 251.001916,94.0069915 250.48,94.74 C249.74,95.69 249.21,96.11 248.89,96.11 C247,95.88 245.31,95.66 243.72,95.56 L243.72,95.56 Z" id="Shape" fill="#4D4848" sketch:type="MSShapeGroup"></path>
            <path d="M175.22,137 C175.85,135.62 176.38,134.14 177.02,132.34 C177.766942,130.302668 178.365177,128.213859 178.81,126.09 L185.28,98.15 C185.81,95.29 186.28,93.15 186.33,91.9 C186.527558,90.7815026 186.601336,89.6446499 186.55,88.51 L186.55,87.24 L201.15,87.24 L192.37,126 C191.73,128.76 191.31,130.87 191.1,132.36 C190.837465,133.861665 190.730233,135.38637 190.78,136.91 L175.22,137 Z" id="Shape" fill="#4D4848" sketch:type="MSShapeGroup"></path>
            <path d="M119.14,69.79 C119.14,72.6899943 117.393086,75.3044365 114.71384,76.4142162 C112.034595,77.523996 108.95065,76.9105613 106.900044,74.8599556 C104.849439,72.80935 104.236004,69.7254052 105.345784,67.0461598 C106.455564,64.3669144 109.070006,62.62 111.97,62.62 C115.929882,62.62 119.14,65.8301183 119.14,69.79 L119.14,69.79 Z" id="Shape" fill="#4D4848" sketch:type="MSShapeGroup"></path>
            <path d="M137,229.1 C137.996082,227.750558 138.679272,226.196301 139,224.55 L143.32,207.18 C143.95,204.66 143.86,203.67 143.62,202.63 L155.37,202.63 C154.377947,203.981771 153.695168,205.535092 153.37,207.18 L149.05,224.55 C148.42,227.08 148.5,228.07 148.74,229.1 L137,229.1 Z" id="Shape" fill="#4D4848" sketch:type="MSShapeGroup"></path>
            <path d="M183.5,202.63 L182.97,208.09 C181.991937,207.289576 180.738624,206.905322 179.48,207.02 L174.89,207.02 L170.52,224.55 C169.89,227.08 169.98,228.07 170.22,229.1 L158.47,229.1 C159.466082,227.750558 160.149272,226.196301 160.47,224.55 L164.79,207 L160.2,207 C158.790453,206.955531 157.399091,207.32772 156.2,208.07 L158.39,202.61 L183.5,202.63 Z" id="Shape" fill="#4D4848" sketch:type="MSShapeGroup"></path>
            <path d="M186.29,222 L183.61,225.64 C183.25231,226.106065 182.993681,226.640338 182.85,227.21 C182.61273,227.828912 182.649072,228.519414 182.95,229.11 L175.47,229.11 C177.044391,227.668524 178.456144,226.058924 179.68,224.31 L194.34,204.13 L193.55,202.64 L205.5,202.64 L209.25,225.47 C209.468212,226.766419 209.947944,228.004878 210.66,229.11 L197.39,229.11 C197.855165,228.620313 198.197837,228.027491 198.39,227.38 C198.553946,226.726584 198.594641,226.048331 198.51,225.38 L197.91,221.99 L186.29,222 Z M197.29,217.61 L195.75,208.68 L189.47,217.61 L197.29,217.61 Z" id="Shape" fill="#4D4848" sketch:type="MSShapeGroup"></path>
            <path d="M232.18,224.72 C233.744735,224.759549 235.29974,224.462871 236.74,223.85 L234.56,229.1 L211.73,229.1 C212.735063,227.755779 213.419191,226.199388 213.73,224.55 L218,207.18 C218.62,204.66 218.54,203.67 218.3,202.63 L230.05,202.63 C229.053627,203.979273 228.370407,205.533599 228.05,207.18 L223.68,224.72 L232.18,224.72 Z" id="Shape" fill="#4D4848" sketch:type="MSShapeGroup"></path>
            <path d="M243.92,218.76 L238.77,205.86 C238.414526,204.680753 237.830048,203.583158 237.05,202.63 L250.66,202.63 C250.503738,202.890781 250.379507,203.169461 250.29,203.46 C250.216473,204.496882 250.427387,205.534166 250.9,206.46 L253.71,213.61 L260.08,206.29 C261.016648,205.243917 261.673666,203.97804 261.99,202.61 L269.52,202.61 C267.797207,203.616024 266.277754,204.93537 265.04,206.5 L253.87,219.3 L252.57,224.55 C251.94,227.08 252.02,228.07 252.26,229.1 L240.52,229.1 C241.516082,227.750558 242.199272,226.196301 242.52,224.55 L243.92,218.76 Z" id="Shape" fill="#4D4848" sketch:type="MSShapeGroup"></path>
        </g>
    </g>
</svg>