<?xml version="1.0" encoding="UTF-8" standalone="no"?>
<svg
   xmlns:dc="http://purl.org/dc/elements/1.1/"
   xmlns:cc="http://creativecommons.org/ns#"
   xmlns:rdf="http://www.w3.org/1999/02/22-rdf-syntax-ns#"
   xmlns:svg="http://www.w3.org/2000/svg"
   xmlns="http://www.w3.org/2000/svg"
   xmlns:sodipodi="http://sodipodi.sourceforge.net/DTD/sodipodi-0.dtd"
   xmlns:inkscape="http://www.inkscape.org/namespaces/inkscape"
   width="500"
   height="300"
   viewBox="0 100 500 300"
   version="1.1"
   id="svg1275"
   sodipodi:docname="LU.svg"
   inkscape:version="0.92.3 (2405546, 2018-03-11)">
  <metadata
     id="metadata1279">
    <rdf:RDF>
      <cc:Work
         rdf:about="">
        <dc:format>image/svg+xml</dc:format>
        <dc:type
           rdf:resource="http://purl.org/dc/dcmitype/StillImage" />
      </cc:Work>
    </rdf:RDF>
  </metadata>
  <sodipodi:namedview
     pagecolor="#ffffff"
     bordercolor="#666666"
     borderopacity="1"
     objecttolerance="10"
     gridtolerance="10"
     guidetolerance="10"
     inkscape:pageopacity="0"
     inkscape:pageshadow="2"
     inkscape:window-width="2560"
     inkscape:window-height="1247"
     id="namedview1277"
     showgrid="false"
     inkscape:zoom="1.472"
     inkscape:cx="-32.236345"
     inkscape:cy="89.646162"
     inkscape:window-x="0"
     inkscape:window-y="0"
     inkscape:window-maximized="1"
     inkscape:current-layer="Nodes" />
  <defs
     id="defs1238">
    <style
       id="style1236">.cls-1{fill:#4d4848;}.cls-2{fill:#f47d20;}</style>
  </defs>
  <g
     id="Nodes"
     transform="translate(-14.181211,-27.578261)">
    <path
       class="cls-1"
       d="m 114.13022,273.63973 c 0.63,-1.38 1.16,-2.86 1.8,-4.66 a 46.2,46.2 0 0 0 1.8,-6.25 l 6.46,-27.99 c 0.53,-2.86 0.94,-5 1.06,-6.25 a 16.19,16.19 0 0 0 0.21,-3.39 v -1.27 h 14.61 l -8.79,38.81 c -0.64,2.76 -1.06,4.87 -1.27,6.36 a 22.21,22.21 0 0 0 -0.32,4.55 z"
       id="path1240"
       inkscape:connector-curvature="0"
       style="fill:#4d4848" />
    <path
       class="cls-2"
       d="m 307.53022,137.53973 a 17,17 0 0 0 -14.94,25.1 c -1.69,0.84 -5.63,2.82 -11.15,5.69 a 12.65,12.65 0 1 0 -22.25,11.94 c -2.83,1.56 -5.78,3.21 -8.8,4.92 a 9.930579,9.930579 0 0 0 -17.16,10 q -4.69,2.79 -9.44,5.72 a 7.25,7.25 0 0 0 -11.94,5.54 7.08,7.08 0 0 0 0.25,1.86 342.1,342.1 0 0 0 -34.75,25.33 c -11.48,-25.68 -28.42,-53.87 -52,-76.82 l -0.06,-0.06 c -2.76,-2.72 -5,-1.52 -1.88,1.86 l 0.12,0.13 c 20,21.53 35.72,52.68 46.43,81.09 -40.62,34.69 -85.410002,101.91 -36.32,123 7.14,3.08 10.4,-2.8 7.33,-4.61 -0.56,-0.33 -22.42,-12.14 -8.52,-48.45 h 35 a 3.4,3.4 0 0 0 0,-6.79 h -32.09 a 139,139 0 0 1 6.92,-12.84 h 25.16 a 3.4,3.4 0 0 0 0,-6.79 h -20.83 q 3.89,-5.83 8.78,-12.21 h 12.05 a 3.4,3.4 0 0 0 0,-6.79 h -6.66 c 3.8,-4.64 8,-9.49 12.63,-14.57 l 0.12,-0.13 c 9.23,26.72 13.68,49.5 12.7,57.09 a 7.93,7.93 0 0 1 -4.27,6.38 c -1.72,0.81 -2.42,3.18 0.27,4 8.6,2.53 13.89,-6 14.84,-12.85 0.95,-6.85 -3.74,-32.19 -16.15,-62.34 a 316.22,316.22 0 0 1 34.54,-29.2 7.26,7.26 0 0 0 10.88,-6.29 7.35,7.35 0 0 0 -0.14,-1.42 c 3.24,-2.26 6.47,-4.46 9.66,-6.58 a 9.92,9.92 0 0 0 15.83,-10.16 c 3.18,-2 6.27,-3.86 9.24,-5.64 a 12.65,12.65 0 0 0 21.8,-8.73 13,13 0 0 0 -0.51,-3.55 c 5.4,-3 9.34,-5.13 11.26,-6.23 a 17,17 0 1 0 14,-26.56 z"
       id="path1242"
       inkscape:connector-curvature="0"
       style="fill:#f47d20" />
    <path
       class="cls-1"
       d="m 77.690218,273.63973 h -43.3 c -4.34,0 -7.3,-0.95 -8.89,-3 a 8,8 0 0 1 -1.31,-4.78 22.47,22.47 0 0 1 0.74,-5.4 l 5.4,-23.5 c 1.16,-4.76 2.86,-8.15 5.19,-10.17 2.33,-2.02 5.72,-3 10.16,-3 h 32 c 4.55,0 7.52,1 9,3 a 7.47,7.47 0 0 1 1.39,4.85 20.81,20.81 0 0 1 -0.74,5.29 l -3.5,15.57 h -43.51 l -2.33,10.14 a 13.87,13.87 0 0 0 -0.31,2.44 c 0,0.53 0,0.95 0.21,1.16 0.31,0.64 1.27,1 2.75,1 h 31.75 a 38.86,38.86 0 0 0 8.27,-0.84 z m -3.39,-38.9 a 8.44,8.44 0 0 0 0.43,-2.54 3.32,3.32 0 0 0 -0.21,-1.06 c -0.43,-0.64 -1.48,-0.95 -3,-0.95 h -22.41 a 4.38,4.38 0 0 0 -3.18,0.95 5.45,5.45 0 0 0 -1.48,3.6 l -2.65,11.43 h 29.85 z"
       id="path1244"
       inkscape:connector-curvature="0"
       style="fill:#4d4848" />
    <path
       class="cls-1"
       d="m 88.480218,273.63973 c 0.68,-1.54 1.24,-3.2 1.91,-5.22 a 52,52 0 0 0 1.91,-7 l 11.120002,-51.5 c 0.67,-3.21 1.12,-5.58 1.35,-7 0.23,-1.42 0.22,-3.08 0.22,-5.22 h 15.5 l -13.81,63.73 c -0.67,3.09 -1.13,5.47 -1.35,7.13 a 26.34,26.34 0 0 0 -0.34,5.1 z"
       id="path1246"
       inkscape:connector-curvature="0"
       style="fill:#4d4848" />
    <path
       class="cls-1"
       d="m 267.10022,232.19973 c -1.59,-0.11 -3.18,-0.22 -5,-0.22 h -7.1 a 5.17,5.17 0 0 0 -3.17,0.85 5.67,5.67 0 0 0 -1.8,3.28 l -5.9,26.53 a 40.17,40.17 0 0 0 -1.48,9.74 v 1.26 h -15.46 c 0.64,-1.59 1.27,-3.08 1.7,-4.55 0.43,-1.47 1,-3.5 1.69,-6.36 l 6.35,-27.94 c 0.74,-2.76 1.06,-4.87 1.38,-6.46 a 31.58,31.58 0 0 0 0.21,-4.45 h 13 l -0.53,5.08 a 9.1,9.1 0 0 1 3.28,-3.81 10.57,10.57 0 0 1 5.61,-1.27 h 12.71 l 3.07,5.5 a 11.41,11.41 0 0 0 -1.8,2 c -0.74,0.95 -1.27,1.37 -1.59,1.37 -1.88,-0.23 -3.58,-0.45 -5.17,-0.55 z"
       id="path1248"
       inkscape:connector-curvature="0"
       style="fill:#4d4848" />
    <path
       class="cls-1"
       d="m 198.60022,273.63973 c 0.63,-1.38 1.16,-2.86 1.8,-4.66 a 44.89,44.89 0 0 0 1.79,-6.34 l 6.47,-27.94 c 0.52,-2.86 0.95,-5 1.05,-6.25 a 16.19,16.19 0 0 0 0.21,-3.39 v -1.27 h 14.61 l -8.78,38.85 c -0.64,2.76 -1.06,4.87 -1.27,6.36 a 22.21,22.21 0 0 0 -0.29,4.64 z"
       id="path1250"
       inkscape:connector-curvature="0"
       style="fill:#4d4848" />
    <path
       class="cls-1"
       d="m 142.52022,206.42973 a 7.17,7.17 0 1 1 -7.17,-7.17 7.17,7.17 0 0 1 7.17,7.17 z"
       id="path1252"
       inkscape:connector-curvature="0"
       style="fill:#4d4848" />
    <path
       class="cls-1"
       d="m 180.50022,361.35973 a 10.94,10.94 0 0 0 4.56,-0.87 l -2.17,5.25 h -22.83 a 11.18,11.18 0 0 0 1.95,-4.55 l 4.33,-17.37 c 0.63,-2.52 0.54,-3.51 0.3,-4.55 h 11.75 a 11.44,11.44 0 0 0 -2,4.55 l -4.36,17.54 z"
       id="path1254"
       inkscape:connector-curvature="0"
       style="fill:#4d4848" />
    <path
       class="cls-1"
       d="m 207.34022,361.35973 c 2.81,0 3.09,-0.29 3.68,-2.65 l 3.65,-14.68 c 0.74,-3 0.75,-3.52 0.19,-4.76 h 6.33 c -1.17,1.24 -1.43,1.78 -2.17,4.76 l -3.37,13.52 c -1.5,6 -3.69,8.19 -9.44,8.19 h -13.4 c -5.17,0 -6.66,-2.64 -5.28,-8.19 l 3.41,-13.73 c 0.63,-2.52 0.55,-3.51 0.31,-4.55 h 11.75 a 11.16,11.16 0 0 0 -2,4.55 l -3.75,15.06 c -0.43,1.73 0.13,2.48 1.9,2.48 z"
       id="path1256"
       inkscape:connector-curvature="0"
       style="fill:#4d4848" />
    <path
       class="cls-1"
       d="m 238.30022,346.96973 5.18,-4.22 a 8.73,8.73 0 0 0 2.94,-3.48 h 8.23 a 41.48,41.48 0 0 0 -5.67,4 l -8.79,7.25 5.68,11.58 a 10,10 0 0 0 2.45,3.64 h -14.53 c 0.55,-2 0.38,-2.36 -0.5,-4.13 l -1.93,-3.89 -5.66,4.63 c -1.71,1.41 -2.55,2.28 -3,3.39 h -7.81 a 41.69,41.69 0 0 0 5.36,-3.93 l 9.35,-7.65 -5.72,-11.25 a 8.69,8.69 0 0 0 -2.77,-3.64 h 14.89 a 4.3,4.3 0 0 0 0.16,3.15 z"
       id="path1258"
       inkscape:connector-curvature="0"
       style="fill:#4d4848" />
    <path
       class="cls-1"
       d="m 269.25022,361.35973 a 14.52,14.52 0 0 0 4.72,-0.7 l -2.17,5.08 h -23.33 a 11.3,11.3 0 0 0 2,-4.55 l 4.32,-17.37 c 0.63,-2.52 0.55,-3.51 0.31,-4.55 h 22.91 l -0.44,5.09 a 11.86,11.86 0 0 0 -4.41,-0.7 h -8.27 l -1.55,6.2 h 7.2 a 15,15 0 0 0 4.72,-0.7 l -1.44,5.79 a 11.72,11.72 0 0 0 -4.37,-0.71 h -7.2 l -1.77,7.12 z"
       id="path1260"
       inkscape:connector-curvature="0"
       style="fill:#4d4848" />
    <path
       class="cls-1"
       d="m 305.43022,339.26973 h 13.52 a 10.83,10.83 0 0 0 -2,4.55 l -4.32,17.37 c -0.63,2.53 -0.55,3.52 -0.27,4.55 h -11.78 a 11.3,11.3 0 0 0 2,-4.55 l 4,-16.29 h -0.08 l -12.5,20.84 h -7 l -1.92,-20.84 h -0.09 l -4,16.09 c -0.74,3 -0.75,3.51 -0.19,4.75 h -6.37 c 1.18,-1.24 1.44,-1.78 2.18,-4.75 l 4.22,-17 c 0.74,-3 0.75,-3.52 0.19,-4.76 h 13.89 l 1.31,15 h 0.09 z"
       id="path1262"
       inkscape:connector-curvature="0"
       style="fill:#4d4848" />
    <path
       class="cls-1"
       d="m 321.37022,343.81973 c 0.63,-2.52 0.55,-3.51 0.31,-4.55 h 21.67 c 5.58,0 6.31,2.24 5.51,5.46 l -0.75,3 c -0.84,3.35 -3.05,3.93 -6.8,4.22 v 0.08 c 4.25,0.54 5.49,1 4.79,3.85 l -1.09,4.38 c -0.81,3.23 -2.64,5.46 -8.23,5.46 h -21.69 a 11.3,11.3 0 0 0 2,-4.55 z m 5.73,17.54 h 5.87 c 1.28,0 1.71,-0.21 2,-1.49 l 1,-4.14 c 0.32,-1.28 0,-1.49 -1.29,-1.49 h -5.87 z m 2.86,-11.5 h 5.87 c 1.29,0 1.71,-0.21 2,-1.49 l 0.8,-3.22 c 0.32,-1.29 0,-1.49 -1.28,-1.49 h -5.87 z"
       id="path1264"
       inkscape:connector-curvature="0"
       style="fill:#4d4848" />
    <path
       class="cls-1"
       d="m 351.54022,347.04973 c 1.42,-5.71 4.34,-7.78 8.64,-7.78 h 15.14 c 4.3,0 6.18,2.07 4.76,7.78 l -2.72,10.92 c -1.42,5.7 -4.33,7.77 -8.63,7.77 h -15.14 c -4.3,0 -6.18,-2.07 -4.76,-7.77 z m 7,12.61 c -0.32,1.28 0.24,1.7 1.56,1.7 h 4.38 c 1.33,0 2.09,-0.42 2.41,-1.7 l 3.56,-14.31 c 0.32,-1.28 -0.24,-1.69 -1.56,-1.69 h -4.39 c -1.32,0 -2.08,0.41 -2.4,1.69 z"
       id="path1266"
       inkscape:connector-curvature="0"
       style="fill:#4d4848" />
    <path
       class="cls-1"
       d="m 401.08022,361.35973 c 2.82,0 3.09,-0.29 3.68,-2.65 l 3.66,-14.68 c 0.74,-3 0.75,-3.52 0.19,-4.76 h 6.37 c -1.18,1.24 -1.44,1.78 -2.18,4.76 l -3.37,13.52 c -1.5,6 -3.69,8.19 -9.44,8.19 h -13.4 c -5.17,0 -6.66,-2.64 -5.28,-8.19 l 3.42,-13.73 c 0.63,-2.52 0.54,-3.51 0.3,-4.55 h 11.75 a 11.29,11.29 0 0 0 -2,4.55 l -3.75,15.06 c -0.43,1.73 0.13,2.48 1.91,2.48 z"
       id="path1268"
       inkscape:connector-curvature="0"
       style="fill:#4d4848" />
    <path
       class="cls-1"
       d="m 424.60022,354.23973 -1.72,6.95 c -0.63,2.53 -0.55,3.52 -0.31,4.55 h -11.75 a 11,11 0 0 0 2,-4.55 l 4.33,-17.37 c 0.63,-2.52 0.54,-3.51 0.05,-4.55 h 21.76 c 4.63,0 6.51,1.41 5.41,5.83 l -1.21,4.88 c -1,3.89 -2.92,4.1 -5.12,4.26 l 1.75,7.45 a 14.82,14.82 0 0 0 1.18,4.05 h -11.33 l -1.93,-11.5 z m 1.1,-4.38 h 5.7 c 1.29,0 1.71,-0.21 2,-1.49 l 0.8,-3.22 c 0.32,-1.29 0,-1.49 -1.28,-1.49 h -5.71 z"
       id="path1270"
       inkscape:connector-curvature="0"
       style="fill:#4d4848" />
    <path
       class="cls-1"
       d="m 476.19022,349.85973 a 7.63,7.63 0 0 0 -2.27,4.14 l -1.63,6.53 c -0.81,3.27 -0.78,3.81 -0.22,5.21 h -8.88 l 0.28,-2.44 h -0.09 c -0.83,1.53 -1.43,2.44 -4.28,2.44 h -8.94 c -4.3,0 -6.18,-2.07 -4.76,-7.77 l 2.71,-10.92 c 1.43,-5.71 4.34,-7.78 8.64,-7.78 h 19.36 l -0.49,5.09 a 8.94,8.94 0 0 0 -3.87,-0.7 h -10.76 c -1.33,0 -2.09,0.41 -2.41,1.69 l -3.56,14.29 c -0.32,1.28 0.24,1.7 1.56,1.7 h 3.39 c 1.32,0 2.09,-0.42 2.41,-1.7 l 1.35,-5.42 h -3.77 a 4.16,4.16 0 0 0 -1.82,0.5 l 1.22,-4.88 z"
       id="path1272"
       inkscape:connector-curvature="0"
       style="fill:#4d4848" />
  </g>
</svg>
