<?xml version="1.0" encoding="UTF-8"?>
<svg width="452px" height="230px" viewBox="0 0 452 230" version="1.1" xmlns="http://www.w3.org/2000/svg" xmlns:xlink="http://www.w3.org/1999/xlink" xmlns:sketch="http://www.bohemiancoding.com/sketch/ns">
    <!-- Generator: Sketch 3.3.2 (12043) - http://www.bohemiancoding.com/sketch -->
    <title>Nodes</title>
    <desc>Created with Sketch.</desc>
    <defs></defs>
    <g id="Page-1" stroke="none" stroke-width="1" fill="none" fill-rule="evenodd" sketch:type="MSPage">
        <g id="Nodes" sketch:type="MSLayerGroup" transform="translate(-1.000000, 0.000000)">
            <path d="M90.94,137 C91.57,135.62 92.1,134.14 92.74,132.34 C93.4860829,130.30154 94.087573,128.213033 94.54,126.09 L101,98.1 C101.53,95.24 101.94,93.1 102.06,91.85 C102.248666,90.7304885 102.319053,89.5942374 102.27,88.46 L102.27,87.19 L116.88,87.19 L108.09,126 C107.45,128.76 107.03,130.87 106.82,132.36 C106.557465,133.861665 106.450233,135.38637 106.5,136.91 L90.94,137 Z" id="Shape" fill="#4D4848" sketch:type="MSShapeGroup"></path>
            <path d="M284.34,0.9 C278.349403,0.902197621 272.802157,4.05725739 269.738136,9.20497788 C266.674114,14.3526984 266.545656,20.7331246 269.4,26 C267.71,26.84 263.77,28.82 258.25,31.69 C256.285924,27.4123677 252.109209,24.5789791 247.408528,24.3353923 C242.707847,24.0918055 238.26064,26.4783069 235.864942,30.5300179 C233.469243,34.581729 233.521275,39.6285433 236,43.63 C233.17,45.19 230.22,46.84 227.2,48.55 C224.438576,43.8113968 218.358603,42.2085763 213.62,44.97 C208.881397,47.7314237 207.278576,53.8113968 210.04,58.55 C206.913333,60.41 203.766667,62.3166667 200.6,64.27 C198.444443,62.44143 195.422665,62.0324012 192.858553,63.2221151 C190.29444,64.4118291 188.655587,66.9833281 188.66,69.81 C188.660427,70.4383468 188.744499,71.0638406 188.91,71.67 C176.806939,79.3762455 165.200683,87.836288 154.16,97 C142.68,71.32 125.74,43.13 102.16,20.18 L102.1,20.12 C99.34,17.4 97.1,18.6 100.22,21.98 L100.34,22.11 C120.34,43.64 136.06,74.79 146.77,103.2 C106.15,137.89 61.36,205.11 110.45,226.2 C117.59,229.28 120.85,223.4 117.78,221.59 C117.22,221.26 95.36,209.45 109.26,173.14 L144.26,173.14 C146.063492,173.042084 147.475677,171.551148 147.475677,169.745 C147.475677,167.938852 146.063492,166.447916 144.26,166.35 L112.17,166.35 C114.25036,161.951841 116.560206,157.665941 119.09,153.51 L144.25,153.51 C146.053492,153.412084 147.465677,151.921148 147.465677,150.115 C147.465677,148.308852 146.053492,146.817916 144.25,146.72 L123.42,146.72 C126.013333,142.833333 128.94,138.763333 132.2,134.51 L144.25,134.51 C146.053492,134.412084 147.465677,132.921148 147.465677,131.115 C147.465677,129.308852 146.053492,127.817916 144.25,127.72 L137.59,127.72 C141.39,123.08 145.59,118.23 150.22,113.15 L150.34,113.02 C159.57,139.74 164.02,162.52 163.04,170.11 C162.809546,172.829819 161.196498,175.239947 158.77,176.49 C157.05,177.3 156.35,179.67 159.04,180.49 C167.64,183.02 172.93,174.49 173.88,167.64 C174.83,160.79 170.14,135.45 157.73,105.3 C168.531604,94.7547133 180.074455,84.9964261 192.27,76.1 C194.516043,77.3919971 197.280419,77.388997 199.523652,76.0921279 C201.766885,74.7952588 203.148891,72.4011315 203.15,69.81 C203.149498,69.3332464 203.10261,68.8576726 203.01,68.39 C206.25,66.13 209.48,63.93 212.67,61.81 C215.993988,64.479059 220.651553,64.7260147 224.23915,62.4234252 C227.826748,60.1208357 229.542101,55.7836182 228.5,51.65 C231.68,49.65 234.77,47.79 237.74,46.01 C241.309261,49.748843 246.794199,50.9400017 251.592737,49.0183856 C256.391274,47.0967694 259.537963,42.4490005 259.54,37.28 C259.53483,36.0787874 259.363197,34.8840877 259.03,33.73 C264.43,30.73 268.37,28.6 270.29,27.5 C274.845098,34.1978277 283.49314,36.7516134 290.955998,33.6027144 C298.418857,30.4538155 302.62355,22.476911 301.003844,14.5405159 C299.384138,6.60412068 292.389943,0.912751192 284.29,0.94 L284.34,0.9 Z" id="Shape" fill="#F47D20" sketch:type="MSShapeGroup"></path>
            <path d="M54.5,137 L11.2,137 C6.86,137 3.9,136.05 2.31,134 C1.37833806,132.585516 0.919651421,130.911835 1,129.22 C1.02663427,127.396641 1.27512859,125.583304 1.74,123.82 L7.14,100.32 C8.3,95.56 10,92.17 12.33,90.15 C14.66,88.13 18.05,87.15 22.49,87.15 L54.49,87.15 C59.04,87.15 62.01,88.15 63.49,90.15 C64.5017837,91.5565395 64.99316,93.271054 64.88,95 C64.8616032,96.7878005 64.6128882,98.5657767 64.14,100.29 L60.64,115.86 L17.13,115.86 L14.8,126 C14.6246127,126.802548 14.5208716,127.619091 14.49,128.44 C14.49,128.97 14.49,129.39 14.7,129.6 C15.01,130.24 15.97,130.6 17.45,130.6 L49.2,130.6 C51.9787712,130.616493 54.751296,130.334882 57.47,129.76 L54.5,137 Z M51.11,98.1 C51.3824641,97.2803253 51.5274864,96.4236821 51.54,95.56 C51.5283575,95.1975693 51.457418,94.839494 51.33,94.5 C50.9,93.86 49.85,93.55 48.33,93.55 L25.92,93.55 C24.7764211,93.4372588 23.63434,93.7784465 22.74,94.5 C21.8203605,95.4769188 21.2933917,96.7587349 21.26,98.1 L18.61,109.53 L48.46,109.53 L51.11,98.1 Z" id="Shape" fill="#4D4848" sketch:type="MSShapeGroup"></path>
            <path d="M65.29,137 C65.97,135.46 66.53,133.8 67.2,131.78 C67.9988813,129.493986 68.6371012,127.15496 69.11,124.78 L80.23,73.28 C80.9,70.07 81.35,67.7 81.58,66.28 C81.81,64.86 81.8,63.2 81.8,61.06 L97.3,61.06 L83.49,124.79 C82.82,127.88 82.36,130.26 82.14,131.92 C81.8616007,133.604958 81.7477314,135.312998 81.8,137.02 L65.29,137 Z" id="Shape" fill="#4D4848" sketch:type="MSShapeGroup"></path>
            <path d="M243.91,95.56 C242.32,95.45 240.73,95.34 238.91,95.34 L231.81,95.34 C230.68906,95.2715188 229.576303,95.5698923 228.64,96.19 C227.686165,97.0481785 227.0516,98.2044973 226.84,99.47 L220.94,126 C220.0489,129.173644 219.55183,132.444906 219.46,135.74 L219.46,137 L204,137 C204.64,135.41 205.27,133.92 205.7,132.45 C206.13,130.98 206.7,128.95 207.39,126.09 L213.74,98.15 C214.48,95.39 214.8,93.28 215.12,91.69 C215.294669,90.2134598 215.364844,88.7264274 215.33,87.24 L228.33,87.24 L227.8,92.32 C228.51387,90.7671942 229.650587,89.4468003 231.08,88.51 C232.796647,87.5762174 234.738555,87.1366055 236.69,87.24 L249.4,87.24 L252.47,92.74 C251.793218,93.3333391 251.189018,94.0046726 250.67,94.74 C249.93,95.69 249.4,96.11 249.08,96.11 C247.2,95.88 245.5,95.66 243.91,95.56 L243.91,95.56 Z" id="Shape" fill="#4D4848" sketch:type="MSShapeGroup"></path>
            <path d="M175.41,137 C176.04,135.62 176.57,134.14 177.21,132.34 C177.961142,130.27336 178.559419,128.154322 179,126 L185.47,98.06 C185.99,95.2 186.42,93.06 186.52,91.81 C186.708666,90.6904885 186.779053,89.5542374 186.73,88.42 L186.73,87.15 L201.34,87.15 L192.56,126 C191.92,128.76 191.5,130.87 191.29,132.36 C191.031278,133.892263 190.934079,135.447447 191,137 L175.41,137 Z" id="Shape" fill="#4D4848" sketch:type="MSShapeGroup"></path>
            <path d="M119.33,69.79 C119.33,72.6899943 117.583086,75.3044365 114.90384,76.4142162 C112.224595,77.523996 109.14065,76.9105613 107.090044,74.8599556 C105.039439,72.80935 104.426004,69.7254052 105.535784,67.0461598 C106.645564,64.3669144 109.260006,62.62 112.16,62.62 C116.119882,62.62 119.33,65.8301183 119.33,69.79 L119.33,69.79 Z" id="Shape" fill="#4D4848" sketch:type="MSShapeGroup"></path>
            <path d="M157.31,224.72 C158.874735,224.759549 160.42974,224.462871 161.87,223.85 L159.7,229.1 L136.87,229.1 C137.851825,227.748098 138.518157,226.193323 138.82,224.55 L143.15,207.18 C143.78,204.66 143.69,203.67 143.45,202.63 L155.2,202.63 C154.207947,203.981771 153.525168,205.535092 153.2,207.18 L148.84,224.72 L157.31,224.72 Z" id="Shape" fill="#4D4848" sketch:type="MSShapeGroup"></path>
            <path d="M184.15,224.72 C186.96,224.72 187.24,224.43 187.83,222.07 L191.48,207.39 C192.22,204.39 192.23,203.87 191.67,202.63 L198,202.63 C196.83,203.87 196.57,204.41 195.83,207.39 L192.46,220.91 C190.96,226.91 188.77,229.1 183.02,229.1 L169.62,229.1 C164.45,229.1 162.96,226.46 164.34,220.91 L167.75,207.18 C168.38,204.66 168.3,203.67 168.06,202.63 L179.81,202.63 C178.809788,203.977046 178.12617,205.532277 177.81,207.18 L174.06,222.24 C173.63,223.97 174.19,224.72 175.96,224.72 L184.15,224.72 Z" id="Shape" fill="#4D4848" sketch:type="MSShapeGroup"></path>
            <path d="M215.11,210.33 L220.29,206.11 C221.560729,205.230653 222.575274,204.029763 223.23,202.63 L231.46,202.63 C229.461599,203.802632 227.564964,205.140646 225.79,206.63 L217,213.88 L222.68,225.46 C223.217125,226.839746 224.053933,228.083003 225.13,229.1 L210.6,229.1 C211.15,227.1 210.98,226.74 210.1,224.97 L208.17,221.08 L202.51,225.71 C200.8,227.12 199.96,227.99 199.51,229.1 L191.7,229.1 C193.588409,227.934733 195.38077,226.620558 197.06,225.17 L206.41,217.52 L200.69,206.27 C200.108292,204.831072 199.151824,203.574197 197.92,202.63 L212.81,202.63 C212.462418,203.662363 212.519602,204.788169 212.97,205.78 L215.11,210.33 Z" id="Shape" fill="#4D4848" sketch:type="MSShapeGroup"></path>
            <path d="M246.06,224.72 C247.66117,224.74855 249.256034,224.512023 250.78,224.02 L248.61,229.1 L225.28,229.1 C226.276082,227.750558 226.959272,226.196301 227.28,224.55 L231.6,207.18 C232.23,204.66 232.15,203.67 231.91,202.63 L254.82,202.63 L254.38,207.72 C252.967579,207.209553 251.471061,206.97201 249.97,207.02 L241.7,207.02 L240.15,213.22 L247.35,213.22 C248.950605,213.24001 250.544096,213.003687 252.07,212.52 L250.63,218.31 C249.231669,217.797852 247.748545,217.556886 246.26,217.6 L239.06,217.6 L237.29,224.72 L246.06,224.72 Z" id="Shape" fill="#4D4848" sketch:type="MSShapeGroup"></path>
            <path d="M282.24,202.63 L295.76,202.63 C294.749624,203.971115 294.064928,205.528798 293.76,207.18 L289.44,224.55 C288.81,227.08 288.89,228.07 289.17,229.1 L277.39,229.1 C278.386082,227.750558 279.069272,226.196301 279.39,224.55 L283.39,208.26 L283.31,208.26 L270.81,229.1 L263.81,229.1 L261.89,208.26 L261.8,208.26 L257.8,224.35 C257.06,227.35 257.05,227.86 257.61,229.1 L251.24,229.1 C252.42,227.86 252.68,227.32 253.42,224.35 L257.64,207.35 C258.38,204.35 258.39,203.83 257.83,202.59 L271.72,202.59 L273.03,217.59 L273.12,217.59 L282.24,202.63 Z" id="Shape" fill="#4D4848" sketch:type="MSShapeGroup"></path>
            <path d="M298.18,207.18 C298.81,204.66 298.73,203.67 298.49,202.63 L320.16,202.63 C325.74,202.63 326.47,204.87 325.67,208.09 L324.92,211.09 C324.08,214.44 321.87,215.02 318.12,215.31 L318.12,215.39 C322.37,215.93 323.61,216.39 322.91,219.24 L321.82,223.62 C321.01,226.85 319.18,229.08 313.59,229.08 L291.9,229.08 C292.896082,227.730558 293.579272,226.176301 293.9,224.53 L298.18,207.18 Z M303.91,224.72 L309.78,224.72 C311.06,224.72 311.49,224.51 311.78,223.23 L312.78,219.09 C313.1,217.81 312.78,217.6 311.49,217.6 L305.62,217.6 L303.91,224.72 Z M306.77,213.22 L312.64,213.22 C313.93,213.22 314.35,213.01 314.64,211.73 L315.44,208.51 C315.76,207.22 315.44,207.02 314.16,207.02 L308.29,207.02 L306.77,213.22 Z" id="Shape" fill="#4D4848" sketch:type="MSShapeGroup"></path>
            <path d="M328.35,210.41 C329.77,204.7 332.69,202.63 336.99,202.63 L352.13,202.63 C356.43,202.63 358.31,204.7 356.89,210.41 L354.17,221.33 C352.75,227.03 349.84,229.1 345.54,229.1 L330.4,229.1 C326.1,229.1 324.22,227.03 325.64,221.33 L328.35,210.41 Z M335.35,223.02 C335.03,224.3 335.59,224.72 336.91,224.72 L341.29,224.72 C342.62,224.72 343.38,224.3 343.7,223.02 L347.26,208.71 C347.58,207.43 347.02,207.02 345.7,207.02 L341.31,207.02 C339.99,207.02 339.23,207.43 338.91,208.71 L335.35,223.02 Z" id="Shape" fill="#4D4848" sketch:type="MSShapeGroup"></path>
            <path d="M377.89,224.72 C380.71,224.72 380.98,224.43 381.57,222.07 L385.23,207.39 C385.97,204.39 385.98,203.87 385.42,202.63 L391.79,202.63 C390.61,203.87 390.35,204.41 389.61,207.39 L386.24,220.91 C384.74,226.91 382.55,229.1 376.8,229.1 L363.4,229.1 C358.23,229.1 356.74,226.46 358.12,220.91 L361.54,207.18 C362.17,204.66 362.08,203.67 361.84,202.63 L373.59,202.63 C372.593627,203.979273 371.910407,205.533599 371.59,207.18 L367.84,222.24 C367.41,223.97 367.97,224.72 369.75,224.72 L377.89,224.72 Z" id="Shape" fill="#4D4848" sketch:type="MSShapeGroup"></path>
            <path d="M401.41,217.6 L399.69,224.55 C399.06,227.08 399.14,228.07 399.38,229.1 L387.63,229.1 C388.635063,227.755779 389.319191,226.199388 389.63,224.55 L393.96,207.18 C394.59,204.66 394.5,203.67 394.01,202.63 L415.77,202.63 C420.4,202.63 422.28,204.04 421.18,208.46 L419.97,213.34 C418.97,217.23 417.05,217.44 414.85,217.6 L416.6,225.05 C416.798205,226.44936 417.195562,227.813172 417.78,229.1 L406.45,229.1 L404.52,217.6 L401.41,217.6 Z M402.51,213.22 L408.21,213.22 C409.5,213.22 409.92,213.01 410.21,211.73 L411.01,208.51 C411.33,207.22 411.01,207.02 409.73,207.02 L404.02,207.02 L402.51,213.22 Z" id="Shape" fill="#4D4848" sketch:type="MSShapeGroup"></path>
            <path d="M453,213.22 C451.824649,214.325287 451.02992,215.774706 450.73,217.36 L449.1,223.89 C448.29,227.16 448.32,227.7 448.88,229.1 L440,229.1 L440.28,226.66 L440.19,226.66 C439.36,228.19 438.76,229.1 435.91,229.1 L426.97,229.1 C422.67,229.1 420.79,227.03 422.21,221.33 L424.92,210.41 C426.35,204.7 429.26,202.63 433.56,202.63 L452.92,202.63 L452.43,207.72 C451.207951,207.2023 449.885967,206.963181 448.56,207.02 L437.8,207.02 C436.47,207.02 435.71,207.43 435.39,208.71 L431.83,223 C431.51,224.28 432.07,224.7 433.39,224.7 L436.78,224.7 C438.1,224.7 438.87,224.28 439.19,223 L440.54,217.58 L436.77,217.58 C436.133038,217.605022 435.510345,217.776092 434.95,218.08 L436.17,213.2 L453,213.22 Z" id="Shape" fill="#4D4848" sketch:type="MSShapeGroup"></path>
        </g>
    </g>
</svg>