<?xml version="1.0" encoding="UTF-8" standalone="no"?>
<svg
   xmlns:dc="http://purl.org/dc/elements/1.1/"
   xmlns:cc="http://creativecommons.org/ns#"
   xmlns:rdf="http://www.w3.org/1999/02/22-rdf-syntax-ns#"
   xmlns:svg="http://www.w3.org/2000/svg"
   xmlns="http://www.w3.org/2000/svg"
   xmlns:sodipodi="http://sodipodi.sourceforge.net/DTD/sodipodi-0.dtd"
   xmlns:inkscape="http://www.inkscape.org/namespaces/inkscape"
   width="500"
   height="300"
   viewBox="0 100 500 300"
   version="1.1"
   id="svg5592"
   sodipodi:docname="NL.svg"
   inkscape:version="0.92.3 (2405546, 2018-03-11)">
  <metadata
     id="metadata5596">
    <rdf:RDF>
      <cc:Work
         rdf:about="">
        <dc:format>image/svg+xml</dc:format>
        <dc:type
           rdf:resource="http://purl.org/dc/dcmitype/StillImage" />
      </cc:Work>
    </rdf:RDF>
  </metadata>
  <sodipodi:namedview
     pagecolor="#ffffff"
     bordercolor="#666666"
     borderopacity="1"
     objecttolerance="10"
     gridtolerance="10"
     guidetolerance="10"
     inkscape:pageopacity="0"
     inkscape:pageshadow="2"
     inkscape:window-width="2560"
     inkscape:window-height="1247"
     id="namedview5594"
     showgrid="false"
     inkscape:zoom="8.3268894"
     inkscape:cx="489.89153"
     inkscape:cy="256.32476"
     inkscape:window-x="0"
     inkscape:window-y="0"
     inkscape:window-maximized="1"
     inkscape:current-layer="svg5592" />
  <defs
     id="defs5553">
    <style
       id="style5551">.cls-1{fill:#4d4848;}.cls-2{fill:#f47d20;}</style>
  </defs>
  <g
     id="Nodes"
     transform="translate(-6.8990784,-25.879907)">
    <path
       class="cls-1"
       d="m 106.81,272 c 0.63,-1.38 1.16,-2.86 1.8,-4.66 a 44.79,44.79 0 0 0 1.8,-6.25 l 6.46,-27.94 c 0.53,-2.86 0.95,-5 1.06,-6.25 a 16.19,16.19 0 0 0 0.21,-3.39 v -1.27 h 14.61 L 124,261 c -0.64,2.76 -1,4.87 -1.27,6.36 a 22.21,22.21 0 0 0 -0.32,4.55 z"
       id="path5555"
       inkscape:connector-curvature="0"
       style="fill:#4d4848" />
    <path
       class="cls-2"
       d="M 300.21,135.9 A 17,17 0 0 0 285.27,161 c -1.69,0.84 -5.63,2.82 -11.15,5.69 a 12.64,12.64 0 1 0 -22.27,11.93 c -2.84,1.56 -5.79,3.21 -8.81,4.92 a 9.930579,9.930579 0 0 0 -17.16,10 q -4.69,2.79 -9.43,5.72 a 7.26,7.26 0 0 0 -11.95,5.54 7.08,7.08 0 0 0 0.25,1.86 A 342.1,342.1 0 0 0 170,232 c -11.48,-25.68 -28.42,-53.87 -52,-76.82 l -0.07,-0.06 c -2.76,-2.72 -5,-1.52 -1.87,1.86 l 0.12,0.13 c 20,21.53 35.72,52.68 46.43,81.09 -40.63,34.69 -85.42,101.91 -36.33,123 7.15,3.08 10.4,-2.8 7.33,-4.61 -0.55,-0.33 -22.42,-12.15 -8.52,-48.45 h 35 a 3.4,3.4 0 1 0 0,-6.79 H 128 a 139,139 0 0 1 7,-12.86 h 25.16 a 3.4,3.4 0 1 0 0,-6.79 h -20.87 c 2.6,-3.89 5.51,-7.95 8.79,-12.21 h 12 a 3.4,3.4 0 1 0 0,-6.79 h -6.66 c 3.8,-4.64 8,-9.49 12.63,-14.57 l 0.12,-0.13 c 9.23,26.72 13.68,49.5 12.71,57.09 a 7.91,7.91 0 0 1 -4.28,6.38 c -1.71,0.81 -2.42,3.18 0.28,4 8.59,2.53 13.88,-6 14.83,-12.85 0.95,-6.85 -3.71,-32.21 -16.11,-62.36 a 316.22,316.22 0 0 1 34.54,-29.2 7.26,7.26 0 0 0 10.74,-7.71 c 3.24,-2.26 6.47,-4.46 9.66,-6.58 a 9.92,9.92 0 0 0 15.83,-10.16 q 4.78,-3 9.24,-5.64 a 12.65,12.65 0 0 0 21.29,-12.28 c 5.4,-3 9.34,-5.13 11.26,-6.23 a 17,17 0 1 0 14,-26.56 z"
       id="path5557"
       inkscape:connector-curvature="0"
       style="fill:#f47d20" />
    <path
       class="cls-1"
       d="M 70.37,272 H 27.08 c -4.34,0 -7.3,-0.95 -8.9,-3 a 8,8 0 0 1 -1.27,-4.76 22.47,22.47 0 0 1 0.74,-5.4 l 5.41,-23.5 c 1.16,-4.76 2.85,-8.15 5.18,-10.17 2.33,-2.02 5.72,-3 10.16,-3 h 32 c 4.56,0 7.52,1 9,3 a 7.47,7.47 0 0 1 1.35,4.83 20.37,20.37 0 0 1 -0.74,5.29 l -3.5,15.57 H 33 L 30.67,261 a 13.87,13.87 0 0 0 -0.31,2.44 c 0,0.53 0,0.95 0.21,1.16 0.31,0.64 1.27,1 2.75,1 h 31.76 a 38.76,38.76 0 0 0 8.26,-0.84 z M 67,233.1 a 8.71,8.71 0 0 0 0.42,-2.54 3.32,3.32 0 0 0 -0.21,-1.06 c -0.43,-0.64 -1.48,-0.95 -3,-0.95 H 41.79 a 4.38,4.38 0 0 0 -3.18,0.95 5.5,5.5 0 0 0 -1.48,3.6 l -2.64,11.43 h 29.85 z"
       id="path5559"
       inkscape:connector-curvature="0"
       style="fill:#4d4848" />
    <path
       class="cls-1"
       d="m 81.17,272 c 0.67,-1.54 1.23,-3.2 1.91,-5.22 a 52.12,52.12 0 0 0 1.9,-7 l 11.13,-51.5 c 0.67,-3.21 1.12,-5.58 1.34,-7 0.22,-1.42 0.23,-3.08 0.23,-5.22 h 15.49 l -13.81,63.66 q -1,4.63 -1.35,7.13 a 27.12,27.12 0 0 0 -0.33,5.1 z"
       id="path5561"
       inkscape:connector-curvature="0"
       style="fill:#4d4848" />
    <path
       class="cls-1"
       d="m 259.78,230.56 c -1.59,-0.11 -3.17,-0.22 -5,-0.22 h -7.1 a 5.19,5.19 0 0 0 -3.17,0.85 5.72,5.72 0 0 0 -1.8,3.28 l -5.9,26.53 a 40.68,40.68 0 0 0 -1.48,9.74 V 272 h -15.45 c 0.63,-1.59 1.27,-3.08 1.69,-4.55 0.42,-1.47 1,-3.5 1.69,-6.36 l 6.35,-27.94 c 0.74,-2.76 1.06,-4.87 1.38,-6.46 a 30.15,30.15 0 0 0 0.22,-4.45 h 13 l -0.52,5.08 a 9,9 0 0 1 3.28,-3.81 10.52,10.52 0 0 1 5.61,-1.27 h 12.7 l 3.07,5.5 a 12.26,12.26 0 0 0 -1.8,2 c -0.74,0.95 -1.27,1.37 -1.59,1.37 -1.89,-0.23 -3.59,-0.45 -5.18,-0.55 z"
       id="path5563"
       inkscape:connector-curvature="0"
       style="fill:#4d4848" />
    <path
       class="cls-1"
       d="m 191.28,272 c 0.63,-1.38 1.16,-2.86 1.8,-4.66 a 44.79,44.79 0 0 0 1.8,-6.25 l 6.46,-27.94 c 0.53,-2.86 0.95,-5 1,-6.25 a 15.47,15.47 0 0 0 0.22,-3.39 v -1.27 h 14.6 L 208.43,261 c -0.63,2.76 -1.06,4.87 -1.27,6.36 a 22.21,22.21 0 0 0 -0.32,4.55 z"
       id="path5565"
       inkscape:connector-curvature="0"
       style="fill:#4d4848" />
    <path
       class="cls-1"
       d="m 135.2,204.79 a 7.17,7.17 0 1 1 -7.17,-7.17 7.17,7.17 0 0 1 7.17,7.17 z"
       id="path5567"
       inkscape:connector-curvature="0"
       style="fill:#4d4848" />
    <path
       class="cls-1"
       d="M 163.07,342.18 H 163 l -4.27,17.17 c -0.74,3 -0.75,3.51 -0.19,4.75 h -6.37 c 1.18,-1.24 1.43,-1.78 2.18,-4.75 l 4.22,-17 c 0.74,-3 0.75,-3.52 0.19,-4.76 h 14.18 l 5.38,21.59 h 0.13 l 4.19,-16.83 c 0.74,-3 0.75,-3.52 0.19,-4.76 h 6.37 c -1.18,1.24 -1.44,1.78 -2.18,4.76 l -5.4,21.71 h -13.08 z"
       id="path5569"
       inkscape:connector-curvature="0"
       style="fill:#4d4848" />
    <path
       class="cls-1"
       d="m 206,359.72 a 14.47,14.47 0 0 0 4.72,-0.7 l -2.17,5.08 h -23.31 a 11.16,11.16 0 0 0 2,-4.55 l 4.32,-17.37 c 0.63,-2.52 0.55,-3.51 0.31,-4.55 h 22.91 l -0.44,5.09 a 11.82,11.82 0 0 0 -4.41,-0.7 h -8.23 l -1.55,6.2 h 7.2 a 14.87,14.87 0 0 0 4.72,-0.7 l -1.44,5.79 a 11.72,11.72 0 0 0 -4.37,-0.71 H 199 l -1.77,7.12 z"
       id="path5571"
       inkscape:connector-curvature="0"
       style="fill:#4d4848" />
    <path
       class="cls-1"
       d="m 242.45,337.63 -0.53,5.46 a 4.85,4.85 0 0 0 -3.5,-1.07 h -4.59 l -4.36,17.53 c -0.63,2.53 -0.55,3.52 -0.31,4.55 h -11.74 a 11.3,11.3 0 0 0 2,-4.55 L 223.74,342 h -4.59 a 7.17,7.17 0 0 0 -4,1.07 l 2.18,-5.46 z"
       id="path5573"
       inkscape:connector-curvature="0"
       style="fill:#4d4848" />
    <path
       class="cls-1"
       d="m 260.49,348.22 1.5,-6 c 0.63,-2.52 0.55,-3.51 0.31,-4.55 H 274 a 11.44,11.44 0 0 0 -2,4.55 l -4.32,17.37 c -0.63,2.53 -0.54,3.52 -0.3,4.55 h -11.67 a 11.3,11.3 0 0 0 2,-4.55 l 1.73,-6.95 h -7.53 l -1.73,6.95 c -0.62,2.53 -0.54,3.52 -0.3,4.55 h -11.79 a 11.16,11.16 0 0 0 2,-4.55 l 4.32,-17.37 c 0.63,-2.52 0.55,-3.51 0.31,-4.55 h 11.75 a 11.16,11.16 0 0 0 -2,4.55 l -1.51,6 z"
       id="path5575"
       inkscape:connector-curvature="0"
       style="fill:#4d4848" />
    <path
       class="cls-1"
       d="m 291,359.72 a 14.59,14.59 0 0 0 4.73,-0.7 l -2.18,5.08 h -23.28 a 11.3,11.3 0 0 0 2,-4.55 l 4.32,-17.37 c 0.63,-2.52 0.54,-3.51 0.3,-4.55 h 22.92 l -0.44,5.09 a 11.92,11.92 0 0 0 -4.42,-0.7 h -8.23 l -1.54,6.2 h 7.19 a 15,15 0 0 0 4.73,-0.7 l -1.44,5.79 a 11.79,11.79 0 0 0 -4.38,-0.71 h -7.19 l -1.77,7.12 z"
       id="path5577"
       inkscape:connector-curvature="0"
       style="fill:#4d4848" />
    <path
       class="cls-1"
       d="m 310.1,352.6 -1.73,6.95 c -0.63,2.53 -0.54,3.52 -0.31,4.55 h -11.74 a 11.3,11.3 0 0 0 2,-4.55 l 4.32,-17.37 c 0.63,-2.52 0.55,-3.51 0.06,-4.55 h 21.75 c 4.63,0 6.52,1.41 5.42,5.83 l -1.22,4.88 c -1,3.89 -2.92,4.1 -5.11,4.26 l 1.74,7.45 a 14.79,14.79 0 0 0 1.19,4.05 h -11.33 l -1.94,-11.5 z m 1.09,-4.38 h 5.71 c 1.28,0 1.7,-0.21 2,-1.49 l 0.8,-3.22 c 0.32,-1.29 0,-1.49 -1.28,-1.49 h -5.71 z"
       id="path5579"
       inkscape:connector-curvature="0"
       style="fill:#4d4848" />
    <path
       class="cls-1"
       d="m 349.35,359.72 a 10.94,10.94 0 0 0 4.56,-0.87 l -2.17,5.25 h -22.83 a 11.3,11.3 0 0 0 2,-4.55 l 4.32,-17.37 c 0.63,-2.52 0.54,-3.51 0.3,-4.55 h 11.75 a 11.44,11.44 0 0 0 -2,4.55 l -4.36,17.54 z"
       id="path5581"
       inkscape:connector-curvature="0"
       style="fill:#4d4848" />
    <path
       class="cls-1"
       d="m 362.44,357 -2.69,3.64 a 4.31,4.31 0 0 0 -0.76,1.57 2.34,2.34 0 0 0 0.1,1.9 h -7.48 a 28.77,28.77 0 0 0 4.21,-4.8 l 14.66,-20.18 -0.79,-1.49 h 12 l 3.74,22.83 a 9.69,9.69 0 0 0 1.41,3.64 h -13.31 c 0.74,-1 0.87,-1.16 1,-1.73 a 5.21,5.21 0 0 0 0.12,-2 l -0.6,-3.39 z m 11,-4.39 -1.54,-8.93 -6.27,8.93 z"
       id="path5583"
       inkscape:connector-curvature="0"
       style="fill:#4d4848" />
    <path
       class="cls-1"
       d="m 398.21,342.18 h -0.08 l -4.27,17.17 c -0.74,3 -0.75,3.51 -0.19,4.75 h -6.37 c 1.17,-1.24 1.43,-1.78 2.17,-4.75 l 4.22,-17 c 0.74,-3 0.75,-3.52 0.19,-4.76 h 14.19 l 5.38,21.59 h 0.12 l 4.19,-16.83 c 0.74,-3 0.75,-3.52 0.19,-4.76 h 6.37 c -1.17,1.24 -1.43,1.78 -2.17,4.76 l -5.41,21.71 h -13.07 z"
       id="path5585"
       inkscape:connector-curvature="0"
       style="fill:#4d4848" />
    <path
       class="cls-1"
       d="m 426.66,342.18 c 0.63,-2.52 0.55,-3.51 0.31,-4.55 h 20.55 c 5.63,0 7.08,2.15 5.74,7.53 l -2.84,11.41 c -1.34,5.38 -3.86,7.53 -9.49,7.53 h -20.55 a 11.3,11.3 0 0 0 2,-4.55 z m 5.73,17.54 h 5.25 c 1.66,0 2,-0.37 2.44,-2.15 l 3.33,-13.4 c 0.45,-1.78 0.29,-2.15 -1.36,-2.15 h -5.26 z"
       id="path5587"
       inkscape:connector-curvature="0"
       style="fill:#4d4848" />
    <path
       class="cls-1"
       d="m 482.65,342.89 a 7.45,7.45 0 0 0 -3.88,-0.87 h -9.39 c -1.57,0 -2,0.2 -2.23,1.16 l -0.37,1.48 c -0.25,1 0.08,1.16 1.65,1.16 h 7.16 c 4.3,0 6.25,1.49 5.29,5.34 l -1.61,6.45 c -1,4.18 -3.1,6.49 -7.94,6.49 h -18.2 l 0.47,-5.37 a 6.44,6.44 0 0 0 3.72,1 h 9.77 c 1.57,0 1.94,-0.17 2.19,-1.16 l 0.45,-1.82 c 0.24,-0.95 0,-1.16 -1.62,-1.16 h -8.23 c -4,0 -5.25,-1.32 -4.15,-5.75 l 1.47,-5.91 c 1,-4.14 3.6,-6.29 7.15,-6.29 h 18.74 z"
       id="path5589"
       inkscape:connector-curvature="0"
       style="fill:#4d4848" />
  </g>
</svg>
