<?xml version="1.0" encoding="UTF-8"?>
<svg width="468px" height="230px" viewBox="0 0 468 230" version="1.1" xmlns="http://www.w3.org/2000/svg" xmlns:xlink="http://www.w3.org/1999/xlink" xmlns:sketch="http://www.bohemiancoding.com/sketch/ns">
    <!-- Generator: Sketch 3.3.2 (12043) - http://www.bohemiancoding.com/sketch -->
    <title>Nodes</title>
    <desc>Created with Sketch.</desc>
    <defs></defs>
    <g id="Page-1" stroke="none" stroke-width="1" fill="none" fill-rule="evenodd" sketch:type="MSPage">
        <g id="Nodes" sketch:type="MSLayerGroup">
            <path d="M90.81,137 C91.44,135.62 91.97,134.14 92.61,132.34 C93.3606694,130.303041 93.962255,128.214202 94.41,126.09 L100.87,98.15 C101.4,95.29 101.82,93.15 101.93,91.9 C102.118666,90.7804885 102.189053,89.6442374 102.14,88.51 L102.14,87.24 L116.75,87.24 L108,126 C107.36,128.76 107,130.87 106.73,132.36 C106.467465,133.861665 106.360233,135.38637 106.41,136.91 L90.81,137 Z" id="Shape" fill="#4D4848" sketch:type="MSShapeGroup"></path>
            <path d="M284.21,0.9 C278.219403,0.902197621 272.672157,4.05725739 269.608136,9.20497788 C266.544114,14.3526984 266.415656,20.7331246 269.27,26 C267.58,26.84 263.64,28.82 258.12,31.69 C256.082757,27.5405502 251.942895,24.834146 247.324704,24.6326533 C242.706512,24.4311606 238.346669,26.766721 235.955772,30.7229701 C233.564875,34.6792193 233.524313,39.625069 235.85,43.62 C233.01,45.18 230.06,46.83 227.04,48.54 C225.253672,45.4746612 221.967698,43.595166 218.419873,43.609502 C214.872048,43.623838 211.60137,45.5298273 209.839873,48.609502 C208.078376,51.6891768 208.093672,55.4746612 209.88,58.54 C206.753333,60.4 203.61,62.3066667 200.45,64.26 C198.292315,62.4339599 195.270939,62.0262927 192.706457,63.2151822 C190.141975,64.4040717 188.500699,66.9733369 188.5,69.8 C188.500427,70.4283468 188.584499,71.0538406 188.75,71.66 C176.64666,79.3694732 165.040397,87.8328602 154,97 C142.52,71.32 125.58,43.13 102,20.18 L101.93,20.12 C99.17,17.4 96.93,18.6 100.06,21.98 L100.18,22.11 C120.18,43.64 135.9,74.79 146.61,103.2 C105.98,137.89 61.19,205.11 110.28,226.2 C117.43,229.28 120.68,223.4 117.61,221.59 C117.06,221.26 95.19,209.44 109.09,173.14 L144.09,173.14 C145.346883,173.208239 146.538623,172.576494 147.187594,171.497955 C147.836566,170.419416 147.836566,169.070584 147.187594,167.992045 C146.538623,166.913506 145.346883,166.281761 144.09,166.35 L112,166.35 C114.105786,161.943333 116.44236,157.650712 119,153.49 L144.16,153.49 C145.416883,153.558239 146.608623,152.926494 147.257594,151.847955 C147.906566,150.769416 147.906566,149.420584 147.257594,148.342045 C146.608623,147.263506 145.416883,146.631761 144.16,146.7 L123.29,146.7 C125.89,142.81 128.8,138.75 132.08,134.49 L144.08,134.49 C145.336883,134.558239 146.528623,133.926494 147.177594,132.847955 C147.826566,131.769416 147.826566,130.420584 147.177594,129.342045 C146.528623,128.263506 145.336883,127.631761 144.08,127.7 L137.42,127.7 C141.22,123.06 145.42,118.21 150.05,113.13 L150.17,113 C159.4,139.72 163.85,162.5 162.88,170.09 C162.651232,172.813225 161.032988,175.225467 158.6,176.47 C156.89,177.28 156.18,179.65 158.88,180.47 C167.47,183 172.76,174.47 173.71,167.62 C174.66,160.77 170,135.41 157.6,105.26 C168.401604,94.7147133 179.944455,84.9564261 192.14,76.06 C194.608797,77.4798999 197.679785,77.3251676 199.993357,75.664307 C202.30693,74.0034463 203.435726,71.1432496 202.88,68.35 C206.12,66.09 209.35,63.89 212.54,61.77 C215.863988,64.439059 220.521553,64.6860147 224.10915,62.3834252 C227.696748,60.0808357 229.412101,55.7436182 228.37,51.61 C231.556667,49.61 234.636667,47.73 237.61,45.97 C241.638128,50.1851682 248.025479,51.101254 253.075956,48.1881561 C258.126433,45.2750581 260.53173,39.2874024 258.9,33.69 C264.3,30.69 268.24,28.56 270.16,27.46 C274.715098,34.1578277 283.36314,36.7116134 290.825998,33.5627144 C298.288857,30.4138155 302.49355,22.436911 300.873844,14.5005159 C299.254138,6.56412068 292.259943,0.872751192 284.16,0.9 L284.21,0.9 Z" id="Shape" fill="#F47D20" sketch:type="MSShapeGroup"></path>
            <path d="M54.37,137 L11.08,137 C6.74,137 3.78,136.05 2.18,134 C1.26649754,132.586428 0.822085146,130.920757 0.91,129.24 C0.936634273,127.416641 1.18512859,125.603304 1.65,123.84 L7.06,100.34 C8.22,95.58 9.91,92.19 12.24,90.17 C14.57,88.15 17.96,87.17 22.4,87.17 L54.4,87.17 C58.96,87.17 61.92,88.17 63.4,90.17 C64.3931537,91.5763227 64.8700453,93.2825348 64.75,95 C64.7365992,96.7881706 64.4877939,98.5667918 64.01,100.29 L60.51,115.86 L17,115.86 L14.67,126 C14.4946127,126.802548 14.3908716,127.619091 14.36,128.44 C14.36,128.97 14.36,129.39 14.57,129.6 C14.88,130.24 15.84,130.6 17.32,130.6 L49.08,130.6 C51.8554671,130.616548 54.6246834,130.334932 57.34,129.76 L54.37,137 Z M51,98.1 C51.2650462,97.2788124 51.406592,96.4227971 51.42,95.56 C51.4083575,95.1975693 51.337418,94.839494 51.21,94.5 C50.78,93.86 49.73,93.55 48.21,93.55 L25.79,93.55 C24.6464211,93.4372588 23.50434,93.7784465 22.61,94.5 C21.6943436,95.4794817 21.1680256,96.7597146 21.13,98.1 L18.49,109.53 L48.34,109.53 L51,98.1 Z" id="Shape" fill="#4D4848" sketch:type="MSShapeGroup"></path>
            <path d="M65.17,137 C65.84,135.46 66.4,133.8 67.08,131.78 C67.8751209,129.49362 68.5099912,127.154624 68.98,124.78 L80.11,73.28 C80.78,70.07 81.23,67.7 81.45,66.28 C81.67,64.86 81.68,63.2 81.68,61.06 L97.17,61.06 L83.36,124.72 C82.6933333,127.806667 82.2433333,130.183333 82.01,131.85 C81.7397087,133.535822 81.6292183,135.243402 81.68,136.95 L65.17,137 Z" id="Shape" fill="#4D4848" sketch:type="MSShapeGroup"></path>
            <path d="M243.78,95.56 C242.19,95.45 240.61,95.34 238.78,95.34 L231.68,95.34 C230.559208,95.2729785 229.446905,95.57123 228.51,96.19 C227.55928,97.050643 226.925352,98.2058016 226.71,99.47 L220.81,126 C219.923901,129.17472 219.426924,132.445365 219.33,135.74 L219.33,137 L203.88,137 C204.51,135.41 205.15,133.92 205.57,132.45 C205.99,130.98 206.57,128.95 207.26,126.09 L213.61,98.15 C214.35,95.39 214.67,93.28 214.99,91.69 C215.172983,90.2141226 215.246517,88.7267291 215.21,87.24 L228.21,87.24 L227.69,92.32 C228.399226,90.7642173 229.536953,89.4426507 230.97,88.51 C232.685711,87.5737358 234.628331,87.1339627 236.58,87.24 L249.28,87.24 L252.35,92.74 C251.678438,93.3386065 251.074804,94.0093115 250.55,94.74 C249.81,95.69 249.28,96.11 248.96,96.11 C247.07,95.88 245.37,95.66 243.78,95.56 L243.78,95.56 Z" id="Shape" fill="#4D4848" sketch:type="MSShapeGroup"></path>
            <path d="M175.28,137 C175.91,135.62 176.44,134.14 177.08,132.34 C177.830669,130.303041 178.432255,128.214202 178.88,126.09 L185.34,98.15 C185.87,95.29 186.29,93.15 186.34,91.9 C186.537558,90.7815026 186.611336,89.6446499 186.56,88.51 L186.56,87.24 L201.16,87.24 L192.43,126 C191.8,128.76 191.37,130.87 191.16,132.36 C190.897465,133.861665 190.790233,135.38637 190.84,136.91 L175.28,137 Z" id="Shape" fill="#4D4848" sketch:type="MSShapeGroup"></path>
            <path d="M119.2,69.79 C119.2,72.6899943 117.453086,75.3044365 114.77384,76.4142162 C112.094595,77.523996 109.01065,76.9105613 106.960044,74.8599556 C104.909439,72.80935 104.296004,69.7254052 105.405784,67.0461598 C106.515564,64.3669144 109.130006,62.62 112.03,62.62 C115.989882,62.62 119.2,65.8301183 119.2,69.79 L119.2,69.79 Z" id="Shape" fill="#4D4848" sketch:type="MSShapeGroup"></path>
            <path d="M147.07,207.18 L147,207.18 L142.73,224.35 C141.99,227.35 141.98,227.86 142.54,229.1 L136.17,229.1 C137.35,227.86 137.6,227.32 138.35,224.35 L142.57,207.35 C143.31,204.35 143.32,203.83 142.76,202.59 L156.94,202.59 L162.32,224.18 L162.45,224.18 L166.64,207.35 C167.38,204.35 167.39,203.83 166.83,202.59 L173.2,202.59 C172.02,203.83 171.76,204.37 171.02,207.35 L165.62,229.06 L152.54,229.06 L147.07,207.18 Z" id="Shape" fill="#4D4848" sketch:type="MSShapeGroup"></path>
            <path d="M190,224.72 C191.60123,224.749473 193.196245,224.512924 194.72,224.02 L192.55,229.1 L169.24,229.1 C170.240212,227.752954 170.92383,226.197723 171.24,224.55 L175.56,207.18 C176.19,204.66 176.11,203.67 175.87,202.63 L198.78,202.63 L198.34,207.72 C196.927824,207.208605 195.431123,206.971034 193.93,207.02 L185.7,207.02 L184.15,213.22 L191.35,213.22 C192.950757,213.242267 194.544606,213.005891 196.07,212.52 L194.63,218.31 C193.231669,217.797852 191.748545,217.556886 190.26,217.6 L183,217.6 L181.23,224.72 L190,224.72 Z" id="Shape" fill="#4D4848" sketch:type="MSShapeGroup"></path>
            <path d="M226.45,202.63 L225.92,208.09 C224.937842,207.289933 223.681634,206.905893 222.42,207.02 L217.83,207.02 L213.47,224.55 C212.84,227.08 212.92,228.07 213.16,229.1 L201.42,229.1 C202.416082,227.750558 203.099272,226.196301 203.42,224.55 L207.74,207 L203.15,207 C201.740453,206.955531 200.349091,207.32772 199.15,208.07 L201.33,202.61 L226.45,202.63 Z" id="Shape" fill="#4D4848" sketch:type="MSShapeGroup"></path>
            <path d="M244.49,213.22 L245.99,207.22 C246.62,204.7 246.54,203.71 246.3,202.67 L258,202.67 C257.007947,204.021771 256.325168,205.575092 256,207.22 L251.68,224.59 C251.05,227.12 251.14,228.11 251.38,229.14 L239.71,229.14 C240.706082,227.790558 241.389272,226.236301 241.71,224.59 L243.44,217.64 L235.91,217.64 L234.18,224.59 C233.56,227.12 233.64,228.11 233.88,229.14 L222.09,229.14 C223.090212,227.792954 223.77383,226.237723 224.09,224.59 L228.41,207.22 C229.04,204.7 228.96,203.71 228.72,202.67 L240.47,202.67 C239.469788,204.017046 238.78617,205.572277 238.47,207.22 L236.96,213.22 L244.49,213.22 Z" id="Shape" fill="#4D4848" sketch:type="MSShapeGroup"></path>
            <path d="M275,224.72 C276.604433,224.748369 278.202556,224.511861 279.73,224.02 L277.55,229.1 L254.27,229.1 C255.266082,227.750558 255.949272,226.196301 256.27,224.55 L260.59,207.18 C261.22,204.66 261.13,203.67 260.89,202.63 L283.81,202.63 L283.37,207.72 C281.954072,207.209715 280.454313,206.972196 278.95,207.02 L270.72,207.02 L269.18,213.22 L276.37,213.22 C277.973953,213.241079 279.570904,213.004744 281.1,212.52 L279.66,218.31 C278.258095,217.798254 276.771778,217.557322 275.28,217.6 L268.09,217.6 L266.32,224.72 L275,224.72 Z" id="Shape" fill="#4D4848" sketch:type="MSShapeGroup"></path>
            <path d="M294.1,217.6 L292.37,224.55 C291.74,227.08 291.83,228.07 292.06,229.1 L280.32,229.1 C281.316082,227.750558 281.999272,226.196301 282.32,224.55 L286.64,207.18 C287.27,204.66 287.19,203.67 286.7,202.63 L308.45,202.63 C313.08,202.63 314.97,204.04 313.87,208.46 L312.65,213.34 C311.65,217.23 309.73,217.44 307.54,217.6 L309.28,225.05 C309.480984,226.449953 309.881731,227.813841 310.47,229.1 L299.14,229.1 L297.2,217.6 L294.1,217.6 Z M295.19,213.22 L300.9,213.22 C302.18,213.22 302.6,213.01 302.9,211.73 L303.7,208.51 C304.02,207.22 303.7,207.02 302.42,207.02 L296.71,207.02 L295.19,213.22 Z" id="Shape" fill="#4D4848" sketch:type="MSShapeGroup"></path>
            <path d="M333.35,224.72 C334.914735,224.759549 336.46974,224.462871 337.91,223.85 L335.74,229.1 L312.91,229.1 C313.906082,227.750558 314.589272,226.196301 314.91,224.55 L319.23,207.18 C319.86,204.66 319.77,203.67 319.53,202.63 L331.28,202.63 C330.287947,203.981771 329.605168,205.535092 329.28,207.18 L324.92,224.72 L333.35,224.72 Z" id="Shape" fill="#4D4848" sketch:type="MSShapeGroup"></path>
            <path d="M346.44,222 L343.75,225.64 C343.39231,226.106065 343.133681,226.640338 342.99,227.21 C342.75273,227.828912 342.789072,228.519414 343.09,229.11 L335.61,229.11 C337.187074,227.671153 338.5991,226.061242 339.82,224.31 L354.48,204.13 L353.69,202.64 L365.69,202.64 L369.43,225.47 C369.648212,226.766419 370.127944,228.004878 370.84,229.11 L357.53,229.11 C358.27,228.11 358.4,227.95 358.53,227.38 C358.69902,226.727376 358.739773,226.048152 358.65,225.38 L358.05,221.99 L346.44,222 Z M357.44,217.61 L355.9,208.68 L349.63,217.61 L357.44,217.61 Z" id="Shape" fill="#4D4848" sketch:type="MSShapeGroup"></path>
            <path d="M382.21,207.18 L382.13,207.18 L377.86,224.35 C377.12,227.35 377.11,227.86 377.67,229.1 L371.3,229.1 C372.47,227.86 372.73,227.32 373.47,224.35 L377.69,207.35 C378.43,204.35 378.44,203.83 377.88,202.59 L392.07,202.59 L397.45,224.18 L397.57,224.18 L401.76,207.35 C402.5,204.35 402.51,203.83 401.95,202.59 L408.32,202.59 C407.15,203.83 406.89,204.37 406.15,207.35 L400.74,229.06 L387.67,229.06 L382.21,207.18 Z" id="Shape" fill="#4D4848" sketch:type="MSShapeGroup"></path>
            <path d="M410.66,207.18 C411.29,204.66 411.21,203.67 410.97,202.63 L431.52,202.63 C437.15,202.63 438.6,204.78 437.26,210.16 L434.42,221.57 C433.08,226.95 430.56,229.1 424.93,229.1 L404.38,229.1 C405.376082,227.750558 406.059272,226.196301 406.38,224.55 L410.66,207.18 Z M416.39,224.72 L421.64,224.72 C423.3,224.72 423.64,224.35 424.08,222.57 L427.41,209.17 C427.86,207.39 427.7,207.02 426.05,207.02 L420.79,207.02 L416.39,224.72 Z" id="Shape" fill="#4D4848" sketch:type="MSShapeGroup"></path>
            <path d="M466.65,207.89 C465.459374,207.253831 464.118269,206.95312 462.77,207.02 L453.38,207.02 C451.81,207.02 451.38,207.22 451.15,208.18 L450.78,209.66 C450.53,210.66 450.86,210.82 452.43,210.82 L459.59,210.82 C463.89,210.82 465.84,212.31 464.88,216.16 L463.27,222.61 C462.27,226.79 460.17,229.1 455.33,229.1 L437.13,229.1 L437.6,223.73 C438.708932,224.435063 440.007016,224.78401 441.32,224.73 L451.09,224.73 C452.66,224.73 453.03,224.56 453.28,223.57 L453.73,221.75 C453.97,220.8 453.73,220.59 452.11,220.59 L443.88,220.59 C439.88,220.59 438.63,219.27 439.73,214.84 L441.2,208.93 C442.2,204.79 444.8,202.64 448.35,202.64 L467.09,202.64 L466.65,207.89 Z" id="Shape" fill="#4D4848" sketch:type="MSShapeGroup"></path>
        </g>
    </g>
</svg>