<?xml version="1.0" encoding="UTF-8" standalone="no"?>
<svg
   xmlns:dc="http://purl.org/dc/elements/1.1/"
   xmlns:cc="http://creativecommons.org/ns#"
   xmlns:rdf="http://www.w3.org/1999/02/22-rdf-syntax-ns#"
   xmlns:svg="http://www.w3.org/2000/svg"
   xmlns="http://www.w3.org/2000/svg"
   xmlns:sodipodi="http://sodipodi.sourceforge.net/DTD/sodipodi-0.dtd"
   xmlns:inkscape="http://www.inkscape.org/namespaces/inkscape"
   width="500"
   height="300"
   viewBox="0 100 500 300"
   version="1.1"
   id="svg5629"
   sodipodi:docname="NO.svg"
   inkscape:version="0.92.3 (2405546, 2018-03-11)">
  <metadata
     id="metadata5633">
    <rdf:RDF>
      <cc:Work
         rdf:about="">
        <dc:format>image/svg+xml</dc:format>
        <dc:type
           rdf:resource="http://purl.org/dc/dcmitype/StillImage" />
      </cc:Work>
    </rdf:RDF>
  </metadata>
  <sodipodi:namedview
     pagecolor="#ffffff"
     bordercolor="#666666"
     borderopacity="1"
     objecttolerance="10"
     gridtolerance="10"
     guidetolerance="10"
     inkscape:pageopacity="0"
     inkscape:pageshadow="2"
     inkscape:window-width="2560"
     inkscape:window-height="1247"
     id="namedview5631"
     showgrid="false"
     inkscape:zoom="11.776"
     inkscape:cx="373.56467"
     inkscape:cy="265.28669"
     inkscape:window-x="0"
     inkscape:window-y="0"
     inkscape:window-maximized="1"
     inkscape:current-layer="svg5629" />
  <defs
     id="defs5600">
    <style
       id="style5598">.cls-1{fill:#4d4848;}.cls-2{fill:#f47d20;}</style>
  </defs>
  <g
     id="Nodes"
     transform="translate(-68.519078,-26)">
    <path
       class="cls-1"
       d="m 168.43,272 c 0.63,-1.38 1.16,-2.86 1.8,-4.66 A 46.2,46.2 0 0 0 172,261 l 6.46,-27.94 c 0.53,-2.86 0.94,-5 1.06,-6.25 a 16.19,16.19 0 0 0 0.21,-3.39 v -1.27 h 14.6 L 185.58,261 c -0.64,2.76 -1.06,4.87 -1.27,6.36 A 22.21,22.21 0 0 0 184,272 Z"
       id="path5602"
       inkscape:connector-curvature="0"
       style="fill:#4d4848" />
    <path
       class="cls-2"
       d="M 361.83,135.9 A 17,17 0 0 0 346.89,161 c -1.69,0.84 -5.63,2.82 -11.15,5.69 a 12.65,12.65 0 1 0 -22.28,11.93 c -2.84,1.56 -5.78,3.21 -8.8,4.92 a 9.93,9.93 0 0 0 -18.25,5.46 9.82,9.82 0 0 0 1.09,4.51 q -4.69,2.79 -9.44,5.72 a 7.25,7.25 0 0 0 -11.94,5.54 7.08,7.08 0 0 0 0.25,1.86 342.1,342.1 0 0 0 -34.72,25.37 c -11.48,-25.68 -28.42,-53.87 -52,-76.82 l -0.07,-0.06 c -2.75,-2.72 -5,-1.52 -1.87,1.86 l 0.12,0.13 c 20,21.53 35.72,52.68 46.43,81.09 -40.63,34.69 -85.41,101.91 -36.32,123 7.14,3.08 10.4,-2.8 7.32,-4.61 -0.55,-0.33 -22.41,-12.14 -8.51,-48.45 h 35 a 3.4,3.4 0 0 0 0,-6.79 h -32.09 a 136.59,136.59 0 0 1 6.92,-12.84 h 25.16 a 3.4,3.4 0 0 0 0,-6.79 h -20.83 q 3.89,-5.83 8.78,-12.21 h 12.05 a 3.4,3.4 0 0 0 0,-6.79 h -6.66 c 3.8,-4.64 8,-9.49 12.63,-14.57 l 0.12,-0.13 c 9.23,26.72 13.68,49.5 12.7,57.09 a 7.93,7.93 0 0 1 -4.27,6.38 c -1.72,0.81 -2.42,3.18 0.27,4 8.6,2.53 13.89,-6 14.84,-12.85 0.95,-6.85 -3.74,-32.19 -16.15,-62.34 a 317,317 0 0 1 34.53,-29.2 7.26,7.26 0 0 0 10.75,-7.71 c 3.24,-2.26 6.47,-4.46 9.66,-6.58 A 9.92,9.92 0 0 0 306,186.61 c 3.18,-2 6.27,-3.86 9.24,-5.64 a 12.65,12.65 0 0 0 21.8,-8.73 13,13 0 0 0 -0.51,-3.55 c 5.4,-3 9.34,-5.13 11.26,-6.23 a 17,17 0 1 0 14.05,-26.56 z"
       id="path5604"
       inkscape:connector-curvature="0"
       style="fill:#f47d20" />
    <path
       class="cls-1"
       d="M 132,272 H 88.69 c -4.34,0 -7.3,-0.95 -8.89,-3 a 8,8 0 0 1 -1.27,-4.76 22.47,22.47 0 0 1 0.74,-5.4 l 5.4,-23.5 c 1.16,-4.76 2.85,-8.15 5.19,-10.17 2.34,-2.02 5.71,-3 10.16,-3 h 32 c 4.55,0 7.52,1 9,3 a 7.47,7.47 0 0 1 1.38,4.88 20.42,20.42 0 0 1 -0.75,5.29 l -3.49,15.57 H 94.62 L 92.29,261 a 14.11,14.11 0 0 0 -0.32,2.44 c 0,0.53 0,0.95 0.22,1.16 0.31,0.64 1.26,1 2.75,1 h 31.75 a 38.86,38.86 0 0 0 8.27,-0.84 z m -3.4,-38.9 a 8.44,8.44 0 0 0 0.43,-2.54 3.32,3.32 0 0 0 -0.21,-1.06 c -0.43,-0.64 -1.48,-0.95 -3,-0.95 h -22.41 a 4.38,4.38 0 0 0 -3.18,0.95 5.45,5.45 0 0 0 -1.48,3.6 L 96.1,244.53 H 126 Z"
       id="path5606"
       inkscape:connector-curvature="0"
       style="fill:#4d4848" />
    <path
       class="cls-1"
       d="m 142.78,272 c 0.68,-1.54 1.24,-3.2 1.91,-5.22 a 52,52 0 0 0 1.91,-7 l 11.12,-51.5 c 0.67,-3.21 1.12,-5.58 1.35,-7 0.23,-1.42 0.22,-3.08 0.22,-5.22 h 15.5 L 161,259.72 c -0.67,3.09 -1.13,5.47 -1.35,7.13 a 26.34,26.34 0 0 0 -0.34,5.1 z"
       id="path5608"
       inkscape:connector-curvature="0"
       style="fill:#4d4848" />
    <path
       class="cls-1"
       d="m 321.4,230.56 c -1.59,-0.11 -3.18,-0.22 -5,-0.22 h -7.09 a 5.17,5.17 0 0 0 -3.17,0.85 5.67,5.67 0 0 0 -1.8,3.28 L 298.43,261 a 40.17,40.17 0 0 0 -1.48,9.74 V 272 h -15.46 a 47.74,47.74 0 0 0 1.69,-4.55 c 0.43,-1.38 1,-3.5 1.7,-6.36 l 6.35,-27.94 c 0.74,-2.76 1.06,-4.87 1.38,-6.46 a 31.58,31.58 0 0 0 0.21,-4.45 h 13 l -0.53,5.08 a 9.1,9.1 0 0 1 3.28,-3.81 10.57,10.57 0 0 1 5.61,-1.27 h 12.71 l 3.06,5.5 a 11.8,11.8 0 0 0 -1.79,2 c -0.74,0.95 -1.27,1.37 -1.59,1.37 -1.88,-0.23 -3.57,-0.45 -5.17,-0.55 z"
       id="path5610"
       inkscape:connector-curvature="0"
       style="fill:#4d4848" />
    <path
       class="cls-1"
       d="m 252.9,272 c 0.63,-1.38 1.16,-2.86 1.79,-4.66 a 43.46,43.46 0 0 0 1.8,-6.25 L 263,233.1 c 0.52,-2.86 0.94,-5 1.05,-6.25 a 16.19,16.19 0 0 0 0.21,-3.39 v -1.27 h 14.61 L 270.05,261 c -0.64,2.76 -1.06,4.87 -1.27,6.36 a 22.21,22.21 0 0 0 -0.32,4.55 z"
       id="path5612"
       inkscape:connector-curvature="0"
       style="fill:#4d4848" />
    <path
       class="cls-1"
       d="m 196.82,204.79 a 7.17,7.17 0 1 1 -7.17,-7.17 7.17,7.17 0 0 1 7.17,7.17 z"
       id="path5614"
       inkscape:connector-curvature="0"
       style="fill:#4d4848" />
    <path
       class="cls-1"
       d="m 224.69,342.18 h -0.08 l -4.27,17.17 c -0.75,3 -0.76,3.51 -0.2,4.75 h -6.36 c 1.17,-1.24 1.43,-1.78 2.17,-4.75 l 4.22,-17 c 0.74,-3 0.75,-3.52 0.19,-4.76 h 14.19 l 5.38,21.59 h 0.12 l 4.19,-16.83 c 0.74,-3 0.75,-3.52 0.19,-4.76 h 6.37 c -1.17,1.24 -1.43,1.78 -2.17,4.76 l -5.41,21.71 h -13.07 z"
       id="path5616"
       inkscape:connector-curvature="0"
       style="fill:#4d4848" />
    <path
       class="cls-1"
       d="m 251.92,345.41 c 1.43,-5.71 4.34,-7.78 8.64,-7.78 h 15.14 c 4.3,0 6.18,2.07 4.76,7.78 l -2.72,10.92 c -1.42,5.7 -4.33,7.77 -8.63,7.77 H 254 c -4.3,0 -6.18,-2.07 -4.76,-7.77 z m 7,12.61 c -0.32,1.28 0.24,1.7 1.56,1.7 h 4.38 c 1.33,0 2.09,-0.42 2.41,-1.7 l 3.56,-14.31 c 0.32,-1.28 -0.24,-1.69 -1.56,-1.69 h -4.38 c -1.33,0 -2.09,0.41 -2.41,1.69 z"
       id="path5618"
       inkscape:connector-curvature="0"
       style="fill:#4d4848" />
    <path
       class="cls-1"
       d="m 292.81,352.6 -1.73,6.95 c -0.63,2.53 -0.54,3.52 -0.3,4.55 H 279 a 11.16,11.16 0 0 0 2,-4.55 l 4.32,-17.37 c 0.63,-2.52 0.55,-3.51 0.06,-4.55 h 21.76 c 4.63,0 6.51,1.41 5.41,5.83 l -1.21,4.88 c -1,3.89 -2.93,4.1 -5.12,4.26 l 1.75,7.45 a 14.48,14.48 0 0 0 1.18,4.05 h -11.3 l -1.94,-11.5 z m 1.09,-4.38 h 5.71 c 1.28,0 1.71,-0.21 2,-1.49 l 0.8,-3.22 c 0.32,-1.29 0,-1.49 -1.29,-1.49 h -5.7 z"
       id="path5620"
       inkscape:connector-curvature="0"
       style="fill:#4d4848" />
    <path
       class="cls-1"
       d="m 334.84,346.57 h -0.08 l -8.62,17.53 h -9.64 l -0.18,-23 a 7.19,7.19 0 0 0 -0.84,-3.44 h 12 a 4.51,4.51 0 0 0 -0.76,1.74 10.52,10.52 0 0 0 -0.32,2.61 l -0.11,12.73 h 0.08 l 8.39,-17.08 h 10.09 l 0.08,17.13 H 345 L 351.2,342 a 12.37,12.37 0 0 0 1,-2.61 3,3 0 0 0 0.06,-1.74 h 6.41 a 11.63,11.63 0 0 0 -2.9,4 l -11,22.46 H 335 Z"
       id="path5622"
       inkscape:connector-curvature="0"
       style="fill:#4d4848" />
    <path
       class="cls-1"
       d="m 361.24,357 -2.69,3.64 a 4.31,4.31 0 0 0 -0.76,1.57 2.34,2.34 0 0 0 0.1,1.9 h -7.48 a 28.32,28.32 0 0 0 4.21,-4.8 l 14.66,-20.18 -0.79,-1.49 h 12 l 3.74,22.83 a 9.69,9.69 0 0 0 1.41,3.64 h -13.31 c 0.74,-1 0.87,-1.16 1,-1.73 a 5.21,5.21 0 0 0 0.12,-2 l -0.6,-3.39 z m 11,-4.39 -1.54,-8.93 -6.27,8.93 z"
       id="path5624"
       inkscape:connector-curvature="0"
       style="fill:#4d4848" />
    <path
       class="cls-1"
       d="m 395.87,353.76 -5.15,-12.9 a 9.41,9.41 0 0 0 -1.71,-3.23 h 13.6 a 3.78,3.78 0 0 0 -0.37,0.83 5.71,5.71 0 0 0 0.61,3 l 2.81,7.15 6.37,-7.32 a 8.22,8.22 0 0 0 1.91,-3.68 h 7.53 a 16,16 0 0 0 -4.48,3.89 l -11.16,12.8 -1.31,5.25 c -0.63,2.53 -0.55,3.52 -0.31,4.55 h -11.74 a 11.3,11.3 0 0 0 2,-4.55 z"
       id="path5626"
       inkscape:connector-curvature="0"
       style="fill:#4d4848" />
  </g>
</svg>
