<?xml version="1.0" encoding="UTF-8"?>
<svg width="344px" height="230px" viewBox="0 0 344 230" version="1.1" xmlns="http://www.w3.org/2000/svg" xmlns:xlink="http://www.w3.org/1999/xlink" xmlns:sketch="http://www.bohemiancoding.com/sketch/ns">
    <!-- Generator: Sketch 3.3.2 (12043) - http://www.bohemiancoding.com/sketch -->
    <title>Nodes</title>
    <desc>Created with Sketch.</desc>
    <defs></defs>
    <g id="Page-1" stroke="none" stroke-width="1" fill="none" fill-rule="evenodd" sketch:type="MSPage">
        <g id="Nodes" sketch:type="MSLayerGroup">
            <path d="M90.43,137 C91.06,135.62 91.59,134.14 92.23,132.34 C92.9699918,130.271439 93.5614927,128.152729 94,126 L100.46,98.06 C100.99,95.2 101.4,93.06 101.52,91.81 C101.708666,90.6904885 101.779053,89.5542374 101.73,88.42 L101.73,87.15 L116.33,87.15 L107.58,126 C106.94,128.76 106.52,130.87 106.31,132.36 C106.044584,133.891558 105.940681,135.446747 106,137 L90.43,137 Z" id="Shape" fill="#4D4848" sketch:type="MSShapeGroup"></path>
            <path d="M283.83,0.9 C277.839403,0.902197621 272.292157,4.05725739 269.228136,9.20497788 C266.164114,14.3526984 266.035656,20.7331246 268.89,26 C267.2,26.84 263.26,28.82 257.74,31.69 C255.732888,27.4855359 251.577163,24.7246388 246.923423,24.5039001 C242.269683,24.2831614 237.871291,26.638315 235.475228,30.6339253 C233.079166,34.6295356 233.073315,39.6187811 235.46,43.62 C232.62,45.18 229.68,46.83 226.66,48.54 C224.256785,44.8511976 219.71159,43.1851863 215.493731,44.4470774 C211.275872,45.7089684 208.392461,49.5974555 208.41,54 C208.407864,55.5688188 208.781629,57.1153171 209.5,58.51 C206.373333,60.37 203.226667,62.2766667 200.06,64.23 C197.904443,62.40143 194.882665,61.9924012 192.318553,63.1821151 C189.75444,64.3718291 188.115587,66.9433281 188.12,69.77 C188.120427,70.3983468 188.204499,71.0238406 188.37,71.63 C176.276098,79.3502061 164.679862,87.8236078 153.65,97 C142.17,71.32 125.23,43.13 101.65,20.18 L101.58,20.12 C98.83,17.4 96.58,18.6 99.71,21.98 L99.83,22.11 C119.83,43.64 135.55,74.79 146.26,103.2 C105.63,137.89 60.85,205.11 109.94,226.2 C117.08,229.28 120.34,223.4 117.26,221.59 C116.71,221.26 94.85,209.45 108.75,173.14 L143.75,173.14 C145.553492,173.042084 146.965677,171.551148 146.965677,169.745 C146.965677,167.938852 145.553492,166.447916 143.75,166.35 L111.66,166.35 C113.736333,161.949806 116.046293,157.663696 118.58,153.51 L143.74,153.51 C145.543492,153.412084 146.955677,151.921148 146.955677,150.115 C146.955677,148.308852 145.543492,146.817916 143.74,146.72 L122.91,146.72 C125.503333,142.833333 128.43,138.763333 131.69,134.51 L143.74,134.51 C145.543492,134.412084 146.955677,132.921148 146.955677,131.115 C146.955677,129.308852 145.543492,127.817916 143.74,127.72 L137.08,127.72 C140.88,123.08 145.08,118.23 149.71,113.15 L149.83,113.02 C159.06,139.74 163.51,162.52 162.53,170.11 C162.299546,172.829819 160.686498,175.239947 158.26,176.49 C156.54,177.3 155.84,179.67 158.53,180.49 C167.13,183.02 172.42,174.49 173.37,167.64 C174.32,160.79 169.63,135.45 157.22,105.3 C168.02019,94.7570586 179.559543,84.9989028 191.75,76.1 C194.219329,77.5261149 197.294855,77.3746025 199.612056,75.7126845 C201.929256,74.0507666 203.05898,71.1862354 202.5,68.39 C205.74,66.13 208.97,63.93 212.16,61.81 C215.488793,64.5010082 220.168263,64.7533385 223.767125,62.435889 C227.365988,60.1184395 229.072493,55.7539287 228,51.61 C231.18,49.61 234.27,47.75 237.24,45.97 C240.809261,49.708843 246.294199,50.9000017 251.092737,48.9783856 C255.891274,47.0567694 259.037963,42.4090005 259.04,37.24 C259.03483,36.0387874 258.863197,34.8440877 258.53,33.69 C263.93,30.69 267.87,28.56 269.79,27.46 C274.341543,34.1526968 282.980455,36.7084379 290.440653,33.5693021 C297.900852,30.4301662 302.113448,22.4667095 300.510541,14.5332725 C298.907634,6.59983559 291.933746,0.896546683 283.84,0.9 L283.83,0.9 Z" id="Shape" fill="#F47D20" sketch:type="MSShapeGroup"></path>
            <path d="M54,137 L10.69,137 C6.35,137 3.39,136.05 1.8,134 C0.886497541,132.586428 0.442085146,130.920757 0.53,129.24 C0.556634273,127.416641 0.805128593,125.603304 1.27,123.84 L6.67,100.34 C7.83,95.58 9.52,92.19 11.86,90.17 C14.2,88.15 17.57,87.17 22.02,87.17 L54.02,87.17 C58.57,87.17 61.54,88.17 63.02,90.17 C64.0349907,91.5859729 64.5231392,93.3121789 64.4,95.05 C64.382763,96.8385706 64.1306051,98.6171244 63.65,100.34 L60.16,115.91 L16.62,115.91 L14.29,126 C14.1124757,126.802462 14.0054019,127.618899 13.97,128.44 C13.97,128.97 13.97,129.39 14.19,129.6 C14.5,130.24 15.45,130.6 16.94,130.6 L48.69,130.6 C51.4687712,130.616493 54.241296,130.334882 56.96,129.76 L54,137 Z M50.6,98.1 C50.8724641,97.2803253 51.0174864,96.4236821 51.03,95.56 C51.0183575,95.1975693 50.947418,94.839494 50.82,94.5 C50.39,93.86 49.34,93.55 47.82,93.55 L25.41,93.55 C24.2664211,93.4372588 23.12434,93.7784465 22.23,94.5 C21.3103605,95.4769188 20.7833917,96.7587349 20.75,98.1 L18.1,109.53 L48,109.53 L50.6,98.1 Z" id="Shape" fill="#4D4848" sketch:type="MSShapeGroup"></path>
            <path d="M64.78,137 C65.46,135.46 66.02,133.8 66.69,131.78 C67.4888813,129.493986 68.1271012,127.15496 68.6,124.78 L79.72,73.28 C80.39,70.07 80.84,67.7 81.07,66.28 C81.3,64.86 81.29,63.2 81.29,61.06 L96.79,61.06 L83,124.72 C82.33,127.81 81.87,130.19 81.65,131.85 C81.3716007,133.534958 81.2577314,135.242998 81.31,136.95 L64.78,137 Z" id="Shape" fill="#4D4848" sketch:type="MSShapeGroup"></path>
            <path d="M243.4,95.56 C241.81,95.45 240.22,95.34 238.4,95.34 L231.31,95.34 C230.18906,95.2715188 229.076303,95.5698923 228.14,96.19 C227.186165,97.0481785 226.5516,98.2044973 226.34,99.47 L220.43,126 C219.5389,129.173644 219.04183,132.444906 218.95,135.74 L218.95,137 L203.49,137 C204.130118,135.51297 204.694181,133.994341 205.18,132.45 C205.61,131.07 206.18,128.95 206.88,126.09 L213.23,98.15 C213.97,95.39 214.29,93.28 214.61,91.69 C214.784669,90.2134598 214.854844,88.7264274 214.82,87.24 L227.82,87.24 L227.29,92.32 C228.00387,90.7671942 229.140587,89.4468003 230.57,88.51 C232.286647,87.5762174 234.228555,87.1366055 236.18,87.24 L248.89,87.24 L251.95,92.74 C251.279208,93.3364166 250.678657,94.007423 250.16,94.74 C249.42,95.69 248.89,96.11 248.57,96.11 C246.69,95.88 245,95.66 243.4,95.56 L243.4,95.56 Z" id="Shape" fill="#4D4848" sketch:type="MSShapeGroup"></path>
            <path d="M174.9,137 C175.53,135.62 176.06,134.14 176.69,132.34 C177.445268,130.304551 178.046952,128.215369 178.49,126.09 L185,98.1 C185.52,95.24 185.94,93.1 186.05,91.85 C186.238666,90.7304885 186.309053,89.5942374 186.26,88.46 L186.26,87.19 L200.87,87.19 L192.05,126 C191.41,128.76 190.99,130.87 190.78,132.36 C190.517465,133.861665 190.410233,135.38637 190.46,136.91 L174.9,137 Z" id="Shape" fill="#4D4848" sketch:type="MSShapeGroup"></path>
            <path d="M118.82,69.79 C118.82,72.6899943 117.073086,75.3044365 114.39384,76.4142162 C111.714595,77.523996 108.63065,76.9105613 106.580044,74.8599556 C104.529439,72.80935 103.916004,69.7254052 105.025784,67.0461598 C106.135564,64.3669144 108.750006,62.62 111.65,62.62 C115.609882,62.62 118.82,65.8301183 118.82,69.79 L118.82,69.79 Z" id="Shape" fill="#4D4848" sketch:type="MSShapeGroup"></path>
            <path d="M146.69,207.18 L146.61,207.18 L142.34,224.35 C141.59,227.35 141.58,227.86 142.14,229.1 L135.78,229.1 C136.95,227.86 137.21,227.32 137.95,224.35 L142.17,207.35 C142.91,204.35 142.92,203.83 142.36,202.59 L156.55,202.59 L161.93,224.18 L162.05,224.18 L166.24,207.35 C166.98,204.35 166.99,203.83 166.43,202.59 L172.8,202.59 C171.63,203.83 171.37,204.37 170.63,207.35 L165.22,229.06 L152.15,229.06 L146.69,207.18 Z" id="Shape" fill="#4D4848" sketch:type="MSShapeGroup"></path>
            <path d="M173.92,210.41 C175.35,204.7 178.26,202.63 182.56,202.63 L197.7,202.63 C202,202.63 203.88,204.7 202.46,210.41 L199.74,221.33 C198.32,227.03 195.41,229.1 191.11,229.1 L176,229.1 C171.7,229.1 169.82,227.03 171.24,221.33 L173.92,210.41 Z M180.92,223.02 C180.6,224.3 181.16,224.72 182.48,224.72 L186.86,224.72 C188.19,224.72 188.95,224.3 189.27,223.02 L192.83,208.71 C193.15,207.43 192.59,207.02 191.27,207.02 L186.89,207.02 C185.56,207.02 184.8,207.43 184.48,208.71 L180.92,223.02 Z" id="Shape" fill="#4D4848" sketch:type="MSShapeGroup"></path>
            <path d="M214.81,217.6 L213.08,224.55 C212.45,227.08 212.54,228.07 212.78,229.1 L201,229.1 C202.000212,227.752954 202.68383,226.197723 203,224.55 L207.32,207.18 C207.95,204.66 207.87,203.67 207.38,202.63 L229.14,202.63 C233.77,202.63 235.65,204.04 234.55,208.46 L233.34,213.34 C232.34,217.23 230.41,217.44 228.22,217.6 L229.97,225.05 C230.163525,226.450363 230.561076,227.814839 231.15,229.1 L219.85,229.1 L217.91,217.6 L214.81,217.6 Z M215.9,213.22 L221.61,213.22 C222.89,213.22 223.32,213.01 223.61,211.73 L224.41,208.51 C224.73,207.22 224.41,207.02 223.12,207.02 L217.42,207.02 L215.9,213.22 Z" id="Shape" fill="#4D4848" sketch:type="MSShapeGroup"></path>
            <path d="M256.84,211.57 L256.76,211.57 L248.14,229.1 L238.5,229.1 L238.32,206.1 C238.331161,204.901236 238.042404,203.718707 237.48,202.66 L249.48,202.66 C249.106062,203.179497 248.846988,203.77264 248.72,204.4 C248.504594,205.253192 248.397088,206.130041 248.4,207.01 L248.29,219.74 L248.37,219.74 L256.76,202.66 L266.85,202.66 L266.93,219.79 L267,219.79 L273.2,207 C273.630867,206.170573 273.966341,205.294986 274.2,204.39 C274.39156,203.828683 274.41244,203.223179 274.26,202.65 L280.67,202.65 C279.428008,203.760246 278.439029,205.124356 277.77,206.65 L266.77,229.11 L257,229.11 L256.84,211.57 Z" id="Shape" fill="#4D4848" sketch:type="MSShapeGroup"></path>
            <path d="M283.24,222 L280.55,225.64 C280.19231,226.106065 279.933681,226.640338 279.79,227.21 C279.55273,227.828912 279.589072,228.519414 279.89,229.11 L272.41,229.11 C273.989782,227.67381 275.402088,226.06358 276.62,224.31 L291.28,204.13 L290.49,202.64 L302.49,202.64 L306.23,225.47 C306.448212,226.766419 306.927944,228.004878 307.64,229.11 L294.33,229.11 C295.07,228.11 295.2,227.95 295.33,227.38 C295.49902,226.727376 295.539773,226.048152 295.45,225.38 L294.85,221.99 L283.24,222 Z M294.24,217.61 L292.7,208.68 L286.43,217.61 L294.24,217.61 Z" id="Shape" fill="#4D4848" sketch:type="MSShapeGroup"></path>
            <path d="M317.87,218.76 L312.72,205.86 C312.366569,204.681926 311.785613,203.584566 311.01,202.63 L324.61,202.63 C324.453738,202.890781 324.329507,203.169461 324.24,203.46 C324.166473,204.496882 324.377387,205.534166 324.85,206.46 L327.66,213.61 L334.03,206.29 C334.970653,205.246689 335.628238,203.979719 335.94,202.61 L343.47,202.61 C341.747207,203.616024 340.227754,204.93537 338.99,206.5 L327.83,219.3 L326.52,224.55 C325.89,227.08 325.97,228.07 326.21,229.1 L314.47,229.1 C315.466082,227.750558 316.149272,226.196301 316.47,224.55 L317.87,218.76 Z" id="Shape" fill="#4D4848" sketch:type="MSShapeGroup"></path>
        </g>
    </g>
</svg>