<?xml version="1.0" encoding="UTF-8"?>
<svg width="380px" height="230px" viewBox="0 0 380 230" version="1.1" xmlns="http://www.w3.org/2000/svg" xmlns:xlink="http://www.w3.org/1999/xlink" xmlns:sketch="http://www.bohemiancoding.com/sketch/ns">
    <!-- Generator: Sketch 3.3.2 (12043) - http://www.bohemiancoding.com/sketch -->
    <title>Nodes</title>
    <desc>Created with Sketch.</desc>
    <defs></defs>
    <g id="Page-1" stroke="none" stroke-width="1" fill="none" fill-rule="evenodd" sketch:type="MSPage">
        <g id="Nodes" sketch:type="MSLayerGroup">
            <path d="M90,137 C90.63,135.62 91.16,134.14 91.8,132.34 C92.5460829,130.30154 93.147573,128.213033 93.6,126.09 L100,98.1 C100.53,95.24 100.94,93.1 101.06,91.85 C101.248666,90.7304885 101.319053,89.5942374 101.27,88.46 L101.27,87.19 L115.87,87.19 L107.11,126 C106.47,128.76 106.05,130.87 105.84,132.36 C105.577465,133.861665 105.470233,135.38637 105.52,136.91 L90,137 Z" id="Shape" fill="#4D4848" sketch:type="MSShapeGroup"></path>
            <path d="M283.36,0.9 C277.369403,0.902197621 271.822157,4.05725739 268.758136,9.20497788 C265.694114,14.3526984 265.565656,20.7331246 268.42,26 C266.73,26.84 262.79,28.82 257.27,31.69 C255.270465,27.4706168 251.109255,24.6957749 246.44544,24.4718009 C241.781625,24.2478269 237.373661,26.6111448 234.978999,30.619502 C232.584337,34.6278593 232.59241,39.6293943 235,43.63 C232.16,45.19 229.22,46.84 226.2,48.55 C223.801221,44.8530573 219.252827,43.1794083 215.029922,44.4398044 C210.807018,45.7002004 207.92004,49.5930594 207.94,54 C207.937864,55.5688188 208.311629,57.1153171 209.03,58.51 C205.903333,60.37 202.756667,62.2766667 199.59,64.23 C197.434443,62.40143 194.412665,61.9924012 191.848553,63.1821151 C189.28444,64.3718291 187.645587,66.9433281 187.65,69.77 C187.650427,70.3983468 187.734499,71.0238406 187.9,71.63 C175.806098,79.3502061 164.209862,87.8236078 153.18,97 C141.7,71.32 124.76,43.13 101.18,20.18 L101.11,20.12 C98.36,17.4 96.11,18.6 99.24,21.98 L99.36,22.11 C119.36,43.64 135.08,74.79 145.79,103.2 C105.16,137.89 60.38,205.11 109.47,226.2 C116.61,229.28 119.87,223.4 116.79,221.59 C116.24,221.26 94.38,209.45 108.28,173.14 L143.28,173.14 C145.083492,173.042084 146.495677,171.551148 146.495677,169.745 C146.495677,167.938852 145.083492,166.447916 143.28,166.35 L111.19,166.35 C113.262389,161.947815 115.572461,157.661496 118.11,153.51 L143.27,153.51 C145.073492,153.412084 146.485677,151.921148 146.485677,150.115 C146.485677,148.308852 145.073492,146.817916 143.27,146.72 L122.44,146.72 C125.026667,142.833333 127.953333,138.763333 131.22,134.51 L143.27,134.51 C145.073492,134.412084 146.485677,132.921148 146.485677,131.115 C146.485677,129.308852 145.073492,127.817916 143.27,127.72 L136.61,127.72 C140.41,123.08 144.61,118.23 149.24,113.15 L149.36,113.02 C158.59,139.74 163.04,162.52 162.06,170.11 C161.829546,172.829819 160.216498,175.239947 157.79,176.49 C156.07,177.3 155.37,179.67 158.06,180.49 C166.66,183.02 171.95,174.49 172.9,167.64 C173.85,160.79 169.16,135.45 156.75,105.3 C167.55019,94.7570586 179.089543,84.9989028 191.28,76.1 C193.75456,77.5161596 196.828955,77.3528042 199.139513,75.6823914 C201.450071,74.0119787 202.569004,71.1437773 202,68.35 C205.24,66.09 208.47,63.89 211.66,61.77 C214.983988,64.439059 219.641553,64.6860147 223.22915,62.3834252 C226.816748,60.0808357 228.532101,55.7436182 227.49,51.61 C230.67,49.61 233.76,47.75 236.73,45.97 C240.299261,49.708843 245.784199,50.9000017 250.582737,48.9783856 C255.381274,47.0567694 258.527963,42.4090005 258.53,37.24 C258.52483,36.0387874 258.353197,34.8440877 258.02,33.69 C263.42,30.69 267.36,28.56 269.28,27.46 C273.831543,34.1526968 282.470455,36.7084379 289.930653,33.5693021 C297.390852,30.4301662 301.603448,22.4667095 300.000541,14.5332725 C298.397634,6.59983559 291.423746,0.896546683 283.33,0.9 L283.36,0.9 Z" id="Shape" fill="#F47D20" sketch:type="MSShapeGroup"></path>
            <path d="M53.52,137 L10.22,137 C5.88,137 2.92,136.05 1.33,134 C0.416497541,132.586428 -0.0279148538,130.920757 0.06,129.24 C0.0866342726,127.416641 0.335128593,125.603304 0.8,123.84 L6.2,100.34 C7.36,95.58 9.05,92.19 11.39,90.17 C13.73,88.15 17.1,87.17 21.55,87.17 L53.55,87.17 C58.1,87.17 61.07,88.17 62.55,90.17 C63.5431537,91.5763227 64.0200453,93.2825348 63.9,95 C63.882763,96.7885706 63.6306051,98.5671244 63.15,100.29 L59.66,115.86 L16.15,115.86 L13.82,126 C13.6424757,126.802462 13.5354019,127.618899 13.5,128.44 C13.5,128.97 13.5,129.39 13.72,129.6 C14.03,130.24 14.98,130.6 16.47,130.6 L48.22,130.6 C50.9987712,130.616493 53.771296,130.334882 56.49,129.76 L53.52,137 Z M50.13,98.15 C50.4024641,97.3303253 50.5474864,96.4736821 50.56,95.61 C50.5483575,95.2475693 50.477418,94.889494 50.35,94.55 C49.92,93.91 48.86,93.6 47.35,93.6 L24.93,93.6 C23.7896533,93.4888584 22.6512706,93.8300141 21.76,94.55 C20.8403605,95.5269188 20.3133917,96.8087349 20.28,98.15 L17.63,109.58 L47.48,109.58 L50.13,98.15 Z" id="Shape" fill="#4D4848" sketch:type="MSShapeGroup"></path>
            <path d="M64.31,137 C64.99,135.46 65.55,133.8 66.22,131.78 C67.0188813,129.493986 67.6571012,127.15496 68.13,124.78 L79.25,73.28 C79.92,70.07 80.37,67.7 80.6,66.28 C80.83,64.86 80.82,63.2 80.82,61.06 L96.32,61.06 L82.51,124.79 C81.84,127.88 81.38,130.26 81.16,131.92 C80.8816007,133.604958 80.7677314,135.312998 80.82,137.02 L64.31,137 Z" id="Shape" fill="#4D4848" sketch:type="MSShapeGroup"></path>
            <path d="M242.93,95.56 C241.34,95.45 239.75,95.34 237.93,95.34 L230.84,95.34 C229.718912,95.2700466 228.605694,95.5685436 227.67,96.19 C226.716165,97.0481785 226.0816,98.2044973 225.87,99.47 L220,126 C219.1089,129.173644 218.61183,132.444906 218.52,135.74 L218.52,137 L203,137 C203.63,135.41 204.27,133.92 204.69,132.45 C205.11,130.98 205.69,128.95 206.39,126.09 L212.74,98.15 C213.48,95.39 213.8,93.28 214.12,91.69 C214.294669,90.2134598 214.364844,88.7264274 214.33,87.24 L227.33,87.24 L226.8,92.32 C227.51387,90.7671942 228.650587,89.4468003 230.08,88.51 C231.796647,87.5762174 233.738555,87.1366055 235.69,87.24 L248.4,87.24 L251.46,92.74 C250.789208,93.3364166 250.188657,94.007423 249.67,94.74 C248.93,95.69 248.4,96.11 248.08,96.11 C246.22,95.88 244.51,95.66 242.93,95.56 L242.93,95.56 Z" id="Shape" fill="#4D4848" sketch:type="MSShapeGroup"></path>
            <path d="M174.43,137 C175.06,135.62 175.59,134.14 176.22,132.34 C176.972818,130.274724 177.567859,128.155308 178,126 L184.47,98.06 C184.99,95.2 185.41,93.06 185.47,91.81 C185.658666,90.6904885 185.729053,89.5542374 185.68,88.42 L185.68,87.15 L200.29,87.15 L191.58,126 C190.94,128.76 190.52,130.87 190.31,132.36 C190.044584,133.891558 189.940681,135.446747 190,137 L174.43,137 Z" id="Shape" fill="#4D4848" sketch:type="MSShapeGroup"></path>
            <path d="M118.35,69.79 C118.35,72.6899943 116.603086,75.3044365 113.92384,76.4142162 C111.244595,77.523996 108.16065,76.9105613 106.110044,74.8599556 C104.059439,72.80935 103.446004,69.7254052 104.555784,67.0461598 C105.665564,64.3669144 108.280006,62.62 111.18,62.62 C115.139882,62.62 118.35,65.8301183 118.35,69.79 L118.35,69.79 Z" id="Shape" fill="#4D4848" sketch:type="MSShapeGroup"></path>
            <path d="M147.52,224.55 C146.89,227.08 146.98,228.07 147.22,229.1 L135.47,229.1 C136.466082,227.750558 137.149272,226.196301 137.47,224.55 L141.79,207.18 C142.42,204.66 142.34,203.67 141.85,202.63 L163.52,202.63 C167.45,202.63 169.95,203.71 168.62,209.08 L167.62,213.22 C166.28,218.6 163.24,219.67 159.31,219.67 L148.81,219.67 L147.52,224.55 Z M149.83,215.29 L155.12,215.29 C156.56,215.29 157.04,214.87 157.51,213.01 L158.43,209.29 C158.9,207.43 158.64,206.98 157.18,207.02 L151.89,207.02 L149.83,215.29 Z" id="Shape" fill="#4D4848" sketch:type="MSShapeGroup"></path>
            <path d="M171.18,210.41 C172.6,204.7 175.51,202.63 179.82,202.63 L195,202.63 C199.3,202.63 201.19,204.7 199.77,210.41 L197,221.33 C195.58,227.03 192.67,229.1 188.36,229.1 L173.23,229.1 C168.93,229.1 167.04,227.03 168.46,221.33 L171.18,210.41 Z M178.13,223 C177.81,224.28 178.37,224.7 179.7,224.7 L184.08,224.7 C185.4,224.7 186.17,224.28 186.49,223 L190.05,208.69 C190.37,207.41 189.81,207 188.48,207 L184.1,207 C182.78,207 182.01,207.41 181.69,208.69 L178.13,223 Z" id="Shape" fill="#4D4848" sketch:type="MSShapeGroup"></path>
            <path d="M212.07,217.6 L210.34,224.55 C209.71,227.08 209.79,228.07 210.03,229.1 L198.29,229.1 C199.286082,227.750558 199.969272,226.196301 200.29,224.55 L204.61,207.18 C205.24,204.66 205.15,203.67 204.67,202.63 L226.42,202.63 C231.05,202.63 232.94,204.04 231.84,208.46 L230.62,213.34 C229.62,217.23 227.7,217.44 225.51,217.6 L227.25,225.05 C227.446281,226.450972 227.847224,227.815529 228.44,229.1 L217.11,229.1 L215.17,217.6 L212.07,217.6 Z M213.16,213.22 L218.87,213.22 C220.15,213.22 220.57,213.01 220.87,211.73 L221.67,208.51 C221.99,207.22 221.67,207.02 220.39,207.02 L214.7,207.02 L213.16,213.22 Z" id="Shape" fill="#4D4848" sketch:type="MSShapeGroup"></path>
            <path d="M261.62,202.63 L261.08,208.09 C260.101937,207.289576 258.848624,206.905322 257.59,207.02 L253,207.02 L248.63,224.55 C248,227.08 248.09,228.07 248.33,229.1 L236.58,229.1 C237.580212,227.752954 238.26383,226.197723 238.58,224.55 L242.91,207 L238.32,207 C236.910659,206.95731 235.519801,207.329364 234.32,208.07 L236.51,202.61 L261.62,202.63 Z" id="Shape" fill="#4D4848" sketch:type="MSShapeGroup"></path>
            <path d="M279.69,224.72 C282.5,224.72 282.78,224.43 283.37,222.07 L287,207.39 C287.74,204.39 287.75,203.87 287.19,202.63 L293.56,202.63 C292.39,203.87 292.13,204.41 291.39,207.39 L288,220.91 C286.5,226.91 284.31,229.1 278.56,229.1 L265.2,229.1 C260.03,229.1 258.54,226.46 259.92,220.91 L263.33,207.18 C263.96,204.66 263.88,203.67 263.64,202.63 L275.38,202.63 C274.401989,203.984065 273.73604,205.537947 273.43,207.18 L269.68,222.24 C269.25,223.97 269.81,224.72 271.58,224.72 L279.69,224.72 Z" id="Shape" fill="#4D4848" sketch:type="MSShapeGroup"></path>
            <path d="M322.58,213.22 C321.407928,214.327822 320.61382,215.776107 320.31,217.36 L318.69,223.89 C317.87,227.16 317.91,227.7 318.46,229.1 L309.57,229.1 L309.85,226.66 L309.77,226.66 C308.93,228.19 308.33,229.1 305.48,229.1 L296.55,229.1 C292.24,229.1 290.36,227.03 291.78,221.33 L294.5,210.41 C295.92,204.7 298.83,202.63 303.13,202.63 L322.49,202.63 L322.01,207.72 C320.784299,207.202767 319.459174,206.963698 318.13,207.02 L307.42,207.02 C306.1,207.02 305.33,207.43 305.01,208.71 L301.45,223 C301.13,224.28 301.69,224.7 303.01,224.7 L306.4,224.7 C307.73,224.7 308.49,224.28 308.81,223 L310.16,217.58 L306.4,217.58 C305.762816,217.603588 305.139803,217.774745 304.58,218.08 L305.79,213.2 L322.58,213.22 Z" id="Shape" fill="#4D4848" sketch:type="MSShapeGroup"></path>
            <path d="M329.5,222 L326.81,225.64 C326.45231,226.106065 326.193681,226.640338 326.05,227.21 C325.81273,227.828912 325.849072,228.519414 326.15,229.11 L318.67,229.11 C320.247074,227.671153 321.6591,226.061242 322.88,224.31 L337.54,204.13 L336.75,202.64 L348.75,202.64 L352.49,225.47 C352.708212,226.766419 353.187944,228.004878 353.9,229.11 L340.59,229.11 C341.33,228.11 341.46,227.95 341.59,227.38 C341.75902,226.727376 341.799773,226.048152 341.71,225.38 L341.11,221.99 L329.5,222 Z M340.5,217.61 L338.96,208.68 L332.69,217.61 L340.5,217.61 Z" id="Shape" fill="#4D4848" sketch:type="MSShapeGroup"></path>
            <path d="M375.38,224.72 C376.944735,224.759549 378.49974,224.462871 379.94,223.85 L377.77,229.1 L354.94,229.1 C355.936082,227.750558 356.619272,226.196301 356.94,224.55 L361.26,207.18 C361.89,204.66 361.8,203.67 361.56,202.63 L373.31,202.63 C372.317947,203.981771 371.635168,205.535092 371.31,207.18 L367,224.72 L375.38,224.72 Z" id="Shape" fill="#4D4848" sketch:type="MSShapeGroup"></path>
        </g>
    </g>
</svg>