<?xml version="1.0" encoding="UTF-8"?>
<svg width="328px" height="230px" viewBox="0 0 328 230" version="1.1" xmlns="http://www.w3.org/2000/svg" xmlns:xlink="http://www.w3.org/1999/xlink" xmlns:sketch="http://www.bohemiancoding.com/sketch/ns">
    <!-- Generator: Sketch 3.3.2 (12043) - http://www.bohemiancoding.com/sketch -->
    <title>Nodes</title>
    <desc>Created with Sketch.</desc>
    <defs></defs>
    <g id="Page-1" stroke="none" stroke-width="1" fill="none" fill-rule="evenodd" sketch:type="MSPage">
        <g id="Nodes" sketch:type="MSLayerGroup">
            <path d="M90.78,137 C91.41,135.62 91.95,134.14 92.58,132.34 C93.3306694,130.303041 93.932255,128.214202 94.38,126.09 L100.84,98.15 C101.37,95.29 101.79,93.15 101.9,91.9 C102.088666,90.7804885 102.159053,89.6442374 102.11,88.51 L102.11,87.24 L116.72,87.24 L107.93,126 C107.29,128.76 106.88,130.87 106.66,132.36 C106.397465,133.861665 106.290233,135.38637 106.34,136.91 L90.78,137 Z" id="Shape" fill="#4D4848" sketch:type="MSShapeGroup"></path>
            <path d="M284.18,0.9 C278.189403,0.902197621 272.642157,4.05725739 269.578136,9.20497788 C266.514114,14.3526984 266.385656,20.7331246 269.24,26 C267.55,26.84 263.61,28.82 258.09,31.69 C256.052757,27.5405502 251.912895,24.834146 247.294704,24.6326533 C242.676512,24.4311606 238.316669,26.766721 235.925772,30.7229701 C233.534875,34.6792193 233.494313,39.625069 235.82,43.62 C232.98,45.18 230.03,46.83 227.01,48.54 C225.223672,45.4746612 221.937698,43.595166 218.389873,43.609502 C214.842048,43.623838 211.57137,45.5298273 209.809873,48.609502 C208.048376,51.6891768 208.063672,55.4746612 209.85,58.54 C206.723333,60.4 203.58,62.3066667 200.42,64.26 C198.262315,62.4339599 195.240939,62.0262927 192.676457,63.2151822 C190.111975,64.4040717 188.470699,66.9733369 188.47,69.8 C188.470427,70.4283468 188.554499,71.0538406 188.72,71.66 C176.626937,79.370523 165.03072,87.8338912 154,97 C142.52,71.32 125.59,43.13 102,20.18 L101.93,20.12 C99.17,17.4 96.93,18.6 100.06,21.98 L100.18,22.11 C120.18,43.64 135.9,74.79 146.61,103.2 C105.98,137.89 61.19,205.11 110.28,226.2 C117.43,229.28 120.68,223.4 117.61,221.59 C117.06,221.26 95.19,209.45 109.09,173.14 L144.09,173.14 C145.346883,173.208239 146.538623,172.576494 147.187594,171.497955 C147.836566,170.419416 147.836566,169.070584 147.187594,167.992045 C146.538623,166.913506 145.346883,166.281761 144.09,166.35 L112,166.35 C114.079979,161.949787 116.393268,157.663694 118.93,153.51 L144.08,153.51 C145.336883,153.578239 146.528623,152.946494 147.177594,151.867955 C147.826566,150.789416 147.826566,149.440584 147.177594,148.362045 C146.528623,147.283506 145.336883,146.651761 144.08,146.72 L123.26,146.72 C125.86,142.83 128.77,138.77 132.05,134.51 L144.05,134.51 C145.306883,134.578239 146.498623,133.946494 147.147594,132.867955 C147.796566,131.789416 147.796566,130.440584 147.147594,129.362045 C146.498623,128.283506 145.306883,127.651761 144.05,127.72 L137.39,127.72 C141.19,123.08 145.39,118.23 150.02,113.15 L150.14,113.02 C159.37,139.74 163.82,162.52 162.85,170.11 C162.621232,172.833225 161.002988,175.245467 158.57,176.49 C156.86,177.3 156.15,179.67 158.85,180.49 C167.44,183.02 172.73,174.49 173.68,167.64 C174.63,160.79 169.94,135.45 157.53,105.3 C168.331604,94.7547133 179.874455,84.9964261 192.07,76.1 C194.538797,77.5198999 197.609785,77.3651676 199.923357,75.704307 C202.23693,74.0434463 203.365726,71.1832496 202.81,68.39 C206.05,66.13 209.28,63.93 212.47,61.81 C215.793988,64.479059 220.451553,64.7260147 224.03915,62.4234252 C227.626748,60.1208357 229.342101,55.7836182 228.3,51.65 C231.49,49.65 234.58,47.79 237.54,46.01 C241.568128,50.2251682 247.955479,51.141254 253.005956,48.2281561 C258.056433,45.3150581 260.46173,39.3274024 258.83,33.73 C264.23,30.73 268.17,28.6 270.09,27.5 C274.641543,34.1926968 283.280455,36.7484379 290.740653,33.6093021 C298.200852,30.4701662 302.413448,22.5067095 300.810541,14.5732725 C299.207634,6.63983559 292.233746,0.936546683 284.14,0.94 L284.18,0.9 Z" id="Shape" fill="#F47D20" sketch:type="MSShapeGroup"></path>
            <path d="M54.34,137 L11.05,137 C6.71,137 3.75,136.05 2.15,134 C1.23649754,132.586428 0.792085146,130.920757 0.88,129.24 C0.906634273,127.416641 1.15512859,125.603304 1.62,123.84 L7,100.32 C8.16,95.56 9.85,92.17 12.18,90.15 C14.51,88.13 17.9,87.15 22.34,87.15 L54.34,87.15 C58.9,87.15 61.86,88.15 63.34,90.15 C64.3549907,91.5659729 64.8431392,93.2921789 64.72,95.03 C64.7065992,96.8181706 64.4577939,98.5967918 63.98,100.32 L60.48,115.89 L17,115.89 L14.64,126 C14.4646127,126.802548 14.3608716,127.619091 14.33,128.44 C14.33,128.97 14.33,129.39 14.54,129.6 C14.85,130.24 15.81,130.6 17.3,130.6 L49.05,130.6 C51.8254671,130.616548 54.5946834,130.334932 57.31,129.76 L54.34,137 Z M51,98.1 C51.2650462,97.2788124 51.406592,96.4227971 51.42,95.56 C51.4083575,95.1975693 51.337418,94.839494 51.21,94.5 C50.78,93.86 49.73,93.55 48.21,93.55 L25.76,93.55 C24.6164211,93.4372588 23.47434,93.7784465 22.58,94.5 C21.6643436,95.4794817 21.1380256,96.7597146 21.1,98.1 L18.46,109.53 L48.31,109.53 L51,98.1 Z" id="Shape" fill="#4D4848" sketch:type="MSShapeGroup"></path>
            <path d="M65.14,137 C65.81,135.46 66.37,133.8 67.05,131.78 C67.8451209,129.49362 68.4799912,127.154624 68.95,124.78 L80.08,73.28 C80.75,70.07 81.2,67.7 81.42,66.28 C81.64,64.86 81.65,63.2 81.65,61.06 L97.14,61.06 L83.33,124.79 C82.6633333,127.876667 82.2133333,130.253333 81.98,131.92 C81.7097087,133.605822 81.5992183,135.313402 81.65,137.02 L65.14,137 Z" id="Shape" fill="#4D4848" sketch:type="MSShapeGroup"></path>
            <path d="M243.75,95.56 C242.16,95.45 240.58,95.34 238.75,95.34 L231.65,95.34 C230.529208,95.2729785 229.416905,95.57123 228.48,96.19 C227.52928,97.050643 226.895352,98.2058016 226.68,99.47 L220.78,126 C219.893901,129.17472 219.396924,132.445365 219.3,135.74 L219.3,137 L203.85,137 C204.48,135.41 205.12,133.92 205.54,132.45 C205.96,130.98 206.49,128.95 207.23,126.09 L213.58,98.15 C214.32,95.39 214.64,93.28 214.96,91.69 C215.142983,90.2141226 215.216517,88.7267291 215.18,87.24 L228.18,87.24 L227.66,92.32 C228.369226,90.7642173 229.506953,89.4426507 230.94,88.51 C232.655711,87.5737358 234.598331,87.1339627 236.55,87.24 L249.25,87.24 L252.32,92.74 C251.648438,93.3386065 251.044804,94.0093115 250.52,94.74 C249.78,95.69 249.25,96.11 248.93,96.11 C247,95.88 245.34,95.66 243.75,95.56 L243.75,95.56 Z" id="Shape" fill="#4D4848" sketch:type="MSShapeGroup"></path>
            <path d="M175.25,137 C175.88,135.62 176.41,134.14 177.05,132.34 C177.800669,130.303041 178.402255,128.214202 178.85,126.09 L185.31,98.15 C185.84,95.29 186.26,93.15 186.36,91.9 C186.557558,90.7815026 186.631336,89.6446499 186.58,88.51 L186.58,87.24 L201.18,87.24 L192.4,126 C191.77,128.76 191.34,130.87 191.13,132.36 C190.867465,133.861665 190.760233,135.38637 190.81,136.91 L175.25,137 Z" id="Shape" fill="#4D4848" sketch:type="MSShapeGroup"></path>
            <path d="M119.17,69.79 C119.169997,72.6909037 117.421999,75.3059763 114.741526,76.4151676 C112.061052,77.5243589 108.976324,76.909089 106.926508,74.8564094 C104.876691,72.8037298 104.265727,69.7181462 105.378658,67.0392236 C106.491589,64.360301 109.109099,62.6159541 112.01,62.62 C115.965976,62.6255174 119.170004,65.8340203 119.17,69.79 L119.17,69.79 Z" id="Shape" fill="#4D4848" sketch:type="MSShapeGroup"></path>
            <path d="M167.18,207.89 C165.989374,207.253831 164.648269,206.95312 163.3,207.02 L153.91,207.02 C152.34,207.02 151.91,207.22 151.68,208.18 L151.31,209.66 C151.06,210.66 151.39,210.82 152.96,210.82 L160.12,210.82 C164.42,210.82 166.36,212.31 165.41,216.16 L163.8,222.61 C162.8,226.79 160.7,229.1 155.86,229.1 L137.66,229.1 L138.13,223.73 C139.238932,224.435063 140.537016,224.78401 141.85,224.73 L151.61,224.73 C153.18,224.73 153.56,224.56 153.8,223.57 L154.26,221.75 C154.49,220.8 154.26,220.59 152.64,220.59 L144.41,220.59 C140.41,220.59 139.16,219.27 140.26,214.84 L141.73,208.93 C142.73,204.79 145.32,202.64 148.88,202.64 L167.61,202.64 L167.18,207.89 Z" id="Shape" fill="#4D4848" sketch:type="MSShapeGroup"></path>
            <path d="M189.05,211.57 L189,211.57 L180.38,229.1 L170.7,229.1 L170.52,206.1 C170.531161,204.901236 170.242404,203.718707 169.68,202.66 L181.68,202.66 C181.310187,203.181837 181.051508,203.774076 180.92,204.4 C180.704594,205.253192 180.597088,206.130041 180.6,207.01 L180.49,219.74 L180.58,219.74 L189,202.63 L199,202.63 L199.09,219.76 L199.17,219.76 L205.37,206.98 C205.79215,206.146681 206.127255,205.272057 206.37,204.37 C206.552536,203.807061 206.573325,203.204176 206.43,202.63 L212.84,202.63 C211.594953,203.737484 210.605453,205.102311 209.94,206.63 L199,229.1 L189.24,229.1 L189.05,211.57 Z" id="Shape" fill="#4D4848" sketch:type="MSShapeGroup"></path>
            <path d="M227.54,224.72 C229.14123,224.749473 230.736245,224.512924 232.26,224.02 L230.09,229.1 L206.76,229.1 C207.760212,227.752954 208.44383,226.197723 208.76,224.55 L213,207.18 C213.63,204.66 213.55,203.67 213.31,202.63 L236.22,202.63 L235.78,207.72 C234.367824,207.208605 232.871123,206.971034 231.37,207.02 L223.14,207.02 L221.59,213.22 L228.79,213.22 C230.390757,213.242267 231.984606,213.005891 233.51,212.52 L232.07,218.31 C230.671669,217.797852 229.188545,217.556886 227.7,217.6 L220.5,217.6 L218.73,224.72 L227.54,224.72 Z" id="Shape" fill="#4D4848" sketch:type="MSShapeGroup"></path>
            <path d="M239.1,207.18 C239.73,204.66 239.64,203.67 239.4,202.63 L260,202.63 C265.62,202.63 267.07,204.78 265.73,210.16 L262.89,221.57 C261.55,226.95 259.03,229.1 253.41,229.1 L232.81,229.1 C233.815063,227.755779 234.499191,226.199388 234.81,224.55 L239.1,207.18 Z M244.82,224.72 L250.08,224.72 C251.73,224.72 252.08,224.35 252.51,222.57 L255.85,209.17 C256.29,207.39 256.14,207.02 254.48,207.02 L249.23,207.02 L244.82,224.72 Z" id="Shape" fill="#4D4848" sketch:type="MSShapeGroup"></path>
            <path d="M285,224.72 C286.60123,224.749473 288.196245,224.512924 289.72,224.02 L287.55,229.1 L264.2,229.1 C265.200212,227.752954 265.88383,226.197723 266.2,224.55 L270.52,207.18 C271.15,204.66 271.07,203.67 270.83,202.63 L293.7,202.63 L293.26,207.72 C291.847824,207.208605 290.351123,206.971034 288.85,207.02 L280.62,207.02 L279.07,213.22 L286.27,213.22 C287.870757,213.242267 289.464606,213.005891 290.99,212.52 L289.55,218.31 C288.151669,217.797852 286.668545,217.556886 285.18,217.6 L278,217.6 L276.23,224.72 L285,224.72 Z" id="Shape" fill="#4D4848" sketch:type="MSShapeGroup"></path>
            <path d="M301,207.18 L300.92,207.18 L296.65,224.35 C295.91,227.35 295.9,227.86 296.46,229.1 L290.09,229.1 C291.27,227.86 291.52,227.32 292.27,224.35 L296.49,207.35 C297.23,204.35 297.24,203.83 296.68,202.59 L310.86,202.59 L316.24,224.18 L316.37,224.18 L320.56,207.35 C321.3,204.35 321.31,203.83 320.75,202.59 L327.12,202.59 C325.94,203.83 325.68,204.37 324.94,207.35 L319.54,229.06 L306.47,229.06 L301,207.18 Z" id="Shape" fill="#4D4848" sketch:type="MSShapeGroup"></path>
        </g>
    </g>
</svg>