<?xml version="1.0" encoding="UTF-8" standalone="no"?>
<svg
   xmlns:dc="http://purl.org/dc/elements/1.1/"
   xmlns:cc="http://creativecommons.org/ns#"
   xmlns:rdf="http://www.w3.org/1999/02/22-rdf-syntax-ns#"
   xmlns:svg="http://www.w3.org/2000/svg"
   xmlns="http://www.w3.org/2000/svg"
   xmlns:sodipodi="http://sodipodi.sourceforge.net/DTD/sodipodi-0.dtd"
   xmlns:inkscape="http://www.inkscape.org/namespaces/inkscape"
   width="500"
   height="300"
   viewBox="0 100 500 300"
   version="1.1"
   id="svg5707"
   sodipodi:docname="SE.svg"
   inkscape:version="0.92.3 (2405546, 2018-03-11)">
  <metadata
     id="metadata5711">
    <rdf:RDF>
      <cc:Work
         rdf:about="">
        <dc:format>image/svg+xml</dc:format>
        <dc:type
           rdf:resource="http://purl.org/dc/dcmitype/StillImage" />
      </cc:Work>
    </rdf:RDF>
  </metadata>
  <sodipodi:namedview
     pagecolor="#ffffff"
     bordercolor="#666666"
     borderopacity="1"
     objecttolerance="10"
     gridtolerance="10"
     guidetolerance="10"
     inkscape:pageopacity="0"
     inkscape:pageshadow="2"
     inkscape:window-width="2560"
     inkscape:window-height="1247"
     id="namedview5709"
     showgrid="false"
     inkscape:zoom="16.653779"
     inkscape:cx="175.25379"
     inkscape:cy="263.10967"
     inkscape:window-x="0"
     inkscape:window-y="0"
     inkscape:window-maximized="1"
     inkscape:current-layer="svg5707" />
  <defs
     id="defs5678">
    <style
       id="style5676">.cls-1{fill:#4d4848;}.cls-2{fill:#f47d20;}</style>
  </defs>
  <g
     id="Nodes"
     transform="translate(-76.869078,-25.879908)">
    <path
       class="cls-1"
       d="m 176.78,272 c 0.63,-1.38 1.17,-2.86 1.8,-4.66 a 44.79,44.79 0 0 0 1.8,-6.25 l 6.46,-27.94 c 0.53,-2.86 0.95,-5 1.06,-6.25 a 16.19,16.19 0 0 0 0.21,-3.39 v -1.27 h 14.61 L 193.93,261 c -0.64,2.76 -1.05,4.87 -1.27,6.36 a 22.21,22.21 0 0 0 -0.32,4.55 z"
       id="path5680"
       inkscape:connector-curvature="0"
       style="fill:#4d4848" />
    <path
       class="cls-2"
       d="M 370.18,135.9 A 17,17 0 0 0 355.24,161 c -1.69,0.84 -5.63,2.82 -11.15,5.69 a 12.64,12.64 0 1 0 -22.27,11.93 c -2.84,1.56 -5.79,3.21 -8.81,4.92 a 9.930579,9.930579 0 0 0 -17.16,10 q -4.69,2.79 -9.43,5.72 a 7.26,7.26 0 0 0 -11.95,5.54 7.08,7.08 0 0 0 0.25,1.86 A 342.1,342.1 0 0 0 240,232 c -11.48,-25.68 -28.41,-53.87 -52,-76.82 l -0.07,-0.06 c -2.76,-2.72 -5,-1.52 -1.87,1.86 l 0.12,0.13 c 20,21.53 35.72,52.68 46.43,81.09 -40.63,34.69 -85.42,101.91 -36.33,123 7.15,3.08 10.4,-2.8 7.33,-4.61 -0.55,-0.33 -22.42,-12.14 -8.52,-48.45 h 35 a 3.4,3.4 0 1 0 0,-6.79 H 198 a 136.82,136.82 0 0 1 6.93,-12.84 h 25.15 a 3.4,3.4 0 1 0 0,-6.79 h -20.82 c 2.6,-3.89 5.51,-7.95 8.79,-12.21 h 12 a 3.4,3.4 0 1 0 0,-6.79 h -6.66 c 3.8,-4.64 8,-9.49 12.63,-14.57 l 0.12,-0.13 c 9.23,26.72 13.68,49.5 12.71,57.09 a 7.91,7.91 0 0 1 -4.28,6.38 c -1.71,0.81 -2.42,3.18 0.28,4 8.59,2.53 13.88,-6 14.83,-12.85 0.95,-6.85 -3.74,-32.19 -16.15,-62.34 a 316.22,316.22 0 0 1 34.54,-29.2 7.26,7.26 0 0 0 10.74,-7.71 c 3.24,-2.26 6.47,-4.46 9.66,-6.58 a 9.92,9.92 0 0 0 15.83,-10.16 c 3.19,-2 6.28,-3.86 9.24,-5.64 a 12.65,12.65 0 0 0 21.29,-12.28 c 5.4,-3 9.34,-5.13 11.26,-6.23 a 17,17 0 1 0 14.05,-26.56 z"
       id="path5682"
       inkscape:connector-curvature="0"
       style="fill:#f47d20" />
    <path
       class="cls-1"
       d="M 140.34,272 H 97.05 c -4.34,0 -7.3,-0.95 -8.9,-3 a 8,8 0 0 1 -1.27,-4.76 22.47,22.47 0 0 1 0.74,-5.4 L 93,235.32 c 1.16,-4.76 2.85,-8.15 5.18,-10.17 2.33,-2.02 5.72,-3 10.16,-3 h 32 c 4.56,0 7.52,1 9,3 a 7.47,7.47 0 0 1 1.38,4.88 20.37,20.37 0 0 1 -0.74,5.29 l -3.5,15.57 H 103 L 100.64,261 a 13.87,13.87 0 0 0 -0.31,2.44 c 0,0.53 0,0.95 0.21,1.16 0.31,0.64 1.27,1 2.76,1 h 31.75 a 38.76,38.76 0 0 0 8.26,-0.84 z M 137,233.1 a 8.71,8.71 0 0 0 0.42,-2.54 3.32,3.32 0 0 0 -0.21,-1.06 c -0.43,-0.64 -1.48,-0.95 -3,-0.95 h -22.45 a 4.38,4.38 0 0 0 -3.18,0.95 5.5,5.5 0 0 0 -1.48,3.6 l -2.64,11.43 h 29.85 z"
       id="path5684"
       inkscape:connector-curvature="0"
       style="fill:#4d4848" />
    <path
       class="cls-1"
       d="m 151.14,272 c 0.67,-1.54 1.23,-3.2 1.91,-5.22 a 52.12,52.12 0 0 0 1.9,-7 l 11.13,-51.5 c 0.67,-3.21 1.12,-5.58 1.34,-7 0.22,-1.42 0.23,-3.08 0.23,-5.22 h 15.49 l -13.81,63.73 q -1,4.63 -1.35,7.13 a 27.12,27.12 0 0 0 -0.33,5.1 z"
       id="path5686"
       inkscape:connector-curvature="0"
       style="fill:#4d4848" />
    <path
       class="cls-1"
       d="m 329.75,230.56 c -1.59,-0.11 -3.17,-0.22 -5,-0.22 h -7.1 a 5.19,5.19 0 0 0 -3.17,0.85 5.72,5.72 0 0 0 -1.8,3.28 l -5.9,26.53 a 40.68,40.68 0 0 0 -1.48,9.74 V 272 h -15.45 c 0.63,-1.59 1.27,-3.08 1.69,-4.55 0.42,-1.47 0.95,-3.5 1.69,-6.36 l 6.35,-27.94 c 0.74,-2.76 1.06,-4.87 1.38,-6.46 a 30.15,30.15 0 0 0 0.22,-4.45 h 13 l -0.52,5.08 a 9,9 0 0 1 3.28,-3.81 10.52,10.52 0 0 1 5.61,-1.27 h 12.7 l 3.07,5.5 a 12.26,12.26 0 0 0 -1.8,2 c -0.74,0.95 -1.27,1.37 -1.59,1.37 -1.93,-0.23 -3.59,-0.45 -5.18,-0.55 z"
       id="path5688"
       inkscape:connector-curvature="0"
       style="fill:#4d4848" />
    <path
       class="cls-1"
       d="m 261.25,272 c 0.63,-1.38 1.16,-2.86 1.8,-4.66 a 44.79,44.79 0 0 0 1.8,-6.25 l 6.46,-27.94 c 0.53,-2.86 0.95,-5 1.05,-6.25 a 15.47,15.47 0 0 0 0.22,-3.39 v -1.27 h 14.6 L 278.4,261 c -0.63,2.76 -1.06,4.87 -1.27,6.36 a 22.21,22.21 0 0 0 -0.32,4.55 z"
       id="path5690"
       inkscape:connector-curvature="0"
       style="fill:#4d4848" />
    <path
       class="cls-1"
       d="m 205.17,204.79 a 7.17,7.17 0 1 1 -7.16,-7.17 7.17,7.17 0 0 1 7.16,7.17 z"
       id="path5692"
       inkscape:connector-curvature="0"
       style="fill:#4d4848" />
    <path
       class="cls-1"
       d="m 253.18,342.89 a 7.45,7.45 0 0 0 -3.88,-0.87 h -9.39 c -1.57,0 -2,0.2 -2.23,1.16 l -0.37,1.48 c -0.25,1 0.08,1.16 1.65,1.16 h 7.16 c 4.3,0 6.24,1.49 5.29,5.34 l -1.61,6.45 c -1,4.18 -3.1,6.49 -7.94,6.49 h -18.2 l 0.47,-5.37 a 6.44,6.44 0 0 0 3.72,1 h 9.76 c 1.57,0 1.95,-0.17 2.19,-1.16 l 0.46,-1.82 c 0.23,-0.95 0,-1.16 -1.62,-1.16 h -8.23 c -4,0 -5.25,-1.32 -4.15,-5.75 l 1.47,-5.91 c 1,-4.14 3.59,-6.29 7.15,-6.29 h 18.73 z"
       id="path5694"
       inkscape:connector-curvature="0"
       style="fill:#4d4848" />
    <path
       class="cls-1"
       d="M 275.05,346.57 H 275 l -8.62,17.53 h -9.68 l -0.18,-23 a 7.19,7.19 0 0 0 -0.84,-3.44 h 12 a 4.67,4.67 0 0 0 -0.76,1.74 10.52,10.52 0 0 0 -0.32,2.61 l -0.11,12.73 h 0.09 L 275,337.63 h 10 l 0.09,17.13 h 0.08 l 6.2,-12.78 a 13.59,13.59 0 0 0 1,-2.61 3.16,3.16 0 0 0 0.06,-1.74 h 6.41 a 11.5,11.5 0 0 0 -2.9,4 L 285,364.1 h -9.76 z"
       id="path5696"
       inkscape:connector-curvature="0"
       style="fill:#4d4848" />
    <path
       class="cls-1"
       d="m 313.54,359.72 a 14.47,14.47 0 0 0 4.72,-0.7 l -2.17,5.08 h -23.33 a 11.16,11.16 0 0 0 2,-4.55 L 299,342.18 c 0.63,-2.52 0.55,-3.51 0.31,-4.55 h 22.91 l -0.44,5.09 a 11.82,11.82 0 0 0 -4.41,-0.7 h -8.23 l -1.55,6.2 h 7.2 a 14.87,14.87 0 0 0 4.72,-0.7 l -1.44,5.79 a 11.72,11.72 0 0 0 -4.37,-0.71 h -7.2 l -1.77,7.12 z"
       id="path5698"
       inkscape:connector-curvature="0"
       style="fill:#4d4848" />
    <path
       class="cls-1"
       d="m 325.1,342.18 c 0.63,-2.52 0.54,-3.51 0.3,-4.55 H 346 c 5.62,0 7.07,2.15 5.73,7.53 l -2.84,11.41 c -1.34,5.38 -3.86,7.53 -9.48,7.53 h -20.6 a 11,11 0 0 0 2,-4.55 z m 5.72,17.54 h 5.26 c 1.65,0 2,-0.37 2.43,-2.15 l 3.34,-13.4 c 0.44,-1.78 0.29,-2.15 -1.37,-2.15 h -5.25 z"
       id="path5700"
       inkscape:connector-curvature="0"
       style="fill:#4d4848" />
    <path
       class="cls-1"
       d="m 371,359.72 a 14.47,14.47 0 0 0 4.72,-0.7 l -2.17,5.08 H 350.2 a 11.16,11.16 0 0 0 2,-4.55 l 4.32,-17.37 c 0.63,-2.52 0.55,-3.51 0.31,-4.55 h 22.87 l -0.44,5.09 a 11.82,11.82 0 0 0 -4.41,-0.7 h -8.23 l -1.55,6.2 h 7.2 a 14.87,14.87 0 0 0 4.72,-0.7 l -1.44,5.79 a 11.72,11.72 0 0 0 -4.37,-0.71 H 364 l -1.77,7.12 z"
       id="path5702"
       inkscape:connector-curvature="0"
       style="fill:#4d4848" />
    <path
       class="cls-1"
       d="m 387,342.18 h -0.08 l -4.27,17.17 c -0.74,3 -0.75,3.51 -0.19,4.75 h -6.37 c 1.18,-1.24 1.43,-1.78 2.18,-4.75 l 4.22,-17 c 0.74,-3 0.75,-3.52 0.19,-4.76 h 14.18 l 5.38,21.59 h 0.13 l 4.19,-16.83 c 0.74,-3 0.75,-3.52 0.19,-4.76 h 6.37 c -1.18,1.24 -1.44,1.78 -2.18,4.76 l -5.4,21.71 h -13.07 z"
       id="path5704"
       inkscape:connector-curvature="0"
       style="fill:#4d4848" />
  </g>
</svg>
