<?xml version="1.0" encoding="UTF-8"?>
<svg width="362px" height="230px" viewBox="0 0 362 230" version="1.1" xmlns="http://www.w3.org/2000/svg" xmlns:xlink="http://www.w3.org/1999/xlink" xmlns:sketch="http://www.bohemiancoding.com/sketch/ns">
    <!-- Generator: Sketch 3.3.2 (12043) - http://www.bohemiancoding.com/sketch -->
    <title>Nodes</title>
    <desc>Created with Sketch.</desc>
    <defs></defs>
    <g id="Page-1" stroke="none" stroke-width="1" fill="none" fill-rule="evenodd" sketch:type="MSPage">
        <g id="Nodes" sketch:type="MSLayerGroup">
            <path d="M90.17,137 C90.8,135.62 91.33,134.14 91.97,132.34 C92.7206694,130.303041 93.322255,128.214202 93.77,126.09 L100.23,98.15 C100.76,95.29 101.23,93.15 101.29,91.9 C101.478666,90.7804885 101.549053,89.6442374 101.5,88.51 L101.5,87.24 L116.11,87.24 L107.32,126 C106.68,128.76 106.32,130.87 106.05,132.36 C105.787465,133.861665 105.680233,135.38637 105.73,136.91 L90.17,137 Z" id="Shape" fill="#4D4848" sketch:type="MSShapeGroup"></path>
            <path d="M283.57,0.9 C277.579403,0.902197621 272.032157,4.05725739 268.968136,9.20497788 C265.904114,14.3526984 265.775656,20.7331246 268.63,26 C266.94,26.84 263,28.82 257.48,31.69 C255.442757,27.5405502 251.302895,24.834146 246.684704,24.6326533 C242.066512,24.4311606 237.706669,26.766721 235.315772,30.7229701 C232.924875,34.6792193 232.884313,39.625069 235.21,43.62 C232.37,45.18 229.42,46.83 226.4,48.54 C223.638576,43.8013968 217.558603,42.1985763 212.82,44.96 C208.081397,47.7214237 206.478576,53.8013968 209.24,58.54 C206.113333,60.4 202.97,62.3066667 199.81,64.26 C197.652315,62.4339599 194.630939,62.0262927 192.066457,63.2151822 C189.501975,64.4040717 187.860699,66.9733369 187.86,69.8 C187.860427,70.4283468 187.944499,71.0538406 188.11,71.66 C176.016937,79.370523 164.42072,87.8338912 153.39,97 C141.91,71.32 124.97,43.13 101.39,20.18 L101.32,20.12 C98.56,17.4 96.32,18.6 99.45,21.98 L99.57,22.11 C119.57,43.64 135.29,74.79 146,103.2 C105.37,137.89 60.58,205.11 109.67,226.2 C116.82,229.28 120.07,223.4 117,221.59 C116.45,221.26 94.58,209.44 108.48,173.14 L143.48,173.14 C144.736883,173.208239 145.928623,172.576494 146.577594,171.497955 C147.226566,170.419416 147.226566,169.070584 146.577594,167.992045 C145.928623,166.913506 144.736883,166.281761 143.48,166.35 L111.4,166.35 C113.48036,161.951841 115.790206,157.665941 118.32,153.51 L143.48,153.51 C144.736883,153.578239 145.928623,152.946494 146.577594,151.867955 C147.226566,150.789416 147.226566,149.440584 146.577594,148.362045 C145.928623,147.283506 144.736883,146.651761 143.48,146.72 L122.65,146.72 C125.25,142.83 128.16,138.77 131.44,134.51 L143.44,134.51 C144.696883,134.578239 145.888623,133.946494 146.537594,132.867955 C147.186566,131.789416 147.186566,130.440584 146.537594,129.362045 C145.888623,128.283506 144.696883,127.651761 143.44,127.72 L136.78,127.72 C140.58,123.08 144.78,118.23 149.41,113.15 L149.53,113.02 C158.76,139.74 163.21,162.52 162.24,170.11 C162.011232,172.833225 160.392988,175.245467 157.96,176.49 C156.25,177.3 155.54,179.67 158.24,180.49 C166.83,183.02 172.12,174.49 173.07,167.64 C174.02,160.79 169.33,135.45 156.92,105.3 C167.721604,94.7547133 179.264455,84.9964261 191.46,76.1 C193.928797,77.5198999 196.999785,77.3651676 199.313357,75.704307 C201.62693,74.0434463 202.755726,71.1832496 202.2,68.39 C205.44,66.13 208.67,63.93 211.86,61.81 C215.183988,64.479059 219.841553,64.7260147 223.42915,62.4234252 C227.016748,60.1208357 228.732101,55.7836182 227.69,51.65 C230.87,49.65 233.96,47.79 236.93,46.01 C240.958128,50.2251682 247.345479,51.141254 252.395956,48.2281561 C257.446433,45.3150581 259.85173,39.3274024 258.22,33.73 C263.62,30.73 267.56,28.6 269.48,27.5 C274.031543,34.1926968 282.670455,36.7484379 290.130653,33.6093021 C297.590852,30.4701662 301.803448,22.5067095 300.200541,14.5732725 C298.597634,6.63983559 291.623746,0.936546683 283.53,0.94 L283.57,0.9 Z" id="Shape" fill="#F47D20" sketch:type="MSShapeGroup"></path>
            <path d="M53.73,137 L10.44,137 C6.09,137 3.14,136.05 1.54,134 C0.626497541,132.586428 0.182085146,130.920757 0.27,129.24 C0.296634273,127.416641 0.545128593,125.603304 1.01,123.84 L6.42,100.34 C7.58,95.58 9.27,92.19 11.6,90.17 C13.93,88.15 17.32,87.17 21.76,87.17 L53.76,87.17 C58.32,87.17 61.28,88.17 62.76,90.17 C63.7749907,91.5859729 64.2631392,93.3121789 64.14,95.05 C64.1265992,96.8381706 63.8777939,98.6167918 63.4,100.34 L59.9,115.91 L16.36,115.91 L14,126 C13.8246127,126.802548 13.7208716,127.619091 13.69,128.44 C13.69,128.97 13.69,129.39 13.9,129.6 C14.21,130.24 15.17,130.6 16.65,130.6 L48.41,130.6 C51.1854671,130.616548 53.9546834,130.334932 56.67,129.76 L53.73,137 Z M50.35,98.15 C50.6150462,97.3288124 50.756592,96.4727971 50.77,95.61 C50.7583575,95.2475693 50.687418,94.889494 50.56,94.55 C50.13,93.91 49.08,93.6 47.56,93.6 L25.15,93.6 C24.0064211,93.4872588 22.86434,93.8284465 21.97,94.55 C21.0543436,95.5294817 20.5280256,96.8097146 20.49,98.15 L17.85,109.58 L47.7,109.58 L50.35,98.15 Z" id="Shape" fill="#4D4848" sketch:type="MSShapeGroup"></path>
            <path d="M64.53,137 C65.2,135.46 65.76,133.8 66.44,131.78 C67.2351209,129.49362 67.8699912,127.154624 68.34,124.78 L79.47,73.28 C80.14,70.07 80.59,67.7 80.81,66.28 C81.03,64.86 81.04,63.2 81.04,61.06 L96.53,61.06 L82.72,124.79 C82.0533333,127.876667 81.6033333,130.253333 81.37,131.92 C81.0875736,133.597976 80.9636941,135.298809 81,137 L64.53,137 Z" id="Shape" fill="#4D4848" sketch:type="MSShapeGroup"></path>
            <path d="M243.14,95.56 C241.55,95.45 239.97,95.34 238.14,95.34 L231.04,95.34 C229.919208,95.2729785 228.806905,95.57123 227.87,96.19 C226.91928,97.050643 226.285352,98.2058016 226.07,99.47 L220.17,126 C219.283901,129.17472 218.786924,132.445365 218.69,135.74 L218.69,137 L203.24,137 C203.87,135.41 204.5,133.92 204.93,132.45 C205.36,130.98 205.88,128.95 206.62,126.09 L213,98.1 C213.74,95.34 214.06,93.23 214.38,91.64 C214.562983,90.1641226 214.636517,88.6767291 214.6,87.19 L227.6,87.19 L227.08,92.27 C227.789226,90.7142173 228.926953,89.3926507 230.36,88.46 C232.07259,87.5250553 234.011635,87.0853077 235.96,87.19 L248.67,87.19 L251.74,92.69 C251.068438,93.2886065 250.464804,93.9593115 249.94,94.69 C249.2,95.64 248.67,96.06 248.35,96.06 C246.43,95.88 244.73,95.66 243.14,95.56 L243.14,95.56 Z" id="Shape" fill="#4D4848" sketch:type="MSShapeGroup"></path>
            <path d="M174.64,137 C175.27,135.62 175.8,134.14 176.44,132.34 C177.190669,130.303041 177.792255,128.214202 178.24,126.09 L184.7,98.15 C185.23,95.29 185.7,93.15 185.75,91.9 C185.947558,90.7815026 186.021336,89.6446499 185.97,88.51 L185.97,87.24 L200.57,87.24 L191.79,126 C191.16,128.76 190.73,130.87 190.52,132.36 C190.257465,133.861665 190.150233,135.38637 190.2,136.91 L174.64,137 Z" id="Shape" fill="#4D4848" sketch:type="MSShapeGroup"></path>
            <path d="M118.56,69.79 C118.56,72.6899943 116.813086,75.3044365 114.13384,76.4142162 C111.454595,77.523996 108.37065,76.9105613 106.320044,74.8599556 C104.269439,72.80935 103.656004,69.7254052 104.765784,67.0461598 C105.875564,64.3669144 108.490006,62.62 111.39,62.62 C115.349882,62.62 118.56,65.8301183 118.56,69.79 L118.56,69.79 Z" id="Shape" fill="#4D4848" sketch:type="MSShapeGroup"></path>
            <path d="M166.57,207.89 C165.379374,207.253831 164.038269,206.95312 162.69,207.02 L153.3,207.02 C151.73,207.02 151.3,207.22 151.07,208.18 L150.7,209.66 C150.45,210.66 150.78,210.82 152.35,210.82 L159.51,210.82 C163.81,210.82 165.75,212.31 164.8,216.16 L163.19,222.61 C162.19,226.79 160.09,229.1 155.25,229.1 L137.05,229.1 L137.52,223.73 C138.628932,224.435063 139.927016,224.78401 141.24,224.73 L151,224.73 C152.57,224.73 152.95,224.56 153.19,223.57 L153.65,221.75 C153.88,220.8 153.6,220.59 152.03,220.59 L143.8,220.59 C139.8,220.59 138.55,219.27 139.65,214.84 L141.12,208.93 C142.12,204.79 144.71,202.64 148.27,202.64 L167,202.64 L166.57,207.89 Z" id="Shape" fill="#4D4848" sketch:type="MSShapeGroup"></path>
            <path d="M185.66,224.72 C187.224583,224.757691 188.779197,224.461087 190.22,223.85 L188,229.1 L165.21,229.1 C166.206082,227.750558 166.889272,226.196301 167.21,224.55 L171.53,207.18 C172.16,204.66 172.08,203.67 171.84,202.63 L183.58,202.63 C182.601989,203.984065 181.93604,205.537947 181.63,207.18 L177.26,224.72 L185.66,224.72 Z" id="Shape" fill="#4D4848" sketch:type="MSShapeGroup"></path>
            <path d="M195.13,210.41 C196.55,204.7 199.46,202.63 203.77,202.63 L218.9,202.63 C223.2,202.63 225.09,204.7 223.67,210.41 L221,221.33 C219.58,227.03 216.67,229.1 212.37,229.1 L197.18,229.1 C192.88,229.1 190.99,227.03 192.41,221.33 L195.13,210.41 Z M202.08,223 C201.76,224.28 202.32,224.7 203.65,224.7 L208,224.7 C209.32,224.7 210.09,224.28 210.41,223 L214,208.71 C214.32,207.43 213.76,207.02 212.44,207.02 L208.05,207.02 C206.73,207.02 205.96,207.43 205.64,208.71 L202.08,223 Z" id="Shape" fill="#4D4848" sketch:type="MSShapeGroup"></path>
            <path d="M230.55,229.1 L227.81,205.1 C227.735866,204.2031 227.386628,203.35096 226.81,202.66 L239.38,202.66 C239.139624,203.120838 238.95178,203.607221 238.82,204.11 C238.589137,205.241679 238.589137,206.408321 238.82,207.54 L240.63,223.54 L250.81,207.54 C251.557434,206.498398 252.125277,205.339052 252.49,204.11 C252.604571,203.635401 252.658335,203.148161 252.65,202.66 L259.47,202.66 C257.954792,204.056757 256.660083,205.675143 255.63,207.46 L241.84,229.1 L230.55,229.1 Z" id="Shape" fill="#4D4848" sketch:type="MSShapeGroup"></path>
            <path d="M274.4,224.72 C276.004433,224.748369 277.602556,224.511861 279.13,224.02 L277,229.1 L253.63,229.1 C254.626082,227.750558 255.309272,226.196301 255.63,224.55 L259.95,207.18 C260.58,204.66 260.49,203.67 260.25,202.63 L283.17,202.63 L282.73,207.72 C281.314072,207.209715 279.814313,206.972196 278.31,207.02 L270,207.02 L268.46,213.22 L275.65,213.22 C277.253953,213.241079 278.850904,213.004744 280.38,212.52 L279,218.31 C277.598095,217.798254 276.111778,217.557322 274.62,217.6 L267.43,217.6 L265.66,224.72 L274.4,224.72 Z" id="Shape" fill="#4D4848" sketch:type="MSShapeGroup"></path>
            <path d="M290.43,207.18 L290.34,207.18 L286.07,224.35 C285.33,227.35 285.32,227.86 285.88,229.1 L279.51,229.1 C280.69,227.86 280.95,227.32 281.69,224.35 L285.91,207.35 C286.65,204.35 286.66,203.83 286.1,202.59 L300.29,202.59 L305.67,224.18 L305.79,224.18 L310,207.39 C310.74,204.39 310.75,203.87 310.19,202.63 L316.56,202.63 C315.38,203.87 315.12,204.41 314.38,207.39 L309,229.1 L295.89,229.1 L290.43,207.18 Z" id="Shape" fill="#4D4848" sketch:type="MSShapeGroup"></path>
            <path d="M313.34,229.1 C314.336082,227.750558 315.019272,226.196301 315.34,224.55 L319.66,207.18 C320.29,204.66 320.21,203.67 319.97,202.63 L331.71,202.63 C330.717947,203.981771 330.035168,205.535092 329.71,207.18 L325.39,224.55 C324.76,227.08 324.85,228.07 325.09,229.1 L313.34,229.1 Z" id="Shape" fill="#4D4848" sketch:type="MSShapeGroup"></path>
            <path d="M337.36,222 L334.68,225.64 C334.319231,226.105521 334.057223,226.639746 333.91,227.21 C333.680826,227.831069 333.720684,228.519528 334.02,229.11 L326.53,229.11 C328.109782,227.67381 329.522088,226.06358 330.74,224.31 L345.4,204.13 L344.62,202.64 L356.57,202.64 L360.32,225.47 C360.533529,226.767701 361.013619,228.007085 361.73,229.11 L348.45,229.11 C349.19,228.11 349.32,227.95 349.45,227.38 C349.624532,226.728258 349.665351,226.047935 349.57,225.38 L349,222 L337.36,222 Z M348.36,217.61 L346.82,208.68 L340.54,217.61 L348.36,217.61 Z" id="Shape" fill="#4D4848" sketch:type="MSShapeGroup"></path>
        </g>
    </g>
</svg>