<?xml version="1.0" encoding="UTF-8" standalone="no"?>
<svg
   xmlns:dc="http://purl.org/dc/elements/1.1/"
   xmlns:cc="http://creativecommons.org/ns#"
   xmlns:rdf="http://www.w3.org/1999/02/22-rdf-syntax-ns#"
   xmlns:svg="http://www.w3.org/2000/svg"
   xmlns="http://www.w3.org/2000/svg"
   xmlns:sodipodi="http://sodipodi.sourceforge.net/DTD/sodipodi-0.dtd"
   xmlns:inkscape="http://www.inkscape.org/namespaces/inkscape"
   width="500"
   height="300"
   viewBox="0 100 500 300"
   version="1.1"
   id="svg5748"
   sodipodi:docname="SI.svg"
   inkscape:version="0.92.3 (2405546, 2018-03-11)">
  <metadata
     id="metadata5752">
    <rdf:RDF>
      <cc:Work
         rdf:about="">
        <dc:format>image/svg+xml</dc:format>
        <dc:type
           rdf:resource="http://purl.org/dc/dcmitype/StillImage" />
      </cc:Work>
    </rdf:RDF>
  </metadata>
  <sodipodi:namedview
     pagecolor="#ffffff"
     bordercolor="#666666"
     borderopacity="1"
     objecttolerance="10"
     gridtolerance="10"
     guidetolerance="10"
     inkscape:pageopacity="0"
     inkscape:pageshadow="2"
     inkscape:window-width="2560"
     inkscape:window-height="1247"
     id="namedview5750"
     showgrid="false"
     inkscape:zoom="16.653779"
     inkscape:cx="265.81771"
     inkscape:cy="274.45764"
     inkscape:window-x="0"
     inkscape:window-y="0"
     inkscape:window-maximized="1"
     inkscape:current-layer="svg5748" />
  <defs
     id="defs5715">
    <style
       id="style5713">.cls-1{fill:#4d4848;}.cls-2{fill:#f47d20;}</style>
  </defs>
  <g
     id="Nodes"
     transform="translate(-59.259078,-25.879908)">
    <path
       class="cls-1"
       d="m 159.17,272 c 0.63,-1.38 1.16,-2.86 1.8,-4.66 a 44.79,44.79 0 0 0 1.8,-6.25 l 6.46,-27.94 c 0.53,-2.86 1,-5 1.06,-6.25 a 16.19,16.19 0 0 0 0.21,-3.39 v -1.27 h 14.61 L 176.32,261 c -0.64,2.76 -1,4.87 -1.27,6.36 a 22.21,22.21 0 0 0 -0.32,4.55 z"
       id="path5717"
       inkscape:connector-curvature="0"
       style="fill:#4d4848" />
    <path
       class="cls-2"
       d="M 352.57,135.9 A 17,17 0 0 0 337.63,161 c -1.69,0.84 -5.63,2.82 -11.15,5.69 a 12.64,12.64 0 1 0 -22.27,11.93 c -2.84,1.56 -5.79,3.21 -8.81,4.92 a 9.930579,9.930579 0 0 0 -17.16,10 q -4.69,2.79 -9.43,5.72 a 7.26,7.26 0 0 0 -11.95,5.54 7.08,7.08 0 0 0 0.25,1.86 342.1,342.1 0 0 0 -34.72,25.34 c -11.48,-25.68 -28.42,-53.87 -52,-76.82 l -0.07,-0.06 c -2.76,-2.72 -5,-1.52 -1.87,1.86 l 0.12,0.13 c 20,21.53 35.72,52.68 46.43,81.09 -40.63,34.69 -85.42,101.91 -36.33,123 7.15,3.08 10.4,-2.8 7.33,-4.61 -0.55,-0.33 -22.42,-12.15 -8.52,-48.45 h 35 a 3.4,3.4 0 1 0 0,-6.79 H 180.4 a 139,139 0 0 1 6.92,-12.84 h 25.16 a 3.4,3.4 0 1 0 0,-6.79 h -20.83 c 2.6,-3.89 5.51,-7.95 8.79,-12.21 h 12 a 3.4,3.4 0 1 0 0,-6.79 h -6.66 c 3.8,-4.64 8,-9.49 12.63,-14.57 l 0.12,-0.13 c 9.23,26.72 13.68,49.5 12.71,57.09 a 7.91,7.91 0 0 1 -4.28,6.38 c -1.71,0.81 -2.42,3.18 0.28,4 8.59,2.53 13.88,-6 14.83,-12.85 0.95,-6.85 -3.74,-32.19 -16.15,-62.34 a 316.22,316.22 0 0 1 34.54,-29.2 7.26,7.26 0 0 0 10.74,-7.71 c 3.24,-2.26 6.47,-4.46 9.66,-6.58 a 9.92,9.92 0 0 0 15.83,-10.16 c 3.18,-2 6.27,-3.86 9.24,-5.64 a 12.65,12.65 0 0 0 21.29,-12.28 c 5.4,-3 9.34,-5.13 11.26,-6.23 a 17,17 0 1 0 14.05,-26.56 z"
       id="path5719"
       inkscape:connector-curvature="0"
       style="fill:#f47d20" />
    <path
       class="cls-1"
       d="M 122.73,272 H 79.44 c -4.35,0 -7.3,-0.95 -8.9,-3 a 8,8 0 0 1 -1.27,-4.76 22.47,22.47 0 0 1 0.74,-5.4 l 5.41,-23.5 c 1.16,-4.76 2.85,-8.15 5.18,-10.17 2.33,-2.02 5.72,-3 10.16,-3 h 32 c 4.56,0 7.52,1 9,3 a 7.47,7.47 0 0 1 1.38,4.88 20.37,20.37 0 0 1 -0.74,5.29 l -3.5,15.57 H 85.36 L 83,261 a 13.87,13.87 0 0 0 -0.31,2.44 c 0,0.53 0,0.95 0.21,1.16 0.31,0.64 1.27,1 2.75,1 h 31.76 a 38.76,38.76 0 0 0 8.26,-0.84 z m -3.38,-38.85 a 8.71,8.71 0 0 0 0.42,-2.54 3.32,3.32 0 0 0 -0.21,-1.06 c -0.43,-0.64 -1.48,-0.95 -3,-0.95 H 94.15 a 4.38,4.38 0 0 0 -3.18,0.95 5.5,5.5 0 0 0 -1.48,3.6 l -2.64,11.43 h 29.85 z"
       id="path5721"
       inkscape:connector-curvature="0"
       style="fill:#4d4848" />
    <path
       class="cls-1"
       d="m 133.53,272 c 0.67,-1.54 1.23,-3.2 1.91,-5.22 a 52.12,52.12 0 0 0 1.9,-7 l 11.13,-51.5 c 0.67,-3.21 1.12,-5.58 1.34,-7 0.22,-1.42 0.23,-3.08 0.23,-5.22 h 15.49 l -13.81,63.73 q -1,4.63 -1.35,7.13 A 27.12,27.12 0 0 0 150,272 Z"
       id="path5723"
       inkscape:connector-curvature="0"
       style="fill:#4d4848" />
    <path
       class="cls-1"
       d="m 312.14,230.56 c -1.59,-0.11 -3.17,-0.22 -5,-0.22 h -7.1 a 5.19,5.19 0 0 0 -3.17,0.85 5.72,5.72 0 0 0 -1.8,3.28 l -5.9,26.53 a 40.68,40.68 0 0 0 -1.48,9.74 V 272 h -15.45 c 0.63,-1.59 1.26,-3.08 1.69,-4.55 0.43,-1.47 0.95,-3.5 1.69,-6.36 L 282,233.1 c 0.74,-2.76 1.06,-4.87 1.38,-6.46 a 30.15,30.15 0 0 0 0.22,-4.45 h 13 l -0.52,5.08 a 9,9 0 0 1 3.28,-3.81 10.51,10.51 0 0 1 5.6,-1.27 h 12.71 l 3.07,5.5 a 12.26,12.26 0 0 0 -1.8,2 c -0.74,0.95 -1.27,1.37 -1.59,1.37 -1.92,-0.18 -3.62,-0.4 -5.21,-0.5 z"
       id="path5725"
       inkscape:connector-curvature="0"
       style="fill:#4d4848" />
    <path
       class="cls-1"
       d="m 243.64,272 c 0.63,-1.38 1.16,-2.86 1.8,-4.66 a 44.79,44.79 0 0 0 1.8,-6.25 l 6.46,-27.94 c 0.53,-2.86 1,-5 1.05,-6.25 a 15.47,15.47 0 0 0 0.22,-3.39 v -1.27 h 14.6 L 260.79,261 c -0.63,2.76 -1.06,4.87 -1.27,6.36 a 22.21,22.21 0 0 0 -0.32,4.55 z"
       id="path5727"
       inkscape:connector-curvature="0"
       style="fill:#4d4848" />
    <path
       class="cls-1"
       d="m 187.56,204.79 a 7.17,7.17 0 1 1 -7.17,-7.17 7.17,7.17 0 0 1 7.17,7.17 z"
       id="path5729"
       inkscape:connector-curvature="0"
       style="fill:#4d4848" />
    <path
       class="cls-1"
       d="m 235.57,342.89 a 7.45,7.45 0 0 0 -3.88,-0.87 h -9.39 c -1.57,0 -2,0.2 -2.23,1.16 l -0.37,1.48 c -0.25,1 0.08,1.16 1.65,1.16 h 7.16 c 4.3,0 6.24,1.49 5.29,5.34 l -1.61,6.45 c -1,4.18 -3.1,6.49 -7.94,6.49 h -18.2 l 0.47,-5.37 a 6.44,6.44 0 0 0 3.72,1 H 220 c 1.57,0 1.95,-0.17 2.19,-1.16 l 0.46,-1.82 c 0.23,-0.95 -0.05,-1.16 -1.62,-1.16 h -8.23 c -4,0 -5.25,-1.32 -4.15,-5.75 l 1.47,-5.91 c 1,-4.14 3.59,-6.29 7.15,-6.29 H 236 Z"
       id="path5731"
       inkscape:connector-curvature="0"
       style="fill:#4d4848" />
    <path
       class="cls-1"
       d="m 254.66,359.72 a 11,11 0 0 0 4.56,-0.87 L 257,364.1 h -22.79 a 11.3,11.3 0 0 0 2,-4.55 l 4.32,-17.37 c 0.63,-2.52 0.55,-3.51 0.31,-4.55 h 11.74 a 11.31,11.31 0 0 0 -1.95,4.55 l -4.37,17.54 z"
       id="path5733"
       inkscape:connector-curvature="0"
       style="fill:#4d4848" />
    <path
       class="cls-1"
       d="m 264.13,345.41 c 1.42,-5.71 4.33,-7.78 8.64,-7.78 h 15.13 c 4.3,0 6.19,2.07 4.77,7.78 L 290,356.33 c -1.42,5.7 -4.33,7.77 -8.63,7.77 h -15.19 c -4.3,0 -6.19,-2.07 -4.77,-7.77 z m 6.95,12.59 c -0.32,1.28 0.24,1.7 1.57,1.7 H 277 c 1.32,0 2.09,-0.42 2.41,-1.7 L 283,343.71 c 0.32,-1.28 -0.24,-1.69 -1.56,-1.69 h -4.39 c -1.32,0 -2.09,0.41 -2.41,1.69 z"
       id="path5735"
       inkscape:connector-curvature="0"
       style="fill:#4d4848" />
    <path
       class="cls-1"
       d="m 299.55,364.1 -2.74,-24 a 4.37,4.37 0 0 0 -1,-2.44 h 12.57 a 6.94,6.94 0 0 0 -0.56,1.45 8.58,8.58 0 0 0 0,3.43 l 1.81,16 10.18,-16 a 11.49,11.49 0 0 0 1.68,-3.43 5.76,5.76 0 0 0 0.16,-1.45 h 6.82 a 20.39,20.39 0 0 0 -3.84,4.8 l -13.79,21.64 z"
       id="path5737"
       inkscape:connector-curvature="0"
       style="fill:#4d4848" />
    <path
       class="cls-1"
       d="m 343.4,359.72 a 14.59,14.59 0 0 0 4.73,-0.7 L 346,364.1 h -23.37 a 11.3,11.3 0 0 0 2,-4.55 l 4.32,-17.37 c 0.63,-2.52 0.54,-3.51 0.3,-4.55 h 22.92 l -0.44,5.09 a 11.92,11.92 0 0 0 -4.42,-0.7 H 339 l -1.54,6.2 h 7.19 a 15,15 0 0 0 4.73,-0.7 l -1.38,5.79 a 11.79,11.79 0 0 0 -4.38,-0.71 h -7.19 l -1.77,7.12 z"
       id="path5739"
       inkscape:connector-curvature="0"
       style="fill:#4d4848" />
    <path
       class="cls-1"
       d="m 359.43,342.18 h -0.09 l -4.27,17.17 c -0.74,3 -0.75,3.51 -0.19,4.75 h -6.37 c 1.18,-1.24 1.44,-1.78 2.18,-4.75 l 4.22,-17 c 0.74,-3 0.75,-3.52 0.19,-4.76 h 14.19 l 5.38,21.59 h 0.12 L 379,342.39 c 0.74,-3 0.75,-3.52 0.19,-4.76 h 6.37 c -1.18,1.24 -1.44,1.78 -2.18,4.76 L 378,364.1 h -13.11 z"
       id="path5741"
       inkscape:connector-curvature="0"
       style="fill:#4d4848" />
    <path
       class="cls-1"
       d="m 382.34,364.1 a 11.3,11.3 0 0 0 2,-4.55 l 4.32,-17.37 c 0.63,-2.52 0.55,-3.51 0.31,-4.55 h 11.74 a 11.44,11.44 0 0 0 -2,4.55 l -4.32,17.37 c -0.63,2.53 -0.54,3.52 -0.3,4.55 z"
       id="path5743"
       inkscape:connector-curvature="0"
       style="fill:#4d4848" />
    <path
       class="cls-1"
       d="m 406.36,357 -2.68,3.64 a 4.33,4.33 0 0 0 -0.77,1.57 2.38,2.38 0 0 0 0.11,1.9 h -7.49 a 28.32,28.32 0 0 0 4.21,-4.8 l 14.66,-20.18 -0.78,-1.49 h 11.95 l 3.75,22.83 a 9.52,9.52 0 0 0 1.41,3.64 h -13.28 c 0.74,-1 0.87,-1.16 1,-1.73 a 5,5 0 0 0 0.12,-2 L 418,357 Z m 11,-4.39 -1.54,-8.93 -6.28,8.93 z"
       id="path5745"
       inkscape:connector-curvature="0"
       style="fill:#4d4848" />
  </g>
</svg>
