<svg width="57" height="57" viewBox="0 0 57 57" fill="none" xmlns="http://www.w3.org/2000/svg">
  <g clip-path="url(#clip0_210_444)">
    <path opacity="0.35" d="M39.9 48.2363C40.8133 47.7062 41.835 47.3902 42.8882 47.312C43.9413 47.2339 44.9984 47.3956 45.98 47.785C46.7704 48.0786 47.6329 48.1174 48.4464 47.8959C49.26 47.6744 49.9838 47.2038 50.5163 46.55C52.4854 44.152 54.0497 41.4485 55.1475 38.5463C55.4509 37.715 55.4857 36.8094 55.2471 35.9572C55.0085 35.105 54.5085 34.3492 53.8175 33.7963C53.0434 33.1274 52.4224 32.2997 51.9968 31.3694C51.5711 30.4391 51.3508 29.4281 51.3508 28.405C51.3508 27.382 51.5711 26.371 51.9968 25.4407C52.4224 24.5104 53.0434 23.6827 53.8175 23.0138C54.5056 22.4586 55.0035 21.7028 55.2419 20.8514C55.4802 20 55.4473 19.0955 55.1475 18.2638C54.0274 15.4303 52.4641 12.7929 50.5163 10.45C49.9838 9.79631 49.26 9.32568 48.4464 9.10419C47.6329 8.8827 46.7704 8.92147 45.98 9.21504C44.9984 9.60449 43.9413 9.76622 42.8882 9.68806C41.835 9.60989 40.8133 9.29388 39.9 8.76379C38.9862 8.22936 38.203 7.49803 37.6074 6.62298C37.0117 5.74792 36.6184 4.75112 36.4563 3.70504C36.3281 2.89106 35.9511 2.13671 35.377 1.5456C34.8029 0.954494 34.0599 0.555631 33.25 0.403794C30.1071 -0.14534 26.8929 -0.14534 23.75 0.403794C22.9401 0.555631 22.1971 0.954494 21.623 1.5456C21.0489 2.13671 20.6719 2.89106 20.5438 3.70504C20.3816 4.75112 19.9884 5.74792 19.3927 6.62298C18.797 7.49803 18.0138 8.22936 17.1 8.76379C16.1867 9.29388 15.165 9.60989 14.1119 9.68806C13.0587 9.76622 12.0016 9.60449 11.02 9.21504C10.2296 8.92147 9.36713 8.8827 8.55359 9.10419C7.74004 9.32568 7.01624 9.79631 6.48376 10.45C4.52062 12.8435 2.95676 15.5381 1.8525 18.43C1.55275 19.2618 1.51978 20.1663 1.75816 21.0177C1.99654 21.869 2.49442 22.6249 3.18251 23.18C3.95687 23.8363 4.58207 24.6504 5.01624 25.568C5.45042 26.4855 5.68354 27.4851 5.70001 28.5C5.69372 29.527 5.46549 30.5405 5.03097 31.471C4.59644 32.4016 3.96589 33.2272 3.18251 33.8913C2.49442 34.4464 1.99654 35.2023 1.75816 36.0537C1.51978 36.905 1.55275 37.8095 1.8525 38.6413C2.99311 41.541 4.59735 44.2362 6.6025 46.6213C7.13499 47.275 7.85879 47.7457 8.67234 47.9671C9.48588 48.1886 10.3484 48.1499 11.1388 47.8563C12.1203 47.4668 13.1775 47.3051 14.2306 47.3833C15.2837 47.4614 16.3054 47.7775 17.2188 48.3075C18.1325 48.842 18.9157 49.5733 19.5114 50.4484C20.1071 51.3234 20.5003 52.3202 20.6625 53.3663C20.7961 54.1513 21.1615 54.8784 21.7117 55.454C22.2619 56.0296 22.9718 56.4275 23.75 56.5963C26.8929 57.1454 30.1071 57.1454 33.25 56.5963C34.0686 56.4534 34.8221 56.0584 35.4054 55.4666C35.9887 54.8748 36.3727 54.1156 36.5038 53.295C36.6606 52.2532 37.0466 51.2591 37.6339 50.3843C38.2211 49.5096 38.9951 48.7759 39.9 48.2363Z" fill="#047EAA"/>
    <path d="M21.5175 34.4138L21.2087 33.0363H18.0262L17.7175 34.4138C17.6373 34.7572 17.4437 35.0636 17.1679 35.2834C16.8921 35.5032 16.5502 35.6235 16.1975 35.625C15.9619 35.624 15.7296 35.57 15.5178 35.4668C15.306 35.3637 15.1201 35.2141 14.9741 35.0293C14.828 34.8445 14.7255 34.6291 14.6742 34.3991C14.6228 34.1692 14.624 33.9307 14.6775 33.7013L17.195 23.3463C17.3268 22.8062 17.6289 22.323 18.0566 21.968C18.4843 21.613 19.015 21.4051 19.57 21.375C20.1498 21.3742 20.713 21.5681 21.1695 21.9255C21.6259 22.2829 21.9492 22.7832 22.0875 23.3463L24.5812 33.7013C24.6348 33.9307 24.6359 34.1692 24.5846 34.3991C24.5332 34.6291 24.4307 34.8445 24.2847 35.0293C24.1386 35.2141 23.9528 35.3637 23.741 35.4668C23.5292 35.57 23.2968 35.624 23.0612 35.625H23.0375C22.6848 35.6235 22.3429 35.5032 22.0671 35.2834C21.7913 35.0636 21.5977 34.7572 21.5175 34.4138ZM19.665 24.4863L18.4537 30.5425H20.8287L19.665 24.4863Z" fill="#047EAA"/>
    <path d="M37.5012 34.01V22.99C37.5074 22.5636 37.6795 22.1564 37.981 21.8548C38.2826 21.5533 38.6898 21.3811 39.1162 21.375C39.5445 21.375 39.9553 21.5452 40.2582 21.848C40.5611 22.1509 40.7312 22.5617 40.7312 22.99V34.01C40.7312 34.4383 40.5611 34.8491 40.2582 35.152C39.9553 35.4548 39.5445 35.625 39.1162 35.625C38.6898 35.6189 38.2826 35.4467 37.981 35.1452C37.6795 34.8436 37.5074 34.4364 37.5012 34.01Z" fill="#047EAA"/>
    <path d="M35.6249 25.84C35.6709 26.4256 35.595 27.0144 35.402 27.5692C35.209 28.124 34.9032 28.6328 34.5037 29.0635C34.1043 29.4941 33.6199 29.8374 33.0812 30.0715C32.5425 30.3056 31.9611 30.4256 31.3737 30.4238H29.9962V34.0338C29.9969 34.4399 29.8424 34.8308 29.5642 35.1267C29.286 35.4225 28.9053 35.6008 28.4999 35.625C28.0779 35.625 27.6732 35.4574 27.3748 35.159C27.0763 34.8605 26.9087 34.4558 26.9087 34.0338V23.2513C26.9081 22.7697 27.0927 22.3063 27.4242 21.9571C27.7558 21.6078 28.209 21.3994 28.6899 21.375H31.2312C31.8246 21.3354 32.4195 21.4243 32.9754 21.6357C33.5313 21.8471 34.035 22.1759 34.4521 22.5998C34.8692 23.0237 35.19 23.5326 35.3924 24.0918C35.5948 24.6511 35.6741 25.2474 35.6249 25.84ZM32.6087 25.84C32.6087 24.225 31.4687 24.0113 31.0174 24.0113H29.9962V27.74H31.0174C31.2424 27.7283 31.4626 27.671 31.6647 27.5716C31.8669 27.4722 32.0467 27.3327 32.1933 27.1617C32.3399 26.9907 32.4502 26.7917 32.5175 26.5767C32.5848 26.3618 32.6078 26.1354 32.5849 25.9113L32.6087 25.84Z" fill="#047EAA"/>
  </g>
  <defs>
    <clipPath id="clip0_210_444">
      <rect width="57" height="57" fill="white"/>
    </clipPath>
  </defs>
</svg>
