<svg width="13" height="16" viewBox="0 0 13 16" fill="none" xmlns="http://www.w3.org/2000/svg">
  <path d="M5.57031 2.58203C5.29688 2.85547 5.32422 3.26562 5.57031 3.53906L8.87891 6.65625H1.03125C0.648438 6.65625 0.375 6.95703 0.375 7.3125V8.1875C0.375 8.57031 0.648438 8.84375 1.03125 8.84375H8.87891L5.57031 11.9883C5.32422 12.2617 5.32422 12.6719 5.57031 12.9453L6.17188 13.5469C6.44531 13.793 6.85547 13.793 7.10156 13.5469L12.4336 8.21484C12.6797 7.96875 12.6797 7.55859 12.4336 7.28516L7.10156 1.98047C6.85547 1.73438 6.44531 1.73438 6.17188 1.98047L5.57031 2.58203Z" fill="#F47D21"/>
</svg>
