<svg width="21" height="22" viewBox="0 0 21 22" fill="none" xmlns="http://www.w3.org/2000/svg">
  <path d="M6.01165 7.82679C6.01165 8.21348 6.32101 8.48417 6.68837 8.50351L11.2321 8.36816L5.68295 13.9173C5.41226 14.188 5.4316 14.594 5.68295 14.8454L6.30167 15.4641C6.57236 15.7348 6.95906 15.7348 7.22975 15.4641L12.7789 9.91496L12.6629 14.478C12.6822 14.8454 12.9722 15.1354 13.3396 15.1547H14.1903C14.5577 15.1354 14.8477 14.8454 14.8477 14.4973V6.95671C14.8477 6.60868 14.5577 6.31866 14.1903 6.29932L6.66904 6.31866C6.32101 6.31866 6.03098 6.60868 6.01165 6.97605V7.82679Z" fill="#FFFFFF"/>
</svg>
