<svg width="50" height="50" viewBox="0 0 50 50" fill="none" xmlns="http://www.w3.org/2000/svg">
  <path opacity="0.35" d="M11.9791 12.8125C10.6745 11.3831 9.97113 9.50576 10.0153 7.57099C10.0594 5.63622 10.8477 3.79293 12.2161 2.42448C13.5846 1.05604 15.4278 0.267775 17.3626 0.223638C19.2974 0.179501 21.1747 0.882887 22.6041 2.18751L40.1041 19.6875C41.5057 21.1004 42.292 23.0099 42.2916 25H24.1875L11.9791 12.8125Z" fill="#047EAA"/>
  <path d="M22.6041 47.9167C21.1747 49.2213 19.2974 49.9247 17.3626 49.8805C15.4278 49.8364 13.5846 49.0481 12.2161 47.6797C10.8477 46.3112 10.0594 44.468 10.0153 42.5332C9.97113 40.5984 10.6745 38.7211 11.9791 37.2917L24.1875 25H42.2916C42.292 26.9901 41.5057 28.8996 40.1041 30.3125L22.6041 47.9167Z" fill="#047EAA"/>
</svg>
