<svg width="50" height="50" viewBox="0 0 50 50" fill="none" xmlns="http://www.w3.org/2000/svg">
  <path opacity="0.35" d="M38.0209 12.8125C39.3255 11.3831 40.0289 9.50576 39.9847 7.57099C39.9406 5.63622 39.1523 3.79293 37.7839 2.42448C36.4155 1.05604 34.5722 0.267775 32.6374 0.223638C30.7026 0.179501 28.8253 0.882887 27.3959 2.18751L9.89587 19.6875C8.49434 21.1004 7.70805 23.0099 7.70837 25H25.8125L38.0209 12.8125Z" fill="#047EAA"/>
  <path d="M27.3958 47.9167C28.8252 49.2213 30.7025 49.9247 32.6373 49.8805C34.5721 49.8364 36.4154 49.0481 37.7838 47.6797C39.1523 46.3112 39.9405 44.468 39.9847 42.5332C40.0288 40.5984 39.3254 38.7211 38.0208 37.2917L25.8125 25H7.70829C7.68012 26.9753 8.42817 28.8829 9.79162 30.3125L27.3958 47.9167Z" fill="#047EAA"/>
</svg>
