<svg width="9" height="10" viewBox="0 0 9 10" fill="none" xmlns="http://www.w3.org/2000/svg">
  <path d="M1.52748 2.17177C0.915496 2.81271 0.498686 3.62938 0.329768 4.5185C0.160851 5.40761 0.247414 6.32924 0.578508 7.16681C0.909603 8.00439 1.47036 8.72029 2.18985 9.22398C2.90934 9.72766 3.75526 9.9965 4.62061 9.9965C5.48596 9.9965 6.33187 9.72766 7.05136 9.22398C7.77086 8.72029 8.33161 8.00439 8.66271 7.16681C8.9938 6.32924 9.08036 5.40761 8.91145 4.5185C8.74253 3.62938 8.32572 2.81271 7.71373 2.17177C6.8933 1.31253 5.7807 0.829834 4.62061 0.829834C3.46051 0.829834 2.34792 1.31253 1.52748 2.17177V2.17177ZM6.47998 4.76594L5.85873 5.41677L6.47998 6.06761C6.62333 6.24296 6.69824 6.46854 6.68973 6.69924C6.68122 6.92994 6.58993 7.14879 6.4341 7.31204C6.27827 7.47529 6.06937 7.57093 5.84915 7.57984C5.62894 7.58875 5.41362 7.51028 5.24623 7.36011L4.62498 6.70927L4.00373 7.36011C3.83634 7.51028 3.62103 7.58875 3.40081 7.57984C3.18059 7.57093 2.9717 7.47529 2.81586 7.31204C2.66003 7.14879 2.56874 6.92994 2.56024 6.69924C2.55173 6.46854 2.62663 6.24296 2.76998 6.06761L3.39123 5.41677L2.76998 4.76594C2.62663 4.59058 2.55173 4.36501 2.56024 4.13431C2.56874 3.9036 2.66003 3.68476 2.81586 3.52151C2.9717 3.35825 3.18059 3.26262 3.40081 3.2537C3.62103 3.24479 3.83634 3.32326 4.00373 3.47344L4.62498 4.12427L5.24623 3.47344C5.41362 3.32326 5.62894 3.24479 5.84915 3.2537C6.06937 3.26262 6.27827 3.35825 6.4341 3.52151C6.58993 3.68476 6.68122 3.9036 6.68973 4.13431C6.69824 4.36501 6.62333 4.59058 6.47998 4.76594Z" fill="#F47D21"/>
</svg>
