<svg width="57" height="57" viewBox="0 0 57 57" fill="none" xmlns="http://www.w3.org/2000/svg">
  <g clip-path="url(#clip0_169_677)">
    <path opacity="0.35" d="M47.5 41.0637H0V12.5637C0 10.0442 1.00089 7.6278 2.78249 5.84621C4.56408 4.06461 6.98044 3.06372 9.5 3.06372H47.5C50.0196 3.06372 52.4359 4.06461 54.2175 5.84621C55.9991 7.6278 57 10.0442 57 12.5637V31.5637C57 34.0833 55.9991 36.4996 54.2175 38.2812C52.4359 40.0628 50.0196 41.0637 47.5 41.0637Z" fill="#047EAA"/>
    <path d="M11.0437 15.77C15.3985 15.77 18.9287 12.2398 18.9287 7.885C18.9287 3.53023 15.3985 0 11.0437 0C6.68893 0 3.15869 3.53023 3.15869 7.885C3.15869 12.2398 6.68893 15.77 11.0437 15.77Z" fill="#047EAA"/>
    <path d="M34.5088 19H6.3175C4.65019 18.9999 3.05047 19.659 1.86706 20.8335C0.683658 22.008 0.0125361 23.6027 0 25.27L0 41.0637H19V29.4025C18.9958 29.006 19.1355 28.6215 19.3932 28.3202C19.6508 28.0189 20.009 27.8212 20.4013 27.7637L34.8887 25.6975C35.7021 25.6155 36.4603 25.2488 37.0296 24.6622C37.5988 24.0755 37.9425 23.3066 38 22.4912C38.0166 22.0283 37.9377 21.5669 37.7681 21.1358C37.5985 20.7047 37.3419 20.3131 37.0144 19.9856C36.6868 19.658 36.2953 19.4015 35.8642 19.2319C35.4331 19.0623 34.9717 18.9834 34.5088 19Z" fill="#047EAA"/>
    <path d="M28.5 57C31.7792 57 34.4375 54.3417 34.4375 51.0625C34.4375 47.7833 31.7792 45.125 28.5 45.125C25.2208 45.125 22.5625 47.7833 22.5625 51.0625C22.5625 54.3417 25.2208 57 28.5 57Z" fill="#047EAA"/>
    <path d="M51.0625 57C54.3417 57 57 54.3417 57 51.0625C57 47.7833 54.3417 45.125 51.0625 45.125C47.7833 45.125 45.125 47.7833 45.125 51.0625C45.125 54.3417 47.7833 57 51.0625 57Z" fill="#047EAA"/>
    <path d="M5.9375 57C9.21669 57 11.875 54.3417 11.875 51.0625C11.875 47.7833 9.21669 45.125 5.9375 45.125C2.65831 45.125 0 47.7833 0 51.0625C0 54.3417 2.65831 57 5.9375 57Z" fill="#047EAA"/>
  </g>
  <defs>
    <clipPath id="clip0_169_677">
      <rect width="57" height="57" fill="white"/>
    </clipPath>
  </defs>
</svg>
