<svg width="56" height="57" viewBox="0 0 56 57" fill="none" xmlns="http://www.w3.org/2000/svg">
  <g clip-path="url(#clip0_210_443)">
    <path opacity="0.35" d="M44.3333 54.625C49.488 54.625 53.6667 50.3717 53.6667 45.125C53.6667 39.8783 49.488 35.625 44.3333 35.625C39.1787 35.625 35 39.8783 35 45.125C35 50.3717 39.1787 54.625 44.3333 54.625Z" fill="#047EAA"/>
    <path d="M51.8 6.79208e-05H4.2C3.09628 -0.00627823 2.03497 0.432316 1.24798 1.22001C0.46099 2.0077 0.0123146 3.08044 0 4.20382C0.00305563 4.7621 0.114117 5.31431 0.326842 5.8289C0.539567 6.3435 0.84979 6.81041 1.2398 7.20297C1.62981 7.59553 2.09196 7.90606 2.59987 8.11682C3.10779 8.32758 3.65151 8.43444 4.2 8.43132H51.8C52.3485 8.43444 52.8922 8.32758 53.4001 8.11682C53.908 7.90606 54.3702 7.59553 54.7602 7.20297C55.1502 6.81041 55.4604 6.3435 55.6732 5.8289C55.8859 5.31431 55.9969 4.7621 56 4.20382C55.9877 3.08044 55.539 2.0077 54.752 1.22001C53.965 0.432316 52.9037 -0.00627823 51.8 6.79208e-05Z" fill="#047EAA"/>
    <path opacity="0.35" d="M5.59998 8.43127L15.7033 20.5913C18.2198 23.5999 19.6012 27.4225 19.6 31.3738V46.5263C19.6052 47.8651 20.0772 49.1586 20.9318 50.1763C21.7864 51.1941 22.9682 51.87 24.2666 52.0838L31.4766 53.295C32.0741 53.3979 32.6864 53.3679 33.2714 53.2072C33.8564 53.0465 34.4003 52.7589 34.8658 52.364C35.3313 51.9692 35.7074 51.4765 35.9682 50.9198C36.2289 50.363 36.3683 49.7555 36.3766 49.1388V31.3738C36.3754 27.4225 37.7568 23.5999 40.2733 20.5913L50.4 8.43127H5.59998Z" fill="#047EAA"/>
    <path d="M36.0734 36.7174C34.4414 38.378 33.3299 40.494 32.8795 42.7976C32.429 45.1012 32.6599 47.4891 33.5428 49.6591C34.4257 51.8292 35.921 53.6841 37.8397 54.9891C39.7583 56.2941 42.0141 56.9906 44.3217 56.9906C46.6293 56.9906 48.8851 56.2941 50.8037 54.9891C52.7224 53.6841 54.2177 51.8292 55.1006 49.6591C55.9836 47.4891 56.2144 45.1012 55.7639 42.7976C55.3135 40.494 54.202 38.378 52.57 36.7174C50.3822 34.4912 47.4153 33.2406 44.3217 33.2406C41.2281 33.2406 38.2612 34.4912 36.0734 36.7174ZM49.28 43.4387L47.6234 45.1249L49.28 46.8112C49.6623 47.2655 49.862 47.85 49.8394 48.4477C49.8167 49.0454 49.5732 49.6124 49.1577 50.0354C48.7421 50.4584 48.1851 50.7062 47.5978 50.7293C47.0106 50.7523 46.4364 50.549 45.99 50.1599L44.3334 48.4737L42.6767 50.1599C42.2303 50.549 41.6562 50.7523 41.0689 50.7293C40.4817 50.7062 39.9246 50.4584 39.5091 50.0354C39.0935 49.6124 38.8501 49.0454 38.8274 48.4477C38.8047 47.85 39.0044 47.2655 39.3867 46.8112L41.0434 45.1249L39.3867 43.4387C39.0044 42.9844 38.8047 42.3999 38.8274 41.8022C38.8501 41.2045 39.0935 40.6375 39.5091 40.2145C39.9246 39.7915 40.4817 39.5437 41.0689 39.5206C41.6562 39.4975 42.2303 39.7009 42.6767 40.0899L44.3334 41.7762L45.99 40.0899C46.4364 39.7009 47.0106 39.4975 47.5978 39.5206C48.1851 39.5437 48.7421 39.7915 49.1577 40.2145C49.5732 40.6375 49.8167 41.2045 49.8394 41.8022C49.862 42.3999 49.6623 42.9844 49.28 43.4387Z" fill="#047EAA"/>
  </g>
  <defs>
    <clipPath id="clip0_210_443">
      <rect width="56" height="57" fill="white"/>
    </clipPath>
  </defs>
</svg>
