<svg width="65" height="65" viewBox="0 0 65 65" fill="none" xmlns="http://www.w3.org/2000/svg">
  <g clip-path="url(#clip0_179_241)">
    <path opacity="0.35" d="M32.5 27.0833C38.483 27.0833 43.3333 22.2331 43.3333 16.25C43.3333 10.2669 38.483 5.41669 32.5 5.41669C26.5169 5.41669 21.6666 10.2669 21.6666 16.25C21.6666 22.2331 26.5169 27.0833 32.5 27.0833Z" fill="#047EAA"/>
    <path opacity="0.35" d="M12.1875 32.5C15.9269 32.5 18.9583 29.4686 18.9583 25.7291C18.9583 21.9897 15.9269 18.9583 12.1875 18.9583C8.44803 18.9583 5.41663 21.9897 5.41663 25.7291C5.41663 29.4686 8.44803 32.5 12.1875 32.5Z" fill="#047EAA"/>
    <path opacity="0.35" d="M52.8125 32.5C56.5519 32.5 59.5833 29.4686 59.5833 25.7291C59.5833 21.9897 56.5519 18.9583 52.8125 18.9583C49.073 18.9583 46.0416 21.9897 46.0416 25.7291C46.0416 29.4686 49.073 32.5 52.8125 32.5Z" fill="#047EAA"/>
    <path d="M40.625 51.4583H24.375C22.0461 51.2647 19.8874 50.1611 18.3665 48.3868C16.8457 46.6124 16.0853 44.3103 16.25 41.9792C16.0853 39.6481 16.8457 37.3459 18.3665 35.5716C19.8874 33.7973 22.0461 32.6937 24.375 32.5H40.625C42.9539 32.6937 45.1127 33.7973 46.6335 35.5716C48.1544 37.3459 48.9148 39.6481 48.75 41.9792C48.9148 44.3103 48.1544 46.6124 46.6335 48.3868C45.1127 50.1611 42.9539 51.2647 40.625 51.4583Z" fill="#047EAA"/>
    <path opacity="0.35" d="M58.3646 37.9167H6.41875C5.57583 37.9167 4.74116 38.0827 3.9624 38.4053C3.18364 38.7279 2.47604 39.2007 1.88001 39.7967C1.28397 40.3927 0.811171 41.1003 0.488598 41.8791C0.166026 42.6578 0 43.4925 0 44.3354L0 45.0396C0 46.742 0.676259 48.3746 1.88001 49.5784C3.08376 50.7821 4.71639 51.4584 6.41875 51.4584H58.3646C60.1244 51.4584 61.8121 50.7593 63.0565 49.5149C64.3009 48.2705 65 46.5828 65 44.8229V44.5521C65 42.7923 64.3009 41.1045 63.0565 39.8602C61.8121 38.6158 60.1244 37.9167 58.3646 37.9167Z" fill="#047EAA"/>
  </g>
  <defs>
    <clipPath id="clip0_179_241">
      <rect width="65" height="65" fill="white"/>
    </clipPath>
  </defs>
</svg>
