<svg width="56" height="56" viewBox="0 0 56 56" fill="none" xmlns="http://www.w3.org/2000/svg">
  <g clip-path="url(#clip0_196_615)">
    <path opacity="0.35" d="M43.9833 2.05336L28 18.0367L12.0167 2.05336C10.6955 0.73214 8.9035 -0.010114 7.03501 -0.010114C5.16652 -0.010114 3.37456 0.73214 2.05334 2.05336C0.732122 3.37458 -0.0101318 5.16654 -0.0101318 7.03503C-0.0101318 8.90351 0.732122 10.6955 2.05334 12.0167L18.0367 28L2.05334 43.9834C0.732122 45.3046 -0.0101318 47.0965 -0.0101318 48.965C-0.0101318 50.8335 0.732122 52.6255 2.05334 53.9467C3.37456 55.2679 5.16652 56.0102 7.03501 56.0102C8.9035 56.0102 10.6955 55.2679 12.0167 53.9467L54.0167 11.9467C55.3286 10.6162 56.0583 8.81902 56.0452 6.95053C56.032 5.08204 55.2772 3.2953 53.9467 1.98336C52.6162 0.671422 50.819 -0.0582415 48.9505 -0.045114C47.082 -0.0319864 45.2953 0.722857 43.9833 2.05336Z" fill="#047EAA"/>
    <path d="M53.9467 53.9467C54.6063 53.2955 55.13 52.5199 55.4875 51.6647C55.845 50.8095 56.029 49.8919 56.029 48.965C56.029 48.0381 55.845 47.1205 55.4875 46.2653C55.13 45.4101 54.6063 44.6345 53.9467 43.9833L37.9633 28L28 37.9633L43.9833 53.9467C44.6345 54.6063 45.4101 55.13 46.2653 55.4875C47.1205 55.845 48.0381 56.029 48.965 56.029C49.8919 56.029 50.8095 55.845 51.6647 55.4875C52.5199 55.13 53.2955 54.6063 53.9467 53.9467Z" fill="#047EAA"/>
  </g>
  <defs>
    <clipPath id="clip0_196_615">
      <rect width="56" height="56" fill="white"/>
    </clipPath>
  </defs>
</svg>
