<svg width="73" height="71" viewBox="0 0 73 71" fill="none" xmlns="http://www.w3.org/2000/svg">
  <g clip-path="url(#clip0_184_309)">
    <path opacity="0.35" d="M62.0804 56.5338H10.9196C8.01795 56.5181 5.24064 55.3861 3.19455 53.3849C1.14846 51.3838 -4.45303e-05 48.6764 1.29493e-09 45.8542L1.29493e-09 17.4246C0.00805243 14.5973 1.16847 11.8885 3.22682 9.89211C5.28518 7.89569 8.07349 6.77459 10.9804 6.7746H62.0804C64.9768 6.79019 67.7495 7.91819 69.7947 9.91292C71.84 11.9077 72.992 14.6075 73 17.4246V45.8542C73 48.6764 71.8515 51.3838 69.8055 53.3849C67.7594 55.3861 64.982 56.5181 62.0804 56.5338Z" fill="#047EAA"/>
    <path d="M49.3054 56.5338H23.6946C22.2425 56.5338 20.85 57.0948 19.8232 58.0934C18.7964 59.092 18.2196 60.4465 18.2196 61.8588C18.2196 63.271 18.7964 64.6255 19.8232 65.6241C20.85 66.6227 22.2425 67.1838 23.6946 67.1838H49.3054C50.7575 67.1838 52.1501 66.6227 53.1768 65.6241C54.2036 64.6255 54.7804 63.271 54.7804 61.8588C54.7804 60.4465 54.2036 59.092 53.1768 58.0934C52.1501 57.0948 50.7575 56.5338 49.3054 56.5338Z" fill="#047EAA"/>
    <path d="M51.1305 42.3041C50.5727 42.3032 50.0222 42.1819 49.5184 41.9491C48.6533 41.5351 47.9918 40.8049 47.6783 39.918C47.3649 39.0312 47.425 38.0597 47.8455 37.2158L50.6742 31.4766L47.8759 26.1812C47.4282 25.3456 47.3401 24.3713 47.631 23.4725C47.9219 22.5737 48.568 21.8242 49.4271 21.3887C50.2863 20.9533 51.2881 20.8676 52.2122 21.1505C53.1362 21.4335 53.9069 22.0619 54.3546 22.8975L58.0351 29.7904C58.2824 30.2833 58.4109 30.8246 58.4109 31.3731C58.4109 31.9216 58.2824 32.4629 58.0351 32.9558L54.3851 40.2925C54.0869 40.8877 53.6249 41.3909 53.0503 41.7461C52.4758 42.1012 51.8112 42.2944 51.1305 42.3041Z" fill="#047EAA"/>
    <path d="M21.8696 42.3042C21.2015 42.3073 20.5456 42.129 19.976 41.7893C19.4064 41.4495 18.9456 40.9619 18.6455 40.3813L14.965 33.5179C14.7173 33.0199 14.5886 32.4737 14.5886 31.9204C14.5886 31.3671 14.7173 30.821 14.965 30.3229L18.615 22.9863C18.8 22.531 19.0797 22.1178 19.4367 21.7728C19.7937 21.4277 20.2202 21.1582 20.6894 20.9811C21.1586 20.804 21.6604 20.7233 22.1633 20.7439C22.6662 20.7645 23.1592 20.886 23.6114 21.1008C24.0637 21.3156 24.4654 21.6191 24.7913 21.9921C25.1171 22.3652 25.3602 22.7997 25.5051 23.2685C25.65 23.7373 25.6937 24.2302 25.6334 24.7161C25.5731 25.2021 25.4101 25.6707 25.1546 26.0925L22.3259 31.8317L25.1242 37.1271C25.3463 37.5408 25.4823 37.993 25.5245 38.4578C25.5667 38.9227 25.5143 39.391 25.3702 39.8362C25.2262 40.2813 24.9933 40.6944 24.6849 41.0519C24.3765 41.4094 23.9986 41.7043 23.573 41.9196C23.044 42.1758 22.4605 42.3075 21.8696 42.3042Z" fill="#047EAA"/>
    <path d="M34.675 45.8541H34.0667C33.5892 45.7787 33.1317 45.6124 32.7204 45.3648C32.309 45.1173 31.9519 44.7933 31.6694 44.4114C31.3869 44.0295 31.1846 43.5971 31.074 43.1391C30.9634 42.6811 30.9468 42.2063 31.025 41.7421L34.675 20.4125C34.8963 19.5349 35.4506 18.7712 36.2267 18.2746C37.0028 17.778 37.9433 17.5852 38.8595 17.735C39.7757 17.8848 40.5997 18.366 41.1663 19.082C41.7328 19.7981 42 20.6961 41.9142 21.5958L38.2642 42.8958C38.1324 43.7266 37.6968 44.4832 37.0374 45.0267C36.3781 45.5702 35.5392 45.864 34.675 45.8541Z" fill="#047EAA"/>
  </g>
  <defs>
    <clipPath id="clip0_184_309">
      <rect width="73" height="71" fill="white"/>
    </clipPath>
  </defs>
</svg>
