<svg width="50" height="50" viewBox="0 0 50 50" fill="none" xmlns="http://www.w3.org/2000/svg">
  <path d="M20.0208 44.9375C19.3655 44.9347 18.7171 44.8027 18.1129 44.5488C17.5087 44.295 16.9606 43.9244 16.5 43.4583L1.54162 28.5208C0.612901 27.5843 0.0917969 26.3189 0.0917969 25C0.0917969 23.6811 0.612901 22.4156 1.54162 21.4791L16.5 6.54163C17.4337 5.60785 18.7002 5.08325 20.0208 5.08325C21.3414 5.08325 22.6078 5.60785 23.5416 6.54163C24.4754 7.47541 25 8.74189 25 10.0625C25 11.383 24.4754 12.6495 23.5416 13.5833L12.125 25L23.5416 36.4166C24.235 37.1157 24.7065 38.004 24.897 38.9701C25.0876 39.9361 24.9886 40.9369 24.6126 41.847C24.2366 42.757 23.6002 43.5358 22.7833 44.0855C21.9664 44.6353 21.0054 44.9317 20.0208 44.9375Z" fill="#047EAA"/>
  <path opacity="0.35" d="M44.9375 44.9375C44.2787 44.9375 43.6264 44.8068 43.0185 44.5529C42.4105 44.299 41.859 43.9269 41.3959 43.4583L26.4584 28.5208C25.5296 27.5844 25.0085 26.3189 25.0085 25C25.0085 23.6811 25.5296 22.4156 26.4584 21.4792L41.3959 6.54168C42.3297 5.60513 43.5972 5.07789 44.9198 5.07593C46.2423 5.07398 47.5114 5.59748 48.448 6.53126C49.3845 7.46504 49.9117 8.73262 49.9137 10.0551C49.9157 11.3777 49.3922 12.6468 48.4584 13.5833L37.0209 25L48.4584 36.4167C49.1518 37.1158 49.6233 38.0041 49.8138 38.9701C50.0043 39.9362 49.9054 40.937 49.5293 41.847C49.1533 42.7571 48.5169 43.5358 47.7001 44.0856C46.8832 44.6354 45.9222 44.9317 44.9375 44.9375Z" fill="#047EAA"/>
</svg>
