<svg width="50" height="50" viewBox="0 0 50 50" fill="none" xmlns="http://www.w3.org/2000/svg">
  <path d="M30 5C31.3298 5.00456 32.6036 5.53653 33.5416 6.47917L48.5208 21.4583C48.9869 21.9229 49.3568 22.4748 49.6091 23.0826C49.8615 23.6903 49.9914 24.3419 49.9914 25C49.9914 25.6581 49.8615 26.3097 49.6091 26.9174C49.3568 27.5252 48.9869 28.0772 48.5208 28.5417L33.5416 43.5208C32.6051 44.4601 31.3338 44.9889 30.0073 44.9909C28.6809 44.9928 27.408 44.4678 26.4687 43.5313C25.5294 42.5947 25.0006 41.3234 24.9987 39.997C24.9967 38.6705 25.5218 37.3976 26.4583 36.4583L37.9166 25L26.4583 13.5417C25.7666 12.8385 25.2974 11.9473 25.1091 10.9791C24.9208 10.0109 25.0219 9.00873 25.3997 8.09764C25.7774 7.18654 26.4152 6.40689 27.2333 5.85601C28.0514 5.30512 29.0137 5.0074 30 5Z" fill="#047EAA"/>
  <path opacity="0.35" d="M5.00002 5C5.65886 4.99998 6.31116 5.13071 6.91911 5.38461C7.52706 5.63852 8.07857 6.01056 8.54169 6.47917L23.5417 21.4583C24.473 22.4019 24.9952 23.6743 24.9952 25C24.9952 26.3257 24.473 27.5981 23.5417 28.5417L8.54169 43.5208C7.59057 44.3826 6.34446 44.8457 5.06136 44.8141C3.77827 44.7825 2.55646 44.2587 1.6489 43.3511C0.741337 42.4436 0.217537 41.2218 0.185946 39.9387C0.154355 38.6556 0.617392 37.4095 1.47919 36.4583L12.9375 25L1.47919 13.5417C0.788695 12.8398 0.319796 11.9504 0.130824 10.9842C-0.0581473 10.0179 0.0411488 9.01738 0.41636 8.10711C0.791572 7.19683 1.42614 6.41696 2.24112 5.86451C3.05609 5.31207 4.01551 5.01143 5.00002 5Z" fill="#047EAA"/>
</svg>
