<svg width="65" height="65" viewBox="0 0 65 65" fill="none" xmlns="http://www.w3.org/2000/svg">
  <path opacity="0.35" d="M54.1667 65H10.8333C7.96016 65 5.20465 63.8587 3.17301 61.827C1.14137 59.7954 0 57.0399 0 54.1667V14.4445H65V54.1667C65 57.0399 63.8586 59.7954 61.827 61.827C59.7953 63.8587 57.0398 65 54.1667 65Z" fill="#047EAA"/>
  <path d="M54.1667 0H10.8333C7.96016 0 5.20465 1.14137 3.17301 3.17301C1.14137 5.20465 0 7.96016 0 10.8333V14.4444H65V10.8333C65 7.96016 63.8586 5.20465 61.827 3.17301C59.7953 1.14137 57.0398 0 54.1667 0Z" fill="#047EAA"/>
  <path d="M39.7222 57.7778C41.7166 57.7778 43.3333 56.161 43.3333 54.1667C43.3333 52.1723 41.7166 50.5555 39.7222 50.5555C37.7278 50.5555 36.1111 52.1723 36.1111 54.1667C36.1111 56.161 37.7278 57.7778 39.7222 57.7778Z" fill="#047EAA"/>
  <path d="M25.2779 57.7778C27.2722 57.7778 28.889 56.161 28.889 54.1667C28.889 52.1723 27.2722 50.5555 25.2779 50.5555C23.2835 50.5555 21.6667 52.1723 21.6667 54.1667C21.6667 56.161 23.2835 57.7778 25.2779 57.7778Z" fill="#047EAA"/>
  <path d="M10.8333 57.7778C12.8276 57.7778 14.4444 56.161 14.4444 54.1667C14.4444 52.1723 12.8276 50.5555 10.8333 50.5555C8.83892 50.5555 7.22217 52.1723 7.22217 54.1667C7.22217 56.161 8.83892 57.7778 10.8333 57.7778Z" fill="#047EAA"/>
  <path d="M10.8333 43.3333C12.8276 43.3333 14.4444 41.7166 14.4444 39.7222C14.4444 37.7278 12.8276 36.1111 10.8333 36.1111C8.83892 36.1111 7.22217 37.7278 7.22217 39.7222C7.22217 41.7166 8.83892 43.3333 10.8333 43.3333Z" fill="#047EAA"/>
  <path d="M25.2779 43.3333C27.2722 43.3333 28.889 41.7166 28.889 39.7222C28.889 37.7278 27.2722 36.1111 25.2779 36.1111C23.2835 36.1111 21.6667 37.7278 21.6667 39.7222C21.6667 41.7166 23.2835 43.3333 25.2779 43.3333Z" fill="#047EAA"/>
  <path d="M39.7222 43.3333C41.7166 43.3333 43.3333 41.7166 43.3333 39.7222C43.3333 37.7278 41.7166 36.1111 39.7222 36.1111C37.7278 36.1111 36.1111 37.7278 36.1111 39.7222C36.1111 41.7166 37.7278 43.3333 39.7222 43.3333Z" fill="#047EAA"/>
  <path d="M54.1668 43.3333C56.1611 43.3333 57.7779 41.7166 57.7779 39.7222C57.7779 37.7278 56.1611 36.1111 54.1668 36.1111C52.1724 36.1111 50.5557 37.7278 50.5557 39.7222C50.5557 41.7166 52.1724 43.3333 54.1668 43.3333Z" fill="#047EAA"/>
  <path d="M54.1668 28.8888C56.1611 28.8888 57.7779 27.2721 57.7779 25.2777C57.7779 23.2834 56.1611 21.6666 54.1668 21.6666C52.1724 21.6666 50.5557 23.2834 50.5557 25.2777C50.5557 27.2721 52.1724 28.8888 54.1668 28.8888Z" fill="#047EAA"/>
  <path d="M39.7222 28.8888C41.7166 28.8888 43.3333 27.2721 43.3333 25.2777C43.3333 23.2834 41.7166 21.6666 39.7222 21.6666C37.7278 21.6666 36.1111 23.2834 36.1111 25.2777C36.1111 27.2721 37.7278 28.8888 39.7222 28.8888Z" fill="#047EAA"/>
  <path d="M25.2779 28.8888C27.2722 28.8888 28.889 27.2721 28.889 25.2777C28.889 23.2834 27.2722 21.6666 25.2779 21.6666C23.2835 21.6666 21.6667 23.2834 21.6667 25.2777C21.6667 27.2721 23.2835 28.8888 25.2779 28.8888Z" fill="#047EAA"/>
</svg>
