<?xml version="1.0" encoding="UTF-8" standalone="no"?>
<!DOCTYPE svg PUBLIC "-//W3C//DTD SVG 1.1//EN" "http://www.w3.org/Graphics/SVG/1.1/DTD/svg11.dtd">
<svg width="100%" height="100%" viewBox="0 0 797 736" version="1.1" xmlns="http://www.w3.org/2000/svg" xmlns:xlink="http://www.w3.org/1999/xlink" xml:space="preserve" xmlns:serif="http://www.serif.com/" style="fill-rule:evenodd;clip-rule:evenodd;stroke-linecap:round;stroke-linejoin:round;stroke-miterlimit:1.5;">
    <g transform="matrix(1,0,0,1,-1443.41,-2621.12)">
        <g>
            <path d="M1751.32,3259.11L1751.32,3339.26L1584.7,3339.26L1584.7,2991.21C1584.7,2945.22 1622.05,2907.87 1668.04,2907.87C1676.63,2907.87 1684.91,2909.18 1692.71,2911.59L1738.38,2911.59L1862.47,2885.56C1878.05,2882.29 1893.36,2892.29 1896.63,2907.87C1899.9,2923.46 1889.9,2938.76 1874.32,2942.03L1751.38,2967.82L1751.38,3255.92C1751.38,3256.98 1751.36,3258.05 1751.32,3259.11Z" style="fill:none;stroke:rgb(76,151,159);stroke-width:35.42px;"/>
            <g transform="matrix(1.85014,0,0,1.85014,429.487,-3026.8)">
                <circle cx="681.063" cy="3161.7" r="33.423" style="fill:rgb(76,151,159);"/>
            </g>
            <g transform="matrix(1,0,0,1,7.08474,-5.04285)">
                <path d="M1890.16,2907.87L2021.21,2787.91" style="fill:none;stroke:rgb(76,151,159);stroke-width:31.25px;"/>
            </g>
            <g transform="matrix(1.35768,0,0,1.35768,-691.54,-1236.53)">
                <g transform="matrix(1.37941,0,0,1.32216,637.316,-1103.73)">
                    <circle cx="1031.62" cy="3302.68" r="36.57" style="fill:rgb(76,151,159);"/>
                </g>
                <g transform="matrix(1,0,0,1,0,-27.9712)">
                    <path d="M2157.91,3410.79L1962.77,3410.79L1996.7,3339.26L2123.98,3339.26L2157.91,3410.79Z" style="fill:rgb(76,151,159);"/>
                </g>
                <g transform="matrix(1.37941,0,0,1.32216,442.179,-1103.73)">
                    <circle cx="1031.62" cy="3302.68" r="36.57" style="fill:rgb(76,151,159);"/>
                </g>
                <g transform="matrix(1,0,0,1,-195.136,-27.9712)">
                    <path d="M2157.91,3410.79L1962.77,3410.79L1996.7,3339.26L2123.98,3339.26L2157.91,3410.79Z" style="fill:rgb(76,151,159);"/>
                </g>
                <g transform="matrix(1.37941,0,0,1.32216,247.043,-1103.73)">
                    <circle cx="1031.62" cy="3302.68" r="36.57" style="fill:rgb(76,151,159);"/>
                </g>
                <g transform="matrix(1,0,0,1,-390.273,-27.9712)">
                    <path d="M2157.91,3410.79L1962.77,3410.79L1996.7,3339.26L2123.98,3339.26L2157.91,3410.79Z" style="fill:rgb(76,151,159);"/>
                </g>
            </g>
            <path d="M1584.7,3048.96L1522.83,3048.96C1487.92,3048.96 1459.58,3020.61 1459.58,2985.7L1459.58,2700C1459.58,2665.09 1487.92,2636.74 1522.83,2636.74L2160.83,2636.74C2195.74,2636.74 2224.09,2665.09 2224.09,2700L2224.09,2985.7C2224.09,3020.61 2195.74,3048.96 2160.83,3048.96L1751.38,3048.96L1751.38,2967.82L1874.32,2942.03C1889.9,2938.76 1899.9,2923.46 1896.63,2907.87C1893.36,2892.29 1878.05,2882.29 1862.47,2885.56L1738.38,2911.59L1692.71,2911.59C1684.91,2909.18 1676.63,2907.87 1668.04,2907.87C1622.05,2907.87 1584.7,2945.22 1584.7,2991.21L1584.7,3048.96Z" style="fill:none;stroke:rgb(76,151,159);stroke-width:31.25px;"/>
        </g>
    </g>
</svg>
