<svg width="57" height="55" viewBox="0 0 57 55" fill="none" xmlns="http://www.w3.org/2000/svg">
  <g clip-path="url(#clip0_210_442)">
    <path d="M52.7251 0H4.27506C3.11384 0.0300232 2.0122 0.502542 1.21107 1.31421C0.40994 2.12588 -0.0254726 3.21064 6.06832e-05 4.33125C-0.0157462 4.88805 0.0823134 5.4424 0.288635 5.96262C0.494957 6.48284 0.805497 6.95873 1.20251 7.36309C1.59952 7.76745 2.07522 8.09236 2.60242 8.31926C3.12963 8.54615 3.698 8.67057 4.27506 8.68542H52.7251C53.3021 8.67057 53.8705 8.54615 54.3977 8.31926C54.9249 8.09236 55.4006 7.76745 55.7976 7.36309C56.1946 6.95873 56.5052 6.48284 56.7115 5.96262C56.9178 5.4424 57.0159 4.88805 57.0001 4.33125C57.0256 3.21064 56.5902 2.12588 55.7891 1.31421C54.9879 0.502542 53.8863 0.0300232 52.7251 0Z" fill="#047EAA"/>
    <path opacity="0.35" d="M5.69995 8.68542L15.9837 21.2208C18.5649 24.3892 19.9624 28.3054 19.95 32.3354V47.9875C19.9229 49.3251 20.3837 50.6292 21.2519 51.6722C22.1202 52.7153 23.3406 53.4308 24.6999 53.6938L32.0625 55C32.6913 55.0948 33.3341 55.0545 33.9449 54.8819C34.5557 54.7093 35.1195 54.4086 35.5959 54.0014C36.0724 53.5943 36.4497 53.0906 36.7011 52.5263C36.9525 51.9621 37.0716 51.3513 37.05 50.7375V32.4042C37.0375 28.3741 38.435 24.4579 41.0162 21.2896L51.3 8.68542H5.69995Z" fill="#047EAA"/>
  </g>
  <defs>
    <clipPath id="clip0_210_442">
      <rect width="57" height="55" fill="white"/>
    </clipPath>
  </defs>
</svg>
