<svg width="57" height="57" viewBox="0 0 57 57" fill="none" xmlns="http://www.w3.org/2000/svg">
  <g clip-path="url(#clip0_167_365)">
    <path opacity="0.35" d="M49.2812 12.7656V10.6875C49.2812 9.11278 48.6557 7.60255 47.5422 6.48905C46.4287 5.37556 44.9184 4.75 43.3437 4.75H13.6562C12.0815 4.75 10.5713 5.37556 9.45777 6.48905C8.34427 7.60255 7.71872 9.11278 7.71872 10.6875V12.7656C7.70863 15.6627 8.54652 18.4994 10.1291 20.926C11.7117 23.3526 13.9698 25.2631 16.625 26.4219L21.4937 28.5L16.625 30.5781C13.9698 31.7369 11.7117 33.6474 10.1291 36.074C8.54652 38.5006 7.70863 41.3373 7.71872 44.2344V46.3125C7.71872 47.8872 8.34427 49.3974 9.45777 50.5109C10.5713 51.6244 12.0815 52.25 13.6562 52.25H43.3437C44.9184 52.25 46.4287 51.6244 47.5422 50.5109C48.6557 49.3974 49.2812 47.8872 49.2812 46.3125V44.2344C49.2913 41.3373 48.4534 38.5006 46.8708 36.074C45.2883 33.6474 43.0302 31.7369 40.375 30.5781L35.4172 28.5L40.375 26.4219C43.0302 25.2631 45.2883 23.3526 46.8708 20.926C48.4534 18.4994 49.2913 15.6627 49.2812 12.7656Z" fill="#047EAA"/>
    <path d="M47.7969 7.71875H9.20312C8.02208 7.71875 6.88941 7.24958 6.05429 6.41446C5.21917 5.57934 4.75 4.44667 4.75 3.26562C4.75 2.08458 5.21917 0.951913 6.05429 0.11679C6.88941 -0.718333 8.02208 -1.1875 9.20312 -1.1875H47.7969C48.9779 -1.1875 50.1106 -0.718333 50.9457 0.11679C51.7808 0.951913 52.25 2.08458 52.25 3.26562C52.25 4.44667 51.7808 5.57934 50.9457 6.41446C50.1106 7.24958 48.9779 7.71875 47.7969 7.71875Z" fill="#047EAA"/>
    <path d="M47.7969 58.1875H9.20312C8.02208 58.1875 6.88941 57.7183 6.05429 56.8832C5.21917 56.0481 4.75 54.9154 4.75 53.7344C4.75 52.5533 5.21917 51.4207 6.05429 50.5855C6.88941 49.7504 8.02208 49.2812 9.20312 49.2812H47.7969C48.9779 49.2812 50.1106 49.7504 50.9457 50.5855C51.7808 51.4207 52.25 52.5533 52.25 53.7344C52.25 54.9154 51.7808 56.0481 50.9457 56.8832C50.1106 57.7183 48.9779 58.1875 47.7969 58.1875Z" fill="#047EAA"/>
    <path d="M16.625 16.625C16.8445 18.0368 17.4204 19.3693 18.2983 20.4966C19.1762 21.6239 20.3271 22.5086 21.6422 23.0672L28.3813 26.0359L35.1203 23.0672C36.4766 22.5364 37.6729 21.6646 38.5934 20.536C39.514 19.4074 40.1277 18.0603 40.375 16.625H16.625Z" fill="#047EAA"/>
    <path d="M40.375 49.2811C40.1555 47.8693 39.5796 46.5368 38.7017 45.4095C37.8238 44.2823 36.6729 43.3975 35.3578 42.8389L28.6187 39.8702L21.8797 42.8389C20.5234 43.3697 19.3271 44.2415 18.4066 45.3701C17.486 46.4987 16.8723 47.8459 16.625 49.2811H40.375Z" fill="#047EAA"/>
  </g>
  <defs>
    <clipPath id="clip0_167_365">
      <rect width="57" height="57" fill="white"/>
    </clipPath>
  </defs>
</svg>
