<svg width="56" height="57" viewBox="0 0 56 57" fill="none" xmlns="http://www.w3.org/2000/svg">
  <g clip-path="url(#clip0_220_3822)">
    <path opacity="0.35" d="M26.0167 2.89746C25.7601 2.89746 25.5034 2.89746 25.2234 2.89746C23.2879 3.00686 21.4671 3.86652 20.135 5.29983C18.8029 6.73315 18.0605 8.63129 18.0605 10.6043C18.0605 12.5774 18.8029 14.4755 20.135 15.9088C21.4671 17.3422 23.2879 18.2018 25.2234 18.3112C25.5034 18.3112 25.7601 18.3112 26.0167 18.3112V2.89746Z" fill="#047EAA"/>
    <path d="M26.0167 20.805H17.6633C17.0006 20.8018 16.3438 20.9324 15.731 21.1891C15.1181 21.4458 14.5613 21.8235 14.0926 22.3005C13.624 22.7775 13.2529 23.3443 13.0007 23.9681C12.7485 24.5919 12.6203 25.2604 12.6233 25.935V31.065H26.0167V20.805Z" fill="#047EAA"/>
    <path opacity="0.35" d="M26.0167 31.0649H3.78C2.77748 31.0649 1.81602 31.4703 1.10714 32.1918C0.398249 32.9134 0 33.892 0 34.9124C0 35.9329 0.398249 36.9115 1.10714 37.633C1.81602 38.3546 2.77748 38.7599 3.78 38.7599H26.0167V31.0649Z" fill="#047EAA"/>
    <path d="M26.0167 38.76H3.78002C3.34873 38.7662 2.9205 38.6855 2.52002 38.5225L4.66669 45.3387C5.49714 47.9092 7.10369 50.1472 9.25729 51.7337C11.4109 53.3202 14.0016 54.1741 16.66 54.1737H25.9934L26.0167 38.76Z" fill="#047EAA"/>
    <path opacity="0.35" d="M48.0434 2.94495H29.5167V43.3199H48.0434C50.1394 43.3263 52.1527 42.4881 53.6436 40.9885C55.1344 39.4888 55.9816 37.4496 56.0001 35.3162V11.0437C56.0001 8.89577 55.1618 6.83583 53.6696 5.31702C52.1774 3.79821 50.1536 2.94495 48.0434 2.94495Z" fill="#047EAA"/>
    <path d="M29.5167 35.3163V54.1738H37.4501C37.8187 54.209 38.1906 54.1656 38.5418 54.0461C38.893 53.9267 39.2159 53.734 39.4897 53.4802C39.7635 53.2265 39.9822 52.9173 40.1319 52.5726C40.2816 52.2278 40.3589 51.8551 40.3589 51.4782C40.3589 51.1012 40.2816 50.7285 40.1319 50.3837C39.9822 50.039 39.7635 49.7299 39.4897 49.4761C39.2159 49.2224 38.893 49.0296 38.5418 48.9102C38.1906 48.7908 37.8187 48.7473 37.4501 48.7825H34.8134V43.3913H48.0434C49.0872 43.3944 50.1213 43.1879 51.0865 42.7834C52.0517 42.379 52.929 41.7847 53.6682 41.0346C54.4073 40.2844 54.9938 39.3932 55.3939 38.4119C55.7941 37.4307 56.0001 36.3787 56.0001 35.3163H29.5167Z" fill="#047EAA"/>
  </g>
  <defs>
    <clipPath id="clip0_220_3822">
      <rect width="56" height="57" fill="white"/>
    </clipPath>
  </defs>
</svg>
