<svg width="27" height="27" viewBox="0 0 27 27" fill="none" xmlns="http://www.w3.org/2000/svg">
  <path d="M19.2555 24.3C18.5116 24.3 17.9055 23.6952 17.9055 22.95V13.5C17.9055 12.0083 16.6972 10.8 15.2055 10.8H8.45547C7.71027 10.8 7.10547 11.4048 7.10547 12.15C7.10547 12.8952 7.70217 13.5 8.45547 13.5C9.20877 13.5 9.80547 14.1048 9.80547 14.85V22.95C9.80547 23.6952 9.21822 24.3 8.45547 24.3C7.69272 24.3 7.10547 24.9048 7.10547 25.65C7.10547 26.3952 7.71027 27 8.45547 27H19.2555C20.0007 27 20.6055 26.3952 20.6055 25.65C20.6055 24.9048 19.9993 24.3 19.2555 24.3Z" fill="#F47D21"/>
  <path opacity="0.35" d="M13.8557 8.1C16.0924 8.1 17.9057 6.28675 17.9057 4.05C17.9057 1.81325 16.0924 0 13.8557 0C11.6189 0 9.80566 1.81325 9.80566 4.05C9.80566 6.28675 11.6189 8.1 13.8557 8.1Z" fill="#F47D21"/>
</svg>
