<svg width="65" height="65" viewBox="0 0 65 65" fill="none" xmlns="http://www.w3.org/2000/svg">
  <g clip-path="url(#clip0_617_432)">
    <path d="M37.4292 52L43.6042 58.5H9.2896C8.0377 58.4755 6.80306 58.2032 5.65699 57.6988C4.51092 57.1945 3.47613 56.468 2.6124 55.5615C1.74866 54.6549 1.07309 53.5862 0.624703 52.4171C0.176317 51.248 -0.0359998 50.0017 1.59708e-05 48.75V13.0542C-0.0215746 12.2197 0.121933 11.3891 0.422295 10.6101C0.722657 9.83121 1.17395 9.11931 1.75026 8.51532C2.32657 7.91132 3.01654 7.42715 3.78052 7.0906C4.54451 6.75405 5.36746 6.57176 6.2021 6.5542V48.75C6.19129 49.1662 6.26259 49.5804 6.41193 49.969C6.56127 50.3576 6.78571 50.713 7.07244 51.0148C7.35917 51.3166 7.70256 51.559 8.08299 51.728C8.46342 51.8971 8.87343 51.9895 9.2896 52H37.4292Z" fill="#047EAA"/>
    <path d="M61.9125 13.0542V46.0417L55.7104 39.5688V6.5542C57.3938 6.5968 58.9917 7.30477 60.1542 8.52307C61.3166 9.74136 61.9489 11.3707 61.9125 13.0542Z" fill="#047EAA"/>
    <path opacity="0.35" d="M39.7854 0C38.0285 0.0212619 36.3138 0.54183 34.8416 1.50094C33.3693 2.46005 32.2003 3.81813 31.4708 5.41667L30.9563 6.52708L30.4146 5.41667C29.6925 3.81827 28.5289 2.45934 27.0608 1.49976C25.5926 0.540178 23.8809 0.0198531 22.1271 0L12.3771 0C11.5448 0.0210682 10.7247 0.20594 9.96386 0.544051C9.203 0.882161 8.51622 1.36688 7.94277 1.97052C7.36931 2.57416 6.92042 3.28488 6.62175 4.06207C6.32308 4.83925 6.18047 5.66768 6.20209 6.5V48.75C6.18764 49.1671 6.25643 49.5828 6.40445 49.973C6.55246 50.3632 6.77673 50.72 7.06416 51.0226C7.3516 51.3251 7.69643 51.5674 8.07852 51.7352C8.46062 51.903 8.87232 51.9931 9.28959 52H30.9563V58.5H52.6229C55.1468 58.4361 57.5422 57.3737 59.2838 55.5459C61.0253 53.718 61.9707 51.274 61.9125 48.75V29.25H55.7104V6.55417C55.7393 5.71737 55.6021 4.88314 55.3067 4.09968C55.0113 3.31622 54.5636 2.59906 53.9894 1.98964C53.4153 1.38021 52.726 0.890604 51.9615 0.549101C51.197 0.207599 50.3725 0.0209707 49.5354 0L39.7854 0Z" fill="#047EAA"/>
    <path d="M62.2917 63.8354C61.0134 64.7227 59.4553 65.1133 57.9096 64.9338C56.3639 64.7543 54.9368 64.0171 53.8959 62.8604L35.8584 43.9021C34.6559 42.6279 33.9872 40.9415 33.9896 39.1896V35.2083C33.9824 34.8811 34.0398 34.5556 34.1584 34.2506C34.277 33.9455 34.4546 33.6668 34.6809 33.4304C34.9073 33.194 35.178 33.0045 35.4776 32.8727C35.7772 32.741 36.0999 32.6695 36.4271 32.6625H40.3271C41.1653 32.6672 41.9938 32.8425 42.7621 33.1777C43.5304 33.513 44.2224 34.0012 44.7959 34.6125L63.0771 53.7875C63.7215 54.4815 64.215 55.3016 64.5265 56.1959C64.8379 57.0902 64.9607 58.0394 64.8869 58.9836C64.8131 59.9277 64.5443 60.8463 64.0977 61.6814C63.651 62.5165 63.0361 63.2499 62.2917 63.8354Z" fill="#047EAA"/>
    <path d="M62.2917 63.8354C61.0134 64.7227 59.4553 65.1133 57.9096 64.9338C56.3639 64.7543 54.9368 64.0171 53.8959 62.8604L35.8584 43.9021C34.6559 42.6279 33.9872 40.9415 33.9896 39.1896V35.2083C33.9824 34.8811 34.0398 34.5556 34.1584 34.2506C34.277 33.9455 34.4546 33.6668 34.6809 33.4304C34.9073 33.194 35.178 33.0045 35.4776 32.8727C35.7772 32.741 36.0999 32.6695 36.4271 32.6625H40.3271C41.1653 32.6672 41.9938 32.8425 42.7621 33.1777C43.5304 33.513 44.2224 34.0012 44.7959 34.6125L63.0771 53.7875C63.7215 54.4815 64.215 55.3016 64.5265 56.1959C64.8379 57.0902 64.9607 58.0394 64.8869 58.9836C64.8131 59.9277 64.5443 60.8463 64.0977 61.6814C63.651 62.5165 63.0361 63.2499 62.2917 63.8354Z" fill="#047EAA"/>
    <path d="M30.9563 61.75C31.7886 61.7289 32.6086 61.5441 33.3695 61.206C34.1303 60.8678 34.8171 60.3831 35.3906 59.7795C35.964 59.1758 36.4129 58.4651 36.7116 57.6879C37.0103 56.9108 37.1529 56.0823 37.1313 55.25H24.7542C24.7178 56.9335 25.3501 58.5628 26.5125 59.7811C27.675 60.9994 29.2729 61.7074 30.9563 61.75Z" fill="#047EAA"/>
  </g>
  <defs>
    <clipPath id="clip0_617_432">
      <rect width="65" height="65" fill="white"/>
    </clipPath>
  </defs>
</svg>
