<svg width="61" height="61" viewBox="0 0 61 61" fill="none" xmlns="http://www.w3.org/2000/svg">
  <path opacity="0.35" d="M30.2458 30.5H11.9458V12.2C11.9458 9.77332 12.9098 7.44598 14.6258 5.73002C16.3417 4.01406 18.6691 3.05005 21.0958 3.05005C23.5225 3.05005 25.8499 4.01406 27.5658 5.73002C29.2818 7.44598 30.2458 9.77332 30.2458 12.2V30.5Z" fill="#047EAA"/>
  <path opacity="0.35" d="M48.5459 36.6C47.4658 36.5903 46.4026 36.8676 45.4648 37.4035C44.527 37.9393 43.7484 38.7146 43.2084 39.65H11.9459C11.137 39.65 10.3612 39.9713 9.7892 40.5433C9.21721 41.1153 8.89587 41.8911 8.89587 42.7C8.89587 43.5089 9.21721 44.2847 9.7892 44.8567C10.3612 45.4286 11.137 45.75 11.9459 45.75H43.2084C43.7442 46.6781 44.5151 47.4486 45.4435 47.9841C46.3718 48.5195 47.4248 48.8009 48.4965 48.7999C49.5682 48.799 50.6207 48.5157 51.5481 47.9786C52.4755 47.4416 53.245 46.6697 53.7792 45.7406C54.3134 44.8116 54.5935 43.7582 54.5911 42.6865C54.5887 41.6148 54.3041 40.5627 53.7658 39.636C53.2275 38.7093 52.4546 37.9408 51.5248 37.4078C50.5951 36.8748 49.5413 36.5962 48.4696 36.6H48.5459Z" fill="#047EAA"/>
  <path d="M30.2459 33.5499H11.9459C11.137 33.5499 10.3612 33.2286 9.7892 32.6566C9.21721 32.0846 8.89587 31.3089 8.89587 30.5C8.89587 29.691 9.21721 28.9153 9.7892 28.3433C10.3612 27.7713 11.137 27.45 11.9459 27.45H30.2459C31.0548 27.45 31.8306 27.7713 32.4026 28.3433C32.9745 28.9153 33.2959 29.691 33.2959 30.5C33.2959 31.3089 32.9745 32.0846 32.4026 32.6566C31.8306 33.2286 31.0548 33.5499 30.2459 33.5499Z" fill="#047EAA"/>
  <path d="M24.1458 6.1H18.0458C17.2369 6.1 16.4612 5.77866 15.8892 5.20668C15.3172 4.63469 14.9958 3.85891 14.9958 3.05C14.9958 2.24109 15.3172 1.46531 15.8892 0.893324C16.4612 0.321338 17.2369 0 18.0458 0L24.1458 0C24.9548 0 25.7305 0.321338 26.3025 0.893324C26.8745 1.46531 27.1958 2.24109 27.1958 3.05C27.1958 3.85891 26.8745 4.63469 26.3025 5.20668C25.7305 5.77866 24.9548 6.1 24.1458 6.1Z" fill="#047EAA"/>
  <path d="M45.4959 27.45V37.4387C46.4188 36.8906 47.4724 36.6013 48.5459 36.6013C49.6193 36.6013 50.6729 36.8906 51.5959 37.4387V27.45C51.5959 23.4054 49.9892 19.5265 47.1292 16.6666C44.2693 13.8066 40.3904 12.2 36.3459 12.2H30.2458V18.2999H36.3459C38.7705 18.3067 41.094 19.2728 42.8085 20.9873C44.523 22.7018 45.4891 25.0253 45.4959 27.45Z" fill="#047EAA"/>
  <path d="M48.5459 48.8001C47.4735 48.7911 46.422 48.502 45.4959 47.9613V51.85H13.4709C12.2575 51.85 11.0938 52.3321 10.2359 53.19C9.37788 54.048 8.89587 55.2117 8.89587 56.4251C8.89587 57.6384 9.37788 58.8021 10.2359 59.6601C11.0938 60.518 12.2575 61 13.4709 61H47.0209C48.2322 60.9934 49.392 60.5092 50.2485 59.6527C51.105 58.7962 51.5892 57.6364 51.5959 56.4251V47.9613C50.6697 48.502 49.6183 48.7911 48.5459 48.8001Z" fill="#047EAA"/>
</svg>
