<svg width="56" height="56" viewBox="0 0 56 56" fill="none" xmlns="http://www.w3.org/2000/svg">
  <path opacity="0.35" d="M30.5667 21.8867H6.11333C4.49198 21.8867 2.93703 22.5308 1.79055 23.6773C0.644082 24.8237 0 26.3787 0 28.0001C0 29.6214 0.644082 31.1764 1.79055 32.3228C2.93703 33.4693 4.49198 34.1134 6.11333 34.1134H30.5667V21.8867Z" fill="#047EAA"/>
  <path d="M56 28.0001C56 26.3787 55.3559 24.8237 54.2094 23.6773C53.063 22.5308 51.508 21.8867 49.8867 21.8867H28.49V34.1134H49.8867C51.508 34.1134 53.063 33.4693 54.2094 32.3228C55.3559 31.1764 56 29.6214 56 28.0001Z" fill="#047EAA"/>
</svg>
