<svg width="64" height="64" viewBox="0 0 64 64" fill="none" xmlns="http://www.w3.org/2000/svg">
  <g clip-path="url(#clip0_223_1476)">
    <path opacity="0.35" d="M63.0133 53.6533V21.8399C63.0141 19.9938 62.5198 18.1813 61.5817 16.5913C60.6436 15.0013 59.2962 13.692 57.68 12.7999L37.0133 1.30661C35.4798 0.45434 33.7544 0.00708008 32 0.00708008C30.2456 0.00708008 28.5201 0.45434 26.9866 1.30661L6.29329 12.7999C4.67701 13.692 3.32961 15.0013 2.39155 16.5913C1.45348 18.1813 0.959111 19.9938 0.959962 21.8399V53.6533C0.959958 55.0143 1.22846 56.3619 1.7501 57.6189C2.27173 58.876 3.03625 60.0178 3.99985 60.9789C4.96346 61.94 6.10721 62.7016 7.36561 63.22C8.624 63.7384 9.97231 64.0035 11.3333 63.9999H52.6933C55.4328 63.9929 58.0576 62.8997 59.9923 60.9601C61.9269 59.0205 63.0133 56.3928 63.0133 53.6533V53.6533Z" fill="#047EAA"/>
    <path d="M52 34.3467C51.7273 33.9854 51.386 33.6815 50.9956 33.4524C50.6052 33.2233 50.1735 33.0734 49.7251 33.0115C49.2767 32.9496 48.8205 32.9767 48.3826 33.0915C47.9447 33.2062 47.5338 33.4062 47.1734 33.68L38.8267 40C38.8488 39.4628 38.7417 38.9281 38.5143 38.4409C38.2869 37.9537 37.946 37.5281 37.52 37.2C32 32.88 26.4534 31.1734 21.3334 32C20.2409 32.1915 19.1754 32.5138 18.16 32.96V32.96C18.16 32.5083 18.0711 32.061 17.8982 31.6436C17.7253 31.2262 17.4719 30.847 17.1525 30.5276C16.833 30.2081 16.4538 29.9548 16.0365 29.7819C15.6191 29.609 15.1718 29.52 14.72 29.52C14.2683 29.52 13.821 29.609 13.4036 29.7819C12.9862 29.9548 12.607 30.2081 12.2876 30.5276C11.9681 30.847 11.7148 31.2262 11.5419 31.6436C11.369 32.061 11.28 32.5083 11.28 32.96V50.1867C11.28 50.6384 11.369 51.0858 11.5419 51.5031C11.7148 51.9205 11.9681 52.2997 12.2876 52.6191C12.607 52.9386 12.9862 53.192 13.4036 53.3648C13.821 53.5377 14.2683 53.6267 14.72 53.6267C15.1718 53.6267 15.6191 53.5377 16.0365 53.3648C16.4538 53.192 16.833 52.9386 17.1525 52.6191C17.4719 52.2997 17.7253 51.9205 17.8982 51.5031C18.0711 51.0858 18.16 50.6384 18.16 50.1867C18.16 46.8 18.16 46.7467 21.6 46.7467C25.854 46.9512 30.0244 48.0029 33.8667 49.84C34.442 50.1133 35.0806 50.2254 35.7146 50.1644C36.3486 50.1033 36.9541 49.8714 37.4667 49.4934L51.2534 39.1467C51.9878 38.6083 52.4788 37.8008 52.6187 36.901C52.7587 36.0012 52.5362 35.0827 52 34.3467V34.3467Z" fill="#047EAA"/>
    <path fill-rule="evenodd" clip-rule="evenodd" d="M42.3467 18.2933C42.3328 17.4913 42.161 16.6999 41.8412 15.9644C41.5215 15.2288 41.0599 14.5634 40.4829 14.0062C39.9059 13.449 39.2248 13.011 38.4785 12.7171C37.7322 12.4232 36.9353 12.2792 36.1333 12.2933C34.6097 12.2955 33.1395 12.8552 32 13.8666C30.8605 12.8552 29.3903 12.2955 27.8667 12.2933C27.0647 12.2792 26.2678 12.4232 25.5215 12.7171C24.7752 13.011 24.0941 13.449 23.5171 14.0062C22.9401 14.5634 22.4785 15.2288 22.1587 15.9644C21.8389 16.6999 21.6672 17.4913 21.6533 18.2933C21.6592 19.1042 21.83 19.9054 22.1555 20.6481C22.481 21.3908 22.9544 22.0594 23.5467 22.6133L29.76 28.64C30.3614 29.22 31.1644 29.5442 32 29.5442C32.8356 29.5442 33.6386 29.22 34.24 28.64L40.4267 22.6133C41.0276 22.0648 41.5084 21.3978 41.8388 20.6543C42.1692 19.9108 42.3422 19.1069 42.3467 18.2933V18.2933Z" fill="#047EAA"/>
  </g>
  <defs>
    <clipPath id="clip0_223_1476">
      <rect width="64" height="64" fill="white"/>
    </clipPath>
  </defs>
</svg>
