<svg width="57" height="56" viewBox="0 0 57 56" fill="none" xmlns="http://www.w3.org/2000/svg">
  <g clip-path="url(#clip0_220_3823)">
    <path opacity="0.35" d="M28.5 16.8C33.222 16.8 37.05 13.0392 37.05 8.4C37.05 3.76081 33.222 0 28.5 0C23.7779 0 19.95 3.76081 19.95 8.4C19.95 13.0392 23.7779 16.8 28.5 16.8Z" fill="#047EAA"/>
    <path d="M42.75 30.8H14.25V25.2C14.2469 24.4638 14.3922 23.7342 14.6775 23.0534C14.9629 22.3725 15.3826 21.754 15.9125 21.2333C16.4425 20.7127 17.0721 20.3003 17.765 20.02C18.458 19.7397 19.2006 19.5969 19.95 19.6H37.0501C37.7995 19.5969 38.5421 19.7397 39.2351 20.02C39.928 20.3003 40.5576 20.7127 41.0876 21.2333C41.6175 21.754 42.0372 22.3725 42.3226 23.0534C42.6079 23.7342 42.7532 24.4638 42.75 25.2V30.8Z" fill="#047EAA"/>
    <path opacity="0.35" d="M52.725 39.2001H4.275C3.14312 39.1939 2.05938 38.7495 1.25901 37.9631C0.458639 37.1768 0.00623638 36.1121 0 35.0001C0.00623638 33.888 0.458639 32.8233 1.25901 32.037C2.05938 31.2506 3.14312 30.8062 4.275 30.8H52.725C53.8569 30.8062 54.9406 31.2506 55.741 32.037C56.5414 32.8233 56.9938 33.888 57 35.0001C56.9938 36.1121 56.5414 37.1768 55.741 37.9631C54.9406 38.7495 53.8569 39.1939 52.725 39.2001Z" fill="#047EAA"/>
    <path d="M4.27498 39.2C3.78825 39.1981 3.30575 39.1112 2.84998 38.9434L5.22498 46.3634C6.17293 49.2041 8.02155 51.6721 10.5002 53.4061C12.9789 55.1402 15.9575 56.0491 19 56H38.2375C41.2436 56.0044 44.1741 55.0746 46.6099 53.3438C49.0456 51.6129 50.8618 49.1696 51.7987 46.3634L54.1737 38.9434C53.718 39.1112 53.2355 39.1981 52.7487 39.2H4.27498Z" fill="#047EAA"/>
  </g>
  <defs>
    <clipPath id="clip0_220_3823">
      <rect width="57" height="56" fill="white"/>
    </clipPath>
  </defs>
</svg>
