<?xml version="1.0" encoding="UTF-8" standalone="no"?>
<!DOCTYPE svg PUBLIC "-//W3C//DTD SVG 1.1//EN" "http://www.w3.org/Graphics/SVG/1.1/DTD/svg11.dtd">
<svg width="100%" height="100%" viewBox="0 0 540 571" version="1.1" xmlns="http://www.w3.org/2000/svg" xmlns:xlink="http://www.w3.org/1999/xlink" xml:space="preserve" xmlns:serif="http://www.serif.com/" style="fill-rule:evenodd;clip-rule:evenodd;stroke-linejoin:round;stroke-miterlimit:2;">
    <g transform="matrix(1,0,0,1,-76.73,-701.538)">
        <g>
            <g>
                <g transform="matrix(0.742172,0,0,1.30164,-182.578,-573.046)">
                    <path d="M430.234,983.845C430.234,981.287 426.593,979.212 422.108,979.212L357.515,979.212C353.031,979.212 349.39,981.287 349.39,983.845L349.39,1350.95C349.39,1353.51 353.031,1355.59 357.515,1355.59L422.108,1355.59C426.593,1355.59 430.234,1353.51 430.234,1350.95L430.234,983.845Z" style="fill:rgb(76,151,159);"/>
                </g>
                <g transform="matrix(4.55569e-17,0.742172,-1.43333,8.79591e-17,2019.73,952.273)">
                    <path d="M430.234,984.002C430.234,981.358 426.088,979.212 420.982,979.212L358.641,979.212C353.535,979.212 349.39,981.358 349.39,984.002L349.39,1350.8C349.39,1353.44 353.535,1355.59 358.641,1355.59L420.982,1355.59C426.088,1355.59 430.234,1353.44 430.234,1350.8L430.234,984.002Z" style="fill:rgb(76,151,159);"/>
                </g>
                <g transform="matrix(0.628606,0,0,1.14929,-14.8138,-636.548)">
                    <path d="M722.913,1299.67C722.913,1297.47 719.648,1295.68 715.626,1295.68L537.226,1295.68C533.205,1295.68 529.939,1297.47 529.939,1299.67L529.939,1586.55C529.939,1588.75 533.205,1590.54 537.226,1590.54L715.626,1590.54C719.648,1590.54 722.913,1588.75 722.913,1586.55L722.913,1299.67Z" style="fill:rgb(76,151,159);"/>
                </g>
            </g>
            <g>
                <g transform="matrix(0.668929,0,0,0.72277,-191.843,-37.4269)">
                    <path d="M722.913,1302.43C722.913,1298.71 719.648,1295.68 715.626,1295.68L537.226,1295.68C533.205,1295.68 529.939,1298.71 529.939,1302.43L529.939,1583.8C529.939,1587.52 533.205,1590.54 537.226,1590.54L715.626,1590.54C719.648,1590.54 722.913,1587.52 722.913,1583.8L722.913,1302.43Z" style="fill:rgb(76,151,159);"/>
                </g>
                <g transform="matrix(0.668929,0,0,0.218947,-191.843,536.606)">
                    <path d="M722.913,1306.82C722.913,1300.67 721.28,1295.68 719.269,1295.68L533.584,1295.68C531.572,1295.68 529.939,1300.67 529.939,1306.82L529.939,1579.4C529.939,1585.55 531.572,1590.54 533.584,1590.54L719.269,1590.54C721.28,1590.54 722.913,1585.55 722.913,1579.4L722.913,1306.82Z" style="fill:rgb(76,151,159);"/>
                </g>
                <g transform="matrix(0.668929,0,0,0.218947,-191.843,843.2)">
                    <path d="M722.913,1306.82C722.913,1300.67 721.28,1295.68 719.269,1295.68L533.584,1295.68C531.572,1295.68 529.939,1300.67 529.939,1306.82L529.939,1579.4C529.939,1585.55 531.572,1590.54 533.584,1590.54L719.269,1590.54C721.28,1590.54 722.913,1585.55 722.913,1579.4L722.913,1306.82Z" style="fill:rgb(76,151,159);"/>
                </g>
            </g>
            <g transform="matrix(0.661399,0,0,1.40524,116.878,-1043.65)">
                <path d="M722.913,1299.12C722.913,1297.22 719.648,1295.68 715.626,1295.68L537.226,1295.68C533.205,1295.68 529.939,1297.22 529.939,1299.12L529.939,1587.11C529.939,1589 533.205,1590.54 537.226,1590.54L715.626,1590.54C719.648,1590.54 722.913,1589 722.913,1587.11L722.913,1299.12Z" style="fill:rgb(76,151,159);"/>
            </g>
            <g transform="matrix(0.507675,0,0,0.507675,168.856,139.456)">
                <rect x="684.809" y="1316.12" width="48.598" height="49.942" style="fill:white;"/>
            </g>
            <g transform="matrix(0.507675,0,0,0.507675,168.856,470.396)">
                <rect x="684.809" y="1316.12" width="48.598" height="49.942" style="fill:white;"/>
            </g>
        </g>
    </g>
</svg>
