<svg width="56" height="56" viewBox="0 0 56 56" fill="none" xmlns="http://www.w3.org/2000/svg">
  <g clip-path="url(#clip0_196_616)">
    <path opacity="0.35" d="M49.77 21.77H34.23V6.23C34.23 4.5777 33.5736 2.99308 32.4053 1.82472C31.2369 0.656373 29.6523 0 28 0C26.3477 0 24.7631 0.656373 23.5947 1.82472C22.4264 2.99308 21.77 4.5777 21.77 6.23V21.77H6.23C4.5777 21.77 2.99308 22.4264 1.82472 23.5947C0.656373 24.7631 0 26.3477 0 28C0 29.6523 0.656373 31.2369 1.82472 32.4053C2.99308 33.5736 4.5777 34.23 6.23 34.23H49.77C51.4223 34.23 53.0069 33.5736 54.1753 32.4053C55.3436 31.2369 56 29.6523 56 28C56 26.3477 55.3436 24.7631 54.1753 23.5947C53.0069 22.4264 51.4223 21.77 49.77 21.77Z" fill="#047EAA"/>
    <path d="M28 56C28.8182 56 29.6283 55.8388 30.3841 55.5258C31.14 55.2127 31.8268 54.7538 32.4053 54.1753C32.9838 53.5967 33.4427 52.91 33.7558 52.1541C34.0689 51.3982 34.23 50.5881 34.23 49.77V34.23H21.77V49.77C21.77 50.5881 21.9312 51.3982 22.2442 52.1541C22.5573 52.91 23.0162 53.5967 23.5947 54.1753C24.1733 54.7538 24.86 55.2127 25.6159 55.5258C26.3718 55.8388 27.1819 56 28 56Z" fill="#047EAA"/>
  </g>
  <defs>
    <clipPath id="clip0_196_616">
      <rect width="56" height="56" fill="white"/>
    </clipPath>
  </defs>
</svg>
