<svg width="65" height="65" viewBox="0 0 65 65" fill="none" xmlns="http://www.w3.org/2000/svg">
  <path d="M63.0932 53.8865L53.9948 44.7881C51.6424 48.4984 48.4984 51.6424 44.7881 53.9948L53.8865 63.0932C55.1074 64.3141 56.7633 65 58.4899 65C60.2164 65 61.8723 64.3141 63.0932 63.0932C64.3141 61.8723 65 60.2164 65 58.4899C65 56.7633 64.3141 55.1074 63.0932 53.8865Z" fill="#047EAA"/>
  <path opacity="0.35" d="M29.2449 58.4898C45.3964 58.4898 58.4898 45.3964 58.4898 29.2449C58.4898 13.0934 45.3964 0 29.2449 0C13.0934 0 0 13.0934 0 29.2449C0 45.3964 13.0934 58.4898 29.2449 58.4898Z" fill="#047EAA"/>
</svg>
