<svg width="33" height="33" viewBox="0 0 33 33" fill="none" xmlns="http://www.w3.org/2000/svg">
  <path d="M32.0319 27.3577L27.4127 22.7385C26.2184 24.6222 24.6222 26.2184 22.7385 27.4127L27.3577 32.0319C27.9776 32.6517 28.8183 33 29.6948 33C30.5714 33 31.4121 32.6517 32.0319 32.0319C32.6518 31.4121 33 30.5714 33 29.6948C33 28.8182 32.6518 27.9776 32.0319 27.3577Z" fill="#F47D21"/>
  <path opacity="0.35" d="M14.8474 29.6948C23.0474 29.6948 29.6948 23.0474 29.6948 14.8474C29.6948 6.64741 23.0474 0 14.8474 0C6.64741 0 0 6.64741 0 14.8474C0 23.0474 6.64741 29.6948 14.8474 29.6948Z" fill="#F47D21"/>
</svg>
