<svg width="55" height="57" viewBox="0 0 55 57" fill="none" xmlns="http://www.w3.org/2000/svg">
  <g clip-path="url(#clip0_210_441)">
    <path d="M53.2584 31.0887H50.0042V12.9437C50 12.1182 49.8062 11.3056 49.4389 10.5731C49.0716 9.84063 48.5413 9.20925 47.8919 8.73119C47.2426 8.25314 46.4927 7.94213 45.7044 7.82389C44.9161 7.70565 44.1119 7.78358 43.3584 8.05122C42.3476 8.43045 41.478 9.13036 40.8732 10.0514C40.2683 10.9724 39.9592 12.0676 39.9896 13.1812V31.0887H36.6667C36.3252 31.0909 35.9918 31.1971 35.7081 31.3941C35.4243 31.5911 35.2028 31.8702 35.0709 32.1967C34.939 32.5232 34.9027 32.8827 34.9664 33.2304C35.0301 33.5782 35.191 33.8988 35.4292 34.1525L43.1521 42.2275C43.3844 42.4709 43.661 42.6642 43.9659 42.7961C44.2707 42.9279 44.5978 42.9959 44.9282 42.9959C45.2585 42.9959 45.5856 42.9279 45.8905 42.7961C46.1953 42.6642 46.4719 42.4709 46.7042 42.2275L54.4271 34.1525C54.6618 33.9032 54.8219 33.5889 54.8881 33.2475C54.9543 32.9061 54.9238 32.5521 54.8002 32.2283C54.6767 31.9044 54.4654 31.6245 54.1918 31.4223C53.9182 31.2201 53.5941 31.1043 53.2584 31.0887Z" fill="#047EAA"/>
    <path opacity="0.35" d="M29.9979 41.4437H4.99583C3.66875 41.45 2.39809 42.0008 1.46185 42.9755C0.525599 43.9503 -1.38349e-05 45.2696 2.73122e-10 46.645H2.73122e-10C0.00602798 48.0162 0.534309 49.3295 1.46991 50.2991C2.4055 51.2687 3.67271 51.8162 4.99583 51.8225H29.9979C31.3229 51.8225 32.5936 51.277 33.5305 50.306C34.4674 49.335 34.9938 48.0181 34.9938 46.645C34.9968 45.9631 34.8698 45.2872 34.6201 44.6563C34.3703 44.0254 34.0028 43.4519 33.5386 42.9686C33.0744 42.4853 32.5227 42.1018 31.915 41.8401C31.3074 41.5784 30.6559 41.4437 29.9979 41.4437Z" fill="#047EAA"/>
    <path opacity="0.35" d="M22.5042 23.3225H4.99583C3.67086 23.3225 2.40015 23.868 1.46325 24.839C0.526345 25.8099 0 27.1269 0 28.5H0C0 29.8732 0.526345 31.1901 1.46325 32.1611C2.40015 33.132 3.67086 33.6775 4.99583 33.6775H22.5042C23.8291 33.6775 25.0999 33.132 26.0368 32.1611C26.9737 31.1901 27.5 29.8732 27.5 28.5C27.5 27.1269 26.9737 25.8099 26.0368 24.839C25.0999 23.868 23.8291 23.3225 22.5042 23.3225Z" fill="#047EAA"/>
    <path opacity="0.35" d="M17.5083 5.17749H4.99583C3.67271 5.18374 2.4055 5.73123 1.46991 6.70085C0.534309 7.67047 0.00602798 8.98376 2.73121e-10 10.355H2.73122e-10C-1.38349e-05 11.7303 0.525599 13.0497 1.46185 14.0245C2.39809 14.9992 3.66875 15.55 4.99583 15.5562H17.5083C18.8354 15.55 20.1061 14.9992 21.0423 14.0245C21.9786 13.0497 22.5042 11.7303 22.5042 10.355C22.4981 8.98376 21.9699 7.67047 21.0343 6.70085C20.0987 5.73123 18.8315 5.18374 17.5083 5.17749Z" fill="#047EAA"/>
  </g>
  <defs>
    <clipPath id="clip0_210_441">
      <rect width="55" height="57" fill="white"/>
    </clipPath>
  </defs>
</svg>
