<svg width="73" height="73" viewBox="0 0 73 73" fill="none" xmlns="http://www.w3.org/2000/svg">
  <g clip-path="url(#clip0_184_308)">
    <path d="M31.9374 63.875C31.6442 63.9049 31.3486 63.9049 31.0554 63.875C30.4478 63.7702 29.8677 63.5433 29.3503 63.208C28.8328 62.8727 28.3887 62.436 28.0447 61.9243C27.7007 61.4126 27.464 60.8365 27.3489 60.2308C27.2338 59.625 27.2426 59.0022 27.3749 58.4L36.4999 12.775C36.7379 11.565 37.4468 10.499 38.4707 9.81166C39.4947 9.1243 40.7497 8.87184 41.9597 9.10982C43.1698 9.34779 44.2357 10.0567 44.9231 11.0806C45.6105 12.1045 45.8629 13.3596 45.6249 14.5696L36.4999 60.1946C36.2929 61.2463 35.7222 62.1915 34.8879 62.8645C34.0537 63.5374 33.0091 63.8952 31.9374 63.875Z" fill="#047EAA"/>
    <path opacity="0.35" d="M59.3125 54.75C58.4137 54.756 57.5339 54.491 56.7879 53.9896C56.2885 53.6581 55.8592 53.2316 55.5247 52.7342C55.1902 52.2369 54.9569 51.6785 54.8383 51.0909C54.7197 50.5034 54.718 49.8982 54.8333 49.31C54.9486 48.7218 55.1787 48.1621 55.5104 47.6629L62.9625 36.5L55.5104 25.3371C54.8409 24.3287 54.5993 23.0956 54.8389 21.9091C55.0785 20.7227 55.7796 19.68 56.7879 19.0104C57.7963 18.3408 59.0294 18.0993 60.2158 18.3388C61.4023 18.5784 62.445 19.2795 63.1146 20.2879L72.2396 33.9754C72.7291 34.7264 72.9897 35.6035 72.9897 36.5C72.9897 37.3964 72.7291 38.2735 72.2396 39.0246L63.1146 52.7121C62.7001 53.3409 62.1354 53.8566 61.4716 54.2124C60.8077 54.5682 60.0657 54.753 59.3125 54.75Z" fill="#047EAA"/>
    <path opacity="0.35" d="M13.6875 54.75C12.9343 54.753 12.1922 54.5682 11.5284 54.2124C10.8646 53.8566 10.2999 53.3409 9.88538 52.7121L0.760379 39.0246C0.25563 38.2794 -0.0141602 37.4 -0.0141602 36.5C-0.0141602 35.5999 0.25563 34.7206 0.760379 33.9754L9.88538 20.2879C10.5549 19.2795 11.5977 18.5784 12.7841 18.3388C13.9706 18.0993 15.2037 18.3408 16.212 19.0104C17.2204 19.68 17.9215 20.7227 18.1611 21.9091C18.4007 23.0956 18.1591 24.3287 17.4895 25.3371L10.0375 36.5L17.4895 47.6629C17.8213 48.1621 18.0514 48.7218 18.1667 49.31C18.282 49.8982 18.2803 50.5034 18.1617 51.0909C18.043 51.6785 17.8098 52.2369 17.4753 52.7342C17.1407 53.2316 16.7115 53.6581 16.212 53.9896C15.4661 54.491 14.5863 54.756 13.6875 54.75Z" fill="#047EAA"/>
  </g>
  <defs>
    <clipPath id="clip0_184_308">
      <rect width="73" height="73" fill="white"/>
    </clipPath>
  </defs>
</svg>
