<svg width="28" height="26" viewBox="0 0 28 26" fill="none" xmlns="http://www.w3.org/2000/svg">
  <path d="M13.5245 1.08156C13.6741 0.620904 14.3259 0.620901 14.4755 1.08156L16.8922 8.51925C17.093 9.13729 17.6689 9.55573 18.3188 9.55573H26.1392C26.6236 9.55573 26.825 10.1755 26.4331 10.4602L20.1062 15.057C19.5805 15.439 19.3605 16.116 19.5613 16.734L21.978 24.1717C22.1277 24.6324 21.6004 25.0154 21.2086 24.7307L14.8817 20.134C14.3559 19.752 13.6441 19.752 13.1183 20.134L6.79144 24.7307C6.39959 25.0154 5.87234 24.6324 6.02202 24.1717L8.43867 16.734C8.63949 16.116 8.4195 15.4389 7.89377 15.057L1.56688 10.4602C1.17503 10.1755 1.37641 9.55573 1.86078 9.55573H9.68123C10.3311 9.55573 10.907 9.13729 11.1078 8.51925L13.5245 1.08156Z" fill="#047EAA" stroke="#047EAA"/>
</svg>
