<svg width="30" height="28" viewBox="0 0 30 28" fill="none" xmlns="http://www.w3.org/2000/svg">
  <path d="M14.0489 0.92705C14.3483 0.00573921 15.6517 0.00574017 15.9511 0.927051L18.5922 9.05573C18.7261 9.46775 19.1101 9.74671 19.5433 9.74671L28.0903 9.74671C29.059 9.74671 29.4618 10.9863 28.6781 11.5557L21.7634 16.5795C21.4129 16.8342 21.2663 17.2855 21.4001 17.6976L24.0413 25.8262C24.3406 26.7475 23.2862 27.5137 22.5025 26.9443L15.5878 21.9205C15.2373 21.6658 14.7627 21.6658 14.4122 21.9205L7.49755 26.9443C6.71383 27.5137 5.65936 26.7475 5.95871 25.8262L8.59987 17.6976C8.73375 17.2855 8.58709 16.8342 8.2366 16.5795L1.32194 11.5557C0.538223 10.9863 0.940999 9.74671 1.90972 9.74671L10.4567 9.74671C10.8899 9.74671 11.2739 9.46775 11.4078 9.05573L14.0489 0.92705Z" fill="#F47D21"/>
</svg>
