<svg width="66" height="66" viewBox="0 0 66 66" fill="none" xmlns="http://www.w3.org/2000/svg">
  <path d="M41.6625 15.8125L35.75 9.8725C35.5637 9.68545 35.3257 9.55854 35.0665 9.50816C34.8074 9.45777 34.5392 9.48623 34.2964 9.58985C34.0536 9.69347 33.8475 9.8675 33.7046 10.0895C33.5618 10.3114 33.4887 10.5711 33.495 10.835V12.925C30.0773 12.9014 26.7019 13.6804 23.6403 15.1992C20.5786 16.7181 17.9163 18.9345 15.8675 21.67C15.4449 22.2687 15.1838 22.9663 15.1094 23.6954C15.035 24.4245 15.1499 25.1605 15.4429 25.8322C15.736 26.5039 16.1972 27.0888 16.7822 27.5303C17.3672 27.9717 18.0561 28.2549 18.7825 28.3525H19.25C19.9693 28.4392 20.6988 28.3348 21.365 28.05C22.0312 27.7652 22.6106 27.3099 23.045 26.73C24.2732 25.1435 25.8489 23.8599 27.6511 22.9779C29.4532 22.0959 31.4336 21.639 33.44 21.6425V23.5125C33.436 23.7818 33.5129 24.0462 33.6607 24.2714C33.8085 24.4966 34.0204 24.6723 34.269 24.7759C34.5177 24.8795 34.7917 24.9062 35.0557 24.8526C35.3196 24.799 35.5615 24.6674 35.75 24.475L41.745 18.535C42.0886 18.1599 42.2722 17.6655 42.2568 17.157C42.2414 16.6485 42.0282 16.1661 41.6625 15.8125Z" fill="#047EAA"/>
  <path d="M52.4425 45.7599C54.3647 42.4147 55.3614 38.6179 55.33 34.7599C55.33 31.6808 54.6835 28.636 53.4325 25.8224C53.1248 25.1758 52.6561 24.6191 52.0714 24.2056C51.4866 23.7922 50.8055 23.536 50.0933 23.4614C49.381 23.3869 48.6616 23.4966 48.004 23.78C47.3463 24.0634 46.7725 24.511 46.3375 25.0799L46.0625 25.4099C45.6075 26.0229 45.3243 26.7462 45.2421 27.5051C45.1599 28.2641 45.2818 29.0312 45.595 29.7274C46.2475 31.3251 46.5837 33.0342 46.585 34.7599C46.5903 37.0346 46.0026 39.2715 44.88 41.2499L43.12 40.2599C42.8937 40.1236 42.6316 40.0584 42.3677 40.0727C42.1039 40.087 41.8504 40.1801 41.6401 40.3401C41.4297 40.5 41.2723 40.7195 41.188 40.9699C41.1038 41.2204 41.0966 41.4903 41.1675 41.7449L43.3125 49.9949C43.373 50.2431 43.483 50.4765 43.6359 50.6812C43.7888 50.8858 43.9815 51.0575 44.2023 51.1859C44.4232 51.3143 44.6677 51.3968 44.9212 51.4284C45.1747 51.46 45.4319 51.4401 45.6775 51.3699L53.79 49.1424C54.0435 49.0767 54.2716 48.937 54.4455 48.7413C54.6194 48.5455 54.7311 48.3025 54.7665 48.0431C54.8018 47.7836 54.7593 47.5196 54.6442 47.2844C54.5291 47.0492 54.3466 46.8536 54.12 46.7224L52.4425 45.7599Z" fill="#047EAA"/>
  <path d="M14.355 45.7601C16.2751 49.0426 19.0133 51.7714 22.3025 53.6801C24.9714 55.2025 27.9336 56.1399 30.9925 56.4301C31.7079 56.4902 32.4268 56.365 33.0798 56.0666C33.7328 55.7681 34.298 55.3065 34.7208 54.7262C35.1436 54.1459 35.4097 53.4665 35.4937 52.7534C35.5776 52.0404 35.4765 51.3177 35.2 50.6551L35.035 50.2701C34.7286 49.5669 34.2416 48.9573 33.6234 48.5032C33.0051 48.0492 32.2777 47.7669 31.515 47.6851C29.8072 47.4659 28.1611 46.9047 26.675 46.0351C24.7494 44.9053 23.1411 43.3065 22 41.3876L23.76 40.3701C23.984 40.234 24.1635 40.0356 24.2764 39.799C24.3893 39.5625 24.4308 39.2982 24.3958 39.0384C24.3608 38.7786 24.2508 38.5347 24.0792 38.3365C23.9077 38.1384 23.682 37.9945 23.43 37.9226L15.235 35.7501C14.9894 35.6838 14.7331 35.6669 14.4809 35.7002C14.2287 35.7336 13.9856 35.8166 13.7657 35.9444C13.5458 36.0723 13.3534 36.2425 13.1997 36.4451C13.0459 36.6478 12.9339 36.8789 12.87 37.1251L10.725 45.3751C10.6608 45.6293 10.6721 45.8967 10.7576 46.1445C10.8431 46.3923 10.999 46.6098 11.2063 46.7703C11.4135 46.9309 11.6631 47.0275 11.9244 47.0483C12.1857 47.0691 12.4474 47.0133 12.6775 46.8876L14.355 45.7601Z" fill="#047EAA"/>
  <path opacity="0.35" d="M33 66C51.2254 66 66 51.2254 66 33C66 14.7746 51.2254 0 33 0C14.7746 0 0 14.7746 0 33C0 51.2254 14.7746 66 33 66Z" fill="#047EAA"/>
</svg>
