<svg width="57" height="57" viewBox="0 0 57 57" fill="none" xmlns="http://www.w3.org/2000/svg">
  <g clip-path="url(#clip0_169_675)">
    <path opacity="0.35" d="M15.01 39.9H0V11.4C0.0621959 9.07332 1.04488 6.86638 2.73242 5.26344C4.41995 3.66051 6.67448 2.79252 9.00125 2.84997H45.125C47.4518 2.79252 49.7063 3.66051 51.3938 5.26344C53.0814 6.86638 54.0641 9.07332 54.1263 11.4V39.9H15.01Z" fill="#047EAA"/>
    <path d="M9.97498 14.25C13.91 14.25 17.1 11.06 17.1 7.125C17.1 3.18997 13.91 0 9.97498 0C6.03995 0 2.84998 3.18997 2.84998 7.125C2.84998 11.06 6.03995 14.25 9.97498 14.25Z" fill="#047EAA"/>
    <path d="M31.1362 17.1H5.69996C4.95054 17.0969 4.20792 17.2422 3.51495 17.5275C2.82197 17.8129 2.19236 18.2326 1.66244 18.7625C1.13252 19.2924 0.712782 19.922 0.427443 20.615C0.142104 21.308 -0.00318607 22.0506 -4.3833e-05 22.8V53.8413C-0.0242483 54.6069 0.237017 55.3542 0.73299 55.9379C1.22896 56.5217 1.92423 56.9002 2.68371 57C3.47709 57.0868 4.27251 56.8555 4.89573 56.3569C5.51896 55.8584 5.91917 55.1331 6.00871 54.34L7.50496 40.8738C7.52872 40.6134 7.64923 40.3714 7.84269 40.1955C8.03615 40.0197 8.28851 39.9227 8.54996 39.9238C8.81141 39.9227 9.06377 40.0197 9.25723 40.1955C9.45069 40.3714 9.57119 40.6134 9.59496 40.8738L11.0912 54.2213C11.1658 54.9408 11.4888 55.6118 12.0046 56.1189C12.5204 56.6261 13.1968 56.9376 13.9175 57C14.3273 57.0227 14.7375 56.9614 15.1228 56.82C15.5082 56.6785 15.8606 56.46 16.1586 56.1776C16.4565 55.8952 16.6937 55.555 16.8555 55.1778C17.0174 54.8006 17.1006 54.3943 17.1 53.9838V26.5288C17.102 26.1704 17.2325 25.8247 17.4679 25.5545C17.7032 25.2842 18.0278 25.1075 18.3825 25.0563L31.445 23.2038C32.1679 23.1127 32.8371 22.7744 33.3392 22.2464C33.8413 21.7183 34.1454 21.0329 34.2 20.3063C34.2192 19.8921 34.1543 19.4783 34.009 19.09C33.8636 18.7017 33.641 18.3469 33.3546 18.0472C33.0681 17.7474 32.7238 17.5089 32.3425 17.3461C31.9612 17.1833 31.5508 17.0996 31.1362 17.1Z" fill="#047EAA"/>
    <path d="M41.99 37.05H36.005C35.2492 37.05 34.5243 36.7497 33.9898 36.2152C33.4553 35.6808 33.155 34.9558 33.155 34.2C33.155 33.4441 33.4553 32.7192 33.9898 32.1847C34.5243 31.6502 35.2492 31.35 36.005 31.35H41.99C42.7459 31.35 43.4708 31.6502 44.0053 32.1847C44.5398 32.7192 44.84 33.4441 44.84 34.2C44.84 34.9558 44.5398 35.6808 44.0053 36.2152C43.4708 36.7497 42.7459 37.05 41.99 37.05Z" fill="#047EAA"/>
    <path d="M54.0075 42.75H15.01V37.05H54.0075C54.7634 37.05 55.4883 37.3503 56.0228 37.8847C56.5572 38.4192 56.8575 39.1441 56.8575 39.9C56.8575 40.6559 56.5572 41.3808 56.0228 41.9152C55.4883 42.4497 54.7634 42.75 54.0075 42.75Z" fill="#047EAA"/>
  </g>
  <defs>
    <clipPath id="clip0_169_675">
      <rect width="57" height="57" fill="white"/>
    </clipPath>
  </defs>
</svg>
