<svg width="56" height="56" viewBox="0 0 56 56" fill="none" xmlns="http://www.w3.org/2000/svg">
  <g clip-path="url(#clip0_220_3821)">
    <path opacity="0.35" d="M47.6 2.80005H8.4C6.17218 2.80005 4.03561 3.68505 2.4603 5.26035C0.884997 6.83566 0 8.97223 0 11.2L0 36.4C0 38.6279 0.884997 40.7644 2.4603 42.3397C4.03561 43.915 6.17218 44.8 8.4 44.8H47.6C49.8278 44.8 51.9644 43.915 53.5397 42.3397C55.115 40.7644 56 38.6279 56 36.4V11.2C56 8.97223 55.115 6.83566 53.5397 5.26035C51.9644 3.68505 49.8278 2.80005 47.6 2.80005Z" fill="#047EAA"/>
    <path d="M36.4001 56H19.6C19.2323 56 18.8682 55.9276 18.5285 55.7869C18.1888 55.6462 17.8802 55.4399 17.6202 55.1799C17.3601 54.9199 17.1539 54.6112 17.0132 54.2715C16.8725 53.9318 16.8 53.5677 16.8 53.2C16.8 52.8323 16.8725 52.4682 17.0132 52.1285C17.1539 51.7888 17.3601 51.4801 17.6202 51.2201C17.8802 50.9601 18.1888 50.7539 18.5285 50.6132C18.8682 50.4724 19.2323 50.4 19.6 50.4H36.4001C37.1427 50.4 37.8549 50.695 38.38 51.2201C38.9051 51.7452 39.2001 52.4574 39.2001 53.2C39.2001 53.9426 38.9051 54.6548 38.38 55.1799C37.8549 55.705 37.1427 56 36.4001 56Z" fill="#047EAA"/>
    <path d="M33.6 42H22.4V53.2H33.6V42Z" fill="#047EAA"/>
    <path d="M47.6 44.8H8.4C6.17218 44.8 4.03561 43.915 2.4603 42.3397C0.884997 40.7644 0 38.6278 0 36.4H56C56 38.6278 55.115 40.7644 53.5397 42.3397C51.9644 43.915 49.8278 44.8 47.6 44.8Z" fill="#047EAA"/>
  </g>
  <defs>
    <clipPath id="clip0_220_3821">
      <rect width="56" height="56" fill="white"/>
    </clipPath>
  </defs>
</svg>
