<svg width="68" height="68" viewBox="0 0 68 68" fill="none" xmlns="http://www.w3.org/2000/svg">
  <g clip-path="url(#clip0_617_222)">
    <g clip-path="url(#clip1_617_222)">
      <path d="M59.115 63.625C62.4412 63.625 65.1375 60.9286 65.1375 57.6025C65.1375 54.2763 62.4412 51.58 59.115 51.58C55.7889 51.58 53.0925 54.2763 53.0925 57.6025C53.0925 60.9286 55.7889 63.625 59.115 63.625Z" fill="#047EAA"/>
      <path d="M41.0475 63.625C44.3737 63.625 47.07 60.9286 47.07 57.6025C47.07 54.2763 44.3737 51.58 41.0475 51.58C37.7214 51.58 35.025 54.2763 35.025 57.6025C35.025 60.9286 37.7214 63.625 41.0475 63.625Z" fill="#047EAA"/>
      <path opacity="0.35" d="M44.045 54.5775H38.0225V42.5325C38.0303 41.8877 38.2421 41.262 38.6275 40.745L47.675 28.7C47.9635 28.3389 48.3296 28.0474 48.7461 27.847C49.1627 27.6466 49.619 27.5426 50.0812 27.5426C50.5434 27.5426 50.9997 27.6466 51.4163 27.847C51.8328 28.0474 52.1989 28.3389 52.4875 28.7L61.5075 40.745C61.9095 41.2637 62.1229 41.9038 62.1125 42.56V54.5775H56.09V43.5775L50.0675 35.5475L44.045 43.55V54.5775Z" fill="#047EAA"/>
      <path opacity="0.35" d="M53.0925 27.4899H47.07V20.0649L32 9.99994L16.93 20.0649V27.4899H10.9075V18.4424C10.9123 17.9473 11.0374 17.4608 11.2722 17.0248C11.5069 16.5888 11.8442 16.2165 12.255 15.9399L30.3225 3.89494C30.8179 3.56037 31.4021 3.38159 32 3.38159C32.5978 3.38159 33.182 3.56037 33.6775 3.89494L51.745 15.9399C52.1557 16.2165 52.493 16.5888 52.7278 17.0248C52.9625 17.4608 53.0877 17.9473 53.0925 18.4424V27.4899Z" fill="#047EAA"/>
      <path d="M32 12.42C35.3262 12.42 38.0225 9.72363 38.0225 6.3975C38.0225 3.07137 35.3262 0.375 32 0.375C28.6739 0.375 25.9775 3.07137 25.9775 6.3975C25.9775 9.72363 28.6739 12.42 32 12.42Z" fill="#047EAA"/>
      <path d="M50.0675 36.51C53.3937 36.51 56.09 33.8136 56.09 30.4875C56.09 27.1613 53.3937 24.465 50.0675 24.465C46.7414 24.465 44.045 27.1613 44.045 30.4875C44.045 33.8136 46.7414 36.51 50.0675 36.51Z" fill="#047EAA"/>
      <path d="M22.9526 63.625C26.2787 63.625 28.9751 60.9286 28.9751 57.6025C28.9751 54.2763 26.2787 51.58 22.9526 51.58C19.6264 51.58 16.9301 54.2763 16.9301 57.6025C16.9301 60.9286 19.6264 63.625 22.9526 63.625Z" fill="#047EAA"/>
      <path d="M4.88505 63.625C8.21118 63.625 10.9075 60.9286 10.9075 57.6025C10.9075 54.2763 8.21118 51.58 4.88505 51.58C1.55891 51.58 -1.13745 54.2763 -1.13745 57.6025C-1.13745 60.9286 1.55891 63.625 4.88505 63.625Z" fill="#047EAA"/>
      <path d="M13.9325 36.51C17.2587 36.51 19.955 33.8136 19.955 30.4875C19.955 27.1613 17.2587 24.465 13.9325 24.465C10.6064 24.465 7.91003 27.1613 7.91003 30.4875C7.91003 33.8136 10.6064 36.51 13.9325 36.51Z" fill="#047EAA"/>
      <path opacity="0.35" d="M7.91 54.5775H1.8875V42.5325C1.87202 41.884 2.08631 41.2508 2.4925 40.745L11.5125 28.7C11.801 28.3389 12.1671 28.0474 12.5837 27.847C13.0002 27.6466 13.4565 27.5426 13.9188 27.5426C14.381 27.5426 14.8373 27.6466 15.2538 27.847C15.6704 28.0474 16.0365 28.3389 16.325 28.7L25.3725 40.745C25.7635 41.2695 25.9755 41.9058 25.9775 42.56V54.5775H19.9275V43.5775L13.9325 35.52L7.91 43.55V54.5775Z" fill="#047EAA"/>
    </g>
  </g>
  <defs>
    <clipPath id="clip0_617_222">
      <rect width="68" height="68" fill="white"/>
    </clipPath>
    <clipPath id="clip1_617_222">
      <rect width="66" height="66" fill="white" transform="translate(-1 -1)"/>
    </clipPath>
  </defs>
</svg>
